<?xml version="1.0" encoding="utf-8"?>
<!-- Generator: Adobe Illustrator 25.0.1, SVG Export Plug-In . SVG Version: 6.00 Build 0)  -->
<svg version="1.1"
	 id="Layer_1" image-rendering="optimizeQuality" shape-rendering="geometricPrecision" xmlns:v="https://vecta.io/nano"
	 xmlns="http://www.w3.org/2000/svg" xmlns:xlink="http://www.w3.org/1999/xlink" x="0px" y="0px" viewBox="0 0 907.1 134"
	 style="enable-background:new 0 0 907.1 134;" xml:space="preserve">
<style type="text/css">
	.st0{fill:#FFFFFF;stroke:#000000;stroke-miterlimit:10;}
</style>
<path class="st0" d="M26.8,131.9l7.4-28.8h37l7.2,28.8H107L71.7,2.2H35.9L0,131.9H26.8L26.8,131.9z M862.3,114.6
	C847,114.6,845,100.2,845,67s2-47.6,17.3-47.6s17.3,14.4,17.3,47.6C879.6,100.3,877.6,114.6,862.3,114.6z M862.3,134
	c44.7,0,44.7-33.1,44.7-67c0-34.3,0-67-44.7-67s-44.7,32.7-44.7,67C817.6,101,817.6,134,862.3,134z M735.5,22.1h12
	c8.6,0,13.8,4.7,13.8,17.1c0,8.3-3.1,19-13.8,19h-12V22.1z M735.5,78.2h7c20.8,0,19.4,13.1,19.4,28.6c0,8.4-0.7,17.3,2.9,25.2h26.6
	c-2.5-5.4-3.1-29.8-3.1-38.1c0-23.4-17.6-24.8-23.5-25.5V68c17.6-2.9,24.1-15.3,24.1-31.8c0-22.1-11.9-34-30.4-34h-50.1v129.7h27.1
	V78.2L735.5,78.2z M571.1,131.9V31.8h0.4l23.7,100.1H621l25-100.1h0.4v100.1h26.4V2.2h-42.2L609,90.4h-0.4L588.3,2.2h-43.7v129.7
	H571.1L571.1,131.9z M442.2,131.9l7.4-28.8h37l7.2,28.8h28.6L487.1,2.2h-35.8l-35.9,129.7H442.2L442.2,131.9z M480.8,83.2h-25.9
	l12.4-56.1h0.4L480.8,83.2L480.8,83.2z M389.3,74.6l17.4-17.4l-17.4-17.4l-17.4,17.4L389.3,74.6L389.3,74.6z M275.2,131.9V37h0.4
	l35.4,94.9h35.8V2.2h-25.3V92H321L286.5,2.2h-36.7v129.7H275.2L275.2,131.9z M157.3,75.1h15.8c13.7,0,18,7,18,18.5
	c0,18.2-12.9,18.3-18.7,18.3h-15.1V75.1L157.3,75.1z M157.3,22.1H174c9.2,0,15.6,7,15.6,16.5c0,12.6-8.3,16.5-14.2,16.5h-18.1
	C157.3,55.2,157.3,22.1,157.3,22.1z M178.1,131.9c11.5,0,40.1-1.4,40.1-34.3c0-17.8-5-30.2-24.3-32.9v-0.4
	c14.7-2.9,22.1-13.7,22.1-28.6c0-27.6-17-33.5-37.7-33.5h-48.2v129.7H178.1L178.1,131.9z M65.4,83.2H39.5l12.4-56.1h0.4L65.4,83.2z"
	/>
</svg>
