<?xml version="1.0" encoding="UTF-8"?>
<!DOCTYPE svg PUBLIC "-//W3C//DTD SVG 1.1//EN" "http://www.w3.org/Graphics/SVG/1.1/DTD/svg11.dtd">
<!-- Creator: CorelDRAW 2020 (64-Bit) -->
<svg xmlns="http://www.w3.org/2000/svg" xml:space="preserve" width="100mm" height="24.0522mm" version="1.1" style="shape-rendering:geometricPrecision; text-rendering:geometricPrecision; image-rendering:optimizeQuality; fill-rule:evenodd; clip-rule:evenodd"
viewBox="0 0 14055.4 3380.6"
 xmlns:xlink="http://www.w3.org/1999/xlink"
 xmlns:xodm="http://www.corel.com/coreldraw/odm/2003">
 <defs>
  <style type="text/css">
   <![CDATA[
    .fil0 {fill:#CCCCCC}
    .fil1 {fill:white;fill-rule:nonzero}
   ]]>
  </style>
 </defs>
 <rect class="fil0" x="29127.8" y="-42170.8" width="41744.5" height="84332.3"/>
 <g id="Layer_x0020_1">
  <metadata id="CorelCorpID_0Corel-Layer"/>
  <path class="fil1" d="M951.6 739.9c-542.5,0 -951.6,417.8 -951.6,971.9 0,269.7 93.6,508.6 270.8,691 178.4,181.3 414.3,281.2 664.3,281.2 193.5,0 356.1,-45.4 497.3,-139l21.8 -14.4 0 -315.1 -79.8 69c-122.1,104.3 -265.8,155 -439.3,155 -379.3,0 -676.5,-319.7 -676.5,-727.8 0,-406.5 297.1,-724.9 676.5,-724.9 174.1,0 297.7,43.8 440.8,156.2l78.3 61.3 0 -315.9 -24.5 -13.5c-163.1,-93.4 -310.5,-135.1 -478.1,-135.1zm9333.8 1004.6l-628 0c60.2,-236.1 163.1,-452.6 313.4,-659.4 158.1,221.8 261.4,438.3 314.6,659.4zm-314.8 -1023l-35.5 38.8c-413.2,446 -597.4,974.5 -597.4,1714l3.2 182.7 33.2 -1.2 209.9 -0.5 0 -48.3c0,-240.4 8.5,-439.2 26,-606.4l719.5 0c17.1,138.3 25.4,316.1 25.4,542l0 112.7 245.4 0 3.4 -191.2c0,-731.6 -184.3,-1257.1 -597.6,-1703.7l-35.6 -38.9zm-3530.9 1023l-627.8 0c60,-236 162.8,-452.5 313.2,-659.4 158.3,221.8 261.6,438.3 314.6,659.4zm-315 -1022.8l-35.2 38.6c-413.2,446.3 -597.5,974.7 -597.5,1714l3.2 182.7 33.2 -1.2 210.2 -0.5 0 -48.3c0,-242.1 8.5,-440.9 26,-606.4l719.5 0c17,140.1 25.2,317.8 25.2,542l0 112.7 245.9 0 3.1 -191.2c0,-731.7 -184.3,-1257.1 -597.7,-1703.9l-35.9 -38.6zm2639.8 2106.7c-136.5,-12.4 -264.1,-45.9 -350,-91.7 -33.5,-18 -60.8,-38.4 -89,-60 138.9,-16.1 260.9,-59.4 369.9,-131.6l21.7 -14.4 0 -315.1 -79.8 69c-121.9,104.3 -265.5,155 -439.1,155 -379.4,0 -676.7,-319.7 -676.7,-727.8 0,-406.5 297.2,-724.9 676.7,-724.9 173.9,0 297.5,43.8 440.6,156.2l78.2 61.3 0 -315.9 -24.4 -13.5c-162.8,-93.4 -310.2,-135.1 -477.9,-135.1 -542.5,0 -951.6,417.8 -951.6,971.9 0,269.8 93.5,508.8 270.6,691.1 60.6,61.6 128,113.5 200.2,155.6 -21.8,8.4 -44.5,18.7 -69.2,31.1 -110.6,54.9 -238.9,164.6 -267.6,307.6l-6.9 34.2 25.1 -24.2c1,-1 102.7,-96.5 293,-54 68.5,15.3 158.8,66.7 254.4,121 93,52.9 198.3,112.8 300.7,149 53.9,19.4 213.7,73.1 333.3,73.1 26.5,0 51.1,-2.6 72,-8.9 50.3,-6.5 54.3,-35.7 57.2,-57.1 1.1,-7.9 2.1,-15.4 4.4,-19.5 7.8,-4.5 47.9,3.1 74.5,8.3 53.7,10.3 87.4,15.7 102.2,3.5 3.7,-3.1 6.1,-7.2 7,-11.8 1.7,-2.9 2.5,-6.2 2.5,-9.7 -0.2,-15.1 -17,-32.3 -42.6,-56.9 -6.9,-6.6 -15.7,-15.1 -20.4,-20.6 7.2,-5 29.6,-16.4 49.7,-26.7 38.5,-19.7 91.3,-46.6 125.7,-71 53.2,-37.7 98.1,-90.5 127.1,-127l24.6 -30.9 -36.9 13.9c-52.2,19.6 -193.4,63.4 -379.3,46.3zm2470.8 -757.9c46.9,-7.9 78.5,-29.1 91.6,-61.5l1.9 -4.9 -2.6 -4.5c-5.7,-10.1 -1.4,-17.9 9.1,-31.8 7.1,-9.4 15.1,-20.1 12.1,-32.5 -2.2,-8.8 -9,-14.6 -15.7,-18.7 -0.8,-8 -5.4,-14.6 -8.9,-19.8 -1.6,-2.4 -4.4,-6.3 -4.5,-7.5 0,0 0.6,-1.4 4.4,-3.9l7.2 -4.7 -2.8 -8.1c-4.3,-12.4 -6.2,-25.5 -8.1,-38.2 -4.1,-28 -8.3,-56.9 -38.3,-74 -10.2,-10.2 -13.6,-24.2 -17.2,-39.1 -4.1,-17 -8.8,-36.2 -24.6,-50.9l-2.2 -2 -2.9 -0.7c-10.4,-2.4 -20.8,-6.4 -31.9,-10.7 -28.1,-10.9 -60.1,-23.3 -93.2,-5.2 -136.5,45 -278,108.3 -420.5,188.1l-3 2.5c-26.5,31.5 -25.5,71.5 -24.5,110.1 0.2,7.3 0.4,14.6 0.4,21.8l0 5.3 4.2 3.3c8.7,6.7 13.1,18.7 17.7,31.4 6.4,17.5 13.7,37.2 34.8,43.3 4.9,3 10.5,4.6 15.9,6.2 14.9,4.3 14.6,5.7 13.4,11.8l-2.8 14.1 14.4 -1.2c41.9,-3.3 95.8,1.5 137.2,12.2l1.7 0.4 1.7 -0.1c32.2,-2.2 66.6,-0.5 102.9,1.3 24.5,1.2 49.2,2.4 73.6,2.4 56.7,0 112,-6.4 159.4,-34.4zm-231 -874c21.2,12.5 41.2,24.3 57.8,37.5l2.6 1.5c22.6,9.5 45.4,22.2 67.3,34.4 49.6,27.5 100.7,56 160.7,56 3.9,0 7.8,-0.1 11.7,-0.4l3.2 -0.2 2.6 -1.9c7.3,-5.4 16.2,-7.7 25.6,-10.1 15.1,-3.9 32.1,-8.3 44.7,-26.1l1.8 -4.7 0.3 -3c0,-0.2 0,-0.5 0.1,-0.8 14.3,-2.1 26.8,-8.8 34.1,-18.7 5.1,-6.8 7.5,-14.8 7.2,-23.3 34.5,-3.3 39.3,-38.2 42.9,-64.6 1.9,-13.4 3.8,-27.2 8.7,-36l2.1 -3.9 -1.2 -4.3c-16.2,-58.3 -55,-106.1 -113.5,-139 -38.2,-14.5 -76,-36.6 -112.6,-57.9 -84.7,-49.4 -172.4,-100.4 -277.8,-71.1 -62.8,11 -63.7,55.5 -64.4,91.3 -0.5,25.1 -1,48.7 -17.9,65l-2.4 2.3 -0.7 3.2c-20.5,93.4 52.5,136.6 116.9,174.7zm627.4 1270.2l24.6 -19.4 -31.3 0c-7.9,0 -10.4,-2.5 -11.2,-3.3 -4.9,-4.9 -4.9,-17.5 -4.8,-28.5 0,-11.9 0.1,-23.1 -5.4,-31.3l-4.9 -7.4 -8.2 3.3c-2.3,0.9 -4.7,2.1 -7.2,3.5 -1.6,0.9 -4.4,2.3 -6.8,3l5.7 -41.3 -34.5 0c-3.5,-3.3 -7.3,-6.1 -11,-8.9 -8.4,-6.3 -13.5,-10.5 -13,-14.7l1.7 -14.1 -14.1 2.1c-84.2,12.3 -153.3,53.3 -204.7,88.1 -92,71.9 -209.1,190 -244.4,344.8l-3.1 12.2c-11.9,46.9 -24.2,95.3 0.6,141.8l3.1 5.8 27.2 0c3.9,4.7 2.7,9 -2.4,20.1 -4.6,10.2 -11,24.1 -2.7,38.6l2.9 5.1 67.1 3.6c3.2,1.9 6.3,2.7 9.3,2.7 10.5,0 19.2,-9.9 24.6,-16 3.5,-4 9.3,-10.6 12.2,-10.7l0 0c0.8,0 2.5,0.9 4.9,3.2l7.1 7.2 7.7 -6.6c166.3,-143.1 306.4,-288.9 416.4,-433.3l6.4 -8.4 -8.3 -6.6c-0.4,-0.7 -0.6,-3.3 -0.7,-4.9 -0.2,-3.6 -0.7,-9.4 -4.1,-14.4 1.1,-3.9 1.1,-7.7 1.1,-10.6 0,-1.6 0,-4.1 0.2,-4.6zm82 -1941.1c24.1,82.5 48.9,167.8 98,243.4l5.4 8.7 8.9 -5.1c0.8,0 3.2,1.2 4.7,1.9 4.4,2.1 11.2,5.4 18.6,2.2 0.2,-0.1 0.5,-0.2 0.7,-0.3 8.1,6.5 18.8,5.9 25.5,5.5 9.5,-0.5 11.1,0 12.5,2.5l9.5 17.1 14.1 -25.3c11.1,2.8 20.7,2.2 30.1,1.7 4,-0.2 8.1,-0.5 12.6,-0.5l10.5 0 0.4 -10.5c0.2,-5.4 0.9,-8.1 0.7,-8.9 1.8,0.3 5,1.5 7.3,2.3 8.3,2.9 26.3,9.4 37.2,-6.5 13.1,0.3 23.1,-10.7 29.5,-18.4 8.2,-9.9 12.6,-14.2 20.2,-13.2l8.8 1.1 2.9 -8.3c46.2,-134.3 -5.8,-260.9 -56.1,-383.3 -18.5,-45.1 -37.7,-91.8 -50.9,-137l-1.7 -3.5c-8.8,-11.9 -14.9,-28.7 -21.3,-46.6 -14.6,-40.5 -32.8,-91 -95.5,-82.4l-2.9 0.4 -2.3 1.8c-20.8,16 -48.5,19.8 -77.8,23.7 -30.7,4.1 -62.5,8.4 -86.4,28.2l-2.2 1.7 -1 2.6c-30.6,75.9 -33.5,178.2 -7.2,261.5 18.9,46.4 33.3,95.9 47.3,143.7zm508.3 2214.9l-3.5 -1.5c-8.9,-3.7 -17.2,-7.4 -25.2,-10.9 -22.2,-9.7 -43.3,-18.9 -70.3,-27.2l-7 -2.1 -4.6 5.6c-5,6.1 -9,5.9 -18.4,4.8 -8.6,-1 -20.1,-2.4 -31.2,6 -31.1,-7.9 -59.1,9 -80.8,25.5 -94.2,80.9 -121.3,222.2 -80.6,420 -7.3,37.3 12.5,64.6 30.1,88.9 19,26.2 35.3,48.8 20.9,81.7l-2.9 6.6 5 5.2c33.3,34.7 78.5,37.3 126.9,37.3 4.4,0 8.8,-0 13.2,-0l19.1 -0.1 3.3 -3.9c4.8,-5.8 10.1,-11.8 15.6,-18.1 25.3,-28.6 56.8,-64.3 62.9,-106.8l9.1 -106c46.8,-115.9 88,-279.1 20.1,-401.9l-1.8 -3.3zm201.5 -2115.4c7.7,5.9 15,11.5 20.5,19.1l7.2 10.1 9.1 -8.5c4.2,-3.9 6.5,-4.8 6.6,-5.1 1.8,1.3 4.7,7.3 6.5,10.9 3.9,7.9 8.4,16.7 16.3,22l2.8 1.3c9.8,3 19.5,0.1 28,-2.5 3.6,-1.1 9.6,-3 11,-2.7 0,0 0.8,0.9 1.4,4l1.7 8.8 9 0c9.8,0 18.8,0.3 27.3,0.5 7.6,0.2 14.8,0.4 22.1,0.4 16.1,0 32.4,-1 52.5,-5 79.6,-28.7 133.7,-111.8 155.9,-174.3l0.6 -2.7c2.2,-26.1 9.2,-50.1 16.6,-75.4 10.7,-36.5 21.8,-74.2 17.4,-120.1 -4,-22.6 -6.6,-46.9 -9.1,-70.4 -8.8,-84 -18,-170.9 -93.7,-222.2 -40.6,-27.4 -71.9,-6.9 -99.5,11.2 -15.2,10 -29.6,19.4 -45,21.2l-3.4 0.4 -2.6 2.3c-107.9,96.4 -130.8,237.7 -152.9,374.4 -9.4,58.4 -18.4,113.6 -33.6,165.5l-1.1 3.8 1.6 3.7c5.9,13.3 16.5,21.4 26.8,29.3zm736.4 2032.1l-2.6 -2.4c-16.8,-11.2 -30.7,-25.2 -44.2,-38.8 -16.3,-16.3 -31.6,-31.8 -51.8,-42.4 -46.2,-21 -80.7,2.6 -111.2,23.4 -10,6.8 -19.5,13.3 -29.3,18.4 -28.2,0.3 -44.4,20.2 -58.8,37.8 -11.6,14.2 -22.5,27.6 -38.5,30.3l-4.4 0.8 -2.6 3.6c-81.2,112.9 -6,216.7 60.3,308.4 17,23.4 32.9,45.5 46.2,67.3l2.7 3c25.9,20 47.5,39.7 68.3,58.8 23.4,21.3 47.5,43.4 77.8,66.1l2.4 1.3c10.4,4.3 20.8,9 31.2,13.6 44.4,19.8 90.2,40.1 145.1,40.1 7,0 14,-0.3 21.3,-1l4.9 -0.5 2.9 -4c11,-15.1 18.5,-31.8 22.4,-49.7 11.2,-13.8 12.6,-31 14,-47.6 1.6,-18.9 3.1,-36.8 17.6,-51.3l4.2 -4.2 -1.3 -5.8c-32.2,-143.4 -75.8,-294.2 -176.6,-425zm-58.8 -1669.1c14.9,11.5 23.3,18.7 22.1,35.3l-0.7 9.8 9.7 1.7c4.5,0.8 8.8,0.5 12.7,0.2 3.5,-0.2 5.6,-0.3 6.8,-0.3 1.8,0 1.9,0.1 2.1,0.1 -0.3,0.9 -2.3,3.3 -3.5,4.7 -1.5,1.7 -2.9,3.4 -4.1,5.2l-6.9 10.1 65.9 34.2 3.6 1.1c12.4,1.6 24.7,2.4 36.9,2.4 133.7,0 255.9,-96.2 355.3,-280.6 5.2,-8.4 11.3,-16.4 17.3,-24.4 19.1,-25.4 38.8,-51.7 35.7,-89l-1.2 -14 -13.3 4.7c-4.6,1.6 -7.4,1.5 -8.3,1 -2.6,-1.5 -4,-10.4 -4.8,-15.2 -1,-5.7 -1.8,-11.1 -4.5,-15.4l-3.1 -3.3c-2.1,-1.4 -4.5,-4.2 -6.8,-6.9 -4.4,-5.2 -11.6,-13.7 -21.9,-14.3 -9.4,-21.4 -31.7,-29.2 -50.1,-35.7 -10.4,-3.7 -20.3,-7.1 -27.6,-12.4l-4.6 -3.2 -5.3 1.8c-60.1,20.7 -112.4,59.4 -163,96.8l-22.4 16.6c-31.5,19.1 -60.4,43.5 -88.4,67.1 -42,35.5 -81.7,68.9 -128.7,85.3l-2.6 0.9 -1.9 2c-20.3,22 -37.5,44.6 -24.5,76.7 -3.8,31 14.9,45.3 30,56.9zm850.6 1289l-2.6 -2.2c-123.1,-105.8 -257.3,-186.7 -388.2,-234l-2.2 -0.8 -2.3 0.2c-22.2,1.6 -47.5,-3 -72,-7.5 -55.1,-10.2 -117.5,-21.6 -154.6,38.4 -14.8,17.9 -16.2,35 -17.6,50.1 -1.2,13.9 -2.3,25.9 -12.7,39.4l-4.2 5.4 3.1 6.1c3.8,7.7 6.3,16.5 8.8,25.9 4.8,17.4 10.1,37.1 26.6,51.8 13.5,54.5 57.2,86.1 99.4,116.8 9.1,6.5 18,13.1 26.6,19.7l3.4 1.8c18.4,5.9 36.4,11.8 54.5,17.7 20.2,6.6 40.4,13.2 61,19.8l1.8 0.6 1.9 -0.1c80.5,-2.6 167,1.3 250.6,5.1 30.1,1.4 59.4,2.7 87.1,3.7l4.7 0.2 3.3 -3.3c32.8,-32.8 41,-83.6 24.2,-151.2l-0.8 -3.4zm102.1 -800.1l-1.3 -3.8c-4.8,-8.5 -21.8,-35.6 -45.8,-43.2 -22.3,-29.3 -61.1,-40.7 -95.4,-50.8 -4.1,-1.2 -8.3,-2.4 -12.3,-3.6 -10.6,-38.4 -45.8,-35 -71.8,-32.6 -14.6,1.4 -29.7,2.8 -38.8,-2.2l-4.6 -1.4c-14.2,-0.9 -29,-2.1 -44.2,-3.3 -138.3,-10.9 -310.5,-24.3 -377.7,120.1l-0.8 2.4c-17.6,86.1 21.2,188.7 95.7,250.5 47.7,29.8 98.3,41 149.6,41 84,0 170,-30 249.5,-57.8 15.9,-5.5 31.4,-11 46.6,-16l2.7 -1.4c7.6,-5.2 15.6,-10.5 23.9,-15.9 61.5,-40.3 138.2,-90.5 124.8,-182.1zm-1005.3 234.8c0,414.9 -294.9,727.8 -686,727.8 -386.1,0 -688.4,-319.7 -688.4,-727.8 0,-413.3 293.9,-724.9 683.6,-724.9 387.4,0 690.8,318.4 690.8,724.9zm45.6 620.9c137.8,-169.8 210.6,-384.6 210.6,-620.9 0,-300 -122,-566.8 -343.4,-751.2 -172,-144.3 -380.7,-220.7 -603.6,-220.7 -292.1,0 -552,125.6 -731.8,353.8 -137.7,169.9 -210.5,383.6 -210.5,618.1 0,269.2 94.5,507.4 273.2,688.8 179.9,182.7 420,283.4 676.2,283.4 293.3,0 545.5,-121.5 729.3,-351.3zm-8825 -449.1l0 -814.9c175.8,51.3 295.3,208.7 295.3,395.6 0,142.7 -69.1,263.9 -211.4,370.8 -33.3,25.4 -61.3,39 -84,48.5zm225.4 196.1c238.2,-194.8 335.8,-375.1 335.8,-617.8 0,-395.3 -326.4,-693.4 -759.2,-693.4l-65.1 0 0 1886.7 263.1 0 0 -430.6c26,53.4 60,112.4 103.3,168.9 94.1,123.3 221.1,215.9 399.7,291.3l67.4 28.6 0 -286.3 -26.6 -13.3c-148.6,-75.3 -263.5,-196.2 -318.5,-334.1zm-1528.9 8.3c0,217.5 -96.8,337.3 -272.5,337.3 -167.1,0 -262.9,-126.5 -262.9,-346.9l0 -1309.9 -261 0 0 1312.2c0,139.8 8.1,266 107.7,393.9 105.1,136.9 251.5,209.3 423.3,209.3 318.1,0 523.7,-233.9 523.7,-595.9l0 -1319.5 -258.3 0 0 1319.5z"/>
 </g>
</svg>
