<?xml version="1.0" encoding="utf-8"?>
<!-- Generator: Adobe Illustrator 25.0.1, SVG Export Plug-In . SVG Version: 6.00 Build 0)  -->
<svg version="1.1"
	 id="Layer_1" image-rendering="optimizeQuality" shape-rendering="geometricPrecision" xmlns:v="https://vecta.io/nano"
	 xmlns="http://www.w3.org/2000/svg" xmlns:xlink="http://www.w3.org/1999/xlink" x="0px" y="0px" viewBox="0 0 680.3 145.1"
	 style="enable-background:new 0 0 680.3 145.1;" xml:space="preserve">
<style type="text/css">
	.st0{fill:#FFFFFF;stroke:#000000;stroke-miterlimit:10;}
</style>
<path class="st0" d="M64.8,0L0,144h20.7l12.7-29.1h80.8l12.7,29.1h20.7L82.8,0H64.8L64.8,0z M73.4,24.6h0.9l1,2.6l18.4,41.9H54
	l18.4-41.9L73.4,24.6L73.4,24.6z M40.7,98.7l6.1-13.5H101l6.1,13.5H40.7z M643.9,80.6c-19.3-4.2-18.6-9-18.6-13.3
	c0-5.1,5.8-11.6,15.1-11.6c7.9,0,16.1,3.9,16.1,17.1h18.8c0.7-21.3-13.4-34.4-35-34.4c-19.1,0-34.7,13.3-34.7,29.6
	c0,20.6,16.4,27,34.2,30.9c18.8,4.1,20.4,10,20.4,14.1c0,7.9-8,14.6-19.1,14.6c-8,0-20.2-5-20.2-20.2h-18.8
	c-1.2,23.8,16.1,37.5,39,37.5c21.9,0,39.1-14.1,39.1-32.7C680.3,91.3,661.5,84.5,643.9,80.6L643.9,80.6z M372.2,38.3
	c-29.8,0-52.2,22.6-52.2,52.6s22.5,52.6,52.2,52.6c29.8,0,52.2-22.6,52.2-52.6C424.4,60.9,402,38.3,372.2,38.3L372.2,38.3z
	 M372.2,124.7c-19.3,0-31.9-14.2-31.9-33.8s12.5-34.2,31.9-34.2s31.9,14.6,31.9,34.2S391.5,124.7,372.2,124.7z M561.2,144h19.6V39.7
	h-19.6V144L561.2,144z M496.2,37.3c-17.5,0-28.1,7.5-32.8,12.4l-1,0.1l-1.1-10h-17.6V144h19.6V78.4c0-14.6,13.2-22.2,29.3-22.2
	c13.9,0,23.7,6.9,23.7,21.4V144H536V76.3C536,47.5,515.7,37.3,496.2,37.3L496.2,37.3z M286.1,49.7l-1,0.1l-1.1-10h-17.6V144H286V78
	c0-13.9,10.7-21.5,24.8-21.5c3,0,3.7,0.2,3.7,0.2V37.6c0,0-1.3-0.4-3.7-0.4C304.8,37.3,293.7,39.8,286.1,49.7z M199.5,56.8
	c14,0,23.2,7.4,27.5,19.5h21c-5.2-23.3-23.7-38-48.4-38c-29.5,0-51.8,23-51.8,53s22.3,52.3,51.8,52.3c24.7,0,42.7-15.3,48.4-38h-21
	c-4.2,11.6-13.5,19.5-27.5,19.5c-19.4,0-31.4-13.9-31.4-33.8S180.1,56.8,199.5,56.8L199.5,56.8z"/>
</svg>
