<?xml version="1.0" encoding="UTF-8"?>
<!DOCTYPE svg PUBLIC "-//W3C//DTD SVG 1.1//EN" "http://www.w3.org/Graphics/SVG/1.1/DTD/svg11.dtd">
<!-- Creator: CorelDRAW 2020 (64-Bit) -->
<svg xmlns="http://www.w3.org/2000/svg" xml:space="preserve" width="240mm" height="35.4673mm" version="1.1" style="shape-rendering:geometricPrecision; text-rendering:geometricPrecision; image-rendering:optimizeQuality; fill-rule:evenodd; clip-rule:evenodd"
viewBox="0 0 40939.4 6050"
 xmlns:xlink="http://www.w3.org/1999/xlink"
 xmlns:xodm="http://www.corel.com/coreldraw/odm/2003">
 <defs>
  <style type="text/css">
   <![CDATA[
    .fil0 {fill:#C5C6C6}
    .fil1 {fill:#A8E5D8;fill-rule:nonzero}
   ]]>
  </style>
 </defs>
 <rect class="fil0" x="48356.1" y="-20751.4" width="143287.8" height="133052.9"/>
 <g id="Logo_x0027_s">
  <metadata id="CorelCorpID_0Corel-Layer"/>
  <path class="fil1" d="M1208.3 5952.8l332.6 -1297.8 1670.6 0 324.4 1297.8 1289.4 0 -1589.4 -5855.6 -1614.1 0 -1621.9 5855.6 1208.3 0zm37711.6 -778.6c-689.5,0 -778.6,-648.7 -778.6,-2149.4 0,-1500.2 89.1,-2149 778.6,-2149 689.4,0 778.6,648.9 778.6,2149 0,1500.7 -89.2,2149.4 -778.6,2149.4zm0 875.8c2019.4,0 2019.4,-1492.2 2019.4,-3025.2 0,-1548.9 0,-3024.8 -2019.4,-3024.8 -2019.4,0 -2019.4,1475.9 -2019.4,3024.8 0,1533 0,3025.2 2019.4,3025.2zm-5724.1 -5052.6l543.6 0c389.2,0 624.3,210.8 624.3,770.5 0,373 -137.9,859.7 -624.3,859.7l-543.6 0 0 -1630.2zm0 2530.3l316.3 0c940.8,0 876.1,592.3 876.1,1289.7 0,381 -32.5,778.6 129.6,1135.4l1200.4 0c-113.4,-243.4 -138,-1346.2 -138,-1719.3 0,-1054.6 -794.8,-1119.4 -1062.4,-1151.8l0 -16.2c794.8,-129.9 1087,-689.4 1087,-1435.5 0,-997.6 -535.4,-1532.8 -1370.9,-1532.8l-2262.6 0 0 5855.6 1224.5 0 0 -2425.1zm-7421.6 2425.1l0 -4517.4 16.2 0 1070.5 4517.4 1167.9 0 1127.3 -4517.4 16.2 0 0 4517.4 1192.4 0 0 -5855.6 -1905.9 0 -973.3 3982.1 -16.3 0 -916.2 -3982.1 -1970.9 0 0 5855.6 1192.1 0zm-5816.8 0l332.4 -1297.8 1670.7 0 324.5 1297.8 1289.5 0 -1589.7 -5855.6 -1613.7 0 -1622.1 5855.6 1208.4 0zm1743.8 -2197.9l-1168.2 0 559.7 -2530.4 16.4 0 592.2 2530.4zm-4130.8 -388.3l785.6 -785.6 -785.6 -783.5 -783.4 783.5 783.4 785.6zm-5149.8 2586.2l0 -4282.3 16.2 0 1597.6 4282.3 1614.1 0 0 -5855.6 -1143.7 0 0 4055 -16.3 0 -1557 -4055 -1654.5 0 0 5855.6 1143.5 0zm-5322.2 -2563l713.6 0c616.4,0 811,316.3 811,835.4 0,819.3 -583.8,827.2 -843.5,827.2l-681.2 0 0 -1662.6zm0 -2392.4l754.3 0c413.5,0 705.5,316.3 705.5,746.2 0,567.6 -373.1,746.1 -640.8,746.1l-819 0 0 -1492.3zm940.8 4955.4c518.9,0 1808.4,-64.9 1808.4,-1548.9 0,-803.2 -227,-1362.9 -1094.8,-1484.4l0 -16.3c665.1,-129.7 997.4,-616.4 997.4,-1289.4 0,-1249.1 -770.4,-1516.7 -1703,-1516.7l-2173.5 0 0 5855.6 2165.5 0zm-5087.2 -2197.9l-1167.7 0 559.4 -2530.4 16.2 0 592.1 2530.4z"/>
 </g>
</svg>
