<?xml version="1.0" encoding="UTF-8"?>
<!DOCTYPE svg PUBLIC "-//W3C//DTD SVG 1.1//EN" "http://www.w3.org/Graphics/SVG/1.1/DTD/svg11.dtd">
<!-- Creator: CorelDRAW 2020 (64-Bit) -->
<svg xmlns="http://www.w3.org/2000/svg" xml:space="preserve" width="230mm" height="222.361mm" version="1.1" style="shape-rendering:geometricPrecision; text-rendering:geometricPrecision; image-rendering:optimizeQuality; fill-rule:evenodd; clip-rule:evenodd"
viewBox="0 0 39119.2 37819.9"
 xmlns:xlink="http://www.w3.org/1999/xlink"
 xmlns:xodm="http://www.corel.com/coreldraw/odm/2003">
 <defs>
  <style type="text/css">
   <![CDATA[
    .fil0 {fill:#C5C6C6}
    .fil1 {fill:white;fill-rule:nonzero}
   ]]>
  </style>
 </defs>
 <rect class="fil0" x="43565" y="-11260.9" width="142870.1" height="132665.1"/>
 <g id="Logo_x0027_s">
  <metadata id="CorelCorpID_0Corel-Layer"/>
  <path class="fil1" d="M12586.8 35655.3c156.5,156.7 234.7,361.9 234.7,567.2 0,244.6 -109.5,441.8 -234.7,566.9 -238.7,238.7 -563.9,487.1 -988.5,662.6 -357.2,148.5 -748.8,230.2 -1159.6,230.2l-7408.4 0c-836.9,0 -1594.4,-338.9 -2142.8,-887.2 -548.3,-548.7 -887.4,-1306 -887.4,-2143l0 -7408.7c0,-836.9 339.1,-1594.2 887.4,-2142.7 548.4,-548.3 1305.9,-887.2 2142.8,-887.2l7408.4 0c410.8,0 802.4,81.7 1159.6,229.8 489.6,203.1 802.9,453.3 1105.2,779.6 120.3,129.9 234.9,322.2 234.9,567.2 0,205.1 -78.3,410.4 -234.9,566.8 -156.4,156.5 -361.9,235 -567,235 -205.5,0 -413,-80.9 -567.3,-235 -213.6,-213.8 -330.9,-323.7 -575.9,-427.5 -170.5,-72.4 -358,-112.3 -554.6,-112.3l-7408.4 0c-393.3,0 -749.9,159.8 -1008.3,418.4 -258.2,258.2 -418.1,614.6 -418.1,1007.9l0 7408.7c0,393.9 160,749.8 418.1,1008.2 258.3,258.3 615,418.4 1008.3,418.4l7408.4 0c196.6,0 384.1,-39.7 554.6,-112.5 153.7,-64.9 314,-165.6 459.4,-310.7 154.1,-154 361.7,-234.6 567,-234.6 205.2,0 410.6,78 567.1,234.6zm16645.7 -21552.6l0 4952.7 -1199.7 0 -1.1 -321.2c-260.4,174.7 -552,303.3 -856.8,375.6 -619.4,147.6 -1280.2,56.5 -1826.3,-236.6 -276.8,-146.8 -526.5,-344.5 -733.6,-580.7 -207,-235.7 -371.2,-508.9 -481.5,-802.4 -337.9,-936.3 -164.4,-1885.9 484.3,-2642.3 207.5,-235.4 457.5,-432.4 734.6,-579.5 277.2,-147.1 581.2,-243.8 892,-283.1 614.6,-80.3 1264.4,70.1 1791.3,427.2l-2.9 -309.7 1199.7 0zm-5679.3 -1601.5l0.4 6554.2 -1199.7 0 -1 -321.2c-260.4,174.7 -552,303.3 -857.3,375.6 -618.8,148 -1280.1,56.5 -1825.8,-235.8 -277,-147.5 -526.6,-345.3 -733.7,-580.7 -207,-235.7 -371.4,-508.9 -481.7,-802.4 -337.5,-937 -164,-1885.8 484.7,-2642.2 207.3,-236.2 457.5,-433.2 734.3,-580.3 277.3,-146.4 581.5,-243.1 892.3,-283.1 614.4,-80.3 1264.3,70.1 1791.3,427.6l0.4 -1911.6 1195.9 0zm-7698.9 0l0.7 6554.2 -1199.6 0 -1.4 -321.2c-260.4,174.7 -552,303.3 -857.2,375.6 -618.9,148 -1280.2,56.5 -1825.9,-235.8 -276.5,-147.5 -527,-345.3 -733.7,-580.7 -207.4,-235.7 -371.4,-509.6 -481.4,-803.1 -337.9,-936.3 -164,-1885.9 484.4,-2642.3 207.4,-235.4 457.8,-432.4 734.3,-579.5 277.4,-147.1 581.1,-243.1 892.2,-283.1 614.2,-80.3 1264,70.1 1791.3,427.2l0 -1911.2 1196.3 0zm-5739.1 1601.5l0 4952.7 -1199 0 -1 -321.2c-260.8,174.7 -552.8,303.3 -858.1,375.6 -618.4,148 -1279.7,56.5 -1826.2,-235.8 -276.6,-147.5 -526.2,-345.3 -733.3,-580.7 -207.4,-235.7 -370.7,-509.6 -481.8,-803.1 -337.5,-936.3 -164,-1885.9 484.8,-2642.3 207.7,-235.4 457.5,-432.4 734.6,-579.5 277.4,-147.1 581.2,-243.1 892.2,-283.1 614.1,-80.3 1263.9,70.1 1791.4,427.2l-2.7 -309.7 1199 0zm8305.4 -11648l5697.7 10045.9 5569.2 0 -7089.9 -12500.6 -4176.9 2454.7zm1300.4 13237.1c-109.6,143.9 -192,307.5 -242,481.1 -144.2,530.6 -21.4,1070.2 416.6,1487.9 133.1,121.7 289.1,219.7 457.1,285.4 541,202.5 1089.7,103 1521.3,-276.9 134.7,-121 246.2,-268.1 327.5,-429.9 264,-548.7 185.3,-1097.7 -137.5,-1541.2 -108.5,-144.6 -244.2,-268.8 -398.4,-364 -153.6,-96 -325.4,-162.6 -503.5,-196.1 -515.9,-89 -1041.4,52.2 -1441.1,553.8zm-7699.4 0c-108.8,143.5 -191.6,307.5 -241.6,481.1 -144.2,530.6 -21.3,1070.2 417.1,1487.7 132.8,121.9 288.3,219.9 456.7,285.6 540.9,202.5 1089.6,103 1521.4,-276.9 134.5,-121 246,-268.1 327.6,-429.9 263.4,-548.7 184.7,-1097.7 -137.9,-1541.2 -108.5,-144.6 -244.2,-268.8 -398.4,-365.2 -153.7,-94.9 -325.4,-161.4 -502.9,-194.9 -516.2,-89 -1041.9,52.2 -1442.1,553.8zm-5739 0c-109.7,143.5 -192.1,307.5 -242,481.1 -144.2,530.6 -21.4,1070.2 417,1487.7 133.1,121.9 288.7,219.9 456.7,285.6 541.5,202.5 1089.7,103 1521.6,-276.9 134.9,-121 246,-268.1 327.6,-429.9 263.6,-548.7 184.9,-1097.7 -137.5,-1541.2 -108.8,-144.6 -244.6,-268.8 -398.3,-365.2 -153.7,-94.9 -325.5,-161.4 -503.4,-194.9 -515.6,-89 -1042.3,52.2 -1441.5,553.8zm19117.1 -0.7c-109.4,144.2 -191.9,308.2 -241.9,481.8 -144.1,529.9 -21.2,1070.2 417.1,1487.7 132.7,121.9 288.4,219.5 456.7,285.6 541.1,201.8 1089.6,103 1521.4,-276.9 134.7,-121.8 245.9,-268.1 327.7,-429.9 263.7,-548.7 184.9,-1098.5 -137.9,-1541.2 -108.5,-144.6 -244.2,-269.5 -398.3,-365.2 -153.7,-94.9 -325.4,-161.4 -503.1,-195.2 -516.3,-88.6 -1041.8,52.5 -1441.7,553.4zm-8869.7 3367.5l1191.9 0 2.5 -4959.1 -1194.4 0 0 4959.1zm14568.4 -1368.4c-20.1,-70.6 -28.6,-144.5 -25.7,-217.7l-1270.2 -1.1c9.9,212.5 60.3,423.6 148.5,618.9 159.9,382.8 540.6,693.6 863.8,839.5 431.4,192.4 741,221.6 1108.8,235.8 393.1,2.5 788.8,-30.9 1151.8,-126 143.8,-40.5 304.8,-102.3 450.8,-189.5 146,-87.8 277,-201.5 385.8,-333.6 341.6,-423.2 440.3,-934 294.1,-1445.9 -47.7,-160.7 -120.2,-311.2 -218.4,-442 -97.7,-132.1 -221.3,-245 -360.7,-329.5 -139.3,-85.1 -295.6,-141.3 -472.6,-184.3 -177.2,-44.2 -376.1,-73.1 -619.2,-112.2 -242.8,-39 -529.6,-87.2 -695.2,-116.1 -300.4,-52.7 -266.9,-56.7 -378.7,-94.2 -95.6,-24.9 -277.2,-153.6 -299.4,-288.2 -26.8,-149.4 -35.7,-301.7 189.8,-475.9 126.9,-75 285.4,-105.1 436.5,-126.2 173,-17.7 448.3,-31.2 714.6,129.8 321.9,201.1 348.3,384.7 366.7,567.8l1221.4 0.6c-10,-174.3 -52,-351.9 -129.5,-524.3 -60.7,-153 -241.2,-406 -549.8,-655.6 -155.2,-121.5 -329.2,-218.2 -513.7,-286.9 -328.7,-118.1 -663.1,-155.9 -940,-148.1 -286.8,9.9 -493.2,24.1 -754,88.5 -147.3,37.5 -321.4,95.3 -479.1,182.8 -552.8,321.8 -776.3,829.7 -808.3,1270.5 -9.6,158.6 7.3,319.4 51.1,471.9 44,152.7 114.3,297.9 186.7,408.6 160.1,236.8 320.3,336.4 495.7,427.7 95,46.7 196.1,81.2 500.9,147.8 305.3,64.7 815.6,162.6 1090.8,215.9 275.1,52.5 315.9,60.7 355.9,71.3 104.6,36.8 203.1,36.8 328.6,172.7 126,188.6 155.2,401.2 -96.1,651.4 -308.6,194.4 -865.7,231.2 -1300.8,57.3 -109.1,-50 -225.9,-109.7 -337.1,-263.3 -42.1,-60.3 -74.1,-127.5 -93.9,-198.3zm-22742.5 -6360.6l664.5 1171 5568.4 0 -2056 -3625.7 -4176.8 2454.8zm5049.1 -4425.9l3174.5 5596.9 -46.8 0 0.8 1067.5 1190.8 -1.2 0 -1066.3 4424.1 0 -4566.7 -8051.9 -4176.7 2455zm25714.1 24221l0 -526.6c-0.6,-93.5 -1.6,-169.1 -2.9,-207.7 -2.3,-954.8 -361.1,-1782.1 -1066.4,-2458.2 -713.1,-682.5 -1576.2,-1028.7 -2565.5,-1028.9l-0.7 0c-988.9,0.2 -1852,346.4 -2564.8,1028.9 -705.7,676 -1064.3,1502.9 -1067,2451.9 -4.7,147.6 -4.7,782.5 0,980.7 6.1,965.2 365.3,1795.6 1067,2468.6l9.1 7.8c715.4,611.8 1575.3,921.7 2555.6,922.1l1.1 0c979.2,-0.4 1839.2,-310.3 2555.8,-921.7l9.3 -8.2c701.5,-673 1060.2,-1503.8 1066.4,-2464.9 1.3,-55.2 2.3,-142.8 2.9,-243.8zm-28704 3576.2c-28.8,-585 -423.9,-1485.6 -1417.3,-1603.6l-3533.9 0 4071.4 -3897.9c172,-164.1 557.7,-720 283.1,-1318.4 -220.7,-481.1 -590.3,-686.4 -1235.8,-686.4l-5072 0c21,672.9 356.5,1476.2 1248.3,1620l2898.1 0 -4283 4025.1c-173.8,167.1 -459.6,679.7 -234.1,1200.2 203.6,469.6 546.6,661.1 1184.2,661.1l6091 0zm11602.3 -3672.2l0 2986.5c0,1105.2 -337.8,2065.9 -1104.5,2832.1 -688.8,689 -1559.7,972.6 -2515.5,972.6 -1874.9,0 -2840.6,-1448.5 -2840.6,-1448.5 504.1,-504.1 1205,-810 1891.4,-398.7 115.5,69.1 461.4,258 956.8,258 1734.7,0 2017.1,-1550.6 2017.1,-2012 -600.8,363.5 -1279.5,544.2 -2033.1,544.6l-0.9 0c-980.4,-0.4 -1840.2,-310.3 -2555.4,-922.1l-9.4 -7.8c-701.8,-673 -1060.8,-1503.4 -1066.9,-2468.6 -4.7,-198.1 -4.7,-833.1 0,-980.7 2.3,-949 361.2,-1775.9 1066.9,-2451.9 712.8,-682.5 1575.6,-1028.7 2564.8,-1028.9l0.7 0c1314.4,0 2279.1,650.6 2725.7,1191.9 113.7,137.7 179.8,315.3 179.8,507.6 0,222.9 -89.9,424.7 -236.2,570.8 -145.9,146.1 -347.8,236.3 -570.9,236.3 -220.5,0 -431.3,-92.3 -565.6,-232 -500.6,-520.6 -976.8,-684.7 -1532.8,-684.9 -556.1,0.2 -1019.4,185.6 -1416.6,566.8 -394.8,372.2 -580.8,795.3 -586.4,1333.6 -8.7,235.6 -8.7,736.1 -0.3,962.1 4.5,551.6 189.9,981.2 583.6,1357.9 410.2,374.6 875.8,558 1419.9,558.3 544,-0.3 1009.8,-183.7 1423.5,-561.7 215.9,-207.1 369,-431 463.6,-682.7 76,-202.3 234.6,-624 771.1,-838.1 451.8,-180.1 970.3,-160.5 970.3,-160.5zm7577.3 160.5c-536.4,214.1 -694.9,635.8 -770.9,838.1 -94.7,251.7 -248,475.6 -464.2,682.7 -413,377.9 -879,561.3 -1423.2,561.7 -544.1,-0.3 -1009.2,-183.7 -1420,-558.3 -393.8,-376.8 -579.1,-806.3 -583.5,-1357.9 -8.6,-226 -8.6,-726.5 0.4,-962.1 5.5,-538.3 191.6,-961.4 586.2,-1333.6 397.2,-381.2 860.8,-566.7 1416.9,-566.8 555.7,0.2 1032.1,164.3 1532.5,684.9 134.4,139.8 345.5,232 566,232 223.1,0 425,-90.2 570.6,-236.3 146.3,-146.1 236.4,-347.8 236.4,-570.8 0,-192.3 -65.9,-369.9 -179.6,-507.6 -446.7,-541.3 -1411.5,-1191.9 -2725.6,-1191.9l-1.1 0c-988.9,0.2 -1852,346.4 -2564.4,1028.9 -706.1,676 -1065.1,1502.9 -1066.8,2451.9 -5.3,147.6 -5.3,782.5 0,980.7 5.9,965.2 364.9,1795.6 1066.8,2468.6l8.9 7.8c715.4,611.8 1575.4,921.7 2555.4,922.1l1.1 0c753.6,-0.4 1431.8,-181.1 2033.1,-544.6 0,461.5 -282.4,2012 -2017.5,2012 -494.7,0 -841.2,-188.9 -956.6,-258 -686.3,-411.3 -1387.3,-105.4 -1891.3,398.7 0,0 965.5,1448.5 2840.5,1448.5 955.8,0 1826.3,-283.6 2515.7,-972.6 766.7,-766.2 1104.5,-1726.9 1104.5,-2832.1l0 -2986.5c0,0 -518.7,-19.5 -970.5,160.5zm5889.2 2082.5c-544,-0.3 -1009.4,-183.7 -1420,-558.3 -393.5,-376.8 -579.1,-806.3 -583.1,-1357.9 -8.6,-226 -8.6,-726.5 0.4,-962.1 5.5,-538.3 191.4,-961.4 586.1,-1333.6 397.1,-381.2 860.5,-566.7 1416.6,-566.8 556.1,0.2 1019.3,185.6 1418.5,568.5 393.4,370.5 579.3,793.6 585.4,1337 7.4,220.3 10.7,718.7 0,963.4 -4.9,545.3 -190.5,974.9 -580.3,1348.3 -413.6,377.9 -879.4,561.3 -1423.6,561.7zm-22014.1 -6077.2c-841,1.5 -1604,706.6 -1604,1463.2l0 6043.1c841,-1.8 1604,-706.7 1604,-1463l0 -6043.4z"/>
 </g>
</svg>
