<?xml version="1.0" encoding="utf-8"?>
<!-- Generator: Adobe Illustrator 25.0.1, SVG Export Plug-In . SVG Version: 6.00 Build 0)  -->
<svg version="1.1"
	 id="Layer_1" image-rendering="optimizeQuality" shape-rendering="geometricPrecision" xmlns:v="https://vecta.io/nano"
	 xmlns="http://www.w3.org/2000/svg" xmlns:xlink="http://www.w3.org/1999/xlink" x="0px" y="0px" viewBox="0 0 869.3 302.4"
	 style="enable-background:new 0 0 869.3 302.4;" xml:space="preserve">
<style type="text/css">
	.st0{fill:#FFFFFF;stroke:#000000;stroke-miterlimit:10;}
</style>
<path class="st0" d="M279.7,254.3c3.5,3.5,5.2,8,5.2,12.6c0,5.4-2.4,9.8-5.2,12.6c-5.3,5.3-12.5,10.8-22,14.7
	c-7.9,3.3-16.6,5.1-25.8,5.1H67.3c-18.6,0-35.4-7.5-47.6-19.7S0,250.6,0,232V67.3c0-18.6,7.5-35.4,19.7-47.6S48.7,0,67.3,0H232
	c9.1,0,17.8,1.8,25.8,5.1c10.9,4.5,17.8,10.1,24.6,17.3c2.7,2.9,5.2,7.2,5.2,12.6c0,4.6-1.7,9.1-5.2,12.6s-8,5.2-12.6,5.2
	s-9.2-1.8-12.6-5.2c-4.7-4.8-7.4-7.2-12.8-9.5c-3.8-1.6-8-2.5-12.3-2.5H67.3c-8.7,0-16.7,3.6-22.4,9.3s-9.3,13.7-9.3,22.4V232
	c0,8.8,3.6,16.7,9.3,22.4c5.7,5.7,13.7,9.3,22.4,9.3H232c4.4,0,8.5-0.9,12.3-2.5c3.4-1.4,7-3.7,10.2-6.9c3.4-3.4,8-5.2,12.6-5.2
	C271.7,249,276.2,250.8,279.7,254.3L279.7,254.3z M869.3,153.6v-11.7l-0.1-4.6c-0.1-21.2-8-39.6-23.7-54.6
	c-15.8-15.2-35-22.9-57-22.9l0,0c-22,0-41.2,7.7-57,22.9c-15.7,15-23.7,33.4-23.7,54.5c-0.1,3.3-0.1,17.4,0,21.8
	c0.1,21.4,8.1,39.9,23.7,54.9l0.2,0.2c15.9,13.6,35,20.5,56.8,20.5l0,0c21.8,0,40.9-6.9,56.8-20.5l0.2-0.2
	c15.6-15,23.6-33.4,23.7-54.8L869.3,153.6L869.3,153.6z M231.4,233c-0.6-13-9.4-33-31.5-35.6h-78.5l90.5-86.6
	c3.8-3.6,12.4-16,6.3-29.3c-4.9-10.7-13.1-15.3-27.5-15.3H78c0.5,15,7.9,32.8,27.7,36h64.4L75,191.7c-3.9,3.7-10.2,15.1-5.2,26.7
	c4.5,10.4,12.1,14.7,26.3,14.7L231.4,233L231.4,233z M489.3,151.4v66.4c0,24.6-7.5,45.9-24.5,62.9c-15.3,15.3-34.7,21.6-55.9,21.6
	c-41.7,0-63.1-32.2-63.1-32.2c11.2-11.2,26.8-18,42-8.9c2.6,1.5,10.3,5.7,21.3,5.7c38.5,0,44.8-34.5,44.8-44.7
	c-13.4,8.1-28.4,12.1-45.2,12.1l0,0c-21.8,0-40.9-6.9-56.8-20.5l-0.2-0.2c-15.6-15-23.6-33.4-23.7-54.9c-0.1-4.4-0.1-18.5,0-21.8
	c0.1-21.1,8-39.5,23.7-54.5c15.8-15.2,35-22.9,57-22.9l0,0c29.2,0,50.6,14.5,60.6,26.5c2.5,3.1,4,7,4,11.3c0,5-2,9.4-5.2,12.7
	c-3.2,3.2-7.7,5.3-12.7,5.3c-4.9,0-9.6-2-12.6-5.2c-11.1-11.6-21.7-15.2-34.1-15.2S386,99,377.2,107.5c-8.8,8.3-12.9,17.7-13,29.6
	c-0.2,5.2-0.2,16.4,0,21.4c0.1,12.3,4.2,21.8,13,30.2c9.1,8.3,19.5,12.4,31.6,12.4s22.4-4.1,31.6-12.5c4.8-4.6,8.2-9.6,10.3-15.2
	c1.7-4.5,5.2-13.9,17.1-18.6C477.7,151,489.3,151.4,489.3,151.4L489.3,151.4z M657.6,155c-11.9,4.8-15.4,14.1-17.1,18.6
	c-2.1,5.6-5.5,10.6-10.3,15.2c-9.2,8.4-19.5,12.5-31.6,12.5s-22.4-4.1-31.6-12.4c-8.8-8.4-12.9-17.9-13-30.2c-0.2-5-0.2-16.1,0-21.4
	c0.1-12,4.3-21.4,13-29.6c8.8-8.5,19.1-12.6,31.5-12.6s22.9,3.7,34.1,15.2c3,3.1,7.7,5.2,12.6,5.2c4.8,0,9.3-1.9,12.7-5.3
	c3.3-3.2,5.3-7.7,5.3-12.7c0-4.3-1.5-8.2-4-11.3c-9.9-12-31.4-26.5-60.6-26.5l0,0c-22,0-41.2,7.7-57,22.9
	c-15.7,15-23.7,33.4-23.7,54.5c-0.1,3.3-0.1,17.4,0,21.8c0.1,21.4,8.1,39.9,23.7,54.9l0.2,0.2c15.9,13.6,35,20.5,56.8,20.5l0,0
	c16.7,0,31.8-4,45.2-12.1c0,10.3-6.3,44.7-44.8,44.7c-11,0-18.7-4.2-21.3-5.7c-15.3-9.1-30.8-2.3-42,8.9c0,0,21.5,32.2,63.1,32.2
	c21.2,0,40.6-6.3,55.9-21.6c17-17,24.5-38.4,24.5-62.9v-66.4C679.2,151.4,667.7,151,657.6,155L657.6,155z M788.5,201.3
	c-12.1,0-22.4-4.1-31.6-12.4c-8.7-8.4-12.9-17.9-13-30.2c-0.2-5-0.2-16.1,0-21.4c0.1-12,4.3-21.4,13-29.6
	c8.8-8.5,19.1-12.6,31.5-12.6s22.6,4.1,31.5,12.6c8.7,8.2,12.9,17.6,13,29.7c0.2,4.9,0.2,16,0,21.4c-0.1,12.1-4.2,21.7-12.9,30
	C811,197.2,800.6,201.3,788.5,201.3L788.5,201.3z M299.3,66.2c-18.7,0-35.6,15.7-35.6,32.5V233c18.7,0,35.6-15.7,35.6-32.5V66.2z"/>
</svg>
