<?xml version="1.0" encoding="UTF-8"?>
<!DOCTYPE svg PUBLIC "-//W3C//DTD SVG 1.1//EN" "http://www.w3.org/Graphics/SVG/1.1/DTD/svg11.dtd">
<!-- Creator: CorelDRAW 2020 (64-Bit) -->
<svg xmlns="http://www.w3.org/2000/svg" xml:space="preserve" width="70mm" height="92.6145mm" version="1.1" style="shape-rendering:geometricPrecision; text-rendering:geometricPrecision; image-rendering:optimizeQuality; fill-rule:evenodd; clip-rule:evenodd"
viewBox="0 0 4517.8 5977.4"
 xmlns:xlink="http://www.w3.org/1999/xlink"
 xmlns:xodm="http://www.corel.com/coreldraw/odm/2003">
 <defs>
  <style type="text/css">
   <![CDATA[
    .fil0 {fill:#C5C6C6}
    .fil2 {fill:white}
    .fil1 {fill:white;fill-rule:nonzero}
   ]]>
  </style>
 </defs>
 <rect class="fil0" x="7892.9" y="-2170.2" width="54214.1" height="50341.7"/>
 <g id="Logo_x0027_s">
  <metadata id="CorelCorpID_0Corel-Layer"/>
  <path class="fil1" d="M562.8 3173l-89.9 5.3 -54.8 183.7 75.1 73.7 -21.4 155.4 -471.9 -394.9 42.2 -153.5 594.3 -57 -73.7 187.3zm-195.2 3.3l-205.7 3.3 167.1 119.7 38.6 -123zm440.3 -546.7c55.1,46.4 107.1,96.5 105.3,170.3 -5.5,87.8 -40.9,120.6 -74.5,162.3l-120.1 17.4c85.5,-164 1.7,-194 -43.3,-229.2l-375.8 -247.2 106 -161.5 402.5 288zm485.9 -403l-71.7 -56.1 -161 119.8 24.4 96 -114.1 109.4 -128.1 -597.1 138.5 -95.6 499.4 320 -187.3 103.6zm-151.8 -116.1l-155.9 -127.8 48 205.3 108 -77.5zm740.5 -413.1l266.5 236.6 -213.3 30.5 -116.1 -120.2 -60.2 165.5 -183.2 66.1 135 -334.1 -215.2 -205.5 176.5 -59.6 108.2 123.7 54.7 -157.9 164.1 -31.9 -116.9 286.8z"/>
  <path class="fil1" d="M4442.5 4287.6c-4.5,11.8 -5.6,27.4 -11.6,36.3 -47.3,-14.3 -94.4,-28.9 -142,-41.7 40.1,38.1 84.1,72.9 124.1,110.4l-5.1 19.2c-53.1,8 -108.1,10.3 -162,15.5 44.8,18.7 94.1,31.7 140.7,48.5 -1,10.2 -3.8,20.4 -8.3,29.7 -63.7,-20.9 -129,-38.5 -192.1,-60 1,-15.2 10.6,-46.1 10.6,-46.1 0,0 110.7,-9.7 166.3,-15.9l-126 -111.2 11.6 -44.6 193.8 59.9zm-117.2 353.6l-55.9 -6.4c-10.5,21.1 -20.1,42.4 -27.8,64.5l39.6 41.6c-2,9.6 -7.8,20.8 -12.8,30.8 -48.1,-51.6 -102.7,-104.5 -152.5,-157.7l13.8 -33c70.8,5.1 143.5,12.1 214.3,18.4 -3,14.2 -11.8,29.4 -18.8,41.8zm-139.1 268.1c-11.1,32.7 -31.9,63.6 -50.4,93.1l-174.2 -103c22.7,-45.8 44.6,-111.8 104.7,-123.3 38.6,-7.4 83.4,13.4 107.3,48.9 16,24.1 23.6,51.4 12.6,84.3zm-143.8 218.3c-30.1,-4.3 -60.1,-14 -90.1,-20.8l-15.3 19.3c16.4,17.4 42.1,33.6 59.7,52 -7.4,9.6 -25.2,32.2 -25.2,32.2 -52.3,-44.4 -105.9,-87.7 -157.3,-133 25.6,-28.3 46.9,-75.7 90.2,-82.2 14.9,-2.3 53.9,16.7 58.2,46.1l3.2 30 95.1 21.5 -18.6 34.9zm-242.6 257.4c-47.6,-47.2 -95,-99.1 -142.1,-148.6 24.9,-26 51.3,-49.9 77.4,-74.6 6.3,3.5 12.3,13.4 18.9,18.5 -11.6,17 -33.2,30.8 -47.3,48.3l38.8 39.4c17.9,-13.2 32.3,-31 49,-44.6l18.2 18.4 -47.7 45.9c12,18.4 29.5,32.5 44.2,48.7 20.9,-16.2 39.7,-34.7 57.8,-52.5 6.2,3.9 13.4,13.8 19.2,19.7l-86.4 81.5zm-183.1 -72.3c-14.1,12.7 -31.2,23.4 -46.2,37.5l6.7 12.4c31.6,44.6 67.5,87.3 97.6,132.9l-29 21.7c-38.8,-44.9 -71,-95 -109,-141.8 -17.2,9.4 -32.5,23.9 -48.6,36.2 -7.1,-4.7 -13,-13.1 -17.9,-20.6 42.7,-32.2 87.4,-67.5 131,-97.6l15.4 19.3zm-211.6 165c-18.3,2.6 -40.7,5 -48.3,25.4 -1.1,9.6 2.3,18.6 11.3,23.4 42,15.9 103.8,4.2 122.7,56.4 4.4,27.7 -9.4,54.8 -34.4,69.5 -18,9.2 -39.1,13.9 -59.9,12.3 -3.3,-5.4 -0.8,-17.2 -2.7,-26.4 21.2,-1.1 47.6,-4.2 57.6,-23.4 4.8,-9.2 4.5,-21.1 -4.1,-28.1 -16.6,-12.4 -38,-12.9 -58.2,-17.1 -22.6,-7.3 -54,-3.5 -63.6,-32.1 -4.6,-14.6 -8.7,-32.6 -0.4,-46.6 15.2,-27.2 46.6,-42.1 77.2,-38.5 4.1,7.8 1.8,16.8 2.7,25.2zm-98.2 251.4c-9.1,6.4 -21.4,11.2 -32.1,16.2 -24.3,-43.3 -43.3,-91.7 -67.9,-134.7l0.9 163.2c-8.6,3.4 -20.4,8.9 -20.4,8.9 -37.4,-36.3 -82.2,-78.3 -120.8,-113.4l3.8 9.9 57.8 128.7c-8.3,5 -20.4,8.2 -29.3,13.2l-85.1 -186.3 43 -20c40.4,31.9 82.1,79.2 124.5,114.8l-1.4 -164c12.8,-7.9 26.9,-12.6 40.7,-19l86.2 182.5zm-324.7 133.1l-41.6 12.4c-12.7,-14.1 -23,-31.1 -33.3,-47.1 -23.4,4.3 -47.5,10.3 -70,17.9l-4.4 57.2c-9.8,3.7 -23,6.5 -32.7,8.9l18.6 -215.4 33.9 -9.5c44.4,59 86.9,116 129.4,175.6zm1180.5 -1241.9l-1.6 1.5 59.5 54.3c8.7,-13.3 14,-30.7 20.9,-46 -25,-3.8 -53.4,-7.5 -78.7,-9.8zm-8.1 252.6c-9.8,-28.8 -53.3,-58.7 -92.6,-56 -31.3,2.9 -44.6,38.4 -56.8,60.5 42.1,25.8 84.8,50.3 127.8,75.3 11.8,-19.9 33.6,-44.5 21.6,-79.7zm-234.9 171.9c-7.8,-8.1 -19.2,-13.3 -27.8,-10.7 -14.4,4.4 -22.5,18.4 -30,30.7l51.5 41.7c7.1,-5.9 13.4,-14 16.9,-22.3 4.4,-10.4 0.2,-28.3 -10.5,-39.4zm-1076 690.2l-0.9 0.3 -1.7 80.4c15.7,-2.5 34.9,-7.3 48.7,-14.7l-46.1 -66z"/>
  <path class="fil1" d="M3799.5 2811.7c106.5,351.2 16,731.8 -260.7,966 -199.6,135.6 -510.9,218.1 -734.5,77.1 -220.8,-114.4 -271.4,-343.3 -377.9,-526.9 -29.2,-45.2 -71.8,-90.5 -125.1,-101.1 -61.1,-2.7 -106.3,29.2 -154.2,58.6 -18.6,-2.7 -42.6,-5.3 -45.3,-26.6 -2.6,-47.9 55.9,-66.5 87.8,-85.2 53.3,-24 122.3,-21.3 175.7,-2.7 220.8,125.1 188.9,385.8 383.1,540.2 133.1,122.4 319.3,178.3 500.3,119.7 231.5,-42.5 428.3,-263.4 484.3,-486.9 82.5,-282.1 26.6,-596.1 -196.9,-790.4 -45.2,-34.6 -93.1,-63.9 -143.7,-85.1l-7.9 247.5c101.1,85.1 210.2,188.9 202.2,329.9 -5.4,26.6 -37.3,29.3 -58.5,21.3 -31.9,-79.8 -39.9,-175.6 -125.1,-231.4l-95.8 -82.5 8 -396.5c215.6,47.9 420.4,244.8 484.2,455zm-2376.2 596.1c-45.2,103.7 -111.9,202.2 -162.4,306 42.6,21.3 101.2,15.9 130.4,53.2 0,16 -5.3,39.9 -24,42.5 -69.2,-10.6 -154.3,2.7 -188.9,-66.5 26.6,-133.1 117.1,-239.5 178.3,-359.2 21.3,-26.6 61.2,-5.3 66.5,24zm175.6 -159.7c0,34.6 -37.2,50.6 -50.6,82.6 61.2,18.6 157,-8 175.7,77.2 -5.4,55.8 8,127.7 -47.9,162.3 -45.2,21.3 -82.5,-39.9 -109.2,-8 2.7,98.5 -66.5,220.9 24,298 0,29.3 -5.3,55.9 -24,77.1 -74.5,21.3 -156.9,0 -228.8,-13.3 -21.3,-15.9 -13.3,-37.2 -5.3,-58.5 53.3,-26.6 106.5,13.3 165,5.3 -63.9,-119.7 0,-263.5 5.3,-391.2 37.2,-31.9 90.4,-8 127.7,2.7 21.2,-5.3 16,-34.6 16,-55.9 -63.8,-23.9 -170.3,13.3 -194.2,-74.5 5.3,-58.5 50.6,-103.8 93.1,-141.1 26.6,-8 53.2,13.3 53.2,37.3zm612 401.8c-13.3,50.6 -55.8,90.5 -47.9,146.4 135.7,53.2 45.2,207.5 95.8,306 5.3,82.5 -85.1,114.5 -106.5,186.2 -58.5,69.2 -45.2,191.5 -146.3,220.8 -111.7,21.4 -226.2,40 -322,95.8 -95.7,2.7 -165,-55.8 -255.4,-61.2 -34.6,-26.7 -18.7,-71.9 -26.6,-106.4 -74.6,-55.9 -186.3,-119.7 -159.7,-231.5 8,-58.5 50.5,-101.1 85.1,-149 -8,-18.6 -21.3,-42.6 -10.6,-66.5l16 -16 159.7 16c16,10.6 13.3,37.2 5.4,50.6 -18.6,23.9 -55.9,10.6 -82.5,13.3 -23.9,77.2 -133.1,135.7 -87.9,223.5 47.9,74.5 175.7,87.8 157,194.2 55.9,21.3 114.4,45.2 175.6,58.6 103.8,-58.6 226.2,-69.2 338,-98.5 53.3,-106.4 93.1,-220.8 181,-313.9 2.7,-69.2 -23.9,-141.1 -13.3,-212.9 -26.6,-31.9 -90.5,-61.2 -82.5,-111.8 -5.3,-47.9 18.7,-82.5 26.6,-122.4 -34.6,-26.6 -66.5,-58.6 -103.8,-79.8l5.4 178.3c-61.3,45.2 -71.9,119.7 -125.1,164.9l-194.3 39.9c-23.9,-8 -34.6,-34.6 -23.9,-55.8 66.6,-53.2 191.6,-7.9 215.5,-111.8l55.9 -69.2 -39.9 -322c106.4,74.6 207.5,151.7 311.3,234.2zm-391.1 -447c399.1,252.8 774.3,569.5 1130.9,918.1 37.3,39.9 71.9,79.8 69.2,135.7 2.7,103.8 -117.1,71.9 -167.6,125 0,55.9 31.9,122.4 -8,170.3 -37.2,47.9 -106.4,31.9 -159.6,39.9 -45.2,18.6 -95.8,53.2 -151.7,31.9 -93.1,-63.9 -39.9,-207.5 -23.9,-295.3 -53.3,-29.4 -133.1,-34.6 -154.3,-103.9 -15.9,-61.1 -2.7,-122.3 10.7,-178.2 13.2,-18.7 39.9,-21.4 55.9,-10.6 37.2,50.6 -18.7,111.8 8,173 47.9,42.5 130.4,31.9 157,98.4 0,85.2 -47.8,157.1 -21.3,244.8 53.3,7.9 90.5,-39.9 146.3,-39.9 26.6,0 79.8,15.9 79.8,-29.2 -8,-42.6 -26.6,-87.9 -10.6,-130.4 37.2,-58.5 103.8,-69.2 159.7,-90.5 0,-55.9 -50.6,-101.1 -95.9,-143.7 -420.4,-391.2 -854.1,-758.4 -1335.8,-997.9 -55.9,-21.3 -117,-53.3 -181,-37.3 -8,85.1 167.7,95.8 79.8,172.9 -77.2,-8 -133,-90.4 -159.6,-156.9 -8,-37.2 8,-77.1 45.2,-87.8 205,-24 362,106.4 526.9,191.5zm1338.4 -625.3c10.6,10.7 10.6,31.9 0,42.6 -58.6,42.6 -103.8,-31.9 -157,-42.6 -518.9,-199.6 -878.1,290 -1333.1,391.2 -42.6,2.7 -98.4,45.2 -133.1,-2.7 -5.3,-23.9 10.7,-47.9 31.9,-47.9 534.9,-103.7 1005.9,-726.4 1591.3,-340.6zm-1375.7 2299c0,-37.2 -69.2,-58.5 -39.9,-103.7 13.3,-13.3 31.9,-15.9 47.9,-7.9 50.5,39.9 98.5,95.8 77.1,162.2 -21.3,39.9 -79.8,29.3 -117.1,21.3 -321.9,-93.2 -606.7,-284.7 -971.3,-263.5 -16,-10.6 -23.9,-34.6 -16,-53.2 26.6,-24 63.9,-18.6 98.5,-24 340.6,8 612,183.6 920.7,268.7zm50.6 404.6c26.5,63.9 39.9,135.7 45.2,207.6 -13.3,23.9 -39.9,21.2 -58.5,16 -34.6,-50.6 -23.9,-117.1 -50.5,-170.3 -18.7,-93.2 -117.2,-138.4 -194.3,-170.2 -8,-13.4 -13.2,-32 -8,-45.4 34.6,-45.1 74.5,0 109.2,8 63.9,34.7 127.7,87.9 157,154.4zm463 -875.5c-18.6,133.1 -82.5,247.5 -133,361.9 98.5,-18.7 188.9,-71.9 292.7,-61.3 10.7,13.3 18.6,37.3 5.3,50.6 -55.8,21.3 -117.1,34.6 -178.3,50.5l-228.8 79.8c-16,-2.7 -32,-18.6 -29.3,-37.2 74.6,-149 170.3,-292.7 207.6,-457.7 15.9,-21.2 55.9,-13.3 63.8,13.3zm880.8 95.9c2.7,87.8 -119.8,23.9 -143.7,106.4 -8,23.9 -10.6,58.5 8,79.8 34.6,29.4 85.1,40 130.4,24.1 74.5,-8 61.2,-191.6 143.7,-82.5 -8,61.1 -45.3,119.7 -103.8,146.4 -71.8,29.2 -159.7,21.3 -218.2,-26.6 -37.2,-42.6 -53.2,-98.5 -37.2,-154.4 13.3,-39.9 47.8,-79.8 87.8,-98.4 37.2,-13.3 103.7,-34.6 133,5.4zm673.1 178.2c18.7,13.3 24,42.6 8,58.6 -39.9,26.6 -79.9,-10.8 -119.8,-13.4 -87.8,-21.3 -172.9,-61.1 -271.4,-50.5l-10.7 21.2c16.1,133.1 95.8,247.5 79.8,383.3 -10.6,31.9 -39.9,53.2 -71.8,58.5 -114.4,15.9 -172.9,-117.1 -260.8,-162.3 -77.2,111.7 -53.1,266 -143.7,372.5 -21.2,24 -61.2,24 -90.4,13.3 -50.6,-40 -47.9,-109.1 -50.6,-173 0,-95.8 -3.1,-195.5 -21.7,-283.4 -55.9,16 -100.6,75.9 -135.2,123.7 -125,170.3 -218.1,354 -284.7,545.6 -10.7,21.3 -32,23.9 -50.7,16 -34.5,-16 -13.2,-58.6 -5.2,-82.5 95.7,-242.2 207.5,-495 433.7,-667.9 35.1,-27.3 78,-13.6 93.1,5.4 90.5,119.7 21.3,295.3 61.2,438.9 74.5,-109.1 53.3,-263.4 138.3,-369.9 24,-18.7 58.6,-21.3 85.2,-10.6 82.5,29.3 127.7,149.1 218.2,159.7 31.9,-42.6 -5.3,-93.2 -10.7,-138.4 -31.9,-90.5 -90.4,-196.9 -37.2,-295.3 58.7,-47.9 149.1,-29.3 218.3,-16l228.8 66.5z"/>
  <path class="fil1" d="M147 3764.3l113.2 0c-0,1129.1 915.3,2044.3 2044.4,2044.3 122.1,0 244.1,-10.8 364.2,-32.4l0.3 -0.1 20 111.6 -0.2 0c-126.8,22.8 -255.5,34.1 -384.3,34.1 -574.3,0 -1119.7,-225.9 -1525.7,-631.9 -405.9,-406 -631.9,-951.4 -631.9,-1525.6zm143.1 0l25.7 0c0,549.1 222.5,1046.3 582.5,1406.2l0 0c359.8,360 857.1,582.5 1406.3,582.5l0 0c120.9,0 239.3,-10.8 354.5,-31.5l0 0 4.4 25.3c-116.4,21 -236.5,31.9 -358.9,31.9 -1112.6,0 -2014.5,-901.9 -2014.5,-2014.4l0 0zm-198.8 0l0.1 0 25.7 0c0,604 244.8,1150.8 640.7,1546.7l0 0c395.9,395.8 942.7,640.7 1546.8,640.7l0 0c132.9,0 263.2,-11.8 389.6,-34.5l0 0 4.6 25.3c-127.9,23 -259.7,35 -394.1,35l0 0c-1222.3,0 -2213.3,-990.9 -2213.3,-2213.1l0 0zm4196.8 353.3l0.1 0 -0.1 0zm-25.2 -4.5c20,-113.3 30.4,-229.8 30.4,-348.8l0 0c0,-549.3 -222.6,-1046.4 -582.6,-1406.3l0 0c-359.9,-360 -857,-582.5 -1406.2,-582.5l0 0 0 -25.7c1112.5,0 2014.5,901.9 2014.5,2014.5l0 0c0,120.5 -10.7,238.5 -31,353.3l0 0 -25.2 -4.5zm220.9 39.5l0.1 0 -0.1 0zm-25.2 -4.5c22,-124.6 33.5,-252.9 33.5,-383.8l0 0c0,-604.1 -244.8,-1150.9 -640.7,-1546.8l0 -0c-395.9,-395.9 -942.7,-640.7 -1546.7,-640.7l0 -0 0 -25.7c1222.3,0 2213.2,990.9 2213.2,2213.2l0 0c0,132.4 -11.7,262.1 -34,388.3l0 0 -25.2 -4.5zm-2154 -2428.2l0 -113.3 0.1 0c574.3,0 1119.6,226 1525.6,631.9 406,406 632,951.4 632,1525.7 0,126.9 -11,253.6 -33.1,378.6l-0 0.2 -111.6 -19.9 0.1 -0.4c21,-118.3 31.5,-238.4 31.5,-358.5 -0,-1129.1 -915.3,-2044.4 -2044.4,-2044.4l-0.1 0z"/>
  <path class="fil2" d="M853.7 655.5l372.4 -195.9 -184.8 370.8 301.6 282 -416.9 -51.8 -186 370.2 -72.8 -402.8 -416.6 -53.2 371.9 -197.1 -71.3 -403.1 302.5 280.9zm1455 -655.5l124.9 389.7 419.8 0.7 -342.7 241.6 123.5 390.1 -336.6 -240.5 -343.5 240.4 134.7 -390.1 -335.8 -241.6 419.8 -0.6 136 -389.7zm1430.4 651.8l-364.7 -195.5 182.5 375.7 -292.9 290.5 406.7 -57.4 183.8 375.1 68.8 -411 406.3 -58.7 -364.1 -196.8 67.4 -411.3 -293.7 289.4z"/>
 </g>
</svg>
