<?xml version="1.0" encoding="UTF-8"?>
<!DOCTYPE svg PUBLIC "-//W3C//DTD SVG 1.1//EN" "http://www.w3.org/Graphics/SVG/1.1/DTD/svg11.dtd">
<!-- Creator: CorelDRAW 2020 (64-Bit) -->
<svg xmlns="http://www.w3.org/2000/svg" xml:space="preserve" width="100mm" height="24.0523mm" version="1.1" style="shape-rendering:geometricPrecision; text-rendering:geometricPrecision; image-rendering:optimizeQuality; fill-rule:evenodd; clip-rule:evenodd"
viewBox="0 0 16185.7 3893"
 xmlns:xlink="http://www.w3.org/1999/xlink"
 xmlns:xodm="http://www.corel.com/coreldraw/odm/2003">
 <defs>
  <style type="text/css">
   <![CDATA[
    .fil0 {fill:#CCCCCC}
    .fil1 {fill:#332B24;fill-rule:nonzero}
   ]]>
  </style>
 </defs>
 <rect class="fil0" x="25964.3" y="-56889.9" width="48071.5" height="97114.1"/>
 <g id="Layer_x0020_1">
  <metadata id="CorelCorpID_0Corel-Layer"/>
  <path class="fil1" d="M1095.8 852c-624.7,0 -1095.8,481.2 -1095.8,1119.2 0,310.6 107.8,585.7 311.8,795.8 205.4,208.8 477,323.8 764.9,323.8 222.8,0 410.1,-52.3 572.7,-160l25.1 -16.6 0 -362.8 -91.9 79.5c-140.6,120.1 -306.1,178.5 -505.9,178.5 -436.8,0 -779,-368.1 -779,-838.1 0,-468.1 342.1,-834.8 779,-834.8 200.5,0 342.8,50.4 507.6,179.9l90.1 70.6 0 -363.8 -28.2 -15.6c-187.8,-107.6 -357.6,-155.6 -550.6,-155.6zm10748.4 1156.9l-723.2 0c69.3,-271.9 187.8,-521.1 360.9,-759.4 182.1,255.5 301,504.7 362.3,759.4zm-362.5 -1178.1l-40.9 44.7c-475.8,513.6 -688,1122.1 -688,1973.8l3.7 210.4 38.3 -1.4 241.7 -0.6 0 -55.6c0,-276.8 9.8,-505.8 30,-698.3l828.5 0c19.7,159.3 29.2,364 29.2,624.1l0 129.8 282.6 0 3.9 -220.1c0,-842.5 -212.2,-1447.6 -688.1,-1961.9l-41 -44.8zm-4066 1178.1l-723 0c69.1,-271.7 187.5,-521 360.7,-759.4 182.3,255.4 301.2,504.8 362.3,759.4zm-362.8 -1177.8l-40.6 44.5c-475.8,513.9 -688,1122.4 -688,1973.8l3.7 210.4 38.3 -1.4 242 -0.6 0 -55.6c0,-278.8 9.8,-507.8 29.9,-698.3l828.5 0c19.6,161.3 29.1,366 29.1,624.1l0 129.8 283.1 0 3.6 -220.1c0,-842.6 -212.2,-1447.7 -688.3,-1962.1l-41.3 -44.4zm3039.9 2426c-157.2,-14.3 -304.1,-52.8 -403,-105.6 -38.6,-20.7 -70.1,-44.2 -102.5,-69.1 159.9,-18.5 300.4,-68.4 425.9,-151.5l25 -16.6 0 -362.8 -91.9 79.5c-140.3,120.1 -305.7,178.5 -505.7,178.5 -436.9,0 -779.2,-368.1 -779.2,-838.1 0,-468.1 342.3,-834.8 779.2,-834.8 200.3,0 342.6,50.4 507.4,179.9l90.1 70.6 0 -363.8 -28.1 -15.6c-187.5,-107.6 -357.3,-155.6 -550.3,-155.6 -624.7,0 -1095.8,481.2 -1095.8,1119.2 0,310.7 107.7,585.9 311.6,795.8 69.8,70.9 147.4,130.7 230.5,179.1 -25.1,9.7 -51.2,21.5 -79.7,35.9 -127.3,63.2 -275.2,189.5 -308.2,354.2l-7.9 39.4 28.9 -27.9c1.2,-1.1 118.3,-111.1 337.5,-62.2 78.9,17.6 182.9,76.8 293,139.4 107.1,60.9 228.4,129.9 346.3,171.6 62.1,22.4 246.1,84.2 383.9,84.2 30.6,0 58.8,-3 83,-10.2 57.9,-7.5 62.6,-41.1 65.9,-65.7 1.3,-9.1 2.4,-17.7 5,-22.4 9,-5.2 55.1,3.6 85.7,9.5 61.9,11.9 100.6,18.1 117.7,4 4.3,-3.5 7,-8.2 8,-13.5 1.9,-3.3 2.9,-7.1 2.9,-11.2 -0.2,-17.4 -19.6,-37.2 -49.1,-65.5 -7.9,-7.6 -18.1,-17.4 -23.5,-23.7 8.3,-5.7 34.1,-18.9 57.2,-30.7 44.4,-22.7 105.1,-53.7 144.7,-81.8 61.3,-43.4 112.9,-104.2 146.4,-146.2l28.3 -35.5 -42.5 16c-60.1,22.6 -222.7,73 -436.8,53.3zm2845.2 -872.7c54,-9.1 90.4,-33.5 105.5,-70.8l2.2 -5.6 -3 -5.2c-6.5,-11.7 -1.6,-20.6 10.5,-36.6 8.2,-10.8 17.4,-23.1 13.9,-37.4 -2.5,-10.1 -10.3,-16.9 -18.1,-21.5 -0.9,-9.2 -6.2,-16.8 -10.3,-22.8 -1.8,-2.7 -5,-7.3 -5.2,-8.6 0,0 0.7,-1.6 5,-4.4l8.2 -5.4 -3.3 -9.3c-5,-14.2 -7.2,-29.4 -9.3,-44 -4.7,-32.2 -9.5,-65.5 -44.1,-85.3 -11.7,-11.7 -15.6,-27.9 -19.8,-45 -4.8,-19.6 -10.1,-41.7 -28.3,-58.7l-2.5 -2.3 -3.3 -0.8c-12,-2.7 -24,-7.4 -36.7,-12.3 -32.4,-12.6 -69.2,-26.8 -107.3,-5.9 -157.2,51.8 -320.1,124.7 -484.2,216.6l-3.5 2.9c-30.5,36.3 -29.3,82.3 -28.2,126.8 0.2,8.4 0.5,16.8 0.5,25.1l0 6.1 4.8 3.8c10,7.8 15.1,21.5 20.4,36.1 7.4,20.1 15.8,42.9 40.1,49.8 5.6,3.4 12.1,5.3 18.4,7.1 17.1,5 16.8,6.6 15.4,13.6l-3.3 16.3 16.5 -1.3c48.2,-3.8 110.3,1.7 158,14l2 0.5 2 -0.1c37.1,-2.5 76.6,-0.6 118.4,1.4 28.2,1.4 56.6,2.8 84.8,2.8 65.3,0 129,-7.4 183.6,-39.6zm-266 -1006.5c24.4,14.4 47.4,28 66.6,43.2l2.9 1.7c26.1,11 52.2,25.5 77.5,39.6 57.1,31.7 116,64.5 185,64.5 4.4,0 9,-0.1 13.5,-0.4l3.7 -0.2 3 -2.2c8.4,-6.2 18.6,-8.9 29.5,-11.7 17.3,-4.5 37,-9.5 51.4,-30l2.1 -5.4 0.3 -3.4c0,-0.3 0,-0.6 0.1,-1 16.5,-2.5 30.8,-10.1 39.3,-21.5 5.8,-7.8 8.7,-17 8.3,-26.8 39.7,-3.8 45.3,-44 49.4,-74.4 2.1,-15.4 4.3,-31.3 10,-41.5l2.4 -4.5 -1.4 -4.9c-18.7,-67.1 -63.3,-122.2 -130.7,-160.1 -44,-16.8 -87.5,-42.1 -129.6,-66.7 -97.6,-56.9 -198.5,-115.6 -319.9,-81.9 -72.3,12.7 -73.4,64 -74.2,105.2 -0.6,28.9 -1.2,56.1 -20.6,74.9l-2.7 2.6 -0.8 3.7c-23.6,107.6 60.4,157.3 134.6,201.2zm722.5 1462.7l28.3 -22.4 -36.1 0c-9.1,0 -11.9,-2.9 -12.9,-3.8 -5.7,-5.7 -5.6,-20.1 -5.6,-32.8 0,-13.7 0.1,-26.6 -6.2,-36.1l-5.6 -8.5 -9.5 3.8c-2.6,1 -5.4,2.5 -8.3,4 -1.9,1 -5.1,2.7 -7.9,3.5l6.6 -47.5 -39.7 0c-4,-3.8 -8.4,-7 -12.7,-10.2 -9.7,-7.3 -15.6,-12.1 -15,-16.9l2 -16.3 -16.2 2.4c-96.9,14.2 -176.5,61.4 -235.7,101.4 -106,82.8 -240.8,218.8 -281.4,397.1l-3.5 14c-13.7,54 -27.9,109.8 0.6,163.3l3.6 6.6 31.3 0c4.5,5.4 3.1,10.4 -2.7,23.2 -5.3,11.7 -12.6,27.8 -3.1,44.4l3.4 5.9 77.3 4.2c3.7,2.2 7.3,3.1 10.7,3.1 12.1,0 22.1,-11.4 28.3,-18.4 4,-4.6 10.8,-12.2 14.1,-12.3l0 0c0.9,0 2.9,1 5.6,3.7l8.2 8.3 8.8 -7.6c191.5,-164.8 352.8,-332.7 479.5,-499l7.4 -9.7 -9.5 -7.6c-0.5,-0.8 -0.7,-3.8 -0.9,-5.6 -0.3,-4.1 -0.8,-10.9 -4.7,-16.6 1.2,-4.5 1.2,-8.9 1.2,-12.2 0,-1.8 0,-4.7 0.2,-5.3zm94.4 -2235.3c27.7,95 56.3,193.3 112.9,280.3l6.2 10 10.3 -5.9c1,0 3.7,1.3 5.4,2.1 5.1,2.4 12.9,6.2 21.4,2.6 0.3,-0.1 0.5,-0.2 0.8,-0.4 9.3,7.5 21.6,6.8 29.3,6.4 11,-0.6 12.8,0 14.4,2.9l10.9 19.7 16.3 -29.2c12.8,3.2 23.8,2.5 34.7,1.9 4.6,-0.3 9.3,-0.6 14.5,-0.6l12 0 0.5 -12.1c0.2,-6.3 1,-9.3 0.8,-10.3 2.1,0.4 5.8,1.7 8.4,2.6 9.5,3.4 30.2,10.8 42.8,-7.5 15.1,0.3 26.6,-12.3 34,-21.2 9.4,-11.4 14.5,-16.3 23.2,-15.2l10.1 1.2 3.3 -9.6c53.2,-154.7 -6.7,-300.5 -64.6,-441.4 -21.3,-52 -43.4,-105.7 -58.6,-157.8l-2 -4c-10.2,-13.7 -17.1,-33.1 -24.5,-53.6 -16.8,-46.7 -37.8,-104.7 -110,-94.9l-3.3 0.5 -2.6 2c-24,18.5 -55.9,22.8 -89.6,27.2 -35.4,4.7 -72,9.6 -99.5,32.5l-2.5 2 -1.2 2.9c-35.2,87.4 -38.6,205.3 -8.2,301.1 21.8,53.5 38.4,110.5 54.4,165.5zm585.4 2550.6l-4 -1.7c-10.2,-4.3 -19.8,-8.5 -29,-12.5 -25.6,-11.2 -49.9,-21.8 -81,-31.3l-8 -2.4 -5.3 6.5c-5.7,7 -10.3,6.8 -21.1,5.5 -9.9,-1.2 -23.2,-2.7 -35.9,6.9 -35.9,-9.1 -68,10.3 -93.1,29.4 -108.5,93.2 -139.7,255.9 -92.9,483.7 -8.4,42.9 14.4,74.4 34.6,102.3 21.8,30.1 40.7,56.2 24.1,94.1l-3.4 7.6 5.8 6c38.3,39.9 90.3,43 146.2,43 5,0 10.1,-0 15.2,-0l22 -0.1 3.8 -4.5c5.5,-6.7 11.6,-13.6 18,-20.8 29.1,-33 65.4,-74 72.5,-123l10.5 -122c53.9,-133.5 101.3,-321.4 23.2,-462.8l-2.1 -3.8zm232.1 -2436.1c8.9,6.8 17.3,13.2 23.6,22l8.3 11.7 10.4 -9.8c4.9,-4.5 7.4,-5.6 7.6,-5.9 2,1.6 5.4,8.4 7.5,12.5 4.5,9 9.7,19.3 18.8,25.3l3.3 1.5c11.2,3.4 22.4,0.1 32.3,-2.9 4.2,-1.2 11.1,-3.4 12.6,-3.1 0,0 0.9,1 1.6,4.7l2 10.1 10.3 0c11.3,0 21.6,0.3 31.4,0.6 8.7,0.2 17,0.5 25.4,0.5 18.6,0 37.3,-1.1 60.5,-5.8 91.7,-33.1 154,-128.8 179.5,-200.7l0.6 -3.2c2.5,-30.1 10.6,-57.6 19.2,-86.8 12.3,-42 25.1,-85.4 20.1,-138.3 -4.6,-26.1 -7.6,-54 -10.5,-81.1 -10.2,-96.7 -20.7,-196.8 -107.9,-255.8 -46.7,-31.5 -82.8,-7.9 -114.5,12.9 -17.5,11.5 -34.1,22.4 -51.8,24.4l-3.9 0.4 -3 2.6c-124.2,111 -150.6,273.7 -176.1,431.1 -10.9,67.3 -21.2,130.8 -38.7,190.6l-1.3 4.4 1.8 4.2c6.8,15.3 19,24.7 30.8,33.7zm848 2340.1l-3 -2.8c-19.3,-12.9 -35.4,-29 -50.9,-44.6 -18.7,-18.8 -36.4,-36.6 -59.6,-48.8 -53.2,-24.2 -92.9,3 -128,26.9 -11.5,7.9 -22.4,15.3 -33.7,21.2 -32.4,0.4 -51.1,23.3 -67.7,43.5 -13.4,16.3 -25.9,31.8 -44.3,34.9l-5 0.9 -3 4.2c-93.5,130 -7,249.6 69.4,355.1 19.5,27 37.9,52.4 53.2,77.5l3.1 3.4c29.8,23.1 54.7,45.8 78.7,67.7 26.9,24.6 54.7,50 89.6,76.1l2.7 1.6c12,5 24,10.3 35.9,15.6 51.1,22.8 103.8,46.2 167.1,46.2 8,0 16.2,-0.4 24.6,-1.2l5.6 -0.5 3.3 -4.6c12.6,-17.4 21.3,-36.6 25.8,-57.2 12.9,-15.9 14.5,-35.7 16.1,-54.9 1.8,-21.8 3.5,-42.3 20.3,-59.1l4.8 -4.9 -1.5 -6.7c-37,-165.2 -87.3,-338.8 -203.3,-489.4zm-67.7 -1922c17.2,13.2 26.8,21.6 25.5,40.6l-0.8 11.3 11.1 2c5.1,0.9 10.1,0.5 14.6,0.2 4,-0.3 6.4,-0.3 7.9,-0.3 2.1,0 2.2,0.1 2.4,0.1 -0.4,1.1 -2.6,3.8 -4,5.4 -1.7,2 -3.4,4 -4.7,6l-7.9 11.7 75.9 39.4 4.2 1.3c14.3,1.8 28.4,2.8 42.5,2.8 154,0 294.7,-110.8 409.1,-323.1 6,-9.6 13,-18.9 19.9,-28.1 22,-29.3 44.7,-59.5 41.1,-102.4l-1.3 -16.2 -15.3 5.4c-5.3,1.9 -8.5,1.8 -9.5,1.1 -3,-1.7 -4.7,-12 -5.6,-17.5 -1.1,-6.6 -2.1,-12.8 -5.2,-17.7l-3.6 -3.8c-2.4,-1.6 -5.1,-4.8 -7.8,-8 -5,-6 -13.3,-15.7 -25.3,-16.5 -10.8,-24.6 -36.5,-33.6 -57.7,-41.1 -12,-4.2 -23.4,-8.2 -31.8,-14.2l-5.2 -3.7 -6.1 2.1c-69.3,23.8 -129.5,68.4 -187.7,111.5l-25.8 19.1c-36.3,22 -69.6,50.1 -101.8,77.3 -48.3,40.8 -94.1,79.4 -148.3,98.2l-2.9 1 -2.1 2.3c-23.4,25.4 -43.2,51.3 -28.2,88.3 -4.4,35.7 17.2,52.2 34.6,65.6zm979.5 1484.4l-3 -2.6c-141.8,-121.8 -296.3,-215 -447,-269.5l-2.5 -0.9 -2.7 0.2c-25.5,1.8 -54.7,-3.5 -82.9,-8.7 -63.4,-11.7 -135.3,-24.9 -178,44.2 -17,20.6 -18.7,40.3 -20.2,57.7 -1.4,16 -2.6,29.9 -14.6,45.4l-4.8 6.2 3.5 7c4.4,8.9 7.2,19 10.1,29.8 5.5,20.1 11.6,42.7 30.7,59.6 15.6,62.8 65.9,99.2 114.5,134.5 10.4,7.5 20.8,15 30.6,22.7l3.9 2.1c21.1,6.8 42,13.6 62.8,20.3 23.2,7.6 46.5,15.2 70.3,22.8l2.1 0.7 2.2 -0.1c92.7,-3 192.3,1.5 288.5,5.9 34.7,1.6 68.4,3.1 100.4,4.2l5.5 0.2 3.9 -3.8c37.8,-37.7 47.2,-96.3 27.9,-174.1l-1 -3.9zm117.5 -921.3l-1.5 -4.4c-5.6,-9.8 -25.1,-41 -52.7,-49.7 -25.7,-33.8 -70.3,-46.9 -109.9,-58.4 -4.8,-1.4 -9.5,-2.8 -14.2,-4.2 -12.3,-44.3 -52.8,-40.4 -82.7,-37.5 -16.8,1.6 -34.2,3.3 -44.6,-2.6l-5.3 -1.6c-16.3,-1 -33.3,-2.4 -50.9,-3.8 -159.3,-12.5 -357.5,-28 -435,138.3l-1 2.8c-20.3,99.1 24.4,217.3 110.2,288.4 55,34.3 113.2,47.2 172.2,47.2 96.7,0 195.8,-34.6 287.3,-66.6 18.3,-6.4 36.2,-12.6 53.6,-18.4l3.1 -1.6c8.7,-6 17.9,-12.1 27.5,-18.3 70.9,-46.4 159.2,-104.3 143.7,-209.7zm-1157.6 270.3c0,477.8 -339.6,838.1 -790,838.1 -444.6,0 -792.8,-368.1 -792.8,-838.1 0,-475.9 338.4,-834.8 787.2,-834.8 446.1,0 795.5,366.7 795.5,834.8zm52.5 715c158.6,-195.6 242.5,-442.8 242.5,-715 0,-345.5 -140.5,-652.7 -395.4,-865.1 -198.1,-166.2 -438.4,-254.1 -695.1,-254.1 -336.4,0 -635.6,144.7 -842.7,407.4 -158.5,195.6 -242.3,441.7 -242.3,711.8 0,310 108.8,584.3 314.6,793.2 207.2,210.4 483.7,326.4 778.7,326.4 337.7,0 628.2,-140 839.8,-404.5zm-10162.5 -517.1l0 -938.4c202.4,59 340.1,240.4 340.1,455.5 0,164.3 -79.6,303.9 -243.4,427 -38.3,29.3 -70.6,44.9 -96.7,55.9zm259.5 225.8c274.3,-224.3 386.6,-432 386.6,-711.4 0,-455.2 -375.8,-798.5 -874.2,-798.5l-74.9 0 0 2172.6 303 0 0 -495.9c29.9,61.5 69.1,129.5 119,194.5 108.3,142 254.6,248.6 460.3,335.5l77.6 32.9 0 -329.7 -30.6 -15.4c-171.1,-86.8 -303.4,-225.9 -366.8,-384.7zm-1760.6 9.6c0,250.5 -111.5,388.4 -313.8,388.4 -192.4,0 -302.8,-145.6 -302.8,-399.5l0 -1508.4 -300.5 0 0 1511.1c0,161 9.3,306.3 124,453.6 121.1,157.7 289.6,241 487.5,241 366.3,0 603,-269.4 603,-686.2l0 -1519.5 -297.5 0 0 1519.5z"/>
 </g>
</svg>
