<?xml version="1.0" encoding="UTF-8"?>
<!DOCTYPE svg PUBLIC "-//W3C//DTD SVG 1.1//EN" "http://www.w3.org/Graphics/SVG/1.1/DTD/svg11.dtd">
<!-- Creator: CorelDRAW 2020 (64-Bit) -->
<svg xmlns="http://www.w3.org/2000/svg" xml:space="preserve" width="180mm" height="175.286mm" version="1.1" style="shape-rendering:geometricPrecision; text-rendering:geometricPrecision; image-rendering:optimizeQuality; fill-rule:evenodd; clip-rule:evenodd"
viewBox="0 0 22047.4 21470"
 xmlns:xlink="http://www.w3.org/1999/xlink"
 xmlns:xodm="http://www.corel.com/coreldraw/odm/2003">
 <defs>
  <style type="text/css">
   <![CDATA[
    .fil0 {fill:#C5C6C6}
    .fil1 {fill:white;fill-rule:nonzero}
   ]]>
  </style>
 </defs>
 <rect class="fil0" x="38556" y="-52149.8" width="102888" height="95538.9"/>
 <g id="Logo_x0027_s">
  <metadata id="CorelCorpID_0Corel-Layer"/>
  <path class="fil1" d="M17043 8365.5l0 2937.9 -711.7 0 -0.6 -190.5c-154.5,103.6 -327.5,179.9 -508.3,222.8 -367.4,87.6 -759.4,33.5 -1083.3,-140.3 -164.2,-87.1 -312.3,-204.4 -435.1,-344.5 -122.8,-139.8 -220.2,-301.9 -285.6,-476 -200.4,-555.4 -97.5,-1118.7 287.3,-1567.4 123.1,-139.7 271.4,-256.5 435.7,-343.8 164.4,-87.3 344.8,-144.6 529.2,-167.9 364.5,-47.6 750,41.6 1062.6,253.4l-1.7 -183.7 711.7 0zm-3368.9 -950l0.3 3887.9 -711.6 0 -0.6 -190.5c-154.4,103.6 -327.4,179.9 -508.6,222.8 -367.1,87.8 -759.3,33.5 -1083,-139.9 -164.3,-87.5 -312.4,-204.8 -435.2,-344.4 -122.8,-139.8 -220.3,-301.9 -285.8,-476 -200.2,-555.8 -97.3,-1118.7 287.5,-1567.3 123,-140.1 271.4,-257 435.6,-344.3 164.5,-86.9 344.9,-144.2 529.3,-167.9 364.5,-47.6 750,41.6 1062.6,253.6l0.2 -1133.9 709.4 0zm-4566.9 0l0.4 3887.9 -711.6 0 -0.9 -190.5c-154.4,103.6 -327.4,179.9 -508.5,222.8 -367.1,87.8 -759.4,33.5 -1083.1,-139.9 -164,-87.5 -312.6,-204.8 -435.2,-344.4 -123,-139.8 -220.3,-302.3 -285.6,-476.4 -200.4,-555.4 -97.3,-1118.7 287.3,-1567.4 123,-139.7 271.6,-256.5 435.6,-343.8 164.6,-87.3 344.7,-144.2 529.3,-167.9 364.3,-47.6 749.8,41.6 1062.6,253.4l0 -1133.7 709.6 0zm-3404.4 950l0 2937.9 -711.2 0 -0.6 -190.5c-154.7,103.6 -327.9,179.9 -509,222.8 -366.9,87.8 -759.1,33.5 -1083.3,-139.9 -164.1,-87.5 -312.1,-204.8 -435,-344.4 -123,-139.8 -219.9,-302.3 -285.8,-476.4 -200.2,-555.4 -97.3,-1118.7 287.6,-1567.4 123.2,-139.7 271.4,-256.5 435.8,-343.8 164.5,-87.3 344.7,-144.2 529.3,-167.9 364.3,-47.6 749.7,41.6 1062.6,253.4l-1.6 -183.7 711.2 0zm4926.6 -6909.4l3379.8 5959.1 3303.6 0 -4205.7 -7415.2 -2477.7 1456.1zm-4163.6 17150.8c452.9,0 750.9,238.4 889.8,632l680.2 0c-167.2,-756.3 -768.1,-1230.4 -1570,-1230.4 -956.5,0 -1677.7,745.8 -1677.7,1718.4 0,972.7 721.3,1693.8 1677.7,1693.8 801.9,0 1383.6,-495.7 1570,-1230.5l-680.2 0c-136.2,375.9 -436.9,632 -889.8,632 -628.2,0 -1017.4,-450.4 -1017.4,-1095.3 0,-644.8 389.3,-1119.9 1017.4,-1119.9zm2807 -227.7l-31 1.6 -36.9 -325.2 -569.3 0 0 3377.4 635.6 0 0 -2138.2c0,-450.8 346.5,-695.9 802.3,-695.9 98.8,0 118.6,7.9 118.6,7.9l0 -619.5c0,0 -40.9,-11.7 -118.6,-11.7 -194.4,0 -554.9,82.2 -800.7,403.5zm6808.5 -403.5c-565.8,0 -911.3,242 -1063,403.5l-31 1.6 -37 -325.2 -569.2 0 0 3377.4 635.5 0 0 -2125.9c0,-472.8 426.3,-720.6 949.8,-720.6 450,0 769.6,224.6 769.6,693.4l0 2153.1 635.5 0 0 -2193.2c0,-933.4 -657.8,-1264.1 -1290.3,-1264.1zm2106.6 3457.3l635.5 0 0 -3377.4 -635.5 0 0 3377.4zm-6126 -623.3c-627.1,0 -1032.8,-460.6 -1032.8,-1095.3 0,-634.6 405.7,-1107.6 1032.8,-1107.6 627.2,0 1033,472.9 1033,1107.6 0,634.7 -405.8,1095.3 -1033,1095.3zm0 -2801.4c-965.2,0 -1693.1,733.4 -1693.1,1706 0,972.7 727.9,1706.1 1693.1,1706.1 965.3,0 1693.3,-733.5 1693.3,-1706.1 0,-972.6 -727.9,-1706 -1693.3,-1706zm8807 1372.6c-626.5,-137.1 -601.8,-292 -601.8,-429.9 0,-165.3 186.4,-374.4 489.5,-374.4 255.1,0 522.1,126.7 522.1,553.5l610.8 0c21.9,-690 -433.1,-1114.9 -1132.9,-1114.9 -620.3,0 -1125,430.9 -1125,960.4 0,667.8 532,875.8 1106.8,1001.9 609.9,133.8 661.1,323.6 661.1,457.3 0,255.9 -259.6,473.6 -620.1,473.6 -259.5,0 -654.5,-163.2 -654.5,-653.6l-610.9 0c-37.6,770.3 520.3,1215 1265.4,1215 708.8,0 1268,-455.6 1268,-1059.7 0,-684.6 -608,-904.5 -1178.5,-1029.3zm-19551.5 586.7l196.4 -436 1755.2 0 196.3 436 -2147.9 0zm1060.7 -2403.5l28 0 31.7 85.3 595.5 1358.5 -1283.6 0 597.4 -1358.5 31.1 -85.3zm-277 -796.6l-2101.2 4665.5 670 0 411.8 -941.8 2619.6 0 411.8 941.8 669.9 0 -2101.1 -4665.5 -580.7 0zm9299.7 -7459.4c-65,85.4 -113.9,182.4 -143.6,285.4 -85.5,314.8 -12.7,634.9 247.1,882.6 79,72.2 171.5,130.3 271.1,169.3 320.9,120.1 646.4,61.1 902.4,-164.3 79.9,-71.8 146,-159.1 194.2,-255 156.6,-325.5 109.9,-651.2 -81.6,-914.2 -64.4,-85.8 -144.9,-159.5 -236.3,-216 -91.1,-57 -193,-96.4 -298.7,-116.3 -306,-52.8 -617.8,31 -854.8,328.5zm-4567.2 0c-64.5,85.1 -113.7,182.4 -143.3,285.4 -85.6,314.8 -12.6,634.9 247.4,882.5 78.8,72.3 171,130.5 270.9,169.4 320.8,120.1 646.3,61.1 902.5,-164.3 79.8,-71.8 145.9,-159.1 194.3,-255 156.3,-325.5 109.6,-651.2 -81.8,-914.2 -64.4,-85.8 -144.8,-159.5 -236.3,-216.7 -91.1,-56.3 -193,-95.7 -298.3,-115.6 -306.2,-52.8 -618,31 -855.4,328.5zm-3404.3 0c-65.1,85.1 -113.9,182.4 -143.6,285.4 -85.6,314.8 -12.7,634.9 247.3,882.5 78.9,72.3 171.2,130.5 270.9,169.4 321.2,120.1 646.4,61.1 902.6,-164.3 80,-71.8 145.9,-159.1 194.3,-255 156.4,-325.5 109.7,-651.2 -81.6,-914.2 -64.5,-85.8 -145.1,-159.5 -236.3,-216.7 -91.2,-56.3 -193.1,-95.7 -298.6,-115.6 -305.9,-52.8 -618.2,31 -855.1,328.5zm11340 -0.4c-64.9,85.5 -113.8,182.8 -143.5,285.8 -85.5,314.3 -12.6,634.9 247.4,882.5 78.7,72.3 171.1,130.2 270.9,169.4 321,119.7 646.3,61.1 902.5,-164.3 79.9,-72.2 145.9,-159.1 194.4,-255 156.5,-325.5 109.7,-651.6 -81.8,-914.2 -64.4,-85.8 -144.9,-159.9 -236.3,-216.7 -91.2,-56.3 -193,-95.7 -298.4,-115.8 -306.2,-52.6 -618,31.2 -855.2,328.3zm-5261.4 1997.6l707 0 1.5 -2941.7 -708.5 0 0 2941.7zm8641.8 -811.7c-11.9,-41.9 -17,-85.7 -15.2,-129.1l-753.5 -0.6c5.9,126 35.8,251.3 88.1,367.1 94.9,227.1 320.7,411.4 512.4,498 255.9,114.2 439.6,131.5 657.7,139.9 233.2,1.5 467.9,-18.4 683.2,-74.8 85.3,-24 180.8,-60.7 267.4,-112.4 86.6,-52.1 164.3,-119.6 228.9,-197.9 202.7,-251 261.2,-554 174.4,-857.7 -28.3,-95.3 -71.3,-184.6 -129.6,-262.2 -58,-78.4 -131.2,-145.3 -214,-195.5 -82.6,-50.5 -175.4,-83.8 -280.4,-109.3 -105.1,-26.2 -223.1,-43.4 -367.3,-66.5 -144,-23.1 -314.1,-51.7 -412.4,-68.9 -178.2,-31.3 -158.3,-33.6 -224.6,-55.9 -56.7,-14.8 -164.4,-91.1 -177.6,-171 -15.9,-88.6 -21.2,-179 112.6,-282.3 75.3,-44.5 169.3,-62.4 258.9,-74.8 102.6,-10.5 265.9,-18.5 423.9,77 191,119.3 206.6,228.2 217.5,336.8l724.5 0.4c-5.9,-103.4 -30.8,-208.8 -76.8,-311 -36,-90.7 -143.1,-240.8 -326.2,-388.9 -92,-72.1 -195.3,-129.4 -304.7,-170.2 -195,-70 -393.3,-92.5 -557.6,-87.9 -170.1,5.9 -292.5,14.3 -447.2,52.5 -87.4,22.2 -190.6,56.5 -284.2,108.4 -327.9,190.9 -460.5,492.1 -479.4,753.7 -5.7,94.1 4.3,189.5 30.3,279.9 26.1,90.6 67.8,176.7 110.7,242.4 95,140.5 190,199.5 294.1,253.7 56.3,27.7 116.3,48.1 297.1,87.7 181.1,38.4 483.8,96.4 647,128.1 163.2,31.1 187.4,36 211.1,42.3 62,21.8 120.5,21.8 194.9,102.5 74.8,111.9 92,238 -57,386.4 -183.1,115.3 -513.5,137.1 -771.6,34 -64.7,-29.7 -134,-65.1 -200,-156.2 -24.9,-35.8 -43.9,-75.7 -55.7,-117.6zm-13490.6 -3773l394.2 694.6 3303.1 0 -1219.6 -2150.7 -2477.7 1456.1zm2995.1 -2625.4l1883.1 3320 -27.8 0 0.5 633.2 706.3 -0.7 0 -632.5 2624.3 0 -2708.9 -4776.3 -2477.5 1456.3z"/>
 </g>
</svg>
