<?xml version="1.0" encoding="utf-8"?>
<!-- Generator: Adobe Illustrator 25.0.1, SVG Export Plug-In . SVG Version: 6.00 Build 0)  -->
<svg version="1.1"
	 id="Layer_1" image-rendering="optimizeQuality" shape-rendering="geometricPrecision" xmlns:v="https://vecta.io/nano"
	 xmlns="http://www.w3.org/2000/svg" xmlns:xlink="http://www.w3.org/1999/xlink" x="0px" y="0px" viewBox="0 0 264.6 350"
	 style="enable-background:new 0 0 264.6 350;" xml:space="preserve">
<style type="text/css">
	.st0{fill:#FFFFFF;stroke:#000000;stroke-miterlimit:10;}
	.st1{fill-rule:evenodd;clip-rule:evenodd;fill:#857040;}
</style>
<path class="st0" d="M33,185.8l-5.3,0.3l-3.2,10.8l4.4,4.3l-1.3,9.1L0,187.2l2.5-9l34.8-3.3L33,185.8L33,185.8z M21.5,186l-12,0.2
	l9.8,7C19.3,193.2,21.5,186,21.5,186z M47.3,154c3.2,2.7,6.3,5.7,6.2,10c-0.3,5.1-2.4,7.1-4.4,9.5l-7,1c5-9.6,0.1-11.4-2.5-13.4
	l-22-14.5l6.2-9.5L47.3,154L47.3,154z M75.8,130.4l-4.2-3.3l-9.4,7l1.4,5.6l-6.7,6.4l-7.5-35l8.1-5.6l29.2,18.7L75.8,130.4
	L75.8,130.4z M66.9,123.6l-9.1-7.5l2.8,12L66.9,123.6L66.9,123.6z M110.2,99.4l15.6,13.9l-12.5,1.8l-6.8-7l-3.5,9.7l-10.7,3.9
	l7.9-19.6L87.6,90l10.3-3.5l6.3,7.2l3.2-9.2l9.6-1.9L110.2,99.4L110.2,99.4z M260.2,251.1c-0.3,0.7-0.3,1.6-0.7,2.1l-8.3-2.4
	c2.3,2.2,4.9,4.3,7.3,6.5l-0.3,1.1c-3.1,0.5-6.3,0.6-9.5,0.9c2.6,1.1,5.5,1.9,8.2,2.8c-0.1,0.6-0.2,1.2-0.5,1.7l-11.2-3.5
	c0.1-0.9,0.6-2.7,0.6-2.7l9.7-0.9l-7.4-6.5l0.7-2.6L260.2,251.1L260.2,251.1z M253.3,271.8l-3.3-0.4c-0.6,1.2-1.2,2.5-1.6,3.8
	l2.3,2.4c-0.1,0.6-0.5,1.2-0.7,1.8c-2.8-3-6-6.1-8.9-9.2l0.8-1.9l12.5,1.1C254.2,270.2,253.7,271.1,253.3,271.8L253.3,271.8z
	 M245.1,287.5c-0.7,1.9-1.9,3.7-3,5.5l-10.2-6c1.3-2.7,2.6-6.5,6.1-7.2c2.3-0.4,4.9,0.8,6.3,2.9C245.3,284,245.8,285.6,245.1,287.5z
	 M236.7,300.3c-1.8-0.3-3.5-0.8-5.3-1.2l-0.9,1.1c1,1,2.5,2,3.5,3l-1.5,1.9l-9.2-7.8c1.5-1.7,2.7-4.4,5.3-4.8c0.9-0.1,3.2,1,3.4,2.7
	l0.2,1.8l5.6,1.3L236.7,300.3L236.7,300.3z M222.5,315.3c-2.8-2.8-5.6-5.8-8.3-8.7c1.5-1.5,3-2.9,4.5-4.4c0.4,0.2,0.7,0.8,1.1,1.1
	c-0.7,1-1.9,1.8-2.8,2.8l2.3,2.3c1-0.8,1.9-1.8,2.9-2.6l1.1,1.1l-2.8,2.7c0.7,1.1,1.7,1.9,2.6,2.9c1.2-0.9,2.3-2,3.4-3.1
	c0.4,0.2,0.8,0.8,1.1,1.2L222.5,315.3L222.5,315.3z M211.8,311.1c-0.8,0.7-1.8,1.4-2.7,2.2l0.4,0.7c1.9,2.6,4,5.1,5.7,7.8l-1.7,1.3
	c-2.3-2.6-4.2-5.6-6.4-8.3c-1,0.6-1.9,1.4-2.8,2.1c-0.4-0.3-0.8-0.8-1-1.2c2.5-1.9,5.1-4,7.7-5.7L211.8,311.1z M199.4,320.8
	c-1.1,0.2-2.4,0.3-2.8,1.5c-0.1,0.6,0.1,1.1,0.7,1.4c2.5,0.9,6.1,0.2,7.2,3.3c0.3,1.6-0.6,3.2-2,4.1c-1.1,0.5-2.3,0.8-3.5,0.7
	c-0.2-0.3,0-1-0.2-1.5c1.2-0.1,2.8-0.2,3.4-1.4c0.3-0.5,0.3-1.2-0.2-1.6c-1-0.7-2.2-0.8-3.4-1c-1.3-0.4-3.2-0.2-3.7-1.9
	c-0.3-0.9-0.5-1.9,0-2.7c0.9-1.6,2.7-2.5,4.5-2.3C199.5,319.8,199.3,320.3,199.4,320.8L199.4,320.8z M193.7,335.5
	c-0.5,0.4-1.3,0.7-1.9,0.9c-1.4-2.5-2.5-5.4-4-7.9l0.1,9.6c-0.5,0.2-1.2,0.5-1.2,0.5c-2.2-2.1-4.8-4.6-7.1-6.6l0.2,0.6l3.4,7.5
	c-0.5,0.3-1.2,0.5-1.7,0.8l-5-10.9l2.5-1.2c2.4,1.9,4.8,4.6,7.3,6.7l-0.1-9.6c0.7-0.5,1.6-0.7,2.4-1.1L193.7,335.5L193.7,335.5z
	 M174.6,343.3l-2.4,0.7c-0.7-0.8-1.3-1.8-2-2.8c-1.4,0.3-2.8,0.6-4.1,1l-0.3,3.3c-0.6,0.2-1.3,0.4-1.9,0.5l1.1-12.6l2-0.6
	L174.6,343.3L174.6,343.3z M243.8,270.6L243.8,270.6l3.4,3.3c0.5-0.8,0.8-1.8,1.2-2.7C246.9,270.9,245.3,270.7,243.8,270.6
	L243.8,270.6z M243.3,285.4c-0.6-1.7-3.1-3.4-5.4-3.3c-1.8,0.2-2.6,2.2-3.3,3.5c2.5,1.5,5,2.9,7.5,4.4
	C242.7,288.9,244,287.4,243.3,285.4L243.3,285.4z M229.5,295.4c-0.5-0.5-1.1-0.8-1.6-0.6c-0.8,0.3-1.3,1.1-1.8,1.8l3,2.4
	c0.4-0.3,0.8-0.8,1-1.3C230.4,297.1,230.2,296.1,229.5,295.4L229.5,295.4z M166.5,335.8L166.5,335.8l-0.2,4.7c0.9-0.1,2-0.4,2.9-0.9
	L166.5,335.8L166.5,335.8z M222.5,164.7c6.2,20.6,0.9,42.9-15.3,56.6c-11.7,7.9-29.9,12.8-43,4.5c-12.9-6.7-15.9-20.1-22.1-30.9
	c-1.7-2.6-4.2-5.3-7.3-5.9c-3.6-0.2-6.2,1.7-9,3.4c-1.1-0.2-2.5-0.3-2.7-1.6c-0.2-2.8,3.3-3.9,5.1-5c3.1-1.4,7.2-1.2,10.3-0.2
	c12.9,7.3,11.1,22.6,22.4,31.6c7.8,7.2,18.7,10.4,29.3,7c13.6-2.5,25.1-15.4,28.4-28.5c4.8-16.5,1.6-34.9-11.5-46.3
	c-2.6-2-5.5-3.7-8.4-5l-0.5,14.5c5.9,5,12.3,11.1,11.8,19.3c-0.3,1.6-2.2,1.7-3.4,1.2c-1.9-4.7-2.3-10.3-7.3-13.6l-5.6-4.8l0.5-23.2
	C206.8,140.8,218.8,152.3,222.5,164.7L222.5,164.7z M83.4,199.6c-2.6,6.1-6.6,11.8-9.5,17.9c2.5,1.2,5.9,0.9,7.6,3.1
	c0,0.9-0.3,2.3-1.4,2.5c-4.1-0.6-9,0.2-11.1-3.9c1.6-7.8,6.9-14,10.4-21C80.7,196.6,83,197.8,83.4,199.6L83.4,199.6z M93.6,190.2
	c0,2-2.2,3-3,4.8c3.6,1.1,9.2-0.5,10.3,4.5c-0.3,3.3,0.5,7.5-2.8,9.5c-2.6,1.2-4.8-2.3-6.4-0.5c0.2,5.8-3.9,12.9,1.4,17.5
	c0,1.7-0.3,3.3-1.4,4.5c-4.4,1.2-9.2,0-13.4-0.8c-1.2-0.9-0.8-2.2-0.3-3.4c3.1-1.6,6.2,0.8,9.7,0.3c-3.7-7,0-15.4,0.3-22.9
	c2.2-1.9,5.3-0.5,7.5,0.2c1.2-0.3,0.9-2,0.9-3.3c-3.7-1.4-10,0.8-11.4-4.4c0.3-3.4,3-6.1,5.5-8.3C92.1,187.6,93.6,188.8,93.6,190.2
	L93.6,190.2z M129.5,213.7c-0.8,3-3.3,5.3-2.8,8.6c7.9,3.1,2.6,12.2,5.6,17.9c0.3,4.8-5,6.7-6.2,10.9c-3.4,4.1-2.6,11.2-8.6,12.9
	c-6.5,1.3-13.2,2.3-18.9,5.6c-5.6,0.2-9.7-3.3-15-3.6c-2-1.6-1.1-4.2-1.6-6.2c-4.4-3.3-10.9-7-9.4-13.6c0.5-3.4,3-5.9,5-8.7
	c-0.5-1.1-1.2-2.5-0.6-3.9l0.9-0.9l9.4,0.9c0.9,0.6,0.8,2.2,0.3,3c-1.1,1.4-3.3,0.6-4.8,0.8c-1.4,4.5-7.8,7.9-5.1,13.1
	c2.8,4.4,10.3,5.1,9.2,11.4c3.3,1.2,6.7,2.6,10.3,3.4c6.1-3.4,13.2-4.1,19.8-5.8c3.1-6.2,5.5-12.9,10.6-18.4
	c0.2-4.1-1.4-8.3-0.8-12.5c-1.6-1.9-5.3-3.6-4.8-6.5c-0.3-2.8,1.1-4.8,1.6-7.2c-2-1.6-3.9-3.4-6.1-4.7l0.3,10.4
	c-3.6,2.6-4.2,7-7.3,9.7l-11.4,2.3c-1.4-0.5-2-2-1.4-3.3c3.9-3.1,11.2-0.5,12.6-6.5l3.3-4.1l-2.3-18.9
	C117.5,204.4,123.4,208.9,129.5,213.7L129.5,213.7z M106.6,187.6c23.4,14.8,45.3,33.4,66.2,53.8c2.2,2.3,4.2,4.7,4.1,7.9
	c0.2,6.1-6.9,4.2-9.8,7.3c0,3.3,1.9,7.2-0.5,10c-2.2,2.8-6.2,1.9-9.3,2.3c-2.6,1.1-5.6,3.1-8.9,1.9c-5.5-3.7-2.3-12.2-1.4-17.3
	c-3.1-1.7-7.8-2-9-6.1c-0.9-3.6-0.2-7.2,0.6-10.4c0.8-1.1,2.3-1.3,3.3-0.6c2.2,3-1.1,6.5,0.5,10.1c2.8,2.5,7.6,1.9,9.2,5.8
	c0,5-2.8,9.2-1.2,14.3c3.1,0.5,5.3-2.3,8.6-2.3c1.6,0,4.7,0.9,4.7-1.7c-0.5-2.5-1.6-5.1-0.6-7.6c2.2-3.4,6.1-4.1,9.4-5.3
	c0-3.3-3-5.9-5.6-8.4c-24.6-22.9-50-44.4-78.2-58.4c-3.3-1.2-6.9-3.1-10.6-2.2c-0.5,5,9.8,5.6,4.7,10.1c-4.5-0.5-7.8-5.3-9.3-9.2
	c-0.5-2.2,0.5-4.5,2.6-5.1C87.7,174.9,96.9,182.6,106.6,187.6L106.6,187.6z M184.9,150.9c0.6,0.6,0.6,1.9,0,2.5
	c-3.4,2.5-6.1-1.9-9.2-2.5c-30.4-11.7-51.4,17-78.1,22.9c-2.5,0.2-5.8,2.6-7.8-0.2c-0.3-1.4,0.6-2.8,1.9-2.8
	C123.1,164.8,150.7,128.4,184.9,150.9L184.9,150.9z M104.4,285.6c0-2.2-4.1-3.4-2.3-6.1c0.8-0.8,1.9-0.9,2.8-0.5
	c3,2.3,5.8,5.6,4.5,9.5c-1.2,2.3-4.7,1.7-6.9,1.2c-18.9-5.5-35.5-16.7-56.9-15.4c-0.9-0.6-1.4-2-0.9-3.1c1.6-1.4,3.7-1.1,5.8-1.4
	C70.4,270.3,86.3,280.6,104.4,285.6L104.4,285.6z M107.3,309.3c1.6,3.7,2.3,7.9,2.6,12.2c-0.8,1.4-2.3,1.2-3.4,0.9
	c-2-3-1.4-6.9-3-10c-1.1-5.5-6.9-8.1-11.4-10c-0.5-0.8-0.8-1.9-0.5-2.7c2-2.6,4.4,0,6.4,0.5C101.9,302.3,105.6,305.4,107.3,309.3
	L107.3,309.3z M134.5,258c-1.1,7.8-4.8,14.5-7.8,21.2c5.8-1.1,11.1-4.2,17.1-3.6c0.6,0.8,1.1,2.2,0.3,3c-3.3,1.2-6.9,2-10.4,3
	l-13.4,4.7c-0.9-0.2-1.9-1.1-1.7-2.2c4.4-8.7,10-17.1,12.2-26.8C131.7,256,134,256.4,134.5,258L134.5,258z M186,263.6
	c0.2,5.1-7,1.4-8.4,6.2c-0.5,1.4-0.6,3.4,0.5,4.7c2,1.7,5,2.3,7.6,1.4c4.4-0.5,3.6-11.2,8.4-4.8c-0.5,3.6-2.7,7-6.1,8.6
	c-4.2,1.7-9.4,1.2-12.8-1.6c-2.2-2.5-3.1-5.8-2.2-9c0.8-2.3,2.8-4.7,5.1-5.8C180.4,262.5,184.3,261.3,186,263.6L186,263.6z
	 M225.5,274.1c1.1,0.8,1.4,2.5,0.5,3.4c-2.3,1.6-4.7-0.6-7-0.8c-5.1-1.2-10.1-3.6-15.9-3l-0.6,1.2c0.9,7.8,5.6,14.5,4.7,22.4
	c-0.6,1.9-2.3,3.1-4.2,3.4c-6.7,0.9-10.1-6.9-15.3-9.5c-4.5,6.5-3.1,15.6-8.4,21.8c-1.2,1.4-3.6,1.4-5.3,0.8c-3-2.3-2.8-6.4-3-10.1
	c0-5.6-0.2-11.4-1.3-16.6c-3.3,0.9-5.9,4.4-7.9,7.2c-7.3,10-12.8,20.7-16.7,32c-0.6,1.2-1.9,1.4-3,0.9c-2-0.9-0.8-3.4-0.3-4.8
	c5.6-14.2,12.2-29,25.4-39.1c2.1-1.6,4.6-0.8,5.5,0.3c5.3,7,1.2,17.3,3.6,25.7c4.4-6.4,3.1-15.4,8.1-21.7c1.4-1.1,3.4-1.2,5-0.6
	c4.8,1.7,7.5,8.7,12.8,9.4c1.9-2.5-0.3-5.5-0.6-8.1c-1.9-5.3-5.3-11.5-2.2-17.3c3.4-2.8,8.7-1.7,12.8-0.9L225.5,274.1L225.5,274.1z
	 M8.6,220.4h6.6c0,66.1,53.6,119.7,119.7,119.7c7.2,0,14.3-0.6,21.3-1.9l0,0l1.2,6.5h0c-7.4,1.3-15,2-22.5,2
	c-33.6,0-65.6-13.2-89.3-37C21.8,286,8.6,254.1,8.6,220.4z M17,220.4h1.5c0,32.2,13,61.3,34.1,82.3l0,0
	c21.1,21.1,50.2,34.1,82.4,34.1l0,0c7.1,0,14-0.6,20.8-1.8l0,0l0.3,1.5c-6.8,1.2-13.8,1.9-21,1.9C69.8,338.4,17,285.6,17,220.4
	L17,220.4L17,220.4z M5.3,220.4L5.3,220.4h1.5c0,35.4,14.3,67.4,37.5,90.6l0,0c23.2,23.2,55.2,37.5,90.6,37.5l0,0
	c7.8,0,15.4-0.7,22.8-2l0,0l0.3,1.5c-7.5,1.3-15.2,2-23.1,2l0,0C63.4,350,5.4,292,5.3,220.4L5.3,220.4L5.3,220.4z M251.1,241.1
	L251.1,241.1L251.1,241.1z M249.6,240.9c1.2-6.6,1.8-13.5,1.8-20.4l0,0c0-32.2-13-61.3-34.1-82.4l0,0C196.2,117,167.1,104,135,104
	l0,0v-1.5c65.1,0,118,52.8,118,118l0,0c0,7.1-0.6,14-1.8,20.7l0,0L249.6,240.9L249.6,240.9z M262.6,243.2L262.6,243.2L262.6,243.2z
	 M261.1,242.9c1.3-7.3,2-14.8,2-22.5l0,0c0-35.4-14.3-67.4-37.5-90.6l0,0c-23.2-23.2-55.2-37.5-90.6-37.5l0,0v-1.5
	c71.6,0,129.6,58,129.6,129.6l0,0c0,7.8-0.7,15.3-2,22.7l0,0L261.1,242.9L261.1,242.9z M135,100.7v-6.6h0c33.6,0,65.6,13.2,89.3,37
	c23.8,23.8,37,55.7,37,89.3c0,7.4-0.6,14.9-1.9,22.2v0l-6.5-1.2l0,0c1.2-6.9,1.8-14,1.8-21C254.7,154.3,201.1,100.7,135,100.7
	L135,100.7L135,100.7z"/>
<path class="st1" d="M50,38.4l21.8-11.5L61,48.6l17.7,16.5l-24.4-3L43.3,83.8l-4.3-23.6l-24.4-3.1l21.8-11.5l-4.2-23.6
	C32.3,21.9,50,38.4,50,38.4z M135.2,0l7.3,22.8l24.6,0L147,37l7.2,22.8l-19.7-14.1l-20.1,14.1l7.9-22.8l-19.7-14.1l24.6,0L135.2,0
	L135.2,0z M219,38.2l-21.4-11.4l10.7,22l-17.2,17l23.8-3.4l10.8,22l4-24.1l23.8-3.4l-21.3-11.5l3.9-24.1L219,38.2L219,38.2z"/>
</svg>
