<?xml version="1.0" encoding="UTF-8"?>
<!DOCTYPE svg PUBLIC "-//W3C//DTD SVG 1.1//EN" "http://www.w3.org/Graphics/SVG/1.1/DTD/svg11.dtd">
<!-- Creator: CorelDRAW 2020 (64-Bit) -->
<svg xmlns="http://www.w3.org/2000/svg" xml:space="preserve" width="230mm" height="79.9999mm" version="1.1" style="shape-rendering:geometricPrecision; text-rendering:geometricPrecision; image-rendering:optimizeQuality; fill-rule:evenodd; clip-rule:evenodd"
viewBox="0 0 34311.8 11934.5"
 xmlns:xlink="http://www.w3.org/1999/xlink"
 xmlns:xodm="http://www.corel.com/coreldraw/odm/2003">
 <defs>
  <style type="text/css">
   <![CDATA[
    .fil0 {fill:#C5C6C6}
    .fil1 {fill:white;fill-rule:nonzero}
   ]]>
  </style>
 </defs>
 <rect class="fil0" x="52343.7" y="-41261" width="125312.7" height="116361.8"/>
 <g id="Logo_x0027_s">
  <metadata id="CorelCorpID_0Corel-Layer"/>
  <path class="fil1" d="M11040.1 10035.9c137.2,137.4 205.9,317.5 205.9,497.5 0,214.6 -96,387.5 -205.9,497.2 -209.3,209.3 -494.6,427.2 -867.1,581.2 -313.3,130.2 -656.8,201.9 -1017.1,201.9l-6498 0c-734.1,0 -1398.5,-297.3 -1879.5,-778.2 -480.9,-481.3 -778.4,-1145.5 -778.4,-1879.7l0 -6498.3c0,-734 297.5,-1398.3 778.4,-1879.3 481,-480.9 1145.4,-778.2 1879.5,-778.2l6498 0c360.3,0 703.8,71.6 1017.1,201.5 429.4,178.1 704.3,397.6 969.4,683.8 105.5,113.9 206,282.6 206,497.5 0,179.9 -68.7,360 -206,497.2 -137.2,137.3 -317.5,206.1 -497.3,206.1 -180.2,0 -362.3,-71 -497.6,-206.1 -187.3,-187.5 -290.2,-283.9 -505.1,-374.9 -149.6,-63.5 -314,-98.5 -486.5,-98.5l-6498 0c-345,0 -657.8,140.2 -884.3,366.9 -226.4,226.5 -366.7,539.1 -366.7,884l0 6498.3c0,345.5 140.3,657.7 366.7,884.3 226.6,226.6 539.4,366.9 884.3,366.9l6498 0c172.4,0 336.9,-34.8 486.5,-98.7 134.8,-56.9 275.4,-145.2 402.9,-272.5 135.2,-135.1 317.3,-205.8 497.3,-205.8 179.9,0 360.1,68.4 497.4,205.8zm23271.8 -3973.9l0 -461.9c-0.5,-82 -1.4,-148.3 -2.5,-182.2 -2,-837.5 -316.7,-1563.1 -935.4,-2156.1 -625.5,-598.6 -1382.5,-902.3 -2250.2,-902.4l-0.7 0c-867.4,0.2 -1624.4,303.9 -2249.6,902.4 -619,592.9 -933.5,1318.2 -935.9,2150.6 -4.2,129.4 -4.2,686.3 0,860.1 5.3,846.6 320.4,1574.9 935.9,2165.3l8 6.8c627.5,536.6 1381.7,808.4 2241.6,808.8l1 0c858.9,-0.3 1613.2,-272.2 2241.7,-808.4l8.2 -7.2c615.3,-590.3 929.9,-1319 935.4,-2162 1.1,-48.4 2,-125.2 2.5,-213.8zm-25176.6 3136.7c-25.2,-513.1 -371.8,-1303 -1243.1,-1406.6l-3099.6 0 3571 -3418.9c150.9,-143.9 489.2,-631.5 248.3,-1156.4 -193.6,-421.9 -517.7,-602 -1084,-602l-4448.7 0c18.4,590.2 312.7,1294.8 1094.9,1420.9l2541.9 0 -3756.7 3530.4c-152.4,146.5 -403.1,596.2 -205.3,1052.7 178.6,411.9 479.5,579.9 1038.7,579.9l5342.5 0zm10176.5 -3220.9l0 2619.5c0,969.4 -296.2,1812 -968.7,2484 -604.2,604.3 -1368,853.1 -2206.4,853.1 -1644.5,0 -2491.5,-1270.5 -2491.5,-1270.5 442.2,-442.1 1056.9,-710.4 1659,-349.7 101.3,60.6 404.7,226.3 839.2,226.3 1521.6,0 1769.3,-1360 1769.3,-1764.8 -527,318.8 -1122.3,477.3 -1783.2,477.7l-0.8 0c-859.9,-0.3 -1614,-272.2 -2241.3,-808.8l-8.3 -6.8c-615.6,-590.3 -930.4,-1318.7 -935.8,-2165.3 -4.1,-173.8 -4.1,-730.7 0,-860.1 2,-832.4 316.8,-1557.7 935.8,-2150.6 625.2,-598.6 1382,-902.3 2249.6,-902.4l0.7 0c1152.9,0 1999,570.7 2390.7,1045.4 99.7,120.8 157.7,276.6 157.7,445.2 0,195.5 -78.8,372.5 -207.2,500.6 -128,128.1 -305.1,207.3 -500.8,207.3 -193.4,0 -378.3,-80.9 -496.1,-203.5 -439.1,-456.6 -856.8,-600.6 -1344.5,-600.7 -487.8,0.1 -894.1,162.8 -1242.5,497.2 -346.3,326.5 -509.4,697.6 -514.3,1169.7 -7.6,206.6 -7.6,645.6 -0.3,843.9 3.9,483.8 166.5,860.6 511.9,1191 359.8,328.6 768.2,489.4 1245.4,489.7 477.1,-0.3 885.7,-161.1 1248.6,-492.6 189.4,-181.7 323.6,-378 406.6,-598.8 66.7,-177.5 205.8,-547.3 676.4,-735.1 396.2,-157.9 851,-140.8 851,-140.8zm6646.2 140.8c-470.5,187.8 -609.5,557.7 -676.2,735.1 -83,220.8 -217.6,417.1 -407.1,598.8 -362.3,331.5 -771,492.4 -1248.3,492.6 -477.3,-0.3 -885.2,-161.1 -1245.5,-489.7 -345.4,-330.5 -507.9,-707.2 -511.8,-1191 -7.5,-198.2 -7.5,-637.2 0.3,-843.9 4.8,-472.1 168,-843.3 514.1,-1169.7 348.4,-334.3 755,-497 1242.8,-497.2 487.5,0.1 905.2,144.1 1344.2,600.7 117.9,122.6 303,203.5 496.4,203.5 195.7,0 372.8,-79.2 500.5,-207.3 128.3,-128.1 207.3,-305.1 207.3,-500.6 0,-168.7 -57.8,-324.5 -157.5,-445.2 -391.8,-474.7 -1238,-1045.4 -2390.6,-1045.4l-1 0c-867.4,0.2 -1624.4,303.9 -2249.2,902.4 -619.3,592.9 -934.2,1318.2 -935.7,2150.6 -4.7,129.4 -4.7,686.3 0,860.1 5.1,846.6 320.1,1574.9 935.7,2165.3l7.8 6.8c627.5,536.6 1381.9,808.4 2241.4,808.8l1 0c661,-0.3 1255.8,-158.9 1783.3,-477.7 0,404.7 -247.7,1764.8 -1769.6,1764.8 -434,0 -737.9,-165.7 -839.1,-226.3 -602,-360.8 -1216.8,-92.4 -1658.9,349.7 0,0 846.9,1270.5 2491.5,1270.5 838.4,0 1601.9,-248.8 2206.6,-853.1 672.5,-672.1 968.7,-1514.7 968.7,-2484l0 -2619.5c0,0 -455,-17.1 -851.2,140.8zm5165.4 1826.5c-477.1,-0.3 -885.4,-161.1 -1245.5,-489.7 -345.1,-330.5 -507.9,-707.2 -511.5,-1191 -7.5,-198.2 -7.5,-637.2 0.3,-843.9 4.8,-472.1 167.8,-843.3 514.1,-1169.7 348.3,-334.3 754.7,-497 1242.5,-497.2 487.8,0.1 894,162.8 1244.1,498.6 345.1,325 508.1,696.1 513.4,1172.7 6.5,193.2 9.4,630.4 0,845 -4.3,478.3 -167.1,855.1 -508.9,1182.6 -362.7,331.5 -771.4,492.4 -1248.6,492.6zm-19308.8 -5330.4c-737.6,1.3 -1406.9,619.8 -1406.9,1283.4l0 5300.5c737.6,-1.6 1406.9,-619.9 1406.9,-1283.2l0 -5300.7z"/>
 </g>
</svg>
