<?xml version="1.0" encoding="UTF-8"?>
<!DOCTYPE svg PUBLIC "-//W3C//DTD SVG 1.1//EN" "http://www.w3.org/Graphics/SVG/1.1/DTD/svg11.dtd">
<!-- Creator: CorelDRAW 2020 (64-Bit) -->
<svg xmlns="http://www.w3.org/2000/svg" xml:space="preserve" width="240mm" height="197.092mm" version="1.1" style="shape-rendering:geometricPrecision; text-rendering:geometricPrecision; image-rendering:optimizeQuality; fill-rule:evenodd; clip-rule:evenodd"
viewBox="0 0 37941.9 31158.4"
 xmlns:xlink="http://www.w3.org/1999/xlink"
 xmlns:xodm="http://www.corel.com/coreldraw/odm/2003">
 <defs>
  <style type="text/css">
   <![CDATA[
    .fil0 {fill:#C5C6C6}
    .fil1 {fill:white;fill-rule:nonzero}
   ]]>
  </style>
 </defs>
 <rect class="fil0" x="53601.7" y="-7826.5" width="132796.5" height="123311.1"/>
 <g id="Logo_x0027_s">
  <metadata id="CorelCorpID_0Corel-Layer"/>
  <path class="fil1" d="M1119.8 31068.3l308.2 -1202.8 1548.3 0 300.7 1202.8 1195 0 -1473 -5426.8 -1495.9 0 -1503.2 5426.8 1119.8 0zm27205.8 -17429.6l0 4789.8 -1160.2 0 -1 -310.6c-251.8,169 -533.8,293.4 -828.6,363.2 -599,142.8 -1238,54.7 -1766.2,-228.8 -267.8,-142 -509.2,-333.2 -709.4,-561.6 -200.2,-228 -359,-492.1 -465.6,-776 -326.8,-905.5 -159,-1823.9 468.4,-2555.4 200.6,-227.7 442.5,-418.2 710.4,-560.5 268.1,-142.3 562.1,-235.8 862.7,-273.8 594.4,-77.7 1222.8,67.8 1732.4,413.1l-2.8 -299.5 1160.2 0zm-5492.4 -1548.8l0.4 6338.6 -1160.2 0 -1 -310.6c-251.8,169 -533.8,293.4 -829.1,363.2 -598.5,143.1 -1238,54.7 -1765.7,-228.1 -267.9,-142.7 -509.3,-333.9 -709.6,-561.6 -200.2,-227.9 -359.2,-492.2 -465.9,-776 -326.4,-906.2 -158.6,-1823.8 468.8,-2555.3 200.5,-228.5 442.4,-418.9 710.2,-561.3 268.2,-141.6 562.3,-235.1 862.9,-273.8 594.2,-77.7 1222.7,67.8 1732.4,413.5l0.4 -1848.7 1156.5 0zm-7445.7 0l0.7 6338.6 -1160.1 0 -1.4 -310.6c-251.8,169 -533.8,293.4 -829,363.2 -598.6,143.1 -1238.1,54.7 -1765.8,-228.1 -267.4,-142.7 -509.7,-333.9 -709.5,-561.6 -200.6,-227.9 -359.2,-492.9 -465.6,-776.7 -326.8,-905.5 -158.6,-1823.9 468.4,-2555.4 200.5,-227.7 442.8,-418.2 710.1,-560.5 268.3,-142.3 562,-235.1 862.9,-273.8 594,-77.7 1222.4,67.8 1732.4,413.1l0 -1848.3 1156.9 0zm-5550.3 1548.8l0 4789.8 -1159.5 0 -0.9 -310.6c-252.2,169 -534.6,293.4 -829.9,363.2 -598.1,143.1 -1237.6,54.7 -1766.1,-228.1 -267.5,-142.7 -508.8,-333.9 -709.2,-561.6 -200.5,-227.9 -358.6,-492.9 -465.9,-776.7 -326.4,-905.5 -158.6,-1823.9 468.9,-2555.4 200.9,-227.7 442.4,-418.2 710.5,-560.5 268.3,-142.3 562,-235.1 862.9,-273.8 593.9,-77.7 1222.3,67.8 1732.4,413.1l-2.6 -299.5 1159.5 0zm8032.1 -11264.8l5510.2 9715.3 5386 0 -6856.7 -12089.3 -4039.5 2374zm1257.6 12801.6c-106,139.2 -185.7,297.3 -234.1,465.2 -139.5,513.2 -20.7,1035 402.9,1439 128.7,117.7 279.6,212.4 442.1,276 523.2,195.9 1053.9,99.6 1471.3,-267.8 130.3,-117 238.1,-259.3 316.7,-415.8 255.3,-530.6 179.2,-1061.6 -133,-1490.5 -104.9,-139.8 -236.2,-260 -385.3,-352.1 -148.6,-92.9 -314.7,-157.2 -486.9,-189.6 -498.9,-86 -1007.1,50.5 -1393.7,535.6zm-7446.1 0c-105.2,138.8 -185.3,297.3 -233.6,465.2 -139.5,513.2 -20.6,1035 403.3,1438.7 128.4,117.9 278.8,212.7 441.7,276.2 523.1,195.9 1053.8,99.6 1471.4,-267.8 130.1,-117 237.9,-259.3 316.8,-415.8 254.8,-530.6 178.6,-1061.6 -133.3,-1490.5 -104.9,-139.8 -236.1,-260 -385.3,-353.2 -148.6,-91.7 -314.7,-156.1 -486.4,-188.5 -499.2,-86 -1007.6,50.5 -1394.6,535.6zm-5550.2 0c-106.1,138.8 -185.7,297.3 -234.1,465.2 -139.5,513.2 -20.7,1035 403.3,1438.7 128.7,117.9 279.2,212.7 441.6,276.2 523.6,195.9 1053.8,99.6 1471.5,-267.8 130.5,-117 237.9,-259.3 316.8,-415.8 254.9,-530.6 178.9,-1061.6 -133,-1490.5 -105.2,-139.8 -236.6,-260 -385.2,-353.2 -148.7,-91.7 -314.8,-156.1 -486.9,-188.5 -498.7,-86 -1008,50.5 -1394.1,535.6zm18488.2 -0.7c-105.9,139.4 -185.6,298 -234,465.9 -139.4,512.5 -20.5,1035 403.4,1438.7 128.4,117.9 278.9,212.3 441.6,276.2 523.3,195.2 1053.7,99.6 1471.4,-267.8 130.2,-117.8 237.8,-259.3 316.9,-415.8 255.1,-530.6 178.9,-1062.4 -133.3,-1490.5 -104.9,-139.8 -236.2,-260.7 -385.2,-353.2 -148.6,-91.7 -314.7,-156.1 -486.5,-188.8 -499.3,-85.7 -1007.6,50.8 -1394.3,535.2zm-8577.9 3256.7l1152.7 0 2.4 -4795.9 -1155.1 0 0 4795.9zm14089.2 -1323.4c-19.4,-68.2 -27.7,-139.7 -24.8,-210.5l-1228.4 -1c9.6,205.4 58.3,409.7 143.6,598.5 154.6,370.2 522.8,670.8 835.4,811.9 417.2,186.1 716.6,214.3 1072.3,228 380.2,2.4 762.8,-29.9 1113.9,-121.9 139,-39.2 294.8,-99 436,-183.3 141.2,-84.9 267.9,-194.9 373.1,-322.6 330.4,-409.3 425.8,-903.2 284.4,-1398.3 -46.1,-155.4 -116.2,-300.9 -211.2,-427.5 -94.5,-127.8 -214,-236.9 -348.9,-318.6 -134.7,-82.3 -285.9,-136.7 -457.1,-178.2 -171.4,-42.7 -363.7,-70.7 -598.8,-108.5 -234.8,-37.7 -512.2,-84.3 -672.3,-112.3 -290.5,-51 -258.2,-54.8 -366.2,-91.1 -92.5,-24.1 -268.1,-148.6 -289.5,-278.8 -25.9,-144.4 -34.5,-291.7 183.5,-460.2 122.7,-72.5 276,-101.7 422.1,-122 167.3,-17.1 433.5,-30.2 691.1,125.6 311.3,194.5 336.9,372 354.6,549.1l1181.2 0.6c-9.6,-168.6 -50.2,-340.3 -125.3,-507.1 -58.7,-147.9 -233.3,-392.6 -531.8,-634 -150,-117.5 -318.3,-211 -496.8,-277.5 -317.9,-114.2 -641.2,-150.8 -909,-143.3 -277.4,9.6 -476.9,23.3 -729.1,85.6 -142.5,36.3 -310.8,92.2 -463.4,176.8 -534.6,311.2 -750.8,802.4 -781.7,1228.7 -9.3,153.3 7.1,308.9 49.5,456.4 42.6,147.7 110.5,288.1 180.6,395.2 154.8,229 309.8,325.3 479.4,413.6 91.8,45.2 189.6,78.5 484.4,142.9 295.2,62.6 788.8,157.2 1054.9,208.8 266,50.8 305.5,58.7 344.2,69 101.1,35.6 196.4,35.6 317.8,167.1 121.9,182.4 150,388 -92.9,630 -298.4,188 -837.2,223.6 -1258,55.4 -105.5,-48.4 -218.5,-106.1 -326,-254.6 -40.7,-58.4 -71.6,-123.3 -90.8,-191.7zm-21994.3 -6151.3l642.6 1132.5 5385.2 0 -1988.4 -3506.5 -4039.4 2374zm4883 -4280.3l3070.1 5412.7 -45.3 0 0.8 1032.4 1151.6 -1.1 0 -1031.2 4278.5 0 -4416.4 -7787 -4039.3 2374.3zm23051.4 23670.2c-639,0 -721.6,-601.2 -721.6,-1992 0,-1390.3 82.6,-1991.7 721.6,-1991.7 638.9,0 721.6,601.4 721.6,1991.7 0,1390.8 -82.7,1992 -721.6,1992zm0 811.7c1871.6,0 1871.6,-1382.9 1871.6,-2803.7 0,-1435.5 0,-2803.4 -1871.6,-2803.4 -1871.5,0 -1871.5,1367.8 -1871.5,2803.4 0,1420.7 0,2803.7 1871.5,2803.7zm-5305 -4682.7l503.8 0c360.7,0 578.6,195.4 578.6,714.1 0,345.7 -127.8,796.8 -578.6,796.8l-503.8 0 0 -1510.8zm0 2345l293.1 0c871.9,0 811.9,548.9 811.9,1195.3 0,353.1 -30.1,721.6 120.1,1052.3l1112.5 0c-105.1,-225.5 -127.9,-1247.6 -127.9,-1593.4 0,-977.3 -736.6,-1037.5 -984.6,-1067.5l0 -15c736.6,-120.3 1007.4,-638.9 1007.4,-1330.4 0,-924.5 -496.2,-1420.5 -1270.5,-1420.5l-2096.9 0 0 5426.8 1134.9 0 0 -2247.5zm-6878.2 2247.5l0 -4186.6 15 0 992.2 4186.6 1082.4 0 1044.7 -4186.6 15 0 0 4186.6 1105.1 0 0 -5426.8 -1766.3 0 -902 3690.5 -15.1 0 -849.2 -3690.5 -1826.6 0 0 5426.8 1104.9 0zm-5390.9 0l308 -1202.8 1548.3 0 300.8 1202.8 1195.1 0 -1473.3 -5426.8 -1495.6 0 -1503.3 5426.8 1119.9 0zm1616.1 -2037l-1082.7 0 518.7 -2345.1 15.2 0 548.8 2345.1zm-3828.4 -359.9l728.1 -728 -728.1 -726.1 -726 726.1 726 728zm-4772.7 2396.9l0 -3968.7 15 0 1480.6 3968.7 1495.9 0 0 -5426.8 -1059.9 0 0 3758.1 -15.1 0 -1443 -3758.1 -1533.3 0 0 5426.8 1059.8 0zm-4932.6 -2375.3l661.4 0c571.2,0 751.6,293.1 751.6,774.3 0,759.4 -541.1,766.6 -781.7,766.6l-631.3 0 0 -1540.9zm0 -2217.2l699 0c383.3,0 653.8,293.1 653.8,691.6 0,526 -345.8,691.5 -593.8,691.5l-759 0 0 -1383.1zm871.9 4592.5c480.9,0 1676,-60.1 1676,-1435.4 0,-744.4 -210.3,-1263.1 -1014.6,-1375.7l0 -15.1c616.4,-120.2 924.4,-571.2 924.4,-1194.9 0,-1157.6 -714,-1405.6 -1578.3,-1405.6l-2014.3 0 0 5426.8 2006.9 0zm-4714.7 -2037l-1082.2 0 518.5 -2345.1 15 0 548.7 2345.1z"/>
 </g>
</svg>
