<?xml version="1.0" encoding="utf-8"?>
<!-- Generator: Adobe Illustrator 25.0.1, SVG Export Plug-In . SVG Version: 6.00 Build 0)  -->
<svg version="1.1" id="Layer_1" xmlns:xodm="http://www.corel.com/coreldraw/odm/2003"
	 xmlns="http://www.w3.org/2000/svg" xmlns:xlink="http://www.w3.org/1999/xlink" x="0px" y="0px" viewBox="0 0 283.5 68.2"
	 style="enable-background:new 0 0 283.5 68.2;" xml:space="preserve">
<style type="text/css">
	.st0{fill-rule:evenodd;clip-rule:evenodd;fill:#BAE8D9;}
</style>
<g id="Layer_x0020_1">
	<path class="st0" d="M19.2,14.9C8.3,14.9,0,23.3,0,34.5C0,40,1.9,44.8,5.5,48.5c3.6,3.7,8.4,5.7,13.4,5.7c3.9,0,7.2-0.9,10-2.8
		l0.4-0.3v-6.4l-1.6,1.4c-2.5,2.1-5.4,3.1-8.9,3.1c-7.6,0-13.6-6.4-13.6-14.7c0-8.2,6-14.6,13.6-14.6c3.5,0,6,0.9,8.9,3.2l1.6,1.2
		v-6.4l-0.5-0.3C25.5,15.8,22.6,14.9,19.2,14.9L19.2,14.9L19.2,14.9z M207.4,35.2h-12.7c1.2-4.8,3.3-9.1,6.3-13.3
		C204.3,26.4,206.4,30.7,207.4,35.2z M201.1,14.6l-0.7,0.8c-8.3,9-12,19.7-12,34.6l0.1,3.7l0.7,0l4.2,0v-1c0-4.8,0.2-8.9,0.5-12.2
		h14.5c0.3,2.8,0.5,6.4,0.5,10.9v2.3l4.9,0l0.1-3.9c0-14.8-3.7-25.4-12.1-34.4L201.1,14.6L201.1,14.6L201.1,14.6z M129.9,35.2h-12.7
		c1.2-4.8,3.3-9.1,6.3-13.3C126.7,26.4,128.8,30.7,129.9,35.2L129.9,35.2z M123.5,14.6l-0.7,0.8c-8.3,9-12,19.7-12,34.6l0.1,3.7
		l0.7,0l4.2,0v-1c0-4.9,0.2-8.9,0.5-12.2h14.5c0.3,2.8,0.5,6.4,0.5,10.9v2.3l5,0l0.1-3.9c0-14.8-3.7-25.4-12.1-34.4L123.5,14.6
		L123.5,14.6L123.5,14.6z M176.8,57c-2.8-0.3-5.3-0.9-7.1-1.8c-0.7-0.4-1.2-0.8-1.8-1.2c2.8-0.3,5.3-1.2,7.5-2.7l0.4-0.3v-6.4
		l-1.6,1.4c-2.5,2.1-5.4,3.1-8.9,3.1c-7.7,0-13.6-6.4-13.6-14.7c0-8.2,6-14.6,13.6-14.6c3.5,0,6,0.9,8.9,3.2l1.6,1.2v-6.4l-0.5-0.3
		c-3.3-1.9-6.3-2.7-9.6-2.7c-10.9,0-19.2,8.4-19.2,19.6c0,5.4,1.9,10.3,5.5,13.9c1.2,1.2,2.6,2.3,4,3.1c-0.4,0.2-0.9,0.4-1.4,0.6
		c-2.2,1.1-4.8,3.3-5.4,6.2l-0.1,0.7l0.5-0.5c0,0,2.1-1.9,5.9-1.1c1.4,0.3,3.2,1.3,5.1,2.4c1.9,1.1,4,2.3,6.1,3
		c1.1,0.4,4.3,1.5,6.7,1.5c0.5,0,1-0.1,1.5-0.2c1-0.1,1.1-0.7,1.2-1.2c0-0.2,0-0.3,0.1-0.4c0.2-0.1,1,0.1,1.5,0.2
		c1.1,0.2,1.8,0.3,2.1,0.1c0.1-0.1,0.1-0.1,0.1-0.2c0-0.1,0.1-0.1,0.1-0.2c0-0.3-0.3-0.7-0.9-1.1c-0.1-0.1-0.3-0.3-0.4-0.4
		c0.1-0.1,0.6-0.3,1-0.5c0.8-0.4,1.8-0.9,2.5-1.4c1.1-0.8,2-1.8,2.6-2.6l0.5-0.6l-0.7,0.3C183.4,56.5,180.5,57.4,176.8,57L176.8,57
		L176.8,57z M226.6,41.8c0.9-0.2,1.6-0.6,1.8-1.2l0-0.1l-0.1-0.1c-0.1-0.2,0-0.4,0.2-0.6c0.1-0.2,0.3-0.4,0.2-0.7
		c0-0.2-0.2-0.3-0.3-0.4c0-0.2-0.1-0.3-0.2-0.4c0,0-0.1-0.1-0.1-0.2c0,0,0,0,0.1-0.1l0.1-0.1l-0.1-0.2c-0.1-0.2-0.1-0.5-0.2-0.8
		c-0.1-0.6-0.2-1.1-0.8-1.5c-0.2-0.2-0.3-0.5-0.3-0.8c-0.1-0.3-0.2-0.7-0.5-1l0,0l-0.1,0c-0.2,0-0.4-0.1-0.6-0.2
		c-0.6-0.2-1.2-0.5-1.9-0.1c-2.8,0.9-5.6,2.2-8.5,3.8l-0.1,0.1c-0.5,0.6-0.5,1.4-0.5,2.2l0,0.4v0.1l0.1,0.1c0.2,0.1,0.3,0.4,0.4,0.6
		c0.1,0.4,0.3,0.8,0.7,0.9c0.1,0.1,0.2,0.1,0.3,0.1c0.3,0.1,0.3,0.1,0.3,0.2l-0.1,0.3l0.3,0c0.8-0.1,1.9,0,2.8,0.2l0,0l0,0
		c0.6,0,1.3,0,2.1,0c0.5,0,1,0,1.5,0C224.5,42.5,225.6,42.3,226.6,41.8L226.6,41.8L226.6,41.8z M221.9,24.1c0.4,0.3,0.8,0.5,1.2,0.8
		l0.1,0c0.5,0.2,0.9,0.4,1.4,0.7c1,0.6,2,1.1,3.2,1.1c0.1,0,0.2,0,0.2,0l0.1,0l0.1,0c0.1-0.1,0.3-0.2,0.5-0.2
		c0.3-0.1,0.6-0.2,0.9-0.5l0-0.1l0-0.1c0,0,0,0,0,0c0.3,0,0.5-0.2,0.7-0.4c0.1-0.1,0.2-0.3,0.1-0.5c0.7-0.1,0.8-0.8,0.9-1.3
		c0-0.3,0.1-0.5,0.2-0.7l0-0.1l0-0.1c-0.3-1.2-1.1-2.1-2.3-2.8c-0.8-0.3-1.5-0.7-2.3-1.2c-1.7-1-3.5-2-5.6-1.4
		c-1.3,0.2-1.3,1.1-1.3,1.8c0,0.5,0,1-0.4,1.3l0,0l0,0.1C219.2,22.5,220.6,23.4,221.9,24.1L221.9,24.1L221.9,24.1z M234.6,49.7
		l0.5-0.4h-0.6c-0.2,0-0.2-0.1-0.2-0.1c-0.1-0.1-0.1-0.4-0.1-0.6c0-0.2,0-0.5-0.1-0.6l-0.1-0.1l-0.2,0.1c0,0-0.1,0-0.1,0.1
		c0,0-0.1,0-0.1,0.1l0.1-0.8h-0.7c-0.1-0.1-0.1-0.1-0.2-0.2c-0.2-0.1-0.3-0.2-0.3-0.3l0-0.3l-0.3,0c-1.7,0.2-3.1,1.1-4.1,1.8
		c-1.9,1.5-4.2,3.8-4.9,7l-0.1,0.2c-0.2,0.9-0.5,1.9,0,2.9l0.1,0.1l0.5,0c0.1,0.1,0.1,0.2,0,0.4c-0.1,0.2-0.2,0.5-0.1,0.8l0.1,0.1
		l1.4,0.1c0.1,0,0.1,0.1,0.2,0.1c0.2,0,0.4-0.2,0.5-0.3c0.1-0.1,0.2-0.2,0.2-0.2h0c0,0,0.1,0,0.1,0.1l0.1,0.1l0.2-0.1
		c3.4-2.9,6.2-5.8,8.4-8.7l0.1-0.2l-0.2-0.1c0,0,0-0.1,0-0.1c0-0.1,0-0.2-0.1-0.3C234.6,50,234.6,49.9,234.6,49.7
		C234.6,49.8,234.6,49.8,234.6,49.7L234.6,49.7L234.6,49.7z M236.2,10.6c0.5,1.7,1,3.4,2,4.9l0.1,0.2l0.2-0.1c0,0,0.1,0,0.1,0
		c0.1,0,0.2,0.1,0.4,0c0,0,0,0,0,0c0.2,0.1,0.4,0.1,0.5,0.1c0.2,0,0.2,0,0.3,0.1l0.2,0.3l0.3-0.5c0.2,0.1,0.4,0,0.6,0
		c0.1,0,0.2,0,0.3,0l0.2,0l0-0.2c0-0.1,0-0.2,0-0.2c0,0,0.1,0,0.1,0c0.2,0.1,0.5,0.2,0.7-0.1c0.3,0,0.5-0.2,0.6-0.4
		c0.2-0.2,0.3-0.3,0.4-0.3l0.2,0l0.1-0.2c0.9-2.7-0.1-5.3-1.1-7.7c-0.4-0.9-0.8-1.9-1-2.8l0-0.1c-0.2-0.2-0.3-0.6-0.4-0.9
		c-0.3-0.8-0.7-1.8-1.9-1.7l-0.1,0l0,0c-0.4,0.3-1,0.4-1.6,0.5c-0.6,0.1-1.3,0.2-1.7,0.6l0,0l0,0.1c-0.6,1.5-0.7,3.6-0.1,5.3
		C235.7,8.6,236,9.6,236.2,10.6L236.2,10.6L236.2,10.6z M246.5,55.3L246.5,55.3l-0.6-0.2c-0.4-0.2-0.9-0.4-1.4-0.5l-0.1,0l-0.1,0.1
		c-0.1,0.1-0.2,0.1-0.4,0.1c-0.2,0-0.4,0-0.6,0.1c-0.6-0.2-1.2,0.2-1.6,0.5c-1.9,1.6-2.4,4.5-1.6,8.5c-0.1,0.8,0.3,1.3,0.6,1.8
		c0.4,0.5,0.7,1,0.4,1.6l-0.1,0.1l0.1,0.1c0.7,0.7,1.6,0.8,2.6,0.8l0.3,0l0.4,0l0.1-0.1c0.1-0.1,0.2-0.2,0.3-0.4
		c0.5-0.6,1.1-1.3,1.3-2.2l0.2-2.1C247.1,61.1,247.9,57.8,246.5,55.3L246.5,55.3L246.5,55.3L246.5,55.3z M250.6,12.6
		c0.2,0.1,0.3,0.2,0.4,0.4l0.1,0.2l0.2-0.2c0.1-0.1,0.1-0.1,0.1-0.1c0,0,0.1,0.1,0.1,0.2c0.1,0.2,0.2,0.3,0.3,0.4l0.1,0
		c0.2,0.1,0.4,0,0.6-0.1c0.1,0,0.2-0.1,0.2-0.1c0,0,0,0,0,0.1l0,0.2l0.2,0c0.2,0,0.4,0,0.5,0l0.4,0c0.3,0,0.7,0,1.1-0.1
		c1.6-0.6,2.7-2.3,3.1-3.5l0-0.1c0-0.5,0.2-1,0.3-1.5c0.2-0.7,0.4-1.5,0.4-2.4c-0.1-0.5-0.1-0.9-0.2-1.4c-0.2-1.7-0.4-3.4-1.9-4.5
		c-0.8-0.6-1.5-0.1-2,0.2c-0.3,0.2-0.6,0.4-0.9,0.4l-0.1,0l-0.1,0c-2.2,1.9-2.6,4.8-3.1,7.5c-0.2,1.2-0.4,2.3-0.7,3.3l0,0.1l0,0.1
		C250.1,12.3,250.3,12.4,250.6,12.6L250.6,12.6L250.6,12.6z M265.4,53.6L265.4,53.6c-0.4-0.3-0.7-0.6-0.9-0.8
		c-0.3-0.3-0.6-0.6-1-0.9c-0.9-0.4-1.6,0.1-2.2,0.5c-0.2,0.1-0.4,0.3-0.6,0.4c-0.6,0-0.9,0.4-1.2,0.8c-0.2,0.3-0.5,0.6-0.8,0.6
		l-0.1,0l-0.1,0.1c-1.6,2.3-0.1,4.4,1.2,6.2c0.3,0.5,0.7,0.9,0.9,1.4l0.1,0.1c0.5,0.4,1,0.8,1.4,1.2c0.5,0.4,1,0.9,1.6,1.3l0,0
		l0.6,0.3c0.9,0.4,1.8,0.8,2.9,0.8c0.1,0,0.3,0,0.4,0l0.1,0l0.1-0.1c0.2-0.3,0.4-0.6,0.5-1c0.2-0.3,0.3-0.6,0.3-1
		c0-0.4,0.1-0.7,0.4-1l0.1-0.1l0-0.1C268.3,59.3,267.4,56.2,265.4,53.6L265.4,53.6L265.4,53.6z M264.2,19.9c0.3,0.2,0.5,0.4,0.4,0.7
		l0,0.2l0.2,0c0.1,0,0.2,0,0.3,0c0.1,0,0.1,0,0.1,0c0,0,0,0,0,0c0,0,0,0.1-0.1,0.1c0,0-0.1,0.1-0.1,0.1l-0.1,0.2l1.3,0.7l0.1,0
		c0.3,0,0.5,0,0.7,0c2.7,0,5.2-1.9,7.2-5.7c0.1-0.2,0.2-0.3,0.3-0.5c0.4-0.5,0.8-1,0.7-1.8l0-0.3l-0.3,0.1c-0.1,0-0.1,0-0.2,0
		c-0.1,0-0.1-0.2-0.1-0.3c0-0.1,0-0.2-0.1-0.3l-0.1-0.1c0,0-0.1-0.1-0.1-0.1c-0.1-0.1-0.2-0.3-0.4-0.3c-0.2-0.4-0.6-0.6-1-0.7
		c-0.2-0.1-0.4-0.1-0.6-0.2l-0.1-0.1l-0.1,0c-1.2,0.4-2.3,1.2-3.3,2l-0.5,0.3c-0.6,0.4-1.2,0.9-1.8,1.4c-0.8,0.7-1.6,1.4-2.6,1.7
		l-0.1,0l0,0c-0.4,0.4-0.8,0.9-0.5,1.5C263.5,19.4,263.9,19.7,264.2,19.9L264.2,19.9L264.2,19.9z M281.4,45.9L281.4,45.9
		c-2.5-2.2-5.2-3.8-7.9-4.8l0,0l0,0c-0.4,0-1-0.1-1.5-0.2c-1.1-0.2-2.4-0.4-3.1,0.8c-0.3,0.4-0.3,0.7-0.4,1c0,0.3,0,0.5-0.3,0.8
		l-0.1,0.1l0.1,0.1c0.1,0.2,0.1,0.3,0.2,0.5c0.1,0.4,0.2,0.7,0.5,1c0.3,1.1,1.2,1.7,2,2.4l0.5,0.4l0.1,0l1.1,0.4l1.2,0.4l0,0l0,0
		c1.6-0.1,3.4,0,5.1,0.1l1.8,0.1l0.1,0l0.1-0.1C281.6,48.4,281.7,47.4,281.4,45.9L281.4,45.9L281.4,45.9L281.4,45.9z M283.4,29.8
		L283.4,29.8c-0.1-0.2-0.5-0.8-0.9-0.9c-0.5-0.6-1.2-0.8-1.9-1l-0.2-0.1c-0.2-0.8-0.9-0.7-1.4-0.7c-0.3,0-0.6,0.1-0.8,0l-0.1,0
		l-0.9-0.1c-2.8-0.2-6.3-0.5-7.6,2.4l0,0c-0.4,1.7,0.4,3.8,1.9,5.1c1,0.6,2,0.8,3,0.8c1.7,0,3.4-0.6,5-1.2l0.9-0.3l0.1,0
		c0.2-0.1,0.3-0.2,0.5-0.3C282.1,32.6,283.7,31.6,283.4,29.8L283.4,29.8L283.4,29.8z M263.2,34.5c0,8.4-5.9,14.7-13.8,14.7
		c-7.8,0-13.9-6.4-13.9-14.7c0-8.3,5.9-14.6,13.8-14.6C257,19.9,263.2,26.3,263.2,34.5L263.2,34.5z M264.1,47
		c2.8-3.4,4.2-7.8,4.2-12.5c0-6.1-2.5-11.4-6.9-15.2c-3.5-2.9-7.7-4.5-12.2-4.5c-5.9,0-11.1,2.5-14.8,7.1c-2.8,3.4-4.2,7.7-4.2,12.5
		c0,5.4,1.9,10.2,5.5,13.9c3.6,3.7,8.5,5.7,13.6,5.7C255.3,54.1,260.4,51.7,264.1,47L264.1,47L264.1,47z M86.1,38V21.6
		c3.5,1,6,4.2,6,8c0,2.9-1.4,5.3-4.3,7.5C87.1,37.5,86.6,37.8,86.1,38z M90.6,41.9c4.8-3.9,6.8-7.6,6.8-12.5c0-8-6.6-14-15.3-14
		h-1.3v38h5.3v-8.7c0.5,1.1,1.2,2.3,2.1,3.4c1.9,2.5,4.5,4.4,8.1,5.9l1.4,0.6v-5.8l-0.5-0.3C94.1,47.2,91.8,44.7,90.6,41.9
		L90.6,41.9L90.6,41.9z M59.8,42.1c0,4.4-2,6.8-5.5,6.8c-3.4,0-5.3-2.6-5.3-7V15.5h-5.3V42c0,2.8,0.2,5.4,2.2,7.9
		c2.1,2.8,5.1,4.2,8.5,4.2c6.4,0,10.6-4.7,10.6-12V15.5h-5.2L59.8,42.1L59.8,42.1L59.8,42.1z"/>
</g>
</svg>
