<?xml version="1.0" encoding="UTF-8"?>
<!DOCTYPE svg PUBLIC "-//W3C//DTD SVG 1.1//EN" "http://www.w3.org/Graphics/SVG/1.1/DTD/svg11.dtd">
<!-- Creator: CorelDRAW 2020 (64-Bit) -->
<svg xmlns="http://www.w3.org/2000/svg" xml:space="preserve" width="180mm" height="38.3919mm" version="1.1" style="shape-rendering:geometricPrecision; text-rendering:geometricPrecision; image-rendering:optimizeQuality; fill-rule:evenodd; clip-rule:evenodd"
viewBox="0 0 22819.4 4867.1"
 xmlns:xlink="http://www.w3.org/1999/xlink"
 xmlns:xodm="http://www.corel.com/coreldraw/odm/2003">
 <defs>
  <style type="text/css">
   <![CDATA[
    .fil0 {fill:#C5C6C6}
    .fil1 {fill:white;fill-rule:nonzero}
   ]]>
  </style>
 </defs>
 <rect class="fil0" x="36754.8" y="-60966.7" width="106490.4" height="98883.9"/>
 <g id="Logo_x0027_s">
  <metadata id="CorelCorpID_0Corel-Layer"/>
  <path class="fil1" d="M2174.7 0l-2174.7 4828.8 693.4 0 426.2 -974.8 2711.3 0 426.2 974.8 693.4 0 -2174.7 -4828.8 -601 0zm286.7 824.5l28.9 0 32.8 88.3 616.3 1406 -1328.6 0 618.4 -1406 32.1 -88.3zm-1097.8 2487.6l203.3 -451.3 1816.7 0 203.2 451.3 -2223.2 0zm20236 -607.2c-648.4,-141.9 -622.9,-302.3 -622.9,-445 0,-171.1 193,-387.5 506.6,-387.5 264,0 540.3,131.2 540.3,572.9l632.2 0c22.7,-714.2 -448.3,-1153.9 -1172.5,-1153.9 -642,0 -1164.4,445.9 -1164.4,994.1 0,691.1 550.7,906.4 1145.6,1037 631.2,138.5 684.2,334.9 684.2,473.3 0,264.9 -268.6,490.2 -641.8,490.2 -268.5,0 -677.5,-168.9 -677.5,-676.4l-632.2 0c-38.9,797.3 538.6,1257.5 1309.7,1257.5 733.6,0 1312.4,-471.6 1312.4,-1096.8 0,-708.6 -629.3,-936.2 -1219.7,-1065.4zm-9115.4 -1420.6c-999,0 -1752.4,759.1 -1752.4,1765.8 0,1006.7 753.4,1765.9 1752.4,1765.9 999.1,0 1752.6,-759.1 1752.6,-1765.9 0,-1006.7 -753.4,-1765.8 -1752.6,-1765.8zm0 2899.4c-649,0 -1069,-476.8 -1069,-1133.7 0,-656.8 420,-1146.3 1069,-1146.3 649.2,0 1069.2,489.5 1069.2,1146.3 0,656.9 -420,1133.7 -1069.2,1133.7zm6340.5 645.1l657.8 0 0 -3495.7 -657.8 0 0 3495.7zm-2180.4 -3578.4c-585.6,0 -943.2,250.5 -1100.2,417.6l-32.1 1.7 -38.2 -336.6 -589.2 0 0 3495.7 657.8 0 0 -2200.3c0,-489.4 441.2,-745.8 983.1,-745.8 465.7,0 796.5,232.4 796.5,717.7l0 2228.4 657.8 0 0 -2270c0,-966.1 -680.9,-1308.4 -1335.5,-1308.4zm-7046.9 417.6l-32.1 1.7 -38.2 -336.6 -589.2 0 0 3495.7 657.8 0 0 -2213.1c0,-466.6 358.6,-720.3 830.4,-720.3 102.2,0 122.7,8.2 122.7,8.2l0 -641.1c0,0 -42.3,-12.1 -122.7,-12.1 -201.3,0 -574.3,85 -828.7,417.6zm-2905.2 235.7c468.8,0 777.2,246.7 920.9,654.1l704.1 0c-173,-782.7 -795,-1273.5 -1625,-1273.5 -990,0 -1736.5,771.9 -1736.5,1778.6 0,1006.7 746.5,1753.1 1736.5,1753.1 830,0 1432.1,-513.1 1625,-1273.6l-704 0c-141,389.1 -452.2,654.2 -921,654.2 -650.1,0 -1053.1,-466.2 -1053.1,-1133.6 0,-667.4 402.9,-1159.1 1053.1,-1159.1z"/>
 </g>
</svg>
