<svg xmlns="http://www.w3.org/2000/svg" width="1272.571" height="188.976" viewBox="0 0 49380.2 7332.9"  shape-rendering="geometricPrecision" image-rendering="optimizeQuality" fill-rule="evenodd" xmlns:v="https://vecta.io/nano"><path d="M51021.301-46013.801h234654.094v234654.094H51021.301z" fill="#e6e6e6"/><g fill-rule="nonzero"><path d="M49380.2 4065.5l-773.1 779h-1631.9v2488.4h-490.9l-30.9-43.8h-161.8l-27 43.8h-482.1V0H48607l773.1 775.8v3289.7zM3079.9 7332.9H0V0h3079.9v568.5l-44.2 21.2v174.1l44.2 22.1v568.2H1192.7V2987h1631.9v562.5l-44.1 24.8V3747l44.1 21.3V4346H1192.7v1632.9h1887.2v568.2l-43.8 19.7v176.7l43.8 23.3v566.3zM7850.4 0L6255 3668.9 7850.4 7333h-553.1l-52.8-43.7h-175.4l-10.9 43.7H6523L5240.5 4346v2987h-484.7l-28.8-43.8h-161.6l-29.3 43.8h-488.3V.1h489.4l17.7 43.3h178L4756.1.1h484.4v2987L6523 .1h520.7l10.1 43.4h178.5L7282.6.1h567.8zm4770.7 0l-1595.4 3668.9L12621.1 7333H12068l-52.8-43.7h-175.4l-10.9 43.7h-535.2l-1282.5-2987v2987h-484.7l-28.8-43.8h-161.6l-29.3 43.8h-488.3V.1h489.4l17.7 43.3h178L9526.8.1h484.4v2987L11293.7.1h520.7l10.1 43.4h178.5l50.3-43.4h567.8zm4048.1 7332.9h-3079.9V0h3079.9v568.5l-44.2 21.2v174.1l44.2 22.1v568.2H14782V2987h1631.9v562.5l-44.1 24.8V3747l44.1 21.3V4346H14782v1632.9h1887.2v568.2l-43.8 19.7v176.7l43.8 23.3v566.3zm3924.5 0h-2956.5l.7-7332.9h490.7l27.2 43.1h165.2l26.5-43.1h487.3l-.7 5978.8h1759.6v568.6l-43.8 26.5v162l43.8 30.6v566.6zm4047.9 0h-3079.9V0h3079.9v568.5l-44.2 21.2v174.1l44.2 22.1v568.2h-1887.2V2987h1631.9v562.5l-44.1 24.8V3747l44.1 21.3V4346h-1631.9v1632.9h1887.2v568.2l-43.8 19.7v176.7l43.8 23.3v566.3zm3458.6 0L26798.1 3492v3840.9h-491.2l-37.7-44.1h-144.3l-35.3 44.1h-480.1V0h1278.3l1307.7 3845.7V0h467.5l34.8 42.9h148.2l34.8-42.9h498.9v7323.4l4.2 9.6H28100zM34154.8 0l-1595.4 3668.9L34154.8 7333h-553.1l-52.8-43.7h-175.4l-10.9 43.7h-535.2l-1282.5-2987v2987h-484.7l-28.8-43.8h-161.6l-29.3 43.8h-488.3V.1h489.4l17.7 43.3h178l23.2-43.3h484.4v2987L32827.4.1h520.7l10.1 43.4h178.5L33587 .1h567.8zm4010.3 7332.9L37877.5 5700h-1250.2l-287.7 1632.9h-525.7l-22.1-43.9-174.3-.8-26.5 44.6h-468L36413.9-.1h1676.8l1290.9 7332.9h-495.4l-37.6-44-163-.2-21.8 44.2h-498.7zm-526.2-2987l-385.8-2193.7-387.3 2193.7h773.1zm7175.6 2987h-497.4l-19.8-43.5h-176.7l-22 43.5h-481V3202l-1039.7 2520.2L41542.4 3202v4130.9h-491.3l-32.5-43.7h-155.4l-32.1 43.7h-481.4V0h1192.7l1035.5 2520.2L43617.6 0h1196.9v7332.9zm3373-3840.9V1354.1h-1212.3V3492h1212.3z" fill="#bae8d9"/><path d="M46264.2 7332.9V567.3h2626.3v3703.6h-2406.3v3062h-220zM2824.5 3769.1H703.9v2777.6h2376v220h-2596V567.3h2596v220h-2376v2761.8h2120.6v220zM4755.8 0v3556.5h752.5L7043.2 0h239.4l-1583 3667.7 1597.9 3665.2h-239.3L5507.7 3776.4h-752v3556.5h-220V0h220zm4770.7 0v3556.5h752.5L11813.9 0h239.4l-1583 3667.7 1597.9 3665.2h-239.3l-1550.5-3556.5h-752v3556.5h-220V0h220zm6887.3 3769.1h-2120.6v2777.6h2376v220h-2596V567.3h2596v220h-2376v2761.8h2120.6v220zM18347.5 0v6546.7h2246.1v220h-2466.1V0h220zm6038.7 3769.1h-2120.6v2777.6h2376v220h-2596V567.3h2596v220h-2376v2761.8h2120.6v220zm1702.3 3563.8l-5.5-6765.6h421L28667.3 6517l-5.8-6517h219.1l6.1 6766.7h-362L26350.6 787.3h-48.3l5.3 6545.6h-219.1zM31060.2 0v3556.5h752.5L33347.6 0h239.4l-1583 3667.7 1597.9 3665.2h-239.3l-1550.5-3556.5h-752v3556.5h-220V0h220zm4530.5 7332.9l1187.6-6765.6h946.5L38886.3 7333h-222.9l-378.9-2206.9h-2083.3L35813.8 7333h-223.2zM38246.8 4906l-707.1-4118.8h-576.8l-723 4118.8h2006.9zm5850.9 2426.9V787.3h-20.8l-1508.2 3663.1-1493.3-3663.1h-24.3v6545.6h-220V567.3h391.9l1347 3304.1 1360.4-3304.1h387.3v6765.6h-220zm2386.5-6545.6v3263.6h2186.3V787.3h-2186.3z" fill="#121c4d"/></g><defs /></svg>