<svg xmlns="http://www.w3.org/2000/svg" width="666.24" height="188.976" viewBox="0 0 14570.3 4132.8"  shape-rendering="geometricPrecision" image-rendering="optimizeQuality" fill-rule="evenodd" xmlns:v="https://vecta.io/nano"><path d="M-154264-46911.301h132249.797V85338.496H-154264z" fill="#e6e6e6"/><g fill-rule="nonzero"><path d="M14570.3 4132.8h-289.7l-30.7-24.6h-86.6l-7.8 24.6h-305.6l-571.7-1683.5h-199.3v1683.5h-274.6l-16.1-24.5h-91.9l-15.8 24.5h-276.1V0h1614.8l428.6 434.6V1952l-458.7 486.6 581.2 1694.2zM2008.7 763.2h-667.4v3369.6h-278.2l-14.1-24.6h-97l-12.3 24.6H667.5V763.2H.1V443.3l24.1-13.7v-95.3L.1 319.9V-.1h2008.7v319.8l-24.3 11.9v95.8l24.3 15.2V763zm1888.1 3369.6l-162.1-920.3h-704.6L2868 4132.8h-296.3l-12.5-24.7-98.2-.4-14.9 25.2h-263.8L2909.8.1h945l727.5 4132.8h-279.2l-21.2-24.8-91.9-.1-12.3 24.9h-281.1zm-296.6-1683.5L3382.7 1213l-218.3 1236.3h435.7zM6161 2610v1522.8h-273.4l-19.1-24.5h-89l-15.8 24.5h-283.6V2604.7L4673.5 0h270.3l24.1 24.5h93.3L5074.7 0h289.2l458.7 1538.9L6274.2 0h303l9 24.9h95.5L6704.9 0h283.4l-827.2 2610zm3039.1 1522.8H7533.9L7534.3 0h276.6l15.3 24.3h93.1l15-24.3h274.6l-.4 3369.6h991.7V3690l-24.7 14.9v91.3l24.7 17.2v319.3zm2658.6-431l-433.4 431h-1251.1l-428.6-431V434.5L10174.2-.1h1251.1l433.4 434.6v3267.3zm-674.6-332.2V763.1h-766.3v2606.5h766.3zm1894.7-1686.2h697.5v-923h-697.5v923z" fill="#bae8d9"/><path d="M12680.3 4132.8V319.7h1492.1v1808.7h-570.3l678.7 2004.4h-125.5l-683.9-2004.4h-667v2004.4h-124zM0 319.7h2008.7v124h-945.8l.2 3689.1H939.6l-.2-3689.1H0v-124zm2445.9 3813.1l669.3-3813.1h533.4l654.6 3813.1h-125.6L3964.1 2889H2790l-218.3 1243.8h-125.8zm1497-1367.8L3544.4 443.7h-325.1L2811.8 2765h1131.1zm1820.8 1367.8V2606.5L4943.9 0h130.6l751.2 2390.9L6576.9 0h127.9l-817.2 2606.5v1526.3h-124zM7934.2 0v3689.7h1265.9v124H7810.2V0h124zm3646.7 319.7v3493.9h-1566.1V319.7h1566.1zm-124 124h-1318.1v3246h1318.1v-3246zm1347.4 0v1560.7h1244.1V443.7h-1244.1z" fill="#121c4d"/></g><defs /></svg>