<svg xmlns="http://www.w3.org/2000/svg" width="835.695" height="188.976" viewBox="0 0 22924.7 5184"  shape-rendering="geometricPrecision" image-rendering="optimizeQuality" fill-rule="evenodd" xmlns:v="https://vecta.io/nano"><path d="M-193500.797-67614.398h165887.406V98273.008h-165887.406z" fill="#e6e6e6"/><g fill-rule="nonzero"><path d="M22924.7 5184h-363.3l-38.5-30.9h-108.7l-9.8 30.9H22021l-717.2-2111.7h-250V5184h-344.4l-20.2-30.8h-115.3l-19.9 30.8h-346.4V0h2025.6l537.6 545.1v1903.3l-575.3 610.4 729.1 2125.2zM2453.1 4643.4L1909.5 5184H540.6L0 4643.4v-835.7h337l23.3 31.6H470l23.3-31.6h349.9v419H1610V0h343.9l20.3 30.8H2087L2109.7 0h343.5v4643.4zm684.3-288.9h829.4v829.4h-829.4v-829.4zM8052 957.2h-837.2v4226.7h-348.9l-17.7-30.9h-121.6l-15.5 30.9h-341.4V957.2h-837.2V556l30.2-17.2V419.3l-30.2-18V-.1H8052v401.2l-30.4 15v120.2l30.4 19.1v401.9zm1530.5 4226.7h-348l-15.7-30.9h-123.2l-16.7 30.9h-342.6V-.1h342.3l15 30.8h126.1l14.4-30.8h348.4v5184zm3840.7 0h-351.6l-14-30.7h-124.9l-15.6 30.7h-340V2263.6l-735 1781.7-732.1-1781.7v2920.3h-347.3l-23-30.9h-109.9l-22.7 30.9h-340.3V-.1h843.2l732.1 1781.7 735-1781.7h846.1v5184zm1527.5-3072.3h866V957.2h-866v1154.4zm0 2115h866V3072.2h-866v1154.4zm1711.1 416.7l-540.6 540.6h-2013.7V-.1h2013.7l540.6 545.1v1593.6l-325.4 448.2 325.4 459.5v1597zm2861.7 540.6h-2177.3V-.1h2177.3v401.9l-31.2 15v123.1l31.2 15.6v401.7h-1334.2v1154.4h1153.6v397.6l-31.2 17.5v122.1l31.2 15v408.4h-1153.6v1154.4h1334.2v401.7l-30.9 13.9v124.9l30.9 16.5v400.3zM21054 2111.6h874.9V953.9H21054v1157.7z" fill="#bae8d9"/><path d="M20554 5184V401.1h1871.6v2268.7h-715.4l851.3 2514.2H22404l-857.9-2514.2h-836.6V5184H20554zM492.1 3807.8v820.4h1461.7V0h155.5v4783.7H336.6v-975.9h155.5zm2982.3 883.8h155.5v155.5h-155.5v-155.5zM5532.5 401.2H8052v155.5H6865.7l.3 4627.4h-154.9l-.3-4627.4H5532.5V401.2zM9234.1.1v5184h-155.5V.1h155.5zm3682.4 5184V556.7h-14.7l-1066.2 2589.6-1055.7-2589.6h-17.2v4627.4h-155.5V401.2h277.1l952.2 2335.8 961.7-2335.8h273.8v4782.9h-155.5zm1612.7-4782.9h1788.2v1738l-396.8 448 396.8 456.2v1740.4h-1865.9V401.2h77.8zm77.8 2108h1175.7l379.2-428V556.8H14607v1952.5zm1175 155.5h-1175v1963.6h1554.9V3101.5l-379.9-436.8zm3561.1 0h-1499.2v1963.6h1679.7v155.5h-1835.2V401.2h1835.2v155.5h-1679.7v1952.5h1499.2v155.5zm1366.6-2108v1957.7h1560.5V556.7h-1560.5z" fill="#121c4d"/></g><defs /></svg>