<svg xmlns="http://www.w3.org/2000/svg" width="194.997" height="396.85" viewBox="0 0 629.7 1281.6"  shape-rendering="geometricPrecision" image-rendering="optimizeQuality" fill-rule="evenodd" xmlns:v="https://vecta.io/nano"><path d="M16031.9-8046h19528.9v18308.4H16031.9z" fill="#ebecec"/><g fill-rule="nonzero"><path d="M629.7 625.1L492.9 759.5H208.1v285.4h421.6v236.7H0V656l134.2-134h287.7V236.7H210.3V333H0V133.9L134.2 0h362.1l133.4 133.9z" fill="#bae8d9"/><g fill="#121c4d"><path d="M97.6 333V110.4H533v536.8H112v508.3h130.2v14.5H97.5V632.7h421V124.9H112V333H97.5zm289.8 822.5h242.3v14.5H387.4v-14.5zm-22.9 30.5l-.7-.6.9.1-.2.5zm1.7-.2l1.5.1.5-1.7-6.6-.7-.6 1.6 4.9 4.6.2-.6.5-1.3-1-.8.5-1.2zm-6.8 5.6h0c.2-.3.5-.6.9-.6s.8.2 1.1.4c.7.4 1.2 1 .7 1.8l-2.7-1.6zm-2.2.7l5.4 3.3 1-1.6c.4-.7.7-1.5.5-2.4s-.8-1.5-1.6-2c-.6-.4-1.2-.6-1.9-.6-1.1 0-1.9.7-2.5 1.6l-.9 1.7zm-1.6 4.5h0c.1-.1.2-.3.3-.3s.2.1.3.1c.3.2.2.4 0 .6l-.6-.4zm2.4-.4c0-.5-.2-1.1-.7-1.4-.4-.3-.8-.5-1.2-.5-.7 0-1.2.4-1.6.9l-1.3 1.8 5 4 .3-.4.8-1.2-1.6-1.4h.2l2.1.8 1-1.6-2.5-.9c-.1 0-.3-.1-.4-.1zm-29.8 20.5v-1l.5.8-.5.2zm1.2 1.2l.9 1.3 1.7-.7-3.7-5.5-1.6.6-.3 6.7.6-.1 1.3-.5v-1.3l1.3-.4zm22.2-16.9l1.4-1.5-1.2-1-2.5 2.7 4.4 4.5 2.7-2.9-1.2-.9-1.3 1.4-.6-.6 1.3-1.5-1.3-1-1.1 1.3zm-5.2 4.5l3 3.8.4-.3 1.1-1-3-3.6 1-.9-1.1-1.1-3.3 2.7 1.1 1.2zm-2.6 5.7c-.4.3-.9.3-1.3.5l-.2.2.7 1.3h.2c.5 0 1-.3 1.4-.5.5-.3 1-.8 1.1-1.5.1-.5 0-1.1-.3-1.6-.5-.8-1.1-.9-2-.9h-1c-.1 0-.2 0-.3-.1v-.1c0-.1.2-.2.2-.2.3-.2.7-.3 1-.5l.3-.2-1-1.2-.2.1c-.4.1-.8.2-1.2.5-.5.3-.9.8-1.1 1.4a2.2 2.2 0 0 0 .2 1.4c.5.7 1.1 1 1.9 1l1-.1c.2 0 .3 0 .4.1s.1.2.1.3-.1.2-.2.2zm-7.5 2.4l-2.4-2.7-2.1 1.1 2.6 5.8.4-.1 1.2-.8-1.1-2.3 2 2.1 1.2-.6-.4-3 1.2 2.7 1.6-.9-2.7-5.7-2.1 1zm31.1-35.7l-3.6.1-.5 2.3 6 1.7.2-.4.3-1.4-2.6-.7 2.9-.1.3-1.3-2.5-1.6 2.9.7.3-1.7-6.1-1.7-.6 2.3zm-95-82.4l1.8 10.3 4.7-9.5 10.6 1.3-7.7-7.2 4.7-9.4-9.4 5-7.7-7.2 1.8 10.3-9.4 5zM366 1165c0-28.1-22.8-51-50.9-51.3v1.7c27.2.3 49.2 22.4 49.2 49.6 0 2.6-.2 5.1-.6 7.7l1.7.4c.4-2.7.7-5.4.7-8.1zm-51-54.3v1.8h.4a52.06 52.06 0 0 1 36.9 15.3c9.8 9.8 15.3 22.9 15.3 36.8 0 1.5-.1 3-.2 4.5-.1 1.4-.3 2.7-.5 4.1v.2l1.7.4v-.2c.2-1.4.4-2.8.5-4.1.1-1.6.2-3.2.2-4.8 0-14.3-5.7-27.9-15.8-38.1-10.2-10.1-23.8-15.8-38.2-15.8h-.4zm56.2 53.5c0 3.2-.3 6.4-.8 9.6v.3l1.7.4.1-.4c.6-3.3.9-6.6.9-9.9 0-31-25.4-56.3-56.5-56.3h-1.4v1.7h1.4c30.2 0 54.8 24.5 54.8 54.6zm-105 .9h-1.7c.3 28.3 23.7 51 52.1 50.7 2.5 0 5-.3 7.5-.6l-.3-1.7a43.44 43.44 0 0 1-7.1.6c-27.4.3-50-21.7-50.3-49zm58.2 53.3h.2l-.4-1.8h-.2l-4.1.5-4.6.2c-13.9 0-27.1-5.6-36.9-15.4-9.7-9.8-15.3-22.8-15.5-36.6v-.2h-1.8v.2c.2 14.2 6 27.8 16 37.9 10.1 10.2 23.7 16 38.1 16 3 0 6.1-.2 9.1-.7zm.8 2.8l-.3-1.7-.5.1a53.33 53.33 0 0 1-9.8.9c-30.3 0-54.8-25.4-54.8-55.3h0-1.7c0 30.9 25.3 57.1 56.5 57.1 3.4 0 6.8-.3 10.1-.9l.5-.1zm28.9-73.7c0-9.6-4.6-16-13-18.4l-.2 9.6c0 .3.1.6.4.7 0 0 2.2 1.5 3.4 3.2 1.1 1.7 1.4 3.6 1.4 3.6.1.5.5.8 1 .7.4-.1.8-.4.8-.9v-.1a10.53 10.53 0 0 0-1.7-4.4c-1-1.5-2.7-2.8-3.4-3.4l.1-6.7c6.3 2.6 9.6 8 9.6 16 0 11.4-7 19.4-17.1 19.4-9.1 0-12.3-7.6-14.3-12.6l-.7-1.6c-.7-1.5-1.7-2.6-3-3-2.5-.9-5.3.4-6.4.9-.4.2-.6.7-.4 1.1s.7.6 1.2.4c.9-.4 3.2-1.5 5-.8.9.3 1.5 1 2 2.1l.7 1.6c2.1 5.1 5.6 13.7 15.9 13.7 11.1 0 18.9-8.7 18.9-21.2zm-89.4 5.1l-4.7-3.1 5.6-.1-.9 3.3zm4.8 3.3l-2.5-1.8 1.4-4.9 3.1-.2 1.1-3.8-14.5 1.4-1.2 4.3 11.7 8.6 1-3.5zm6.6-13.6c-.1.7-.5 1.9-.9 2.5l3-.4.9-1.3c1.8-2.6.8-4.9-1.5-6.6l-10.6-7.2-2.1 2.9 9.7 6.6c1.8 1.3 1.7 2.4 1.5 3.4z"/><path d="M281.6 1118.7l4.4 3.3-2.8 2-1.7-5.3zm3.3 10.9l-.8-3 4.1-3 2.5 1.7 3.2-2.3-12.2-7.9-3.6 2.6 3.8 14 3-2.1zm15-16l-2.6 8 4-1 1.3-5.4 3.8 4.2 4.2-1-5.9-5.9 2.3-7.2-3.9.9-1.2 4.9-3.3-3.8-4.1 1zm3.9 29.2c2-.9 5.3-2.6 8.2-4.3 3.2-1.8 5.9-3.2 7.9-3.9 2.2-.8 4.7-1.6 7.6-1.4 3.1.2 4.1.6 5.2 1 1.2.5 3.1 1.6 3.1 1.6.4.2 1 .1 1.2-.3.3-.4.1-.9-.3-1.2-.1 0-2-1.2-3.3-1.7-1.4-.6-2.6-1-5.8-1.2-3.3-.2-6 .7-8.3 1.5-2.6.9-5.9 2.7-8.1 4l-8 4.2c-2.2 1-5.5 2-6.1 2-.5 0-.9.4-.9.9s.4.9.9.9c1.2 0 5.1-1.4 6.9-2.2zm-1.1 24.8l-2.8.5c-.4.1-.8.5-.8 1 .1.5.6.7 1 .7l2.9-.5c1.2-.2 2.2-1 2.9-2.1.2-.4 1.1-1.6 1.7-2.3.1-.1.2-.3.2-.5v-.1l-.3-4.4 3.1 2.3-.6 1.6c-.1.3-.3.8-.3 1.3 0 .6.3 1.3 1 1.8l.9.6c.2.1.3.4.3.6v2c0 .6.2 1.4.3 2 .1.4.1.9.2 1.2-.1.2-.4.6-.6.9-.7 1-1.7 2.3-2.3 3.6l-.7 1.5c-.4.8-.8 1.9-1 2-.3.2-1.9.5-2.9.7l-1.7.3c-.9.2-2.1.7-3.1 1.1-.4.2-.9.4-1.1.4s-1-.3-1.5-.4c-.7-.2-1.5-.5-2.2-.6-.6-.1-.7-.1-.7-.5v-.4c0-.9-.8-1.9-2.4-3-.7-.5-1.9-1.6-2-2.6v-.1c0-.8.8-1.7 1.4-2.4l.5-.6a1.92 1.92 0 0 0 .4-1.2v-.2c.8 0 1.7.1 1.7.1.5 0 .9-.3.9-.8s-.3-.9-.8-.9l-3.1-.2c-.4 0-.7.2-.8.5l-.1.4c0 .2.1.4.2.6 0 0 .3.3.3.5l-.1.2-.5.5c-.8.9-1.9 2.1-1.9 3.5v.3c.2 2.1 2.5 3.7 2.8 3.9 1.6 1 1.6 1.5 1.6 1.5v.4c0 1 .4 1.9 2.2 2.3.6.1 1.3.3 1.9.6 1.2.4 1.9.6 2.4.5.3-.1.7-.2 1.4-.5.9-.4 2-.8 2.8-1l1.6-.3c1.8-.3 2.9-.6 3.5-.9.7-.4 1.1-1.4 1.8-2.8l.7-1.5c.5-1.1 1.5-2.3 2.1-3.3.7-1 .9-1.2 1-1.6v-.3c0-.3-.1-.7-.2-1.6-.1-.6-.2-1.4-.2-1.9v-1.9c0-.8-.1-1.4-.6-1.7 0 0-.4-.3-.9-.6s-.8-.8-.4-1.6c.1-.3.5-1.4.8-2l.1-.3c0-.3-.1-.5-.4-.7l-4.5-3.3-2.3-1.7.5 7.8c-.4.5-1.3 1.8-1.6 2.3-.4.7-.9 1.1-1.7 1.2z"/><path d="M330.4 1179.3l.6-.2c1-.3 2.1-.7 2.3-2.1s-1.3-3-4.3-6c-2.3-2.3-7-6.3-12.2-10.6-5.1-4.1-14.2-10.2-17.8-12.2-3.9-2.2-6.6-2.7-8.2-2.7-1 0-1.6.5-1.8.8-.5.8-.2 1.9.1 2.6.5 1 2.1 2.1 2.5 2.5.4.3 1 .2 1.2-.2.1-.2.2-.3.2-.5 0-.3-.1-.5-.4-.7-.8-.6-1.8-1.4-2-1.8s-.2-.7-.2-.8v-.1h.3c1.4 0 3.8.4 7.4 2.5 3.6 2 12.5 8 17.5 12.1 5.2 4.2 9.9 8.2 12.1 10.5 1.5 1.5 3.8 3.8 3.8 4.5h0c0 .3 0 .3-1.1.7l-.6.2c-1.8.6-2.6 1.5-2.6 2.6 0 .3.1.8.2 1.2.1.3.3 1 .3 1.4v.2c-.3.4-.9.4-1.8.4-.5 0-.9 0-1.4.1-.3.1-.6.3-1 .5-.5.3-1.3.7-1.6.5s-.5-.7-.5-1.3c0-.4.1-.9.2-1.5l.3-1.3c.2-.8.4-1.4.4-1.9 0-.2 0-.4-.1-.6-.2-.5-.7-.7-2-1.1-.6-.2-1.6-.6-1.8-.8s-.3-.7-.3-1.3v-.5c.1-.5.3-1.8.4-2.2v-.2c0-.4-.3-.7-.7-.8-.5-.1-.9.2-1 .6 0 .2-.4 1.7-.5 2.4v.7c0 .8.2 1.8.7 2.4.4.5 1.2.8 2.6 1.3.3.1.7.2.9.4 0 .3-.2.8-.3 1.2l-.3 1.4a8.16 8.16 0 0 0-.2 1.8c0 .9.2 2 1.1 2.7 1.2 1 2.7.1 3.6-.3.3-.1.5-.3.7-.3h.8c1 0 2.4.1 3.3-1.1.6-.8.3-2 0-3-.1-.3-.2-.7-.2-.8s.3-.5 1.5-.9zm-38.9-12.3c-.5-.1-.9.3-1 .7-.1.5.2.9.7 1 3.5.6 4.2.5 4.7.3h.1c.7-.1.9-.5 1-.7l.1-.4c0-.6-.4-1.1-.8-1.6l-.1-.1c-.1-.2-.4-1.2-.4-2.2 0-.4 0-.7.1-1.1.3-1.1.4-2.1.5-3 0-.3.1-.7.1-1 .3 0 .5.1.8.2.7.2 1.4.4 2 .3 1-.2 1.2-1.2 1.2-2.2v-1.4c0-1.8-2.5-1.9-3.9-1.9h-.4c-.2 0-.4-.1-.5-.2.3-.4.9-1 1.5-1.6.2-.2.3-.4.3-.6s-.1-.4-.2-.6c-.3-.3-.9-.4-1.2 0-2.1 2.1-2.1 2.7-2.1 2.9 0 1.1 1.1 1.7 2.2 1.8h.5c1.4.1 2 .2 2.2.3v1.7c-.3-.1-.6-.2-.9-.2-.9-.3-1.6-.5-2.2-.2-.7.4-.8 1.2-.9 2.4l-.4 2.7c-.1.5-.2 1-.2 1.5 0 1.3.3 2.7.8 3.2l.2.2c-.4 0-1.3 0-3.5-.4zm.8-11.9c-.4-.2-.9-.1-1.2.3l-2 3.4c-.5.7-2.3 4.4-2.3 5.2 0 .7.3 1.2 4.5 1.9.5.1.9-.2 1-.7v-.1c0-.4-.3-.8-.7-.9-1-.1-2.2-.4-2.9-.6.4-1 1.4-3.1 1.9-3.8l2.1-3.5.1-.4c0-.3-.2-.6-.5-.8zm43.1 35.4c1.2.1 3.5-.4 4.2-1.4.5-.7 1-2.2 1-2.4.1-.5-.1-.9-.6-1.1-.5-.1-.9.1-1.1.6s-.5 1.5-.8 1.9c-.3.3-1.8.8-2.5.7-.5-.1-1.5-.4-2-1-.3-.4-.4-.9-.2-1.6.4-1.9 2.6-1.9 2.8-1.9.5 0 .9-.3.9-.8s-.3-.9-.8-.9c-1.4-.1-4.1.5-4.6 3.3-.2 1.1-.1 2.1.5 2.9.8 1.1 2.1 1.6 3.2 1.8zm9.7 8.3c.9-.5 1.2-1.5 1.2-2.8 0-.8-.1-1.7-.4-2.4-1.2-3.4-1.5-5-1.5-5.6 0-.3.1-.4.1-.5.6-.6 1.7-.5 3.9.1 2.3.6 5 1.6 5 1.6.5.2 1-.1 1.1-.5.1-.5-.1-1-.5-1.1-.1 0-2.8-1-5.2-1.6-2.2-.6-4.4-1-5.7.4-.9 1-.6 3.2 1 7.9.6 1.7.3 2.9 0 3.1-.3.1-1.3-.2-2.1-1.1h0c-2.5-2.6-3.8-3.3-4.9-2.9-1.2.5-2.2 3.8-2.6 5.7-.7 3.1-1.3 4-1.5 4.2-.3-.6-.5-2.4-.5-4.2v-1.3c0-1-.1-5.6-1.6-6.1-1.6-.6-4.1 2-4.1 2-.5.6-3.2 3.6-5.3 7.4-1.9 3.6-3.6 8.2-3.6 8.3-.2.5.1 1 .5 1.1.5.2 1-.1 1.1-.5 0 0 1.7-4.6 3.6-8.1 2-3.8 4.7-6.8 5-7.1.6-.6 1.6-1.3 2.1-1.5.3.7.6 2.8.6 4.2v1.6c0 1.8.2 4.6 1.1 5.6.3.3.7.4 1.1.4 1.9-.1 2.7-2.8 3.3-5.6.5-2.3 1.2-4 1.6-4.4.3.1 1 .5 3 2.4h0c1.1 1.3 2.9 2.2 4.2 1.5zm-43.3 2.1c-1.7-1.8-4.1-2.5-4.1-2.5-.5-.1-1 .2-1.1.6-.1.5.1.9.6 1.1 0 0 2 .6 3.3 2 .7.8 1.4 2.3 1.7 3.3.2.8.3 2.6.3 2.6 0 .5.5.8.9.8.5 0 .9-.4.8-.9 0-.1-.1-1.9-.3-2.8-.3-1.2-1.1-3.1-2.1-4.1zm17.4-12.1c-.1-.5-.5-.7-.9-.6l-4.7 1.2-2.6.9 2.7-5c1-2 1.2-4.1 1.2-4.1v-.1c0-.4-.3-.8-.8-.9-.5 0-.9.3-1 .8 0 0-.2 1.8-1 3.6-.9 1.9-3.8 6.9-3.8 7-.2.3-.2.7.1 1 .2.3.6.4 1 .2l4.7-1.7 4.6-1.1c.5-.1.6-.6.5-1.1zm-42.4-2.7c-.5.1-.8.5-.8 1 .1.5.5.8 1 .8 0 0 3.1-.3 6 .4 3.2.7 7.6 2.2 9.7 3.1l.3.1c8.1 3.3 9.9 3.5 10.6 2.6 1.4-1.6-.7-3.5-1.4-4.1-.4-.3-.9-.3-1.2 0-.1.2-.2.4-.2.6s.1.5.3.6c1 1 1.3 1.4 1.3 1.6-.6 0-2.6-.4-8.7-2.9l-.4-.1c-2.1-.9-6.7-2.5-9.9-3.2-3.3-.7-6.5-.4-6.6-.4zm28.1-90.8l8.7-6.1 8.5 6.1-3.1-9.9 8.7-6.2H317l-3.1-9.9-3.5 9.9h-10.6l8.5 6.2zm43.4 1.1l4.7 9.6 1.7-10.5 10.3-1.5-9.2-5 1.7-10.5-7.4 7.4-9.3-5 4.7 9.6-7.5 7.4z"/></g></g><defs /></svg>