<svg xmlns="http://www.w3.org/2000/svg" width="199.015" height="396.85" viewBox="0 0 1237 2466.7"  shape-rendering="geometricPrecision" image-rendering="optimizeQuality" fill-rule="evenodd" xmlns:v="https://vecta.io/nano"><path d="M7533.9-15486.3h37588v35238.801h-37588z" fill="#ebecec"/><g fill-rule="nonzero"><path d="M1237 273.3L675.3 2466.7H255.4L795.5 455.5H400.6v185.4H0V0h1118.3z" fill="#121c4d"/><g fill="#bae8d9"><path d="M624.2 2282.7l-1.4-1.2 1.7.2-.3 1zm3.3-.3l2.9.3 1-3.3-12.7-1.3-1.2 3 9.5 8.9.5-1.1.9-2.5-1.9-1.5 1-2.4zm-13.2 10.7h0c.4-.7 1-1.2 1.8-1.2.7 0 1.5.3 2.1.7 1.4.8 2.3 1.9 1.4 3.5l-5.3-3zm-4.3 1.4l10.4 6.4 1.9-3.1c.8-1.4 1.3-2.9.9-4.5-.4-1.7-1.6-2.9-3.1-3.8-1.1-.7-2.4-1.2-3.7-1.2-2.1 0-3.7 1.3-4.7 3.1l-1.7 3.2zm-2.9 8.7l.1-.1c.1-.1.5-.6.6-.6.2 0 .4.2.5.3.5.4.4.8 0 1.2l-1.2-.9zm4.7-.7c0-1-.5-2.1-1.3-2.7-.7-.5-1.5-.9-2.3-.9-1.3 0-2.3.8-3.1 1.8l-2.4 3.4 9.5 7.6.5-.7 1.5-2.3-3.1-2.8c.1 0 .2 0 .3.1l4.1 1.5 1.9-3-4.8-1.7c-.3-.1-.6-.2-.9-.2zm-57.5 39.3v-1.8l1 1.5-.9.4zm2.3 2.3l1.7 2.4 3.2-1.3-7.2-10.6-3.1 1.1-.7 12.9 1.1-.3 2.6-.9-.1-2.5 2.4-.8zm42.8-32.4l2.6-3-2.4-1.8-4.8 5.1 8.6 8.7 5.2-5.5-2.4-1.9-2.4 2.7-1.3-1.2 2.5-2.7-2.4-2-2.2 2.5zm-10 8.5l5.8 7.3.6-.4 2.1-2-5.8-6.9 2-1.9-2.2-2.1-6.3 5.4 2.2 2.1zm-5 11.1c-.8.5-1.8.6-2.4 1l-.4.3 1.4 2.4h.5c1 0 2-.5 2.8-1 1-.7 1.9-1.6 2.2-2.8.3-1.1 0-2.1-.6-3-.9-1.5-2.1-1.8-3.8-1.8-.6 0-1.3.1-1.9.1-.3 0-.4 0-.6-.3 0-.1-.1-.2-.1-.3 0-.2.3-.4.4-.4.6-.4 1.4-.6 2-1l.6-.4-1.8-2.4-.4.1c-.8.2-1.5.5-2.2.9-1 .6-1.8 1.6-2 2.8-.2.9 0 1.9.5 2.7.9 1.4 2.1 1.9 3.7 1.9l1.8-.1c.3 0 .5 0 .7.2.1.2.2.4.1.6 0 .2-.2.4-.4.5zm-14.5 4.6l-4.7-5.1-4 2.1 4.9 11.1.8-.3 2.5-1.5-2.3-4.5 3.8 4.2 2.4-1.3-.8-5.7 2.5 5.2 2.9-1.7-5.1-11-4 2zm59.8-68.8l-7 .2-.9 4.4 11.6 3.4.3-.7.6-2.9-5-1.2 5.7-.2.5-2.7-4.8-3 5.5 1.5.7-3.4-11.9-3.2-1 4.4zm-182.9-158.6l3.5 19.8 9.1-18.2 20.3 2.5-14.7-13.8 9-18.2-18.1 9.6-14.7-13.8 3.4 19.8-18.1 9.7zM627 2242.3c0-54-43.8-98.1-98-98.7v3.3c52.4.6 94.7 43.2 94.7 95.4 0 5-.4 9.9-1.2 14.8l3.3.7c.8-5.1 1.3-10.3 1.3-15.5zm-98.1-104.4v3.4h.7c26.7 0 52.2 10.6 71.1 29.4s29.5 44.2 29.5 70.8c0 2.9-.1 5.8-.4 8.7-.2 2.6-.6 5.2-1 7.9l-.1.4 3.4.7.1-.5c.5-2.6.8-5.3 1-8 .3-3.1.4-6.1.4-9.2 0-27.6-10.9-53.8-30.5-73.2-19.6-19.5-45.8-30.4-73.5-30.4h-.7zm108.2 102.9c0 6.2-.5 12.4-1.6 18.4l-.1.6 3.3.7.1-.8c1.1-6.3 1.7-12.6 1.7-19 0-59.7-48.8-108.4-108.8-108.4H529v3.3h2.7c58.2 0 105.5 47.1 105.5 105.1zm-202.2 1.7h-3.3c.6 54.4 45.6 98.2 100.2 97.6 4.8-.1 9.6-.5 14.4-1.2l-.6-3.2c-4.6.7-9.2 1.1-13.8 1.2-52.8.6-96.2-41.7-96.8-94.3zM547 2345.1l.4-.1-.7-3.4-.4.1-7.9 1c-2.9.3-5.9.4-8.8.4-26.8 0-52.1-10.8-70.9-29.7-18.7-18.8-29.5-44-29.8-70.5v-.4h-3.5v.5c.3 27.4 11.5 53.5 30.8 72.9 19.5 19.5 45.7 30.7 73.4 30.7 5.8 0 11.7-.5 17.4-1.4zm1.5 5.3l-.6-3.2-.9.2c-6.2 1.1-12.5 1.7-18.8 1.7-58.3 0-105.4-48.8-105.5-106.5h0-3.3c0 59.5 48.6 109.8 108.8 109.8 6.5 0 13-.6 19.4-1.7l1-.1z"/><path d="M604 2208.6c0-18.6-8.8-30.7-25.1-35.5l-.4 18.4a1.75 1.75 0 0 0 .7 1.4s4.3 2.9 6.5 6.2c2.2 3.2 2.7 7 2.7 7 .1.9 1 1.5 1.9 1.4s1.5-.8 1.5-1.6v-.2c0-.2-.6-4.6-3.3-8.4-2-2.9-5.2-5.4-6.6-6.5 0-1.2.2-9 .2-12.9 12.1 5.1 18.4 15.4 18.4 30.8 0 22-13.5 37.4-32.9 37.4-17.6 0-23.6-14.6-27.6-24.2l-1.3-3.2c-1.3-2.9-3.3-4.9-5.8-5.9-4.8-1.8-10.2.7-12.3 1.6-.8.4-1.2 1.4-.8 2.2s1.4 1.2 2.2.8c1.7-.8 6.2-2.9 9.7-1.5 1.7.6 3 1.9 3.9 4.1l1.3 3.1c4.1 9.8 10.9 26.3 30.7 26.3 21.4 0 36.3-16.8 36.3-40.7zm-172 9.8l-9-6 10.7-.3-1.8 6.3zm9.1 6.3l-4.8-3.5 2.6-9.4 5.9-.4 2.1-7.3-27.9 2.7-2.3 8.2 22.5 16.5 1.9-6.8zm12.9-26.2c-.2 1.3-1 3.7-1.8 4.9l5.8-.8 1.7-2.5c3.5-5.1 1.6-9.5-3-12.7l-20.4-13.9-4 5.7 18.7 12.7c3.5 2.5 3.3 4.6 2.9 6.6zm10.5-45.3l8.5 6.4-5.3 3.8-3.3-10.2h.1zm6.4 20.9l-1.6-5.7 8-5.7 4.8 3.4 6.2-4.5-23.5-15.2-6.9 5 7.3 26.9 5.7-4.1zm28.9-30.6l-5 15.3 7.7-1.9 2.6-10.5 7.2 8.1 8.1-2-11.5-11.3 4.5-13.8-7.4 1.8-2.3 9.4-6.3-7.3-7.9 2zm7.5 56.1c3.8-1.7 10.3-5.1 15.8-8.2 6.1-3.5 11.3-6.1 15.1-7.5 4.3-1.5 9-3 14.6-2.7 5.9.3 7.8 1.1 10 2 2.3.9 5.9 3.1 5.9 3.1.8.5 1.8.2 2.3-.6s.2-1.8-.6-2.3c-.2-.1-3.8-2.3-6.4-3.3-2.7-1.1-5.1-1.9-11.1-2.3-6.3-.3-11.5 1.3-15.9 2.9-5.1 1.8-11.3 5.2-15.7 7.7-5.4 3.1-11.7 6.5-15.4 8.1-4.2 1.8-10.6 3.9-11.8 3.9-.9 0-1.7.7-1.7 1.6s.7 1.7 1.7 1.7c2.3 0 9.9-2.7 13.2-4.2zm-2.2 47.7l-5.4 1c-.8.1-1.6 1-1.4 1.9s1.1 1.4 2 1.4l5.5-1c2.4-.5 4.3-1.9 5.5-4.1.4-.7 2.2-3.1 3.2-4.5a1.69 1.69 0 0 0 .3-1v-.1l-.6-8.4 6 4.4-1.2 3.1c-.2.6-.5 1.5-.5 2.5 0 1.1.6 2.6 1.9 3.5 0 0 1.1.8 1.7 1.1.5.2.5.8.5 1.2v3.9l.5 3.9.3 2.3c-.2.4-.8 1.1-1.2 1.7-1.4 1.9-3.3 4.4-4.4 6.9l-1.3 2.9c-.7 1.6-1.6 3.6-2 3.9-.6.4-3.7 1-5.5 1.3l-3.3.7c-1.8.4-4.1 1.3-6 2.1-.8.3-1.8.8-2.2.8-.5 0-1.9-.5-2.9-.8l-4.2-1.2c-1.2-.2-1.4-.2-1.4-.9v-.9c0-1.8-1.5-3.7-4.6-5.7-1.4-.9-3.7-3.1-3.8-4.9v-.2c0-1.5 1.5-3.2 2.7-4.6l1-1.2c.6-.8.9-1.6.9-2.4l-.1-.4 3.2.2c1 .1 1.7-.6 1.8-1.6.1-.9-.7-1.7-1.6-1.8l-6-.4c-.7 0-1.3.3-1.6 1l-.2.7c0 .4.2.9.5 1.2.1.1.5.5.5 1l-.2.4-.9 1.1c-1.5 1.7-3.6 4-3.6 6.8v.5c.3 4 4.8 7.1 5.3 7.4 3 2 3.1 2.9 3.1 2.9v.7c0 2 .7 3.7 4.2 4.4 1.1.2 2.5.6 3.7 1.1 2.3.7 3.6 1.1 4.6.9.6-.1 1.4-.5 2.8-1 1.8-.7 3.9-1.6 5.4-1.9l3.1-.6c3.5-.6 5.7-1.1 6.7-1.7 1.4-.8 2.2-2.6 3.4-5.5l1.3-2.8c1-2.1 2.8-4.5 4.1-6.3s1.7-2.4 1.9-3.1v-.5c0-.6-.1-1.4-.4-3l-.5-3.6v-2.2c0-.6.1-1.1.1-1.5 0-1.6-.2-2.7-1.2-3.4l-1.7-1.1c-.9-.6-1.4-1.5-.8-3l1.5-3.9.2-.7c0-.5-.2-1-.7-1.3l-8.6-6.3-4.3-3.2 1.1 15-3.1 4.4c-.7 1.3-1.8 2.1-3.2 2.4zm53.4 22.6l1.1-.4c1.9-.6 4.1-1.3 4.4-4.1.4-2.8-2.6-5.9-8.3-11.5-4.4-4.4-13.4-12.2-23.6-20.4-9.8-7.9-27.3-19.6-34.2-23.5-7.5-4.3-12.7-5.2-15.8-5.2-2 0-3 .9-3.5 1.6-1 1.6-.4 3.6.2 5 .9 1.9 4 4.1 4.9 4.8.8.5 1.8.3 2.4-.4a1.69 1.69 0 0 0 .3-1 1.75 1.75 0 0 0-.7-1.4c-1.6-1.1-3.5-2.7-3.8-3.4-.3-.8-.5-1.3-.5-1.6v-.1c.1 0 .2-.1.6-.1 2.7 0 7.3.8 14.2 4.7s24 15.4 33.8 23.2c10 8.1 19 15.8 23.3 20.2 3 2.9 7.4 7.3 7.4 8.7v.1c-.1.6-.1.7-2 1.3l-1.2.4c-3.4 1.2-5.1 2.8-5.1 4.9 0 .7.2 1.5.4 2.4.2.7.5 2 .5 2.7l-.1.4c-.5.8-1.8.8-3.4.7-1 0-1.8 0-2.6.2-.6.2-1.2.5-1.9.9-1 .6-2.5 1.4-3.1 1-.6-.5-.9-1.3-.9-2.5 0-.8.1-1.7.4-2.8l.6-2.6c.4-1.6.7-2.7.7-3.6 0-.5-.1-.8-.3-1.2-.4-.9-1.4-1.3-3.8-2.1-1.1-.4-3.1-1.1-3.5-1.5s-.6-1.4-.6-2.5v-1.1c.1-1 .6-3.4.8-4.2l.1-.4c0-.8-.5-1.4-1.3-1.6-.9-.2-1.8.3-2 1.2-.1.3-.8 3.2-.9 4.7 0 .4-.1.9-.1 1.4 0 1.6.3 3.4 1.3 4.7.8 1 2.4 1.6 4.9 2.5l1.8.7c-.1.6-.3 1.5-.5 2.3l-.7 2.7c-.2.8-.5 2-.5 3.5 0 1.8.5 3.8 2.1 5.2 2.3 1.9 5.2.3 6.9-.7.5-.2 1-.5 1.3-.6s1-.1 1.5 0c1.9 0 4.7.1 6.3-2.2 1.1-1.6.5-3.8 0-5.8-.1-.6-.3-1.3-.3-1.6 0-.2.5-.9 2.8-1.7z"/><path d="M483.5 2246.2c-.9-.2-1.8.5-1.9 1.4s.5 1.8 1.4 1.9c6.7 1.1 8 .9 9.1.5h.1c1.3-.2 1.8-1 1.9-1.4l.2-.8c0-1.1-.8-2.1-1.5-3l-.2-.2c-.3-.4-.8-2.3-.8-4.2 0-.7.1-1.4.2-2 .5-2.2.7-4.1.9-5.7.1-.6.2-1.3.2-1.9.5.1 1.1.3 1.5.4 1.4.4 2.7.9 3.8.7 2-.4 2.3-2.3 2.3-4.2v-1.4l-.1-1.3c0-3.4-4.8-3.6-7.5-3.8h-.7l-1-.3c.5-.7 1.7-2 2.9-3.1.3-.3.5-.8.5-1.2s-.2-.8-.5-1.2c-.6-.7-1.7-.7-2.4 0-4.1 4-4.1 5.1-4.1 5.6 0 2 2.2 3.3 4.2 3.5l.9.1c2.8.1 3.9.4 4.3.6v3.3c-.5-.1-1.2-.3-1.7-.5-1.8-.5-3.2-1-4.3-.4-1.4.7-1.5 2.3-1.8 4.7-.1 1.5-.3 3.3-.8 5.3a13.33 13.33 0 0 0-.3 2.8c0 2.5.6 5.1 1.5 6.2l.3.5c-.8 0-2.5-.1-6.8-.8zm1.7-23c-.8-.5-1.8-.2-2.3.6l-3.9 6.5c-.9 1.3-4.5 8.4-4.5 10 0 1.4.6 2.4 8.7 3.6.9.1 1.8-.5 1.9-1.4v-.2c0-.8-.6-1.5-1.4-1.7-2-.3-4.3-.7-5.5-1.1.8-2 2.7-6.1 3.6-7.2 1.2-1.7 4-6.6 4.1-6.8l.2-.8c0-.6-.3-1.2-.9-1.5zm83 68.1c2.2.3 6.7-.7 8.1-2.7 1-1.4 1.9-4.2 2-4.5.3-.9-.2-1.8-1.1-2.1s-1.8.2-2.1 1.1c-.3 1-1 2.9-1.5 3.6-.5.6-3.4 1.5-4.9 1.3-1-.1-2.9-.7-3.8-2-.6-.8-.7-1.8-.4-3 .8-3.7 5-3.6 5.4-3.6 1 .1 1.8-.7 1.8-1.6.1-.9-.7-1.7-1.6-1.8-2.6-.2-7.8 1-8.9 6.3-.5 2.2-.1 4.1 1 5.7 1.5 2.1 4.1 3.1 6.1 3.4zm18.5 16.1c1.7-.9 2.4-3 2.4-5.3 0-1.5-.3-3.2-.8-4.7-2.4-6.6-2.9-9.6-2.9-10.9 0-.6.1-.8.2-.9 1.1-1.1 3.3-1.1 7.6.1 4.4 1.2 9.7 3 9.7 3.1.9.3 1.8-.2 2.2-1 .3-.9-.2-1.8-1-2.1-.3-.1-5.5-1.9-9.9-3.1-4.2-1.2-8.4-1.9-11 .8-1.8 1.9-1.2 6.2 2 15.2 1.2 3.2.5 5.6.1 5.9-.6.3-2.5-.4-4-2.1h-.1c-4.8-4.9-7.3-6.4-9.4-5.6-2.4.9-4.2 7.3-5 10.9-1.4 6-2.4 7.6-3 8.1-.6-1.1-1-4.6-1-8.1 0-.7 0-1.4.1-2.1v-.4c0-1.9-.2-10.7-3.1-11.8-3.1-1.1-7.9 3.9-7.9 3.9-1 1.1-6.1 6.8-10.2 14.3-3.7 7-6.9 15.7-7 16-.3.9.1 1.8 1 2.2.9.3 1.8-.2 2.2-1 0-.1 3.2-8.9 6.8-15.6 3.9-7.3 9.1-13 9.7-13.6 1.2-1.2 3.1-2.5 4.1-2.9.5 1.4 1.1 5.4 1.1 8v3.1c0 3.4.3 8.9 2.1 10.7.6.6 1.3.8 2 .8 3.7-.2 5.2-5.4 6.4-10.8 1-4.4 2.3-7.6 3-8.5.5.1 2 .9 5.7 4.7l-.1-.1c2.1 2.4 5.6 4.2 8.2 2.9zm-83.2 4c-3.3-3.5-7.8-4.8-8-4.8-.9-.2-1.9.3-2.1 1.2s.3 1.8 1.2 2c.1 0 3.8 1.1 6.4 3.9 1.4 1.5 2.8 4.5 3.2 6.4.3 1.6.6 4.9.6 4.9.1.9.9 1.6 1.8 1.6 1 0 1.7-.9 1.6-1.8 0-.1-.3-3.6-.7-5.4-.5-2.3-2.1-5.9-4-8zm33.4-23.3c-.2-.9-.9-1.4-1.8-1.2l-9 2.2c-1.1.3-3.1 1-5 1.7 1.8-3.2 4.1-7.4 5.2-9.6 1.8-3.9 2.2-7.8 2.3-7.9v-.2c0-.8-.6-1.6-1.5-1.7s-1.7.6-1.8 1.5c0 0-.4 3.5-2 6.9-1.7 3.6-7.3 13.4-7.4 13.5-.4.6-.3 1.4.2 1.9s1.2.7 1.9.5c.1 0 6.8-2.7 9-3.3l8.9-2.2c.9-.3 1.2-1.1 1-2zm-81.6-5.2c-.9.1-1.6.9-1.5 1.8s.9 1.6 1.9 1.5c.1 0 5.9-.6 11.6.7 6.1 1.4 14.5 4.3 18.6 6l.7.3c15.5 6.4 19 6.7 20.5 4.9 2.7-3.1-1.3-6.8-2.6-8-.7-.6-1.8-.6-2.4.1-.3.3-.5.7-.5 1.2s.2.9.6 1.2c2 1.8 2.4 2.7 2.4 3.1-1.2 0-5-.8-16.7-5.6l-.7-.3c-4.1-1.7-12.8-4.7-19.1-6.1s-12.4-.8-12.7-.8zm54.1-174.7l16.8-11.8 16.3 11.8-6-19.2 16.7-11.8h-20.4l-6.1-19.2-6.6 19.2h-20.4L516 2089zm83.6 2.1l9 18.4 3.3-20.1 19.8-2.9-17.7-9.7 3.2-20.2-14.3 14.2-17.7-9.6 8.9 18.5-14.3 14.2zM189.4 639.2V212.3h874.2L588.9 2042.2h-29.3l468-1802H217.4v398.9h-27.9zm315 1728.8l-25.6 98.7h-29.5l25.6-98.7h29.5z"/></g></g><defs /></svg>