<svg xmlns="http://www.w3.org/2000/svg" width="809.904" height="188.976" viewBox="0 0 21531.5 5024"  shape-rendering="geometricPrecision" image-rendering="optimizeQuality" fill-rule="evenodd" xmlns:v="https://vecta.io/nano"><path d="M-187528.797-82035.5h160767.594V78732.094h-160767.594z" fill="#e6e6e6"/><g fill-rule="nonzero"><path d="M20525.9 3172.9V5024h-332.4l-23.2-29.8h-108.1l-19.2 29.8h-344.8V3166.3L18717.6 0h328.6l29.3 29.8h113.4l16.4-29.8h351.5l557.6 1870.8L20663.3 0h368.3l11 30.3h116.1l28.2-30.3h344.5l-1005.6 3172.9zM817.1 2046.5h839.2V927.8H817.1v1118.7zm0 2049.8h839.2V2977.5H817.1v1118.8zm1658.3 403.8L1951.5 5024H0V0h1951.5l523.9 528.3v1544.4l-315.3 434.4 315.3 445.3v1547.7zM5771.7 5024h-352.1l-37.3-29.9H5277l-9.5 29.9H4896l-695-2046.5h-242.3V5024h-333.8l-19.6-29.8h-111.7l-19.3 29.8h-335.7V0h1963.1l521 528.3v1844.6l-557.6 591.6 706.6 2059.6zM3958.6 2046.5h847.9v-1122h-847.9v1122zm5045.1 2453.6L8476.9 5024H6956.1l-521-523.9V528.3L6956.1 0h1520.8l526.8 528.3v3971.8zm-820-403.8V927.8h-931.5v3168.5h931.5zm2300.4-2049.8h839.2V927.8h-839.2v1118.7zm0 2049.8h839.2V2977.5h-839.2v1118.8zm1658.3 403.8l-523.9 523.9H9667V0h1951.5l523.9 528.3v1544.4l-315.3 434.4 315.3 445.3v1547.7zm1480.3-2453.6h839.2V927.8h-839.2v1118.7zm0 2049.8h839.2V2977.5h-839.2v1118.8zm1658.3 403.8l-523.9 523.9h-1951.5V0h1951.5l523.9 528.3v1544.4l-315.3 434.4 315.3 445.3v1547.7zm2773.3 523.9h-2110.1V0h2110.1v389.5L18024 404v119.3l30.3 15.2v389.3h-1293v1118.7h1118v385.3l-30.2 17v118.3l30.2 14.6v395.8h-1118v1118.8h1293v389.3l-30 13.5v121l30 16v388z" fill="#bae8d9"/><path d="M20042.9 5024V3168.6L19046.3 0h158.8l913.2 2906.5L21031.5 0h155.5l-993.4 3168.6V5024h-150.7zM408.5 388.7h1733v1684.4l-384.6 434.2 384.6 442.1v1686.7H333.2V388.7h75.4zm75.4 2042.9h1139.4l367.5-414.8V539.4H483.9v1892.2zm1138.7 150.7H483.9v1903h1506.9V3005.6l-368.2-423.3zM3474.2 5024V388.7H5288v2198.7h-693.3L5419.8 5024h-152.6l-831.4-2436.6H3625V5024h-150.7zm150.7-4484.6v1897.2h1512.4V539.4H3624.9zM8666 388.7v4247.4H6762.2V388.7H8666zm-150.7 150.7H6912.9v3945.9h1602.4V539.4zm1560.2-150.7h1733v1684.4l-384.6 434.2 384.6 442.1v1686.7h-1808.3V388.7h75.4zm75.4 2042.9h1139.4l367.5-414.8V539.4h-1506.9v1892.2zm1138.7 150.7h-1138.7v1903h1506.9V3005.6l-368.2-423.3zm1924.6-2193.7h1733V2073l-384.6 434.2 384.6 442.1V4636h-1808.3V388.6h75.4zm75.4 2042.9H14429l367.5-414.8V539.3h-1506.9v1892.2zm1138.7 150.7h-1138.7v1903h1506.9V3005.5l-368.2-423.3zm3451.2 0h-1452.9v1903h1627.9v150.7h-1778.6V388.5h1778.6v150.7h-1627.9v1892.2h1452.9v150.7z" fill="#121c4d"/></g><defs /></svg>