<svg xmlns="http://www.w3.org/2000/svg" width="787.843" height="257.62" viewBox="0 0 19952.1 6524.2"  shape-rendering="geometricPrecision" image-rendering="optimizeQuality" fill-rule="evenodd" xmlns:v="https://vecta.io/nano"><path d="M27650.5-3970.8h153146.203v153146.203H27650.5z" fill="#e6e6e6"/><g fill-rule="nonzero"><path d="M19952.1 6524.2h-2240v-399.3l1250-3505.9h-1142.9v-367.4l29.2-24.2v-96.9l-29.2-22.7v-369.5h2125.5v481.4l-1218 3420.7H19952v371.1l-28.3 17v105.9l28.3 19.7v370zM1796 0L600.5 800.8l108 187.1 31.2-3 55.6 96.3-15.3 30.5 107.6 186.4 1291.3-635-155.6-269.5-33.4-.5-54.3-94 15.9-29.8L1796-.1zm189.4 6524.2l-187.7-1065.7H981.8L794.1 6524.2H451l-14.4-28.6-113.8-.5-17.3 29.1H.1l842.5-4785.8h1094.3l842.5 4785.8h-323.3l-24.6-28.7-106.4-.1-14.2 28.8h-325.5zM1642 4574.7L1390.2 3143l-252.8 1431.7H1642zm3698.7 1949.5H3411.2l.4-4785.8h320.2l17.7 28.1h107.8l17.3-28.1h318l-.4 3902.1h1148.4v371.1l-28.6 17.3v105.7l28.6 19.9v369.8zm1590.5-2025.4l274.7-1404.7 267.4-1355.8h319.9l10.2 28.4h115.1l20.6-28.4h331l-939.6 4785.8H6531l-941.4-4785.8h341.1l23.7 28.6h107l14-28.6H6389l264.6 1357.9 277.5 1402.6zm3573.2 2025.4l-187.7-1065.7h-815.9l-187.7 1065.7H8970l-14.4-28.6-113.8-.5-17.3 29.1h-305.4l842.5-4785.8h1094.3l842.5 4785.8h-323.3l-24.6-28.7-106.4-.1-14.2 28.8h-325.5zM10161 4574.7L9909.2 3143l-252.8 1431.7h504.6zm4277.5 1949.5h-335.4l-35.6-28.5h-100.3l-9 28.5h-353.9l-662.1-1949.5h-230.8v1949.5h-317.9l-18.7-28.4h-106.4l-18.3 28.4h-319.8V1738.4h1870l496.3 503.2v1757.1l-531.1 563.5 673.1 1961.9zm-1727.1-2836.4h807.7V2619h-807.7v1068.8zm4369.1 2836.4h-2010.1V1738.4h2010.1v371l-28.8 13.8v113.6l28.8 14.4v370.9h-1231.7v1065.7h1065v367.1l-28.8 16.2v112.7l28.8 13.9v377h-1065v1065.7h1231.7v370.8l-28.6 12.8v115.3l28.6 15.2v369.6z" fill="#bae8d9"/><path d="M17819.3 2108.7h1835.1l-1452.1 3902.4h1749.8v143.6h-1955.9l1452.1-3902.4h-1629.1v-143.6zM2023 393.6L779.6 1111.5l-71.2-124 1243.4-717.9 71.2 124zM305.2 6524.3l775.1-4415.6H1698l758.1 4415.6h-145.5L2063.3 5084H703.7L450.9 6524.3H305.2zm1733.5-1583.9l-461.5-2688.1h-376.4L728.9 4940.4h1309.8zm1836-3201.9v4272.7h1465.9v143.6H3731.1V1738.5h143.6zm2200.9 0l852 4239.2 865.6-4239.2h145.6l-901.3 4416.3h-220.1l-887.8-4416.3h146.1zm2748.7 4785.8l775.1-4415.6h617.7l758.1 4415.6h-145.5L10582.4 5084H9222.8L8970 6524.3h-145.7zm1733.5-1583.9l-461.5-2688.1h-376.4L9248 4940.4h1309.8zm1692.1 1583.9V2108.7h1727.8v2094.4h-660.5l785.9 2321.1h-145.4l-792-2321.1h-772.4v2321.1h-143.6zm143.6-4272v1807.3h1440.7V2252.3h-1440.7zm4520.3 1946.1h-1384v1812.8h1550.7v143.6h-1694.3v-4046h1694.3v143.6h-1550.7v1802.5h1384v143.6z" fill="#121c4d"/></g><defs /></svg>