<svg xmlns="http://www.w3.org/2000/svg" width="661.576" height="188.976" viewBox="0 0 15466.7 4418"  shape-rendering="geometricPrecision" image-rendering="optimizeQuality" fill-rule="evenodd" xmlns:v="https://vecta.io/nano"><path d="M16831.5-42673.199h141375.906V98702.707H16831.5z" fill="#e6e6e6"/><g fill-rule="nonzero"><path d="M15466.7 4418h-309.6l-32.8-26.3h-92.6l-8.4 26.3h-326.7l-611.2-1799.6h-213V4418h-293.5l-17.2-26.2h-98.2l-16.9 26.2h-295.2V0h1726.3l458.2 464.5v1622.1l-490.3 520.2L15467 4418zm-13215.4 0H1956l-13.3-27.6h-106.4l-12.2 27.6h-290.6V2618.4H718.6V4418H421.5l-11-26.2H301.7l-12.2 26.2H0V0h289.3l10.6 26.3H411L421.8 0h296.8v1799.6h814.9V0h290.2l11 26.4h107.8L1955.8 0h295.4v4418zm2416 0L4494 3434.2h-753.2L3567.5 4418h-316.7l-13.3-26.4-105-.5-15.9 26.9h-281.9L3612.5 0h1010.2l777.7 4418H5102l-22.7-26.5-98.2-.1-13.1 26.6h-300.5zm-317-1799.6l-232.5-1321.7-233.3 1321.7h465.8zM7764.7 4418H5983.5l.4-4418h295.6l16.4 26h99.5l16-26H6705l-.4 3602.2h1060.1v342.5l-26.4 15.9v97.6l26.4 18.4V4418zm2364.4 0H8347.9l.4-4418h295.6l16.4 26h99.5l16-26h293.6l-.4 3602.2h1060.1v342.5l-26.4 15.9v97.6l26.4 18.4V4418zm2438.8 0h-1855.6V0h1855.6v342.5l-26.6 12.8v104.9l26.6 13.3v342.4h-1137v983.8h983.2v338.9l-26.6 14.9v104l26.6 12.8v348.1h-983.2v983.8h1137v342.3l-26.4 11.8v106.4l26.4 14v341.2zm1304.3-2618.4h745.6V812.9h-745.6v986.7z" fill="#bae8d9"/><path d="M13446.2 4418V341.8h1595v1933.5h-609.7L15157 4418h-134.2l-731.1-2142.7h-713V4418h-132.5zM1823.5 2269.5H421.7V4418H289.2V0h132.5v2136.9h1401.8V0H1956v4418h-132.5V2269.5zM3116.3 4418l715.5-4076.2H4402L5101.8 4418h-134.3l-228.3-1329.6H3484.1L3250.7 4418h-134.5zm1600.3-1462.2l-426-2481.5h-347.5l-435.6 2481.5h1209.1zM6411.5 0v3944.3h1353.3v132.5H6279V0h132.5zm2364.4 0v3944.3h1353.3v132.5H8643.4V0h132.5zm3638.2 2270.8h-1277.7v1673.5h1431.5v132.5h-1564.1V341.7h1564.1v132.5h-1431.5v1664h1277.7v132.5zm1164.7-1796.5v1668.4h1329.9V474.3h-1329.9z" fill="#121c4d"/></g><defs /></svg>