<svg xmlns="http://www.w3.org/2000/svg" width="195.224" height="396.85" viewBox="0 0 762.9 1550.8"  shape-rendering="geometricPrecision" image-rendering="optimizeQuality" fill-rule="evenodd" xmlns:v="https://vecta.io/nano"><path d="M14010.7-9736.2h23631.6v22154.6H14010.7z" fill="#ebecec"/><g fill-rule="nonzero"><path d="M510.5 631.7V286.4H251.9v345.3h258.6zm0 632.7V919.1H251.9v345.3h258.6zm252.4 124.7l-161.5 161.7h-440L-.1 1389.1V911.4L96.2 776-.1 639.9V163.2L161.4.1h440l161.5 163.1v476.7L664.8 776l98.1 135.4v477.7z" fill="#bae8d9"/><g fill="#121c4d"><path d="M646 133.5v501.9L519.7 771.1 646 914.9v500.8H469.2v-17.6h159.2V921.4L506.9 783H255.7L134.4 921.4v476.7h159.2v17.6H116.8V914.9l123.3-140.6-123.3-139V133.5h529.1zm-390.3 632H501l127.5-136.9V151.1h-494v477.7l121.3 136.8zm185.9 669.6l-.9-.7 1.1.1-.2.6zm2.1-.2l1.8.2.7-2.1-8-.8-.7 1.9 6 5.6.3-.7.6-1.6-1.2-1 .6-1.5zm-8.4 6.8h0c.3-.4.6-.7 1.1-.7s.9.2 1.3.4c.9.5 1.4 1.2.9 2.2l-3.3-1.9zm-2.7.9l6.5 4 1.2-1.9c.5-.9.8-1.9.6-2.8-.3-1.1-1-1.8-1.9-2.4-.7-.4-1.5-.8-2.3-.8-1.3 0-2.3.8-3 1.9l-1.1 2zm-1.8 5.4v-.1c.1-.1.3-.4.4-.4s.3.1.3.2c.3.3.2.5 0 .8l-.8-.5zm2.9-.4c0-.7-.3-1.3-.8-1.7-.4-.3-.9-.6-1.5-.6-.8 0-1.5.5-2 1.1l-1.5 2.2 6 4.8.3-.4 1-1.4-1.9-1.7c.1 0 .1 0 .2.1l2.6.9 1.2-1.9-3-1.1c-.2-.1-.4-.1-.5-.1zm-36.1 24.7v-1.2l.6.9-.6.2zm1.5 1.4l1.1 1.5 2-.8-4.5-6.6-1.9.7-.4 8.1.7-.2 1.6-.5-.1-1.6 1.5-.5zm26.8-20.4l1.7-1.8-1.5-1.2-3 3.2 5.4 5.5 3.3-3.5-1.6-1.1-1.5 1.6-.8-.7 1.6-1.7-1.5-1.2-1.4 1.5zm-6.2 5.4l3.6 4.6.4-.3 1.3-1.2-3.6-4.4 1.2-1.1-1.3-1.3-4 3.3 1.4 1.4zm-3.2 7c-.5.3-1.1.4-1.5.6l-.3.2.9 1.5h.3c.6 0 1.2-.3 1.7-.6.7-.4 1.2-1 1.4-1.8.2-.7 0-1.3-.4-1.9-.6-.9-1.3-1.1-2.4-1.1-.4 0-.8 0-1.2.1-.2 0-.3 0-.4-.2 0 0-.1-.1 0-.2 0-.1.2-.2.3-.3l1.3-.6.4-.2-1.2-1.5-.3.1c-.5.1-.9.3-1.4.6-.6.4-1.1 1-1.3 1.7-.1.6 0 1.2.3 1.7.6.9 1.3 1.2 2.3 1.2l1.2-.1c.2 0 .3 0 .4.2.1.1.1.2.1.4 0 .1-.2.2-.2.3zm-9.1 2.9l-3-3.3-2.5 1.4 3.1 7 .5-.2 1.6-.9-1.4-2.9 2.4 2.6 1.4-.8-.5-3.6 1.6 3.3 1.9-1-3.3-7-2.5 1.3zm37.6-43.3l-4.4.2-.6 2.7 7.4 2.1.1-.4.4-1.8-3.2-.8 3.7-.1.3-1.7-3.1-1.9 3.5 1 .4-2.2-7.4-2-.7 2.8zm-115-99.7l2.3 12.4 5.6-11.4 12.8 1.6-9.2-8.7 5.6-11.4-11.3 6-9.3-8.7 2.2 12.5-11.4 6.1zm113.3 84.1c0-34-27.6-61.7-61.6-62v2.1c32.9.4 59.6 27.1 59.6 60 0 3.1-.3 6.2-.8 9.3l2 .5c.5-3.2.8-6.5.8-9.8zm-61.6-65.6v2.2h.5c16.8 0 32.8 6.6 44.7 18.5 11.9 11.8 18.6 27.8 18.6 44.5 0 1.8-.1 3.6-.2 5.5-.1 1.7-.4 3.3-.6 4.9v.2l2.1.5.1-.3c.3-1.7.5-3.3.6-5 .2-1.9.2-3.9.2-5.8 0-17.3-6.9-33.8-19.2-46.1-12.3-12.2-28.8-19.1-46.2-19.1h-.5zm68 64.7c0 3.9-.3 7.8-1 11.6l-.1.4 2 .5.1-.5c.7-3.9 1-7.9 1-11.9 0-37.6-30.7-68.1-68.4-68.1h-1.7v2.1h1.7c36.6 0 66.3 29.6 66.3 66zm-127.1 1.1h-2.1c.4 34.2 28.6 61.8 63 61.4 3 0 6-.3 9-.8l-.4-2c-2.9.4-5.8.7-8.7.7-33.2.4-60.5-26.2-60.9-59.3zm70.4 64.4h.2l-.4-2.1h-.2c-1.7.3-3.3.5-5 .6-1.8.2-3.7.2-5.5.2-16.8 0-32.8-6.8-44.6-18.7-11.8-11.8-18.6-27.6-18.8-44.3v-.3h-2.2v.3c.2 17.2 7.2 33.6 19.4 45.8 12.3 12.3 28.7 19.3 46.1 19.3a68.01 68.01 0 0 0 11-.9z"/><path d="M393.9 1477.7l-.4-2-.6.1c-3.9.7-7.9 1-11.8 1-36.7 0-66.3-30.7-66.3-67h0-2.1c0 37.4 30.6 69 68.4 69 4.1 0 8.2-.4 12.2-1.1l.6-.1zm35-89.2c0-11.7-5.5-19.3-15.8-22.3l-.3 11.6c0 .4.2.7.5.9 0 0 2.7 1.8 4.1 3.9 1.4 2 1.7 4.4 1.7 4.4.1.6.6 1 1.2.9.5-.1.9-.5.9-1v-.1c0-.1-.4-2.9-2.1-5.3-1.3-1.8-3.3-3.4-4.2-4.1a383.07 383.07 0 0 1 .2-8.1c7.6 3.2 11.6 9.7 11.6 19.4 0 13.8-8.5 23.5-20.7 23.5-11 0-14.8-9.2-17.3-15.2l-.8-2c-.8-1.8-2.1-3.1-3.7-3.7-3-1.1-6.4.4-7.7 1-.5.2-.8.9-.5 1.4.2.5.9.8 1.4.5 1.1-.5 3.9-1.8 6.1-1 1.1.4 1.9 1.2 2.4 2.6l.8 1.9c2.6 6.2 6.8 16.5 19.3 16.5 13.4 0 22.8-10.5 22.8-25.6zm-108.1 6.2l-5.6-3.8 6.7-.2-1.1 4zm5.8 4l-3-2.2 1.7-5.9 3.7-.2 1.3-4.6-17.5 1.7-1.4 5.1 14.2 10.4 1.2-4.3zm7.9-16.5c-.1.8-.6 2.3-1.1 3.1l3.7-.5 1.1-1.6c2.2-3.2 1-5.9-1.9-8l-12.8-8.7-2.5 3.6 11.7 8c2.2 1.5 2.1 2.9 1.9 4.1z"/><path d="M341.2 1353.7l5.4 4-3.3 2.4-2.1-6.4h.1zm4 13.1l-1-3.6 5-3.6 3 2.1 3.9-2.8-14.8-9.6-4.3 3.1 4.6 16.9 3.6-2.6zm18.1-19.2l-3.1 9.6 4.9-1.2 1.6-6.6 4.5 5.1 5.1-1.2-7.2-7.1 2.8-8.7-4.7 1.1-1.4 6-4-4.6-4.9 1.2zm4.7 35.3c2.4-1 6.5-3.2 9.9-5.2 3.8-2.2 7.1-3.8 9.5-4.7 2.7-1 5.7-1.9 9.2-1.7 3.7.2 4.9.7 6.3 1.3 1.5.6 3.7 2 3.7 2 .5.3 1.2.1 1.5-.4s.1-1.1-.4-1.5c-.1-.1-2.4-1.5-4-2.1-1.7-.7-3.2-1.2-7-1.4-3.9-.2-7.2.8-10 1.8-3.2 1.1-7.1 3.3-9.9 4.9-3.4 2-7.4 4.1-9.7 5.1-2.6 1.2-6.7 2.4-7.4 2.4-.6 0-1.1.4-1.1 1a1.11 1.11 0 0 0 1.1 1.1c1.4 0 6.2-1.7 8.3-2.6zm-1.3 30l-3.4.6c-.5.1-1 .7-.9 1.2.1.6.7.9 1.3.9l3.5-.6c1.5-.3 2.7-1.2 3.5-2.6.3-.5 1.4-2 2-2.8.1-.2.2-.4.2-.6v-.1l-.4-5.3 3.8 2.7c-.3.7-.6 1.5-.7 1.9s-.3 1-.3 1.6c0 .7.4 1.6 1.2 2.2 0 0 .7.5 1.1.7.3.1.3.5.3.7v2.5c0 .7.2 1.6.3 2.5.1.5.2 1.1.2 1.4-.1.2-.5.7-.8 1.1-.9 1.2-2.1 2.8-2.8 4.3l-.8 1.8c-.4 1-1 2.3-1.3 2.4-.4.2-2.3.6-3.5.8l-2.1.4c-1.1.2-2.6.8-3.7 1.3-.5.2-1.1.5-1.4.5s-1.2-.3-1.8-.5c-.8-.3-1.8-.6-2.6-.7-.7-.1-.9-.1-.9-.6v-.5c0-1.1-.9-2.3-2.9-3.6-.9-.6-2.3-1.9-2.4-3.1v-.1c0-1 .9-2 1.7-2.9l.7-.8c.4-.5.5-1 .5-1.5v-.2c1 .1 2 .1 2 .1.6 0 1.1-.4 1.1-1s-.4-1.1-1-1.1l-3.7-.2a1.1 1.1 0 0 0-1 .6l-.1.4c0 .3.1.5.3.7.1 0 .3.3.3.6l-.1.2-.6.7c-1 1.1-2.3 2.5-2.3 4.3v.3c.2 2.5 3 4.5 3.3 4.7 1.9 1.3 1.9 1.8 2 1.9v.5c0 1.2.4 2.3 2.6 2.7.7.1 1.6.4 2.3.7 1.5.5 2.3.7 2.9.6.4-.1.9-.3 1.7-.6 1.1-.4 2.4-1 3.4-1.2l2-.4c2.2-.4 3.6-.7 4.2-1.1.9-.5 1.4-1.7 2.1-3.4l.8-1.8c.6-1.3 1.8-2.8 2.6-3.9.8-1.2 1.1-1.5 1.2-1.9v-.3c0-.4-.1-.9-.3-1.9-.1-.8-.3-1.6-.3-2.2v-2.4c0-1-.1-1.7-.7-2.1l-1.1-.7c-.6-.4-.9-.9-.5-1.9.1-.3.7-1.7 1-2.4l.1-.4c0-.3-.2-.6-.4-.8l-5.4-3.9-2.7-2 .7 9.5-2 2.8c-.5.8-1.1 1.3-2 1.5z"/><path d="M400.3 1427.1l.7-.2c1.2-.4 2.6-.8 2.7-2.6.2-1.7-1.6-3.7-5.2-7.2-2.8-2.8-8.5-7.7-14.8-12.8-6.2-5-17.1-12.3-21.5-14.8-4.7-2.7-8-3.2-10-3.2-1.3 0-1.9.6-2.2 1-.6 1-.3 2.2.1 3.1.6 1.2 2.5 2.6 3.1 3 .5.3 1.2.2 1.5-.3.1-.2.2-.4.2-.6 0-.3-.2-.7-.5-.9-1-.7-2.2-1.7-2.4-2.1-.2-.5-.3-.8-.3-1v-.1c.1 0 .2-.1.4-.1 1.7 0 4.6.5 8.9 3s15.1 9.7 21.2 14.6c6.3 5.1 11.9 9.9 14.7 12.7 1.9 1.8 4.6 4.6 4.6 5.5h0c0 .4 0 .4-1.3.8l-.7.2c-2.1.7-3.2 1.8-3.2 3.1 0 .4.1.9.3 1.5.1.4.3 1.3.3 1.7v.2c-.3.5-1.1.5-2.1.5-.6 0-1.1 0-1.6.1-.4.1-.8.3-1.2.6-.6.4-1.6.9-1.9.6-.4-.3-.6-.8-.6-1.6 0-.5.1-1.1.2-1.8l.4-1.6c.3-1 .4-1.7.4-2.3 0-.3 0-.5-.2-.8-.3-.6-.9-.8-2.4-1.3-.7-.2-1.9-.7-2.2-1-.2-.3-.4-.9-.4-1.6v-.7c.1-.6.4-2.1.5-2.7l.1-.3c0-.5-.3-.9-.8-1a1.11 1.11 0 0 0-1.3.8c-.1.2-.5 2-.6 2.9v.9c0 1 .2 2.1.8 2.9.5.6 1.5 1 3.1 1.6.3.1.8.3 1.1.4-.1.4-.2 1-.3 1.4l-.4 1.7c-.1.5-.3 1.3-.3 2.2 0 1.1.3 2.4 1.3 3.3 1.5 1.2 3.3.2 4.3-.4.3-.2.6-.3.8-.4h1c1.2 0 3 .1 4-1.4.7-1 .3-2.4 0-3.7-.1-.3-.2-.8-.2-1 0-.1.3-.6 1.8-1.1zm-47.2-14.9c-.6-.1-1.1.3-1.2.9s.3 1.1.9 1.2c4.2.7 5 .6 5.7.3h.1c.8-.1 1.1-.6 1.2-.9l.1-.5c0-.7-.5-1.3-.9-1.9l-.1-.1c-.2-.3-.5-1.4-.5-2.7 0-.4.1-.9.2-1.3l.6-3.6c.1-.4.1-.8.1-1.2l.9.3c.9.3 1.7.5 2.4.4 1.3-.2 1.5-1.5 1.5-2.7v-1.7c0-2.1-3-2.3-4.7-2.4h-.5c-.2 0-.5-.1-.6-.2.3-.5 1.1-1.3 1.8-2 .2-.2.3-.5.3-.8s-.1-.5-.3-.7a1.09 1.09 0 0 0-1.5 0c-2.6 2.5-2.6 3.2-2.6 3.6 0 1.3 1.4 2.1 2.7 2.2h.6c1.7.1 2.4.2 2.7.4v2.1c-.3-.1-.8-.2-1.1-.3-1.1-.3-2-.6-2.7-.3-.9.4-1 1.4-1.1 3-.1.9-.2 2.1-.5 3.3-.1.6-.2 1.2-.2 1.8 0 1.6.4 3.2.9 3.9l.2.3c-.5 0-1.6 0-4.3-.5zm1.1-14.5c-.5-.3-1.1-.1-1.4.4l-2.4 4.1c-.6.8-2.8 5.3-2.8 6.3 0 .8.4 1.5 5.5 2.3.6.1 1.1-.3 1.2-.9v-.2c0-.5-.4-1-.9-1.1l-3.5-.7c.5-1.2 1.7-3.8 2.2-4.6.7-1 2.5-4.2 2.6-4.3l.1-.5c0-.4-.2-.7-.6-.9zm52.1 42.9c1.4.2 4.2-.5 5.1-1.7.6-.9 1.2-2.7 1.2-2.9.2-.5-.1-1.1-.7-1.3s-1.1.1-1.3.7-.6 1.8-.9 2.3c-.3.4-2.1.9-3.1.8-.6-.1-1.8-.5-2.4-1.3-.4-.5-.5-1.1-.3-1.9.5-2.3 3.1-2.3 3.4-2.3.6 0 1.1-.4 1.1-1s-.4-1.1-1-1.1c-1.6-.1-4.9.6-5.6 4-.3 1.4-.1 2.6.6 3.6.9 1.3 2.6 2 3.9 2.1zm11.7 10.1c1-.6 1.5-1.9 1.5-3.3 0-1-.2-2-.5-2.9-1.5-4.2-1.8-6-1.8-6.8 0-.4.1-.5.1-.6.7-.7 2.1-.7 4.8.1l6.1 1.9c.6.2 1.2-.1 1.4-.6.2-.6-.1-1.2-.6-1.3-.2-.1-3.4-1.2-6.2-2-2.7-.7-5.3-1.2-6.9.5-1.1 1.2-.8 3.9 1.3 9.5.7 2 .3 3.5 0 3.7-.4.2-1.6-.3-2.5-1.3h0c-3-3.1-4.6-4-5.9-3.5-1.5.6-2.6 4.6-3.1 6.9-.9 3.8-1.5 4.8-1.9 5.1-.3-.7-.6-2.9-.6-5.1v-1.5c0-1.2-.1-6.8-1.9-7.4-1.9-.7-5 2.4-5 2.4-.6.7-3.9 4.3-6.4 9-2.3 4.4-4.3 9.9-4.4 10.1-.2.6.1 1.2.6 1.4.6.2 1.2-.1 1.4-.6 0-.1 2-5.6 4.3-9.8 2.4-4.6 5.7-8.2 6.1-8.6.7-.8 1.9-1.6 2.6-1.8.3.9.7 3.4.7 5v1.9c0 2.1.2 5.6 1.3 6.7.4.4.8.5 1.3.5 2.3-.1 3.2-3.4 4-6.8.6-2.8 1.5-4.8 1.9-5.3.3.1 1.3.6 3.6 3h0c1.3 1.5 3.5 2.6 5.1 1.8zm-52.3 2.4c-2.1-2.2-4.9-3-5-3-.6-.2-1.2.2-1.3.7-.1.6.2 1.1.7 1.3 0 0 2.4.7 4 2.4.9 1 1.7 2.8 2 4 .2 1 .4 3.1.4 3.1 0 .6.5 1 1.1 1s1-.5 1-1.1c0-.1-.2-2.3-.4-3.4-.3-1.5-1.3-3.7-2.5-5zm21-14.5c-.1-.6-.5-.9-1.1-.8l-5.6 1.4c-.7.2-1.9.6-3.1 1.1l3.3-6.1c1.2-2.5 1.4-4.9 1.4-5v-.1c0-.5-.4-1-.9-1-.6-.1-1.1.4-1.2.9 0 0-.2 2.2-1.2 4.3-1.1 2.3-4.6 8.4-4.6 8.5-.2.4-.2.9.1 1.2s.8.5 1.2.3c.1 0 4.3-1.7 5.7-2.1l5.6-1.4c.6-.2.8-.7.6-1.3zm-51.3-3.3c-.6.1-1 .6-1 1.2.1.6.6 1 1.2 1 0 0 3.7-.4 7.3.4 3.9.9 9.1 2.7 11.7 3.8l.4.2c9.8 4 11.9 4.2 12.9 3.1 1.7-2-.8-4.3-1.6-5a1.09 1.09 0 0 0-1.5 0 1.08 1.08 0 0 0-.3.7c0 .3.1.6.4.8 1.3 1.2 1.5 1.7 1.5 1.9-.8 0-3.2-.5-10.5-3.5l-.4-.2c-2.6-1.1-8.1-3-12-3.9-4-.9-7.8-.5-8-.5zm34-109.9l10.5-7.4 10.3 7.4-3.8-12 10.5-7.5h-12.8l-3.8-12-4.2 12h-12.8l10.2 7.5zm52.5 1.4l5.7 11.5 2.1-12.6 12.4-1.9-11.1-6 2-12.7-9 8.9-11.1-6 5.6 11.6-9 8.9z"/></g></g><defs /></svg>