<?xml version="1.0" encoding="utf-8"?>
<!-- Generator: Adobe Illustrator 25.0.1, SVG Export Plug-In . SVG Version: 6.00 Build 0)  -->
<svg version="1.1"
	 id="Layer_1" image-rendering="optimizeQuality" shape-rendering="geometricPrecision" xmlns:v="https://vecta.io/nano"
	 xmlns="http://www.w3.org/2000/svg" xmlns:xlink="http://www.w3.org/1999/xlink" x="0px" y="0px" viewBox="0 0 4618.7 1379.1"
	 style="enable-background:new 0 0 4618.7 1379.1;" xml:space="preserve">
<style type="text/css">
	.st0{fill:#BAE8D9;}
	.st1{fill:#121C4D;}
</style>
<g>
	<g>
		<path id="B" class="st0" d="M225.1,1379.1h-92.6l-4.2-8.2H95.6l-4.4,8.2H0V0h91.1l4,8.2h33.5l3.8-8.2h92.7V1379.1z"/>
	</g>
	<path class="st1" d="M132.4,0v1379.1H91V0H132.4z"/>
	<g>
		<path id="C" class="st0" d="M3316.5,1235.3l-143,143.8H2786l-144.6-143.8V1013h90.5l5,8.3h31l5.2-8.3h92.6v111.5h226.4V817.3H2786
			l-144.6-144.7V145L2786,0h387.4l143,144.1v214.2H3224l-5.8-8.2h-30.8l-4.9,8.2h-90.4V254.7h-226.4v307.1h307.7l143,145
			L3316.5,1235.3z"/>
	</g>
	<g>
		<path id="D" class="st1" d="M2773.2,1013v218.3h409.4v-521h-450.8V106.7H3224v251.6h-41.4V148.1h-409.4v520.8l450.8,0v603.8
			h-492.2V1013H2773.2z"/>
	</g>
	<path class="st0" d="M2017.9,1379.1h-96.7l-10.2-8.2h-28.9l-2.6,8.2h-102l-190.8-561.8h-66.5v561.8h-91.6l-5.4-8.2h-30.7l-5.3,8.2
		h-92.1V0H1834l143,145v506.3L1824,813.8L2017.9,1379.1z M1520.2,561.8H1753v-308h-232.8V561.8z"/>
	<path class="st1" d="M1387.2,1379.1V106.7h497.9v603.6h-190.3l226.5,668.9h-41.9l-228.2-668.9h-222.6v668.9H1387.2z M1428.6,148.1
		v520.8h415.2V148.1H1428.6z"/>
	<path class="st0" d="M977.5,0l145.4,145.9v1088.5l-145.4,144.7H425.5V0H977.5z M898.6,1124.5V254.7H650.6v869.8H898.6z"/>
	<path class="st1" d="M558.1,148.1v1083.2h332l101-114.8V262.4L890.2,148.1L558.1,148.1L558.1,148.1z M516.8,1251.9V106.7l391.9,0
		l123.8,140.3V1132l-123.7,140.6l-392,0L516.8,1251.9L516.8,1251.9z"/>
	<g>
		<path id="B_1_" class="st0" d="M2428.3,1379.1h-92.6l-4.2-8.2h-32.8l-4.4,8.2h-91.1V0h91.1l4,8.2h33.5l3.8-8.2h92.7V1379.1z"/>
	</g>
	<path class="st1" d="M2335.6,0v1379.1h-41.4V0H2335.6z"/>
	<g>
		<path id="C_1_" class="st0" d="M4184.7,1235.3l-143,143.8h-387.4l-144.6-143.8V1013h90.5l5,8.3h31l5.2-8.3h92.6v111.5h226.4V817.3
			h-306.1l-144.6-144.7V145L3654.3,0h387.4l143,144.1v214.2h-92.4l-5.8-8.2h-30.8l-4.9,8.2h-90.4V254.7H3734v307.1h307.7l143,145
			V1235.3z"/>
	</g>
	<g>
		<path id="D_1_" class="st1" d="M3641.5,1013v218.3h409.4v-521h-450.8V106.7h492.2v251.6h-41.4V148.1h-409.4v520.8l450.8,0v603.8
			h-492.2V1013H3641.5z"/>
	</g>
	<g>
		<path id="B_2_" class="st0" d="M4618.7,1379.1h-92.6l-4.2-8.2h-32.8l-4.4,8.2h-91.1V0h91.1l4,8.2h33.5L4526,0h92.7V1379.1z"/>
	</g>
	<path class="st1" d="M4526,0v1379.1h-41.4V0H4526z"/>
</g>
</svg>
