<svg xmlns="http://www.w3.org/2000/svg" width="99.043" height="188.976" viewBox="0 0 1051.7 2006.6"  shape-rendering="geometricPrecision" image-rendering="optimizeQuality" fill-rule="evenodd" xmlns:v="https://vecta.io/nano"><path d="M-19004.301 2732H45208.5v64212.801h-64212.801z" fill="#e6e6e6"/><g fill-rule="nonzero"><path d="M1051.7 2006.6H911.1l-14.9-12h-42.1l-3.8 12H701.9l-277.6-817.4h-96.8v817.4H194.2l-7.8-11.9h-44.6l-7.7 11.9H0V0h784.1l208.1 211v736.7L769.5 1184l282.2 822.6zM327.5 817.3h338.7V369.2H327.5v448.1z" fill="#bae8d9"/><path d="M134 2006.6V155.2h724.5v878.2H581.6l329.5 973.2h-61L518 1033.4H194.2v973.2H134zm60.2-1791.2v757.8h604.1V215.4H194.2z" fill="#121c4d"/></g><defs /></svg>