<svg xmlns="http://www.w3.org/2000/svg" width="1278.985" height="188.976" viewBox="0 0 49729.9 7347.8"  shape-rendering="geometricPrecision" image-rendering="optimizeQuality" fill-rule="evenodd" xmlns:v="https://vecta.io/nano"><path d="M51631.699-58539.801h235130.5v235130.5h-235130.5z" fill="#e6e6e6"/><g fill-rule="nonzero"><path d="M49729.9 7347.8h-491.1l-22-45.8h-176.9l-20.3 45.8h-483.3V4354.7h-1355.4v2993.1h-494.1l-18.3-43.6h-180.9l-20.3 43.6h-481.4V0h481.1l17.6 43.7h184.8l17.9-43.7h493.6v2993.1h1355.4V0h482.7l18.3 44h179.2l22.1-44h491.4v7347.8zM3686.6 6581.6l-774.7 766.2H762.1L0 6581.6v-5809L774.7 0h2137.1l774.7 772.6v1150.9H3198l-19.3-45h-180.8l-19.6 45h-485.5v-566.7H1199.3v4634.1h1293.5V4354.7h-816.9v-578.3l43-26.4v-172.5l-43-20.7V2993h2010.6v3588.5zm4821 766.2h-515L7938 7304h-154l-13.9 43.8h-543.4L6210.2 4354.7h-354.3v2993.1h-488.1l-28.7-43.6h-163.4l-28.2 43.6h-491V0h2871.1l762.1 772.6v2697.8l-815.5 865.2 1033.4 3012.2zM5855.9 2993.1H7096v-1641H5855.9v1641zM12526 7347.8l-288.2-1636.2h-1252.7l-288.2 1636.2h-526.8l-22.2-43.9-174.7-.8-26.5 44.7h-468.9L10771.3 0h1680.2L13745 7347.8h-496.4l-37.7-44-163.3-.2-21.8 44.2h-499.7zm-527.3-2993.1l-386.6-2198.1-388.1 2198.1h774.7zm4041.4-116.5l421.8-2156.6L16872.5 0h491.1l15.6 43.5h176.8l31.6-43.5h508.1l-1442.6 7347.8h-1227.5L13980.2 0h523.8l36.4 43.9h164.3l21.5-43.9h481.5l406.3 2084.8 426 2153.4zm6111.8 3109.6h-3086.2V0h3086.2v569.6l-44.3 21.2v174.4l44.3 22.2v569.4h-1891.1V2993H21896v563.6l-44.2 24.8v173l44.2 21.3v578.9h-1635.2v1636.2h1891.1v569.3l-43.9 19.7v177l43.9 23.4v567.4zm3465.6 0l-1304.8-3848.7v3848.7h-492.2l-37.8-44.2h-144.6l-35.3 44.2h-481V0h1280.9l1310.4 3853.5V0h468.4l34.9 43h148.5l34.9-43h499.9v7338.2l4.2 9.6h-1286.5zm3451.7-4354.7h1227.4V1356.9h-1227.4v1636.2zm0 2997.9h1227.4V4354.8h-1227.4V5991zm2425.3 590.6l-766.3 766.2H27874V0h2854.2l766.3 772.6v2258.8l-461.2 635.3 461.2 651.3v2263.6zm4056.1 766.2h-3086.2V0h3086.2v569.6l-44.3 21.2v174.4l44.3 22.2v569.4h-1891.1V2993h1635.2v563.6l-44.2 24.8v173l44.2 21.3v578.9h-1635.2v1636.2h1891.1v569.3l-43.9 19.7v177l43.9 23.4v567.4zm4821 0h-515l-54.6-43.8h-154l-13.9 43.8h-543.4l-1016.5-2993.1h-354.3v2993.1h-488.1l-28.7-43.6h-163.4l-28.2 43.6h-491V0h2871.1l762.1 772.6v2697.8l-815.5 865.2 1033.4 3012.2zm-2651.7-4354.7H38960v-1641h-1240.1v1641zm7295.7 3588.5l-781.7 766.2h-2130.1l-762.1-766.2v-5809L42103.8 0h2130.1l781.7 777.4v1131.8h-483l-17.8-43.5h-187.2l-15.2 43.5h-490.5v-552.3h-1285.1V5991h1285.1v-593.8h490.6l26.9 44.1h166.3l27.2-44.1h482.7v1184.5z" fill="#bae8d9"/><path d="M49018.4 3774.5h-2331.3v3573.3h-220.4V0h220.4v3554.1h2331.3V0h220.4v7347.8h-220.4V3774.5zM2977.9 1923.6V788.9H708.2V6560h2269.7V3776.8h-1302v-220.4h1522.4v3224.1H487.7v-6212h2710.6v1355.1h-220.4zm2169.3 5424.3V568.5H7800v3215.7H6786l1206.7 3563.7h-223.2l-1216-3563.7H5367.7v3563.7h-220.4zM5367.6 789v2774.8h2211.9V789H5367.6zm4578.7 6558.9l1190.1-6779.4h948.4l1163.9 6779.4h-223.4l-379.6-2211.4h-2087.5L10170 7347.9h-223.6zm2661.5-2431.8L11899.3 789h-578l-724.5 4127.1h2011zM14726.4.1l1308.1 6508.6L17363.5.1h223.5l-1383.8 6780.4h-338L14502.1.1h224.3zm7169.5 3776.8H19771v2783.2h2380.8v220.4h-2601.3v-6212h2601.3v220.4H19771v2767.5h2124.9v220.4zm1705.8 3571l-5.5-6779.4h421.9l2167.7 5961.7L26180 0h219.6l6.1 6780.4H26043L23864.5 788.8h-48.4l5.3 6558.9h-219.6zm4869.9-6779.4h2534.6V3032l-562.5 635 562.5 646.6v2466.9h-2644.8v-6212h110.2zm110.2 2987.9h1666.5l537.4-606.7V789h-2203.9v2767.5zm1665.4 220.4h-1665.4V6560h2203.9V4395.9l-538.5-619.1zm5047.5 0h-2124.9V6560h2380.8v220.4h-2601.3v-6212h2601.3v220.4h-2380.8v2767.5h2124.9v220.4zm1716.6 3571V568.4h2652.8v3215.7h-1014l1206.7 3563.7h-223.2l-1216-3563.7h-1185.8v3563.7h-220.4zm220.4-6558.9v2774.8h2211.9V788.9h-2211.9zM44312 1909.2V788.9h-2262.7V6560H44312V5397.1h220.4v1383.3h-2703.6v-6212h2703.6v1340.7H44312z" fill="#121c4d"/></g><defs /></svg>