<svg xmlns="http://www.w3.org/2000/svg" width="192.797" height="396.333" viewBox="0 0 674.7 1386.9"  shape-rendering="geometricPrecision" image-rendering="optimizeQuality" fill-rule="evenodd" xmlns:v="https://vecta.io/nano"><path d="M14924.7-8718.6h21161.6v19839H14924.7z" fill="#ebecec"/><g fill-rule="nonzero"><path d="M674.7 1242.1l-145.4 144.8H143.8L0 1242.1V1020h225.5v112.3h223.1V727.7H143.8L0 582.6V0h665.4v256.4H226.3v214.9h303.8l144.6 143.9z" fill="#bae8d9"/><g fill="#121c4d"><path d="M120.3 1020v232h138.4v15.7H104.6V1020h15.7zm295.6 232h136V606.9H104.6V119.5h559.9v15.7H120.3v455.9h447.3v676.5H415.9v-15.7zm-24.7 33.1l-.8-.7 1 .1-.2.5zm1.9-.2l1.7.2.6-1.9-7.1-.8-.7 1.7 5.3 5 .3-.6.5-1.4-1.1-.9.5-1.3zm-7.5 6.1h0c.2-.4.5-.7 1-.7.4 0 .8.2 1.2.4.8.5 1.3 1.1.8 2l-3-1.7zm-2.4.8l5.9 3.6 1.1-1.7c.5-.8.7-1.7.5-2.5-.2-1-.9-1.7-1.7-2.2-.6-.4-1.3-.7-2.1-.7-1.2 0-2.1.7-2.7 1.7l-1 1.8zm-1.7 4.8h0c.1-.1.3-.3.4-.3s.2.1.3.2c.3.2.2.4 0 .7l-.7-.5zm2.6-.4c0-.6-.3-1.2-.7-1.5s-.8-.5-1.3-.5c-.7 0-1.3.5-1.7 1l-1.4 1.9 5.4 4.3.3-.4.9-1.3-1.7-1.6h.2l2.3.8 1.1-1.7-2.7-1c-.2-.1-.3-.1-.5-.1zm-32.3 22.2v-1l.6.8-.5.2zm1.3 1.3l1 1.4 1.8-.8-4.1-5.9-1.7.6-.4 7.2.6-.1 1.5-.5-.1-1.4 1.4-.5zm24.1-18.3l1.5-1.6-1.4-1.1-2.7 2.9 4.9 4.9 2.9-3.1-1.4-1.1-1.3 1.6-.8-.7 1.4-1.5-1.3-1.1-1.2 1.4zm-5.7 4.9l3.3 4.1.4-.3 1.2-1.1-3.3-3.9 1.1-1-1.2-1.2-3.5 3 1.2 1.2zm-2.8 6.2c-.4.3-1 .3-1.4.6l-.3.2.8 1.4h.3c.6 0 1.1-.3 1.6-.6.6-.4 1.1-.9 1.2-1.6.1-.6 0-1.2-.3-1.7-.5-.8-1.2-1-2.1-1h-1.1c-.2 0-.2 0-.3-.2v-.2c0-.1.2-.2.2-.2.3-.2.8-.3 1.1-.5l.3-.2-1-1.4-.2.1c-.5.1-.8.3-1.2.5-.6.4-1 .9-1.2 1.6-.1.5 0 1 .3 1.5.5.8 1.2 1.1 2.1 1.1l1-.1c.2 0 .3 0 .4.1s.1.2.1.3-.1.2-.2.3zm-8.1 2.6l-2.7-2.9-2.2 1.2 2.8 6.2 1.8-.9-1.3-2.6 2.2 2.3 1.3-.7-.5-3.2 1.4 3 1.7-1-2.9-6.2-2.2 1.1zm33.7-38.8l-4 .2-.5 2.5 6.6 1.8.1-.4.3-1.6-2.8-.7 3.2-.1.3-1.5-2.7-1.7 3.1.9.4-1.9-6.7-1.8-.5 2.4zm-103-89.2l2 11.1 5.1-10.2 11.4 1.4-8.3-7.8 5.1-10.2-10.2 5.4-8.3-7.8 2 11.1-10.2 5.5zm101.4 75.3c0-30.4-24.7-55.2-55.2-55.6v1.9c29.5.3 53.3 24.3 53.3 53.7 0 2.8-.2 5.6-.7 8.3l1.8.4c.5-2.9.7-5.8.7-8.7zm-55.2-58.8v1.9h.4c15.1 0 29.4 6 40 16.6s16.6 24.9 16.6 39.9c0 1.6-.1 3.3-.2 4.9-.1 1.5-.3 3-.6 4.4v.2l1.9.4v-.3c.3-1.5.4-3 .6-4.5.1-1.7.2-3.5.2-5.2 0-15.5-6.2-30.3-17.2-41.2-11-11-25.8-17.1-41.4-17.1h-.4zm60.9 58c0 3.5-.3 7-.9 10.4l-.1.4 1.8.4.1-.5c.6-3.5.9-7.1.9-10.7 0-33.6-27.5-61-61.3-61h-1.5v1.9h1.5c32.7 0 59.4 26.5 59.4 59.1zm-113.8.9h-1.9c.3 30.6 25.6 55.3 56.4 55 2.7 0 5.4-.3 8.1-.7l-.4-1.8c-2.6.4-5.2.6-7.7.7-29.7.3-54.2-23.5-54.5-53.1zm63.1 57.7h.2l-.4-1.9h-.2l-4.5.6-5 .2c-15.1 0-29.3-6.1-39.9-16.7-10.5-10.6-16.6-24.8-16.8-39.7v-.2h-2v.3c.2 15.4 6.5 30.1 17.4 41 11 11 25.7 17.3 41.3 17.3 3.3 0 6.6-.3 9.8-.8zm.8 3l-.4-1.8-.5.1a62.33 62.33 0 0 1-10.6.9c-32.8 0-59.3-27.5-59.4-60h0-1.9c0 33.5 27.4 61.8 61.2 61.8 3.7 0 7.3-.3 10.9-1l.5-.1zm31.3-79.8c0-10.5-5-17.3-14.1-20l-.2 10.4c0 .3.2.6.4.8 0 0 2.4 1.6 3.7 3.5 1.2 1.8 1.5 3.9 1.5 3.9.1.5.6.9 1.1.8s.8-.5.8-.9v-.1c0-.1-.4-2.6-1.9-4.8-1.1-1.6-2.9-3.1-3.7-3.7l.1-7.3c6.8 2.8 10.4 8.7 10.4 17.3 0 12.4-7.6 21-18.5 21-9.9 0-13.3-8.2-15.5-13.6l-.7-1.8c-.7-1.7-1.8-2.8-3.3-3.3-2.7-1-5.8.4-6.9.9-.5.2-.7.8-.5 1.2.2.5.8.7 1.3.5.9-.4 3.5-1.6 5.5-.9.9.4 1.7 1.1 2.2 2.3l.7 1.7c2.3 5.5 6.1 14.8 17.3 14.8 12 0 20.4-9.4 20.4-22.9zm-96.8 5.5l-5-3.4 6-.2-1 3.5zm5.2 3.6l-2.7-1.9 1.5-5.3 3.3-.2 1.2-4.1-15.7 1.5-1.3 4.6 12.7 9.3 1.1-3.8zm7.1-14.8c-.1.7-.6 2.1-1 2.7l3.3-.4.9-1.4c2-2.9.9-5.3-1.7-7.1l-11.5-7.8-2.2 3.2 10.5 7.1c2 1.4 1.9 2.6 1.7 3.7zm6-25.5l4.8 3.6-3 2.1-1.9-5.8zm3.6 11.8l-.9-3.2 4.5-3.2 2.7 1.9 3.5-2.5-13.2-8.6-3.9 2.8 4.1 15.1 3.2-2.3zm16.2-17.3l-2.8 8.6 4.4-1 1.4-5.9 4 4.6 4.6-1.1-6.4-6.4 2.5-7.8-4.2 1-1.3 5.3-3.5-4.1-4.5 1.1zm4.2 31.6c2.1-.9 5.8-2.9 8.9-4.6 3.4-2 6.4-3.4 8.5-4.2 2.4-.9 5.1-1.7 8.2-1.5 3.3.2 4.4.6 5.6 1.1 1.3.5 3.3 1.8 3.3 1.8.5.3 1 .1 1.3-.3.3-.5.1-1-.3-1.3-.1-.1-2.2-1.3-3.6-1.9-1.5-.6-2.9-1.1-6.3-1.3-3.5-.2-6.5.7-9 1.6-2.8 1-6.4 2.9-8.8 4.4-3 1.8-6.6 3.6-8.7 4.5-2.4 1-6 2.2-6.7 2.2-.5 0-1 .4-1 .9s.4.9.9 1c1.3 0 5.5-1.5 7.5-2.3zm-1.2 26.9l-3 .5c-.4.1-.9.6-.8 1.1s.6.8 1.1.8l3.1-.6c1.3-.3 2.4-1.1 3.1-2.3.2-.4 1.2-1.8 1.8-2.5.1-.1.2-.4.2-.6v-.1l-.3-4.7 3.4 2.5c-.2.6-.6 1.4-.7 1.7s-.3.9-.3 1.4c0 .6.3 1.5 1.1 2l1 .6c.3.1.3.5.3.7v2.2c0 .6.2 1.5.3 2.2.1.4.2 1 .2 1.3-.1.2-.4.6-.7 1-.8 1.1-1.9 2.5-2.5 3.9l-.7 1.6-1.1 2.2c-.4.2-2.1.5-3.1.7l-1.8.4c-1 .2-2.3.8-3.4 1.2l-1.2.5c-.3 0-1.1-.3-1.6-.5l-2.3-.6c-.7-.1-.8-.1-.8-.5v-.5c0-1-.8-2.1-2.6-3.2-.8-.5-2.1-1.7-2.2-2.8v-.1c0-.9.8-1.8 1.5-2.6l.6-.7c.3-.4.5-.9.5-1.4v-.2c.9.1 1.8.1 1.8.1.5 0 1-.4 1-.9s-.4-1-.9-1l-3.4-.2c-.4 0-.7.2-.9.5l-.1.4a1.08 1.08 0 0 0 .3.7s.3.3.3.6l-.1.2-.5.6c-.9 1-2 2.3-2 3.8v.3c.2 2.3 2.7 4 3 4.2 1.7 1.1 1.7 1.6 1.7 1.7v.4c0 1.1.4 2.1 2.3 2.5.6.1 1.4.4 2.1.6 1.3.4 2 .6 2.6.5l1.6-.6 3.1-1.1 1.8-.3c2-.4 3.2-.6 3.8-1 .8-.5 1.2-1.5 1.9-3.1l.7-1.6c.6-1.2 1.6-2.5 2.3-3.5.8-1 1-1.4 1-1.7v-.3c0-.3-.1-.8-.2-1.7l-.3-2v-2.1c0-.9-.1-1.5-.7-1.9l-1-.6c-.5-.4-.8-.8-.5-1.7.1-.3.6-1.5.9-2.2l.1-.4c0-.3-.1-.6-.4-.7l-4.8-3.5-2.4-1.8.6 8.5c-.5.6-1.5 1.9-1.8 2.5-.4.7-1 1.2-1.8 1.3z"/><path d="M354.2 1277.9l.6-.2c1.1-.3 2.3-.7 2.5-2.3s-1.5-3.3-4.7-6.5c-2.5-2.5-7.6-6.9-13.3-11.5-5.5-4.5-15.4-11-19.3-13.2-4.2-2.4-7.2-2.9-8.9-2.9-1.1 0-1.7.5-2 .9-.6.9-.2 2 .1 2.8.5 1.1 2.2 2.3 2.8 2.7a.95.95 0 0 0 1.3-.2c.1-.2.2-.4.2-.5 0-.3-.2-.6-.4-.8-.9-.6-1.9-1.5-2.1-1.9s-.3-.7-.3-.9v-.1s.1-.1.4-.1c1.5 0 4.1.5 8 2.7s13.5 8.7 19 13.1c5.7 4.6 10.7 8.9 13.1 11.4 1.7 1.6 4.1 4.1 4.1 4.9h0c0 .3 0 .4-1.1.7l-.7.2c-1.9.7-2.9 1.6-2.9 2.8 0 .4.1.8.2 1.4.1.4.3 1.1.3 1.5v.2c-.3.4-1 .4-1.9.4-.5 0-1 0-1.5.1-.4.1-.7.3-1.1.5-.6.3-1.4.8-1.7.5s-.5-.7-.5-1.4c0-.4.1-1 .2-1.6l.4-1.5c.2-.9.4-1.5.4-2 0-.3 0-.5-.1-.7-.2-.5-.8-.7-2.1-1.2-.6-.2-1.7-.6-2-.9-.2-.2-.3-.8-.3-1.4v-.6c.1-.6.4-1.9.5-2.4v-.2c0-.4-.3-.8-.7-.9-.5-.1-1 .2-1.1.7-.1.2-.4 1.8-.5 2.6v.8c0 .9.2 1.9.7 2.6.4.5 1.3.9 2.8 1.4.3.1.7.3 1 .4 0 .3-.2.9-.3 1.3l-.4 1.5c-.1.4-.3 1.1-.3 2 0 1 .3 2.1 1.2 2.9 1.3 1.1 2.9.2 3.9-.4.3-.1.6-.3.7-.4h.9c1.1 0 2.7.1 3.6-1.2.6-.9.3-2.2 0-3.3-.1-.3-.2-.7-.2-.9 0-.1.3-.5 1.6-1zm-42.2-13.3c-.5-.1-1 .3-1.1.8s.3 1 .8 1.1c3.8.6 4.5.5 5.1.3h.1c.7-.1 1-.6 1.1-.8l.1-.5c0-.6-.5-1.2-.8-1.7l-.1-.1c-.2-.2-.5-1.3-.5-2.4 0-.4.1-.8.1-1.1.3-1.2.4-2.3.5-3.2 0-.3.1-.8.1-1.1.3.1.6.2.8.2.8.2 1.5.5 2.1.4 1.1-.2 1.3-1.3 1.3-2.4v-1.5c0-1.9-2.7-2-4.2-2.1h-.4c-.2 0-.4-.1-.6-.2.3-.4 1-1.1 1.6-1.8.2-.2.3-.4.3-.7a1.08 1.08 0 0 0-.3-.7c-.4-.4-1-.4-1.3 0-2.3 2.2-2.3 2.9-2.3 3.2 0 1.1 1.2 1.9 2.4 2h.5c1.6.1 2.2.2 2.4.4v1.9l-.9-.3c-1-.3-1.8-.5-2.4-.2-.8.4-.9 1.3-1 2.7-.1.8-.2 1.9-.5 3-.1.5-.2 1-.2 1.6 0 1.4.3 2.9.8 3.5l.2.3c-.4 0-1.4 0-3.8-.4zm.9-13c-.5-.3-1-.1-1.3.4l-2.2 3.7c-.5.7-2.5 4.7-2.5 5.6 0 .8.4 1.3 4.9 2 .5.1 1-.3 1.1-.8v-.1c0-.5-.3-.9-.8-.9-1.1-.1-2.4-.4-3.1-.6l2-4.1c.7-.9 2.2-3.7 2.3-3.8l.1-.5c0-.3-.2-.7-.5-.8zm46.7 38.4c1.2.2 3.8-.4 4.5-1.5.6-.8 1.1-2.4 1.1-2.6.2-.5-.1-1-.6-1.2s-1 .1-1.2.6a20.75 20.75 0 0 1-.8 2c-.3.3-1.9.8-2.7.7-.6-.1-1.6-.4-2.2-1.1-.3-.4-.4-1-.2-1.7.4-2.1 2.8-2 3.1-2 .5 0 1-.4 1-.9s-.4-1-.9-1c-1.5-.1-4.4.5-5 3.5-.3 1.2-.1 2.3.6 3.2.8 1.2 2.3 1.7 3.4 1.9zm10.5 9.1c.9-.5 1.3-1.7 1.3-3 0-.9-.2-1.8-.5-2.6-1.3-3.7-1.6-5.4-1.6-6.1 0-.3.1-.5.1-.5.6-.6 1.9-.6 4.3.1l5.5 1.7c.5.2 1-.1 1.2-.6s-.1-1-.6-1.2c-.1 0-3.1-1.1-5.6-1.8-2.4-.7-4.7-1-6.2.5-1 1.1-.7 3.5 1.1 8.5.7 1.8.3 3.2 0 3.3-.4.2-1.4-.2-2.3-1.2h0c-2.7-2.8-4.1-3.6-5.3-3.1-1.3.5-2.3 4.1-2.8 6.2-.8 3.4-1.4 4.3-1.7 4.5-.3-.6-.5-2.6-.5-4.6v-1.4c0-1.1-.1-6.1-1.7-6.6-1.7-.6-4.4 2.2-4.5 2.2-.6.6-3.5 3.9-5.7 8.1-2.1 3.9-3.9 8.8-3.9 9-.2.5.1 1 .6 1.2s1-.1 1.2-.6c0-.1 1.8-5 3.9-8.8 2.2-4.1 5.1-7.3 5.4-7.7.7-.7 1.7-1.4 2.3-1.6.3.8.6 3 .6 4.5v1.7c0 1.9.2 5 1.2 6 .3.3.7.5 1.1.4 2.1-.1 2.9-3.1 3.6-6.1.6-2.5 1.3-4.3 1.7-4.8.3.1 1.1.5 3.2 2.7h0c1.2 1.4 3.2 2.4 4.6 1.6zm-46.9 2.2c-1.8-2-4.4-2.7-4.5-2.7-.5-.1-1 .2-1.2.7-.1.5.2 1 .7 1.2 0 0 2.2.6 3.6 2.2.8.9 1.6 2.5 1.8 3.6.2.9.3 2.8.3 2.8 0 .5.5.9 1 .9s.9-.5.9-1c0-.1-.1-2-.4-3.1-.3-1.3-1.2-3.3-2.3-4.5zm18.8-13.1c-.1-.5-.5-.8-1-.7l-5 1.2-2.8 1 2.9-5.4c1-2.2 1.3-4.4 1.3-4.5v-.1c0-.5-.4-.9-.8-.9-.5-.1-1 .3-1 .8 0 0-.2 2-1.1 3.9-.9 2-4.1 7.5-4.2 7.6-.2.4-.2.8.1 1.1s.7.4 1.1.3c.1 0 3.8-1.5 5.1-1.8l5-1.2c.5-.1.7-.6.6-1.1zm-45.9-3c-.5.1-.9.5-.9 1 .1.5.5.9 1 .9 0 0 3.3-.3 6.5.4 3.5.8 8.2 2.4 10.5 3.4l.4.2c8.7 3.6 10.7 3.8 11.5 2.8 1.5-1.8-.7-3.8-1.5-4.5-.4-.4-1-.3-1.3 0-.2.2-.3.4-.3.6 0 .3.1.5.3.7 1.1 1 1.4 1.5 1.4 1.7-.7 0-2.8-.5-9.4-3.2l-.4-.2c-2.3-1-7.2-2.7-10.8-3.5-3.5-.8-7-.5-7.1-.4zm30.5-98.3l9.4-6.7 9.2 6.7-3.4-10.8 9.4-6.7h-11.5l-3.4-10.8-3.8 10.8H321l9.2 6.7zm47 1.2l5 10.3 1.9-11.3 11.2-1.6-10-5.5 1.8-11.3-8 8-10-5.5 5 10.4-8 8.1z"/></g></g><defs /></svg>