<svg xmlns="http://www.w3.org/2000/svg" width="215.921" height="396.85" viewBox="0 0 818.5 1504.3"  shape-rendering="geometricPrecision" image-rendering="optimizeQuality" fill-rule="evenodd" xmlns:v="https://vecta.io/nano"><path d="M17103.199-9444.2H40026v21490.1H17103.199z" fill="#ebecec"/><g fill-rule="nonzero"><path d="M341.1 891.5h165V562.1l-165 329.4zm-186.2 277.8L0 1012.1 506.1 0h244v891.5h68.4v277.8h-68.4v335H505.2v-46.1h.9v-288.9H154.9z" fill="#bae8d9"/><g fill="#121c4d"><path d="M619.4 1504.3v-60.2h17v60.2h-17zm0-258.9v-208.3h-500l454-907.7h63v890.7h182.1v17H636.4v208.3h-17zm0-225.3V146.5h-35.6l-437 873.6h472.5zm63.1 372l-.9-.7 1.1.1-.2.6zm2-.2l1.8.2.6-2-7.7-.8-.7 1.8 5.8 5.4.3-.7.6-1.5-1.2-.9.6-1.5zm-8 6.5h0c.3-.4.6-.7 1.1-.7.4 0 .9.2 1.3.4.8.5 1.4 1.2.9 2.1l-3.2-1.8zm-2.6.9l6.3 3.9 1.2-1.9c.5-.8.8-1.8.5-2.8s-1-1.8-1.9-2.3c-.7-.4-1.5-.7-2.3-.7-1.3 0-2.2.8-2.9 1.9l-1 2zm-1.8 5.3v-.1c.1-.1.3-.4.4-.4s.2.1.3.2c.3.2.2.5 0 .8l-.8-.5zm2.9-.4c0-.6-.3-1.3-.8-1.7-.4-.3-.9-.5-1.4-.5-.8 0-1.4.5-1.9 1.1l-1.5 2.1 5.8 4.7.3-.4.9-1.4-1.9-1.7c.1 0 .1 0 .2.1l2.5.9 1.1-1.9-2.9-1.1c-.2-.1-.4-.1-.5-.1zm-35.1 23.9v-1.1l.6.9-.6.2zm1.4 1.4l1 1.5 2-.8-4.4-6.4-1.9.7-.4 7.8.6-.2 1.6-.5-.1-1.5 1.5-.5zm26.1-19.7l1.6-1.8-1.4-1.2-3 3.2 5.3 5.3 3.2-3.4-1.5-1.2-1.5 1.7-.8-.7 1.5-1.7-1.4-1.2-1.3 1.5zm-6.1 5.2l3.5 4.4.4-.3 1.3-1.2-3.5-4.2 1.2-1.1-1.3-1.3-3.9 3.3 1.4 1.3zm-3 6.7c-.5.3-1.1.3-1.5.6l-.3.2.8 1.5h.3c.6 0 1.2-.3 1.7-.6.6-.4 1.2-1 1.3-1.7.2-.6 0-1.3-.4-1.8-.6-.9-1.3-1.1-2.3-1.1-.4 0-.8 0-1.1.1-.2 0-.3 0-.4-.2 0 0-.1-.1 0-.2 0-.1.2-.2.3-.3l1.6-.8-1.1-1.5-.2.1c-.5.1-.9.3-1.4.6-.6.4-1.1 1-1.2 1.7a2.22 2.22 0 0 0 .3 1.6c.5.8 1.3 1.1 2.2 1.1l1.1-.1c.2 0 .3 0 .4.1s.1.2.1.4c0 .1-.2.2-.2.3zm-8.9 2.9l-2.9-3.2-2.4 1.3 3 6.8.5-.2 1.5-.9-1.4-2.8 2.4 2.6 1.4-.8-.5-3.5 1.5 3.2 1.8-1-3.1-6.8-2.5 1.3zm36.5-42l-4.2.1-.6 2.7 7.1 2 .2-.4.3-1.7-3.1-.8 3.5-.1.4-1.6-3-1.9 3.4.9.4-2-7.2-2-.7 2.7zm-111.5-96.7l2.1 12 5.5-11.1 12.4 1.6-8.9-8.5 5.5-11.1-11.1 5.9-9-8.4 2.1 12.1-11 5.8zm109.8 81.5c0-33-26.7-59.8-59.8-60.2v2c31.9.4 57.8 26.3 57.8 58.2 0 3-.3 6-.7 9l2 .4c.5-3.1.8-6.3.8-9.5zm-59.8-63.6v2.1h.4c16.3 0 31.8 6.4 43.4 17.9 11.5 11.5 18 26.9 18 43.2 0 1.8-.1 3.5-.2 5.3a39.34 39.34 0 0 1-.6 4.8v.2l2 .5v-.3c.3-1.6.5-3.2.6-4.9.2-1.9.2-3.7.2-5.6 0-16.8-6.7-32.8-18.6-44.7s-28-18.5-44.8-18.5h-.5zm66 62.8c0 3.8-.3 7.5-1 11.2l-.1.4 2 .4.1-.5c.7-3.8 1-7.7 1-11.6 0-36.4-29.8-66.1-66.4-66.1h-1.6v2h1.6c35.5 0 64.3 28.7 64.3 64.1zm-123.3 1h-2c.4 33.2 27.8 59.9 61.1 59.5 2.9 0 5.9-.3 8.8-.8l-.4-2c-2.8.4-5.6.7-8.4.7-32.2.4-58.7-25.5-59.1-57.5zm68.4 62.5h.2l-.4-2.1h-.2a39.34 39.34 0 0 1-4.8.6c-1.8.2-3.6.2-5.4.2-16.3 0-31.8-6.6-43.3-18.1-11.4-11.4-18-26.8-18.2-43v-.3h-2.1v.3c.2 16.7 7 32.6 18.8 44.4 11.9 11.9 27.9 18.7 44.7 18.7a62.33 62.33 0 0 0 10.6-.9zm.9 3.3l-.4-2-.6.1c-3.8.7-7.6 1-11.5 1-35.6 0-64.3-29.8-64.3-65h0-2c0 36.3 29.6 67 66.3 67 4 0 7.9-.4 11.8-1.1l.6-.1zm33.8-86.5c0-11.3-5.4-18.8-15.3-21.6l-.2 11.2c0 .4.2.7.5.9 0 0 2.6 1.8 4 3.8 1.3 1.9 1.7 4.2 1.7 4.3.1.6.6.9 1.2.9.5-.1.9-.5.9-1v-.1c0-.1-.4-2.8-2-5.2-1.2-1.8-3.2-3.3-4-4a356.04 356.04 0 0 1 .2-7.9c7.4 3.1 11.2 9.4 11.2 18.8 0 13.4-8.2 22.8-20.1 22.8-10.7 0-14.4-8.9-16.8-14.8l-.8-1.9c-.8-1.8-2-3-3.5-3.6-2.9-1.1-6.2.4-7.5 1-.5.2-.7.8-.5 1.3s.8.7 1.4.5c1-.5 3.8-1.7 5.9-.9 1 .4 1.8 1.2 2.4 2.5l.8 1.9c2.5 6 6.6 16 18.7 16 13 0 22.1-10.2 22.1-24.8zm-104.8 6l-5.5-3.6 6.5-.2-1.1 3.8zm5.6 3.9l-2.9-2.1 1.6-5.7 3.6-.2 1.3-4.5-17 1.6-1.4 5 13.7 10.1 1.2-4.1zm7.7-16c-.1.8-.6 2.3-1.1 3l3.6-.5s.6-.8 1-1.5c2.1-3.1 1-5.8-1.8-7.7l-12.4-8.5-2.4 3.5 11.4 7.7c2.1 1.5 2 2.8 1.8 4zm6.5-27.7l5.2 3.9-3.2 2.3-2-6.2h.1zm3.9 12.7l-1-3.5 4.9-3.5 3 2.1 3.8-2.7-14.3-9.3-4.2 3 4.4 16.4 3.5-2.5zm17.6-18.6l-3.1 9.3 4.7-1.1 1.6-6.4 4.4 4.9 4.9-1.2-6.9-6.9 2.7-8.4-4.5 1.1-1.4 5.7-3.9-4.4-4.8 1.1zm4.5 34.2c2.3-1 6.3-3.1 9.6-5 3.7-2.2 6.9-3.7 9.2-4.6 2.6-.9 5.5-1.8 8.9-1.6 3.6.2 4.8.7 6.1 1.2 1.4.6 3.6 1.9 3.6 1.9.5.3 1.1.1 1.4-.3.3-.5.1-1.1-.3-1.4-.1-.1-2.3-1.4-3.9-2-1.7-.7-3.1-1.2-6.8-1.4-3.8-.2-7 .8-9.7 1.8-3.1 1.1-6.9 3.2-9.6 4.7-3.3 1.9-7.2 3.9-9.4 4.9-2.6 1.1-6.5 2.4-7.2 2.4a1 1 0 1 0 0 2c1.4 0 6-1.6 8.1-2.5zm-1.3 29.1l-3.3.6c-.5.1-1 .6-.9 1.2s.7.9 1.2.8l3.4-.6c1.5-.3 2.6-1.2 3.3-2.5l2-2.7c.1-.2.2-.4.2-.6v-.1l-.4-5.1 3.7 2.7a11.45 11.45 0 0 0-.7 1.9c-.1.4-.3.9-.3 1.5 0 .7.4 1.6 1.1 2.2l1 .7c.3.1.3.5.3.7v2.4c0 .7.2 1.6.3 2.4.1.5.2 1.1.2 1.4-.1.2-.5.7-.7 1-.8 1.1-2 2.7-2.7 4.2l-.8 1.8c-.4 1-1 2.2-1.2 2.4-.4.2-2.3.6-3.4.8l-2 .4c-1.1.2-2.5.8-3.6 1.3-.5.2-1.1.5-1.3.5-.3 0-1.2-.3-1.8-.5-.8-.3-1.7-.6-2.5-.7-.7-.1-.8-.1-.8-.6v-.5c0-1.1-.9-2.2-2.8-3.5-.9-.6-2.2-1.9-2.3-3v-.1c0-.9.9-2 1.7-2.8l.6-.7c.4-.5.5-1 .5-1.5v-.2c1 .1 2 .1 2 .1.6 0 1.1-.4 1.1-.9 0-.6-.4-1-1-1.1l-3.6-.2a1.1 1.1 0 0 0-1 .6l-.1.4c0 .3.1.5.3.7.1 0 .3.3.3.6l-.1.2-.5.6c-.9 1-2.2 2.5-2.2 4.2v.3c.2 2.4 2.9 4.3 3.2 4.5 1.8 1.2 1.9 1.8 1.9 1.8v.4c0 1.2.4 2.3 2.5 2.7.7.1 1.5.4 2.3.6 1.4.4 2.2.7 2.8.5l1.7-.6 3.3-1.2 1.9-.4c2.1-.4 3.4-.6 4.1-1 .8-.5 1.3-1.6 2.1-3.3l.8-1.7c.6-1.3 1.7-2.8 2.5-3.8.8-1.1 1.1-1.5 1.1-1.9v-.3c0-.3-.1-.9-.3-1.8l-.3-2.2v-2.2c0-1-.1-1.7-.7-2 0 0-.5-.3-1-.7-.6-.4-.9-.9-.5-1.8l.9-2.4.1-.4c0-.3-.1-.6-.4-.8l-5.2-3.8-2.6-2 .6 9.2c-.5.6-1.6 2.1-1.9 2.7-.5.8-1.1 1.3-1.9 1.5z"/><path d="M642.5 1384.3l.7-.2c1.2-.4 2.5-.8 2.7-2.5s-1.6-3.6-5.1-7c-2.7-2.7-8.2-7.4-14.4-12.4-6-4.8-16.6-11.9-20.9-14.3-4.6-2.6-7.8-3.1-9.7-3.1-1.2 0-1.8.5-2.1 1-.6 1-.2 2.2.1 3 .5 1.1 2.4 2.5 3 2.9.5.3 1.1.2 1.4-.3.1-.2.2-.4.2-.6 0-.3-.2-.6-.4-.9-1-.6-2.1-1.6-2.3-2.1s-.3-.8-.3-1v-.1c.1 0 .2-.1.4-.1 1.6 0 4.5.5 8.6 2.9 4.2 2.4 14.7 9.4 20.6 14.1 6.1 4.9 11.6 9.6 14.2 12.3 1.8 1.8 4.5 4.4 4.5 5.3h0c0 .3 0 .4-1.2.8l-.7.2c-2.1.7-3.1 1.7-3.1 3 0 .4.1.9.3 1.5.1.4.3 1.2.3 1.7v.2c-.3.5-1.1.5-2.1.4-.6 0-1.1 0-1.6.1-.4.1-.8.3-1.2.6-.6.3-1.5.9-1.9.6-.3-.3-.5-.8-.5-1.5 0-.5.1-1.1.2-1.7l.4-1.6c.2-1 .4-1.7.4-2.2 0-.3 0-.5-.2-.8-.3-.5-.9-.8-2.3-1.3-.7-.2-1.9-.7-2.1-.9-.2-.3-.3-.9-.3-1.5v-.6c.1-.6.4-2.1.5-2.6l.1-.2c0-.5-.3-.9-.8-1-.6-.1-1.1.2-1.2.7-.1.2-.5 2-.6 2.9v.8c0 1 .2 2.1.8 2.8.5.6 1.4 1 3 1.5.3.1.8.3 1.1.4-.1.4-.2.9-.3 1.4l-.4 1.7c-.1.5-.3 1.2-.3 2.1 0 1.1.3 2.3 1.3 3.2 1.4 1.2 3.2.2 4.2-.4.3-.2.6-.3.8-.4h.9c1.2 0 2.9.1 3.9-1.3.7-1 .3-2.3 0-3.6-.1-.3-.2-.8-.2-1 0-.1.3-.6 1.7-1.1zm-45.7-14.5c-.6-.1-1.1.3-1.2.9-.1.5.3 1.1.9 1.2 4.1.7 4.9.5 5.6.3h.1c.8-.1 1.1-.6 1.2-.9l.1-.5c0-.7-.5-1.3-.9-1.8l-.1-.1c-.2-.2-.5-1.4-.5-2.6 0-.4.1-.8.2-1.2.3-1.3.4-2.5.5-3.5.1-.4.1-.8.1-1.1.3.1.6.2.9.2.9.3 1.6.5 2.3.4 1.2-.2 1.4-1.4 1.4-2.6v-1.7c0-2.1-3-2.2-4.6-2.3h-.4c-.2 0-.5-.1-.6-.2a14.23 14.23 0 0 1 1.8-1.9 1.08 1.08 0 0 0 .3-.7c0-.3-.1-.5-.3-.7-.4-.4-1-.4-1.5 0-2.5 2.4-2.5 3.1-2.5 3.4 0 1.2 1.3 2 2.6 2.2h.6c1.7.1 2.4.2 2.6.4v2l-1-.3c-1.1-.3-1.9-.6-2.6-.2-.8.4-.9 1.4-1.1 2.9-.1.9-.2 2-.5 3.2-.1.5-.2 1.1-.2 1.7 0 1.5.4 3.1.9 3.8l.2.3c-.5 0-1.5 0-4.1-.5zm1-14c-.5-.3-1.1-.1-1.4.4l-2.4 4c-.5.8-2.7 5.1-2.7 6.1 0 .8.4 1.5 5.3 2.2.6.1 1.1-.3 1.2-.9v-.2c0-.5-.4-.9-.9-1l-3.4-.7c.5-1.2 1.7-3.7 2.2-4.4.7-1 2.4-4 2.5-4.2l.1-.5c0-.3-.2-.7-.5-.9zm50.6 41.5c1.4.2 4.1-.4 4.9-1.6.6-.9 1.1-2.6 1.2-2.8.2-.5-.1-1.1-.7-1.3-.5-.2-1.1.1-1.3.7s-.6 1.8-.9 2.2c-.3.3-2.1.9-3 .8-.6-.1-1.8-.4-2.3-1.2-.3-.5-.4-1.1-.3-1.9.5-2.3 3-2.2 3.3-2.2.6 0 1.1-.4 1.1-1s-.4-1-1-1.1c-1.6-.1-4.8.6-5.5 3.8-.3 1.3-.1 2.5.6 3.5.9 1.3 2.5 1.9 3.7 2.1zm11.3 9.9c1-.6 1.4-1.8 1.4-3.2 0-.9-.2-1.9-.5-2.8-1.5-4-1.7-5.8-1.7-6.6 0-.4.1-.5.1-.6.6-.7 2-.6 4.6.1 2.7.7 5.9 1.9 5.9 1.9.5.2 1.1-.1 1.3-.6s-.1-1.1-.6-1.3c-.2-.1-3.3-1.2-6.1-1.9-2.6-.7-5.1-1.1-6.7.5-1.1 1.2-.8 3.8 1.2 9.2.7 2 .3 3.4 0 3.6-.4.2-1.6-.3-2.4-1.3h0c-2.9-3-4.5-3.9-5.7-3.4-1.4.6-2.5 4.4-3 6.7-.9 3.7-1.5 4.7-1.8 4.9-.3-.7-.6-2.8-.6-5v-1.5c0-1.2-.1-6.6-1.9-7.2-1.9-.7-4.8 2.3-4.8 2.4-.6.7-3.7 4.2-6.2 8.7-2.3 4.2-4.2 9.6-4.3 9.8-.2.5.1 1.1.6 1.3s1.1-.1 1.3-.6c0-.1 2-5.4 4.2-9.5 2.4-4.4 5.6-7.9 5.9-8.3.7-.8 1.9-1.5 2.5-1.8.3.8.7 3.3.7 4.9v1.9c0 2.1.2 5.4 1.3 6.5.3.3.8.5 1.2.5 2.2-.1 3.1-3.3 3.9-6.6.6-2.7 1.4-4.7 1.8-5.2.3.1 1.2.6 3.5 2.9h0c1.3 1.5 3.4 2.6 5 1.7zm-50.8 2.4c-2-2.1-4.8-2.9-4.9-2.9-.6-.1-1.1.2-1.3.7-.1.5.2 1.1.7 1.2 0 0 2.3.7 3.9 2.4.9.9 1.7 2.7 2 3.9.2 1 .3 3 .3 3 0 .6.5 1 1.1 1s1-.5 1-1.1c0-.1-.2-2.2-.4-3.3-.3-1.4-1.3-3.6-2.4-4.8zm20.4-14.2c-.1-.5-.5-.9-1.1-.8l-5.5 1.4-3 1 3.2-5.9c1.1-2.4 1.4-4.8 1.4-4.8v-.1c0-.5-.4-1-.9-1-.6-.1-1.1.3-1.1.9 0 0-.2 2.1-1.2 4.2-1 2.2-4.5 8.2-4.5 8.2-.2.4-.2.9.1 1.2s.8.4 1.2.3c.1 0 4.1-1.6 5.5-2l5.4-1.3c.5-.2.8-.7.6-1.2zm-49.7-3.2c-.6.1-1 .6-.9 1.1.1.6.6 1 1.1.9 0 0 3.6-.4 7.1.4 3.7.8 8.9 2.6 11.3 3.6l.4.2c9.5 3.9 11.6 4.1 12.5 3 1.6-1.9-.8-4.1-1.6-4.9a1.09 1.09 0 0 0-1.5 0c-.2.2-.3.4-.3.7s.1.5.3.8c1.2 1.1 1.5 1.6 1.5 1.9-.8 0-3.1-.5-10.2-3.4l-.4-.2c-2.5-1-7.8-2.9-11.7-3.7-3.8-.9-7.6-.5-7.7-.5zm33-106.5l10.2-7.2 10 7.2-3.7-11.7 10.2-7.2-12.5-.1-3.7-11.6-4 11.6-12.5.1 10 7.2zm50.9 1.3l5.5 11.2 2-12.3 12.1-1.8-10.8-5.9 2-12.3-8.7 8.7-10.9-5.9 5.5 11.3-8.7 8.7z"/></g></g><defs /></svg>