<svg xmlns="http://www.w3.org/2000/svg" width="194.615" height="396.85" viewBox="0 0 1123.1 2290.2"  shape-rendering="geometricPrecision" image-rendering="optimizeQuality" fill-rule="evenodd" xmlns:v="https://vecta.io/nano"><path d="M8297.2-14378h34897.898v32716.801H8297.2z" fill="#ebecec"/><g fill-rule="nonzero"><path d="M1123.1 2051.4l-238.4 238.8H238.5L.1 2051.4V240.9L235.9.1h644.9l238.4 240.8v354.2H746V423H371.9v510h512.8l238.4 237.8v880.6zm-378.5-184.1v-510H371.8v510h372.8z" fill="#121c4d"/><g fill="#bae8d9"><path d="M199.6 1130.5h749.8v960.2H691.2v-26h232.3v-908.3H199.6v908.3h232.3v26H173.7V197.2h775.7v396.3h-25.9V223.1H199.6zm450.7 988.8l-1.3-1.1 1.6.2-.3.9zm3.1-.3l2.7.3 1-3.1-11.8-1.2-1.1 2.8 8.8 8.2.4-1 .9-2.3-1.8-1.4.9-2.2zm-12.2 10h0c.4-.6.9-1.1 1.7-1.1.7 0 1.4.3 1.9.7 1.3.8 2.1 1.8 1.3 3.2l-4.9-2.8zm-4 1.3l9.7 5.9 1.8-2.9c.8-1.3 1.2-2.7.8-4.2-.4-1.6-1.5-2.7-2.8-3.6-1-.6-2.2-1.1-3.4-1.1-2 0-3.4 1.2-4.4 2.8l-1.6 3zm-2.8 8l.1-.1c.1-.1.4-.5.6-.5.1 0 .4.2.5.3.5.4.4.7 0 1.2l-1.2-.8zm4.3-.6c0-1-.4-1.9-1.2-2.6-.6-.5-1.4-.8-2.2-.8-1.2 0-2.2.8-2.9 1.6l-2.3 3.2 8.9 7.1.5-.6 1.4-2.1-2.9-2.6c.1 0 .2 0 .3.1l3.8 1.4 1.7-2.8-4.5-1.6c-.3-.1-.5-.2-.8-.2zm-53.3 36.5v-1.7l.9 1.3-.9.4zm2.2 2.1l1.6 2.2 3-1.2-6.7-9.8-2.8 1-.6 11.9 1-.2 2.4-.8-.1-2.3 2.3-.7zm39.7-30.1l2.4-2.7-2.2-1.7-4.5 4.7 8 8.1 4.9-5.1-2.3-1.8-2.2 2.5-1.2-1.1 2.3-2.5-2.2-1.8-2 2.3zm-9.3 8l5.4 6.7.6-.4 1.9-1.8-5.4-6.4 1.8-1.7-1.9-2-5.9 5 2 2zm-4.7 10.3c-.7.5-1.7.5-2.2.9l-.4.3 1.3 2.3h.4c.9 0 1.8-.5 2.6-1 1-.6 1.8-1.5 2-2.6.2-1 0-2-.6-2.8-.9-1.4-1.9-1.7-3.5-1.7-.6 0-1.2.1-1.7.1-.3 0-.4 0-.5-.3 0-.1-.1-.2-.1-.3 0-.2.3-.3.4-.4.6-.4 1.3-.5 1.9-.9l.6-.3-1.7-2.2-.4.1c-.8.2-1.4.4-2.1.9-.9.6-1.7 1.5-1.9 2.6-.2.9 0 1.7.4 2.5.8 1.3 1.9 1.7 3.4 1.7l1.7-.1c.3 0 .5 0 .6.2s.2.3.1.5c0 .2-.2.4-.4.4zm-13.4 4.3l-4.4-4.9-3.7 2 4.6 10.3.7-.3 2.3-1.3-2.1-4.2 3.6 3.9 2.1-1.2-.7-5.3 2.3 4.8 2.8-1.5-4.8-10.3-3.7 1.9zm55.6-64l-6.5.2-.9 4.1 10.8 3.1.3-.6.5-2.7-4.7-1.1 5.4-.2.4-2.4-4.5-2.9 5.2 1.4.6-3.1-11-3-1 4zm-169.9-147.2l3.3 18.4 8.4-16.9 18.9 2.3-13.7-12.8 8.4-16.9-16.8 8.9-13.7-12.8 3.2 18.4-16.8 9zm167.3 124.2c0-50.2-40.7-91.1-91-91.6v3.1c48.6.6 87.9 40.1 87.9 88.5 0 4.6-.4 9.2-1.1 13.7l3 .7a87.45 87.45 0 0 0 1.2-14.4zm-91-96.9v3.2h.7c24.8 0 48.5 9.8 66 27.3 17.6 17.5 27.4 41 27.4 65.8 0 2.7-.1 5.4-.4 8.1-.2 2.4-.5 4.9-.9 7.3l-.1.4 3.1.7.1-.4c.4-2.5.7-4.9.9-7.4.2-2.8.4-5.7.4-8.5 0-25.6-10.2-49.9-28.3-68-18.2-18.1-42.6-28.2-68.3-28.2h-.7zm100.4 95.6c0 5.7-.5 11.5-1.5 17.1l-.1.6 3 .7.1-.7c1-5.8 1.5-11.7 1.5-17.6 0-55.5-45.3-100.6-101-100.6h-2.5v3.1h2.5c54 0 97.9 43.8 97.9 97.5zm-187.7 1.5h-3.1c.6 50.5 42.3 91.2 93 90.6 4.5 0 8.9-.5 13.3-1.2l-.6-3c-4.2.7-8.5 1.1-12.8 1.1-49 .5-89.3-38.8-89.9-87.6zm104.1 95.2l.4-.1-.6-3.1-.4.1-7.4.9-8.2.4c-24.9 0-48.4-10-65.9-27.6-17.4-17.4-27.4-40.8-27.7-65.4v-.4h-3.2v.4c.3 25.4 10.7 49.6 28.6 67.7 18.1 18.1 42.4 28.5 68.1 28.5 5.4 0 10.8-.4 16.2-1.3zm1.3 5l-.6-3-.9.1a102.52 102.52 0 0 1-17.5 1.5c-54.2 0-97.9-45.3-97.9-98.9h0-3.1c0 55.2 45.1 101.9 101 101.9 6 0 12.1-.5 18-1.6l.9-.1zm51.6-131.7c0-17.2-8.2-28.5-23.3-33l-.4 17.1c0 .5.3 1 .7 1.3 0 0 4 2.7 6.1 5.7 2 3 2.5 6.5 2.5 6.5.1.8.9 1.4 1.8 1.3.8-.1 1.4-.8 1.4-1.5v-.2c0-.2-.6-4.2-3.1-7.8-1.9-2.7-4.8-5.1-6.2-6 0-1.1.2-8.3.2-12 11.3 4.7 17.1 14.3 17.1 28.6 0 20.4-12.6 34.7-30.6 34.7-16.3 0-21.9-13.5-25.6-22.5l-1.2-2.9c-1.2-2.7-3-4.6-5.4-5.4-4.5-1.7-9.5.6-11.4 1.5-.8.3-1.1 1.3-.8 2.1.4.8 1.3 1.1 2.1.8 1.6-.7 5.8-2.6 9-1.4 1.6.6 2.7 1.8 3.6 3.8l1.2 2.9c3.8 9.1 10.1 24.4 28.5 24.4 19.8 0 33.7-15.6 33.7-37.8zm-159.7 9.1l-8.3-5.5 9.9-.3-1.6 5.8zm8.5 5.9l-4.5-3.2 2.5-8.7 5.5-.3 1.9-6.8-25.9 2.5-2.1 7.6 20.9 15.3 1.8-6.3zm11.9-24.3c-.2 1.2-.9 3.5-1.7 4.5l5.4-.7 1.6-2.3c3.2-4.7 1.5-8.8-2.8-11.7l-18.9-12.9-3.7 5.3 17.3 11.8c3.2 2.3 3.1 4.2 2.7 6.1zm9.8-42.1l7.9 6-4.9 3.5-3.1-9.5h.1zm5.9 19.4l-1.5-5.3 7.4-5.3 4.5 3.1 5.7-4.1-21.8-14.1-6.4 4.6 6.8 24.9 5.3-3.8zm26.8-28.4l-4.6 14.2 7.1-1.8 2.4-9.7 6.7 7.5 7.5-1.8-10.6-10.5 4.2-12.8-6.9 1.6-2.1 8.8-5.9-6.8-7.4 1.8zm7 52c3.5-1.5 9.5-4.7 14.6-7.6 5.7-3.3 10.5-5.7 14-7 4-1.4 8.4-2.8 13.6-2.5 5.5.3 7.2 1 9.3 1.9 2.2.9 5.5 2.9 5.5 2.9.8.4 1.7.2 2.1-.5.5-.8.2-1.7-.5-2.1-.2-.1-3.6-2.2-5.9-3.1-2.5-1-4.7-1.8-10.3-2.1-5.8-.3-10.7 1.2-14.8 2.7-4.7 1.7-10.5 4.8-14.6 7.2-5 2.9-10.9 6-14.3 7.5-3.9 1.7-9.9 3.6-11 3.6-.9 0-1.6.7-1.6 1.5a1.58 1.58 0 0 0 1.6 1.6c2.1 0 9.1-2.5 12.3-3.9zm-2 44.4l-5 .9c-.7.1-1.5 1-1.3 1.8.2.9 1 1.3 1.9 1.3l5.1-.9c2.2-.4 4-1.8 5.1-3.8.4-.7 2-2.9 3-4.2.2-.2.3-.6.3-.9v-.1l-.6-7.8 5.6 4.1-1.1 2.8c-.2.6-.5 1.4-.5 2.3 0 1 .5 2.4 1.7 3.3l1.6 1.1c.4.2.5.8.5 1.1v3.6l.5 3.7.3 2.1-1.1 1.6c-1.3 1.7-3.1 4.1-4.1 6.4l-1.2 2.7c-.7 1.5-1.5 3.3-1.9 3.6-.6.4-3.4.9-5.1 1.2l-3 .6c-1.7.4-3.8 1.2-5.5 1.9l-2 .8c-.4 0-1.8-.5-2.7-.8l-3.9-1.1c-1.1-.2-1.3-.2-1.3-.9v-.8c0-1.7-1.4-3.4-4.3-5.3-1.3-.9-3.4-2.9-3.6-4.6v-.2c0-1.4 1.4-3 2.5-4.3l1-1.1c.6-.7.8-1.5.8-2.2l-.1-.3 3 .2c.9.1 1.6-.6 1.7-1.4.1-.9-.6-1.6-1.5-1.7l-5.5-.3c-.6 0-1.2.3-1.5.9l-.2.6c0 .4.2.8.4 1.1.1.1.5.5.5.9l-.1.3-.8 1c-1.4 1.6-3.3 3.7-3.3 6.3v.4c.3 3.7 4.5 6.6 4.9 6.9 2.8 1.9 2.9 2.7 2.9 2.7v.7c0 1.8.6 3.5 3.9 4.1 1 .2 2.3.6 3.4 1 2.2.7 3.3 1.1 4.3.8.5-.1 1.3-.4 2.6-1 1.6-.7 3.6-1.5 5-1.8l2.9-.6c3.2-.6 5.2-1 6.2-1.6 1.3-.8 2-2.5 3.1-5.1l1.2-2.6c.9-2 2.6-4.2 3.8-5.8 1.2-1.7 1.6-2.2 1.7-2.8v-.5c0-.5-.1-1.3-.4-2.8-.2-1.1-.4-2.4-.4-3.3v-2c0-.5.1-1 .1-1.4 0-1.5-.2-2.5-1.1-3.1l-1.6-1.1c-.9-.6-1.3-1.4-.8-2.8.1-.5 1-2.5 1.4-3.6l.1-.6c0-.5-.2-.9-.6-1.2l-8-5.8-4-3 1 14c-.8 1-2.4 3.2-2.9 4.1-.7 1.2-1.6 1.9-3 2.2z"/><path d="M589.4 2107.4l1-.3c1.8-.6 3.8-1.2 4.1-3.8s-2.4-5.4-7.7-10.7c-4.1-4.1-12.5-11.3-21.9-18.9-9.1-7.4-25.3-18.2-31.8-21.8-7-4-11.8-4.8-14.7-4.8-1.9 0-2.8.8-3.3 1.5-.9 1.5-.4 3.3.2 4.6.8 1.7 3.7 3.8 4.6 4.4.7.5 1.7.3 2.2-.4.2-.3.3-.6.3-.9 0-.5-.3-1-.7-1.3-1.4-1-3.2-2.5-3.5-3.2s-.4-1.2-.4-1.5v-.1c.1 0 .2-.1.6-.1 2.5 0 6.8.8 13.2 4.4s22.3 14.3 31.3 21.5c9.3 7.5 17.6 14.7 21.6 18.7 2.8 2.7 6.8 6.8 6.8 8.1v.1c0 .5 0 .6-1.9 1.2l-1.1.4c-3.1 1.1-4.7 2.6-4.7 4.6 0 .6.2 1.4.4 2.2.2.6.5 1.9.5 2.5l-.1.4c-.5.7-1.6.7-3.2.7-.9 0-1.7 0-2.4.2-.6.2-1.2.5-1.8.9-.9.5-2.3 1.3-2.9.9-.5-.4-.8-1.2-.8-2.4 0-.7.1-1.6.4-2.6l.6-2.4c.4-1.5.7-2.5.7-3.4 0-.4-.1-.8-.2-1.1-.4-.8-1.3-1.2-3.5-2-1-.4-2.8-1-3.2-1.4-.3-.4-.5-1.3-.5-2.4v-1c.1-1 .6-3.1.8-3.9l.1-.4c0-.7-.5-1.3-1.2-1.5-.8-.2-1.6.3-1.9 1.1-.1.3-.7 3-.9 4.4 0 .4-.1.8-.1 1.3 0 1.5.3 3.1 1.2 4.3.7.9 2.2 1.5 4.6 2.4.5.2 1.2.4 1.6.6-.1.6-.3 1.4-.5 2.1l-.6 2.6c-.2.7-.4 1.9-.4 3.3 0 1.7.4 3.5 2 4.8 2.2 1.8 4.8.3 6.4-.6.5-.2.9-.5 1.2-.6.2-.1.9-.1 1.4 0 1.8 0 4.4.1 5.9-2 1-1.5.5-3.6 0-5.4-.1-.5-.3-1.2-.3-1.5 0-.2.5-.9 2.6-1.6zm-69.7-21.9c-.8-.1-1.7.5-1.8 1.3a1.63 1.63 0 0 0 1.3 1.8c6.3 1 7.5.8 8.5.5h.1c1.2-.2 1.6-.9 1.8-1.3l.2-.8c0-1-.8-2-1.4-2.8l-.2-.2c-.3-.4-.8-2.1-.8-3.9 0-.6.1-1.3.2-1.9.5-2 .7-3.8.8-5.3l.2-1.7c.5.1 1 .3 1.4.4 1.3.4 2.5.8 3.5.6 1.9-.4 2.2-2.2 2.2-3.9v-1.3l-.1-1.2c0-3.2-4.5-3.4-6.9-3.5h-.7c-.4-.1-.7-.2-.9-.3.5-.7 1.6-1.9 2.7-2.9.3-.3.5-.7.5-1.1s-.1-.8-.4-1.1a1.57 1.57 0 0 0-2.2 0c-3.8 3.7-3.8 4.8-3.8 5.2 0 1.9 2 3.1 3.9 3.3l.9.1c2.6.1 3.6.4 4 .6v3.1l-1.6-.4c-1.6-.5-2.9-.9-4-.4-1.3.6-1.4 2.1-1.7 4.4-.1 1.4-.3 3.1-.7 4.9a10.9 10.9 0 0 0-.3 2.6c0 2.4.6 4.7 1.4 5.8l.3.4c-.7 0-2.3-.1-6.3-.7zm1.6-21.4c-.8-.4-1.7-.2-2.1.6l-3.6 6.1c-.8 1.2-4.2 7.8-4.2 9.3 0 1.3.6 2.2 8.1 3.4.9.1 1.7-.4 1.8-1.3v-.2c0-.8-.6-1.4-1.3-1.6-1.8-.2-4-.7-5.1-1 .7-1.8 2.5-5.6 3.3-6.7 1.1-1.5 3.7-6.1 3.8-6.3l.2-.7c0-.5-.3-1.1-.8-1.4zm77 63.2c2.1.3 6.2-.7 7.5-2.5.9-1.3 1.7-3.9 1.8-4.2.3-.8-.2-1.7-1-1.9-.8-.3-1.7.2-1.9 1-.3.9-.9 2.7-1.4 3.3-.5.5-3.1 1.4-4.5 1.2-.9-.1-2.7-.7-3.6-1.9-.5-.7-.7-1.6-.4-2.8.7-3.5 4.6-3.4 5-3.3.9.1 1.6-.6 1.7-1.5 0-.9-.6-1.6-1.5-1.7-2.4-.1-7.3.9-8.3 5.8-.4 2-.1 3.8.9 5.3 1.4 1.9 3.8 2.9 5.7 3.2zm17.2 15c1.5-.8 2.2-2.7 2.2-4.9 0-1.4-.3-3-.8-4.3-2.2-6.1-2.7-8.9-2.7-10.1 0-.6.1-.8.1-.9 1-1 3.1-1 7 .1 4 1.1 9 2.8 9 2.8.8.3 1.7-.1 2-.9s-.2-1.7-1-2c-.2-.1-5.1-1.8-9.2-2.9-3.9-1.1-7.8-1.7-10.2.8-1.6 1.8-1.2 5.7 1.9 14.1 1.1 3 .5 5.2 0 5.5-.6.3-2.4-.4-3.7-2h-.1c-4.4-4.6-6.8-6-8.7-5.2-2.2.9-3.9 6.7-4.6 10.2-1.3 5.6-2.3 7.1-2.8 7.5-.5-1.1-.9-4.2-.9-7.5 0-.6 0-1.3.1-1.9v-.3c0-1.8-.2-10-2.9-11-2.9-1-7.3 3.6-7.4 3.6-.9 1-5.7 6.4-9.5 13.3-3.4 6.5-6.4 14.6-6.5 14.9-.3.8.1 1.7.9 2s1.7-.2 2-1c0-.1 3-8.2 6.4-14.5 3.6-6.7 8.5-12.1 9-12.7 1.1-1.2 2.9-2.4 3.8-2.7.5 1.3 1 5 1 7.4v2.8c0 3.1.3 8.2 2 9.9.5.5 1.2.8 1.9.7 3.4-.2 4.8-5 5.9-10 1-4.1 2.2-7.1 2.8-7.9.5.1 1.8.8 5.3 4.4l-.1-.1c2 2.3 5.2 3.9 7.6 2.6zm-77.3 3.6c-3-3.2-7.2-4.4-7.4-4.5-.8-.2-1.7.3-1.9 1.1s.3 1.7 1.1 1.9c0 0 3.5 1 6 3.6 1.3 1.4 2.6 4.2 3 5.9.3 1.5.5 4.6.5 4.6.1.9.8 1.5 1.6 1.5.9 0 1.5-.8 1.5-1.7 0-.1-.2-3.3-.6-5-.5-2.2-1.9-5.5-3.7-7.4zm31.1-21.5c-.2-.8-.8-1.3-1.6-1.2l-8.3 2.1-4.6 1.6c1.7-3 3.8-6.9 4.8-8.9 1.7-3.6 2.1-7.2 2.1-7.4v-.2c0-.8-.6-1.5-1.4-1.5-.9-.1-1.6.5-1.7 1.4 0 0-.3 3.2-1.8 6.4-1.6 3.4-6.8 12.4-6.9 12.5-.3.6-.3 1.3.2 1.8.4.5 1.2.7 1.8.4.1 0 6.3-2.5 8.3-3l8.3-2c.8-.2 1.2-1 .9-1.9zm-75.8-4.9c-.9.1-1.5.9-1.4 1.7.1.9.9 1.5 1.7 1.4.1 0 5.5-.5 10.8.6 5.7 1.3 13.5 4 17.3 5.5l.6.3c14.4 5.9 17.6 6.2 19 4.6 2.5-2.9-1.2-6.3-2.4-7.4-.6-.6-1.6-.6-2.2.1-.3.3-.4.7-.4 1.1s.2.8.5 1.2c1.9 1.7 2.3 2.5 2.3 2.9-1.2 0-4.7-.8-15.5-5.2l-.6-.3c-3.8-1.6-11.9-4.4-17.7-5.7s-11.6-.7-11.8-.7zm50.3-162.2l15.5-10.9 15.2 10.9-5.6-17.8 15.5-11h-18.9l-5.7-17.8-6.1 17.8h-19l15.2 11zm77.6 2l8.3 17.1 3.1-18.7 18.4-2.7-16.5-9 3-18.7-13.2 13.1-16.5-8.9 8.2 17.2-13.2 13.2z"/></g></g><defs /></svg>