<svg xmlns="http://www.w3.org/2000/svg" width="215.921" height="396.85" viewBox="0 0 1250.5 2298.3"  shape-rendering="geometricPrecision" image-rendering="optimizeQuality" fill-rule="evenodd" xmlns:v="https://vecta.io/nano"><path d="M11053.7-14429h35021.699v32832.801H11053.7z" fill="#ebecec"/><g fill-rule="nonzero"><path d="M521.2 1362.1h252V858.8l-252 503.3zm-284.5 424.4L0 1546.3 773.2 0H1146v1362.1h104.5v424.4H1146v511.8H771.9v-70.4h1.3v-441.4H236.7z" fill="#121c4d"/><g fill="#bae8d9"><path d="M946.3 2298.3v-91.9h26v91.9h-26zm0-395.5v-318.2H182.4L876.1 197.8h96.3v1360.8h278.2v26H972.4v318.2h-26zm0-344.2V223.9H892L224.4 1558.6h722zm96.5 568.2l-1.3-1.1 1.6.2-.3.9zm3.1-.3l2.7.3 1-3.1-11.8-1.3-1.1 2.8 8.8 8.3.4-1 .9-2.3-1.8-1.4.9-2.2zm-12.3 10h0c.4-.6.9-1.1 1.7-1.1.7 0 1.4.3 1.9.7 1.3.8 2.1 1.8 1.3 3.3l-4.9-2.8zm-4 1.3l9.7 5.9 1.8-2.9c.8-1.3 1.2-2.7.8-4.2-.4-1.6-1.5-2.7-2.9-3.6a6.06 6.06 0 0 0-3.5-1.1c-2 0-3.4 1.2-4.4 2.8l-1.6 3zm-2.7 8.1l.1-.1c.1-.1.4-.5.6-.5.1 0 .4.2.5.3.5.4.4.7 0 1.2l-1.2-.8zm4.4-.6c0-1-.4-1.9-1.2-2.6-.7-.5-1.4-.8-2.2-.8-1.2 0-2.2.8-2.9 1.6l-2.3 3.2 8.9 7.1.5-.6 1.4-2.1-2.9-2.6c.1 0 .2 0 .3.1l3.9 1.4 1.8-2.8-4.5-1.6c-.3-.1-.5-.2-.8-.2zm-53.6 36.6v-1.7l.9 1.4-.9.4zm2.2 2.1l1.6 2.3 3-1.2-6.7-9.8-2.9 1-.6 12 1-.2 2.4-.8-.1-2.4 2.3-.7zm39.8-30.2l2.4-2.7-2.2-1.7-4.5 4.7 8.1 8.1 4.8-5.1-2.3-1.8-2.2 2.5-1.2-1 2.3-2.6-2.2-1.8-2 2.3zm-9.4 8l5.4 6.8.7-.4 1.9-1.9-5.4-6.4 1.8-1.7-2-2-5.8 5 2 2zm-4.6 10.3c-.7.5-1.7.5-2.3.9l-.4.3 1.3 2.3h.4c.9 0 1.8-.5 2.6-1 1-.6 1.8-1.5 2-2.6.2-1 0-2-.6-2.8-.9-1.4-1.9-1.7-3.5-1.7-.6 0-1.2.1-1.7.1-.3 0-.4 0-.5-.3 0-.1-.1-.2-.1-.3 0-.2.3-.3.4-.4.6-.4 1.3-.5 1.9-.9l.6-.3-1.7-2.2-.4.1c-.8.2-1.4.4-2.1.9-.9.6-1.7 1.5-1.9 2.6-.2.9 0 1.7.4 2.5.8 1.3 1.9 1.7 3.4 1.7l1.7-.1c.3 0 .5 0 .6.2s.2.3.1.5c0 .2-.2.4-.4.4zm-13.5 4.3l-4.4-4.8-3.7 2 4.6 10.3.7-.3 2.3-1.3-2.1-4.2 3.6 3.9 2.2-1.2-.8-5.3 2.3 4.8 2.8-1.5-4.8-10.3-3.7 1.8zm55.8-64.1l-6.5.2-1 4.1 10.9 3.1.3-.6.5-2.7-4.7-1.1 5.4-.2.5-2.5-4.6-2.8 5.2 1.4.6-3.2-11-2.9-1 4zm-170.5-147.8l3.3 18.5 8.5-17 18.9 2.4-13.7-12.9 8.4-17-16.9 9-13.7-12.9 3.2 18.5-16.9 9zm167.9 124.7c0-50.3-40.8-91.4-91.3-91.9v3.1c48.8.6 88.3 40.2 88.3 88.9 0 4.6-.4 9.2-1.1 13.8l3 .7a87.75 87.75 0 0 0 1.2-14.5zm-91.4-97.3v3.2h.7c24.9 0 48.6 9.8 66.2 27.4s27.5 41.2 27.5 66c0 2.7-.1 5.4-.4 8.1-.2 2.4-.5 4.9-.9 7.3l-.1.4 3.1.7.1-.4c.4-2.5.7-4.9 1-7.4.2-2.9.4-5.7.4-8.6 0-25.7-10.2-50.1-28.4-68.2s-42.7-28.3-68.5-28.3h-.7zm100.8 95.9c0 5.8-.5 11.5-1.5 17.2l-.1.6 3 .7.1-.8c1-5.8 1.6-11.8 1.6-17.7 0-55.7-45.5-101-101.4-101H954v3.1h2.5c54.2 0 98.3 43.9 98.3 97.9zm-188.3 1.6h-3.1c.6 50.7 42.4 91.5 93.4 91 4.5 0 9-.5 13.4-1.2l-.6-3c-4.2.7-8.5 1.1-12.8 1.1-49.2.5-89.7-38.9-90.2-87.9zm104.4 95.5l.4-.1-.6-3.1-.4.1-7.4.9-8.2.4c-25 0-48.5-10.1-66.1-27.7-17.4-17.5-27.5-41-27.8-65.6v-.4h-3.2v.4c.3 25.5 10.7 49.8 28.7 67.9 18.2 18.2 42.6 28.6 68.4 28.6 5.4 0 10.9-.4 16.2-1.3zm1.3 5l-.6-3-.9.1c-5.8 1-11.7 1.5-17.5 1.5-54.4 0-98.2-45.5-98.3-99.2h0-3.1c0 55.4 45.3 102.3 101.3 102.3 6.1 0 12.1-.5 18.1-1.6l.9-.1zm51.8-132.1c0-17.3-8.2-28.6-23.3-33.1l-.4 17.2c0 .5.3 1 .7 1.3 0 0 4 2.7 6.1 5.7 2 3 2.5 6.5 2.6 6.5.1.8.9 1.4 1.8 1.3.8-.1 1.4-.8 1.4-1.5v-.2c0-.2-.6-4.3-3.1-7.9-1.9-2.7-4.9-5.1-6.2-6.1 0-1.1.2-8.4.2-12 11.3 4.7 17.2 14.4 17.2 28.7 0 20.5-12.6 34.8-30.7 34.8-16.4 0-22-13.6-25.7-22.6l-1.2-3c-1.2-2.7-3.1-4.6-5.4-5.5-4.5-1.7-9.5.6-11.4 1.5-.8.3-1.1 1.3-.8 2.1.4.8 1.3 1.1 2.1.8 1.6-.7 5.8-2.7 9-1.4 1.6.6 2.8 1.8 3.6 3.8l1.2 2.9c3.8 9.2 10.1 24.5 28.6 24.5 19.9 0 33.8-15.6 33.8-37.9zm-160.2 9.1l-8.4-5.6 10-.3-1.6 5.9zm8.5 5.9l-4.5-3.2 2.5-8.8 5.5-.4 1.9-6.8-26 2.5-2.1 7.6 21 15.4 1.8-6.3zm11.9-24.4c-.2 1.2-.9 3.5-1.7 4.5l5.5-.7 1.6-2.3c3.3-4.7 1.5-8.8-2.8-11.8l-19-12.9-3.7 5.3 17.4 11.8c3.3 2.3 3.1 4.3 2.7 6.1z"/><path d="M894 2006.2l7.9 6-4.9 3.6-3.1-9.5h.1zm6 19.5l-1.5-5.3 7.4-5.3 4.5 3.1 5.8-4.2-21.9-14.2-6.4 4.7 6.8 25 5.3-3.8zm26.9-28.6l-4.6 14.3 7.1-1.8 2.4-9.8 6.7 7.6 7.6-1.8-10.7-10.6 4.2-12.8-6.9 1.6-2.2 8.8-5.9-6.8-7.3 1.8zm7 52.3c3.5-1.6 9.6-4.7 14.7-7.7 5.7-3.3 10.5-5.7 14.1-7 4-1.4 8.4-2.8 13.6-2.5 5.5.3 7.3 1 9.3 1.9 2.2.9 5.5 2.9 5.5 2.9.8.4 1.7.2 2.2-.5.5-.8.2-1.7-.5-2.2-.2-.1-3.6-2.2-6-3.1-2.5-1-4.8-1.8-10.3-2.1-5.8-.3-10.7 1.2-14.9 2.7-4.7 1.7-10.5 4.8-14.6 7.2-5 2.9-10.9 6-14.4 7.5-3.9 1.7-9.9 3.6-11 3.6-.9 0-1.6.7-1.6 1.5a1.58 1.58 0 0 0 1.6 1.6c2.1 0 9.2-2.5 12.3-3.9zm-2 44.5l-5 .9c-.7.1-1.5 1-1.4 1.8.2.9 1 1.3 1.9 1.3l5.1-.9c2.2-.4 4-1.8 5.1-3.8.4-.7 2-2.9 3-4.2.2-.2.3-.6.3-.9v-.1l-.6-7.8 5.6 4.1-1.1 2.9c-.2.6-.5 1.4-.5 2.4s.6 2.4 1.7 3.3l1.6 1.1c.4.2.5.8.5 1.1v3.6l.5 3.7.3 2.1-1.1 1.6c-1.3 1.8-3.1 4.1-4.1 6.4l-1.2 2.7c-.7 1.5-1.5 3.3-1.9 3.6-.6.4-3.4.9-5.2 1.2l-3 .6c-1.7.4-3.8 1.2-5.5 2l-2 .8c-.4 0-1.8-.5-2.7-.8l-3.9-1.1c-1.1-.2-1.3-.2-1.3-.9v-.8c0-1.7-1.4-3.4-4.3-5.3-1.3-.9-3.4-2.9-3.6-4.6v-.2c0-1.4 1.4-3 2.5-4.3l1-1.1c.6-.7.8-1.5.8-2.2l-.1-.3 3 .2c.9.1 1.6-.6 1.7-1.4.1-.9-.6-1.6-1.5-1.7l-5.6-.3c-.6 0-1.2.3-1.5.9l-.2.6c0 .4.2.8.4 1.1.1.1.5.5.5.9l-.1.3-.8 1c-1.4 1.6-3.3 3.8-3.3 6.4v.4c.3 3.7 4.5 6.6 5 6.9 2.8 1.9 2.9 2.7 2.9 2.7v.7c0 1.8.7 3.5 3.9 4.1 1 .2 2.3.6 3.5 1 2.2.7 3.4 1.1 4.3.8.5-.1 1.3-.4 2.6-1 1.6-.7 3.6-1.5 5.1-1.8l2.9-.6c3.2-.6 5.3-1 6.2-1.6 1.3-.8 2-2.5 3.1-5.1l1.2-2.6c.9-2 2.6-4.2 3.8-5.8 1.2-1.7 1.6-2.2 1.7-2.8v-.5c0-.5-.1-1.3-.4-2.8-.2-1.1-.4-2.4-.4-3.3v-2c0-.5.1-1 .1-1.4 0-1.5-.2-2.5-1.1-3.1l-1.6-1.1c-.9-.6-1.4-1.4-.8-2.8.1-.5 1-2.5 1.4-3.6l.1-.6c0-.5-.2-.9-.6-1.2l-8-5.8-4-3 1 14c-.8 1-2.4 3.2-2.9 4.1-.7 1.2-1.6 1.9-3 2.2z"/><path d="M981.6 2114.9l1-.3c1.8-.6 3.8-1.2 4.1-3.8s-2.4-5.5-7.7-10.7c-4.1-4.1-12.5-11.4-22-19-9.2-7.4-25.4-18.2-31.9-21.9-7-4-11.9-4.8-14.8-4.8-1.9 0-2.8.8-3.3 1.5-.9 1.5-.4 3.3.2 4.6.8 1.7 3.7 3.8 4.6 4.5.7.5 1.7.3 2.2-.4.2-.3.3-.6.3-.9 0-.5-.3-1-.7-1.3-1.5-1-3.2-2.5-3.5-3.2s-.4-1.2-.4-1.5v-.1c.1 0 .2-.1.6-.1 2.5 0 6.8.8 13.2 4.4s22.4 14.3 31.5 21.6c9.4 7.6 17.7 14.7 21.7 18.8 2.8 2.7 6.9 6.8 6.9 8.1v.1c0 .5 0 .6-1.9 1.2l-1.1.4c-3.2 1.1-4.8 2.6-4.8 4.6 0 .6.2 1.4.4 2.2.2.6.5 1.9.5 2.5l-.1.4c-.5.7-1.6.7-3.2.7-.9 0-1.7 0-2.4.2-.6.2-1.2.5-1.8.9-.9.5-2.4 1.3-2.9.9s-.8-1.2-.8-2.4c0-.7.1-1.6.4-2.6l.6-2.4c.4-1.5.7-2.5.7-3.4 0-.4-.1-.8-.2-1.2-.4-.8-1.3-1.2-3.5-2-1-.4-2.9-1-3.3-1.4-.3-.4-.5-1.3-.5-2.4v-1c.1-1 .6-3.2.8-3.9l.1-.4c0-.7-.5-1.3-1.2-1.5-.8-.2-1.7.3-1.9 1.1-.1.3-.7 3-.9 4.4 0 .4-.1.8-.1 1.3 0 1.5.3 3.1 1.2 4.3.7.9 2.2 1.5 4.6 2.4.5.2 1.2.4 1.6.6-.1.6-.3 1.4-.5 2.1l-.6 2.6c-.2.7-.4 1.9-.4 3.3 0 1.7.4 3.6 2 4.8 2.2 1.8 4.8.3 6.4-.6.5-.2.9-.5 1.2-.6.2-.1.9-.1 1.4 0 1.8 0 4.4.1 5.9-2.1 1-1.5.5-3.6 0-5.4-.1-.5-.3-1.2-.3-1.5 0-.2.5-.9 2.6-1.6zm-69.9-22c-.8-.1-1.7.5-1.8 1.3a1.63 1.63 0 0 0 1.3 1.8c6.3 1 7.5.8 8.5.5h.1c1.2-.2 1.6-.9 1.8-1.3l.2-.8c0-1-.8-2-1.4-2.8l-.2-.2c-.3-.4-.8-2.1-.8-3.9 0-.6.1-1.3.2-1.9.5-2 .7-3.9.8-5.3l.2-1.7c.5.1 1 .3 1.4.4 1.3.4 2.5.8 3.5.6 1.9-.4 2.2-2.2 2.2-3.9v-1.3l-.1-1.2c0-3.2-4.5-3.4-7-3.5h-.7c-.4-.1-.7-.2-.9-.3.5-.7 1.6-1.9 2.7-2.9.3-.3.5-.7.5-1.1s-.1-.8-.4-1.1a1.57 1.57 0 0 0-2.2 0c-3.8 3.7-3.8 4.8-3.8 5.3 0 1.9 2 3.1 4 3.3l.9.1c2.6.1 3.6.4 4 .6v3.1l-1.6-.4c-1.6-.5-2.9-.9-4-.4-1.3.6-1.4 2.1-1.7 4.4-.1 1.4-.3 3.1-.7 4.9a10.9 10.9 0 0 0-.3 2.6c0 2.4.6 4.8 1.4 5.8l.3.4c-.7 0-2.3-.1-6.3-.7zm1.6-21.5c-.8-.4-1.7-.2-2.1.6l-3.6 6.1c-.8 1.2-4.2 7.8-4.2 9.3 0 1.3.6 2.2 8.1 3.4.9.1 1.7-.4 1.8-1.3v-.2c0-.8-.6-1.4-1.3-1.6-1.8-.2-4-.7-5.2-1 .7-1.8 2.6-5.6 3.3-6.8 1.1-1.6 3.7-6.2 3.8-6.4l.2-.8c0-.5-.3-1.1-.8-1.4zm77.3 63.5c2.1.3 6.2-.7 7.5-2.5.9-1.3 1.7-3.9 1.8-4.2.3-.8-.2-1.7-1.1-1.9-.8-.3-1.7.2-1.9 1-.3.9-.9 2.7-1.4 3.4-.5.5-3.1 1.4-4.5 1.2-.9-.1-2.7-.7-3.6-1.9-.5-.7-.7-1.6-.4-2.8.7-3.5 4.6-3.4 5.1-3.4.9.1 1.6-.6 1.7-1.5 0-.9-.6-1.6-1.5-1.7-2.4-.1-7.3.9-8.3 5.9-.4 2-.1 3.8.9 5.3 1.4 2 3.8 2.9 5.7 3.2zm17.3 15c1.6-.8 2.2-2.8 2.2-4.9 0-1.4-.3-3-.8-4.3-2.2-6.2-2.7-8.9-2.7-10.1 0-.6.1-.8.1-.9 1-1 3.1-1 7.1.1 4.1 1.1 9 2.8 9 2.8.8.3 1.7-.1 2-.9s-.2-1.7-1-2c-.2-.1-5.1-1.8-9.3-2.9-3.9-1.1-7.9-1.7-10.2.8-1.7 1.8-1.2 5.7 1.9 14.1 1.1 3 .5 5.2 0 5.5-.6.3-2.4-.4-3.7-2h-.1c-4.4-4.6-6.8-6-8.8-5.2-2.2.9-3.9 6.8-4.6 10.2-1.3 5.6-2.3 7.1-2.8 7.5-.5-1.1-.9-4.3-.9-7.6 0-.6 0-1.3.1-1.9v-.3c0-1.8-.2-10-2.9-11-2.9-1-7.3 3.6-7.4 3.6-.9 1-5.7 6.4-9.5 13.3-3.4 6.5-6.4 14.6-6.5 14.9-.3.8.1 1.7.9 2s1.7-.2 2-1c0-.1 3-8.3 6.4-14.5 3.6-6.8 8.5-12.1 9-12.7 1.1-1.2 2.9-2.4 3.8-2.7.5 1.3 1 5 1 7.5v2.8c0 3.1.3 8.2 2 10 .5.5 1.2.8 1.9.7 3.4-.2 4.8-5.1 6-10.1 1-4.1 2.2-7.1 2.8-7.9.5.1 1.9.8 5.3 4.4l-.1-.1c2 2.3 5.2 3.9 7.6 2.7zm-77.6 3.6c-3.1-3.3-7.3-4.4-7.4-4.5-.9-.2-1.7.3-1.9 1.1s.3 1.7 1.1 1.9c0 0 3.6 1 6 3.6 1.3 1.4 2.6 4.2 3 5.9.3 1.5.5 4.6.5 4.6.1.9.8 1.5 1.7 1.5s1.5-.8 1.5-1.7c0-.1-.2-3.4-.6-5.1-.5-2.2-2-5.5-3.7-7.4zm31.2-21.6c-.2-.8-.8-1.3-1.7-1.2l-8.4 2.1-4.6 1.6c1.7-3 3.9-6.9 4.8-9 1.7-3.7 2.1-7.3 2.1-7.4v-.2c0-.8-.6-1.5-1.4-1.6-.9-.1-1.6.5-1.7 1.4 0 0-.3 3.3-1.8 6.4-1.6 3.4-6.8 12.5-6.9 12.5-.3.6-.3 1.3.2 1.8.4.5 1.2.7 1.8.4.1 0 6.3-2.5 8.4-3.1l8.3-2c.8-.2 1.2-1 .9-1.9zm-76.1-4.9c-.9.1-1.5.9-1.4 1.7.1.9.9 1.5 1.7 1.4.1 0 5.5-.5 10.8.7 5.7 1.3 13.6 4 17.3 5.6l.6.3c14.5 6 17.7 6.2 19.1 4.6 2.5-2.9-1.2-6.3-2.4-7.4-.6-.6-1.6-.6-2.2.1-.3.3-.4.7-.4 1.1s.2.8.5 1.2c1.9 1.7 2.3 2.5 2.3 2.9-1.2 0-4.7-.8-15.6-5.2l-.6-.3c-3.8-1.6-11.9-4.4-17.8-5.7s-11.6-.8-11.8-.7zm50.5-162.8l15.6-10.9 15.2 11-5.6-17.9 15.6-11-19.1-.1-5.6-17.8-6.2 17.8-19 .1 15.2 11zm77.8 2l8.4 17.2 3.1-18.8 18.4-2.7-16.5-9 3.1-18.8-13.3 13.2-16.6-8.9 8.3 17.2-13.3 13.3z"/></g></g><defs /></svg>