<svg xmlns="http://www.w3.org/2000/svg" width="109.746" height="188.976" viewBox="0 0 527.2 907.7"  shape-rendering="geometricPrecision" image-rendering="optimizeQuality" fill-rule="evenodd" xmlns:v="https://vecta.io/nano"><path d="M-5.6 1235.9h29047.9v29047.9H-5.6z" fill="#e6e6e6"/><g fill-rule="nonzero"><path d="M376.6 907.7L341 705.6H186.2l-35.6 202.1H85.5l-2.7-5.4-21.6-.1-3.3 5.5H0L159.8 0h207.6l159.8 907.7h-61.3l-4.7-5.4H441l-2.7 5.5h-61.7zm-65.1-369.8l-47.8-271.6-47.9 271.6h95.7z" fill="#bae8d9"/><path d="M57.9 907.7l147-837.5h117.2l143.8 837.5h-27.6l-46.9-273.2H133.5l-48 273.2H57.9zm328.8-300.4L299.2 97.4h-71.4l-89.5 509.9h248.4z" fill="#121c4d"/></g><defs /></svg>