<svg xmlns="http://www.w3.org/2000/svg" width="93.112" height="188.976" viewBox="0 0 395.8 803.3"  shape-rendering="geometricPrecision" image-rendering="optimizeQuality" fill-rule="evenodd" xmlns:v="https://vecta.io/nano"><path d="M-534.5 1093.6h25704.699v25704.699H-534.5z" fill="#e6e6e6"/><g fill-rule="nonzero"><path d="M130.7 327.2h134.2V148.3H130.7v178.9zm0 327.7h134.2V476H130.7v178.9zm265.1 64.6L312 803.3H0V0h312l83.8 84.5v246.9l-50.4 69.5 50.4 71.2v247.5z" fill="#bae8d9"/><path d="M65.3 62.1h277.1v269.3l-61.5 69.4 61.5 70.7v269.7H53.3V62.1h12zm12 326.6h182.2l58.8-66.3V86.2H77.4v302.5zm182.1 24.1H77.3v304.3h240.9V480.5l-58.9-67.7z" fill="#121c4d"/></g><defs /></svg>