<svg xmlns="http://www.w3.org/2000/svg" width="147.247" height="188.976" viewBox="0 0 4251.2 5456.1"  shape-rendering="geometricPrecision" image-rendering="optimizeQuality" fill-rule="evenodd" xmlns:v="https://vecta.io/nano"><path d="M-67819.5 7428.2h174594.406v174594.406H-67819.5z" fill="#e6e6e6"/><g fill-rule="nonzero"><path d="M4251.2 0l-803.9 5456.1h-905.1l-416.6-2357.6L1707 5456.1H801.8L0 0h375.2l25 32.6h124.6L541 0h367.3l364.4 2789.1L1759.2 0h733.9l483.4 2792.6L3339.8 0h366.5l16.1 32.9h117.1l32-32.9z" fill="#bae8d9"/><path d="M541.1 0l743.2 4790.3 707.8-4368.2h252.1l728.9 4368.8L3706.1 0h165.3l-770 5033.8-253 2.2-729.8-4374.3L1410 5034.8h-252.8L375.3 0z" fill="#121c4d"/></g><defs /></svg>