<svg xmlns="http://www.w3.org/2000/svg" width="195.224" height="396.85" viewBox="0 0 977.4 1986.8"  shape-rendering="geometricPrecision" image-rendering="optimizeQuality" fill-rule="evenodd" xmlns:v="https://vecta.io/nano"><path d="M10688.7-12473.6h30275.5v28383.301H10688.7z" fill="#ebecec"/><g fill-rule="nonzero"><path d="M977.4 1779.6l-206.9 207.2H205.7L0 1779.6v-320.2h322.6v160.5H654v-442.4H300.2V809.3H654V366.9H322.6v149.3H0V208.9L208 0h562.5l206.9 208.9v610.8L854 994.1l123.4 173.5z" fill="#121c4d"/><g fill="#bae8d9"><path d="M147.4 516.2V171.1h677.2V814L666.7 992.1l157.9 180.1v641.6H601.1v-22.5h201v-610.7l-155.4-177.3H299.5v-22.5h347.3l155.4-175.3v-612H170v322.6h-22.5zm228.8 1297.6H147.4v-355.1h22.5v332.6h206.3v22.5zm189.5 24.8l-1.1-.9 1.4.2-.3.8zm2.7-.2l2.4.2.8-2.7-10.2-1.1-1 2.4 7.6 7.2.4-.9.7-2-1.6-1.2.8-1.9zm-10.7 8.6h0c.3-.5.8-.9 1.4-.9s1.2.3 1.7.6c1.1.7 1.8 1.6 1.1 2.8l-4.3-2.4zm-3.5 1.1l8.4 5.1 1.5-2.5c.7-1.1 1-2.4.7-3.6-.3-1.4-1.3-2.4-2.5-3.1-.9-.6-1.9-1-3-1-1.7 0-3 1-3.8 2.5l-1.4 2.6zm-2.3 7l.1-.1c.1-.1.4-.5.5-.5a.76.76 0 0 1 .4.2c.4.3.3.6 0 1l-1-.7zm3.8-.5c0-.8-.4-1.7-1-2.2-.6-.4-1.2-.7-1.9-.7-1 0-1.9.7-2.5 1.4l-2 2.8 7.7 6.2.4-.6 1.2-1.9-2.5-2.2c.1 0 .2 0 .2.1l3.3 1.2 1.5-2.5-3.9-1.4c-.2-.1-.5-.1-.7-.2zm-46.3 31.6v-1.5l.8 1.2-.8.3zm1.9 1.9l1.4 1.9 2.6-1.1-5.8-8.5-2.5.9-.5 10.4.9-.2 2.1-.7-.1-2 2-.6zm34.4-26.1l2.1-2.4-1.9-1.5-3.9 4.1 7 7 4.2-4.4-2-1.6-1.9 2.2-1.1-.9 2-2.2-1.9-1.6-1.7 2zm-8.1 6.8l4.7 5.9.5-.3 1.7-1.7-4.6-5.5 1.5-1.5-1.7-1.7-5.1 4.3 1.8 1.7zm-4 9c-.6.4-1.5.5-1.9.8l-.4.3 1.1 2h.4c.8 0 1.6-.4 2.2-.8.8-.5 1.5-1.3 1.8-2.3.2-.8 0-1.7-.5-2.4-.7-1.2-1.7-1.5-3-1.5-.5 0-1 0-1.5.1-.2 0-.3 0-.5-.2 0-.1-.1-.1 0-.2 0-.1.3-.3.3-.3.5-.3 1.1-.5 1.6-.8l.5-.3-1.5-1.9-.3.1c-.7.2-1.2.4-1.8.7-.8.5-1.5 1.3-1.6 2.2-.2.7 0 1.5.4 2.2.7 1.1 1.7 1.5 3 1.5l1.5-.1c.2 0 .4 0 .6.2.1.1.1.3.1.5s-.2.3-.3.4zm-11.7 3.7l-3.8-4.2-3.2 1.7 4 9 .6-.3 2-1.1-1.8-3.7 3.1 3.4 1.9-1.1-.7-4.6 2 4.3 2.4-1.4-4.1-8.9-3.3 1.6zm48.3-55.5l-5.7.2-.8 3.6 9.4 2.7.3-.6.4-2.3-4-1 4.6-.2.4-2.1-3.9-2.4 4.5 1.2.5-2.8-9.5-2.5-.9 3.5zm-147.4-127.7l2.9 15.9 7.3-14.6 16.3 2-11.8-11.1 7.2-14.7-14.6 7.8-11.8-11.1 2.8 15.9-14.6 7.8zM567.9 1806c0-43.5-35.3-79-79-79.5v2.7c42.2.5 76.3 34.8 76.3 76.8 0 4-.3 8-1 11.9l2.6.6c.7-4.1 1-8.3 1-12.5zm-78.9-84v2.8h.6c21.5 0 42 8.5 57.3 23.7 15.2 15.2 23.8 35.6 23.8 57a81.93 81.93 0 0 1-.3 7c-.2 2.1-.4 4.2-.8 6.3v.3l2.7.6.1-.4c.4-2.1.6-4.3.8-6.4a91.53 91.53 0 0 0 .3-7.4c0-22.2-8.8-43.3-24.6-59S512 1722 489.7 1722h-.6zm87.1 82.9c0 5-.4 10-1.3 14.9l-.1.5 2.6.6.1-.6c.9-5 1.3-10.2 1.3-15.3 0-48.1-39.3-87.3-87.6-87.3h-2.2v2.7h2.2c46.8 0 85 38 85 84.6zm-162.9 1.4h-2.7c.5 43.8 36.7 79.1 80.7 78.6 3.9 0 7.7-.4 11.6-1l-.5-2.6c-3.7.6-7.4.9-11.1 1-42.5.5-77.5-33.6-78-76zm90.3 82.5h.3l-.5-2.7h-.3c-2.1.4-4.3.6-6.4.8l-7.1.3c-21.6 0-42-8.7-57.1-23.9-15.1-15.1-23.8-35.4-24-56.7v-.3h-2.8v.4c.3 22.1 9.2 43.1 24.8 58.7 15.7 15.7 36.8 24.7 59.1 24.7 4.7 0 9.4-.4 14-1.2zm1.2 4.3l-.5-2.6-.7.1c-5 .9-10.1 1.3-15.1 1.3-47 0-84.9-39.3-84.9-85.8h0-2.7c0 47.9 39.1 88.4 87.6 88.4 5.2 0 10.5-.5 15.6-1.4l.8-.1zm44.8-114.2c0-15-7.1-24.8-20.2-28.6l-.3 14.8c0 .5.2.9.6 1.2 0 0 3.4 2.3 5.3 5 1.8 2.6 2.2 5.6 2.2 5.6.1.7.8 1.2 1.5 1.1s1.2-.7 1.2-1.3v-.2c0-.1-.5-3.7-2.7-6.8-1.6-2.4-4.2-4.4-5.3-5.2a609.53 609.53 0 0 1 .2-10.4c9.8 4.1 14.9 12.4 14.9 24.8 0 17.7-10.9 30.1-26.5 30.1-14.2 0-19-11.7-22.2-19.5l-1.1-2.6c-1.1-2.4-2.6-4-4.7-4.7-3.9-1.5-8.2.5-9.9 1.3-.7.3-1 1.1-.7 1.8s1.1 1 1.8.7c1.3-.6 5-2.3 7.8-1.2 1.3.5 2.4 1.6 3.1 3.3l1.1 2.5c3.3 7.9 8.7 21.2 24.7 21.2 17.2 0 29.2-13.5 29.2-32.8zm-138.6 7.9l-7.2-4.8 8.6-.2-1.4 5.1zm7.4 5.1l-3.9-2.8 2.1-7.6 4.8-.3 1.7-5.9-22.5 2.2-1.8 6.6 18.1 13.3 1.5-5.5zm10.3-21.1c-.2 1-.8 3-1.4 3.9l4.7-.6s.8-1.1 1.3-2c2.8-4.1 1.3-7.6-2.4-10.2l-16.4-11.2-3.2 4.6 15 10.2c2.8 2 2.7 3.7 2.4 5.3zm8.5-36.5l6.9 5.2-4.3 3.1-2.7-8.2h.1zm5.2 16.8l-1.3-4.6 6.4-4.6 3.9 2.7 5-3.6-18.9-12.3-5.6 4 5.9 21.6 4.6-3.3zm23.2-24.6l-4 12.3 6.2-1.5 2.1-8.5 5.7 6.6 6.6-1.6-9.2-9.1 3.6-11.2-6 1.5-1.9 7.6-5.1-5.9-6.3 1.5zm6 45.1c3.1-1.3 8.3-4.1 12.7-6.6 4.9-2.8 9.1-4.9 12.2-6 3.5-1.2 7.2-2.4 11.8-2.2 4.8.3 6.3.9 8.1 1.6 1.9.7 4.7 2.5 4.8 2.5.7.4 1.5.2 1.9-.5s.2-1.5-.5-1.9c-.1-.1-3.1-1.9-5.2-2.7-2.2-.9-4.1-1.6-8.9-1.8-5-.3-9.3 1.1-12.8 2.3-4.1 1.5-9.1 4.2-12.6 6.2-4.3 2.5-9.5 5.2-12.4 6.5-3.4 1.5-8.6 3.1-9.5 3.1-.7 0-1.4.6-1.4 1.3s.6 1.4 1.3 1.4c1.8 0 7.9-2.2 10.7-3.3zm-1.7 38.5l-4.4.8c-.6.1-1.3.8-1.2 1.6s.9 1.2 1.6 1.1l4.4-.8c1.9-.4 3.5-1.5 4.4-3.3l2.6-3.6c.2-.2.3-.5.3-.8v-.1l-.5-6.8 4.9 3.5-.9 2.5c-.1.5-.4 1.2-.4 2 0 .9.5 2.1 1.5 2.8l1.4.9c.4.1.4.7.4.9v3.2l.4 3.2.3 1.8-1 1.4c-1.1 1.5-2.7 3.6-3.6 5.5l-1 2.3c-.6 1.3-1.3 2.9-1.6 3.1-.5.3-3 .8-4.5 1l-2.6.5c-1.4.3-3.3 1.1-4.8 1.7-.6.3-1.5.6-1.7.7-.4 0-1.6-.4-2.4-.7-1.1-.4-2.3-.7-3.4-.9-.9-.2-1.1-.2-1.1-.7v-.7c0-1.5-1.2-2.9-3.7-4.6-1.1-.7-3-2.5-3.1-4v-.1c0-1.2 1.2-2.6 2.2-3.7l.8-1a2.99 2.99 0 0 0 .7-1.9l-.1-.3 2.6.1c.8.1 1.4-.5 1.4-1.3 0-.7-.5-1.4-1.3-1.4l-4.8-.3c-.6 0-1.1.3-1.3.8l-.1.6c0 .4.2.7.4.9.1 0 .4.4.4.8l-.1.3-.7.8c-1.2 1.4-2.9 3.3-2.9 5.5v.4c.3 3.2 3.9 5.7 4.3 6 2.4 1.6 2.5 2.4 2.5 2.4v.6c0 1.6.6 3 3.4 3.5.9.2 2 .5 3 .9 1.9.6 2.9.9 3.7.7.5-.1 1.1-.4 2.2-.8 1.4-.6 3.1-1.3 4.4-1.5l2.5-.5c2.8-.5 4.6-.9 5.4-1.4 1.1-.7 1.7-2.1 2.7-4.4l1-2.3c.8-1.7 2.3-3.6 3.3-5.1 1.1-1.5 1.4-1.9 1.5-2.5v-.4c0-.5-.1-1.1-.3-2.4l-.4-2.9v-1.8c0-.4.1-.9.1-1.2 0-1.3-.2-2.2-1-2.7 0 0-.7-.4-1.4-.9-.8-.5-1.2-1.2-.7-2.4.1-.4.8-2.1 1.2-3.1l.1-.5c0-.4-.2-.8-.6-1.1l-6.9-5-3.5-2.6.8 12.1c-.7.8-2.1 2.8-2.5 3.5-.6 1.1-1.4 1.7-2.6 1.9z"/><path d="M512.8 1828.3l.9-.3c1.5-.5 3.3-1 3.5-3.3.3-2.2-2.1-4.7-6.7-9.3-3.6-3.5-10.8-9.8-19-16.4-7.9-6.4-22-15.8-27.6-18.9-6-3.4-10.3-4.1-12.8-4.1-1.6 0-2.4.7-2.8 1.3-.8 1.3-.3 2.9.2 4 .7 1.5 3.2 3.3 4 3.9.6.4 1.5.3 1.9-.3.2-.2.2-.5.2-.8 0-.4-.2-.8-.6-1.1-1.3-.9-2.8-2.2-3-2.7-.3-.6-.4-1-.4-1.3v-.1c.1 0 .2-.1.5-.1 2.2 0 5.9.7 11.4 3.8s19.4 12.4 27.2 18.7c8.1 6.5 15.3 12.7 18.8 16.2 2.4 2.4 5.9 5.9 5.9 7h0c0 .5 0 .5-1.6 1l-1 .3c-2.7 1-4.1 2.3-4.1 4 0 .5.2 1.2.3 1.9.1.5.4 1.6.4 2.2l-.1.3c-.4.6-1.4.6-2.7.6-.8 0-1.5 0-2.1.2-.5.2-1 .4-1.6.7-.8.5-2 1.1-2.5.8-.5-.4-.7-1-.7-2 0-.6.1-1.4.3-2.3l.5-2.1c.3-1.3.6-2.2.6-2.9 0-.4 0-.7-.2-1-.3-.7-1.1-1-3-1.7-.9-.3-2.5-.9-2.8-1.2s-.5-1.1-.5-2v-.8c.1-.8.5-2.7.7-3.4l.1-.3c0-.6-.4-1.2-1.1-1.3-.7-.2-1.4.3-1.6 1-.1.3-.6 2.6-.8 3.8v1.1c0 1.3.2 2.7 1.1 3.8.6.8 1.9 1.3 4 2 .4.2 1 .4 1.4.5-.1.5-.3 1.2-.4 1.8l-.5 2.2c-.1.6-.4 1.6-.4 2.8 0 1.5.4 3.1 1.7 4.2 1.9 1.5 4.2.2 5.5-.5l1-.5c.2-.1.8-.1 1.2 0 1.5 0 3.8.1 5.1-1.8.9-1.3.4-3.1 0-4.7-.1-.4-.3-1.1-.3-1.3 0-.1.4-.8 2.3-1.4zm-60.4-19.1c-.7-.1-1.4.4-1.6 1.1-.1.7.4 1.4 1.1 1.5 5.4.9 6.5.7 7.4.4h.1c1-.2 1.4-.8 1.5-1.2l.1-.7c0-.9-.7-1.7-1.2-2.4l-.1-.2c-.2-.3-.7-1.8-.7-3.4 0-.6.1-1.1.2-1.6.4-1.8.6-3.3.7-4.6.1-.5.1-1.1.2-1.5l1.2.3c1.1.4 2.2.7 3 .5 1.6-.3 1.9-1.9 1.9-3.4v-1.2l-.1-1c0-2.7-3.9-2.9-6-3h-.6c-.3-.1-.6-.1-.8-.2.4-.6 1.4-1.6 2.3-2.5.3-.3.4-.6.4-1 0-.3-.1-.7-.4-.9-.5-.5-1.4-.6-1.9 0-3.3 3.2-3.3 4.1-3.3 4.6 0 1.6 1.8 2.7 3.4 2.8h.7c2.2.1 3.1.3 3.4.5v2.7c-.4-.1-1-.3-1.3-.4-1.4-.4-2.5-.8-3.4-.3-1.1.5-1.2 1.8-1.5 3.8a38.47 38.47 0 0 1-.6 4.2c-.2.7-.2 1.5-.2 2.3 0 2 .5 4.1 1.2 5l.2.4c-.6 0-2-.1-5.5-.6zm1.3-18.5c-.7-.4-1.5-.1-1.8.5l-3.1 5.3c-.7 1-3.6 6.8-3.6 8 0 1.1.5 1.9 7 2.9.8.1 1.4-.4 1.5-1.1v-.2c0-.7-.5-1.2-1.2-1.4-1.6-.2-3.4-.6-4.5-.9.6-1.6 2.2-4.9 2.9-5.8.9-1.3 3.2-5.3 3.3-5.5l.2-.6c0-.5-.3-.9-.7-1.2zm66.9 54.9c1.8.2 5.4-.6 6.5-2.2.8-1.1 1.5-3.4 1.6-3.7.2-.7-.2-1.5-.9-1.7s-1.5.2-1.7.9c-.3.8-.8 2.3-1.2 2.9-.4.5-2.7 1.2-3.9 1-.8-.1-2.4-.6-3.1-1.6-.5-.6-.6-1.4-.4-2.5.6-3 4-2.9 4.4-2.9.8 0 1.4-.5 1.5-1.3 0-.8-.5-1.4-1.3-1.4-2.1-.1-6.3.8-7.2 5.1-.4 1.8-.1 3.3.8 4.6 1.2 1.7 3.3 2.5 4.9 2.7zm14.9 12.9c1.3-.7 1.9-2.4 1.9-4.3 0-1.2-.2-2.6-.7-3.8-1.9-5.3-2.3-7.7-2.3-8.7 0-.5.1-.7.1-.8.9-.9 2.7-.8 6.1.1l7.8 2.5c.7.2 1.5-.1 1.7-.8s-.1-1.5-.8-1.7c-.2-.1-4.4-1.5-8-2.5-3.4-.9-6.8-1.5-8.8.7-1.4 1.5-1 5 1.6 12.2.9 2.6.4 4.5 0 4.7-.5.2-2-.4-3.2-1.7h-.1c-3.8-4-5.9-5.2-7.6-4.5-1.9.8-3.4 5.8-4 8.8-1.1 4.9-2 6.2-2.4 6.5-.4-.9-.8-3.7-.8-6.5 0-.6 0-1.1.1-1.7v-.3c0-1.5-.2-8.7-2.5-9.5-2.5-.9-6.3 3.1-6.4 3.1-.8.9-5 5.5-8.2 11.5-3 5.6-5.5 12.6-5.6 12.9-.3.7.1 1.5.8 1.8.7.2 1.5-.1 1.7-.8 0-.1 2.6-7.1 5.5-12.6 3.1-5.9 7.3-10.5 7.8-11 .9-1 2.5-2 3.3-2.3.4 1.1.9 4.3.9 6.5v2.5c0 2.7.2 7.1 1.7 8.6.5.5 1 .7 1.6.6 2.9-.1 4.1-4.4 5.2-8.7.8-3.6 1.9-6.1 2.4-6.8.4.1 1.6.7 4.6 3.8h0c1.7 2 4.5 3.4 6.6 2.3zm-67 3.2c-2.6-2.8-6.3-3.8-6.4-3.9a1.37 1.37 0 0 0-1.7 1c-.2.7.2 1.5.9 1.6 0 0 3.1.9 5.2 3.1 1.1 1.2 2.2 3.6 2.6 5.1.3 1.3.5 4 .5 4 0 .7.7 1.3 1.4 1.3.8 0 1.3-.7 1.3-1.4 0-.1-.2-2.9-.5-4.4-.4-1.9-1.7-4.8-3.2-6.4zm26.9-18.7c-.2-.7-.7-1.1-1.4-1l-7.2 1.8c-.9.2-2.5.8-4 1.4l4.2-7.8c1.5-3.2 1.8-6.3 1.8-6.4v-.1c0-.7-.5-1.3-1.2-1.3-.7-.1-1.4.5-1.5 1.2 0 0-.3 2.8-1.6 5.5-1.4 2.9-5.9 10.8-5.9 10.8-.3.5-.2 1.1.1 1.6.4.4 1 .6 1.5.4.1 0 5.4-2.2 7.2-2.6l7.2-1.8c.7-.2 1-.9.8-1.6zm-65.7-4.2c-.8.1-1.3.8-1.2 1.5.1.8.8 1.3 1.5 1.2 0 0 4.8-.5 9.4.6 4.9 1.1 11.7 3.5 15 4.8l.5.2c12.5 5.2 15.3 5.4 16.5 4 2.2-2.5-1-5.5-2.1-6.4-.6-.5-1.4-.5-1.9 0-.2.3-.4.6-.4.9 0 .4.2.7.5 1 1.6 1.5 2 2.2 2 2.5-1 0-4.1-.7-13.5-4.5l-.6-.2c-3.3-1.4-10.3-3.8-15.4-4.9s-10-.6-10.2-.6zm43.6-140.7l13.4-9.5 13.2 9.5-4.8-15.5 13.4-9.5h-16.4l-4.9-15.4-5.4 15.4h-16.4l13.2 9.5zm67.3 1.7l7.2 14.8 2.7-16.2 15.9-2.4-14.3-7.8 2.7-16.2-11.5 11.4-14.3-7.7 7.1 14.9-11.5 11.4z"/></g></g><defs /></svg>