<svg xmlns="http://www.w3.org/2000/svg" width="197.726" height="396.85" viewBox="0 0 840.1 1686.2"  shape-rendering="geometricPrecision" image-rendering="optimizeQuality" fill-rule="evenodd" xmlns:v="https://vecta.io/nano"><path d="M13309.9-10586.4h25695v24089.1h-25695z" fill="#ebecec"/><g fill-rule="nonzero"><path d="M840.1 1510.4l-177.5 175.8h-489L0 1510.4V177.3L177.5 0h485.1l177.5 177.3v1333.1zm-273.8-135.5V311.4H273.8v1063.5h292.5z" fill="#bae8d9"/><g fill="#121c4d"><path d="M712.5 146v1394.2h-197v-19.1h177.9v-1356H146.8v1356h177.8v19.1H127.7V146zM485.4 1560.4l-1-.8 1.2.1-.2.7zm2.2-.2l2 .2.7-2.3-8.7-.9-.8 2.1 6.5 6.1.3-.7.6-1.7-1.3-1.1.7-1.6zm-8.9 7.3h0c.3-.5.7-.8 1.2-.8s1 .2 1.4.5c.9.6 1.6 1.3 1 2.4l-3.6-2.1zm-2.9 1l7.1 4.4 1.3-2.1c.6-.9.9-2 .6-3.1-.3-1.2-1.1-2-2.1-2.6-.7-.5-1.6-.8-2.5-.8-1.5 0-2.5.9-3.2 2.1l-1.2 2.2zm-2.1 5.9v-.1c.1-.1.3-.4.4-.4s.3.1.3.2c.3.3.3.5 0 .9l-.9-.6zm3.2-.5c0-.7-.3-1.4-.9-1.9-.5-.4-1-.6-1.6-.6-.9 0-1.6.6-2.1 1.2l-1.7 2.3 6.5 5.2.4-.5 1-1.6-2.1-1.9c.1 0 .1 0 .2.1l2.8 1 1.3-2.1-3.3-1.2c-.2-.1-.4-.1-.6-.1zm-39.3 26.9v-1.3l.7 1-.6.3zm1.6 1.6l1.2 1.7 2.2-.9-4.9-7.2-2.1.7-.5 8.8.7-.2 1.8-.6-.1-1.7 1.7-.5zm29.3-22.1l1.8-2.1-1.7-1.2-3.3 3.5 5.9 5.9 3.6-3.8-1.7-1.3-1.6 1.9-.9-.8 1.7-1.9-1.6-1.3-1.5 1.7zm-6.9 5.8l4 5 .4-.3 1.5-1.4-4-4.7 1.3-1.3-1.4-1.4-4.3 3.6 1.5 1.5zm-3.4 7.6c-.5.3-1.2.4-1.7.7l-.3.2.9 1.7h.3c.7 0 1.3-.4 1.9-.7.7-.5 1.3-1.1 1.5-1.9.2-.7 0-1.4-.4-2.1-.6-1-1.4-1.2-2.6-1.2-.4 0-.9 0-1.3.1-.2 0-.3 0-.4-.2 0 0-.1-.1 0-.2 0-.1.2-.3.3-.3.4-.3.9-.4 1.4-.7l.4-.2-1.3-1.6-.3.1c-.6.1-1 .3-1.5.6-.7.4-1.2 1.1-1.4 1.9-.1.6 0 1.3.3 1.8.6.9 1.4 1.3 2.5 1.3l1.3-.1c.2 0 .4 0 .5.2.1.1.1.2.1.4 0 .1-.2.3-.3.3zm-9.9 3.1l-3.2-3.5-2.8 1.4 3.4 7.6.6-.2 1.6-.9-1.5-3.2 2.6 2.9 1.6-.9-.5-3.9 1.7 3.6 2-1.2-3.5-7.5-2.8 1.4zm40.9-47l-4.8.1-.6 3 7.9 2.3.2-.5.4-1.9-3.4-.8 3.9-.2.4-1.8-3.3-2.1 3.7 1.1.5-2.4-8.1-2.1-.7 2.9zm-125-108.4l2.4 13.5 6.2-12.4 13.8 1.7-10-9.5 6.2-12.4-12.4 6.6-10.1-9.5 2.4 13.6-12.4 6.6zm123.1 91.4c0-36.9-30-67-67-67.5v2.3c35.8.4 64.8 29.5 64.8 65.2 0 3.4-.3 6.8-.8 10.1l2.2.5a63.21 63.21 0 0 0 .9-10.6zm-67-71.3v2.3h.5c18.3 0 35.7 7.2 48.6 20.1s20.2 30.2 20.2 48.4a56.83 56.83 0 0 1-.3 5.9c-.2 1.8-.4 3.6-.7 5.4v.3l2.3.5.1-.3c.3-1.8.5-3.6.7-5.5.2-2.1.3-4.2.3-6.3 0-18.8-7.5-36.7-20.9-50.1-13.4-13.3-31.3-20.8-50.3-20.8h-.5zm73.9 70.3c0 4.2-.4 8.4-1.1 12.6l-.1.4 2.2.5.1-.6c.7-4.3 1.1-8.6 1.1-13 0-40.8-33.4-74.1-74.4-74.1h-1.8v2.3h1.8c39.8 0 72.1 32.2 72.1 71.8zM356 1533h-2.3c.4 37.2 31.1 67.1 68.5 66.7a53.33 53.33 0 0 0 9.8-.9l-.4-2.2c-3.1.5-6.3.8-9.4.8-36.1.4-65.8-28.5-66.2-64.5zm76.7 70.1h.3l-.5-2.3h-.3l-5.4.7c-2 .2-4 .3-6 .3-18.3 0-35.6-7.4-48.5-20.3-12.8-12.8-20.2-30.1-20.4-48.2v-.3h-2.4v.3c.2 18.7 7.8 36.5 21.1 49.8 13.3 13.4 31.2 21 50.2 21 4 0 8-.3 11.9-1zm1 3.6l-.4-2.2-.6.1c-4.2.7-8.5 1.1-12.9 1.1-39.9 0-72.1-33.4-72.1-72.8h0-2.3c0 40.7 33.2 75.1 74.4 75.1 4.4 0 8.9-.4 13.3-1.2l.7-.1zm37.9-96.9c0-12.7-6-21-17.1-24.3l-.3 12.6c0 .4.2.8.5 1 0 0 2.9 2 4.5 4.2 1.5 2.2 1.9 4.8 1.9 4.8.1.6.7 1.1 1.3 1s1-.6 1-1.1v-.2c0-.1-.4-3.1-2.3-5.8-1.4-2-3.6-3.7-4.5-4.5a442.74 442.74 0 0 1 .2-8.8c8.3 3.5 12.6 10.6 12.6 21.1 0 15-9.2 25.6-22.5 25.6-12 0-16.1-10-18.8-16.6l-.9-2.2c-.9-2-2.2-3.4-4-4-3.3-1.2-7 .5-8.4 1.1-.6.3-.8.9-.6 1.5.3.6.9.8 1.5.6 1.1-.5 4.2-1.9 6.6-1 1.1.4 2 1.3 2.7 2.8l.9 2.1c2.8 6.7 7.4 18 21 18 14.6 0 24.8-11.5 24.8-27.8zm-117.5 6.7l-6.1-4.1 7.3-.2-1.2 4.3zm6.3 4.3l-3.3-2.4 1.8-6.4 4-.3 1.4-5-19.1 1.8-1.6 5.6 15.4 11.3 1.3-4.6zm8.7-17.9c-.1.9-.7 2.5-1.2 3.3l4-.5 1.1-1.7c2.4-3.5 1.1-6.5-2-8.7l-13.9-9.5-2.7 3.9 12.8 8.7c2.4 1.7 2.3 3.1 2 4.5zm7.2-31l5.8 4.4-3.6 2.6-2.3-7h.1zm4.4 14.3l-1.1-3.9 5.5-3.9 3.3 2.3 4.2-3-16.1-10.4-4.7 3.4 5 18.4 3.9-2.8zm19.7-20.9l-3.4 10.4 5.2-1.3 1.8-7.1 4.9 5.5 5.5-1.3-7.8-7.8 3.1-9.4-5.1 1.2-1.5 6.5-4.4-5-5.4 1.3zm5.1 38.3c2.6-1.1 7-3.5 10.8-5.6 4.2-2.4 7.7-4.2 10.3-5.1 2.9-1 6.2-2.1 10-1.8 4 .2 5.3.8 6.8 1.4 1.6.6 4 2.1 4.1 2.1.6.3 1.3.1 1.6-.4.3-.6.2-1.2-.4-1.6-.1-.1-2.6-1.6-4.4-2.3-1.9-.8-3.5-1.3-7.6-1.6-4.3-.2-7.9.9-10.9 2-3.5 1.2-7.7 3.6-10.7 5.3-3.7 2.1-8 4.4-10.5 5.5-2.9 1.3-7.3 2.6-8.1 2.6-.6 0-1.2.5-1.2 1.1s.5 1.1 1.1 1.2c1.5 0 6.7-1.8 9.1-2.8zm-1.5 32.7l-3.7.7c-.5.1-1.1.7-1 1.3s.7 1 1.4 1l3.8-.7c1.6-.3 2.9-1.3 3.8-2.8.3-.5 1.5-2.2 2.2-3.1.2-.2.2-.4.2-.7v-.1l-.4-5.7 4.1 3-.8 2.1-.4 1.7c0 .7.4 1.8 1.3 2.4l1.2.8c.3.1.4.6.4.8v2.7c0 .8.2 1.8.4 2.7.1.5.2 1.2.2 1.5l-.8 1.2c-.9 1.3-2.3 3-3 4.7l-.9 2c-.5 1.1-1.1 2.5-1.4 2.7-.4.3-2.5.7-3.8.9l-2.2.4c-1.2.3-2.8.9-4.1 1.4l-1.5.6c-.3 0-1.3-.3-2-.6a31.31 31.31 0 0 0-2.9-.8c-.8-.1-.9-.2-.9-.6v-.6c0-1.2-1-2.5-3.2-3.9-1-.6-2.5-2.1-2.6-3.4v-.1c0-1 1-2.2 1.9-3.1l.7-.8c.4-.5.6-1.1.6-1.6v-.3l2.2.1c.7 0 1.2-.4 1.2-1.1 0-.6-.4-1.2-1.1-1.2l-4.1-.2c-.5 0-.9.2-1.1.7l-.1.5c0 .3.1.6.3.8.1 0 .4.4.4.7l-.1.2-.6.7c-1 1.2-2.5 2.8-2.5 4.7v.3c.2 2.7 3.3 4.9 3.6 5.1 2.1 1.4 2.1 2 2.1 2v.5c0 1.3.5 2.6 2.9 3 .7.1 1.7.4 2.5.7 1.6.5 2.5.8 3.2.6.4-.1.9-.3 1.9-.7 1.2-.5 2.7-1.1 3.7-1.3l2.1-.4c2.4-.4 3.9-.7 4.6-1.2.9-.6 1.5-1.8 2.3-3.7l.9-1.9c.7-1.4 1.9-3.1 2.8-4.3.9-1.3 1.2-1.6 1.3-2.1v-.3c0-.4-.1-1-.3-2.1l-.3-2.4v-2.6c0-1.1-.1-1.9-.8-2.3l-1.2-.8c-.6-.4-1-1-.6-2 .1-.4.7-1.8 1-2.6l.1-.5c0-.3-.2-.7-.5-.9l-5.9-4.3-3-2.2.7 10.3c-.6.7-1.8 2.3-2.1 3-.5.9-1.2 1.4-2.2 1.6zm36.5 15.4l.7-.2c1.3-.4 2.8-.9 3-2.8s-1.8-4-5.7-7.9c-3-3-9.2-8.3-16.1-13.9-6.7-5.4-18.6-13.4-23.4-16.1-5.1-2.9-8.7-3.5-10.8-3.5-1.4 0-2.1.6-2.4 1.1-.7 1.1-.3 2.4.2 3.4.6 1.3 2.7 2.8 3.4 3.3.5.3 1.3.2 1.6-.3.1-.2.2-.4.2-.7 0-.4-.2-.7-.5-1-1.1-.7-2.4-1.8-2.6-2.3s-.3-.9-.3-1.1v-.1c.1 0 .2-.1.4-.1 1.8 0 5 .6 9.7 3.2 4.7 2.7 16.4 10.5 23.1 15.9 6.9 5.5 13 10.8 15.9 13.8 2 2 5 5 5 5.9h0c0 .4 0 .5-1.4.9l-.8.3c-2.3.8-3.5 1.9-3.5 3.4 0 .4.1 1 .3 1.6.1.5.4 1.4.4 1.9l-.1.3c-.4.5-1.2.5-2.3.5-.7 0-1.2 0-1.8.1-.4.1-.9.4-1.3.6-.7.4-1.7 1-2.1.7s-.6-.9-.6-1.7c0-.5.1-1.2.3-1.9l.4-1.8c.3-1.1.5-1.9.5-2.5 0-.3 0-.6-.2-.8-.3-.6-1-.9-2.6-1.5-.7-.3-2.1-.8-2.4-1-.2-.3-.4-1-.4-1.7v-.7c.1-.7.4-2.3.6-2.9l.1-.3c0-.5-.4-1-.9-1.1-.6-.2-1.2.2-1.4.8-.1.2-.5 2.2-.6 3.2v.9c0 1.1.2 2.3.9 3.2.5.7 1.6 1.1 3.4 1.7.4.1.9.3 1.2.5-.1.4-.2 1-.4 1.6l-.5 1.9c-.1.5-.3 1.4-.3 2.4 0 1.2.3 2.6 1.5 3.5 1.6 1.3 3.5.2 4.7-.4.3-.2.7-.4.9-.4h1c1.3 0 3.2.1 4.3-1.5.8-1.1.4-2.6 0-4-.1-.4-.2-.9-.2-1.1 0-.1.4-.6 1.9-1.2zm-51.2-16.2c-.6-.1-1.2.3-1.3 1-.1.6.3 1.2 1 1.3 4.6.8 5.5.6 6.2.4h.1c.9-.1 1.2-.7 1.3-1l.1-.6c0-.8-.6-1.5-1-2.1l-.1-.1c-.2-.3-.6-1.5-.6-2.9 0-.5.1-.9.2-1.4.4-1.5.5-2.8.6-3.9.1-.4.1-.9.2-1.3l1 .3c1 .3 1.8.6 2.6.5 1.4-.3 1.6-1.6 1.6-2.9v-1.9c0-2.3-3.3-2.5-5.1-2.6h-.5c-.3 0-.5-.1-.7-.2.4-.5 1.2-1.4 2-2.2.2-.2.3-.5.3-.8s-.1-.6-.3-.8c-.4-.5-1.2-.5-1.6 0-2.8 2.7-2.8 3.5-2.8 3.9 0 1.4 1.5 2.3 2.9 2.4h.6c1.9.1 2.6.3 2.9.4v2.3c-.3-.1-.8-.2-1.1-.3-1.2-.4-2.2-.7-2.9-.3-.9.5-1 1.6-1.2 3.2-.1 1-.2 2.3-.5 3.6-.2.6-.2 1.3-.2 1.9 0 1.7.4 3.5 1 4.3l.2.3c-.5 0-1.7 0-4.6-.5z"/><path d="M390.4 1519.8c-.6-.3-1.2-.1-1.6.4l-2.7 4.5c-.6.9-3.1 5.7-3.1 6.8 0 .9.4 1.6 6 2.5.6.1 1.2-.3 1.3-1v-.2c0-.6-.4-1-1-1.2-1.3-.2-2.9-.5-3.8-.8.5-1.4 1.9-4.1 2.4-5 .8-1.1 2.7-4.5 2.8-4.7l.2-.6a1.1 1.1 0 0 0-.6-1zm56.7 46.5c1.5.2 4.6-.5 5.5-1.8.7-1 1.3-2.9 1.3-3.1.2-.6-.2-1.2-.8-1.4s-1.2.1-1.4.8-.7 2-1 2.5c-.3.4-2.3 1-3.3.9-.7-.1-2-.5-2.6-1.4-.4-.5-.5-1.2-.3-2.1.5-2.5 3.4-2.5 3.7-2.5.7 0 1.2-.4 1.2-1.1 0-.6-.4-1.2-1.1-1.2-1.8-.1-5.4.7-6.1 4.3-.3 1.5-.1 2.8.7 3.9 1 1.4 2.8 2.1 4.2 2.3zm12.7 11.1c1.1-.6 1.6-2 1.6-3.6a9.06 9.06 0 0 0-.6-3.2c-1.6-4.5-2-6.5-2-7.4 0-.4.1-.6.1-.6.7-.7 2.3-.7 5.2.1l6.6 2.1c.6.2 1.3-.1 1.5-.7s-.1-1.3-.7-1.5c-.2-.1-3.7-1.3-6.8-2.1-2.9-.8-5.8-1.3-7.5.6-1.2 1.3-.8 4.2 1.4 10.4.8 2.2.3 3.8 0 4-.4.2-1.7-.3-2.7-1.5h-.1c-3.3-3.4-5-4.4-6.4-3.8-1.6.6-2.8 5-3.4 7.5-1 4.1-1.7 5.2-2 5.5-.4-.8-.7-3.1-.7-5.6v-1.7c0-1.3-.1-7.3-2.1-8.1-2.1-.8-5.4 2.6-5.4 2.7-.7.7-4.2 4.7-7 9.8-2.5 4.8-4.7 10.7-4.8 11-.2.6.1 1.3.7 1.5s1.3-.1 1.5-.7c0-.1 2.2-6.1 4.7-10.7 2.7-5 6.2-8.9 6.6-9.3.8-.9 2.1-1.7 2.8-2 .4.9.8 3.7.8 5.5v2.1c0 2.3.2 6.1 1.5 7.3.4.4.9.6 1.4.5 2.5-.1 3.5-3.7 4.4-7.4.7-3 1.6-5.2 2.1-5.8.4.1 1.4.6 3.9 3.2h0c1.5 1.7 3.8 2.9 5.6 1.9zm-56.9 2.6c-2.2-2.4-5.3-3.3-5.5-3.3-.6-.2-1.3.2-1.4.8-.2.6.2 1.2.8 1.4 0 0 2.6.7 4.4 2.6 1 1 1.9 3.1 2.2 4.4.2 1.1.4 3.4.4 3.4 0 .6.6 1.1 1.2 1.1.7 0 1.1-.6 1.1-1.2 0-.1-.2-2.5-.5-3.7-.4-1.6-1.4-4-2.7-5.4z"/><path d="M425.8 1564.2c-.2-.6-.6-1-1.2-.9l-6.1 1.5c-.8.2-2.1.7-3.4 1.2l3.5-6.6c1.3-2.7 1.5-5.3 1.5-5.4v-.1c0-.6-.4-1.1-1-1.1-.6-.1-1.2.4-1.3 1 0 0-.2 2.4-1.3 4.7-1.2 2.5-5 9.1-5 9.2-.2.4-.2 1 .1 1.3.3.4.8.5 1.3.3.1 0 4.6-1.8 6.1-2.2l6.1-1.5c.6-.2.8-.8.7-1.4zm-55.8-3.6c-.6.1-1.1.6-1 1.3.1.6.6 1.1 1.3 1 0 0 4-.4 7.9.5 4.2.9 9.9 2.9 12.7 4.1l.5.2c10.6 4.4 13 4.6 14 3.4 1.8-2.1-.9-4.6-1.8-5.5-.5-.4-1.2-.4-1.6 0-.2.2-.3.5-.3.8s.1.6.4.8c1.4 1.3 1.7 1.8 1.7 2.1-.9 0-3.4-.6-11.4-3.8l-.5-.2c-2.8-1.2-8.8-3.2-13.1-4.2s-8.5-.6-8.7-.5zm37-119.4l11.4-8.1 11.2 8.1-4.1-13.1 11.4-8.1-14-.1-4.1-13-4.5 13-14 .1 11.2 8.1zm57.1 1.4l6.1 12.6 2.3-13.8 13.5-2-12.1-6.6 2.3-13.8-9.8 9.7-12.2-6.5 6.1 12.6-9.7 9.7z"/></g></g><defs /></svg>