<svg xmlns="http://www.w3.org/2000/svg" width="202.92" height="188.98" viewBox="0 0 49718.5 46298.8"  shape-rendering="geometricPrecision" image-rendering="optimizeQuality" fill-rule="evenodd" xmlns:v="https://vecta.io/nano"><path d="M-767641.69 63034.1H713920.19v1481561.88H-767641.69z" fill="#e6e6e6"/><path d="M12714.6.6L1148.8 7747.4l1045 1810.1 301.7-28.6 537.6 931.1-147.8 295.2 1041.4 1803.7L16418.5 6416l-1505.2-2607-323.2-5-525-909.5 154-288z" fill="#bae8d9"/><path d="M14911.2 3807.9l-12029 6944.8-689.1-1199.1 12029-6944.8z" fill="#121c4d" fill-rule="nonzero"/><path d="M0 19445.5h7407.8v7407.8H0zm8796.8 0h7407.8v7407.8H8796.8z" fill="#bae8d9"/><path d="M3009.4 22454.9h1389v1389h-1389zm8796.8 0h1389v1389h-1389z" fill="#121c4d"/><path d="M1210.7 41486.7l1036 1794.4 313.5-22.4 500 865.8-115.5 365.6 1043.9 1808.2 4795.3-3426 4795.4 3426 1105.1-1914.2-110.6-341.3 526.7-911.8 297.3 17.5 959.4-1661.8-7553.8-7582.6z" fill="#bae8d9"/><g fill-rule="nonzero"><path d="M8803.4 39269.4l-5863.2 5212.8-699.7-1207.1 6535.3-5629 6621.9 5502.4-713.8 1236.6z" fill="#121c4d"/><path d="M32274.7 46298.8h-3466.3l-77.6-277.2H27635l-301.7 277.2h-3235.7L41514.9 0h3205l124.7 275.1h1021.9L46168.8 0h3549.6L32274.6 46298.8z" fill="#bae8d9"/><path d="M46169.4 0L28809.3 46298.8h-1477.2L44719.8 0h1449.6z" fill="#121c4d"/></g><defs /></svg>