<svg xmlns="http://www.w3.org/2000/svg" width="816.227" height="188.976" viewBox="0 0 25341 5867"  shape-rendering="geometricPrecision" image-rendering="optimizeQuality" fill-rule="evenodd" xmlns:v="https://vecta.io/nano"><path d="M-201854.797-27411.6h187745.5v187745.5h-187745.5z" fill="#e6e6e6"/><g fill-rule="nonzero"><path d="M25341 5255.2l-608.5 611.8h-1648.1l-615.2-611.8v-945.8h385l21.4 35.3h132l22.1-35.3h393.8v474.2h963.2V3477.1h-1302.3l-615.2-615.6V616.9L23084.4 0h1648.1l608.5 613.1v911.4h-393.2l-24.5-35.1h-131.1l-20.7 35.1h-384.7v-441h-963.2V2390h1309l608.5 616.9v2248.4zm-22469.3 0L2263.2 5867H615.1L-.1 5255.2v-945.8h385l21.4 35.3h132l22.1-35.3h393.8v474.2h963.2V3477.1H615.1L-.1 2861.5V616.9L615.1 0h1648.1l608.5 613.1v911.4h-393.2l-24.5-35.1h-131.1l-20.7 35.1h-384.7v-441H954.3V2390h1309l608.5 616.9v2248.4zm3708 0L5955.5 5867H4254.7l-608.5-611.8V616.9L4254.7 0h1700.8l624.2 620.7v903.7H6194l-14.2-34.8h-149.5l-12.2 34.8h-391.6v-441H4600.4v3700.2h1026.1v-474.2h391.7l21.5 35.2h132.8l21.7-35.2h385.4v945.8zm3764.1 611.8h-392.1l-17.6-36.6h-141.3l-16.2 36.6h-385.9V3477.1H8308.5V5867H7914l-14.6-34.8h-144.5l-16.2 34.8h-384.4V0h384.2l14 34.9h147.6L7914.4 0h394.1v2389.9h1082.2V0h385.4l14.6 35.1h143.1L9951.5 0h392.4v5867zm3750.7-615.6l-624.2 615.6h-1740.1l-611.9-611.8V0h384.5l21 34.6h132.2l22.8-34.6h393.8v4783.6h1068.8V0h384.2l16.9 34.3h141.2l18.2-34.3h392.6v5251.4zm3750.7 0L17221 5867h-1740.1l-611.9-611.8V0h384.5l21 34.6h132.2l22.8-34.6h393.8v4783.6h1068.8V0h384.2l16.9 34.3h141.2l18.2-34.3h392.6v5251.4zm3849.5 615.6h-411.2l-43.6-35h-123l-11.1 35h-433.9l-811.7-2389.9h-282.9V5867h-389.8l-22.9-34.8h-130.5l-22.5 34.8h-392V0h2292.5l608.5 616.9V2771l-651.1 690.8 825.2 2405.2zm-2117.3-3477.2h990.2V1079.5h-990.2v1310.3z" fill="#bae8d9"/><path d="M23029.9 4309.5V5238h1741.8V3021.5h-1917.8V453.9h2093.8v1070.5h-176V629.9h-1741.8v2215.6h1917.8V5414h-2093.8V4309.5h176zm-22469.3 0V5238h1741.8V3021.5H384.6V453.9h2093.8v1070.5h-176V629.9H560.6v2215.6h1917.8V5414H384.6V4309.5h176zm5457.4-2785V630H4211.3v4608.1H6018v-928.5h176v1104.5H4035.3V454H6194v1070.5h-176zm3757.8 1489.4H7914.3v2853.2h-176V.1h176v2837.8h1861.5V.1h176v5867h-176V3013.9zM11678.6.1v5238h1847V.1h176v5414h-2199V.1h176zm3750.7 0v5238h1847V.1h176v5414h-2199V.1h176zm3582.3 5867V454h2118.2v2567.6h-809.7l963.5 2845.5h-178.2l-970.9-2845.5h-946.9v2845.5h-176zm176-5237.1v2215.6h1766.2V630h-1766.2z" fill="#121c4d"/></g><defs /></svg>