<svg xmlns="http://www.w3.org/2000/svg" width="501.502" height="257.62" viewBox="0 0 9730.6 4998.6"  shape-rendering="geometricPrecision" image-rendering="optimizeQuality" fill-rule="evenodd" xmlns:v="https://vecta.io/nano"><path d="M-125012.898-27057.301H-7678.297V90277.301h-117334.602z" fill="#e6e6e6"/><path d="M9125.3 0l-916 613.5 82.8 143.4 23.9-2.3 42.6 73.7-11.7 23.4 82.5 142.8L9418.7 508l-119.2-206.5-25.6-.4-41.6-72 12.2-22.8L9125.3-.1zM1782.2 2009H1190v2989.6H943.2l-12.5-21.9h-86l-10.9 21.9H592.3V2009H.1v-283.8l21.4-12.2v-84.5L.1 1615.7v-283.9h1782.1v283.8l-21.5 10.6v85l21.5 13.5V2009zm1601.9 2989.6l-143.8-816.5h-625.1l-143.8 816.5h-262.9l-11.1-21.9-87.2-.4-13.2 22.3h-233.9l645.5-3666.7H3347l645.5 3666.7h-247.7l-18.8-22-81.5-.1-10.9 22.1h-249.4zM3121 3505l-192.9-1096.9L2734.4 3505H3121zm2823.3-2173.1l386.6 387.9v2894l-386.6 384.8H4476.5V1331.9h1467.8zm-209.8 2989.6V2009H5075v2312.5h659.5zm1678.9 677.1h-246.2l-11.1-21.9H7069l-11.8 21.9h-242.3V1331.9H7057l10.6 21.8h89.2l10.2-21.8h246.4v3666.7zm2317.4-382.4l-390.1 382.4h-1063l-380.3-382.4V1717.4l380.3-385.5h1063l390.1 387.9v564.8h-241l-8.9-21.7h-93.4l-7.6 21.7h-244.8V2009h-641.3v2312.5h641.3v-296.3h244.8l13.4 22h83l13.6-22h240.9v591.1z" fill="#bae8d9"/><path d="M0 1615.6h1782.1v110H943l.2 3273H833.6l-.2-3273H0v-110zM9299.2 301.5l-952.7 550-54.6-95 952.7-550 54.6 95zm80.4 1983.1v-559H8250.5v2879.9h1129.1v-580.3h110v690.3H8140.5V1615.6h1349.1v669h-110zm-2212.8-952.7v3666.7h-110V1331.9h110zm-2337.7 393.7v2879.9h882.6l268.5-305.2V2029.5L5712 1725.6h-882.9zm-110 2934.9V1615.6h1042l329.2 372.9v2353.1l-328.9 373.9H4719.2v-55zm-2622.4 338.1l593.9-3383h473.3l580.8 3383h-111.5l-189.5-1103.5H2402l-193.7 1103.5h-111.6zm1328.1-1213.5l-353.6-2059.5h-288.4l-361.5 2059.5h1003.5z" fill="#121c4d" fill-rule="nonzero"/><defs /></svg>