<svg xmlns="http://www.w3.org/2000/svg" width="92.5" height="188.976" viewBox="0 0 1010.5 2064.6"  shape-rendering="geometricPrecision" image-rendering="optimizeQuality" fill-rule="evenodd" xmlns:v="https://vecta.io/nano"><path d="M-20796.801 2810.8h66065.797v66065.797h-66065.797z" fill="#e6e6e6"/><g fill-rule="nonzero"><path d="M1010.5 1849.3l-214.1 215.3H216.5L0 1849.3v-332.8h135.5l7.5 12.4h46.4l7.8-12.4h138.6v166.8h338.9v-459.7H216.5L0 1006.9V217.1L216.5 0h579.9l214.1 215.7v320.7H872.2l-8.6-12.3h-46.2l-7.3 12.3H674.7V381.2H335.8V841h460.6l214.1 217.1z" fill="#bae8d9"/><path d="M197.3 1516.5v326.7h612.9v-780H135.4V159.7h736.7v376.7h-61.9V221.7H197.3v779.6h674.8v903.8H135.4v-388.6z" fill="#121c4d"/></g><defs /></svg>