<svg xmlns="http://www.w3.org/2000/svg" width="723.345" height="188.976" viewBox="0 0 17740.4 4634.7"  shape-rendering="geometricPrecision" image-rendering="optimizeQuality" fill-rule="evenodd" xmlns:v="https://vecta.io/nano"><path d="M21535.801-13398.7h148311v148311h-148311z" fill="#e6e6e6"/><g fill-rule="nonzero"><path d="M16812.7 2927v1707.7H16506l-21.4-27.5h-99.8l-17.7 27.5H16049V2921L15144.4 0h303.1l27.1 27.4h104.6l15.1-27.4h324.3l514.4 1725.8L16939.4 0h339.8l10.1 27.9h107.1l26-27.9h317.8l-927.6 2927zm-14890 1707.7l-181.8-1032.1H950.7L768.9 4634.7H436.6l-14-27.7-110.2-.5-16.7 28.2H0L815.9 0h1059.8l815.9 4634.7h-313.1l-23.8-27.8-103-.1-13.8 27.9h-315.2zm-332.6-1887.9l-243.9-1386.5-244.8 1386.5H1590zm3287.5 1887.9l-823-2427.6v2427.6h-310.4l-23.8-27.9h-91.2l-22.3 27.9h-303.4V0h807.9l826.5 2430.6V0h295.5l22 27.1h93.7l22-27.1h315.3v4628.7l2.7 6h-811.5zm3676-3778.9h-748.5v3778.9h-312l-15.8-27.6h-108.8l-13.8 27.6h-305.3V855.8h-748.5V497.1l27-15.4V374.9l-27-16.1V0h2252.6v358.7l-27.2 13.4v107.4l27.2 17.1v359.3zm2981.5 3295.6l-486 483.3h-1403l-480.7-483.3V487.3L9646.1 0h1403l486 487.3v3664.1zm-756.5-372.5v-2923h-859.4v2923h859.4zm2942.5 855.9l-823-2427.6v2427.6h-310.4l-23.8-27.9h-91.2l-22.3 27.9H12147V.1h807.9l826.5 2430.6V.1h295.5l22 27.1h93.7l22-27.1h315.3v4628.7l2.7 6h-811.5z" fill="#bae8d9"/><path d="M16367.1 4634.7V2923.1L15447.7 0h146.5l842.4 2681.3L17279.1 0h143.5l-916.4 2923.1v1711.6h-139zm-16071.5 0l750.6-4276.2h598.2l734.1 4276.2h-140.9l-239.5-1394.8H681.4L436.5 4634.7H295.4zm1678.8-1533.9L1527.5 497.6H1163L706 3100.8h1268.4zm1631.8 1533.9l-3.4-4276.2h266.1l1367.3 3760.4-3.7-4119H5371l3.8 4276.8H5146L3771.9 497.5h-30.5l3.3 4137.1h-138.5zM6301 358.5h2252.6v139H7493l.3 4137.1h-138.5l-.3-4137.1H6301v-139zm4922.5 0v3918.3H9467.2V358.5h1756.3zm-139 139H9606.3v3640.2h1478.2V497.5zm1365.1 4137.1l-3.4-4276.2h266.1l1367.3 3760.4-3.7-4119h138.5l3.8 4276.8h-228.8L12615.3 497.4h-30.5l3.3 4137.1h-138.5z" fill="#121c4d"/></g><defs /></svg>