<svg xmlns="http://www.w3.org/2000/svg" width="106.382" height="188.976" viewBox="0 0 2920.7 5188.3"  shape-rendering="geometricPrecision" image-rendering="optimizeQuality" fill-rule="evenodd" xmlns:v="https://vecta.io/nano"><path d="M-68940.602 7063.7h166025.5v166025.5h-166025.5z" fill="#e6e6e6"/><g fill-rule="nonzero"><path d="M2920.7 5188.3H2536l-38.9-30.8h-111.5l-12.5 30.8h-371.7l-541-1442.8-544.1 1442.8H527.9l-8.7-31.1H396.4l-33.8 31.1H0l1000.7-2668L52.6 0h372.3l34.3 31.6H577L590.7 0H969l491.4 1301.9L1951.8 0H2311l13.9 30.8h114.6L2473.3 0h397.8L1920 2520.3z" fill="#bae8d9"/><path d="M2473.4 0l-939.9 2511.3 1002.7 2677h-163l-922.6-2456.2L528 5188.3H362.5l1005.2-2677L424.4 0h165.9l860.3 2290.5L2310.9 0z" fill="#121c4d"/></g><defs /></svg>