<svg xmlns="http://www.w3.org/2000/svg" width="82.866" height="396.85" viewBox="0 0 165.2 791.2"  shape-rendering="geometricPrecision" image-rendering="optimizeQuality" fill-rule="evenodd" xmlns:v="https://vecta.io/nano"><path d="M4934.3-4967.2h12056.2V6335.5H4934.3z" fill="#ebecec"/><g fill-rule="nonzero"><path d="M165.2 791.2H36.7V179.8H0V33.9L79.2 0h86z" fill="#121c4d"/><g fill="#bae8d9"><path d="M96.5 791.2v-31.6h9v31.6h-9zm0-136.1V78.8L0 109.5v-9.4l105.5-33.6v588.6h-9zm35.4 77.1l-.5-.4.6.1-.1.3zm1.1-.1l.9.1.3-1.1-4.1-.4-.4 1 3 2.8.2-.3.3-.8-.6-.5.3-.8zm-4.3 3.4h0c.1-.2.3-.4.6-.4.2 0 .5.1.7.2.4.3.7.6.5 1.1l-1.7-1zm-1.4.5l3.3 2 .6-1c.3-.4.4-.9.3-1.5-.1-.5-.5-.9-1-1.2-.4-.2-.8-.4-1.2-.4-.7 0-1.2.4-1.5 1l-.5 1zm-.9 2.7h0l.2-.2s.1.1.2.1c.2.1.1.3 0 .4l-.4-.3zm1.5-.2c0-.3-.1-.7-.4-.9a1.08 1.08 0 0 0-.7-.3c-.4 0-.8.3-1 .6l-.8 1.1 3.1 2.5.2-.2.5-.7-1-.9h.1l1.3.5.6-1-1.5-.6c-.1 0-.2-.1-.3-.1zm-18.4 12.6v-.6l.3.5-.3.1zm.7.7l.5.8 1-.4-2.3-3.4-1 .3-.2 4.1.3-.1.8-.3v-.8l.8-.3zm13.7-10.3l.9-1-.8-.6-1.5 1.7 2.7 2.7 1.7-1.7-.8-.6-.7.8-.5-.3.8-.9-.7-.6-.7.8zm-3.2 2.7l1.9 2.3.2-.1.7-.6-1.9-2.3.6-.5-.6-.7-2.1 1.7.7.7zm-1.6 3.6c-.3.2-.6.2-.8.3l-.1.1.4.8h.2c.3 0 .6-.2.9-.3.3-.2.6-.5.7-.9.1-.3 0-.7-.2-1-.3-.5-.7-.6-1.2-.6h-.6c-.1 0-.1 0-.2-.1v-.1c0-.1.1-.1.1-.1l.8-.4-.6-.8h-.1c-.3.1-.5.1-.7.3-.3.2-.6.5-.7.9-.1.3 0 .6.2.9.3.4.7.6 1.2.6h.6c.1 0 .2 0 .2.1s.1.1 0 .2c0 .1-.1.1-.1.1zm-4.6 1.4l-1.5-1.6-1.3.7 1.6 3.5 1-.5-.7-1.5 1.2 1.3.8-.4-.3-1.8.8 1.7 1-.6-1.7-3.5-1.3.6zm19.2-22h-2.3l-.3 1.4 3.8 1.1.1-.2.1-.9-1.6-.4 1.9-.1.1-.8-1.5-1 1.8.5.2-1.1-3.8-1-.4 1.4zM75 676.3l1.1 6.3 2.9-5.8 6.6.8-4.8-4.4 2.9-5.9-5.8 3.1-4.7-4.4 1.1 6.3-5.8 3.1zm57.8 42.9c0-17.3-14.1-31.5-31.4-31.7v1.1c16.8.2 30.4 13.8 30.4 30.6 0 1.6-.1 3.2-.4 4.7l1 .2c.3-1.6.4-3.3.4-5zm-31.5-33.5v1.1h.2c8.6 0 16.7 3.4 22.8 9.4s9.5 14.2 9.5 22.7c0 .9 0 1.9-.1 2.8l-.3 2.5v.1l1.1.2v-.2c.1-.8.3-1.7.3-2.6.1-1 .1-2 .1-3 0-8.8-3.5-17.2-9.8-23.5-6.3-6.2-14.7-9.7-23.6-9.8h-.2zm34.7 33c0 2-.2 4-.5 5.9v.2l1 .2v-.3c.4-2 .5-4 .5-6.1 0-19.2-15.7-34.8-34.9-34.8h-.9v1.1h.9c18.7 0 33.8 15.1 33.8 33.7zm-64.8.6h-1.1c.2 17.5 14.6 31.5 32.1 31.3 1.5 0 3.1-.2 4.6-.4l-.2-1c-1.5.2-2.9.4-4.4.4-16.9.2-30.9-13.4-31.1-30.2zm35.9 32.9h.1l-.2-1.1h-.1l-2.5.3c-.9.1-1.9.1-2.8.1-8.6 0-16.7-3.5-22.7-9.5s-9.5-14.1-9.6-22.6v-.1h-1.1v.1c.1 8.8 3.7 17.1 9.9 23.4 6.3 6.3 14.7 9.8 23.5 9.8 1.9 0 3.7-.2 5.6-.5zm.5 1.7l-.2-1-.3.1c-2 .3-4 .5-6 .5-18.7 0-33.8-15.7-33.8-34.2h0-1.1c0 19.1 15.6 35.2 34.9 35.2 2.1 0 4.2-.2 6.2-.6h.3zm17.8-45.5c0-6-2.8-9.9-8-11.4l-.1 5.9c0 .2.1.4.2.5 0 0 1.4.9 2.1 2 .7 1 .9 2.2.9 2.2 0 .3.3.5.6.5s.5-.3.5-.5v-.1c0-.1-.2-1.5-1.1-2.7-.6-.9-1.7-1.7-2.1-2.1 0-.4.1-2.9.1-4.1 3.9 1.6 5.9 5 5.9 9.9 0 7.1-4.3 12-10.6 12-5.6 0-7.6-4.7-8.8-7.8l-.4-1c-.4-.9-1.1-1.6-1.9-1.9-1.5-.6-3.3.2-3.9.5-.3.1-.4.4-.3.7s.4.4.7.3c.5-.2 2-.9 3.1-.5.5.2.9.6 1.2 1.3l.4 1c1.3 3.2 3.5 8.4 9.8 8.4 6.9 0 11.6-5.4 11.6-13.1zm-55.1 3.1l-2.9-1.9 3.4-.1-.6 2zm2.9 2l-1.6-1.1.8-3 1.9-.1.7-2.3-9 .9-.7 2.6 7.2 5.3.6-2.2zm4.1-8.3c-.1.4-.3 1.2-.6 1.6l1.9-.2s.3-.4.5-.8c1.1-1.6.5-3-1-4.1l-6.5-4.5-1.3 1.8 6 4.1c1.1.8 1.1 1.5.9 2.1zm3.4-14.6l2.7 2.1-1.7 1.2-1.1-3.3zm2.1 6.7l-.5-1.8 2.6-1.8 1.6 1.1 2-1.4-7.5-4.9-2.2 1.6 2.3 8.6 1.8-1.3zm9.2-9.8l-1.6 4.9 2.5-.6.8-3.4L96 691l2.6-.6-3.7-3.6 1.5-4.4-2.4.5-.7 3.1-2.1-2.4-2.5.6zm2.4 18c1.2-.5 3.3-1.6 5.1-2.6l4.8-2.4c1.4-.5 2.9-1 4.7-.9 1.9.1 2.5.4 3.2.6.7.3 1.9 1 1.9 1 .3.1.6.1.7-.2.2-.3.1-.6-.2-.7-.1 0-1.2-.7-2.1-1.1s-1.6-.6-3.6-.7-3.7.4-5.1.9c-1.6.6-3.6 1.7-5 2.5l-4.9 2.6c-1.3.6-3.4 1.2-3.8 1.2-.3 0-.5.2-.6.5a.47.47 0 0 0 .5.5c.7 0 3.2-.9 4.2-1.3zm-.7 15.3l-1.7.3c-.2 0-.5.3-.5.6.1.3.4.5.6.4l1.8-.3c.8-.2 1.4-.6 1.8-1.3.1-.2.7-1 1-1.4.1-.1.1-.2.1-.3h0l-.2-2.7 1.9 1.4c-.1.3-.3.8-.4 1s-.2.5-.2.8c0 .4.2.8.6 1.1 0 0 .4.2.5.4a.76.76 0 0 1 .2.4v1.3c0 .4.1.8.2 1.3 0 .3.1.6.1.7-.1.1-.2.4-.4.5-.4.6-1.1 1.4-1.4 2.2l-.4.9c-.2.5-.5 1.2-.6 1.2-.2.1-1.2.3-1.8.4l-1 .2c-.6.1-1.3.4-1.9.7-.3.1-.6.2-.7.3-.2 0-.6-.2-.9-.3-.4-.1-.9-.3-1.3-.4s-.4-.1-.4-.3v-.3c0-.6-.5-1.2-1.5-1.8-.4-.3-1.2-1-1.2-1.6v-.1c0-.5.5-1 .9-1.5l.3-.4c.2-.3.3-.5.3-.8v-.1c.5 0 1 .1 1 .1.3 0 .6-.2.6-.5s-.2-.6-.5-.6l-1.9-.1a.55.55 0 0 0-.5.3l-.1.2c0 .1.1.3.1.4 0 0 .2.2.2.3l-.4.4c-.5.6-1.2 1.3-1.2 2.2v.2c.1 1.3 1.5 2.3 1.7 2.4 1 .6 1 .9 1 .9v.2c0 .6.2 1.2 1.3 1.4.3.1.8.2 1.2.3.8.2 1.2.4 1.5.3.2 0 .4-.1.9-.3.6-.2 1.2-.5 1.7-.6l1-.2c1.1-.2 1.8-.3 2.1-.5.4-.3.7-.8 1.1-1.8l.4-.9c.3-.7.9-1.4 1.3-2s.6-.8.6-1v-.2c0-.2 0-.5-.1-1-.1-.4-.1-.8-.2-1.1v-1.2c0-.5-.1-.9-.4-1.1 0 0-.3-.2-.5-.4a.74.74 0 0 1-.3-1c.1-.2.3-.9.5-1.2v-.2c0-.2-.1-.3-.2-.4l-4.2-3 .3 4.8c-.3.3-.8 1.1-1 1.4a1.59 1.59 0 0 1-1 .8z"/><path d="M110.8 728l.3-.1c.6-.2 1.3-.4 1.4-1.3s-.8-1.9-2.7-3.7c-1.4-1.4-4.3-3.9-7.6-6.5-3.2-2.5-8.7-6.3-11-7.5-2.4-1.4-4.1-1.7-5.1-1.7-.6 0-1 .3-1.1.5-.3.5-.1 1.1.1 1.6.3.6 1.3 1.3 1.6 1.5s.6.1.8-.1c.1-.1.1-.2.1-.3 0-.2-.1-.3-.2-.4-.5-.3-1.1-.9-1.2-1.1-.1-.3-.1-.4-.1-.5h.2c.9 0 2.3.3 4.5 1.5 2.2 1.3 7.7 4.9 10.8 7.4 3.2 2.6 6.1 5.1 7.5 6.5 1 .9 2.4 2.3 2.4 2.8h0c0 .2 0 .2-.6.4l-.4.1c-1.1.4-1.6.9-1.6 1.6 0 .2.1.5.1.8a2.39 2.39 0 0 1 .2.9v.1c-.2.2-.6.2-1.1.2-.3 0-.6 0-.8.1l-.6.3c-.3.2-.8.4-1 .3-.2-.2-.3-.4-.3-.8 0-.3 0-.6.1-.9l.2-.8c.1-.5.2-.9.2-1.2 0-.2 0-.3-.1-.4-.1-.3-.5-.4-1.2-.7-.3-.1-1-.4-1.1-.5s-.2-.4-.2-.8v-.3c0-.3.2-1.1.3-1.4v-.1c0-.2-.2-.5-.4-.5-.3-.1-.6.1-.6.4 0 .1-.2 1-.3 1.5v.4c0 .5.1 1.1.4 1.5.2.3.8.5 1.6.8.2.1.4.2.6.2 0 .2-.1.5-.2.7l-.2.9c-.1.2-.1.7-.1 1.1 0 .6.1 1.2.7 1.7.7.6 1.7.1 2.2-.2.2-.1.3-.2.4-.2h.5c.6 0 1.5 0 2-.7.4-.5.2-1.2 0-1.9 0-.2-.1-.4-.1-.5s.2-.3.9-.6zm-24-7.5c-.3-.1-.6.2-.6.4 0 .3.2.6.5.6 2.2.4 2.6.3 2.9.2h0c.4-.1.6-.3.6-.5l.1-.3c0-.4-.3-.7-.5-1l-.1-.1c-.1-.1-.3-.7-.3-1.4 0-.2 0-.4.1-.6.2-.7.2-1.3.3-1.8 0-.2 0-.4.1-.6.2 0 .3.1.5.1.4.1.9.3 1.2.2.6-.1.7-.8.7-1.4v-.9c0-1.1-1.6-1.2-2.4-1.2h-.2c-.1 0-.2-.1-.3-.1.2-.2.5-.6.9-1 .1-.1.2-.2.2-.4a.76.76 0 0 0-.2-.4c-.2-.2-.5-.2-.8 0-1.3 1.3-1.3 1.7-1.3 1.8 0 .7.7 1.1 1.4 1.1h.3c.9 0 1.2.1 1.4.2v1.1c-.2 0-.4-.1-.5-.2-.6-.2-1-.3-1.4-.1s-.5.7-.6 1.5c0 .5-.1 1.1-.3 1.7-.1.3-.1.6-.1.9 0 .8.2 1.6.5 2l.1.1c-.2 0-.8 0-2.2-.2z"/><path d="M87.3 713.1c-.3-.1-.6-.1-.7.2l-1.2 2.1c-.3.4-1.4 2.7-1.4 3.2 0 .4.2.8 2.8 1.2.3 0 .6-.2.6-.4v-.1a.47.47 0 0 0-.5-.5c-.6-.1-1.4-.2-1.8-.4l1.1-2.3c.4-.5 1.3-2.1 1.3-2.2l.1-.3a.55.55 0 0 0-.3-.5zm26.6 21.8c.7.1 2.1-.2 2.6-.9.3-.5.6-1.4.6-1.5.1-.3-.1-.6-.4-.7s-.6.1-.7.4-.3.9-.5 1.2c-.2.2-1.1.5-1.6.4-.3 0-.9-.2-1.2-.6-.2-.3-.2-.6-.1-1 .3-1.2 1.6-1.2 1.7-1.2.3 0 .6-.2.6-.5s-.2-.6-.5-.6c-.8 0-2.5.3-2.9 2-.2.7 0 1.3.3 1.8.5.7 1.3 1 2 1.1zm6 5.2c.5-.3.8-.9.8-1.7 0-.5-.1-1-.3-1.5-.8-2.1-.9-3.1-.9-3.5v-.3c.3-.3 1.1-.3 2.4 0l3.1 1c.3.1.6 0 .7-.3s-.1-.6-.3-.7c-.1 0-1.8-.6-3.2-1s-2.7-.6-3.5.3c-.6.6-.4 2 .6 4.9.4 1 .2 1.8 0 1.9s-.8-.1-1.3-.7h0c-1.5-1.6-2.3-2.1-3-1.8-.8.3-1.3 2.3-1.6 3.5-.5 1.9-.8 2.5-1 2.6-.2-.4-.3-1.5-.3-2.6v-.8c0-.6-.1-3.4-1-3.8-1-.4-2.5 1.2-2.5 1.2-.3.3-2 2.2-3.3 4.6-1.2 2.2-2.2 5-2.2 5.1-.1.3 0 .6.3.7s.6-.1.7-.3c0 0 1-2.8 2.2-5 1.2-2.3 2.9-4.2 3.1-4.4.4-.4 1-.8 1.3-.9.2.4.4 1.7.4 2.6v1c0 1.1.1 2.8.7 3.4.2.2.4.3.7.3 1.2-.1 1.7-1.7 2.1-3.5.3-1.4.8-2.4 1-2.7.2 0 .6.3 1.8 1.5h0c.7.8 1.8 1.3 2.6.9zm-26.7 1.3c-1.1-1.1-2.5-1.5-2.6-1.5-.3-.1-.6.1-.7.4s.1.6.4.7c0 0 1.2.3 2.1 1.2.5.5.9 1.4 1 2 .1.5.2 1.6.2 1.6 0 .3.3.5.6.5s.5-.3.5-.6l-.2-1.7c-.2-.7-.7-1.9-1.3-2.6z"/><path d="M103.9 733.9c-.1-.3-.3-.5-.6-.4l-2.9.7c-.4.1-1 .3-1.6.6l1.7-3.1c.6-1.3.7-2.5.7-2.5v-.1a.47.47 0 0 0-.5-.5c-.3 0-.6.2-.6.5 0 0-.1 1.1-.6 2.2-.5 1.2-2.3 4.3-2.4 4.3a.47.47 0 0 0 .1.6.47.47 0 0 0 .6.1l2.9-1.1 2.9-.7c.3-.1.4-.4.3-.6zm-26.2-1.7c-.3 0-.5.3-.5.6s.3.5.6.5c0 0 1.9-.2 3.7.2 2 .4 4.7 1.4 6 1.9l.2.1c5 2.1 6.1 2.1 6.6 1.6.9-1-.4-2.2-.8-2.6a.61.61 0 0 0-.8 0c-.1.1-.1.2-.1.4a.76.76 0 0 0 .2.4c.6.6.8.9.8 1-.4 0-1.6-.3-5.4-1.8l-.2-.1c-1.3-.5-4.1-1.5-6.1-2s-4-.3-4.1-.3zm17.4-56l5.4-3.8 5.2 3.8-1.9-6.1 5.3-3.9h-6.5l-2-6.1-2.1 6.1H92l5.2 3.9zm26.8.7l2.9 5.9 1-6.5 6.4-.9-5.7-3.1 1.1-6.5-4.6 4.6-5.7-3.1 2.8 5.9-4.5 4.6z"/></g></g><defs /></svg>