<svg xmlns="http://www.w3.org/2000/svg" width="97.996" height="188.976" viewBox="0 0 632 1218.7"  shape-rendering="geometricPrecision" image-rendering="optimizeQuality" fill-rule="evenodd" xmlns:v="https://vecta.io/nano"><path d="M-6536 1659.2h38999v38999H-6536z" fill="#e6e6e6"/><g fill-rule="nonzero"><path d="M632 0L366.8 609.8 632 1218.7h-91.9l-8.8-7.2h-29.2l-1.8 7.2h-88.9L198.2 722.3v496.4h-80.5l-4.8-7.3H86l-4.9 7.3H0V0h81.3l3 7.2h29.6l3.8-7.2h80.5v496.4L411.4 0h86.5l1.7 7.2h29.6l8.4-7.2z" fill="#bae8d9"/><path d="M117.7 0v591.1h125L497.8 0h39.8L274.5 609.6l265.6 609.1h-39.8L242.6 627.6H117.7v591.1H81.1V0z" fill="#121c4d"/></g><defs /></svg>