<svg xmlns="http://www.w3.org/2000/svg" width="697.95" height="188.976" viewBox="0 0 17095.4 4628.7"  shape-rendering="geometricPrecision" image-rendering="optimizeQuality" fill-rule="evenodd" xmlns:v="https://vecta.io/nano"><path d="M18271.9-75581.398h148119.297V72537.898H18271.9z" fill="#e6e6e6"/><g fill-rule="nonzero"><path d="M16607.3 0l488 489.7V4143l-488 485.7h-1852.9V0h1852.9zM1866.1 4628.7H-.1L.3 0H310l17.2 27.2h104.3L448.2 0h307.6l-.4 3774h1110.7v358.9l-27.6 16.7v102.2l27.6 19.3v357.6zm2531.3 0L4215.8 3598h-789.2L3245 4628.7h-331.8l-14-27.7-110-.5-16.7 28.2h-295.4L3292 0h1058.4l814.8 4628.7h-312.7l-23.8-27.7-102.9-.1-13.8 27.9h-314.8zm-332.1-1885.5l-243.6-1384.7-244.5 1384.7h488zm2464-857.8h773.2V854.7h-773.2v1030.7zm0 1888.5h773.2V2743.2h-773.2v1030.7zM8057.1 4146l-482.7 482.7h-1798V0h1798l482.7 486.7v1422.9l-290.5 400.2 290.5 410.3V4146zm2277.1-1222.8v1705.5h-306.3l-21.3-27.5H9907l-17.7 27.5h-317.6V2917.2L8668.3 0H8971l27 27.4h104.5L9117.6 0h323.9l513.7 1723.6L10460.9 0h339.3l10.1 27.9h107l25.9-27.9h317.4l-926.4 2923.2zm3041.2 1705.5L13193.8 3598h-789.2L12223 4628.7h-331.8l-14-27.7-110-.5-16.7 28.2h-295.4L12270 0h1058.4l814.8 4628.7h-312.7l-23.8-27.7-102.9-.1-13.8 27.9h-314.8zm-332.1-1885.5l-243.6-1384.7-244.5 1384.7h488zm3299.2 1030.7V854.7h-832.6v2919.2h832.6z" fill="#bae8d9"/><path d="M15199.8 497v3635.5H16314l339-385.3V880.6L16314.4 497h-1114.5zM448.4 0v4132.4h1417.8v138.9H309.5V0h138.9zm2324.1 4628.7l749.7-4270.6h597.4l733.2 4270.6h-140.7l-239.2-1393h-1315l-244.5 1393h-140.9zm1676.6-1531.9L4002.8 496.9h-364.1l-456.4 2599.9h1266.8zM6152.9 358.1h1596.6V1910l-354.3 400 354.3 407.3v1554H6083.4V358.1h69.4zm69.4 1882.2h1049.8l338.5-382.2V496.9H6222.3v1743.3zm1049.1 138.9H6222.3v1753.3h1388.3V2769.2l-339.2-390zm2617.8 2249.6V2919.4L8971 .1h146.3l841.4 2677.8L10800.1.1h143.3l-915.2 2919.3v1709.4h-138.9zm1861.2 0l749.7-4270.6h597.4l733.2 4270.6H13690l-239.2-1393h-1315l-244.5 1393h-140.9zM13427 3096.9L12980.7 497h-364.1l-456.4 2599.9H13427zM15060.9 4202V358.2h1315.3l415.5 470.7v2970.5l-415.2 472h-1315.7V4202z" fill="#121c4d"/></g><defs /></svg>