<svg xmlns="http://www.w3.org/2000/svg" width="920.01" height="188.98" viewBox="0 0 87028.3 17876.2"  shape-rendering="geometricPrecision" image-rendering="optimizeQuality" fill-rule="evenodd" xmlns:v="https://vecta.io/nano"><path d="M-164314.3 47765h572037.38v572037.38H-164314.3z" fill="#e6e6e6"/><g fill-rule="nonzero"><path d="M87028.3 17876.2h-1200.1l-54.1-106.6h-424.7l-57.5 106.6h-1181.4V0h1180.3l51.7 106.3h434.7L85827 0h1201.4v17876.2zm-76144 0H9671.8l-48.3-106h-430.7l-53.7 106H7966.6V7806.1l-2534.7 6143.8-2524.4-6143.8v10070.1H1709.8l-79.2-106.6h-378.8l-78.4 106.6H-.1V0h2907.5l2524.4 6143.8L7966.5 0h2917.7v17876.2zm9775.8 0l-701.2-3980.7h-3047.7l-701.2 3980.7h-1281.5l-54-106.9-424.9-1.9-64.5 108.8h-1140.7L16391.4 0H20479l3146.9 17876.2h-1207.6l-91.8-107.1-397.4-.5-53.1 107.7h-1215.8zm-1282.8-7281.8l-940.6-5347.7-944.1 5347.7h1884.7zm14975.1 7281.8h-8366.8v-1491.3l4669.1-13095.5h-4268.9V1917.2l108.9-90.5v-361.8l-108.9-84.9V0H34325v1798.1l-4549.4 12777h4576.8v1386.3l-105.8 63.5v395.7l105.8 73.4v1382.1zm11728.8 0h-1252.9l-132.9-106.5h-374.7l-33.8 106.5H42965l-2473.1-7281.8h-862v7281.8h-1187.5l-69.8-106.1h-397.5l-68.5 106.1h-1194.4V0h6984.9l1854 1879.6v6563.3l-1984 2104.9 2514.1 7328.3zM39630 7281.7h3017V3289.4h-3017v3992.3zm16227.4 10594.5l-701.2-3980.7h-3047.7l-701.2 3980.7h-1281.5l-54-106.9-424.9-1.9-64.5 108.8h-1140.7L51588.7 0h4087.6l3146.9 17876.2h-1207.6l-91.8-107.1-397.4-.5-53.1 107.7h-1215.8zm-1282.8-7281.8L53634 5246.7l-944.1 5347.7h1884.7zM70322.8 16012l-1874.5 1864.1h-5411.4l-1854-1864.1V1879.6L63036.9 0h5411.4l1874.5 1879.6V16012zm-2917.7-1436.9V3301h-3314.6v11274.1h3314.6zm14345.6 1425.3l-1901.9 1875.8h-5301.9l-1864.2-1864.1V.1h1171.5l63.9 105.4h402.7L74390.3.1h1199.9v14575.1h3256.4V.1h1170.7l51.4 104.5h430.2L80554.4.1h1196.2v16000.4z" fill="#bae8d9"/><path d="M85826.8 0v17876.2h-536.3V0h536.3zm-76690 17876.2l-50.7-15956.9-3676.7 8929.8-3699.7-8929.8v15956.9h-536.3V1383h955.5l3283.6 8054.7L8728.9 1383h944.3v16493.2h-536.3zm5247.5 0L17279.5 1383h2307.3l2831.5 16493.2h-543.4l-923.6-5379.9h-5078.6l-944.4 5379.9h-544.1zm6475-5916.2L19135.5 1919.3h-1406.1L15966.8 11960h4892.4zm5526.6-10577h6854.5l-5424.1 14576.6h6536.1v536.3h-7305.7l5424.1-14576.5h-6085v-536.3zm11520.3 16493.2V1383H44360v7823.3h-2467l2935.7 8669.9h-543l-2958.3-8669.9h-2885v8669.9h-536.3zm536.3-15956.9V8670h5381.3V1919.3h-5381.3zm11139.2 15956.9L52476.9 1383h2307.3l2831.5 16493.2h-543.4l-923.6-5379.9h-5078.6l-944.4 5379.9h-544.1zm6475-5916.2L54332.9 1919.3h-1406.1L51164.2 11960h4892.4zM69121.3 1383v15112.8h-6774V1383h6774zm-536.3 536.3h-5701.4v14040.3H68585V1919.3zM74389.6 0v15959.5h5627.5V0h536.3v16495.8h-6700V0h536.3z" fill="#121c4d"/></g><defs /></svg>