<svg xmlns="http://www.w3.org/2000/svg" width="194.615" height="396.85" viewBox="0 0 709.3 1446.3"  shape-rendering="geometricPrecision" image-rendering="optimizeQuality" fill-rule="evenodd" xmlns:v="https://vecta.io/nano"><path d="M14727.1-9079.8h22038.199v20660.801H14727.1z" fill="#ebecec"/><g fill-rule="nonzero"><path d="M709.3 1295.4l-150.6 150.8H150.6L0 1295.4V152L148.9-.1h407.3L706.8 152v223.7H471.1V267H234.9v322.1h323.8l150.6 150.2v556.1zm-239-116.3V857H234.9v322.1h235.4z" fill="#bae8d9"/><g fill="#121c4d"><path d="M126 713.9h473.6v606.4H436.5v-16.4h146.7V730.3H126v573.6h146.8v16.4H109.7V124.5h489.9v250.3h-16.4V140.9H126zm284.7 624.4l-.8-.7 1 .1-.2.6zm1.9-.2l1.7.2.6-2-7.4-.8-.7 1.8 5.6 5.2.3-.6.5-1.5-1.1-.9.6-1.4zm-7.7 6.4h0c.2-.4.6-.7 1-.7s.9.2 1.2.4c.8.5 1.3 1.1.8 2.1l-3.1-1.8zm-2.5.8l6.1 3.7 1.1-1.8c.5-.8.8-1.7.5-2.7-.2-1-.9-1.7-1.8-2.2-.6-.4-1.4-.7-2.2-.7-1.3 0-2.1.8-2.8 1.8l-1 1.9zm-1.8 5.1h0c.1-.1.3-.3.4-.3s.2.1.3.2c.3.2.2.5 0 .7l-.7-.5zm2.7-.4c0-.6-.3-1.2-.8-1.6-.4-.3-.9-.5-1.4-.5-.7 0-1.4.5-1.8 1l-1.4 2 5.6 4.5.3-.4.9-1.3-1.8-1.6h.2l2.4.9 1.1-1.8-2.8-1c-.2-.1-.3-.1-.5-.1zm-33.6 23v-1.1l.6.9-.6.2zm1.4 1.3l1 1.4 1.9-.8-4.2-6.2-1.8.6-.4 7.5 2.1-.7-.1-1.5 1.4-.5zm25-18.9l1.6-1.8-1.4-1.1-2.9 3 5.1 5.1 3.1-3.2-1.5-1.1-1.4 1.6-.7-.7 1.4-1.6-1.4-1.1-1.3 1.4zm-5.8 5l3.4 4.2.3-.2 1.3-1.2-3.4-4 1.1-1.1-1.2-1.2-3.7 3.1 1.2 1.2zm-3 6.5c-.5.3-1.1.3-1.4.6l-.3.2.8 1.4h.3c.6 0 1.2-.3 1.6-.6.6-.4 1.1-.9 1.3-1.6.2-.6 0-1.2-.4-1.8-.5-.9-1.2-1.1-2.2-1.1h-1.1c-.2 0-.2 0-.3-.2v-.2c0-.1.2-.2.2-.3.3-.2.8-.3 1.2-.6l.4-.2-1.1-1.4-.2.1c-.5.1-.9.3-1.3.5-.6.4-1.1.9-1.2 1.6-.1.5 0 1.1.3 1.6.5.8 1.2 1.1 2.2 1.1l1.1-.1c.2 0 .3 0 .4.1s.1.2.1.3-.1.2-.2.3zm-8.5 2.7l-2.7-3.1-2.4 1.3 2.9 6.5.5-.2 1.4-.8-1.3-2.7 2.2 2.5 1.4-.8-.5-3.3 1.5 3 1.8-1-3.1-6.4-2.3 1.1zm35.1-40.4l-4.1.1-.5 2.6 6.8 2 .2-.4.3-1.7-2.9-.7 3.3-.1.3-1.6-2.8-1.8 3.2.9.4-2-6.9-1.8-.6 2.5zm-107.2-93l2 11.6 5.4-10.6 11.9 1.5-8.7-8.2 5.3-10.6-10.6 5.6-8.6-8.1 2 11.6-10.6 5.7zm105.6 78.5c0-31.7-25.7-57.5-57.5-57.9v1.9c30.7.4 55.5 25.3 55.5 55.9 0 2.9-.2 5.8-.7 8.7l1.9.4c.5-3 .7-6 .7-9.1zm-57.5-61.2v2h.4c15.7 0 30.6 6.2 41.7 17.2s17.3 25.9 17.3 41.5c0 1.7-.1 3.4-.2 5.1-.1 1.5-.3 3.1-.6 4.6v.2l2 .4v-.3c.3-1.6.5-3.1.6-4.7.2-1.8.2-3.6.2-5.4 0-16.2-6.4-31.5-17.9-42.9s-26.9-17.8-43.1-17.8h-.4zm63.4 60.3c0 3.6-.3 7.2-.9 10.8l-.1.4 1.9.4.1-.5c.6-3.7 1-7.4 1-11.1 0-35-28.6-63.5-63.8-63.5h-1.6v1.9h1.6c34.1 0 61.8 27.6 61.8 61.6zm-118.5 1h-1.9c.4 31.9 26.7 57.6 58.8 57.2 2.8 0 5.6-.3 8.4-.7l-.4-1.9c-2.7.4-5.4.7-8.1.7-31 .3-56.4-24.5-56.8-55.3zm65.7 60.1h.2l-.4-2h-.2c-1.5.3-3.1.5-4.7.6l-5.2.2c-15.7 0-30.5-6.3-41.6-17.4-11-11-17.3-25.8-17.5-41.3v-.2h-2v.3c.2 16.1 6.7 31.3 18.1 42.7 11.4 11.5 26.8 18 43 18 3.4 0 6.8-.3 10.2-.8z"/><path d="M366.3 1378.1l-.4-1.9-.5.1c-3.6.6-7.3 1-11 1-34.2 0-61.8-28.6-61.8-62.4h0-1.9c0 34.9 28.5 64.4 63.8 64.4 3.8 0 7.6-.3 11.4-1l.6-.1zm32.6-83.2c0-10.9-5.2-18-14.7-20.8l-.2 10.8c0 .3.2.7.4.8 0 0 2.5 1.7 3.8 3.6s1.6 4.1 1.6 4.1c.1.5.6.9 1.1.8s.9-.5.9-1v-.1c0-.1-.4-2.7-1.9-5-1.2-1.7-3.1-3.2-3.9-3.8l.1-7.6c7.1 3 10.8 9.1 10.8 18.1 0 12.9-7.9 21.9-19.3 21.9-10.3 0-13.8-8.5-16.2-14.2l-.8-1.9c-.8-1.7-1.9-2.9-3.4-3.4-2.8-1.1-6 .4-7.2 1-.5.2-.7.8-.5 1.3s.8.7 1.3.5c1-.5 3.6-1.7 5.7-.9 1 .4 1.7 1.1 2.3 2.4l.8 1.8c2.4 5.8 6.4 15.4 18 15.4 12.5 0 21.3-9.8 21.3-23.9zm-100.9 5.8l-5.3-3.5 6.3-.2-1 3.7zm5.4 3.7l-2.8-2 1.5-5.5 3.5-.2 1.2-4.3-16.4 1.6-1.3 4.8 13.2 9.7 1.1-4zm7.5-15.4c-.1.7-.6 2.2-1 2.8l3.4-.5s.6-.8 1-1.5c2-3 .9-5.5-1.7-7.4l-12-8.1-2.3 3.3 10.9 7.4c2 1.4 1.9 2.7 1.7 3.9z"/><path d="M317.1 1262.4l5 3.8-3.1 2.2-1.9-6zm3.8 12.3l-1-3.3 4.7-3.4 2.8 2 3.6-2.6-13.8-8.9-4.1 2.9 4.3 15.7 3.4-2.4zm16.8-18l-2.9 9 4.5-1.1 1.5-6.2 4.3 4.8 4.7-1.1-6.7-6.7 2.6-8.1-4.3 1.1-1.4 5.5-3.7-4.3-4.6 1.1zm4.4 32.9c2.2-1 6-3 9.2-4.8 3.6-2.1 6.6-3.6 8.9-4.4 2.5-.9 5.3-1.8 8.6-1.6 3.5.2 4.6.6 5.9 1.2 1.4.5 3.5 1.8 3.5 1.8.5.3 1.1.1 1.4-.3.3-.5.1-1.1-.3-1.4-.1-.1-2.2-1.4-3.8-2-1.6-.7-3-1.1-6.5-1.3-3.7-.2-6.7.8-9.3 1.7-3 1.1-6.6 3-9.2 4.5-3.1 1.8-6.9 3.8-9 4.7-2.5 1.1-6.2 2.3-6.9 2.3-.5 0-1 .4-1 1 0 .5.4 1 1 1 1.3 0 5.8-1.6 7.8-2.4zm-1.2 28l-3.2.6c-.4.1-.9.6-.8 1.1s.6.8 1.2.8l3.2-.6c1.4-.3 2.5-1.1 3.2-2.4l1.9-2.6c.1-.2.2-.4.2-.6v-.1l-.4-4.9 3.5 2.6-.7 1.8c-.1.4-.3.9-.3 1.5s.3 1.5 1.1 2.1c0 0 .7.4 1 .7.3.1.3.5.3.7v2.3c0 .7.2 1.5.3 2.3l.2 1.3c-.1.2-.4.6-.7 1-.8 1.1-1.9 2.6-2.6 4l-.8 1.7c-.4.9-.9 2.1-1.2 2.3-.4.2-2.2.6-3.3.7l-1.9.4c-1.1.2-2.4.8-3.5 1.2l-1.3.5c-.3 0-1.1-.3-1.7-.5-.8-.3-1.7-.5-2.4-.7-.7-.1-.8-.1-.8-.5v-.5c0-1.1-.9-2.1-2.7-3.4-.8-.5-2.2-1.8-2.3-2.9v-.1c0-.9.9-1.9 1.6-2.7l.6-.7c.4-.5.5-1 .5-1.4v-.2c.9.1 1.9.1 1.9.1.6 0 1-.4 1.1-.9 0-.5-.4-1-.9-1l-3.5-.2c-.4 0-.8.2-.9.6l-.1.4c0 .3.1.5.3.7 0 0 .3.3.3.6l-.1.2-.5.6c-.9 1-2.1 2.4-2.1 4v.3c.2 2.3 2.8 4.2 3.1 4.4 1.8 1.2 1.8 1.7 1.8 1.7v.4c0 1.2.4 2.2 2.4 2.6.6.1 1.5.4 2.2.6 1.4.4 2.1.7 2.7.5l1.6-.6 3.2-1.1 1.8-.4c2-.4 3.3-.6 3.9-1 .8-.5 1.3-1.6 2-3.2l.7-1.6c.6-1.2 1.6-2.6 2.4-3.7s1-1.4 1.1-1.8v-.3c0-.3-.1-.8-.2-1.8l-.3-2.1v-2.2c0-.9-.1-1.6-.7-2 0 0-.5-.3-1-.7-.6-.4-.8-.9-.5-1.7a49.31 49.31 0 0 1 .9-2.3l.1-.4c0-.3-.1-.6-.4-.8l-5-3.7-2.5-1.9.6 8.8c-.5.6-1.5 2-1.8 2.6-.4.8-1 1.2-1.9 1.4z"/><path d="M372.2 1330.8l.6-.2c1.1-.4 2.4-.8 2.6-2.4s-1.5-3.4-4.9-6.8c-2.6-2.6-7.9-7.1-13.8-11.9-5.8-4.7-16-11.5-20.1-13.8-4.4-2.5-7.5-3-9.3-3-1.2 0-1.8.5-2.1.9-.6.9-.2 2.1.1 2.9.5 1.1 2.3 2.4 2.9 2.8.5.3 1.1.2 1.4-.3.1-.2.2-.4.2-.6 0-.3-.2-.6-.4-.8-.9-.6-2-1.6-2.2-2-.2-.5-.3-.8-.3-.9v-.1s.1-.1.4-.1c1.6 0 4.3.5 8.3 2.8s14.1 9 19.8 13.6c5.9 4.8 11.1 9.3 13.7 11.8 1.7 1.7 4.3 4.3 4.3 5.1h0c0 .3 0 .4-1.2.8l-.7.2c-2 .7-3 1.7-3 2.9 0 .4.1.9.3 1.4.1.4.3 1.2.3 1.6v.2c-.3.4-1 .4-2 .4-.6 0-1.1 0-1.5.1s-.7.3-1.1.5c-.6.3-1.5.8-1.8.6-.3-.3-.5-.8-.5-1.5 0-.5.1-1 .2-1.7l.4-1.5c.2-.9.4-1.6.4-2.1 0-.3 0-.5-.2-.7-.3-.5-.8-.7-2.2-1.3-.6-.2-1.8-.7-2-.9-.2-.3-.3-.8-.3-1.5v-.6c.1-.6.4-2 .5-2.5v-.2c0-.4-.3-.8-.8-.9s-1 .2-1.2.7c-.1.2-.5 1.9-.5 2.7v.8c0 .9.2 2 .8 2.7.4.6 1.4.9 2.9 1.5.3.1.8.3 1 .4 0 .4-.2.9-.3 1.3l-.4 1.6c-.1.4-.3 1.2-.3 2.1 0 1.1.3 2.2 1.3 3 1.4 1.1 3 .2 4-.4.3-.1.6-.3.8-.4h.9c1.1 0 2.8.1 3.7-1.3.6-.9.3-2.3 0-3.4-.1-.3-.2-.8-.2-.9s.3-.6 1.7-1zm-44-13.8c-.5-.1-1 .3-1.1.8s.3 1 .8 1.1c3.9.7 4.7.5 5.4.3h.1c.7-.1 1-.6 1.1-.8l.1-.5c0-.7-.5-1.3-.9-1.8l-.1-.1c-.2-.2-.5-1.3-.5-2.5 0-.4.1-.8.1-1.2.3-1.3.4-2.4.5-3.4 0-.4.1-.8.1-1.1.3.1.6.2.9.2.8.3 1.6.5 2.2.4 1.2-.2 1.4-1.4 1.4-2.5v-1.6c0-2-2.8-2.1-4.4-2.2h-.4c-.2 0-.4-.1-.6-.2a13.13 13.13 0 0 1 1.7-1.8 1.08 1.08 0 0 0 .3-.7 1.08 1.08 0 0 0-.3-.7c-.4-.4-1-.4-1.4 0-2.4 2.3-2.4 3-2.4 3.3 0 1.2 1.3 1.9 2.5 2.1h.5c1.6.1 2.3.2 2.5.4v1.9l-1-.3c-1-.3-1.8-.6-2.5-.2-.8.4-.9 1.3-1.1 2.8-.1.9-.2 1.9-.5 3.1-.1.5-.2 1.1-.2 1.7 0 1.5.4 3 .9 3.7l.2.3c-.4 0-1.5 0-4-.5z"/><path d="M329.2 1303.5c-.5-.3-1.1-.1-1.3.4l-2.3 3.8c-.5.7-2.6 4.9-2.6 5.8 0 .8.4 1.4 5.1 2.1.5.1 1.1-.3 1.1-.8v-.1c0-.5-.3-.9-.8-1l-3.3-.6c.5-1.2 1.6-3.6 2.1-4.2.7-1 2.3-3.9 2.4-4l.1-.5c0-.3-.2-.7-.5-.9zm48.6 39.9c1.3.2 3.9-.4 4.7-1.6.6-.8 1.1-2.5 1.2-2.7.2-.5-.1-1.1-.7-1.2-.5-.2-1.1.1-1.2.6-.2.6-.6 1.7-.9 2.1-.3.3-2 .9-2.9.8-.6-.1-1.7-.4-2.2-1.2-.3-.5-.4-1-.3-1.8.5-2.2 2.9-2.1 3.2-2.1.6 0 1-.4 1.1-.9 0-.5-.4-1-.9-1-1.5-.1-4.6.6-5.2 3.7-.3 1.3-.1 2.4.6 3.3.9 1.2 2.4 1.8 3.6 2zm10.9 9.5c1-.5 1.4-1.7 1.4-3.1 0-.9-.2-1.9-.5-2.7-1.4-3.9-1.7-5.6-1.7-6.4 0-.3.1-.5.1-.6.6-.6 2-.6 4.5.1l5.7 1.8c.5.2 1.1-.1 1.3-.6s-.1-1.1-.6-1.3c-.2 0-3.2-1.1-5.8-1.8-2.5-.7-4.9-1.1-6.4.5-1 1.1-.7 3.6 1.2 8.9.7 1.9.3 3.3 0 3.5-.4.2-1.5-.3-2.4-1.2h0c-2.8-2.9-4.3-3.8-5.5-3.3-1.4.6-2.4 4.3-2.9 6.4-.8 3.5-1.4 4.5-1.7 4.7-.3-.7-.6-2.7-.6-4.8v-1.4c0-1.1-.1-6.3-1.8-6.9-1.8-.7-4.6 2.3-4.6 2.3-.6.6-3.6 4-6 8.4-2.2 4.1-4 9.2-4.1 9.4-.2.5.1 1.1.6 1.3s1.1-.1 1.3-.6c0-.1 1.9-5.2 4-9.1 2.3-4.3 5.3-7.6 5.7-8 .7-.7 1.8-1.5 2.4-1.7.3.8.7 3.2.7 4.7v1.8c0 2 .2 5.2 1.3 6.3.3.3.8.5 1.2.5 2.1-.1 3-3.2 3.7-6.3.6-2.6 1.4-4.5 1.8-5 .3.1 1.2.5 3.3 2.8h0c1.2 1.4 3.3 2.5 4.8 1.7zm-48.8 2.3c-1.9-2.1-4.6-2.8-4.7-2.8-.5-.1-1.1.2-1.2.7s.2 1.1.7 1.2c0 0 2.2.6 3.8 2.3.8.9 1.6 2.6 1.9 3.7.2.9.3 2.9.3 2.9 0 .5.5 1 1 .9.6 0 1-.5.9-1 0-.1-.2-2.1-.4-3.2-.3-1.4-1.2-3.5-2.4-4.7z"/><path d="M359.5 1341.6c-.1-.5-.5-.8-1-.7l-5.3 1.3c-.7.2-1.8.6-2.9 1l3-5.6c1.1-2.3 1.3-4.6 1.3-4.7v-.1c0-.5-.4-.9-.9-1s-1 .3-1.1.9c0 0-.2 2-1.1 4-1 2.1-4.3 7.8-4.3 7.9-.2.4-.2.8.1 1.1s.7.4 1.1.3c.1 0 4-1.6 5.3-1.9l5.2-1.3c.5-.2.7-.7.6-1.2zm-47.8-3.1c-.6.1-.9.6-.9 1.1.1.6.6.9 1.1.9 0 0 3.5-.3 6.8.4 3.6.8 8.5 2.5 10.9 3.5l.4.2c9.1 3.7 11.1 3.9 12 2.9 1.6-1.8-.8-4-1.5-4.7-.4-.4-1-.4-1.4 0-.2.2-.3.4-.3.7s.1.5.3.7c1.2 1.1 1.4 1.6 1.4 1.8-.7 0-3-.5-9.8-3.3l-.4-.2c-2.4-1-7.5-2.8-11.2-3.6s-7.3-.5-7.4-.5zm31.7-102.4l9.8-7 9.6 7-3.5-11.3 9.8-6.9h-12l-3.6-11.3-3.9 11.3h-11.9l9.5 6.9zm49 1.2l5.2 10.8 2-11.8 11.6-1.7-10.4-5.7 1.9-11.8-8.3 8.3-10.5-5.6 5.3 10.8-8.4 8.4z"/></g></g><defs /></svg>