<svg xmlns="http://www.w3.org/2000/svg" width="195.224" height="396.85" viewBox="0 0 1258.7 2558.7"  shape-rendering="geometricPrecision" image-rendering="optimizeQuality" fill-rule="evenodd" xmlns:v="https://vecta.io/nano"><path d="M6331.4-16064h38990.102v36553.301H6331.4z" fill="#ebecec"/><g fill-rule="nonzero"><path d="M842.2 1042.3V472.5H415.5v569.8h426.7zm0 1043.9v-569.8H415.5v569.8h426.7zm416.5 205.7l-266.4 266.8H266.4L0 2291.9v-788.2l158.9-223.5L0 1055.6V269L266.4 0h725.9l266.4 269v786.6l-161.8 224.6 161.8 223.5v788.2z" fill="#121c4d"/><g fill="#bae8d9"><path d="M1065.9 220.3v828.2l-208.4 223.8 208.4 237.3v826.2H774.2v-29h262.7v-786.5L836.4 1292H421.9l-200.2 228.3v786.5h262.7v29H192.7v-826.2l203.4-232-203.4-229.4V220.3h873zm-644 1042.8h404.6l210.3-225.9V249.3H221.7v788.1l200.1 225.7zm306.6 1104.7l-1.5-1.2 1.8.2-.3 1zm3.4-.3l3 .3 1.1-3.5-13.2-1.4-1.2 3.1 9.8 9.2.5-1.1 1-2.6-2-1.6 1-2.5zm-13.6 11.1h0c.4-.7 1-1.2 1.9-1.2.7 0 1.5.4 2.1.7 1.4.9 2.4 2 1.5 3.6l-5.5-3.1zm-4.5 1.5l10.8 6.6 2-3.2c.9-1.4 1.3-3.1.9-4.7-.4-1.8-1.7-3-3.2-4-1.1-.7-2.5-1.3-3.9-1.3-2.2 0-3.8 1.3-4.9 3.2l-1.8 3.3zm-3 9l.1-.1c.1-.1.5-.6.7-.6s.4.2.5.3c.5.4.4.8 0 1.3l-1.3-.9zm4.9-.7c0-1.1-.5-2.1-1.4-2.9-.7-.6-1.5-.9-2.4-.9-1.3 0-2.4.8-3.2 1.8l-2.5 3.6 9.9 7.9.5-.7 1.6-2.4-3.2-2.9c.1 0 .2 0 .3.1l4.3 1.5 2-3.2-5-1.8c-.3-.1-.6-.2-.9-.2zm-59.7 40.7v-1.9l1 1.5-1 .4zm2.4 2.4l1.8 2.5 3.4-1.4-7.5-10.9-3.2 1.1-.7 13.3 1.1-.3 2.7-.9-.1-2.6 2.5-.8zm44.4-33.6l2.7-3.1-2.5-1.9-5 5.3 9 9.1 5.4-5.8-2.5-1.9-2.5 2.8-1.4-1.2 2.6-2.9-2.4-2-2.3 2.6zm-10.4 8.9l6 7.5.7-.4 2.2-2.1-6.1-7.1 2.1-2-2.2-2.1-6.6 5.5 2.3 2.2zm-5.2 11.5c-.8.5-1.9.6-2.5 1l-.5.3 1.4 2.5h.5c1 0 2-.5 2.9-1.1 1.1-.7 2-1.7 2.3-2.9.3-1.1 0-2.2-.6-3.1-1-1.5-2.1-1.9-3.9-1.9-.6 0-1.3.1-1.9.1-.3 0-.4 0-.6-.3 0-.1-.1-.2-.1-.3 0-.2.3-.4.4-.4.6-.4 1.4-.6 2.1-1l.6-.4-1.9-2.5-.4.1c-.8.2-1.6.5-2.3 1-1 .7-1.9 1.6-2.1 2.9-.2 1 0 1.9.5 2.8.9 1.4 2.2 1.9 3.8 1.9l1.9-.1c.3 0 .5 0 .7.3.1.2.2.4.1.6 0 .2-.3.4-.4.5zm-15 4.8l-4.9-5.4-4.2 2.2 5.2 11.5.8-.3 2.6-1.5-2.4-4.7 4 4.3 2.4-1.3-.8-5.9 2.6 5.4 3-1.8-5.3-11.4-4.2 2.1zm62.1-71.5l-7.3.3-1 4.6 12.1 3.4.3-.7.6-3-5.2-1.2 5.9-.3.6-2.7-5.1-3.1 5.8 1.5.7-3.5-12.3-3.3-1.1 4.5zm-189.8-164.4l3.7 20.5 9.4-18.9 21 2.6-15.2-14.3 9.4-18.9-18.8 10-15.3-14.3 3.6 20.5-18.8 10zm186.9 138.7c0-56-45.5-101.7-101.7-102.4v3.4c54.3.6 98.3 44.8 98.3 98.9 0 5.1-.4 10.3-1.2 15.3l3.4.7c.9-5.3 1.3-10.7 1.3-16.1zm-101.7-108.3v3.6h.7c27.7 0 54.1 11 73.8 30.5 19.6 19.5 30.6 45.8 30.6 73.5 0 3-.1 6-.4 9-.2 2.7-.6 5.4-1 8.1l-.1.4 3.5.8.1-.5c.5-2.7.8-5.5 1.1-8.3.3-3.2.4-6.4.4-9.5 0-28.6-11.4-55.8-31.6-76-20.3-20.2-47.6-31.5-76.3-31.6h-.8zm112.2 106.8c0 6.4-.5 12.8-1.7 19.1l-.1.7 3.4.7.1-.8c1.1-6.5 1.7-13.1 1.7-19.7 0-62-50.6-112.4-112.9-112.4h-2.8v3.4h2.8c60.3 0 109.4 48.9 109.4 109zm-209.7 1.8h-3.4c.6 56.4 47.3 101.9 103.9 101.3 5-.1 10-.5 14.9-1.3l-.7-3.4c-4.7.7-9.5 1.2-14.3 1.2-54.8.6-99.8-43.3-100.5-97.8zm116.3 106.3l.4-.1-.7-3.5-.4.1c-2.7.5-5.5.8-8.2 1-3 .3-6.1.4-9.2.4-27.8 0-54-11.2-73.6-30.8-19.4-19.5-30.6-45.6-30.9-73.1v-.4h-3.6v.5c.3 28.4 11.9 55.5 32 75.6 20.2 20.3 47.4 31.8 76.1 31.8a109.61 109.61 0 0 0 18.1-1.5zm1.5 5.6l-.7-3.4-1 .2c-6.4 1.1-13 1.7-19.5 1.7-60.5 0-109.4-50.6-109.4-110.5h0-3.4c.1 61.7 50.4 113.9 112.8 113.9 6.7 0 13.5-.6 20.1-1.8l1-.2zm57.6-147.2c0-19.3-9.1-31.9-26-36.8l-.4 19.1c0 .6.3 1.2.8 1.5 0 0 4.4 3 6.8 6.4 2.3 3.3 2.8 7.2 2.8 7.3.1.9 1 1.6 2 1.5.9-.1 1.5-.9 1.5-1.7v-.2c0-.2-.7-4.7-3.4-8.8-2.1-3-5.4-5.7-6.9-6.8 0-1.2.2-9.3.3-13.4 12.6 5.2 19.1 16 19.1 32 0 22.8-14 38.8-34.1 38.8-18.2 0-24.5-15.1-28.6-25.1l-1.4-3.3c-1.4-3-3.4-5.1-6-6.1-5-1.9-10.6.7-12.7 1.7-.9.4-1.3 1.4-.9 2.3s1.4 1.2 2.3.8c1.7-.8 6.4-3 10-1.6 1.7.6 3.1 2 4 4.2l1.4 3.2c4.2 10.2 11.3 27.3 31.8 27.3 22.2 0 37.6-17.4 37.6-42.2zm-178.4 10.3l-9.3-6.2 11.1-.3-1.8 6.5zm9.5 6.6l-5-3.6 2.7-9.8 6.1-.4 2.1-7.6-29 2.8-2.4 8.5 23.3 17.1 2-7zm13.3-27.3c-.2 1.3-1 3.9-1.8 5l6.1-.8 1.7-2.6c3.6-5.3 1.7-9.8-3.1-13.1l-21.1-14.4-4.1 5.9 19.4 13.2c3.6 2.5 3.4 4.7 3.1 6.8zm10.9-47l8.8 6.7-5.5 4-3.4-10.6h.1zm6.6 21.7l-1.7-5.9 8.3-5.9 5 3.5 6.4-4.6-24.4-15.8-7.2 5.2 7.6 27.9 5.9-4.3zm30-31.8l-5.2 15.9 8-2 2.7-10.9 7.4 8.5 8.4-2.1-11.8-11.7 4.6-14.3-7.7 1.8-2.4 9.8-6.5-7.6-8.2 2zm7.8 58.2c3.9-1.7 10.7-5.3 16.3-8.5 6.3-3.7 11.7-6.4 15.7-7.8 4.5-1.6 9.3-3.1 15.2-2.8 6.1.3 8.1 1.1 10.4 2.1 2.4 1 6.1 3.2 6.2 3.2.9.5 1.9.2 2.4-.6s.2-1.9-.6-2.4c-.2-.1-4-2.4-6.6-3.5-2.8-1.2-5.3-2-11.5-2.4-6.5-.4-11.9 1.4-16.5 3-5.2 1.9-11.7 5.4-16.3 8-5.6 3.2-12.2 6.7-16 8.4-4.4 1.9-11 4-12.3 4-1 0-1.8.7-1.8 1.7s.8 1.7 1.7 1.8c2.3 0 10.2-2.8 13.7-4.3zm-2.3 49.6l-5.6 1c-.8.1-1.7 1.1-1.5 2 .2 1 1.1 1.5 2.1 1.4l5.7-1c2.5-.5 4.4-2 5.7-4.2.5-.8 2.3-3.3 3.3-4.7.2-.3.4-.7.4-1v-.1l-.6-8.7 6.3 4.5-1.2 3.2c-.2.6-.5 1.6-.6 2.6 0 1.1.6 2.7 1.9 3.7l1.8 1.2c.5.2.5.8.5 1.2v4.1c.1 1.2.3 2.7.6 4.1l.3 2.3c-.2.4-.8 1.1-1.3 1.8-1.4 2-3.4 4.6-4.6 7.1l-1.3 3c-.7 1.7-1.6 3.7-2.1 4-.7.4-3.8 1-5.8 1.3l-3.4.7c-1.9.4-4.2 1.4-6.2 2.2l-2.2.9c-.5 0-2-.5-3-.8-1.4-.5-3-1-4.3-1.2-1.2-.2-1.4-.2-1.4-1v-.9c0-1.9-1.6-3.8-4.8-5.9-1.4-1-3.8-3.2-4-5.1v-.2c0-1.6 1.6-3.3 2.8-4.8l1.1-1.2c.6-.8.9-1.7.9-2.5l-.1-.4 3.3.2c1 .1 1.8-.7 1.9-1.6.1-1-.7-1.8-1.7-1.8l-6.2-.4c-.7 0-1.4.4-1.7 1l-.2.7c0 .5.2.9.5 1.2.1.1.6.6.6 1.1l-.2.4-.9 1.1c-1.6 1.8-3.7 4.2-3.7 7.1v.5c.4 4.2 5 7.4 5.5 7.7 3.1 2.1 3.2 3 3.2 3.1v.8c0 2 .7 3.9 4.3 4.5 1.1.2 2.6.7 3.9 1.1 2.4.8 3.7 1.2 4.8.9.6-.1 1.4-.5 2.9-1.1 1.8-.7 4-1.7 5.6-2l3.2-.6c3.6-.7 5.9-1.1 6.9-1.8 1.4-.8 2.2-2.7 3.5-5.7l1.3-2.9c1-2.2 2.9-4.7 4.3-6.5 1.4-1.9 1.8-2.5 1.9-3.2v-.5c0-.6-.1-1.5-.4-3.1l-.5-3.7v-2.3c0-.6.1-1.1.1-1.6 0-1.6-.2-2.8-1.2-3.5 0 0-.9-.5-1.8-1.2-1-.7-1.5-1.5-.9-3.1l1.6-4 .2-.7c0-.5-.3-1-.7-1.4l-8.9-6.5-4.5-3.3 1.1 15.6-3.2 4.5c-.8 1.4-1.8 2.2-3.3 2.5z"/><path d="M660.4 2354.5l1.1-.4c2-.6 4.2-1.3 4.5-4.3.4-2.9-2.7-6.1-8.6-12-4.6-4.6-13.9-12.6-24.4-21.1-10.2-8.2-28.3-20.3-35.5-24.4-7.8-4.4-13.2-5.3-16.4-5.3-2.1 0-3.1.9-3.6 1.7-1 1.6-.4 3.7.2 5.2.9 1.9 4.1 4.3 5.1 5 .8.5 1.9.3 2.4-.4a1.93 1.93 0 0 0 .3-1c0-.6-.3-1.1-.8-1.4-1.6-1.1-3.6-2.8-3.9-3.5-.4-.8-.5-1.3-.5-1.7v-.1c.1 0 .3-.1.7-.1 2.8 0 7.6.8 14.7 4.9 7.1 4 24.9 16 35 24.1 10.4 8.4 19.7 16.4 24.2 20.9 3.1 3 7.6 7.6 7.6 9v.1c-.1.6-.1.7-2.1 1.3l-1.2.4c-3.5 1.2-5.3 2.9-5.3 5.1 0 .7.2 1.5.4 2.5.2.7.6 2.1.6 2.8l-.1.4c-.6.8-1.8.8-3.5.8-1 0-1.9 0-2.7.2-.7.2-1.3.5-2 1-1 .6-2.6 1.4-3.2 1-.6-.5-.9-1.3-.9-2.6 0-.8.1-1.8.4-2.9l.7-2.7c.4-1.6.7-2.8.7-3.7 0-.5-.1-.9-.3-1.3-.4-.9-1.5-1.3-3.9-2.2-1.1-.4-3.2-1.2-3.6-1.6s-.6-1.5-.6-2.6c0-.3 0-.7.1-1.1.1-1.1.7-3.5.8-4.4l.1-.4c0-.8-.5-1.5-1.4-1.7s-1.8.3-2.1 1.3c-.1.3-.8 3.4-1 4.9 0 .5-.1.9-.1 1.4 0 1.7.3 3.5 1.4 4.8.8 1 2.5 1.7 5.1 2.6.6.2 1.3.5 1.8.7-.1.6-.3 1.6-.6 2.4l-.7 2.9c-.2.8-.5 2.1-.5 3.6 0 1.9.5 4 2.2 5.4 2.4 2 5.4.3 7.1-.7.5-.3 1-.6 1.3-.7s1-.1 1.6 0c2 0 4.9.1 6.6-2.3 1.1-1.7.6-4 0-6-.1-.6-.3-1.4-.3-1.6s.6-1 2.9-1.8zm-77.8-24.5c-.9-.2-1.9.5-2 1.4s.5 1.8 1.5 2c7 1.2 8.3.9 9.5.6h.1c1.3-.2 1.8-1 2-1.5l.2-.9c0-1.2-.8-2.2-1.5-3.1l-.2-.2c-.3-.4-.8-2.3-.8-4.4 0-.7.1-1.4.3-2.1.5-2.3.7-4.3.9-5.9.1-.6.2-1.4.2-1.9.5.1 1.1.3 1.5.4 1.4.5 2.8.9 3.9.7 2.1-.4 2.4-2.4 2.4-4.4v-1.5l-.1-1.3c0-3.5-5-3.8-7.7-3.9h-.8l-1-.3c.6-.8 1.8-2.1 3-3.3.3-.3.5-.8.5-1.2s-.2-.9-.5-1.2a1.75 1.75 0 0 0-2.5 0c-4.3 4.1-4.3 5.3-4.3 5.9 0 2.1 2.3 3.4 4.4 3.7l1 .1c2.9.1 4 .4 4.4.7 0 .4.1 1.3.1 1.3v2.2c-.5-.1-1.3-.3-1.7-.5-1.8-.6-3.3-1-4.4-.4-1.4.7-1.6 2.4-1.9 4.9-.1 1.5-.4 3.4-.8 5.5-.2.9-.3 1.9-.3 2.9 0 2.6.6 5.3 1.5 6.5l.3.5c-.8 0-2.6-.1-7-.8zm1.8-23.9c-.8-.5-1.9-.2-2.4.7l-4 6.8c-.9 1.3-4.7 8.7-4.7 10.3 0 1.4.7 2.5 9.1 3.8 1 .2 1.9-.5 2-1.4v-.3c0-.8-.6-1.6-1.5-1.7-2-.3-4.4-.8-5.8-1.1.8-2.1 2.8-6.3 3.7-7.5 1.2-1.7 4.1-6.9 4.2-7.1l.2-.8c0-.6-.3-1.2-.9-1.5zm86 70.7c2.3.3 6.9-.8 8.4-2.8 1-1.5 1.9-4.4 2-4.7.3-.9-.2-1.9-1.2-2.2-.9-.3-1.9.2-2.2 1.1-.3 1-1 3-1.6 3.7-.5.6-3.5 1.5-5.1 1.3-1-.2-3-.7-4-2.1-.6-.8-.7-1.8-.5-3.2.8-3.9 5.2-3.8 5.6-3.7 1 .1 1.8-.7 1.9-1.6.1-1-.7-1.8-1.6-1.8-2.7-.2-8.1 1-9.3 6.5-.5 2.3-.1 4.3 1 5.9 1.5 2.2 4.3 3.2 6.4 3.5zm19.2 16.7c1.7-.9 2.4-3.1 2.4-5.5 0-1.6-.3-3.3-.8-4.8-2.5-6.8-3-9.9-3-11.3 0-.6.1-.9.2-1 1.1-1.1 3.5-1.1 7.9.1 4.5 1.2 10 3.2 10.1 3.2.9.3 1.9-.2 2.2-1.1s-.2-1.9-1.1-2.2c-.3-.1-5.7-2-10.3-3.2-4.4-1.2-8.7-1.9-11.4.9-1.8 2-1.3 6.4 2.1 15.7 1.2 3.4.5 5.8.1 6.1-.7.3-2.6-.5-4.2-2.2h-.1c-4.9-5.1-7.6-6.7-9.7-5.8-2.5 1-4.3 7.5-5.2 11.3-1.5 6.3-2.5 7.9-3.1 8.4-.6-1.2-1-4.7-1-8.4 0-.7 0-1.5.1-2.1v-.4c0-2-.2-11.1-3.2-12.2-3.2-1.2-8.2 4-8.2 4-1 1.1-6.4 7.1-10.6 14.8-3.8 7.2-7.1 16.3-7.3 16.6-.3.9.1 1.9 1 2.3.9.3 1.9-.2 2.2-1.1 0-.1 3.3-9.2 7.1-16.2 4-7.5 9.4-13.5 10-14.1 1.2-1.3 3.2-2.6 4.2-3 .6 1.4 1.2 5.6 1.2 8.3v.7c0 .5-.1 1.4-.1 2.5 0 3.5.3 9.2 2.2 11.1.6.6 1.3.9 2.1.8 3.8-.2 5.3-5.6 6.6-11.2 1.1-4.6 2.4-7.9 3.1-8.8.5.1 2.1.9 5.9 4.9l-.1-.1c2.2 2.5 5.8 4.3 8.5 3zm-86.3 4.1c-3.4-3.6-8.1-4.9-8.3-5-.9-.3-1.9.3-2.2 1.2-.2.9.3 1.9 1.2 2.1.1 0 4 1.1 6.7 4 1.5 1.6 2.9 4.7 3.3 6.6.3 1.7.6 5.1.6 5.1.1 1 .9 1.7 1.8 1.6 1 0 1.7-.9 1.6-1.9 0-.1-.3-3.7-.7-5.6-.5-2.4-2.2-6.1-4.2-8.2zm34.7-24.1c-.2-.9-.9-1.5-1.8-1.3l-9.3 2.3c-1.2.3-3.2 1.1-5.1 1.8 1.9-3.3 4.3-7.7 5.4-10 1.9-4.1 2.3-8.1 2.3-8.2v-.2c0-.9-.7-1.6-1.6-1.7-1-.1-1.8.6-1.9 1.6 0 0-.4 3.6-2 7.1-1.7 3.7-7.6 13.9-7.7 14-.4.6-.3 1.4.2 2s1.3.8 2 .5c.1 0 7-2.8 9.3-3.4l9.2-2.3c.9-.3 1.3-1.2 1-2.1zm-84.7-5.4c-1 .1-1.7 1-1.6 1.9.1 1 1 1.7 1.9 1.6.1 0 6.1-.6 12.1.7 6.4 1.4 15.1 4.5 19.3 6.2l.7.3c16.1 6.6 19.7 6.9 21.3 5.1 2.8-3.2-1.4-7-2.7-8.3-.7-.7-1.8-.6-2.5.1-.3.3-.5.8-.5 1.2 0 .5.2.9.6 1.3 2.1 1.9 2.5 2.8 2.5 3.2-1.3 0-5.2-.9-17.3-5.8l-.7-.3c-4.3-1.8-13.3-4.9-19.8-6.4s-12.9-.8-13.2-.8zm56.2-181.3l17.4-12.2 16.9 12.2-6.2-19.8 17.3-12.3h-21.2l-6.3-19.9-6.9 19.9h-21.2l17 12.3zm86.7 2.2l9.3 19.1 3.4-20.9 20.6-3-18.4-10 3.4-20.9-14.9 14.7-18.4-10 9.2 19.2-14.8 14.8z"/></g></g><defs /></svg>