<svg xmlns="http://www.w3.org/2000/svg" width="577.58" height="188.976" viewBox="0 0 11745.1 3842.8"  shape-rendering="geometricPrecision" image-rendering="optimizeQuality" fill-rule="evenodd" xmlns:v="https://vecta.io/nano"><path d="M14922.3-56612.102h122970.797V66358.695H14922.3z" fill="#e6e6e6"/><g fill-rule="nonzero"><path d="M11745.1 3442.1l-398.5 400.7h-1079.5l-403-400.7v-619.5h252.1l14 23.1h86.5l14.5-23.1h257.9v310.6h630.9v-855.7h-853l-403-403.2V404.1L10267 0h1079.5l398.5 401.6v596.9h-257.5l-16.1-23h-85.9l-13.6 23h-252V709.6H10489v855.7h857.4l398.5 404.1v1472.7zM1992.8 0l-836.1 1922.7 836.1 1920.2H1703l-27.7-22.9h-91.9l-5.7 22.9h-280.5L625.1 2277.5v1565.4h-254l-15.1-23h-84.7l-15.4 23H0V.1h256.5l9.3 22.7h93.3L371.2.1h253.9v1565.3L1297.2.1h272.9l5.3 22.8h93.5L1695.2.1h297.6zm2456.7 3439.6l-408.8 403.2H2901l-400.8-400.7V0H2752l13.7 22.7h86.6L2867.2 0h257.9v3133.2h700V0h251.7l11.1 22.5h92.5L4192.3 0h257.2v3439.6zM6495.1 0l405.2 406.6v3033l-405.2 403.2H4956.8V0h1538.3zm-219.9 3133.2V709.6H5584v2423.6h691.2zm3081.7 306.4l-408.8 403.2H7808.4l-400.8-400.7V0h251.8l13.7 22.7h86.6L7774.6 0h257.9v3133.2h700V0h251.7l11.1 22.5h92.5L9099.7 0h257.2v3439.6z" fill="#bae8d9"/><path d="M10231.3 2822.6v608.2h1140.8V1979H10116V297.2h1371.4v701.2h-115.3V412.5h-1140.8v1451.2h1256.1V3546H10116v-723.5h115.3zM370.9 0v1863.8h394.3L1569.6 0h125.5L865.5 1922.1l837.4 1920.8h-125.4L765 1979.1H370.9v1863.8H255.6V.1h115.3zm2496 0v3430.8h1209.7V0h115.3v3546.1H2751.6V0h115.3zm2459.4 412.6v3018.2h925l281.4-319.9V731l-281.1-318.5h-925.3zM5211 3488.5V297.3h1092l345 390.8v2466.1L6303.3 3546H5211v-57.6zM7774.2 0v3430.8h1209.7V0h115.3v3546.1H7658.9V0h115.3z" fill="#121c4d"/></g><defs /></svg>