<svg xmlns="http://www.w3.org/2000/svg" width="1022.215" height="188.976" viewBox="0 0 34299.8 6341"  shape-rendering="geometricPrecision" image-rendering="optimizeQuality" fill-rule="evenodd" xmlns:v="https://vecta.io/nano"><path d="M-236688.094-61247.301h202911.703v202911.703h-202911.703z" fill="#e6e6e6"/><g fill-rule="nonzero"><path d="M34299.8 5679.8l-664.9 661.2h-1919.5l-657.6-661.2v-5013L31715.4.1h1919.5l664.9 666.7v5013zM3081.9 1171h-1024v5170.1h-426.8l-21.6-37.8h-148.8l-18.9 37.8h-417.6V1171H.1V680.2l36.9-21V513L.1 490.9V-.1H3082v490.7l-37.2 18.3v147l37.2 23.3v491.6zm2897 5170.1l-248.7-1412H4649.1l-248.7 1412h-454.6l-19.1-37.9-150.7-.7-22.9 38.6h-404.7L4464.7.1h1449.9l1116.3 6341h-428.3l-32.6-38-141-.2-18.8 38.2h-431.3zm-455-2583l-333.7-1896.9-334.9 1896.9h668.5zm5525.5 1921.7l-668.6 661.2H8525.6L7868 5679.8v-5013L8536.6.1h1844.3l668.6 666.7V1660h-421.6l-16.7-38.8h-156l-16.9 38.8h-419v-489H8903v3999.1h1116.3v-1412h-705v-499l37.1-22.8v-148.8l-37.1-17.9v-486.5h1735.1v3096.8zM14443 6341h-2556.5l.6-6341h424.3l23.5 37.3h142.8l22.9-37.3h421.4l-.6 5170.1h1521.5v491.6l-37.9 22.9v140l37.9 26.4v489.9zm1872.1 0h-425.7l-19.2-37.8h-150.6l-20.4 37.8h-419.1V0h418.7l18.3 37.7h154.2L15889 0h426.1v6341zm3467.7 0l-248.7-1412H18453l-248.7 1412h-454.6l-19.1-37.9-150.7-.7-22.9 38.6h-404.7L18268.6 0h1449.9l1116.3 6341h-428.3l-32.6-38-141-.2-18.8 38.2h-431.3zm-455-2583l-333.7-1896.9-334.9 1896.9h668.5zm5013.5-2587.1h-1634.4v1412h1407.5v487l-39 18.6v147.3l39 23.3V3758h-1407.5v2583h-423.5l-21.6-37.6h-147.5l-20.6 37.6h-421.9V0h2669.4v490.8l-38.4 16.5v148.9l38.4 24.2V1171zM26213.4 6341h-425.7l-19.2-37.8h-150.6l-20.4 37.8h-419.1V0h418.7l18.3 37.7h154.2l17.7-37.7h426.1v6341zm4007.5-661.2l-674.6 661.2h-1838.2l-657.6-661.2v-5013L27708.1.1h1838.2l674.6 670.9v976.7h-416.8l-15.3-37.6h-161.5l-13.2 37.6h-423.3v-476.6h-1109v3999.1h1109v-512.5h423.4l23.2 38h143.5l23.5-38h416.6v1022.2zm3044.1-509.7V1171h-1175.7v3999.1H33265z" fill="#bae8d9"/><path d="M33873.5 490.6v5360.8h-2402.9V490.6h2402.9zM0 490.6h3081.9v190.2H1630.8l.3 5660.2h-189.5l-.3-5660.2H0V490.6zM3752.7 6341l1027-5850.4h818.5L6602.6 6341h-192.8l-327.6-1908.4H4280.7l-335 1908.4h-193zm2296.8-2098.6L5438.1 680.8h-498.8l-625.2 3561.6h1735.4zM10437.8 1660V680.8H8479.1v4980.3h1958.7V3259.2H9314.2V3069H10628v2782.3H8288.8V490.5H10628v1169.4h-190.2zM12500.6 0v5661.1h1942.3v190.2h-2132.5V-.1h190.2zm3388.2 0v6341h-190.2V0h190.2zm1667.7 6341l1027-5850.4h818.5L20406.4 6341h-192.8L19886 4432.6h-1801.5l-335 1908.4h-193zm2296.8-2098.6l-611.4-3561.6h-498.8l-625.2 3561.6h1735.4zm4487.8-3561.6h-2057.8V3069h1830.9v190.2h-1830.9v3081.7h-190.2V490.5h2248v190.2zM25787 0v6341h-190.2V0h190.2zm3826.6 1647.6V680.8H27661v4980.3h1952.6V4657.6h190.2v1193.8h-2333.1V490.6h2333.1v1157h-190.2zm4069.8-966.8H31661v4980.3h2022.4V680.8z" fill="#121c4d"/></g><defs /></svg>