<svg xmlns="http://www.w3.org/2000/svg" width="492.782" height="188.976" viewBox="0 0 8706.8 3339"  shape-rendering="geometricPrecision" image-rendering="optimizeQuality" fill-rule="evenodd" xmlns:v="https://vecta.io/nano"><path d="M11766.4-15302.3h106847.203V91544.903H11766.4z" fill="#e6e6e6"/><g fill-rule="nonzero"><path d="M8354.8 0l352 353.3v2635.3l-352 350.4H7018.2V0h1336.6zM543.1 1360.1h557.8V616.6H543.1v743.5zm0 1362.3h557.8v-743.5H543.1v743.5zm1102.1 268.4L1297 3339H0V0h1297l348.2 351.1v1026.4l-209.6 288.7 209.6 296v1028.6zm1787 348.2H2086l.3-3339h223.4l12.4 19.6h75.2L2409.4 0h221.9l-.3 2722.4h801.2v258.9l-19.9 12v73.7l19.9 13.9v258zm985.8 0h-224.2l-10.1-19.9h-79.3l-10.7 19.9H3873V0h220.5l9.6 19.8h81.2l9.3-19.8H4418v3339zm1574.8 0l-592.9-1748.9V3339h-223.6l-17.2-20.1h-65.7l-16.1 20.1h-218.6V0h582l595.5 1751.1V0h212.9l15.8 19.5h67.5L6348.2 0h227.2v3334.6l1.9 4.4h-584.6zm2171-616.6V616.6h-600.6v2105.8h600.6z" fill="#bae8d9"/><path d="M7339.5 358.5V2981h803.7l244.5-278V635.2l-244.3-276.7h-804zM271.6 258.3h1151.7v1119.5l-255.6 288.5 255.6 293.8v1121H221.5V258.3h50.1zM321.7 1616H1079l244.2-275.7V358.4H321.7V1616zm756.8 100.2H321.7v1264.7h1001.5v-983.4l-244.7-281.3zM2409.5 0v2981h1022.7v100.2H2309.3V.1h100.2zm1784.1 0v3339h-100.2V0h100.2zm883.3 3339l-2.5-3080.7h191.7l985 2709.1L6248.4 0h99.8l2.8 3081.1h-164.8l-990-2722.7h-22l2.4 2980.5h-99.8zm2162.5-307.9V258.3h948.8l299.7 339.6v2142.8l-299.5 340.5h-949.1v-50.1z" fill="#121c4d"/></g><defs /></svg>