<svg xmlns="http://www.w3.org/2000/svg" width="195.451" height="396.85" viewBox="0 0 791.8 1607.7"  shape-rendering="geometricPrecision" image-rendering="optimizeQuality" fill-rule="evenodd" xmlns:v="https://vecta.io/nano"><path d="M13607.5-10093.2h24497.9v22966.801H13607.5z" fill="#ebecec"/><g fill-rule="nonzero"><path d="M791.8 1440l-167.4 167.6h-450L7.3 1440v-259.2h254.6v129.9h269v-358H166.3L-.2 785.1V169L166.3 0h456.1l169.2 170.1V1440zM531 654.8v-358H262v358h269z" fill="#bae8d9"/><g fill="#121c4d"><path d="M650.7 811.8H121.5V138.4h547.4v1329.2h-182v-18.2h163.8V811.8zm-345.8 655.8H121.5v-286.7h18.2v268.5h165.2v18.2zm-165.2-674h511v-637h-511v637zm318.5 694.1l-.9-.8 1.1.1-.2.6zm2.1-.2l1.9.2.7-2.2-8.3-.9-.8 2 6.2 5.8.3-.7.6-1.6-1.3-1 .6-1.6zm-8.5 7h0c.3-.4.6-.8 1.2-.8.5 0 1 .2 1.3.5.9.5 1.5 1.3.9 2.3l-3.4-2zm-2.8.9l6.8 4.2 1.2-2c.5-.9.8-1.9.6-3-.3-1.1-1-1.9-2-2.5-.7-.5-1.6-.8-2.4-.8-1.4 0-2.4.8-3.1 2l-1.1 2.1zm-1.9 5.7v-.1c.1-.1.3-.4.4-.4s.3.1.3.2c.3.3.2.5 0 .8l-.8-.6zm3.1-.4c0-.7-.3-1.3-.8-1.8-.5-.3-.9-.6-1.5-.6-.8 0-1.5.5-2 1.1l-1.6 2.2 6.2 5 .3-.5 1-1.5-2-1.8c.1 0 .1 0 .2.1l2.7 1 1.2-2-3.1-1.1c-.2-.1-.4-.1-.6-.1zm-37.6 25.6v-1.2l.6.9-.6.3zm1.5 1.5l1.1 1.6 2.1-.9-4.7-6.9-2 .7-.4 8.4.7-.2 1.7-.6-.1-1.6 1.6-.5zm27.9-21.2l1.8-1.9-1.6-1.2-3.2 3.3 5.7 5.7 3.4-3.6-1.6-1.2-1.6 1.7-.8-.7 1.6-1.8-1.5-1.3-1.5 1.6zm-6.5 5.6l3.8 4.8.4-.3 1.4-1.3-3.8-4.5 1.3-1.2-1.4-1.4-4.1 3.5 1.4 1.4zm-3.3 7.2c-.5.3-1.2.4-1.6.6l-.3.2.9 1.6h.3c.6 0 1.3-.3 1.8-.7.7-.4 1.2-1 1.4-1.8.2-.7 0-1.4-.4-2-.6-1-1.3-1.2-2.5-1.2-.4 0-.8 0-1.2.1-.2 0-.3 0-.4-.2 0 0-.1-.1 0-.2 0-.1.2-.2.3-.3.4-.3.9-.4 1.3-.6l.4-.2-1.2-1.6-.3.1c-.5.1-1 .3-1.4.6-.7.4-1.2 1-1.3 1.8-.1.6 0 1.2.3 1.7.6.9 1.4 1.2 2.4 1.2l1.2-.1c.2 0 .3 0 .5.2.1.1.1.2.1.4 0 .1-.2.2-.3.3zm-9.4 3l-3.1-3.3-2.6 1.3 3.2 7.3.6-.2 1.6-.9-1.5-3 2.5 2.7 1.5-.8-.5-3.7 1.6 3.4 2-1.1-3.4-7.2-2.6 1.3zm39-44.8l-4.5.1-.7 2.9 7.6 2.2.2-.5.4-1.8-3.3-.8 3.8-.2.3-1.7-3.2-2 3.6 1 .5-2.2-7.7-2.1-.7 2.8zm-119.2-103.4l2.3 12.9 5.9-11.8 13.2 1.6-9.5-9 5.8-11.9-11.8 6.3-9.6-9 2.3 12.9-11.8 6.3zm117.4 87.2c0-35.2-28.6-63.9-63.9-64.3v2.2c34.1.4 61.7 28.1 61.7 62.2 0 3.2-.3 6.5-.8 9.6l2.1.5c.5-3.3.8-6.7.8-10.1zm-63.9-68v2.2h.5c17.4 0 34 6.9 46.3 19.2s19.2 28.8 19.2 46.2c0 1.9-.1 3.8-.2 5.7-.1 1.7-.4 3.4-.6 5.1v.2l2.2.5.1-.3c.3-1.7.5-3.5.7-5.2.2-2 .3-4 .3-6 0-18-7.1-35-19.9-47.7-12.7-12.7-29.9-19.8-47.9-19.8h-.5zm70.5 67.1c0 4-.3 8.1-1 12l-.1.4 2.1.5.1-.5c.7-4.1 1.1-8.2 1.1-12.4 0-38.9-31.8-70.6-70.9-70.6h-1.8v2.2h1.8c37.9 0 68.8 30.7 68.8 68.5zm-131.8 1.1h-2.2c.4 35.5 29.7 64 65.3 63.6 3.1 0 6.3-.3 9.4-.8l-.4-2.1c-3 .5-6 .7-9 .8-34.4.4-62.7-27.2-63.1-61.5zm73.1 66.8h.3l-.4-2.2h-.2l-5.2.7c-1.9.2-3.8.3-5.8.3-17.5 0-34-7-46.2-19.4-12.2-12.2-19.2-28.7-19.4-45.9v-.3h-2.3v.3c.2 17.9 7.5 34.8 20.1 47.5 12.7 12.7 29.8 20 47.8 20 3.8 0 7.6-.3 11.4-.9zm.9 3.5l-.4-2.1-.6.1c-4 .7-8.2 1.1-12.3 1.1-38 0-68.7-31.8-68.7-69.4h0-2.2c0 38.8 31.7 71.6 70.9 71.6 4.2 0 8.5-.4 12.6-1.1l.6-.1zm36.3-92.5c0-12.1-5.7-20-16.3-23.1l-.3 12c0 .4.2.7.5.9 0 0 2.8 1.9 4.3 4 1.4 2.1 1.8 4.5 1.8 4.6.1.6.6 1 1.2.9s.9-.5.9-1.1v-.2c0-.1-.4-3-2.2-5.5-1.3-1.9-3.4-3.6-4.3-4.2 0-.8.1-5.8.2-8.4 7.9 3.3 12 10.1 12 20.1 0 14.3-8.8 24.4-21.5 24.4-11.5 0-15.4-9.5-18-15.8l-.9-2.1c-.9-1.9-2.1-3.2-3.8-3.8-3.1-1.2-6.7.4-8 1.1-.5.2-.8.9-.5 1.4s.9.8 1.4.5c1.1-.5 4-1.9 6.3-1 1.1.4 1.9 1.3 2.5 2.7l.8 2c2.6 6.4 7.1 17.1 20 17.1 13.9 0 23.6-10.9 23.6-26.5zm-112.1 6.4l-5.8-3.9 7-.2-1.1 4.1zm6 4.1l-3.2-2.3 1.7-6.1 3.8-.2 1.3-4.8-18.2 1.7-1.5 5.3 14.7 10.8 1.2-4.4zm8.3-17c-.1.8-.6 2.4-1.2 3.2l3.8-.5 1.1-1.6c2.3-3.3 1-6.2-1.9-8.2l-13.3-9.1-2.6 3.7 12.2 8.3c2.3 1.6 2.1 3 1.9 4.3zm6.8-29.6l5.6 4.2-3.5 2.5-2.1-6.7h.1zm4.2 13.6l-1.1-3.7 5.2-3.7 3.2 2.2 4-2.9-15.3-9.9-4.5 3.3 4.7 17.5 3.7-2.7zm18.8-19.9l-3.2 10 5-1.3 1.7-6.8 4.7 5.3 5.2-1.3-7.4-7.4 2.9-9-4.8 1.2-1.5 6.2-4.2-4.8-5.1 1.2zm4.9 36.6c2.5-1.1 6.7-3.3 10.3-5.4 4-2.3 7.4-4 9.8-4.9 2.8-1 5.9-2 9.5-1.7 3.9.2 5.1.7 6.5 1.3 1.5.6 3.8 2 3.9 2 .5.3 1.2.1 1.5-.4s.1-1.2-.4-1.5c-.1-.1-2.5-1.5-4.2-2.2-1.8-.7-3.3-1.3-7.2-1.5-4.1-.2-7.5.9-10.4 1.9-3.3 1.2-7.4 3.4-10.2 5-3.5 2-7.7 4.2-10.1 5.3-2.7 1.2-6.9 2.5-7.7 2.5a1.11 1.11 0 0 0-1.1 1.1 1.11 1.11 0 0 0 1.1 1.1c1.5 0 6.4-1.7 8.6-2.7zm-1.4 31.1l-3.5.6c-.5.1-1 .7-.9 1.3s.7.9 1.3.9l3.6-.6c1.6-.3 2.8-1.2 3.6-2.6.3-.5 1.4-2.1 2.1-2.9.2-.2.2-.4.2-.7v-.1l-.4-5.5 3.9 2.8-.8 2c-.1.4-.3 1-.3 1.6 0 .7.4 1.7 1.2 2.3 0 0 .7.5 1.1.7.3.1.3.5.3.8v2.5c0 .7.2 1.7.4 2.6.1.5.2 1.2.2 1.5-.1.2-.5.7-.8 1.1-.9 1.2-2.2 2.9-2.9 4.5l-.8 1.9c-.5 1.1-1 2.3-1.3 2.5-.4.3-2.4.6-3.6.8l-2.1.4c-1.2.3-2.7.9-3.9 1.4-.5.2-1.2.5-1.4.5-.3 0-1.3-.3-1.9-.5l-2.7-.8c-.8-.1-.9-.2-.9-.6v-.6c0-1.2-1-2.4-3-3.7-.9-.6-2.4-2-2.5-3.2v-.1c0-1 1-2.1 1.8-3l.7-.8c.4-.5.6-1.1.6-1.6v-.2l2.1.1c.6 0 1.1-.4 1.2-1 0-.6-.4-1.1-1-1.2l-3.9-.2c-.4 0-.9.2-1 .6l-.1.4c0 .3.1.6.3.8.1 0 .4.4.4.7l-.1.2-.6.7c-1 1.1-2.3 2.6-2.3 4.4v.3c.2 2.6 3.1 4.6 3.5 4.8 2 1.3 2 1.9 2 1.9v.5c0 1.3.5 2.4 2.7 2.8.7.1 1.6.4 2.4.7 1.5.5 2.3.7 3 .6.4-.1.9-.3 1.8-.7 1.1-.5 2.5-1 3.5-1.3l2-.4c2.3-.4 3.7-.7 4.3-1.1.9-.5 1.4-1.7 2.2-3.6l.8-1.8c.6-1.4 1.8-2.9 2.7-4.1s1.1-1.6 1.2-2v-.3c0-.4-.1-.9-.3-2l-.3-2.3v-2.4c0-1-.1-1.8-.8-2.2l-1.1-.7c-.6-.4-.9-1-.5-1.9.1-.3.7-1.7 1-2.5l.1-.4c0-.3-.2-.7-.5-.9l-5.6-4.1-2.8-2.1.7 9.8c-.5.7-1.7 2.2-2 2.9-.5.9-1.1 1.4-2.1 1.6z"/><path d="M415.4 1479.4l.7-.2c1.2-.4 2.6-.8 2.8-2.7.2-1.8-1.7-3.8-5.4-7.5-2.9-2.9-8.8-7.9-15.4-13.3-6.4-5.2-17.8-12.7-22.3-15.3-4.9-2.8-8.3-3.4-10.3-3.4-1.3 0-2 .6-2.3 1-.7 1-.3 2.3.2 3.2.6 1.2 2.6 2.7 3.2 3.1.5.3 1.2.2 1.5-.3.1-.2.2-.4.2-.6 0-.4-.2-.7-.5-.9-1-.7-2.3-1.7-2.5-2.2s-.3-.8-.3-1v-.1c.1 0 .2-.1.4-.1 1.7 0 4.8.5 9.2 3.1 4.5 2.5 15.7 10 22 15.1 6.5 5.3 12.4 10.3 15.2 13.1 1.9 1.9 4.8 4.8 4.8 5.7h0c0 .4 0 .4-1.3.8l-.8.3c-2.2.8-3.3 1.8-3.3 3.2 0 .4.1 1 .3 1.6.1.4.4 1.3.4 1.8v.2c-.3.5-1.1.5-2.2.5-.6 0-1.2 0-1.7.1-.4.1-.8.3-1.3.6-.7.4-1.6.9-2 .6s-.6-.8-.6-1.7c0-.5.1-1.1.2-1.8l.4-1.7c.3-1 .5-1.8.5-2.4 0-.3 0-.6-.2-.8-.3-.6-.9-.8-2.5-1.4-.7-.2-2-.7-2.3-1-.2-.3-.4-.9-.4-1.7v-.7c.1-.7.4-2.2.5-2.8l.1-.3c0-.5-.3-.9-.9-1s-1.2.2-1.3.8c-.1.2-.5 2.1-.6 3.1v.9c0 1 .2 2.2.9 3 .5.6 1.5 1 3.2 1.7.3.1.8.3 1.1.4-.1.4-.2 1-.3 1.5l-.4 1.8c-.1.5-.3 1.3-.3 2.3 0 1.2.3 2.5 1.4 3.4 1.5 1.2 3.4.2 4.5-.4.3-.2.7-.4.8-.4h1c1.2 0 3.1.1 4.1-1.4.7-1 .3-2.5 0-3.8-.1-.4-.2-.9-.2-1s.3-.6 1.9-1.1zm-48.9-15.4c-.6-.1-1.2.3-1.3.9s.3 1.1.9 1.2c4.4.7 5.2.6 5.9.3h.1c.8-.1 1.1-.6 1.2-.9l.1-.5c0-.7-.5-1.4-1-2l-.1-.1c-.2-.3-.5-1.5-.5-2.8 0-.4.1-.9.2-1.3l.6-3.7c.1-.4.1-.9.1-1.2l1 .3c.9.3 1.8.6 2.5.4 1.3-.3 1.5-1.5 1.5-2.8v-1.7c0-2.2-3.2-2.4-4.9-2.4h-.5c-.2 0-.5-.1-.7-.2.3-.5 1.1-1.3 1.9-2.1.2-.2.3-.5.3-.8s-.1-.5-.3-.8c-.4-.4-1.1-.4-1.6 0-2.7 2.6-2.7 3.4-2.7 3.7 0 1.3 1.4 2.2 2.8 2.3h.6c1.8.1 2.5.3 2.8.4v2.2c-.3-.1-.8-.2-1.1-.3-1.1-.4-2.1-.6-2.8-.3-.9.4-1 1.5-1.2 3.1-.1 1-.2 2.2-.5 3.4-.2.6-.2 1.2-.2 1.8 0 1.7.4 3.3 1 4.1l.2.3c-.5 0-1.6 0-4.4-.5zm1.1-15c-.5-.3-1.2-.1-1.5.4l-2.5 4.3c-.6.8-2.9 5.5-2.9 6.5 0 .9.4 1.6 5.7 2.4.6.1 1.2-.3 1.3-.9v-.2c0-.5-.4-1-.9-1.1l-3.6-.7c.5-1.3 1.8-3.9 2.3-4.7.8-1.1 2.6-4.3 2.7-4.5l.1-.5c0-.4-.2-.8-.6-.9zm54.1 44.4c1.4.2 4.4-.5 5.3-1.8.7-.9 1.2-2.8 1.3-3a1.107 1.107 0 1 0-2.1-.7c-.2.7-.6 1.9-1 2.3-.3.4-2.2 1-3.2.8-.6-.1-1.9-.5-2.5-1.3-.4-.5-.5-1.2-.3-2 .5-2.4 3.2-2.4 3.5-2.3.6 0 1.1-.4 1.2-1 0-.6-.4-1.1-1-1.2-1.7-.1-5.1.6-5.8 4.1-.3 1.4-.1 2.7.7 3.7 1 1.4 2.7 2 4 2.2zm12.1 10.5c1.1-.6 1.5-1.9 1.5-3.5a9.93 9.93 0 0 0-.5-3c-1.6-4.3-1.9-6.2-1.9-7.1 0-.4.1-.5.1-.6.7-.7 2.2-.7 4.9.1l6.3 2a1.107 1.107 0 1 0 .7-2.1c-.2-.1-3.6-1.2-6.5-2-2.8-.8-5.5-1.2-7.2.6-1.2 1.2-.8 4 1.3 9.9.8 2.1.3 3.7 0 3.8-.4.2-1.7-.3-2.6-1.4h0c-3.1-3.2-4.8-4.2-6.1-3.6-1.5.6-2.7 4.7-3.3 7.1-.9 3.9-1.6 5-1.9 5.3-.4-.7-.6-3-.6-5.3v-1.5c0-1.2-.1-7-2-7.7-2-.7-5.1 2.5-5.2 2.5-.7.7-4 4.5-6.6 9.3-2.4 4.5-4.5 10.2-4.6 10.5a1.107 1.107 0 1 0 2.1.7c0-.1 2.1-5.8 4.5-10.2 2.5-4.7 5.9-8.5 6.3-8.9.8-.8 2-1.7 2.7-1.9.4.9.7 3.5.7 5.2v2c0 2.2.2 5.8 1.4 7 .4.4.8.5 1.3.5 2.4-.1 3.4-3.5 4.2-7 .7-2.9 1.5-5 2-5.5.3.1 1.3.6 3.7 3.1h0c1.4 1.6 3.7 2.7 5.3 1.9zm-54.3 2.5c-2.1-2.3-5.1-3.1-5.2-3.1-.6-.2-1.2.2-1.4.8s.2 1.2.8 1.3c0 0 2.5.7 4.2 2.5.9 1 1.8 2.9 2.1 4.2.2 1 .4 3.2.4 3.2 0 .6.6 1.1 1.2 1 .6 0 1.1-.6 1-1.2 0-.1-.2-2.3-.4-3.5-.3-1.5-1.4-3.8-2.6-5.2zm21.8-15.1c-.2-.6-.6-.9-1.2-.8l-5.8 1.4c-.7.2-2 .7-3.2 1.1l3.4-6.3c1.2-2.6 1.5-5.1 1.5-5.2v-.1c0-.5-.4-1-1-1.1s-1.1.4-1.2 1c0 0-.2 2.3-1.3 4.5-1.1 2.4-4.8 8.7-4.8 8.8-.2.4-.2.9.1 1.3.3.3.8.5 1.2.3.1 0 4.4-1.8 5.9-2.1l5.8-1.4c.6-.2.8-.7.6-1.3zm-53.2-3.4c-.6.1-1 .6-1 1.2.1.6.6 1.1 1.2 1 0 0 3.8-.4 7.6.5 4 .9 9.5 2.8 12.1 3.9l.4.2c10.1 4.2 12.4 4.3 13.4 3.2 1.7-2-.8-4.4-1.7-5.2-.5-.4-1.1-.4-1.6 0-.2.2-.3.5-.3.8s.1.6.4.8c1.3 1.2 1.6 1.8 1.6 2-.8 0-3.3-.5-10.9-3.7l-.4-.2c-2.7-1.1-8.4-3.1-12.5-4s-8.1-.5-8.3-.5zm35.3-113.9l10.9-7.7 10.7 7.7-3.9-12.5 10.9-7.7h-13.4l-3.9-12.5-4.3 12.5H377l10.7 7.7zm54.5 1.4l5.8 12 2.2-13.1 12.9-1.9-11.6-6.3 2.2-13.2-9.3 9.3-11.6-6.3 5.8 12-9.3 9.3z"/></g></g><defs /></svg>