<svg xmlns="http://www.w3.org/2000/svg" width="195.224" height="396.85" viewBox="0 0 649.6 1320.5"  shape-rendering="geometricPrecision" image-rendering="optimizeQuality" fill-rule="evenodd" xmlns:v="https://vecta.io/nano"><path d="M15765.9-8290H35887.1v18863.6H15765.9z" fill="#ebecec"/><g fill-rule="nonzero"><path d="M649.6 1182.8l-137.5 137.7H136.7L0 1182.8V969.9h214.4v106.7h220.2v-294H199.5V537.9h235.1V243.8H214.4v99.3H0V138.8L138.2 0h373.9l137.5 138.8v406l-82 115.9 82 115.3z" fill="#bae8d9"/><g fill="#121c4d"><path d="M98 343V113.6h450.1v427.3l-105 118.4 105 119.7v426.4H399.6v-14.9h133.6V784.6L429.9 666.8H199.1v-14.9h230.8l103.3-116.5V128.7H113v214.4H98.1zm152.1 862.4H98v-236h14.9v221.1H250v14.9zm125.9 16.5l-.8-.6.9.1-.2.5zm1.8-.2l1.6.2.6-1.8-6.8-.7-.6 1.6 5.1 4.8.3-.6.5-1.3-1-.8.5-1.3zm-7.1 5.8h0a1 1 0 0 1 1-.6c.4 0 .8.2 1.1.4.7.4 1.2 1 .8 1.9l-2.8-1.6zm-2.3.8l5.6 3.4 1-1.6c.5-.7.7-1.6.5-2.4-.2-.9-.9-1.6-1.6-2-.6-.4-1.3-.6-2-.6-1.1 0-2 .7-2.5 1.6l-.9 1.7zm-1.6 4.6h0l.3-.3c.1 0 .2.1.3.1.3.2.2.4 0 .7l-.7-.5zm2.5-.4c0-.6-.2-1.1-.7-1.5-.4-.3-.8-.5-1.2-.5-.7 0-1.3.4-1.7.9l-1.3 1.8 5.1 4.1.3-.4.8-1.2-1.6-1.5h.2l2.2.8 1-1.6-2.6-.9c-.2-.1-.3-.1-.5-.1zm-30.8 21.1v-1l.5.8-.5.2zm1.2 1.2l.9 1.3 1.7-.7-3.9-5.6-1.6.6-.4 6.9.6-.1 1.4-.5v-1.4l1.3-.4zm23-17.3l1.4-1.6-1.3-1-2.6 2.7 4.6 4.7 2.8-3-1.3-1-1.2 1.5-.8-.7 1.4-1.4-1.3-1.1-1.2 1.4zm-5.4 4.5l3.1 3.9.4-.2 1.1-1.1-3.1-3.7 1-.9-1.1-1.2-3.4 2.9 1.2 1.1zm-2.7 6c-.4.3-1 .3-1.3.5l-.2.2.7 1.3h.3c.5 0 1.1-.3 1.5-.5.6-.4 1-.9 1.2-1.5a2.22 2.22 0 0 0-.3-1.6c-.5-.8-1.1-1-2-1h-1c-.2 0-.2 0-.3-.1v-.2c0-.1.2-.2.2-.2.3-.2.7-.3 1.1-.5l.3-.2-1-1.3-.2.1c-.4.1-.8.3-1.2.5-.5.3-1 .8-1.1 1.5-.1.5 0 1 .3 1.4.5.7 1.1 1 2 1l1-.1c.2 0 .3 0 .4.1s.1.2.1.3-.1.2-.2.2zm-7.7 2.4l-2.5-2.7-2.2 1.1 2.7 6 .4-.2 1.3-.8-1.2-2.4 2 2.2 1.3-.7-.4-3 1.3 2.8 1.6-.9-2.8-5.9-2.1 1zm32-36.8l-3.7.1-.5 2.4 6.2 1.8.2-.4.3-1.5-2.7-.7 3.1-.1.2-1.4-2.6-1.6 3 .8.3-1.9-6.3-1.7-.5 2.4zm-97.9-84.9l1.9 10.6 4.8-9.7 10.9 1.3-7.9-7.4 4.9-9.7-9.7 5.1-7.9-7.4 1.8 10.6-9.6 5.2zm96.4 71.6c0-28.9-23.5-52.5-52.5-52.8v1.8c28 .3 50.7 23.1 50.7 51.1 0 2.7-.2 5.3-.6 7.9l1.7.4c.4-2.7.7-5.5.7-8.3zm-52.4-55.9v1.8h.4c14.3 0 27.9 5.7 38.1 15.7 10.1 10.1 15.8 23.6 15.8 37.9 0 1.6-.1 3.1-.2 4.7-.1 1.4-.3 2.8-.5 4.2v.2l1.8.4v-.3c.2-1.4.4-2.8.5-4.3.1-1.6.2-3.3.2-4.9 0-14.8-5.9-28.8-16.3-39.2-10.5-10.4-24.5-16.3-39.4-16.3h-.4zm57.9 55.1c0 3.3-.3 6.6-.9 9.9l-.1.3 1.7.4.1-.4c.6-3.3.9-6.8.9-10.2 0-32-26.1-58-58.3-58h-1.4v1.8h1.4c31.1 0 56.5 25.2 56.5 56.2zm-108.3.9h-1.8c.3 29.1 24.4 52.6 53.6 52.3 2.6 0 5.1-.3 7.7-.7l-.3-1.7c-2.4.4-4.9.6-7.4.6-28.3.3-51.5-22.3-51.8-50.5zm60 54.9h.2l-.4-1.8h-.2l-4.3.5-4.7.2c-14.3 0-27.9-5.8-38-15.9-10-10-15.8-23.5-16-37.7v-.2h-1.9v.2c.2 14.7 6.1 28.6 16.5 39a55.23 55.23 0 0 0 39.3 16.4c3.1 0 6.3-.3 9.3-.8z"/><path d="M335.4 1258.2l-.3-1.7-.5.1c-3.3.6-6.7.9-10.1.9-31.2 0-56.4-26.1-56.5-57h0-1.8c0 31.8 26 58.8 58.2 58.8 3.5 0 7-.3 10.4-.9l.5-.1zm29.8-75.9c0-9.9-4.7-16.5-13.4-19l-.2 9.9c0 .3.2.6.4.8 0 0 2.3 1.6 3.5 3.3s1.5 3.7 1.5 3.8c.1.5.5.8 1 .8.5-.1.8-.4.8-.9v-.1c0-.1-.3-2.4-1.8-4.5-1.1-1.6-2.8-2.9-3.6-3.5l.1-6.9c6.5 2.7 9.9 8.3 9.9 16.5 0 11.8-7.2 20-17.6 20-9.4 0-12.6-7.8-14.8-13l-.7-1.7c-.7-1.6-1.8-2.6-3.1-3.1-2.6-1-5.5.4-6.6.9a.78.78 0 0 0-.4 1.2c.2.4.7.6 1.2.4.9-.4 3.3-1.5 5.2-.8.9.3 1.6 1 2.1 2.2l.7 1.7c2.2 5.3 5.8 14.1 16.4 14.1 11.4 0 19.4-9 19.4-21.8zm-92.1 5.2l-4.8-3.2 5.7-.1-.9 3.4zm4.9 3.4l-2.6-1.8 1.4-5 3.2-.2 1.1-3.9-14.9 1.4-1.2 4.4 12 8.8 1-3.6zm6.9-14c-.1.7-.5 2-1 2.6l3.1-.4.9-1.3c1.9-2.7.9-5.1-1.6-6.8l-10.9-7.4-2.1 3 10 6.8c1.9 1.3 1.8 2.4 1.6 3.5zm5.6-24.3l4.6 3.4-2.8 2-1.8-5.5zm3.4 11.2l-.9-3.1 4.3-3.1 2.6 1.8 3.3-2.4-12.6-8.1-3.7 2.7 3.9 14.4 3.1-2.2zm15.5-16.4l-2.7 8.2 4.1-1 1.4-5.6 3.8 4.3 4.4-1-6.1-6.1 2.4-7.4-4 1-1.2 5-3.4-3.9-4.3 1zm4 30c2-.9 5.5-2.7 8.4-4.4 3.3-1.9 6.1-3.3 8.1-4 2.3-.8 4.8-1.6 7.8-1.4 3.2.2 4.2.6 5.4 1.1s3.2 1.7 3.2 1.7c.4.3 1 .1 1.2-.3.3-.4.1-1-.3-1.2-.1 0-2.1-1.2-3.4-1.8-1.4-.6-2.7-1-5.9-1.2-3.4-.2-6.2.7-8.5 1.6-2.7 1-6.1 2.8-8.4 4.1-2.9 1.7-6.3 3.5-8.3 4.3-2.2 1-5.7 2.1-6.3 2.1-.5 0-.9.4-.9.9s.4.9.9.9c1.2 0 5.3-1.4 7.1-2.2zm-1.2 25.6l-2.9.5c-.4.1-.9.6-.8 1 .1.5.6.8 1.1.7l2.9-.5c1.3-.3 2.3-1 2.9-2.2.2-.4 1.2-1.7 1.7-2.4.1-.1.2-.3.2-.5v-.1l-.3-4.5 3.2 2.3-.6 1.6c-.1.3-.3.8-.3 1.4a2.42 2.42 0 0 0 1 1.9l.9.6c.2.1.3.4.3.6v2.1c0 .6.2 1.4.3 2.1.1.4.1 1 .2 1.2-.1.2-.4.6-.7.9-.7 1-1.8 2.4-2.4 3.7l-.7 1.6c-.4.9-.8 1.9-1.1 2.1s-2 .5-3 .7l-1.7.4c-1 .2-2.2.7-3.2 1.1-.4.2-1 .4-1.2.4-.3 0-1-.3-1.6-.4-.7-.2-1.5-.5-2.2-.6-.6-.1-.7-.1-.7-.5v-.4c0-1-.8-2-2.5-3.1-.7-.5-2-1.7-2.1-2.6v-.1c0-.8.8-1.7 1.5-2.5l.6-.6c.3-.4.5-.9.5-1.3v-.2c.9.1 1.7.1 1.7.1.5 0 .9-.3 1-.8 0-.5-.4-.9-.9-1l-3.2-.2c-.4 0-.7.2-.9.5l-.1.4c0 .2.1.5.2.6 0 0 .3.3.3.5l-.1.2-.5.6c-.8.9-1.9 2.2-1.9 3.6v.3c.2 2.1 2.6 3.8 2.8 4 1.6 1.1 1.7 1.6 1.7 1.6v.4c0 1.1.4 2 2.2 2.3a8.93 8.93 0 0 1 2 .6c1.3.4 1.9.6 2.5.5.3-.1.7-.2 1.5-.6.9-.4 2.1-.9 2.9-1l1.7-.3c1.9-.3 3-.6 3.6-.9.7-.4 1.2-1.4 1.8-2.9l.7-1.5c.5-1.1 1.5-2.4 2.2-3.4s.9-1.3 1-1.6v-.3c0-.3-.1-.8-.2-1.6l-.3-1.9v-2c0-.8-.1-1.5-.6-1.8 0 0-.4-.3-.9-.6s-.8-.8-.4-1.6l.8-2.1.1-.4c0-.3-.1-.5-.4-.7l-6.9-5.1.6 8-1.7 2.3a2.5 2.5 0 0 1-1.7 1.3zm28.6 12.1l.6-.2c1-.3 2.2-.7 2.3-2.2.2-1.5-1.4-3.1-4.4-6.2-2.4-2.4-7.2-6.5-12.6-10.9-5.3-4.2-14.6-10.5-18.3-12.6-4-2.3-6.8-2.8-8.5-2.8-1.1 0-1.6.5-1.9.9-.5.8-.2 1.9.1 2.7.5 1 2.1 2.2 2.6 2.6a.95.95 0 0 0 1.3-.2c.1-.2.2-.3.2-.5 0-.3-.1-.6-.4-.7-.8-.6-1.9-1.4-2-1.8-.2-.4-.2-.7-.2-.9v-.1h.3c1.4 0 3.9.4 7.6 2.5s12.9 8.2 18.1 12.4c5.4 4.3 10.2 8.5 12.5 10.8 1.6 1.6 3.9 3.9 3.9 4.7h0c0 .3 0 .4-1.1.7l-.6.2c-1.8.6-2.7 1.5-2.7 2.6 0 .3.1.8.2 1.3.1.4.3 1.1.3 1.5v.2c-.3.4-.9.4-1.8.4-.5 0-1 0-1.4.1a4.67 4.67 0 0 0-1 .5c-.5.3-1.4.7-1.7.5-.3-.3-.5-.7-.5-1.4 0-.4.1-.9.2-1.5l.3-1.4c.2-.8.4-1.5.4-1.9 0-.3 0-.5-.1-.7-.2-.5-.8-.7-2-1.1-.6-.2-1.6-.6-1.9-.8-.2-.2-.3-.7-.3-1.4v-.6l.4-2.3v-.2c0-.4-.3-.8-.7-.9-.5-.1-1 .2-1.1.7 0 .2-.4 1.7-.5 2.5v.7c0 .9.2 1.8.7 2.5.4.5 1.3.9 2.6 1.4.3.1.7.3.9.4 0 .3-.2.8-.3 1.2l-.4 1.5c-.1.4-.2 1.1-.2 1.9 0 1 .2 2 1.1 2.8 1.2 1 2.8.2 3.7-.3.3-.1.5-.3.7-.3h.8c1 0 2.5.1 3.4-1.2.6-.9.3-2.1 0-3.1-.1-.3-.2-.7-.2-.8s.3-.5 1.5-.9zm-40.1-12.7c-.5-.1-1 .3-1 .7-.1.5.3.9.8 1 3.6.6 4.3.5 4.9.3h.1c.7-.1.9-.5 1-.8l.1-.4c0-.6-.4-1.1-.8-1.6l-.1-.1c-.1-.2-.4-1.2-.4-2.3 0-.4 0-.7.1-1.1.3-1.2.4-2.2.5-3.1 0-.3.1-.7.1-1 .3 0 .6.1.8.2.7.2 1.4.5 2 .4 1.1-.2 1.2-1.3 1.2-2.3v-1.5c0-1.8-2.6-1.9-4-2h-.4c-.2 0-.4-.1-.5-.2a18.27 18.27 0 0 1 1.5-1.7c.2-.2.3-.4.3-.6s-.1-.4-.3-.6c-.3-.4-.9-.4-1.3 0-2.2 2.1-2.2 2.8-2.2 3 0 1.1 1.2 1.8 2.3 1.9h.5c1.5.1 2.1.2 2.3.3v1.8l-.9-.3c-.9-.3-1.7-.5-2.3-.2-.7.4-.8 1.2-1 2.5l-.4 2.8c-.1.5-.2 1-.2 1.5 0 1.4.3 2.7.8 3.3l.2.2c-.4 0-1.3 0-3.6-.4z"/><path d="M301.6 1190.1c-.4-.2-1-.1-1.2.3l-2.1 3.5c-.5.7-2.4 4.5-2.4 5.3 0 .7.3 1.3 4.7 1.9.5.1 1-.3 1-.7v-.1c0-.4-.3-.8-.8-.9-1.1-.1-2.3-.4-3-.6.4-1.1 1.5-3.2 1.9-3.9.6-.9 2.1-3.5 2.2-3.7l.1-.4c0-.3-.2-.6-.5-.8zm44.4 36.5c1.2.1 3.6-.4 4.3-1.4.5-.8 1-2.3 1.1-2.4.1-.5-.1-1-.6-1.1s-1 .1-1.1.6c-.2.5-.5 1.5-.8 1.9-.3.3-1.8.8-2.6.7-.5-.1-1.6-.4-2-1.1-.3-.4-.4-.9-.2-1.6.4-2 2.7-1.9 2.9-1.9.5 0 .9-.4 1-.8 0-.5-.4-.9-.8-1-1.4-.1-4.2.5-4.8 3.4-.3 1.2-.1 2.2.5 3 .8 1.1 2.2 1.7 3.3 1.8zm9.9 8.6c.9-.5 1.3-1.6 1.3-2.8 0-.8-.2-1.7-.4-2.5-1.3-3.5-1.5-5.1-1.5-5.8 0-.3.1-.4.1-.5.6-.6 1.8-.6 4.1.1l5.2 1.6c.5.2 1-.1 1.2-.5.1-.5-.1-1-.5-1.1-.1 0-2.9-1-5.3-1.7-2.3-.6-4.5-1-5.9.5-1 1-.7 3.3 1.1 8.1.6 1.7.3 3 0 3.2s-1.4-.2-2.1-1.1h0c-2.5-2.6-3.9-3.4-5-3-1.3.5-2.2 3.9-2.7 5.9-.8 3.2-1.3 4.1-1.6 4.3-.3-.6-.5-2.4-.5-4.4v-1.3c0-1-.1-5.8-1.7-6.3-1.6-.6-4.2 2.1-4.2 2.1-.5.6-3.3 3.7-5.5 7.7-2 3.7-3.7 8.4-3.8 8.6-.2.5.1 1 .5 1.2.5.2 1-.1 1.2-.5 0-.1 1.7-4.7 3.7-8.4 2.1-3.9 4.9-7 5.2-7.3.6-.7 1.7-1.4 2.2-1.5.3.7.6 2.9.6 4.3v1.7c0 1.8.2 4.7 1.1 5.7.3.3.7.4 1.1.4 2-.1 2.8-2.9 3.4-5.8.6-2.4 1.3-4.1 1.6-4.5.3.1 1.1.5 3 2.5h0c1.1 1.3 3 2.2 4.4 1.5zm-44.6 2.1c-1.8-1.9-4.2-2.5-4.3-2.6-.5-.1-1 .2-1.1.6-.1.5.1 1 .6 1.1 0 0 2 .6 3.4 2.1.8.8 1.5 2.4 1.7 3.4.2.9.3 2.6.3 2.6 0 .5.5.9 1 .8.5 0 .9-.5.9-1 0-.1-.1-1.9-.4-2.9-.3-1.2-1.1-3.2-2.1-4.3z"/><path d="M329.2 1224.9c-.1-.5-.5-.8-1-.7l-4.8 1.2-2.7.9 2.8-5.2c1-2.1 1.2-4.2 1.2-4.3v-.1c0-.4-.3-.8-.8-.9-.5 0-.9.3-1 .8 0 0-.2 1.9-1 3.7-.9 1.9-3.9 7.2-4 7.2-.2.3-.2.7.1 1s.7.4 1 .2l4.8-1.8 4.8-1.2c.5-.1.7-.6.5-1.1zm-43.6-2.8c-.5.1-.9.5-.8 1s.5.9 1 .8c0 0 3.2-.3 6.2.4 3.3.7 7.8 2.3 10 3.2l.4.1c8.3 3.4 10.2 3.6 11 2.6 1.4-1.7-.7-3.6-1.4-4.3a1.05 1.05 0 0 0-1.3 0c-.2.2-.2.4-.2.6a1.08 1.08 0 0 0 .3.7c1.1 1 1.3 1.4 1.3 1.7-.7 0-2.7-.4-9-3l-.4-.1c-2.2-.9-6.9-2.5-10.2-3.3-3.4-.8-6.7-.4-6.8-.4zm28.9-93.6l9-6.3 8.8 6.3-3.3-10.2 9-6.4h-11l-3.2-10.2-3.6 10.2h-10.9l8.7 6.4zm44.8 1.2l4.8 9.8 1.8-10.8 10.5-1.5-9.5-5.2 1.8-10.8-7.6 7.6-9.6-5.1 4.8 9.8-7.6 7.7z"/></g></g><defs /></svg>