<svg xmlns="http://www.w3.org/2000/svg" width="709.474" height="247.113" viewBox="0 0 16522.7 5754.9"  shape-rendering="geometricPrecision" image-rendering="optimizeQuality" fill-rule="evenodd" xmlns:v="https://vecta.io/nano"><path d="M-164274.906-77955.602h140832.203V62876.602h-140832.203z" fill="#e6e6e6"/><g fill-rule="nonzero"><path d="M16522.7 5754.9h-308.4l-32.7-26.2h-92.3l-8.3 26.2h-325.5l-608.9-1792.7h-212.2v1792.7H14642l-17.2-26.1h-97.9l-16.9 26.1h-294.1v-4401h1719.6l456.4 462.8v1615.8l-488.4 518.2 619 1804.2zM346.1 0h704.2v704.2H346.1V0zm836.2 0h704.2v704.2h-704.2V0zM6006 0h704.2v704.2H6006V0zm836.2 0h704.2v704.2h-704.2V0zM2232.6 5293.1l-468.2 461.8H459.1L.1 5296V1353.9h288.4l15.7 26h99.1l17.1-26h295.4v3588.3h801.7V1353.9h288.2l12.7 25.7h105.9l13.7-25.7h294.5v3939.2zm2075.7 461.8l-781.5-2305.2v2305.2H3232l-22.6-26.5h-86.6l-21.2 26.5h-288.1v-4401h767.2L4365.6 3662V1353.9h280.6l20.9 25.7h89l20.9-25.7h299.4v4395.3l2.5 5.7h-770.6zm3584.1-461.8l-468.2 461.8H6118.9l-459-458.9V1353.9h288.4l15.7 26h99.1l17.1-26h295.4v3588.3h801.7V1353.9h288.2l12.7 25.7h105.9l13.7-25.7h294.5v3939.2zm1814.7-1400.7l252.6-1291.7 245.9-1246.8h294.2l9.3 26.1h105.9l18.9-26.1h304.4l-864 4401h-735.2l-865.7-4401h313.7l21.8 26.3h98.4l12.9-26.3h288.4L9452 2602.6l255.2 1289.8zM12905 5754.9l-172.6-980h-750.3l-172.6 980H11494l-13.3-26.3-104.6-.5-15.9 26.8h-280.9l774.8-4401h1006.3l774.8 4401h-297.3l-22.6-26.4-97.8-.1-13.1 26.5h-299.3zm-315.8-1792.7l-231.6-1316.6-232.4 1316.6h464zm2345.3-815.6h742.8v-982.9h-742.8v982.9z" fill="#bae8d9"/><path d="M14510 5754.9V1694.4h1588.9v1926h-607.4l722.8 2134.5h-133.7l-728.3-2134.5H14642v2134.5h-132zM7128.1 286.1h132v132h-132v-132zm-836.2 0h132v132h-132v-132zm-4823.7 0h132v132h-132v-132zm-836.2 0h132v132H632v-132zM420.1 1353.9V5283h1385.4V1353.9h132v4061.2H288V1353.9h132zm2680.7 4401l-3.3-4060.5h252.7l1298.3 3570.8-3.5-3911.3h131.5l3.6 4061.2h-217.2L3258.1 1826.4h-29l3.2 3928.5h-131.5zm2979.2-4401V5283h1385.4V1353.9h132v4061.2H5947.9V1353.9h132zm2840.2 0l783.5 3898.3 796-3898.3h133.9l-828.9 4061.2h-202.4l-816.4-4061.2h134.3zm2439.6 4401l712.8-4060.5h568.1l697.1 4060.5H13204l-227.4-1324.5h-1250.3l-232.5 1324.5h-133.9zm1594.1-1456.5l-424.4-2472h-346.2l-433.9 2472h1204.5zm1688-2472v1662h1324.8v-1662h-1324.8z" fill="#121c4d"/></g><defs /></svg>