<svg xmlns="http://www.w3.org/2000/svg" width="197.726" height="396.85" viewBox="0 0 1455.8 2921.8"  shape-rendering="geometricPrecision" image-rendering="optimizeQuality" fill-rule="evenodd" xmlns:v="https://vecta.io/nano"><path d="M3895.8-18343.699h44523.301v41740.602H3895.8z" fill="#ebecec"/><g fill-rule="nonzero"><path d="M1455.8 2617.2l-307.6 304.7H300.9L0 2617.2V307.3L307.6.1h840.6l307.6 307.2v2309.9zm-474.5-234.9V539.6H474.5v1842.7h506.8z" fill="#121c4d"/><g fill="#bae8d9"><path d="M1234.6 253v2415.8H893.3v-33.1h308.2V286.1H254.3v2349.6h308.2v33.1H221.2V253zM841.1 2703.8l-1.7-1.4 2.1.2-.4 1.1zm3.9-.4l3.5.3 1.2-4-15-1.6-1.4 3.6 11.2 10.5.6-1.3 1.1-2.9-2.3-1.8 1.2-2.8zm-15.6 12.8h0c.5-.8 1.1-1.4 2.1-1.4.8 0 1.7.4 2.4.8 1.6 1 2.7 2.3 1.7 4.1l-6.3-3.6zm-5.1 1.7l12.3 7.5 2.3-3.7c1-1.6 1.5-3.5 1.1-5.4-.5-2-1.9-3.5-3.6-4.5-1.3-.8-2.8-1.4-4.4-1.4-2.5 0-4.3 1.5-5.6 3.6l-2 3.8zm-3.4 10.2l.1-.1c.1-.2.6-.7.8-.7s.5.2.6.3c.6.5.5.9 0 1.5l-1.5-1zm5.5-.8c.1-1.2-.5-2.4-1.5-3.3-.8-.6-1.7-1.1-2.8-1.1-1.5 0-2.8 1-3.7 2.1l-2.9 4.1 11.3 9.1.6-.8 1.8-2.7-3.6-3.3c.1 0 .2.1.4.1l4.9 1.7 2.2-3.6-5.7-2.1-1-.3zm-68.1 46.6v-2.2l1.2 1.7-1.1.5zm2.8 2.7l2 2.9 3.8-1.6-8.5-12.5-3.6 1.3-.8 15.2 1.3-.3 3.1-1-.1-3 2.9-1zm50.6-38.4l3.2-3.5-2.9-2.2-5.7 6.1 10.2 10.3 6.2-6.6-2.9-2.2-2.8 3.2-1.6-1.4 3-3.2-2.8-2.3-2.6 2.9zm-11.8 10.1l6.8 8.7.8-.6 2.5-2.3-6.9-8.2 2.3-2.2-2.5-2.5-7.4 6.3 2.5 2.6zm-6 13.2c-.9.6-2.1.7-2.9 1.2l-.5.4 1.6 2.9h.6c1.2 0 2.3-.6 3.3-1.2 1.2-.8 2.3-1.9 2.6-3.3.3-1.2-.1-2.5-.7-3.6-1.1-1.7-2.4-2.2-4.5-2.2l-2.2.1c-.3 0-.5 0-.7-.3 0-.1-.1-.2-.1-.3 0-.2.4-.4.5-.5.7-.5 1.6-.7 2.4-1.1l.7-.4-2.2-2.8-.5.1c-1 .3-1.8.6-2.6 1.1-1.2.7-2.2 1.9-2.4 3.3-.3 1.1 0 2.2.6 3.2 1 1.6 2.5 2.2 4.4 2.2l2.2-.1c.3 0 .6 0 .8.3.1.2.2.4.2.7 0 .2-.3.4-.5.5zm-17.1 5.4l-5.6-6.1-4.7 2.5 5.8 13.2.9-.4 3-1.7-2.7-5.4 4.5 5 2.8-1.6-.9-6.7 2.9 6.2 3.5-2-6.1-13.1-4.7 2.4zm70.9-81.5l-8.3.2-1.1 5.3 13.8 3.9.3-.8.7-3.4-6-1.4 6.8-.3.7-3.1-5.8-3.6 6.6 1.8.7-4.1-14-3.7-1.2 5.1zM631 2497.5l4.2 23.5 10.7-21.6 24.1 3-17.4-16.4 10.7-21.5-21.5 11.4-17.5-16.4 4.1 23.5-21.4 11.4zM844.4 2656c0-64-51.9-116.2-116.1-116.9v3.9c62 .7 112.2 51.1 112.2 113 0 5.9-.5 11.7-1.4 17.5l3.9.8c1-6.1 1.5-12.2 1.5-18.4zm-116.1-123.6v4.1h.9c31.7 0 61.8 12.5 84.2 34.8s35 52.3 35 83.9c0 3.4-.2 6.9-.5 10.3a147.8 147.8 0 0 1-1.2 9.3l-.1.4 4 .9.1-.6c.5-3.1.9-6.3 1.2-9.5.3-3.6.5-7.3.5-10.9 0-32.6-13-63.7-36.1-86.8-23.2-23.1-54.3-36-87.1-36h-.9zm128.1 121.9c0 7.3-.6 14.6-1.9 21.8l-.1.8 3.9.9.1-1c1.3-7.4 2-14.9 2-22.5 0-70.8-57.8-128.3-128.9-128.3h-3.2v3.9h3.2c68.9 0 124.9 55.8 124.9 124.4zm-239.5 2H613c.7 64.5 54 116.3 118.7 115.6 5.7-.1 11.4-.6 17-1.5l-.8-3.8c-5.4.8-10.8 1.4-16.3 1.4-62.5.7-114-49.4-114.7-111.7zm132.8 121.4l.5-.1-.8-4-.4.1-9.4 1.2c-3.5.3-7 .5-10.5.5-31.7 0-61.7-12.8-84-35.2-22.2-22.2-35-52.1-35.3-83.5v-.5h-4.1v.5c.4 32.4 13.6 63.3 36.5 86.3 23.1 23.1 54.1 36.4 86.9 36.4 6.9 0 13.8-.6 20.6-1.7zm1.7 6.4l-.8-3.8-1.1.2c-7.3 1.3-14.8 2-22.3 2-69.1 0-124.9-57.8-124.9-126.2h0-3.9c.1 70.5 57.6 130.1 128.8 130.1 7.7 0 15.4-.7 23-2.1l1.2-.2zm65.8-168c0-22-10.4-36.4-29.7-42l-.5 21.8c0 .7.3 1.3.9 1.7.1 0 5.1 3.5 7.7 7.3s3.2 8.2 3.2 8.3c.1 1.1 1.2 1.8 2.2 1.7s1.7-1 1.7-2v-.3c0-.2-.8-5.4-3.9-10-2.4-3.5-6.2-6.5-7.9-7.7 0-1.4.2-10.6.3-15.3 14.4 6 21.8 18.3 21.8 36.5 0 26.1-16 44.3-39 44.3-20.8 0-28-17.3-32.6-28.7l-1.6-3.8c-1.6-3.5-3.9-5.8-6.9-6.9-5.7-2.1-12.1.8-14.5 1.9-1 .4-1.4 1.6-1 2.6.5 1 1.6 1.4 2.6 1 2-.9 7.4-3.4 11.5-1.8 2 .7 3.5 2.3 4.6 4.8l1.5 3.7c4.8 11.6 12.9 31.2 36.3 31.2 25.3 0 43-19.8 43-48.2zm-203.7 11.6l-10.6-7.1 12.7-.3-2.1 7.4zm10.8 7.5l-5.7-4.1 3.1-11.2 7-.4 2.4-8.7-33.1 3.2-2.7 9.7 26.7 19.5 2.3-8zm15.2-31c-.2 1.5-1.2 4.4-2.1 5.7l6.9-.9 2-2.9c4.1-6 1.9-11.2-3.5-15l-24.1-16.5-4.7 6.7 22.1 15c4.1 2.9 3.9 5.4 3.5 7.8z"/><path d="M652 2550.4l10.1 7.6-6.3 4.5-3.9-12.1h.1zm7.6 24.7l-1.9-6.8 9.4-6.8 5.7 4 7.3-5.3-27.8-18-8.2 5.9 8.6 31.8 6.8-4.9zm34.2-36.1l-5.9 18.1 9.1-2.3 3-12.4 8.5 9.6 9.6-2.3-13.5-13.4 5.3-16.3-8.8 2.1-2.7 11.1-7.5-8.6-9.3 2.3zm8.8 66.4c4.5-2 12.2-6 18.7-9.8 7.2-4.2 13.4-7.3 17.9-8.9 5.1-1.8 10.7-3.6 17.3-3.2 7 .4 9.2 1.3 11.9 2.4s7 3.7 7 3.7c1 .6 2.2.3 2.7-.7.6-1 .3-2.2-.7-2.7-.2-.1-4.5-2.7-7.6-4-3.2-1.3-6-2.3-13.2-2.7-7.4-.4-13.6 1.6-18.9 3.5-6 2.1-13.4 6.2-18.6 9.2-6.4 3.7-13.9 7.7-18.3 9.6-5 2.2-12.6 4.6-14 4.6-1.1 0-2 .8-2 1.9s.9 2 2 2c2.7 0 11.7-3.2 15.7-4.9zm-2.5 56.6l-6.4 1.2c-.9.1-1.9 1.2-1.7 2.3s1.3 1.7 2.4 1.7l6.5-1.2c2.8-.6 5.1-2.2 6.5-4.8.5-.9 2.6-3.7 3.8-5.3.3-.3.4-.8.4-1.2v-.1l-.7-9.9 7.1 5.2-1.4 3.6c-.2.7-.6 1.8-.6 3-.1 1.3.7 3.1 2.2 4.2l2 1.3c.5.2.6 1 .6 1.4v4.7c.1 1.3.4 3.1.6 4.7l.4 2.7-1.5 2c-1.6 2.2-3.9 5.3-5.3 8.1l-1.5 3.4c-.8 1.9-1.9 4.2-2.4 4.6-.8.5-4.4 1.1-6.6 1.5l-3.9.8c-2.1.5-4.8 1.6-7.1 2.5-.9.4-2.2.9-2.6 1-.6 0-2.3-.6-3.5-1l-4.9-1.4c-1.4-.2-1.6-.3-1.6-1.1v-1.1c0-2.2-1.8-4.3-5.5-6.8-1.7-1.1-4.4-3.7-4.5-5.8v-.2c0-1.8 1.8-3.8 3.2-5.4l1.2-1.4c.7-.9 1-1.9 1-2.8l-.1-.4 3.8.2c1.1.1 2-.8 2.1-1.8.1-1.1-.8-2-1.9-2.1l-7.1-.4c-.8-.1-1.6.4-1.9 1.1l-.2.8c0 .5.2 1 .5 1.4.1.1.6.7.6 1.2l-.2.4-1 1.2c-1.8 2-4.3 4.8-4.3 8.1l.1.6c.4 4.7 5.7 8.4 6.3 8.8 3.6 2.4 3.7 3.5 3.7 3.5v.9c0 2.3.8 4.4 4.9 5.2 1.3.2 3 .8 4.4 1.3 2.8.9 4.3 1.3 5.5 1.1.7-.1 1.6-.5 3.3-1.2 2.1-.8 4.6-1.9 6.4-2.3l3.7-.7c4.1-.8 6.7-1.3 7.9-2 1.6-1 2.6-3.1 4-6.5l1.5-3.3c1.2-2.5 3.3-5.4 4.9-7.4 1.6-2.2 2-2.8 2.2-3.6v-.6c0-.7-.2-1.7-.5-3.6-.2-1.5-.5-3.1-.6-4.2v-2.6c0-.7.1-1.3.1-1.8 0-1.9-.3-3.2-1.4-4 0 0-1-.6-2-1.3-1.1-.8-1.7-1.8-1-3.5a98.62 98.62 0 0 1 1.8-4.6l.2-.8c0-.6-.3-1.2-.8-1.6l-10.2-7.4-5.1-3.8 1.2 17.8c-1 1.2-3.1 4.1-3.7 5.2-.9 1.6-2.1 2.5-3.8 2.8zm63.2 26.7l1.3-.4c2.2-.7 4.8-1.5 5.2-4.9.4-3.3-3.1-6.9-9.8-13.7-5.3-5.2-15.9-14.4-27.9-24.1-11.7-9.4-32.3-23.2-40.6-27.9-8.9-5-15.1-6.1-18.8-6.1-2.4 0-3.6 1-4.1 1.9-1.2 1.9-.5 4.2.3 5.9 1 2.2 4.7 4.9 5.8 5.7.9.6 2.2.4 2.8-.5.2-.4.4-.7.4-1.1 0-.7-.3-1.2-.9-1.7-1.8-1.3-4.1-3.2-4.5-4-.4-.9-.5-1.5-.5-1.9v-.2c.1 0 .3-.1.8-.1 3.2 0 8.7 1 16.8 5.6s28.5 18.2 40 27.5c11.9 9.6 22.5 18.7 27.6 23.9 3.5 3.5 8.7 8.6 8.7 10.3v.1c-.1.7-.1.8-2.4 1.5l-1.4.5c-4 1.4-6 3.4-6 5.8 0 .8.2 1.7.5 2.8.2.8.6 2.4.6 3.2l-.1.4c-.6.9-2.1.9-4 .9-1.1 0-2.2 0-3.1.3-.7.2-1.5.6-2.3 1.1-1.2.7-3 1.7-3.7 1.1s-1-1.5-1-3c0-.9.1-2 .4-3.4l.8-3.1c.5-1.9.8-3.2.8-4.3 0-.6-.1-1-.3-1.5-.5-1-1.7-1.5-4.5-2.5-1.3-.4-3.6-1.3-4.1-1.8-.4-.5-.7-1.7-.7-3 0-.4 0-.8.1-1.2.1-1.2.8-4 1-5l.1-.5c0-.9-.6-1.7-1.6-1.9-1.1-.3-2.1.4-2.4 1.5-.1.4-.9 3.8-1.1 5.6 0 .5-.1 1.1-.1 1.6 0 1.9.4 4 1.5 5.5.9 1.1 2.8 1.9 5.9 3 .6.2 1.5.6 2.1.8-.1.7-.4 1.8-.6 2.7l-.8 3.3c-.2.9-.5 2.4-.5 4.2 0 2.1.5 4.5 2.5 6.1 2.7 2.2 6.1.3 8.1-.8.6-.3 1.2-.6 1.5-.8.3-.1 1.1-.1 1.8-.1 2.2.1 5.6.2 7.5-2.6 1.3-1.9.6-4.6 0-6.9-.2-.7-.4-1.6-.4-1.9 0-.2.6-1.1 3.4-2.1zm-88.8-28c-1.1-.2-2.1.6-2.3 1.7s.6 2.1 1.7 2.3c8 1.3 9.5 1.1 10.8.6h.1c1.5-.2 2.1-1.2 2.3-1.7l.2-1c0-1.3-1-2.5-1.7-3.6l-.2-.3c-.3-.5-1-2.7-1-5 0-.8.1-1.6.3-2.4.6-2.6.9-4.9 1-6.8l.3-2.2c.6.1 1.3.3 1.7.5 1.7.5 3.2 1 4.5.8 2.4-.5 2.8-2.8 2.8-5v-1.7l-.1-1.5c0-4-5.7-4.3-8.8-4.4h-.9c-.5-.1-.9-.2-1.2-.4.6-.9 2-2.4 3.4-3.7.4-.4.6-.9.6-1.4s-.2-1-.6-1.4c-.8-.8-2-.8-2.8-.1-4.9 4.7-4.9 6.1-4.9 6.7 0 2.4 2.6 3.9 5 4.2l1.1.1c3.3.1 4.6.5 5 .8 0 .4.1 1.4.1 1.4v2.5c-.6-.1-1.4-.4-2-.6-2.1-.6-3.7-1.1-5.1-.5-1.6.8-1.8 2.7-2.1 5.6-.2 1.8-.4 3.9-1 6.2-.3 1.1-.4 2.2-.4 3.4 0 3 .7 6.1 1.7 7.4l.4.5c-.9 0-2.9-.1-8-.9zm2-27.3c-1-.5-2.2-.2-2.7.8 0 .1-3.4 5.9-4.6 7.7-1 1.5-5.3 9.9-5.3 11.8 0 1.6.8 2.8 10.4 4.3 1.1.2 2.1-.6 2.3-1.7v-.3c0-1-.7-1.8-1.7-2a59.3 59.3 0 0 1-6.6-1.3c.9-2.4 3.3-7.2 4.2-8.6 1.4-2 4.7-7.8 4.8-8.1l.3-1c0-.7-.4-1.4-1-1.7zm98.3 80.7c2.6.3 7.9-.9 9.5-3.2 1.2-1.7 2.2-5 2.3-5.4.3-1-.3-2.1-1.3-2.5-1-.3-2.2.3-2.5 1.3-.4 1.2-1.2 3.4-1.8 4.3-.6.7-4 1.8-5.8 1.5-1.2-.2-3.5-.9-4.5-2.4-.7-.9-.9-2.1-.5-3.6.9-4.4 5.9-4.3 6.4-4.3a1.95 1.95 0 0 0 2.1-1.9c.1-1.1-.8-2-1.9-2.1-3.1-.2-9.3 1.1-10.6 7.4-.6 2.6-.2 4.9 1.2 6.7 1.7 2.5 4.9 3.7 7.3 4z"/><path d="M796.7 2733.2c2-1.1 2.8-3.5 2.8-6.3 0-1.8-.3-3.8-1-5.5-2.8-7.8-3.4-11.3-3.4-12.9 0-.7.1-1 .2-1.1 1.3-1.3 4-1.2 9 .2 5.2 1.4 11.5 3.6 11.5 3.6 1 .4 2.2-.2 2.6-1.2.3-1.1-.2-2.2-1.2-2.5-.3-.1-6.5-2.2-11.8-3.7-5-1.4-10-2.2-13 1-2.1 2.2-1.5 7.3 2.4 18 1.4 3.8.6 6.7.1 7-.7.3-3-.5-4.8-2.5l-.1-.1c-5.6-5.8-8.7-7.6-11.1-6.6-2.8 1.1-4.9 8.6-5.9 13-1.7 7.2-2.9 9.1-3.5 9.6-.7-1.4-1.1-5.4-1.1-9.6 0-.8 0-1.7.1-2.4v-.4c0-2.2-.2-12.7-3.7-14-3.6-1.3-9.3 4.6-9.4 4.6-1.2 1.3-7.3 8.1-12.1 16.9-4.4 8.2-8.1 18.6-8.3 19-.4 1 .2 2.2 1.2 2.6 1 .3 2.2-.2 2.6-1.2 0-.1 3.8-10.5 8.1-18.5 4.6-8.6 10.8-15.4 11.4-16.1 1.4-1.5 3.7-3 4.8-3.4.6 1.6 1.3 6.4 1.3 9.5v.8c0 .5-.1 1.6-.1 2.8 0 4 .4 10.5 2.5 12.7.7.7 1.5 1 2.4.9 4.3-.2 6.1-6.4 7.6-12.8 1.2-5.2 2.8-9 3.6-10.1.6.2 2.4 1.1 6.7 5.6l-.1-.1c2.5 2.9 6.7 5 9.7 3.4zm-98.6 4.6c-3.9-4.1-9.2-5.6-9.4-5.7-1.1-.3-2.2.3-2.5 1.4s.3 2.2 1.4 2.4c.1 0 4.5 1.3 7.6 4.6 1.7 1.8 3.3 5.3 3.8 7.6.4 1.9.7 5.8.7 5.8.1 1.1 1 1.9 2.1 1.9 1.1-.1 2-1 1.9-2.1 0-.2-.3-4.3-.8-6.4-.6-2.7-2.5-7-4.8-9.4zm39.6-27.5c-.3-1.1-1-1.7-2.1-1.5l-10.6 2.6-5.9 2c2.1-3.8 4.9-8.8 6.1-11.4 2.2-4.6 2.7-9.2 2.7-9.4v-.2a2.05 2.05 0 0 0-1.8-2c-1.1-.1-2.1.7-2.2 1.8 0 0-.4 4.1-2.3 8.1-2 4.3-8.7 15.8-8.7 15.9-.4.7-.3 1.7.2 2.3.6.6 1.5.9 2.3.5.1-.1 8-3.2 10.6-3.9l10.5-2.6c1.1-.3 1.5-1.3 1.2-2.4zm-96.6-6.2c-1.1.1-1.9 1.1-1.8 2.2s1.1 1.9 2.2 1.8c.1 0 7-.7 13.8.8 7.3 1.6 17.2 5.1 22 7.1l.8.3c18.4 7.6 22.5 7.9 24.3 5.9 3.2-3.7-1.5-8-3.1-9.5-.8-.8-2.1-.7-2.8.1-.3.4-.5.9-.5 1.4s.3 1.1.7 1.5c2.4 2.2 2.9 3.2 2.9 3.7-1.5 0-6-1-19.8-6.6l-.8-.3c-4.9-2-15.2-5.6-22.6-7.3s-14.7-1-15-.9zm64.1-206.9l19.8-14 19.4 14-7.1-22.7 19.8-14-24.2-.1-7.2-22.6-7.9 22.6h-24.2l19.4 14.1zm99 2.5l10.6 21.8 4-23.9 23.4-3.4-21-11.5 3.9-23.9-17 16.9-21-11.4 10.5 21.8-16.9 16.9z"/></g></g><defs /></svg>