<svg xmlns="http://www.w3.org/2000/svg" width="683.7" height="189" viewBox="0 0 1943392.8 537152.1"  shape-rendering="geometricPrecision" image-rendering="optimizeQuality" fill-rule="evenodd" xmlns:v="https://vecta.io/nano"><path d="M-8685048 659456.3H8503820v17188868H-8685048z" fill="#e6e6e6"/><g fill-rule="nonzero"><path d="M1943392.8 537152h-35901l-1611.5-3349.7h-12932.5l-1484.7 3349.7h-35334V318346.4h-99083V537152h-36117l-1340.7-3189.6h-13228l-1486.8 3189.6h-35194.2V0h35172.7l1286 3191.8h13510.5L1720960.2 0h36086v218804.6h99083V0h35284.4l1338.6 3215.4h13102.2L1907471.2 0h35921.5v537152zm-1661868 0H243878l-3992-3200.4H228626l-1015.2 3200.4h-39722.4l-74311.8-218805.7H87675V537152H51991l-2097-3187.5H37948.8l-2058.4 3187.5H0V0h209884.7l55709 56480.5V253697l-59615.3 63249.7 75546.2 220205.5zM87675 218804.6h90655.2V98841.3H87675v119963.3zM578052 537152H352442.7V0H578052v99191.7H439809.5v119613h119536.8v99541.8H439809.5v119614H578052v99191.6zm253349 0l-95383.2-281353.8V537152h-35978.5l-2761-3229.4h-10569l-2583.7 3229.4h-35165.2V0h93636.4l95794.6 281704V0h34244.5l2549.3 3142.3h10859L888593.5 0h36546.8l308.3 537152h-94047.8zm427888-56014.2l-55708 56014.2h-150886L996369 481138v-86589h35244.7l1959.5 3231.5h12084.8l2025-3231.5h36052.6v43411.6h88187.5v-119614h-119228.4L996369 261983V56480.5L1052694.8 0h150886l55708 56130.2v83438h-35994.6l-2244.2-3212.2h-12003.2l-1899.4 3212.2H1171923V99191.5h-88187.5v119613h119845l55708 56481.5v205851.7zm339482.3 0l-57147.6 56014.2h-155717.2l-55709-56014.2V56480.5L1385906.3 0h155717.2l57147.6 56830.7v82737.5H1563461l-1298.8-3182h-13683.4l-1114 3182h-35857V99191.5H1417564v338769h93943.6V394549h35863.5l1966 3221.8h12158l1988.5-3221.8h35287.7v86589z" fill="#bae8d9"/><path d="M1891384.7 275928.6H1720956L1704841.4 537152V0h16114.6v259814h170428.7V0h16114.6l-16114.6 537152zM35876.4 537152v-495596h193928v235077h-74129L243888.6 537152H227572L138680 276633.3H51991L35876.5 537152zM51991 57670.8v202848h161699v-202848H51991zm507355.2 218425.4H404005v203463.6h174047v16114.6H387890.5v-454118H578052V57671H404005v202310.8h155341.2v16114.6zm124696.6 261056l-399.6-495596h30841l158463 435824.8L872521-.1h16052.3L862502 495674.2 699708.4 57670.7 684042.8 537152zm363657.4-142603v85010.8h159465.4V276633.4h-175580v-235077h191694.6v98012h-16114.6V57671h-159465.4v202848l175580-1v235156.6h-191694.6V394549h16114.6zM1547343 139568.3V57671h-165410.6v421889H1547343V394549h16114.6v101125.3h-197639.8v-454118h197639.8v98012H1547343z" fill="#121c4d"/></g><defs /></svg>