<svg xmlns="http://www.w3.org/2000/svg" width="700.418" height="257.62" viewBox="0 0 16103.5 5923.1"  shape-rendering="geometricPrecision" image-rendering="optimizeQuality" fill-rule="evenodd" xmlns:v="https://vecta.io/nano"><path d="M-162177.906-62403H-23143.5V76631.406h-139034.406z" fill="#e6e6e6"/><g fill-rule="nonzero"><path d="M2111.7 2380.6H1410v3542.5h-292.4l-14.8-25.9h-102l-13 25.9H701.6V2380.6H-.1v-336.3l25.3-14.4v-100.1l-25.3-15.1v-336.4h2111.7v336.2l-25.5 12.5v100.7l25.5 16v336.8zm13991.8 3542.5h-1824.9V1578.3h1824.9v336.8l-26.2 12.6v103.1l26.2 13.1v336.7h-1118.2v967.5h966.9v333.3l-26.2 14.7v102.3l26.2 12.6v342.3h-966.9v967.5h1118.2v336.7l-25.9 11.7v104.7l25.9 13.8v335.5zM15559.9 0l-1085.4 727 98.1 169.9 28.3-2.7 50.5 87.4-13.9 27.7 97.7 169.3 1172.3-576.5-141.3-244.6-30.3-.5-49.3-85.3 14.5-27L15559.9.2zM13705 5923.1h-304.5l-32.3-25.9h-91.1l-8.2 25.9h-321.3l-601.1-1769.8H12137v1769.8h-288.6l-17-25.8h-96.6l-16.6 25.8h-290.3V1578.3h1697.7l450.6 456.8v1595.2l-482.2 511.6 611.1 1781.2zm-1568-2575h733.3v-970.3H12137v970.3zM10854.3 5470l-455.6 453.1H9083.5L8632.9 5470V2035.1l450.6-456.8h1315.2l455.6 456.8V5470zm-709.2-349.2V2380.6h-805.6v2740.2h805.6zm-2806.7 802.3L7168 4955.6h-740.8l-170.4 967.5h-311.5l-13.1-26-103.3-.5-15.7 26.5h-277.3l764.9-4344.8h993.5l764.9 4344.8h-293.5l-22.3-26-96.6-.1-12.9 26.2h-295.5zm-311.8-1769.8L6798 2853.5l-229.5 1299.8h458.1zM4962.3 5923.1h-304.5l-32.3-25.9h-91.1l-8.2 25.9h-321.3l-601.1-1769.8h-209.5v1769.8h-288.6l-17-25.8h-96.6l-16.6 25.8h-290.3V1578.3h1697.7l450.6 456.8v1595.2l-482.2 511.6 611.1 1781.2zm-1568-2575h733.3v-970.3h-733.3v970.3z" fill="#bae8d9"/><path d="M0 1914.4h2111.7v130.3h-994.3l.2 3878.3H987.8l-.2-3878.3H0v-130.3zM15766.1 357.3L14637.3 1009l-64.7-112.5 1128.8-651.7 64.7 112.5zm186.1 3454.2h-1256.5v1645.7h1407.8v130.3h-1538.1V1914.3h1538.1v130.3h-1407.8V3681h1256.5v130.3zM11718 5923.1V1914.4h1568.6v1901.5H12687l713.5 2107.2h-132l-719-2107.2h-701.2v2107.2H11718zm130.3-3878.3v1640.8h1307.9V2044.8h-1307.9zm-1286.1-130.3v3673.2H8915.8V1914.5h1646.4zm-130.3 130.3H9046.2v3412.5h1385.7V2044.8zM5813.1 5923.1l703.7-4008.7h560.8l688.2 4008.7h-132.1l-224.5-1307.6H6174.8l-229.5 1307.6h-132.2zm1573.8-1437.9l-419-2440.4h-341.7l-428.4 2440.4h1189.1zM2975.4 5923.1V1914.4H4544v1901.5h-599.6l713.5 2107.2h-132l-719-2107.2h-701.2v2107.2h-130.3zm130.3-3878.3v1640.8h1307.9V2044.8H3105.7z" fill="#121c4d"/></g><defs /></svg>