<svg xmlns="http://www.w3.org/2000/svg" width="886.273" height="188.976" viewBox="0 0 25941.6 5531.4"  shape-rendering="geometricPrecision" image-rendering="optimizeQuality" fill-rule="evenodd" xmlns:v="https://vecta.io/nano"><path d="M28742.4-99680.297h177005.203V77324.906H28742.4z" fill="#e6e6e6"/><g fill-rule="nonzero"><path d="M25941.6 5531.4h-2588.9v-461.5l1444.8-4052.1h-1320.9V593.2l33.7-28v-112l-33.7-26.3V-.1h2456.6v556.4l-1407.7 3953.6h1416.2v429l-32.7 19.6V5081l32.7 22.7v427.7zm-22573.7 0h-375.2l-15-32.8h-133.3l-16.6 32.8H2465v-3116l-784.3 1901.1-781.1-1901.1v3116H529l-24.5-33H387.3l-24.2 33H0V0h899.7l781.1 1901.1L2465.1 0h902.8v5531.4zm3024.9 0l-217-1231.7h-943.1l-217 1231.7h-396.5l-16.7-33.1-131.5-.6-20 33.7h-352.9L5071.9 0h1264.8l973.7 5531.4h-373.7l-28.4-33.2-123-.2-16.4 33.3h-376.2zm-396.9-2253.2l-291.1-1654.7-292.1 1654.7h583.2zm4943.9 2253.2h-387.7l-41.1-33h-115.9l-10.5 33h-409l-765.2-2253.2h-266.7v2253.2h-367.5l-21.6-32.8h-123l-21.2 32.8h-369.6V0h2161.3l573.7 581.6v2030.9l-613.9 651.3 777.9 2267.6zM8943.6 2253.2h933.5V1017.9h-933.5v1235.3zm5414.9-1231.7h-893.3v4510h-372.3l-18.9-33h-129.8l-16.5 33h-364.3v-4510h-893.3V593.4l32.2-18.3V447.6l-32.2-19.2V.1h2688.4v428.1l-32.5 16v128.2l32.5 20.4v428.8zm1633 4510h-371.4l-16.7-33H15472l-17.8 33h-365.6V.1h365.2l16 32.9h134.5l15.4-32.9h371.7v5531.4zm2608.9 0l-982.2-2897.3v2897.3h-370.5l-28.4-33.3h-108.8l-26.6 33.3h-362.1V.1h964.2l986.5 2900.9V.1h352.6l26.3 32.4h111.8l26.3-32.4h376.3v5524.2l3.2 7.2h-968.5zm4022 0h-2323.2V.1h2323.2v428.8l-33.3 16v131.3l33.3 16.7v428.6h-1423.6v1231.7h1230.9v424.3l-33.3 18.7v130.3l33.3 16.1v435.8h-1230.9v1231.7h1423.6v428.6l-33 14.8v133.3l33 17.6v427.2z" fill="#bae8d9"/><path d="M23476.5 427.9h2121l-1678.4 4510.4h2022.5v165.9H23681l1678.4-4510.4h-1882.9V427.9zM2827.2 5531.4V593.9h-15.7L1673.8 3357.1 547.3 593.9h-18.4v4937.5H363V427.9h295.7l1016.1 2492.4L2701 427.9h292.2v5103.5h-165.9zm1623.7 0l895.9-5103.5h714L6937 5531.4h-168.1l-285.8-1664.7H4911.6l-292.2 1664.7H4451zm2003.6-1830.7L5921.1 593.8H5486l-545.4 3106.9h1513.8zm1955.7 1830.7V427.9h1997v2420.7h-763.4l908.4 2682.7h-168l-915.4-2682.7h-892.7v2682.7h-165.9zm165.9-4937.5v2088.9h1665.1V593.9H8576.1zm3094-165.9h2688.4v165.9h-1265.8l.3 4937.5h-165.3l-.3-4937.5h-1257.3V428zM15619.8.1v5531.4h-165.9V.1h165.9zM17083 5531.5l-4.1-5103.5h317.6l1631.8 4488L19023.9.1h165.3l4.6 5104.3h-273L17280.8 594h-36.4l4 4937.5h-165.3zm5346.9-2688.3h-1599.7v2095.2h1792.3v165.9h-1958.2V427.9h1958.2v165.9h-1792.3v2083.3h1599.7V2843z" fill="#121c4d"/></g><defs /></svg>