<svg xmlns="http://www.w3.org/2000/svg" width="195.451" height="396.85" viewBox="0 0 1337.2 2715.1"  shape-rendering="geometricPrecision" image-rendering="optimizeQuality" fill-rule="evenodd" xmlns:v="https://vecta.io/nano"><path d="M5170-17045.699h41373V21741.5H5170z" fill="#ebecec"/><g fill-rule="nonzero"><path d="M1337.2 2432l-282.7 283.1H294.6L12.4 2432v-437.7h430v219.4h454.4v-604.6H281.1L0 1326V285.5L281.1 0h770.3l285.8 287.3V2432zM896.8 1106V501.4H442.4V1106h454.4z" fill="#121c4d"/><g fill="#bae8d9"><path d="M1098.8 1371H205.1V233.7h924.5v2244.8H822.3v-30.7h276.6V1371zM514.9 2478.6H205.1v-484.3h30.7v453.5h279.1v30.7zM235.8 1340.3h863V264.5h-863v1075.8zm538 1172.2l-1.6-1.3 1.9.2-.4 1.1zm3.6-.3l3.2.3 1.1-3.7-14-1.5-1.3 3.3 10.4 9.8.5-1.2 1-2.7-2.1-1.7 1.1-2.6zM763 2524h0c.5-.7 1.1-1.3 2-1.3.8 0 1.6.4 2.3.8 1.5.9 2.5 2.1 1.6 3.9l-5.8-3.3zm-4.7 1.5l11.5 7 2.1-3.4c.9-1.5 1.4-3.2 1-5-.5-1.9-1.8-3.2-3.4-4.2-1.2-.8-2.6-1.3-4.1-1.3-2.4 0-4 1.4-5.2 3.4l-1.9 3.5zm-3.3 9.6l.1-.1c.1-.1.5-.6.7-.6s.4.2.6.3c.5.4.4.9 0 1.4l-1.4-.9zm5.2-.7c0-1.2-.5-2.3-1.4-3-.8-.6-1.6-1-2.6-1-1.4 0-2.6.9-3.4 1.9l-2.7 3.8 10.5 8.4.6-.8 1.7-2.5-3.4-3c.1 0 .2 0 .3.1l4.6 1.6 2.1-3.4-5.3-1.9c-.3-.1-.6-.2-1-.2zm-63.3 43.2v-2l1.1 1.6-1 .4zm2.6 2.5l1.9 2.7 3.6-1.5-7.9-11.6-3.4 1.2-.7 14.1 1.2-.3 2.8-1-.1-2.8 2.7-.9zm47-35.6l2.9-3.3-2.6-2.1-5.3 5.7 9.5 9.6 5.7-6.1-2.7-2.1-2.6 3-1.5-1.3 2.8-3-2.6-2.1-2.4 2.7zm-11 9.4l6.4 8 .7-.5 2.3-2.2-6.4-7.6 2.2-2-2.4-2.3-6.9 5.8 2.4 2.4zm-5.5 12.2c-.9.5-2 .6-2.7 1.1l-.5.4 1.5 2.7h.5c1.1 0 2.2-.6 3.1-1.1 1.1-.7 2.1-1.8 2.4-3.1.3-1.2 0-2.3-.7-3.3-1-1.6-2.3-2-4.1-2l-2.1.1c-.3 0-.5 0-.6-.3 0-.1-.1-.2-.1-.3 0-.2.3-.4.5-.5.7-.4 1.5-.6 2.2-1l.7-.4-2-2.6-.4.1c-.9.2-1.6.5-2.4 1-1.1.7-2 1.7-2.3 3-.2 1 0 2 .5 2.9 1 1.5 2.3 2.1 4.1 2.1l2-.1c.3 0 .6 0 .8.3.1.2.2.4.1.6 0 .2-.3.4-.4.5zm-16 5.1l-5.2-5.8-4.3 2.4 5.4 12.2.9-.3 2.7-1.6-2.5-5 4.2 4.6 2.6-1.4-.9-6.3 2.7 5.8 3.3-1.9-5.7-12.2-4.4 2.2zm65.9-75.8l-7.7.2-1 4.9 12.8 3.7.3-.8.6-3.2-5.5-1.3 6.3-.3.6-2.8-5.3-3.4 6.1 1.7.7-3.8-13-3.5-1.2 4.8zm-201.3-174.6l3.9 21.8 9.9-20 22.4 2.8-16.2-15.3 9.9-20-19.9 10.6-16.2-15.2 3.8 21.8-19.9 10.6zM776.9 2468c0-59.5-48.2-108-107.9-108.6v3.6c57.7.7 104.3 47.5 104.3 105 0 5.5-.5 10.9-1.3 16.3l3.6.8c.9-5.6 1.4-11.4 1.4-17.1zM669 2353.2v3.8h.8c29.4 0 57.4 11.6 78.3 32.4 20.8 20.7 32.5 48.6 32.5 78 0 3.2-.1 6.4-.4 9.6-.2 2.9-.6 5.8-1.1 8.6l-.1.4 3.7.8.1-.5c.5-2.9.9-5.8 1.1-8.8.3-3.4.4-6.7.4-10.1 0-30.3-12-59.2-33.6-80.6-21.5-21.4-50.5-33.5-80.9-33.5h-.8zm119 113.3a115.2 115.2 0 0 1-1.8 20.3l-.1.7 3.6.8.1-.9a122.04 122.04 0 0 0 1.8-20.9c0-65.8-53.7-119.3-119.8-119.3h-3v3.6h3c64 0 116.1 51.9 116.1 115.6zm-222.5 1.8h-3.7c.7 59.9 50.1 108.1 110.3 107.5 5.3-.1 10.6-.5 15.8-1.4l-.7-3.6c-5 .8-10.1 1.3-15.1 1.3-58.1.6-105.9-45.9-106.6-103.8zm123.4 112.9l.4-.1-.7-3.7-.4.1-8.7 1.1c-3.2.3-6.5.4-9.7.4-29.5 0-57.3-11.9-78.1-32.7-20.6-20.7-32.5-48.4-32.8-77.5v-.5h-3.8v.5c.4 30.2 12.6 58.8 33.9 80.2 21.4 21.5 50.3 33.8 80.8 33.8 6.4 0 12.9-.5 19.2-1.6zm1.6 5.9l-.7-3.6-1 .2c-6.8 1.2-13.8 1.8-20.7 1.8-64.2 0-116-53.7-116.1-117.2h0-3.6c.1 65.5 53.5 120.9 119.7 120.9 7.1 0 14.3-.6 21.3-1.9l1.1-.2zm61.1-156.1c0-20.4-9.7-33.8-27.6-39.1l-.4 20.3c0 .6.3 1.2.8 1.6 0 0 4.7 3.2 7.2 6.8 2.4 3.5 3 7.7 3 7.7.1 1 1.1 1.7 2.1 1.6.9-.1 1.6-.9 1.6-1.8v-.3c0-.2-.7-5-3.7-9.3-2.2-3.2-5.7-6-7.3-7.2 0-1.3.2-9.9.3-14.2 13.3 5.6 20.3 17 20.3 33.9 0 24.2-14.9 41.1-36.2 41.1-19.3 0-26-16.1-30.3-26.7l-1.5-3.5c-1.5-3.2-3.6-5.4-6.4-6.4-5.3-2-11.3.7-13.5 1.8-.9.4-1.3 1.5-.9 2.4s1.5 1.3 2.4.9c1.8-.9 6.8-3.1 10.7-1.7 1.8.7 3.3 2.1 4.3 4.5l1.4 3.4c4.5 10.8 11.9 29 33.8 29 23.5 0 39.9-18.4 39.9-44.8zm-189.3 10.8l-9.9-6.6 11.8-.3-1.9 6.9zm10.1 7l-5.3-3.8 2.9-10.4 6.5-.4 2.3-8.1-30.7 2.9-2.5 9 24.8 18.2 2.1-7.5zm14.1-28.9c-.2 1.4-1.1 4.1-2 5.3l6.4-.9 1.8-2.7c3.8-5.6 1.8-10.4-3.3-13.9l-22.4-15.3-4.4 6.2 20.5 14c3.8 2.7 3.6 5 3.2 7.2zm11.6-49.9l9.4 7.1-5.8 4.2-3.6-11.3h.1zm7 23l-1.8-6.3 8.8-6.3 5.3 3.7 6.8-4.9-25.8-16.7-7.6 5.5 8 29.6 6.3-4.5zm31.8-33.7l-5.5 16.8 8.5-2 2.8-11.6 7.9 9 8.9-2.2-12.5-12.5 4.9-15.2-8.2 2-2.5 10.4-7-8.1-8.7 2.2zm8.2 61.7c4.2-1.8 11.3-5.6 17.3-9.1 6.7-3.9 12.4-6.7 16.6-8.3 4.7-1.7 9.9-3.3 16.1-2.9 6.5.4 8.6 1.2 11 2.2 2.6 1 6.5 3.4 6.5 3.4.9.5 2 .2 2.5-.6.5-.9.3-2-.6-2.5-.2-.1-4.2-2.6-7-3.7-3-1.2-5.6-2.1-12.2-2.5-6.9-.4-12.7 1.4-17.5 3.2-5.6 2-12.5 5.7-17.3 8.5-5.9 3.4-12.9 7.1-17 8.9-4.6 2-11.7 4.3-13 4.3-1 0-1.9.8-1.9 1.8s.8 1.8 1.8 1.9c2.5 0 10.8-3 14.6-4.6zm-2.3 52.6l-5.9 1.1c-.8.1-1.8 1.1-1.6 2.1s1.2 1.6 2.2 1.5l6.1-1.1c2.6-.5 4.7-2.1 6-4.5.5-.8 2.4-3.5 3.5-5 .3-.3.4-.7.4-1.1v-.1l-.7-9.2 6.6 4.8-1.3 3.4c-.2.7-.6 1.7-.6 2.8 0 1.2.7 2.9 2.1 3.9l1.9 1.3c.5.2.6.9.6 1.3v4.3c.1 1.2.4 2.9.6 4.3l.3 2.5c-.2.4-.8 1.2-1.4 1.9-1.5 2.1-3.6 4.9-4.9 7.6l-1.4 3.2c-.8 1.8-1.7 3.9-2.2 4.3-.7.4-4.1 1-6.1 1.4l-3.6.7c-2 .4-4.5 1.5-6.6 2.3-.9.4-2 .8-2.4.9-.5 0-2.1-.5-3.2-.9l-4.6-1.3c-1.3-.2-1.5-.3-1.5-1v-1c0-2-1.7-4-5.1-6.3-1.5-1-4.1-3.4-4.2-5.4v-.2c0-1.7 1.7-3.6 3-5.1l1.2-1.3a4.1 4.1 0 0 0 .9-2.6l-.1-.4 3.6.2c1 .1 1.9-.7 2-1.7s-.7-1.9-1.8-2l-6.6-.4c-.8 0-1.5.4-1.8 1.1l-.2.8c0 .5.2.9.5 1.3.1.1.6.6.6 1.1l-.2.4-1 1.2c-1.7 1.9-4 4.4-4 7.5v.5c.4 4.4 5.3 7.8 5.9 8.2 3.3 2.2 3.4 3.2 3.4 3.2v.8c0 2.2.8 4.1 4.6 4.8 1.2.2 2.7.7 4.1 1.2 2.6.8 4 1.2 5.1 1 .6-.1 1.5-.5 3.1-1.1 1.9-.8 4.3-1.8 6-2.1l3.4-.7c3.8-.7 6.2-1.2 7.3-1.9 1.5-.9 2.4-2.9 3.7-6l1.4-3.1c1.1-2.3 3.1-5 4.5-6.9 1.5-2 1.9-2.6 2-3.4v-.5c0-.6-.2-1.6-.5-3.3-.2-1.3-.4-2.9-.5-3.9v-2.4c0-.6.1-1.2.1-1.7 0-1.7-.2-3-1.3-3.7 0 0-.9-.6-1.9-1.2-1-.7-1.6-1.6-.9-3.3a89.64 89.64 0 0 1 1.7-4.3l.2-.7c0-.6-.3-1.1-.8-1.5l-9.5-6.9-4.8-3.6 1.2 16.5c-.9 1.2-2.8 3.8-3.4 4.8-.8 1.5-1.9 2.3-3.5 2.6zm58.8 24.8l1.2-.4c2.1-.7 4.5-1.4 4.8-4.5.4-3.1-2.8-6.4-9.1-12.7-4.9-4.8-14.8-13.4-25.9-22.4-10.8-8.7-30-21.5-37.7-25.9-8.2-4.7-14-5.7-17.4-5.7-2.2 0-3.3 1-3.9 1.8-1.1 1.7-.4 3.9.3 5.5 1 2.1 4.4 4.5 5.4 5.3.9.6 2 .3 2.6-.5a1.93 1.93 0 0 0 .3-1c0-.6-.3-1.2-.8-1.5-1.7-1.2-3.8-3-4.2-3.7-.4-.9-.5-1.4-.5-1.8v-.1c.1 0 .3-.1.7-.1 2.9 0 8 .9 15.6 5.2 7.5 4.3 26.5 16.9 37.2 25.5 11 8.9 20.9 17.4 25.7 22.2 3.3 3.2 8.1 8 8.1 9.6v.1c-.1.6-.1.7-2.2 1.4l-1.3.4c-3.7 1.3-5.6 3.1-5.6 5.4 0 .7.2 1.6.5 2.6.2.7.6 2.2.6 3l-.1.4c-.6.8-1.9.8-3.8.8-1 0-2 0-2.9.2-.7.2-1.4.6-2.1 1-1.1.6-2.8 1.5-3.4 1.1-.6-.5-1-1.4-1-2.8 0-.9.1-1.9.4-3.1l.7-2.8c.4-1.7.8-3 .8-4 0-.5-.1-.9-.3-1.4-.5-1-1.6-1.4-4.2-2.4-1.2-.4-3.4-1.2-3.8-1.7s-.6-1.5-.6-2.8c0-.4 0-.8.1-1.2.1-1.1.7-3.7.9-4.6l.1-.4c0-.8-.6-1.6-1.5-1.8-1-.2-2 .4-2.2 1.4-.1.4-.8 3.6-1 5.2 0 .5-.1 1-.1 1.5 0 1.8.3 3.7 1.4 5.1.8 1 2.6 1.8 5.4 2.8a39.49 39.49 0 0 1 1.9.7c-.1.7-.4 1.7-.6 2.5l-.7 3c-.2.8-.5 2.2-.5 3.9 0 2 .5 4.2 2.3 5.7 2.6 2.1 5.7.3 7.6-.7.6-.3 1.1-.6 1.4-.7s1.1-.1 1.7 0c2.1 0 5.2.1 7-2.4 1.2-1.8.6-4.2 0-6.4-.1-.6-.4-1.4-.4-1.7 0-.2.6-1 3.1-1.9zm-82.6-26c-1-.2-2 .5-2.1 1.5s.5 1.9 1.5 2.1c7.4 1.2 8.8 1 10 .6h.1c1.4-.2 1.9-1.1 2.1-1.6l.2-.9c0-1.2-.9-2.4-1.6-3.3l-.2-.2c-.3-.4-.9-2.5-.9-4.7 0-.8.1-1.5.3-2.2.6-2.4.8-4.6 1-6.3l.3-2.1c.5.1 1.2.3 1.6.4 1.5.5 3 .9 4.1.7 2.2-.4 2.6-2.6 2.6-4.7v-1.6l-.1-1.4c0-3.7-5.3-4-8.2-4.1h-.8c-.4-.1-.8-.2-1.1-.3.6-.8 1.9-2.2 3.2-3.5.4-.4.6-.9.6-1.3 0-.5-.2-.9-.5-1.3-.7-.7-1.9-.8-2.6-.1-4.5 4.4-4.5 5.7-4.5 6.2 0 2.2 2.4 3.7 4.7 3.9l1 .1c3.1.1 4.3.4 4.7.7 0 .4.1 1.3.1 1.3v2.4c-.5-.1-1.3-.3-1.8-.5-1.9-.6-3.5-1.1-4.7-.4-1.5.7-1.7 2.5-2 5.2-.1 1.6-.4 3.7-.9 5.8-.3 1-.3 2-.3 3.1 0 2.8.7 5.6 1.6 6.9l.3.5c-.8 0-2.7-.1-7.5-.9z"/><path d="M620.8 2447.1c-.9-.5-2-.2-2.5.7l-4.3 7.2c-1 1.4-5 9.2-5 11 0 1.5.7 2.6 9.6 4 1 .2 2-.5 2.1-1.5v-.3c0-.9-.7-1.7-1.6-1.9-2.2-.3-4.7-.8-6.1-1.2.9-2.2 3-6.7 3.9-8 1.3-1.8 4.4-7.3 4.5-7.5l.3-.9c0-.6-.4-1.3-1-1.6zm91.4 74.9c2.4.3 7.4-.8 8.9-3 1.1-1.5 2.1-4.6 2.2-5 .3-1-.2-2-1.2-2.3s-2 .2-2.3 1.2l-1.6 4c-.5.6-3.7 1.6-5.4 1.4-1.1-.2-3.2-.8-4.2-2.2-.6-.9-.8-1.9-.5-3.4.9-4.1 5.5-4 6-4 1.1.1 1.9-.7 2-1.7s-.7-1.9-1.7-2c-2.9-.2-8.6 1.1-9.8 6.9-.5 2.4-.1 4.5 1.1 6.2 1.6 2.3 4.5 3.4 6.7 3.7zm20.4 17.8c1.8-1 2.6-3.3 2.6-5.8 0-1.7-.3-3.5-.9-5.1-2.6-7.3-3.1-10.5-3.1-11.9 0-.7.1-.9.2-1 1.2-1.2 3.7-1.2 8.4.1 4.8 1.3 10.6 3.3 10.7 3.4 1 .3 2-.2 2.4-1.1.3-1-.2-2-1.1-2.4-.3-.1-6-2.1-10.9-3.4-4.6-1.3-9.3-2-12.1.9-2 2.1-1.4 6.8 2.2 16.7 1.3 3.6.5 6.2.1 6.5-.7.3-2.8-.5-4.4-2.3h-.1c-5.2-5.4-8.1-7.1-10.3-6.2-2.6 1-4.6 8-5.5 12-1.5 6.7-2.7 8.4-3.3 8.9-.6-1.3-1.1-5-1.1-8.9 0-.8 0-1.6.1-2.3v-.4c0-2.1-.2-11.8-3.4-13-3.4-1.2-8.7 4.2-8.7 4.3-1.1 1.2-6.8 7.5-11.2 15.7-4.1 7.7-7.6 17.3-7.7 17.7-.4 1 .1 2 1.1 2.4 1 .3 2-.2 2.4-1.1 0-.1 3.5-9.8 7.5-17.2 4.3-8 10-14.3 10.6-15 1.3-1.4 3.4-2.8 4.5-3.2.6 1.5 1.2 5.9 1.2 8.8v.8c0 .5-.1 1.4-.1 2.6 0 3.7.3 9.7 2.3 11.8.6.6 1.4.9 2.2.9 4-.2 5.7-6 7-11.9 1.1-4.9 2.6-8.4 3.3-9.3.6.2 2.2 1 6.3 5.2l-.1-.1c2.3 2.7 6.2 4.6 9 3.1zm-91.6 4.3c-3.6-3.9-8.6-5.2-8.8-5.3-1-.3-2 .3-2.3 1.3s.3 2 1.3 2.2c.1 0 4.2 1.2 7.1 4.2 1.6 1.7 3.1 5 3.5 7 .4 1.8.6 5.4.6 5.4.1 1 1 1.8 2 1.7 1.1 0 1.8-.9 1.8-2 0-.1-.3-4-.7-6-.6-2.6-2.3-6.5-4.4-8.8zm36.8-25.5c-.3-1-1-1.6-2-1.4l-9.9 2.4c-1.2.3-3.4 1.1-5.5 1.9 2-3.5 4.6-8.2 5.7-10.6 2-4.3 2.5-8.6 2.5-8.7v-.2c0-.9-.7-1.7-1.7-1.8s-1.9.6-2 1.7c0 0-.4 3.8-2.2 7.6-1.9 4-8.1 14.7-8.1 14.8-.4.7-.3 1.5.2 2.1a1.86 1.86 0 0 0 2.1.5c.1 0 7.4-3 9.9-3.6l9.8-2.4c1-.3 1.4-1.2 1.1-2.2zm-89.9-5.8c-1 .1-1.8 1-1.7 2s1 1.8 2 1.7c.1 0 6.5-.6 12.8.8 6.7 1.5 16 4.7 20.5 6.6l.7.3c17.1 7 20.9 7.3 22.6 5.4 2.9-3.4-1.4-7.5-2.9-8.8-.8-.7-1.9-.7-2.6.1-.3.4-.5.8-.5 1.3s.2 1 .6 1.4c2.2 2 2.7 3 2.7 3.4-1.4 0-5.5-.9-18.4-6.2l-.8-.3c-4.5-1.9-14.1-5.2-21-6.8s-13.7-.9-14-.9zm59.6-192.3l18.4-13 18.1 13-6.6-21.1 18.3-13-22.5-.1-6.7-21-7.3 21h-22.4l17.9 13.1zm92 2.3l9.9 20.3 3.6-22.2 21.8-3.2-19.5-10.6 3.6-22.2-15.7 15.6-19.6-10.6 9.8 20.3-15.7 15.7z"/></g></g><defs /></svg>