<svg xmlns="http://www.w3.org/2000/svg" width="96.62" height="247.113" viewBox="0 0 317.2 811.4"  shape-rendering="geometricPrecision" image-rendering="optimizeQuality" fill-rule="evenodd" xmlns:v="https://vecta.io/nano"><path d="M2854.3-13278.5h19855.801V5336.301H2854.3z" fill="#ebecec"/><g fill-rule="nonzero"><path d="M317.2 746.7l-65.1 64.7H64.3L-.1 746.7V256.2L64.3 191h187.8l65.1 65.2v490.5zm-101.3-49.9V305.5H100.8v391.3h115.1z" fill="#bae8d9"/><path d="M275.5 238.9v524.6H40.4V238.9h235.1zm-18.6 18.6H59v487.3h197.9V257.5z" fill="#121c4d"/></g><path d="M167.9 0h99.3v99.3h-99.3V0zM50 0h99.3v99.3H50V0z" fill="#bae8d9"/><path d="M208.3 40.3h18.6v18.6h-18.6V40.3zm-117.9 0H109v18.6H90.4V40.3z" fill="#121c4d"/><defs /></svg>