<svg xmlns="http://www.w3.org/2000/svg" width="547.35" height="188.98" viewBox="0 0 256793.1 88659.5"  shape-rendering="geometricPrecision" image-rendering="optimizeQuality" fill-rule="evenodd" xmlns:v="https://vecta.io/nano"><path d="M-1490988.37 117732h2837102.5v2837102.5h-2837102.5z" fill="#e6e6e6"/><g fill-rule="nonzero"><path d="M256793.1 79414l-9194.9 9245.4h-24904.4L213397 79414V65122.1h5817.3l323.4 533.4h1994.7l334.2-533.4h5950.6v7165.3H242373V52544.5h-19679.2l-9296.8-9303V9322.3L222693.8-.1h24904.4l9194.9 9264.6v13771.8H250852l-370.4-530.2h-1981.2l-313.5 530.2H242373v-6664.4h-14555.8v19742.7h19781l9194.9 9322.5v33976.8zM30112.7 88659.4L14369.3 42220.6v46438.8H8430.9l-455.7-533H6230.7l-426.5 533H0V-.1h15455.1l15811.3 46496.6V-.1h5652.2l420.8 518.7h1792.3L39552.5-.1h6032.2l50.9 88659.4h-15523zm64466.6 0H57341.4V-.1h37237.9v6873.2l-534.4 256.2v2104.8l534.4 267.4v6870.4H71761.7v19742.7h19730.1V42915l-533.7 299.5v2087.8l533.7 257.3v6984.9H71761.7v19742.9h22817.6v6869.7l-529.1 237.8v2136l529.1 281.8v6846.8zm58170.7 0h-6213.8l-658.9-528.2h-1858.5l-167.6 528.2h-6556.4l-12265.5-36114.9h-4275.2v36114.9h-5889.8l-346.1-526.1h-1971.6l-339.7 526.1H106283V-.1h34642.4l9195 9322.4v32551.5l-9839.8 10439.7 12469.2 36345.9zm-31995.8-52544.7h14963.1V16314.2h-14963.1v19800.5zm80939 52544.7h-37237.9V-.1h37237.9v6873.2l-534.4 256.2v2104.8l534.4 267.4v6870.4h-22817.6v19742.7h19730.1V42915l-533.7 299.5v2087.8l533.7 257.3v6984.9h-19730.1v19742.9h22817.6v6869.7l-529.1 237.8v2136l529.1 281.8v6846.8z" fill="#bae8d9"/><path d="M221869.4 65122.1v14031.4h26320.5V45659.6h-28980.3V6859h31640.1v16177.3h-2659.8V9518.7h-26320.5v33481l28980.3-.2v38813.7h-31640.1V65122h2659.8zM5790.5 88659.4l-66-81800.4H10815l26155.1 71934.9-70.4-78794h2649.5l73.2 81813.3H35246L8959.9 9518.7h-583.7l63.8 79140.6H5790.5zm85701.2-43088.5H65851.9v33582.6h28727.3v2659.8h-31387V6859h31387v2659.8H65851.9v33392.3h25639.8v2659.8zm20712.8 43088.5V6859h32008.7v38800.6h-12235.4l14560 42999.8h-2693.1l-14672.1-42999.8h-14308.4v42999.8h-2659.8zm2659.8-79140.6v33481h26689.2v-33481h-26689.2zm83741.3 36052.1h-25639.8v33582.6h28727.3v2659.8h-31387V6859h31387v2659.8h-28727.3v33392.3h25639.8v2659.8z" fill="#121c4d"/></g><defs /></svg>