<svg xmlns="http://www.w3.org/2000/svg" width="199.015" height="396.85" viewBox="0 0 766.1 1527.7"  shape-rendering="geometricPrecision" image-rendering="optimizeQuality" fill-rule="evenodd" xmlns:v="https://vecta.io/nano"><path d="M14688-9591.4h23279.9v21824.9H14688z" fill="#ebecec"/><g fill-rule="nonzero"><path d="M766.1 169.3L418.2 1527.7h-260L492.7 282.1H248.1V397H0V0h692.6z" fill="#bae8d9"/><g fill="#121c4d"><path d="M386.6 1413.7l-.9-.7 1.1.1-.2.6zm2-.2l1.8.2.6-2.1-7.9-.8-.7 1.9 5.9 5.5.3-.7.6-1.5-1.2-1 .6-1.5zm-8.1 6.7h0c.3-.4.6-.7 1.1-.7.4 0 .9.2 1.3.4.8.5 1.4 1.2.9 2.2l-3.3-1.9zm-2.7.9l6.4 3.9 1.2-1.9c.5-.8.8-1.8.6-2.8-.3-1.1-1-1.8-1.9-2.4-.7-.4-1.5-.7-2.3-.7-1.3 0-2.3.8-2.9 1.9l-1.1 2zm-1.8 5.3v-.1c.1-.1.3-.4.4-.4s.2.1.3.2c.3.3.2.5 0 .8l-.8-.5zm2.9-.4c0-.6-.3-1.3-.8-1.7-.4-.3-.9-.5-1.4-.5-.8 0-1.5.5-1.9 1.1l-1.5 2.1 5.9 4.7.3-.4.9-1.4-1.9-1.7c.1 0 .1 0 .2.1l2.6.9 1.2-1.9-3-1.1c-.2-.1-.4-.1-.5-.1zm-35.6 24.4v-1.1l.6.9-.6.2zm1.4 1.4l1 1.5 2-.8-4.5-6.5-1.9.7-.4 8 .7-.2 1.6-.5-.1-1.6 1.5-.5zm26.5-20.1l1.7-1.8-1.5-1.2-3 3.2 5.3 5.4 3.2-3.4-1.5-1.2-1.4 1.7-.9-.7 1.6-1.7-1.5-1.2-1.3 1.5zm-6.2 5.3l3.6 4.5.4-.2 1.3-1.3-3.6-4.2 1.2-1.2-1.3-1.3-3.9 3.3 1.4 1.3zm-3.1 6.9c-.5.3-1.1.3-1.5.6l-.3.2.8 1.5h.3c.6 0 1.2-.3 1.7-.6.6-.4 1.2-1 1.4-1.7s0-1.3-.4-1.9c-.6-.9-1.3-1.1-2.3-1.1-.4 0-.8 0-1.2.1-.2 0-.3 0-.4-.2 0 0-.1-.1 0-.2 0-.1.2-.2.3-.3l1.6-.8-1.1-1.5-.3.1c-.5.1-.9.3-1.4.6-.6.4-1.1 1-1.3 1.7-.1.6 0 1.1.3 1.7.5.8 1.3 1.2 2.3 1.2l1.1-.1c.2 0 .3 0 .4.2.1.1.1.2.1.4 0 .1-.2.2-.2.3zm-9 2.8l-2.9-3.2-2.5 1.3 3.1 6.9.5-.2 1.5-.8-1.4-2.9 2.4 2.6 1.5-.8-.5-3.5 1.5 3.2 1.8-1-3.2-6.9-2.4 1.3zm37.1-42.6l-4.3.1-.6 2.8 7.2 2.1.2-.5.3-1.8-3.1-.7 3.6-.2.3-1.6-3-1.9 3.4 1 .4-2.1-7.3-2-.6 2.7zm-113.3-98.2l2.2 12.2 5.6-11.2 12.6 1.5-9.1-8.5 5.6-11.3-11.2 6-9.2-8.6 2.2 12.3-11.2 6zm111.6 82.8c0-33.5-27.1-60.7-60.7-61.1v2c32.4.4 58.7 26.7 58.7 59.1 0 3.1-.3 6.1-.7 9.2l2 .4c.5-3.2.8-6.4.8-9.6zm-60.7-64.6v2.1h.4c16.6 0 32.3 6.5 44 18.2s18.3 27.4 18.3 43.9c0 1.8-.1 3.6-.2 5.4-.1 1.6-.3 3.3-.6 4.9v.2l2.1.5v-.3c.3-1.6.5-3.3.6-4.9.2-1.9.2-3.8.2-5.7 0-17.1-6.8-33.3-18.9-45.4s-28.4-18.8-45.5-18.8h-.5zm67 63.8c0 3.8-.3 7.7-1 11.4l-.1.4 2 .4.1-.5c.7-3.9 1-7.8 1-11.8 0-37-30.2-67.1-67.4-67.1h-1.7v2h1.7c36 0 65.3 29.2 65.3 65.1zm-125.2 1h-2.1c.4 33.7 28.2 60.8 62.1 60.5 3 0 6-.3 8.9-.8l-.4-2c-2.8.4-5.7.7-8.5.7-32.7.4-59.6-25.9-60-58.4zm69.4 63.5h.2l-.4-2.1h-.2c-1.6.3-3.3.5-4.9.6-1.8.2-3.6.2-5.5.2-16.6 0-32.3-6.7-43.9-18.4-11.6-11.6-18.3-27.2-18.5-43.6v-.3h-2.1v.3c.2 17 7.1 33.1 19.1 45.1 12.1 12.1 28.3 19 45.4 19 3.6 0 7.2-.3 10.8-.9zm.9 3.3l-.4-2-.6.1c-3.8.7-7.7 1-11.6 1-36.1 0-65.3-30.2-65.3-66h0-2c0 36.8 30.1 68 67.4 68 4 0 8.1-.4 12-1.1l.6-.1z"/><path d="M374.1 1367.9c0-11.5-5.4-19-15.5-22l-.2 11.4c0 .4.2.7.5.9 0 0 2.6 1.8 4 3.8s1.7 4.3 1.7 4.3c.1.6.6 1 1.2.9.5-.1.9-.5.9-1v-.1c0-.1-.4-2.8-2.1-5.2-1.2-1.8-3.2-3.4-4.1-4 0-.7.1-5.6.2-8 7.5 3.1 11.4 9.6 11.4 19.1 0 13.6-8.4 23.2-20.4 23.2-10.9 0-14.6-9-17.1-15l-.8-2c-.8-1.8-2-3.1-3.6-3.6-3-1.1-6.3.4-7.6 1-.5.2-.8.9-.5 1.4.2.5.8.7 1.4.5 1-.5 3.8-1.8 6-.9 1 .4 1.8 1.2 2.4 2.5l.8 1.9c2.5 6.1 6.7 16.3 19 16.3 13.2 0 22.5-10.4 22.5-25.2zm-106.5 6.1l-5.6-3.7 6.6-.2-1.1 3.9zm5.7 3.9l-3-2.1 1.6-5.8 3.7-.2 1.3-4.5-17.3 1.7-1.4 5.1 13.9 10.2 1.2-4.2zm7.9-16.2c-.1.8-.6 2.3-1.1 3l3.6-.5 1-1.5c2.2-3.1 1-5.9-1.8-7.8l-12.6-8.6-2.5 3.5 11.6 7.9c2.2 1.5 2 2.8 1.8 4.1zm6.5-28.1l5.3 4-3.3 2.4-2-6.3h.1zm4 12.9l-1-3.5 4.9-3.5 3 2.1 3.8-2.8-14.5-9.4-4.3 3.1 4.5 16.6 3.5-2.5zm17.8-19l-3 9.5 4.7-1.1 1.6-6.6 4.5 5.1 5-1.2-7.1-7 2.8-8.6-4.6 1.1-1.4 5.8-4-4.5-4.8 1.2zm4.7 34.8c2.4-1 6.4-3.1 9.8-5.1 3.8-2.2 7-3.8 9.4-4.6 2.7-.9 5.6-1.9 9.1-1.7 3.7.2 4.8.7 6.2 1.2 1.4.6 3.6 1.9 3.7 1.9.5.3 1.1.1 1.4-.3.3-.5.1-1.1-.3-1.4-.1-.1-2.4-1.4-4-2.1-1.7-.7-3.2-1.2-6.9-1.4-3.9-.2-7.1.8-9.9 1.8-3.1 1.1-7 3.2-9.7 4.8-3.3 1.9-7.3 4-9.6 5-2.6 1.1-6.6 2.4-7.3 2.4-.6 0-1.1.4-1.1 1s.5 1 1 1.1c1.4 0 6.1-1.7 8.2-2.6zm-1.3 29.6l-3.3.6c-.5.1-1 .6-.9 1.2s.7.9 1.2.9l3.4-.6c1.5-.3 2.7-1.2 3.4-2.5.3-.5 1.4-1.9 2-2.8.1-.2.2-.4.2-.6v-.1l-.4-5.2 3.7 2.7c-.3.7-.6 1.5-.7 1.9s-.3 1-.3 1.6c0 .7.4 1.6 1.2 2.2 0 0 .7.5 1.1.7.3.1.3.5.3.7v2.4c0 .7.2 1.6.3 2.4.1.5.2 1.1.2 1.4-.1.2-.5.7-.8 1.1-.9 1.2-2 2.8-2.7 4.3l-.8 1.8c-.4 1-1 2.2-1.3 2.4-.4.2-2.3.6-3.4.8l-2 .4c-1.1.2-2.5.8-3.7 1.3-.5.2-1.1.5-1.3.5-.3 0-1.2-.3-1.8-.5-.8-.3-1.8-.6-2.6-.7-.7-.1-.9-.1-.9-.6v-.5c0-1.1-.9-2.3-2.9-3.5-.9-.6-2.3-1.9-2.4-3.1v-.1c0-.9.9-2 1.7-2.8l.6-.7c.4-.5.5-1 .5-1.5v-.2c1 .1 2 .1 2 .1.6 0 1.1-.4 1.1-1s-.4-1.1-1-1.1l-3.7-.2a1.1 1.1 0 0 0-1 .6l-.1.4c0 .3.1.5.3.7.1 0 .3.3.3.6l-.1.2-.5.7c-.9 1.1-2.2 2.5-2.2 4.2v.3c.2 2.5 3 4.4 3.3 4.6 1.9 1.2 1.9 1.8 1.9 1.8v.4c0 1.2.4 2.3 2.6 2.7.7.1 1.5.4 2.3.7 1.5.4 2.2.7 2.9.5l1.7-.6c1.1-.4 2.4-1 3.4-1.2l1.9-.4c2.2-.4 3.5-.7 4.1-1 .8-.5 1.3-1.6 2.1-3.4l.8-1.7c.6-1.3 1.7-2.8 2.5-3.9s1.1-1.5 1.2-1.9v-.3c0-.3-.1-.9-.3-1.9-.1-.8-.3-1.6-.3-2.2v-2.4c0-1-.1-1.7-.7-2.1l-1.1-.7c-.6-.4-.9-.9-.5-1.8l.9-2.4.1-.4c0-.3-.2-.6-.4-.8l-5.3-3.9-2.7-2 .7 9.3-1.9 2.7c-.5.8-1.1 1.3-2 1.5zm33 13.9l.7-.2c1.2-.4 2.5-.8 2.7-2.6.2-1.7-1.6-3.6-5.1-7.1-2.7-2.7-8.3-7.5-14.6-12.6-6.1-4.9-16.9-12.1-21.2-14.6-4.6-2.6-7.9-3.2-9.8-3.2-1.2 0-1.9.5-2.2 1-.6 1-.3 2.2.1 3.1.5 1.2 2.5 2.6 3 3 .5.3 1.1.2 1.5-.3.1-.2.2-.4.2-.6 0-.3-.2-.7-.5-.9-1-.7-2.1-1.7-2.3-2.1-.2-.5-.3-.8-.3-1v-.1c.1 0 .2-.1.4-.1 1.7 0 4.5.5 8.8 2.9 4.2 2.4 14.9 9.5 20.9 14.4 6.2 5 11.8 9.8 14.4 12.5 1.8 1.8 4.6 4.5 4.6 5.4h0c0 .3 0 .4-1.3.8l-.7.2c-2.1.7-3.2 1.8-3.2 3 0 .4.1.9.3 1.5.1.4.3 1.2.3 1.7v.2c-.3.5-1.1.5-2.1.4-.6 0-1.1 0-1.6.1-.4.1-.8.3-1.2.6-.6.3-1.6.9-1.9.6-.4-.3-.5-.8-.5-1.6 0-.5.1-1.1.2-1.8l.4-1.6c.3-1 .4-1.7.4-2.2 0-.3 0-.5-.2-.8-.3-.5-.9-.8-2.3-1.3-.7-.2-1.9-.7-2.2-.9-.2-.3-.3-.9-.3-1.6v-.7c.1-.6.4-2.1.5-2.6l.1-.2c0-.5-.3-.9-.8-1-.6-.1-1.1.2-1.2.8-.1.2-.5 2-.6 2.9v.9c0 1 .2 2.1.8 2.9.5.6 1.5 1 3.1 1.6.3.1.8.3 1.1.4-.1.4-.2.9-.3 1.4l-.4 1.7c-.1.5-.3 1.3-.3 2.2 0 1.1.3 2.4 1.3 3.2 1.4 1.2 3.2.2 4.3-.4.3-.2.6-.3.8-.4h.9c1.2 0 2.9.1 3.9-1.4.7-1 .3-2.4 0-3.6-.1-.3-.2-.8-.2-1 0-.1.3-.6 1.8-1.1z"/><path d="M299.5 1391.2c-.6-.1-1.1.3-1.2.9s.3 1.1.9 1.2c4.2.7 5 .5 5.7.3h.1c.8-.1 1.1-.6 1.2-.9l.1-.5c0-.7-.5-1.3-.9-1.9l-.1-.1c-.2-.3-.5-1.4-.5-2.6 0-.4.1-.9.2-1.3.3-1.4.4-2.6.5-3.6.1-.4.1-.8.1-1.2l.9.3c.9.3 1.7.5 2.3.4 1.2-.2 1.4-1.5 1.4-2.6v-1.7c0-2.1-3-2.2-4.6-2.3h-.5c-.2 0-.5-.1-.6-.2a14.23 14.23 0 0 1 1.8-1.9 1.08 1.08 0 0 0 .3-.7c0-.3-.1-.5-.3-.7-.4-.4-1-.4-1.5 0-2.5 2.5-2.5 3.2-2.5 3.5 0 1.3 1.4 2.1 2.6 2.2h.6c1.7.1 2.4.2 2.6.4v2l-1-.3c-1.1-.3-2-.6-2.6-.3-.9.4-1 1.4-1.1 2.9-.1.9-.2 2.1-.5 3.3-.1.5-.2 1.2-.2 1.8 0 1.6.4 3.2.9 3.9l.2.3c-.5 0-1.5 0-4.2-.5zm1-14.3c-.5-.3-1.1-.1-1.4.4l-2.4 4.1c-.5.8-2.8 5.2-2.8 6.2 0 .8.4 1.5 5.4 2.2.6.1 1.1-.3 1.2-.9v-.2c0-.5-.4-.9-.9-1l-3.4-.7c.5-1.2 1.7-3.8 2.2-4.5.7-1 2.5-4.1 2.5-4.2l.1-.5c0-.4-.2-.7-.5-.9zm51.4 42.2c1.4.2 4.1-.5 5-1.7.6-.9 1.2-2.6 1.2-2.8.2-.5-.1-1.1-.7-1.3-.5-.2-1.1.1-1.3.7s-.6 1.8-.9 2.2c-.3.3-2.1.9-3 .8-.6-.1-1.8-.4-2.4-1.2-.3-.5-.4-1.1-.3-1.9.5-2.3 3.1-2.2 3.4-2.2.6 0 1.1-.4 1.1-1s-.4-1.1-1-1.1c-1.6-.1-4.9.6-5.5 3.9-.3 1.3-.1 2.5.6 3.5.9 1.3 2.6 1.9 3.8 2.1zm11.5 10c1-.6 1.5-1.8 1.5-3.3 0-.9-.2-2-.5-2.9-1.5-4.1-1.8-5.9-1.8-6.7 0-.4.1-.5.1-.6.7-.7 2.1-.7 4.7.1 2.7.7 6 1.9 6 1.9.5.2 1.1-.1 1.3-.6.2-.6-.1-1.1-.6-1.3-.2-.1-3.4-1.2-6.2-1.9-2.6-.7-5.2-1.2-6.8.5-1.1 1.2-.8 3.8 1.2 9.4.7 2 .3 3.5 0 3.6-.4.2-1.6-.3-2.5-1.3h0c-2.9-3-4.5-4-5.8-3.5-1.5.6-2.6 4.5-3.1 6.8-.9 3.7-1.5 4.7-1.8 5-.3-.7-.6-2.8-.6-5v-1.5c0-1.2-.1-6.7-1.9-7.3-1.9-.7-4.9 2.4-4.9 2.4-.6.7-3.8 4.2-6.3 8.9-2.3 4.3-4.3 9.7-4.3 9.9-.2.5.1 1.1.6 1.3s1.1-.1 1.3-.6c0-.1 2-5.5 4.2-9.7 2.4-4.5 5.6-8.1 6-8.4.7-.8 1.9-1.6 2.5-1.8.3.9.7 3.3.7 5v1.9c0 2.1.2 5.5 1.3 6.6.4.3.8.5 1.3.5 2.3-.1 3.2-3.4 4-6.7.6-2.7 1.5-4.7 1.9-5.3.3.1 1.2.6 3.5 2.9h0c1.3 1.5 3.5 2.6 5.1 1.8z"/><path d="M311.8 1431.5c-2-2.2-4.8-2.9-4.9-3-.6-.2-1.2.2-1.3.7s.2 1.1.7 1.3c0 0 2.4.7 4 2.4.9 1 1.7 2.8 2 4 .2 1 .4 3.1.4 3.1 0 .6.5 1 1.1 1s1-.5 1-1.1c0-.1-.2-2.2-.4-3.4-.3-1.4-1.3-3.7-2.5-4.9zm20.7-14.3c-.1-.6-.5-.9-1.1-.8l-5.6 1.4c-.7.2-1.9.6-3.1 1.1l3.2-6c1.1-2.4 1.4-4.8 1.4-4.9v-.1c0-.5-.4-1-.9-1-.6-.1-1.1.4-1.1.9 0 0-.2 2.2-1.2 4.3-1 2.2-4.5 8.3-4.6 8.3-.2.4-.2.9.1 1.2s.8.4 1.2.3c.1 0 4.2-1.7 5.6-2l5.5-1.4c.6-.2.8-.7.6-1.3zm-50.5-3.3c-.6.1-1 .6-.9 1.1.1.6.6 1 1.2.9 0 0 3.7-.4 7.2.4 3.8.9 9 2.7 11.5 3.7l.4.2c9.6 4 11.8 4.1 12.7 3.1 1.7-1.9-.8-4.2-1.6-4.9a1.09 1.09 0 0 0-1.5 0 1.08 1.08 0 0 0-.3.7c0 .3.1.5.3.8 1.2 1.1 1.5 1.7 1.5 1.9-.8 0-3.1-.5-10.4-3.5l-.4-.2c-2.6-1.1-7.9-2.9-11.8-3.8s-7.7-.5-7.9-.5zm33.5-108.2l10.4-7.3 10.1 7.3-3.7-11.9 10.3-7.3H330l-3.8-11.9-4.1 11.9h-12.6l10.1 7.3zm51.8 1.3l5.5 11.4 2.1-12.5 12.2-1.8-10.9-5.9 2-12.5-8.9 8.7-11-5.9 5.6 11.4-8.9 8.9zm-250-911.1V131.5h541.4l-294 1133.3h-18.2l289.9-1116H134.6v247.1h-17.3zm195.1 1070.7l-15.9 61.1h-18.3l15.9-61.1h18.2z"/></g></g><defs /></svg>