<svg xmlns="http://www.w3.org/2000/svg" xmlns:xlink="http://www.w3.org/1999/xlink" viewBox="0 0 21000 29700" shape-rendering="geometricPrecision" image-rendering="optimizeQuality" fill-rule="evenodd" xmlns:v="https://vecta.io/nano"><style><![CDATA[.C{fill:#bae8d9}.D{fill:#121c4d}]]></style><g fill-rule="nonzero"><use xlink:href="#B" class="C"/><path d="M2307.2 18533.22v5000h-150v-5000z" class="D"/><use xlink:href="#C" class="C"/><use xlink:href="#D" class="D"/><path d="M9143.16 23533.22h-350.43l-37.16-29.79h-104.81l-9.45 29.79h-369.75l-691.72-2036.72h-241.1v2036.72h-332.16l-19.52-29.67h-111.19l-19.16 29.67h-334.08v-5000h1953.68l518.56 525.74v1835.76l-554.92 588.75 703.21 2049.75zm-1804.42-2963.29h843.85v-1116.66h-843.85v1116.66z" class="C"/><path d="M6856.58 23533.22v-4613.18h1805.15v2188.18h-690.02l821.12 2425h-151.88l-827.44-2425h-806.93v2425h-150zm150-4463.18v1888.18h1505.15v-1888.18H7006.58z" class="D"/><path d="M5371.13 18533.22l527.18 529v3946.34l-527.18 524.66H3369.62v-5000h2001.51zm-286.07 4076.69v-3153.38h-899.33v3153.38h899.33z" class="C"/><path d="M3850.7 19070.04v3927.09h1203.55l366.15-416.23v-3096.48l-365.78-414.38H3850.7zm-150 4002.09v-4152.1l1420.84.01 448.86 508.49v3208.76l-448.49 509.83-1421.21.01v-75z" class="D"/><use xlink:href="#B" x="7987.6" class="C"/><path d="M10294.8 18533.22v5000h-150v-5000z" class="D"/><use xlink:href="#C" x="3147.86" class="C"/><use xlink:href="#D" x="3147.86" class="D"/><use xlink:href="#B" x="15929.03" class="C"/><path d="M18236.23 18533.22v5000h-150v-5000z" class="D"/></g><defs ><path id="B" d="M2643.25 23533.22h-335.68l-15.13-29.81h-118.78l-16.07 29.81h-330.45v-5000h330.13l14.45 29.72h121.58l13.93-29.72h336.02z"/><path id="C" d="M13850.92 23011.82l-518.55 521.4h-1404.5l-524.3-521.4v-806h328.07l18.24 30.08h112.49l18.85-30.08h335.59v404.09h820.88V21496.5h-1109.82l-524.3-524.65v-1912.89l524.3-525.74h1404.5l518.55 522.48v776.67h-335.05l-20.89-29.9h-111.73l-17.68 29.9h-327.88v-375.84h-820.88v1113.4h1115.56l518.55 525.75z"/><path id="D" d="M11881.38 22205.82v791.31h1484.36v-1888.91h-1634.36v-2188.18h1784.36v912.33h-150v-762.33h-1484.36v1888.18l1634.36-.01v2188.92h-1784.36v-941.31z"/></defs></svg>