<svg xmlns="http://www.w3.org/2000/svg" width="194.997" height="396.85" viewBox="0 0 934.2 1901.2"  shape-rendering="geometricPrecision" image-rendering="optimizeQuality" fill-rule="evenodd" xmlns:v="https://vecta.io/nano"><path d="M11311.1-11935.9h28970.5V15224H11311.1z" fill="#ebecec"/><g fill-rule="nonzero"><path d="M934.2 927.3l-203.1 199.5H308.7v423.3h625.5v351.1H0V973.1l199-198.7h426.8V351.1H312V494H0V198.7L199 0h537.2l198 198.7z" fill="#121c4d"/><g fill="#bae8d9"><path d="M144.9 493.9V163.7h646V960H166.4v754h193.1v21.5H144.8V938.4h624.5V185.1h-603v308.7h-21.4zM574.7 1714h359.5v21.5H574.7V1714zm-33.9 45.3l-1.1-.9 1.3.2-.3.7zm2.5-.2l2.3.2.8-2.6-9.8-1-.9 2.3 7.3 6.8.4-.8.7-1.9-1.5-1.2.7-1.8zm-10.1 8.3h0c.3-.5.7-.9 1.4-.9.6 0 1.1.3 1.6.6 1 .6 1.8 1.5 1.1 2.7l-4.1-2.3zm-3.3 1.1l8 4.9 1.5-2.4c.7-1 1-2.3.7-3.5-.3-1.3-1.2-2.3-2.4-3-.8-.5-1.8-.9-2.9-.9-1.6 0-2.8 1-3.7 2.4l-1.3 2.5zm-2.3 6.6l.1-.1c.1-.1.4-.4.5-.4a.76.76 0 0 1 .4.2c.4.3.3.6 0 1l-1-.7zm3.6-.5c0-.8-.4-1.6-1-2.1-.5-.4-1.1-.7-1.8-.7-1 0-1.8.6-2.4 1.4l-1.9 2.6 7.4 5.9.4-.5 1.2-1.8-2.4-2.1c.1 0 .2 0 .2.1l3.2 1.1 1.5-2.4-3.7-1.3c-.2-.1-.4-.1-.7-.2zm-44.3 30.3v-1.4l.8 1.1-.7.3zm1.8 1.8l1.3 1.9 2.5-1-5.6-8.1-2.4.8-.5 9.9.8-.2 2-.7-.1-1.9 1.9-.6zm32.9-25l2.1-2.3-1.9-1.4-3.7 3.9 6.7 6.7 4-4.2-1.9-1.5-1.8 2.1-1.1-.9 2-2.1-1.9-1.5-1.6 1.9zm-7.7 6.6l4.5 5.6.5-.3 1.6-1.6-4.5-5.3 1.5-1.4-1.6-1.6-4.8 4.1 1.6 1.6zm-3.8 8.5c-.6.4-1.4.4-1.9.8l-.3.2 1 1.9h.4c.8 0 1.5-.4 2.1-.8.8-.5 1.5-1.2 1.7-2.2.2-.8 0-1.6-.5-2.3-.7-1.1-1.6-1.4-2.9-1.4-.5 0-1 0-1.4.1-.2 0-.3 0-.5-.2 0 0-.1-.1 0-.2 0-.1.2-.3.3-.3.5-.3 1-.4 1.5-.7l.5-.3-1.4-1.9-.3.1c-.6.2-1.2.4-1.7.7-.8.5-1.4 1.2-1.6 2.1-.2.7 0 1.4.4 2.1.7 1.1 1.6 1.4 2.8 1.4l1.4-.1c.2 0 .4 0 .5.2.1.1.1.3.1.4 0 .2-.2.3-.3.4zm-11.2 3.6l-3.6-4-3.1 1.6 3.8 8.6.6-.3 1.9-1-1.7-3.5 2.9 3.2 1.8-1-.6-4.4 1.9 4 2.3-1.3-4-8.5-3.1 1.5zm46.1-53.1l-5.3.2-.8 3.4 9 2.6.2-.6.4-2.2-3.8-.9 4.4-.2.4-2-3.7-2.3 4.2 1.1.5-2.6-9.1-2.4-.8 3.3zm-140.9-122.2l2.7 15.2 7-14 15.6 2-11.3-10.7 6.9-14-13.9 7.4-11.4-10.6 2.7 15.2-14 7.5zm138.8 103.1c0-41.6-33.8-75.6-75.6-76.1v2.5c40.4.5 73 33.3 73 73.5 0 3.8-.3 7.6-.9 11.4l2.5.6c.6-3.9 1-8 1-12zm-75.6-80.4v2.6h.6c20.6 0 40.2 8.1 54.8 22.7 14.6 14.5 22.7 34 22.7 54.6a75.08 75.08 0 0 1-.3 6.7c-.2 2-.4 4-.8 6.1v.3l2.6.6.1-.4c.3-2 .6-4.1.8-6.2a84.28 84.28 0 0 0 .3-7.1c0-21.2-8.4-41.4-23.5-56.5-15.1-15-35.3-23.4-56.7-23.4h-.6zm83.4 79.3a84.18 84.18 0 0 1-1.2 14.2l-.1.5 2.5.6.1-.6c.8-4.8 1.3-9.7 1.3-14.6 0-46-37.6-83.5-83.9-83.5h-2.1v2.5h2.1c44.8 0 81.3 36.3 81.3 81zm-155.8 1.3h-2.6c.5 41.9 35.1 75.7 77.2 75.2 3.7 0 7.4-.4 11.1-1l-.5-2.5c-3.5.5-7.1.9-10.6.9-40.7.5-74.2-32.2-74.6-72.7zm86.4 79h.3l-.5-2.6h-.3l-6.1.8-6.8.3c-20.6 0-40.2-8.3-54.7-22.9-14.4-14.5-22.7-33.9-23-54.3v-.3h-2.7v.3c.2 21.1 8.8 41.2 23.8 56.2 15 15.1 35.2 23.7 56.6 23.7 4.5 0 9-.4 13.4-1.1z"/><path d="M482.4 1811.5l-.5-2.5-.7.1c-4.8.8-9.6 1.3-14.5 1.3-45 0-81.2-37.6-81.3-82.1h0-2.5c0 45.9 37.5 84.6 83.8 84.6 5 0 10-.4 14.9-1.3l.8-.1zm42.8-109.3c0-14.3-6.8-23.7-19.3-27.4l-.3 14.2c0 .4.2.9.6 1.1 0 0 3.3 2.2 5 4.7s2.1 5.4 2.1 5.4c.1.7.8 1.2 1.5 1.1s1.1-.6 1.1-1.3v-.2c0-.1-.5-3.5-2.6-6.5-1.5-2.3-4-4.2-5.1-5 0-.9.1-6.9.2-10 9.3 3.9 14.2 11.9 14.2 23.7 0 17-10.4 28.8-25.4 28.8-13.5 0-18.2-11.2-21.2-18.7l-1-2.4c-1-2.3-2.5-3.8-4.5-4.5-3.7-1.4-7.9.5-9.5 1.3-.6.3-.9 1.1-.6 1.7s1.1.9 1.7.6c1.3-.6 4.8-2.2 7.5-1.2 1.3.5 2.3 1.5 3 3.1l1 2.4c3.1 7.6 8.4 20.3 23.7 20.3 16.5 0 28-12.9 28-31.4zm-132.5 7.6l-6.9-4.6 8.2-.2-1.4 4.8zm7.1 4.9l-3.7-2.7 2-7.3 4.5-.3 1.6-5.6-21.5 2.1-1.8 6.3 17.3 12.7 1.5-5.2zm9.8-20.2c-.2 1-.8 2.9-1.4 3.7l4.5-.6 1.3-1.9c2.7-3.9 1.2-7.3-2.3-9.8l-15.7-10.7-3.1 4.4 14.4 9.8c2.7 1.9 2.5 3.5 2.3 5.1zm8.1-35l6.6 5-4.1 2.9-2.5-7.9h.1zm4.9 16.1l-1.3-4.4 6.1-4.4 3.7 2.6 4.8-3.4-18.1-11.7-5.3 3.8 5.6 20.7 4.4-3.2zm22.3-23.6l-3.8 11.8 5.9-1.4 2-8.1 5.5 6.3 6.2-1.6-8.8-8.7 3.5-10.6-5.7 1.4-1.8 7.2-4.9-5.6-6.1 1.5zm5.8 43.3c2.9-1.3 7.9-3.9 12.1-6.3 4.7-2.7 8.7-4.7 11.6-5.8 3.3-1.2 6.9-2.3 11.3-2.1 4.6.3 6 .9 7.7 1.5 1.8.7 4.5 2.4 4.6 2.4.6.4 1.4.2 1.8-.4s.2-1.4-.4-1.8c-.1-.1-3-1.8-4.9-2.6-2.1-.9-3.9-1.5-8.6-1.8-4.8-.3-8.9 1-12.3 2.2-3.9 1.4-8.7 4-12.1 6-4.1 2.4-9 5-11.9 6.2-3.2 1.4-8.2 3-9.1 3-.7 0-1.3.6-1.3 1.3s.6 1.3 1.3 1.3c1.7 0 7.6-2.1 10.2-3.2zm-1.7 36.8l-4.2.7c-.6.1-1.2.8-1.1 1.5s.8 1.1 1.5 1.1l4.2-.8c1.8-.4 3.3-1.5 4.2-3.1.3-.6 1.7-2.4 2.5-3.5.2-.2.3-.5.3-.8v-.1l-.5-6.5 4.6 3.4-.9 2.4c-.1.5-.4 1.2-.4 1.9 0 .8.5 2 1.4 2.7l1.3.9c.3.1.4.6.4.9v3c0 .9.2 2 .4 3l.2 1.7-.9 1.3c-1.1 1.5-2.5 3.4-3.4 5.3l-1 2.2c-.5 1.2-1.2 2.8-1.6 3-.5.3-2.9.7-4.3 1l-2.5.5c-1.4.3-3.2 1-4.6 1.6-.6.3-1.4.6-1.7.6-.4 0-1.5-.4-2.3-.6l-3.2-.9c-.9-.2-1.1-.2-1.1-.7v-.7c0-1.4-1.2-2.8-3.6-4.4-1.1-.7-2.8-2.4-3-3.8v-.1c0-1.2 1.2-2.5 2.1-3.5l.8-.9a2.99 2.99 0 0 0 .7-1.9l-.1-.3 2.5.1c.7.1 1.3-.5 1.4-1.2 0-.7-.5-1.3-1.2-1.4l-4.6-.3c-.5 0-1 .3-1.2.7l-.1.5c0 .3.1.7.4.9.1 0 .4.4.4.8l-.1.3-.7.8c-1.2 1.3-2.8 3.1-2.8 5.3v.4c.3 3.1 3.7 5.5 4.1 5.7 2.3 1.5 2.4 2.3 2.4 2.3v.6c0 1.5.5 2.9 3.2 3.4l2.9.8c1.8.6 2.8.9 3.6.7.4-.1 1.1-.3 2.1-.8 1.4-.6 3-1.2 4.2-1.5l2.4-.5c2.7-.5 4.4-.8 5.1-1.3 1.1-.6 1.7-2 2.6-4.2l1-2.2c.8-1.6 2.2-3.5 3.2-4.8 1-1.4 1.3-1.9 1.4-2.4v-.4c0-.4-.1-1.1-.3-2.3l-.4-2.8v-2.9c0-1.2-.2-2.1-.9-2.6l-1.3-.9c-.7-.5-1.1-1.1-.6-2.3.1-.4.8-2.1 1.2-3l.1-.5c0-.4-.2-.8-.5-1l-6.6-4.8-3.3-2.5.8 11.6-2.4 3.4c-.6 1-1.4 1.6-2.5 1.8z"/><path d="M490.2 1749.5l.8-.3c1.5-.5 3.1-1 3.4-3.2.3-2.1-2-4.5-6.4-8.9-3.4-3.4-10.4-9.4-18.2-15.7-7.6-6.1-21-15.1-26.4-18.1-5.8-3.3-9.8-4-12.2-4-1.6 0-2.3.7-2.7 1.2-.8 1.2-.3 2.8.2 3.8.7 1.4 3.1 3.2 3.8 3.7.6.4 1.4.2 1.8-.3.2-.2.2-.5.2-.7 0-.4-.2-.8-.6-1.1-1.2-.8-2.7-2.1-2.9-2.6-.3-.6-.4-1-.4-1.2v-.1c.1 0 .2-.1.5-.1 2.1 0 5.6.6 10.9 3.6s18.5 11.9 26 17.9c7.7 6.2 14.6 12.2 18 15.5 2.3 2.3 5.7 5.6 5.7 6.7h0c0 .4 0 .5-1.6 1l-.9.3c-2.6.9-3.9 2.2-3.9 3.8 0 .5.2 1.1.3 1.9.1.5.4 1.5.4 2.1l-.1.3c-.4.6-1.4.6-2.6.6-.7 0-1.4 0-2 .2-.5.1-1 .4-1.5.7-.8.4-1.9 1.1-2.4.7-.4-.4-.7-1-.7-2 0-.6.1-1.3.3-2.2l.5-2c.3-1.2.5-2.1.5-2.8 0-.4 0-.7-.2-1-.3-.7-1.1-1-2.9-1.6-.8-.3-2.4-.9-2.7-1.2s-.4-1.1-.4-2v-.8c.1-.8.5-2.6.6-3.3l.1-.3c0-.6-.4-1.1-1-1.2-.7-.2-1.4.3-1.5.9-.1.3-.6 2.5-.7 3.6v1.1c0 1.2.2 2.6 1 3.6.6.7 1.8 1.2 3.8 2 .4.2 1 .4 1.4.5-.1.5-.3 1.2-.4 1.8l-.5 2.1c-.1.6-.4 1.6-.4 2.7 0 1.4.4 2.9 1.6 4 1.8 1.5 4 .2 5.3-.5l1-.5c.2-.1.7 0 1.2 0 1.5 0 3.6.1 4.9-1.7.8-1.2.4-3 0-4.5-.1-.4-.3-1-.3-1.2 0-.1.4-.7 2.2-1.3zm-57.8-18.3c-.7-.1-1.4.4-1.5 1.1s.4 1.4 1.1 1.5c5.2.9 6.2.7 7 .4h.1c1-.1 1.4-.8 1.5-1.1l.1-.6c0-.9-.6-1.6-1.1-2.3l-.1-.2c-.2-.3-.6-1.7-.6-3.3 0-.5.1-1.1.2-1.6a30.18 30.18 0 0 0 .7-4.4c.1-.5.1-1 .2-1.4l1.1.3c1.1.3 2.1.7 2.9.5 1.5-.3 1.8-1.8 1.8-3.3v-2.1c0-2.6-3.7-2.8-5.8-2.9h-.6c-.3 0-.6-.1-.8-.2.4-.6 1.3-1.5 2.2-2.4.2-.2.4-.6.4-.9s-.1-.6-.4-.9c-.5-.5-1.3-.5-1.8 0-3.2 3.1-3.2 4-3.2 4.4 0 1.6 1.7 2.6 3.3 2.7h.7c2.1.1 3 .3 3.3.5v2.5c-.4-.1-.9-.2-1.3-.4-1.4-.4-2.4-.7-3.3-.3-1.1.5-1.2 1.8-1.4 3.6-.1 1.1-.3 2.6-.6 4.1-.2.7-.2 1.4-.2 2.2 0 2 .5 3.9 1.1 4.8l.2.4c-.6 0-1.9 0-5.2-.6zm1.2-17.7c-.6-.4-1.4-.1-1.8.5l-3 5c-.7 1-3.5 6.5-3.5 7.7 0 1 .5 1.8 6.7 2.8.7.1 1.4-.4 1.5-1.1v-.2c0-.6-.5-1.2-1.1-1.3-1.5-.2-3.3-.6-4.3-.8.6-1.5 2.1-4.7 2.7-5.6.9-1.3 3.1-5.1 3.1-5.3l.2-.6c0-.4-.2-.9-.7-1.1zm64 52.5c1.7.2 5.2-.6 6.2-2.1.8-1.1 1.4-3.3 1.5-3.5.2-.7-.2-1.4-.9-1.6s-1.4.2-1.6.9c-.2.8-.8 2.2-1.2 2.8-.4.4-2.6 1.2-3.8 1-.8-.1-2.2-.6-3-1.6-.4-.6-.6-1.4-.3-2.3.6-2.9 3.8-2.8 4.2-2.8.7 0 1.4-.5 1.4-1.2s-.5-1.3-1.2-1.4c-2-.1-6 .7-6.9 4.8-.4 1.7-.1 3.2.8 4.4 1.1 1.6 3.2 2.4 4.7 2.6zm14.3 12.4c1.3-.7 1.8-2.3 1.8-4.1 0-1.2-.2-2.4-.6-3.6-1.8-5.1-2.2-7.4-2.2-8.4 0-.5.1-.6.1-.7.8-.8 2.6-.8 5.9.1 3.4.9 7.5 2.3 7.5 2.4.7.2 1.4-.1 1.7-.8.2-.7-.1-1.4-.8-1.6-.2-.1-4.2-1.5-7.7-2.4-3.3-.9-6.5-1.4-8.5.7-1.4 1.5-1 4.8 1.5 11.7.9 2.5.4 4.3 0 4.5-.5.2-2-.3-3.1-1.6h-.1c-3.7-3.8-5.6-5-7.2-4.3-1.8.7-3.2 5.6-3.8 8.4-1.1 4.7-1.9 5.9-2.3 6.2-.4-.9-.7-3.5-.7-6.3 0-.5 0-1.1.1-1.6v-.3c0-1.5-.1-8.3-2.4-9.1-2.4-.9-6.1 3-6.1 3-.8.8-4.7 5.3-7.9 11-2.8 5.4-5.3 12.1-5.4 12.4-.2.7.1 1.4.8 1.7.7.2 1.4-.1 1.7-.8 0-.1 2.5-6.8 5.3-12 3-5.6 7-10 7.4-10.5.9-1 2.4-2 3.1-2.2.4 1.1.9 4.1.9 6.2v2.3c0 2.6.2 6.8 1.6 8.2.4.4 1 .6 1.6.6 2.8-.1 4-4.2 4.9-8.3.8-3.4 1.8-5.9 2.3-6.5.4.1 1.5.7 4.4 3.6h0c1.6 1.9 4.3 3.2 6.3 2.2zm-64.2 3c-2.5-2.7-6-3.7-6.1-3.7-.7-.2-1.4.2-1.6.9s.2 1.4.9 1.6c0 0 2.9.8 4.9 3 1.1 1.2 2.1 3.5 2.5 4.9.2 1.2.4 3.8.4 3.8a1.304 1.304 0 1 0 2.6-.2c0-.1-.2-2.8-.5-4.2-.4-1.8-1.6-4.5-3.1-6.1zm25.8-17.8c-.2-.7-.7-1.1-1.4-1l-6.9 1.7c-.9.2-2.4.8-3.8 1.3l4-7.4c1.4-3 1.7-6 1.7-6.1v-.1c0-.6-.5-1.2-1.2-1.3s-1.3.4-1.4 1.2c0 0-.3 2.7-1.5 5.3-1.3 2.8-5.6 10.3-5.7 10.4-.3.5-.2 1.1.1 1.5.4.4 1 .6 1.5.4.1 0 5.2-2.1 6.9-2.5l6.9-1.7c.7-.2 1-.9.8-1.6zm-62.9-4.1c-.7.1-1.2.7-1.2 1.4.1.7.7 1.2 1.4 1.2 0 0 4.5-.4 9 .5 4.7 1.1 11.2 3.3 14.3 4.6l.5.2c12 4.9 14.6 5.1 15.8 3.8 2.1-2.4-1-5.2-2-6.2-.5-.5-1.4-.5-1.8 0-.2.3-.4.6-.4.9s.2.7.4 1c1.6 1.4 1.9 2.1 1.9 2.4-1 0-3.9-.6-12.9-4.3l-.5-.2c-3.2-1.3-9.9-3.6-14.7-4.7s-9.6-.6-9.8-.6zm41.7-134.6l12.9-9.1 12.6 9.1-4.6-14.8 12.9-9.1h-15.8l-4.7-14.8-5.1 14.8h-15.7l12.6 9.1zm64.4 1.6l6.9 14.2 2.6-15.5 15.3-2.3-13.7-7.4 2.5-15.6-11 11-13.7-7.4 6.9 14.2-11 11z"/></g></g><defs /></svg>