<svg xmlns="http://www.w3.org/2000/svg" width="100.717" height="204.094" viewBox="0 0 356.6 722.7"  shape-rendering="geometricPrecision" image-rendering="optimizeQuality" fill-rule="evenodd" xmlns:v="https://vecta.io/nano"><path d="M2616.7-18412.9h21414.199V13708.4H2616.7z" fill="#d9dada"/><path d="M124.9 4H4.2l40.1 714.7h116.6l13.9-110.2h7.1l13.9 110.2h116.5L352.4 4H231.8l-2.3 42.6-7.4.2L217.4 4h-78.3l-4.6 42.1-7.4-.2z" fill="#fff"/><path d="M130.9 42l4.5-42H221l4.6 42.7L227.9 0h128.7l-40.5 722.7H192.2l-13.9-110.2-13.9 110.2H40.5L0 0h128.7l2.3 42zm-27.6-15.2l18.7 347 37.5-347H197l37.5 347 18.8-347h75L290.8 696h-75l-37.5-297.5L140.8 696h-75L28.3 26.8h75z" fill="#332b24"/><defs /></svg>