<svg xmlns="http://www.w3.org/2000/svg" width="869.881" height="204.094" viewBox="0 0 22414.5 5258.9"  shape-rendering="geometricPrecision" image-rendering="optimizeQuality" fill-rule="evenodd" xmlns:v="https://vecta.io/nano"><path d="M37166.301-19811.199h155820.797v155820.797H37166.301z" fill="#ccc"/><path d="M22385.3 949.9V29.2h-2377.4v1052.6h1369.4L20007.9 4309v920.7h2377.4V4177.1h-1367.6l1367.6-3227.2zM871.1 29.2H29.3v5200.5h876.9V3246.2h623.5v1983.5h876.9V29.2h-841.8l-347.2 1441.4L871 29.2zm3113.6 1983.5v-930.9h623.5v930.9h-623.5zm623.5 3217h876.9v-4550L4993 29.2H3599.8l-492.1 650.5v4550h876.9V3065.3h623.5v2164.4zm3084.6-3217h-623.6v-930.9h623.6v930.9zm876.9 402.1V679.7L8077.6 29.2H6192.3v5200.5h876.9V3065.3h243l408.9 2164.4h882.8l-432.3-2288.6 398.1-526.3zm3001.9-1333V29.2H9194.2v1052.6H9944v4147.9h876.9V1081.8h750.7zM13149.7 29.2h-876.9v5200.5h876.9V29.2zm1534.3 0h-833.2v5200.5h876.9V3086.9l667.3 2142.8h833.2V29.2h-876.9V2172L14684 29.2zm4622.7 1052.6V29.2h-2377.4v5200.5h2377.4V4177.1h-1500.5V3065.3h818.7V2012.7h-818.7v-930.9h1500.5z" fill="#fff"/><path d="M22219.7 194.8v721.5l-1452 3426.4h1452v721.5h-2046.3v-721.5l1453.9-3426.4h-1453.9V194.8h2046.3zm-21002.1 1151L1541.8 0h894v5258.9h-935.4V3275.4H935.3v1983.5H0V0h894.1l323.6 1345.8zm-477.1-1151l476.9 1983.5 477.8-1983.5H2241v4869.4h-545.8V1882.8l-272.9 1198h-408.9L740.5 1925.9v3138.3H194.7V194.8h545.8zm3273.3 1788.7h565.1v-872.4h-565.1v872.4zm565.1 1111h-565.1v2164.4h-935.3v-4589L3585.3 0h1422.3l506.8 669.9v4589H4579V3094.5zM3273.2 5064.2V735.3l408.9-540.5h1228.5l408.9 540.5v4328.9h-545.8V2899.8H3819v2164.4h-545.8zM3819 2178.3h954.7v-1262H3819v1262zm3841.5-194.8v-872.4h-565.1v872.4h565.1zm539.1 964.9L8636.1 5259h-942.2L7285 3094.6h-189.6V5259h-935.3V.1h1929L8595.9 670v1754.7l-396.2 523.8zM7992.2 194.8l408.9 540.5v1623.9l-408.9 540.5 408.9 2164.4h-545.8l-408.9-2164.4h-545.8v2164.4h-545.8V194.7h1637.4zm-136.9 1983.5v-1262h-954.7v1262h954.7zm2994.8-1067.2V5259h-935.4V1111.1h-749.8V.1h2435.8v1111H10850zM9359.8 194.8h2046.3v721.5h-750.7v4147.9h-545.8V916.3h-749.8V194.8zM13178.9 0v5258.9h-935.3V0h935.3zm-194.8 194.8v4869.4h-545.8V194.8h545.8zm2338 1785.1V0h935.3v5258.9h-883.9L14756.9 3279v1979.9h-935.3V0h883.9l616.6 1979.9zm-759.9-1785.1l954.7 3065.7V194.8h545.8v4869.4h-545.8l-954.7-3065.7v3065.7h-545.8V194.8h545.8zm3273.3 916.3v872.4h818.7v1111h-818.7v1053.4H19336v1111h-2435.8V0H19336v1111h-1500.5zm1305.7-916.3v721.5h-1500.5v1262h818.7v721.5h-818.7v1443h1500.5v721.5h-2046.3V194.9h2046.3zm1920.6 3953.1h1352.7v1111h-2435.8V4303l1354.4-3192h-1354.4V0h2435.8v955.8l-1352.7 3192.1z" fill="#332b24"/><defs /></svg>