<svg xmlns="http://www.w3.org/2000/svg" width="99.708" height="204.094" viewBox="0 0 361.7 740.5"  shape-rendering="geometricPrecision" image-rendering="optimizeQuality" fill-rule="evenodd" xmlns:v="https://vecta.io/nano"><path d="M2220.3-18865.1h21940.1v32910.102H2220.3z" fill="#d9dada"/><path d="M5.5 736.4h131.9l43.4-145.2 43.4 145.2h132L246.9 369.9 356.2 4.1H223.8l-43 144.1L137.9 4.1H5.5l109.2 365.8z" fill="#fff"/><path d="M110.4 369.9L0 0h140.9l39.9 133.8L220.7 0h141.1L251.3 369.9l110.5 370.6H221.2l-40.3-134.9-40.3 134.9H.1l110.4-370.6zM120 713H36.7L139 369.9 36.7 27.4h83.7l60.3 202.4L241 27.4h83.8L222.5 369.9 324.8 713h-83.4l-60.7-203.3L120 713z" fill="#332b24"/><defs /></svg>