<svg xmlns="http://www.w3.org/2000/svg" width="94.53" height="204.094" viewBox="0 0 207.3 447.6"  shape-rendering="geometricPrecision" image-rendering="optimizeQuality" fill-rule="evenodd" xmlns:v="https://vecta.io/nano"><path d="M5874.3-11403.9H19137v19894.1H5874.3z" fill="#d9dada"/><path d="M130.2 138.1h74.6V57.9L163 2.5H44.4L2.5 57.9v331.7l41.9 55.5H163l41.8-55.5V171.3H83.7v89.6h46.5v94.6H77.1V92.1h53.1z" fill="#fff"/><path d="M127.7 94.6H79.6v258.5h48.1v-89.7H81.2v-94.6h126.1v221.7l-43.1 57.1H43.1L0 390.5V57L43.1 0h121.1l43.1 57v83.6h-79.6v-46zm28.2-78l34.8 46V124h-46.5V78H62.9v291.6h81.3V246.8H97.7v-61.4h92.9v199.5L155.8 431H51.2l-34.8-46.1V62.6l34.8-46h104.6z" fill="#332b24"/><defs /></svg>