<svg xmlns="http://www.w3.org/2000/svg" width="818.77" height="204.094" viewBox="0 0 21916.1 5463"  shape-rendering="geometricPrecision" image-rendering="optimizeQuality" fill-rule="evenodd" xmlns:v="https://vecta.io/nano"><path d="M27381-28123h161867.594v161867.594H27381z" fill="#ccc"/><path d="M20219 30.4h-926.1l823.1 2800.7v2582.4h910.9V2832l853.6-2801.6h-926.4l-378 1235.4-357.2-1235.4zM946.5 4339.3v-1155h647.7v1155H946.5zm0-2248.4v-967h647.7v967H946.5zm1558.7 229.7V706.2L1994 30.5H35.6v5402.3h1958.6l511.1-677.1v-1801l-239.8-317 239.8-317zm2293.4-229.7h-647.8v-967h647.8v967zm910.9 417.7V706.2L5198.3 30.5H3239.9v5402.3h910.9V3184.4h252.4L4828 5432.8h917l-449.1-2377.5 413.6-546.7zm1681.2 1830.7V1123.9h647.7v3215.4h-647.7zM8438.2 30.4H6990.9l-511.2 675.7v4049.5l511.1 677.1h1447.5l511.1-677.1V706.1L8438.2 30.4zm2150.6 4308.9v-1155h647.7v1155h-647.7zm0-2248.4v-967h647.7v967h-647.7zm1558.7 229.7V706.2l-511.2-675.7H9677.9v5402.3h1958.6l511.1-677.1v-1801l-239.8-317 239.8-317zm1639.4 2018.7v-1155h647.7v1155h-647.7zm0-2248.4v-967h647.7v967h-647.7zm1558.7 229.7V706.2l-511.2-675.7H12876v5402.3h1958.6l511.1-677.1v-1801l-239.8-317 239.8-317zm3198.1-1196.7V30.5h-2469.6v5402.3h2469.6V4339.4H16985v-1155h850.5V2091H16985v-967h1558.7z" fill="#fff"/><path d="M971.6 4308.9h587V3214.6h-587v1094.3zm19600-3149.5L20926.3.1h989.8l-864.2 2836.5V5444h-971.6V2835.6L19247 .2h989.5l335.2 1159.3zm-487.3-957l481.8 1666.5L21076 202.4h567l-793.4 2604v2435.2h-567V2806.4l-765.3-2604h567zm-3074.2 951.8v906.3h850.5v1154.1h-850.5v1094.3h1558.7V5463h-2530.3V0h2530.3v1154.1h-1558.7zm1356.4-951.8v749.5h-1558.7v1310.9h850.5v749.5h-850.5v1499h1558.7v749.5h-2125.7V202.5h2125.7zm-4554.4 4106.5h587V3214.6h-587v1094.3zm0-2248.4h587v-906.3h-587v906.3zm1326.6 577.1l232.1 306.8v1821.4l-526.3 697.3h-2004V.1h2003.9l526.4 695.9v1634.8l-232.1 306.8zm-395-2435.2l424.8 561.5v1499l-283.5 374.7 283.5 374.7V4698l-424.8 562.8h-1700.9V202.5h1700.9zm-1133.9 2060.4h991.7V951.9h-991.7v1310.9zm0 2248.4h991.7v-1499h-991.7v1499zm-2995.7-202.3h587V3214.6h-587v1094.3zm0-2248.4h587v-906.3h-587v906.3zm1326.6 577.1l232.1 306.8v1821.4l-526.3 697.3h-2004V.1h2003.9l526.4 695.9v1634.8l-232.1 306.8zm-395-2435.2l424.8 561.5v1499l-283.5 374.7 283.5 374.7V4698l-424.8 562.8H9844.8V202.5h1700.9zm-1133.9 2060.4h991.7V951.9h-991.7v1310.9zm0 2248.4h991.7v-1499h-991.7v1499zm-2995.7-202.3h587V1154.2h-587v3154.7zM8448.3 0l526.4 695.9v4069.8L8448.4 5463H6970.7l-526.3-697.3V695.9L6970.8 0h1477.5zm-100.6 202.3l424.8 561.5v3934.1l-424.8 562.8H7071.5l-424.7-562.8V763.8l424.7-561.5h1276.2zM7213.8 4511.2h991.7V951.8h-991.7v3559.4zM4760.2 2060.4v-906.3h-587.1v906.3h587.1zm560 1002.4L5773.6 5463h-978.8L4370 3214.6h-196.9V5463h-971.6V0h2003.9l526.4 695.9v1822.8l-411.6 544.1zM5104.7 202.3l424.8 561.5v1687l-424.8 561.5 424.8 2248.4h-567l-424.8-2248.4h-567v2248.4h-567V202.4h1700.9zm-142.2 2060.4V951.8h-991.7v1310.9h991.7zM971.9 2060.4h587v-906.3h-587v906.3zm1326.6 577.1l232.1 306.8v1821.4L2004.3 5463H.3V0h2003.9l526.4 695.9v1634.8l-232.1 306.8zm-395-2435.2l424.8 561.5v1499l-283.5 374.7 283.5 374.7v1685.7l-424.8 562.8H202.6V202.4h1700.9zM769.6 2262.7h991.7V951.8H769.6v1310.9zm0 2248.4h991.7v-1499H769.6v1499z" fill="#332b24"/><defs /></svg>