<svg xmlns="http://www.w3.org/2000/svg" image-rendering="optimizeQuality" shape-rendering="geometricPrecision" viewBox="0 0 689.9 1852.9"  xmlns:v="https://vecta.io/nano"><g fill-rule="evenodd"><path d="M72.5 7.4v245.5H318V7.4H72.5zm184.1 1539.1V669.8h176.6v876.7H256.6zM542.2 371.7H147.6L8.3 555.9V1660l139.3 184.6h394.7L681.6 1660V555.9L542.2 371.7zM371.9 7.4v245.5h245.5V7.4H371.9z" fill="#fff"/><path d="M264.9 1538.2H425V678.1H264.9v860.1zM363.6 0h262v262h-262V0zM64.3 0h262v262h-262V0zm55.1 55.2v151.7h151.7V55.2H119.4zm299.4 0v151.7h151.7V55.2H418.8zm127.5 308.2l143.5 189.7v1109.6l-143.5 190.1H143.5L0 1662.7V553.1l143.5-189.7h402.8zm-27.4 55.2l115.8 153.1v1072.6l-115.8 153.4H171L55.2 1644.3V571.7L171 418.6h347.9zM209.7 1593.4h270.4V622.9H209.7v970.5z" fill="#332b24"/></g><defs /></svg>