<svg xmlns="http://www.w3.org/2000/svg" width="574.227" height="204.094" viewBox="0 0 10041 3568.8"  shape-rendering="geometricPrecision" image-rendering="optimizeQuality" fill-rule="evenodd" xmlns:v="https://vecta.io/nano"><path d="M23092.699-25322h105743.102V80421.102H23092.699z" fill="#ccc"/><path d="M9426.1 1100.9h595.1V461.2L9687.3 19.8h-945.5l-333.9 441.4v1177.5l333.9 441.4h684.3v754.5h-423.2v-366.8h-595.1v638.8l333.9 442.3h945.6l333.9-442.3V1808.1l-333.9-442.3h-684.4V734.1h423.2v366.8zM585.3 19.8H19.9V3549H615V2094.9L1067.8 3549h565.4V19.8h-595.1v1454.1L585.3 19.8zm3137.1 714.3V19.8H2109.1V3549h1613.3v-714.3H2704.2v-754.5h555.6v-714.3h-555.6V734.2h1018.2zm1498.2 631.7h-423.2V734.1h423.2v631.7zm595.1 272.9V461.2L5481.8 19.8H4202.4V3549h595.1V2080.2h164.9L5239.9 3549H5839l-293.4-1553.1 270.2-357.1zm2116.5-904.6V19.8H6318.9V3549h1613.3v-714.3H6914v-754.5h555.6v-714.3H6914V734.2h1018.2z" fill="#fff"/><path d="M9406.3 754h-383.5v592h674.4l343.8 455.5v1311.8l-343.8 455.5h-965.4L8388 3113.3v-665.2h634.7v366.8h383.5V2100h-674.3L8388 1645.4V454.6L8731.9 0h965.2l343.9 454.6v666.2h-634.7V754zm-8388 589.6V0H1653v3568.8h-599.8L634.8 2225.2v1343.6H.1V0h599.8l418.4 1343.6zM502.6 132.2l647.9 2080.4V132.2h370.4v3304.5h-370.4L502.6 1356.3v2080.4H132.2V132.2h370.4zM2723.9 754v592h555.6v754h-555.6v714.9h1018.2v754h-1653V.1h1653v754H2723.9zM3610 132.2v489.6H2591.8v856.4h555.6v489.6h-555.6V2947H3610v489.6H2221.4V132.1H3610zM5198.6 1346V754h-383.5v592h383.5zm365.8 654.8l296.2 1568h-639.4L4943.7 2100H4815v1468.8h-634.7V0h1309.1l343.9 454.6v1190.8l-268.9 355.4zM5423.6 132.2L5701.1 499v1102l-277.5 366.8 277.5 1468.8h-370.4l-277.5-1468.8h-370.4v1468.8h-370.4V132.1h1111.2zm-92.9 1346V621.8h-647.9v856.4h647.9zM6933.5 754v592h555.6v754h-555.6v714.9h1018.2v754h-1653V.1h1653v754H6933.5zm886.1-621.8v489.6H6801.4v856.4H7357v489.6h-555.6V2947h1018.2v489.6H6431V132.1h1388.6zm1811.7 0L9908.8 499v489.6h-370.4V621.8h-647.9v856.4h740.8l277.5 367.6V3069l-277.5 367.6h-833.7L8520.1 3069v-488.8h370.4V2947h647.9v-979.2h-740.8L8520.1 1601V499l277.5-366.8h833.7z" fill="#332b24"/><defs /></svg>