<svg xmlns="http://www.w3.org/2000/svg" width="874.42" height="204.094" viewBox="0 0 20947.5 4889.3"  shape-rendering="geometricPrecision" image-rendering="optimizeQuality" fill-rule="evenodd" xmlns:v="https://vecta.io/nano"><path d="M43243.199-25649.6h144867.297v144867.297H43243.199z" fill="#ccc"/><path d="M20920.3 27.2H20105v4834.9h815.3V27.2zm-20110.5 0H27.2v4834.9h815.3v-1844h579.7v1844h815.3V27.2h-782.6l-322.8 1340.1L809.9 27.2zm2894.7 1844v-865.4h579.7v865.4h-579.7zm579.7 2990.9h815.3V631.9L4642 27.1H3346.7l-457.5 604.8v4230.2h815.3V2849.8h579.7v2012.3zm3677.4-3979v-856H5751.3v978.6h1273.1L5751.3 4006v856h2210.3v-978.6H6690.1L7961.6 883zm2052.5 988.1h-579.7v-865.4h579.7v865.4zm815.3 373.8V631.9l-457.5-604.8H8619.1V4862h815.3V2849.7h225.9l380.1 2012.3h820.7l-402-2127.8 370.2-489.3zm1504.5-373.8v-865.4h579.7v865.4h-579.7zm579.7 2990.9h815.3V631.9l-457.5-604.8h-1295.3l-457.5 604.8v4230.2h815.3V2849.8h579.7v2012.3zm2282.4-978.6V1005.8h579.7v2877.7H15196zm937.5-3856.3h-1295.3L14380.7 632v3624.2l457.4 606h1295.5l457.4-606V632l-457.5-604.8zm1924.6 0h-815.3v4228.9l457.4 606h1295.5l457.4-606V27.2h-815.3v3856.3h-579.7V27.2z" fill="#fff"/><path d="M20947.5 0v4889.3h-869.6V0h869.6zM1132 1251.2L1433.4 0h831.2v4889.3H1395v-1844H869.6v1844H0V0h831.2L1132 1251.2zM688.5 181.1l443.3 1844 444.2-1844h507.4v4527.1H1576V1750.4l-253.7 1113.7H942.2L688.5 1790.4v2917.7H181.1V181h507.4zM3731.7 1844h525.4v-811.1h-525.4V1844zm525.4 1032.9h-525.4v2012.3h-869.6V622.7L3333.2-.1h1322.3l471.2 622.8v4266.5h-869.6V2876.9zM3043.2 4708.1V683.5L3423.3 181h1142.1l380.1 502.5v4024.6h-507.4V2695.8h-887.6v2012.3h-507.4zM3550.6 2025h887.6V851.7h-887.6V2025zM7807.7 181v670.8l-1350 3185.6h1350v670.8H5905.3v-670.8L7257 851.8H5905.3V181h1902.4zM6731.1 3856.2h1257.6v1032.9H5724.1v-888.7l1259.2-2967.6H5724.1V-.1h2264.6v888.6L6731.1 3856.2zm3253-2012.3v-811.1h-525.4v811.1h525.4zm501.2 897.1l405.8 2148.1h-876L9635 2876.8h-176.3v2012.3h-869.6V-.2h1793.4l471.2 622.8V2254l-368.4 487zm-192.8-2560l380.1 502.5v1509.8l-380.1 502.5 380.1 2012.3h-507.4l-380.1-2012.3h-507.4v2012.3h-507.4V181h1522.3zm-127.3 1844V851.7h-887.6V2025h887.6zm2195.9-181.1h525.4v-811.1h-525.4v811.1zm525.4 1032.9h-525.4v2012.3h-869.6V622.6L11962.6-.2h1322.3l471.2 622.8v4266.5h-869.6V2876.8zM11672.6 4708V683.4l380.1-502.5h1142.1l380.1 502.5V4708h-507.4V2695.7h-887.6V4708h-507.4zm507.4-2683.1h887.6V851.6H12180v1173.3zm3043.2 1831.2h525.4V1032.7h-525.4v2823.4zM16147-.2l471.2 622.8V4265l-471 624.1h-1322.5l-471-624.1V622.6L14824.8-.2h1322.3zm-90.1 181.1l380.1 502.5v3520.9l-380.1 503.6h-1142.1l-380.1-503.6V683.4l380.1-502.5h1142.1zm-1014.8 3856.3h887.6V851.6h-887.6v3185.6zm3043.2-181.1h525.4V-.2h869.6V4265l-471 624.1h-1322.5l-471-624.1V-.2h869.6v3856.3zm-688.5-3675.2h507.4v3856.3h887.6V180.9h507.4v4023.4l-380.1 503.6H17777l-380.1-503.6V180.9zm3369.6 0V4708H20259V180.9h507.4z" fill="#332b24"/><defs /></svg>