<svg xmlns="http://www.w3.org/2000/svg" width="118.277" height="396.85" viewBox="0 0 459.2 1540.8"  shape-rendering="geometricPrecision" image-rendering="optimizeQuality" fill-rule="evenodd" xmlns:v="https://vecta.io/nano"><path d="M3907.7-21571.1h23478.801V13647.1H3907.7z" fill="#d9dada"/><path d="M365.7 4.4H194L4.4 296.2V438h89.2v774.6H4.4v323.8h450.4v-323.8h-89.1z" fill="#fff"/><g fill="#332b24"><path d="M341 29.1v1208.2h89.2v274.4H29.1v-274.4h89.2v-824H29.1V303.5L207.4 29.1H341zm29.1 1179.2h89.2v332.6H.1v-332.6h89.2V442.5H.1V295L191.7.1h178.4v1208.2z"/><g fill-rule="nonzero"><path d="M229.6 1267.6c29.2 0 55.6 11.8 74.8 31 19.1 19.1 31 45.6 31 74.8s-11.8 55.6-31 74.8c-19.1 19.1-45.6 31-74.8 31s-55.6-11.8-74.8-31c-19.1-19.1-31-45.6-31-74.8s11.8-55.6 31-74.8c19.1-19.1 45.6-31 74.8-31zm0-4.3c30.4 0 57.9 12.3 77.8 32.2s32.2 47.4 32.2 77.8-12.3 57.9-32.2 77.8-47.4 32.2-77.8 32.2-57.9-12.3-77.8-32.2-32.2-47.4-32.2-77.8 12.3-57.9 32.2-77.8 47.4-32.2 77.8-32.2zm76.6 33.4c-19.6-19.6-46.7-31.7-76.6-31.7s-57 12.1-76.6 31.7-31.7 46.7-31.7 76.6 12.1 57 31.7 76.6 46.7 31.7 76.6 31.7 57-12.1 76.6-31.7 31.7-46.7 31.7-76.6-12.1-57-31.7-76.6zm-6 .2c-18.6-17.1-43.4-27.6-70.6-27.6-2.6 0-5.2.1-7.8.3-3.8.3-7.5.8-11.3 1.5l-.8.1c-20.8 4-39.4 14.2-53.8 28.6-7.9 7.9-14.6 17.1-19.6 27.2-11.2 22.8-14 49.3-6.9 74.2.2.5.2.8.5 1.3 3.4 12 8.8 23.2 16.5 33.1l.5-.4c4.7-7.2 13.3-8.1 18.8-10 .4-.1 1.6-.4 3.3-.7 6.3-1.2 12.6-2.5 17.7-6.5 1.1-2.2 3.5-3 4.9-4.9.1.8-.7 1.1-1 1.8l.4.1c.7-.1 1.4-.4 1.7-1.2l-.3-.3c.8-1.1 1.2-2.4 1.4-3.8h.2c.2 1.3-.5 2.5-.8 3.6h.2c.8-.6.7-1.7 1.3-2.2.1 1.1-.8 2-1 3 .2-.1.3.1.5.1.4-.2 1.3-.2 1.3-.9 1.2-2.5 3.7-1.5 5.8-1.6 2.9-1.9 5.2-4.9 5.2-8.7.9.8.1 2.3 0 3.3-.2.7-1.2 1.1-.9 1.8.8-.7 1.3-1.9 1.6-3 .4-.7-.1-1.6.2-2.2.4-.1.5.3.7.6 1.4-.8-.1 1.8 1.3 1.5 0 2.1-1.3 3.7-2.8 5.1-.7.4-1.3 1.4-2.2.9-.8 1.1-3.1.9-2.8 2.9.1.7.6 1.3.3 1.8-.7-.4-.9-1.5-.9-2.4-.3.4-.7 1.1-.4 1.8.1.7.7 1.5.5 2.1-.9-.7-1.2-2-1.3-3.3 0-.6.6-1.2 1.1-1.4h-.8c-1.3 2-.4 4.5.2 6.4-1-1.4-1.5-3.5-1.6-5.4 0 .3-.2.6-.1.7h-.1c-.5 2.4.7 4.5 1.8 6.3-.1.2-.3.1-.5.1-1.6-1.7-1.8-4-2.2-6.3-.6 2.5 1.1 4.9 1.7 7.3-.1.1-.3.1-.5.2.8 2.3 3.6 3.5 4.6 5.7-.4.8.5 1.8.8 2.7-.1 1.9-.2 3.4-.1 5 .1-1 .3-1.9.5-2.7.1-.1.2.1.4.1-.6 2.5.3 4.8.2 7.2.5 1.4 1.3 2.7 1.6 4.2l-.3.1-2-5.2-.7-.5c-1.1-2.5-.7-5.4-.4-8.2l-1.3-2.5c-4.1-2.9-7.6-7.4-7.6-12.6-1.7-.8-2.7 1.1-4.2 1-1.9-1-1.9 1.9-3 2.6-3.5 2.5-7.4 4.2-11.4 5.3-1.3.9-4.4-.6-4.2 1.9-.5 8.8 3.5 15.8 9.3 22.2 1.9 2.8 2.2 6.7 4.1 9.3-.5-2.4-2-4.6-2.5-6.8l.1-.1c1.3 2.2 2.3 4.8 2.9 7.3-.5.8.6 1.6.8 2.1-.1-.7-.9-1.4-.4-2 .3.6.9.9.9 1.6l.6-.2c1.8 3.4 4 7 6.8 9.9.1-.4-.8-.7-.5-1.1 1 .8 1.6 2 2.5 3v.5c-.7-.1-.6-1.4-1.5-.9-2.2-2-3.9-4.7-5.3-6.8.4 1.3 1.6 2.3 2.1 3.7 1.3 1.5 2.5 3.6 4.5 4.2 4.9 1.8 10 3.4 15.4 3.9l-.1-1.3.1.1c.1 2.5 2.8 1.6 4.3 2.1 5.4-3 10.7-7 15.5-11.1v.3c-4.3 4.7-9.5 7.4-14.1 10.8 2.7.3 4.8-1.6 6.9-3 2.7-1.8 5.2-3.7 7.6-6 7.8-6.5 14.1-14.5 20.6-22 1.3-1.1 1.7-3.1 3.4-3.7.2 0 .6.1.4.4-6.6 8.4-13.8 16-21.5 23.5-4.5 3.7-8.4 8-13.3 10.8l-.1.4c1.4-.1 2.8.5 4.1.2 3.9-3.2 8-5.7 11.4-9.4.4-.1.7-1 1.2-.4-3.7 4.1-7.7 6.8-11.6 9.9 1.2.1 1.7-.9 2.6-1.4 2.2-1.6 4.1-3.9 6.1-5.2.2 0 .2.1.2.3-2.2 2.4-4.7 4.6-7 6.4 1.9-.7 3.3-2.3 5.1-3.8h.5c-1.1 1.3-2.5 2.6-3.7 3.8 1.6.1 3.3.1 4.9-.3 2.3-2.2 4.5-4.5 6.7-6.9l.1.1c-1.7 2.7-4 4.6-6.1 6.9l.4.1h.1l4.2-4.2c.3-.4 1.1-.8 1.1-1.1l3.9-4.6.3.2c-2.3 3.7-5.2 6.3-8 9.6h.5c2.4-1.9 4.2-4.2 6.1-6.7.2-.2.4.2.4.4-1.4 2.1-3.3 4.1-4.9 5.7v.4c1.2-.3 1.9-1.8 3-2.3.4.7-.7 1.3-1.1 1.9l.8-.1c.6-.8 1.2-2 2.1-2.3-.3.8-.9 1.4-1.2 2.2 1.3-1.1 2.5-3.1 3.7-4.5l.2.2c-.5 1.6-2 2.6-2.7 4.1h.4c2.1-2.3 4.1-5 5.8-7.7h.2c-.9 2.7-2.9 4.7-4.6 7.1v.4c.3.1.5-.2.8-.2 2.3-2.7 3.8-5.6 5.9-8.2l.2.2c-1.6 2.7-3.2 5.3-4.9 7.9h.5c1.2-1.4 2.2-3 3.1-4.6.1-.2.3-.8.7-.4-.4 1.6-1.4 3.2-2.5 4.6 1.1 0 2-.3 2.9-.8 2.4-4 4.6-8 6.1-12.3h.3c-.7 3.5-2.4 6.6-4.1 9.8-.2.9-1.2 1.6-1.2 2.5h.3c.1 0 .1-.1.2-.1 2.4-3.7 4.2-7.7 5.4-12l.2.3c-.6 4.1-2.8 7.6-4.5 11.3h.2c1.2-1.2 1.9-2.9 2.7-4.5.6-1.4.8-2.9 1.5-4.1l.1.1c-.4 2.9-1.6 5.4-2.9 8h.4c1.3-1 1.6-3.1 2.3-4.6.6-1.5.5-3.3 1.4-4.5.1 3.2-1.3 5.7-2.2 8.7h.4 0c.2-.1.3-.1.5-.2 1.3-3.2 2.5-6.4 2.8-9.9.1-6.3.1-12.6-1.4-18.5-1.3-.2-2.5-.6-3.7-1.4-.8-1.1-1.9-2.1-1.9-3.4-.1-1.7.7-3.4 2-4.6 4.1-2.1 5.2-6.7 6.9-10.4.4-1.1.4-2.5 1.3-3.2l.3.2c-.3 4.3-3 8.1-5.2 11.6 1.2-.3 2.3.1 3.4.3.7 0 .9 1 1.6.7 1.8-1.3 3.7-2.5 5.3-3.7 2.9-3.2 6.9-5.3 8.1-9.4-.1-2.2-2.1-3.6-3.8-5-1.2-.6-1.3.8-2.1 1.5-1 .8-2.5 1-3.9.9-.6-.1-.9-.9-1.7-.8-.9 2.3-3.2 4-5.4 4.5-1.5-.2-3.3.4-4.1-1.1 1.1-.8 2.3.5 3.6-.1 2.3-.3 3.3-2.7 4.8-4.3.1-1.7.7-3.2 1.9-4.6 1-.4 1.7-1.8 2.9-1 .9.3 1.2 1.2 1.2 2-.4.7-.7 1.9-1.8 2.1-.6-.1-.1-.7-.5-1-.3-.1-.7-.3-.8.1l.5.4c.5.3 0 .8-.2.9l-.2-.2c-.3-.2-.8-.9-1.1-.9v.9c.4.6.6 1.4 1.4 1.4 1.1.1 2.3 0 3.1-.9.8-1.3 1.3-3.2 1-4.9-.2-.9-.8-1.9-1.7-2.3-3.6-1.1-3.8 3.1-5.4 4.9-2.1 2.2-4.8 4.6-8.1 3.6-.8-.5-1.7-1.3-1.8-2.3-3.7-1.4-6.1 2.4-8.6 4.4-.5 1.2-1.1 2.6-.5 4 .8.1.8-1.1 1.4-1.6 1.6-2.3 4.5-2.5 6.3-4.6.5-.5-.2-1.1.3-1.5.3 0 .7.2.8.5.4 1-.1 1.9-.9 2.6 1 1.2-1.7.9-.8 2-.2.2-.4.2-.7.4.4.8-.8.8-.5 1.5-.8.1-1.2 1.8-1.8.9-.8.6-1.6-.2-2.1-.5-.1.6-.4 1.3-.1 1.9.3.8.7 1.8 1.7 1.6 1.3.1 2.5-.3 3.3-1.3.4-.4.4-1.3 1-1.4.5.3.3.8.2 1.3.8.1.6-1.2 1.4-.8.1.6-.4.9-.5 1.3-1.7 1.2-3.3 3.2-5.7 2.1-1.2-1.1-2.2-2.4-2.8-3.8-1.3-.4-2.5-1.3-3.1-2.5-.8-1.2-.4-3 0-4.3-1.4.1-3.3 0-4.6-.6-3.5-1.5-4.3-5.2-4.2-8.5.3-.5-1.4-1.2 0-1.2 1.6 2.4.5 5.2 2.7 7.3 1 .1 1.9 1.7 2.9.8.5.2.8.7 1.3.8l.5-.6c.5.7 1.5.4 2.2.4 1.7.3 0 1.3.1 2.1-.1 1.1-.3 2.5.5 3.2.2-2.1 1.7-3.9 3.7-4.8-1.5.1-3-.3-3.7-1.6l.1-.2c2.9 1.6 6-.4 8.8-.7l-3.6-1c-1.2.7-2.5.9-4 .8-.4-.2-1.3-.3-1.1-1.1-.9-1.1-1.9-2.2-2-3.6-.1-.8.2-1.3-.1-2-1.1.1-2.5-1.4-3.3-.1l.5.8c-.2 1.1.7 2.6-.4 3.4l-.2-.2c.3-1.4-.8-2.9-.3-4.2-1.3-.4-2.3-.8-3.8-.8-.6.1-1 .3-1.3.8l-.3-.1c0-.7.8-1.1 1.2-1.4-1.4-.1-1.4 1.4-1.6 2.3-.7-.3-1.3-.4-1.7-1.2-.4-1 .4-1.6 1-2.3 2.2-1.7 4.4.7 6.5 1 0-.5-.3-1.3.3-1.8 1-.4.9 1 1.4 1.4.8.8 1.9 1.1 2.8 1.1-.8-.4-1.8-.1-2.3-1.1 0-.2-.4-.6 0-.8.9 1.2 2.5.7 3.7.6 2.8-1 4.6-3.5 5.8-6.1.7.3.3 1.9 1.3 1.5.3.1.4.5.3.8-.7 6.3 8 6.3 8.5 12 0-.5-.1-1.1 0-1.5-.1-.6-1-.9-.6-1.5 1.7.7 1.2 2.9 1.7 3.9.5-.8.2-1.5.3-2.3-.1-.8-.7-1.5-.4-2.2 1.3 1.1 1.3 3 1.4 4.6.6-.9.6-2.6.4-3.5.1-.9-.9-1.6-.6-2.4 1.3.7 1.6 2.3 2.2 3.4l.1-2.5c.1-.7-1.1-1-.5-1.6.8-.2 1.4.8 1.7 1.1.2-.5-.4-.6-.5-.9l.2-.3c.4-.3.8.1 1.1.4.4-1.2-.1-2.5-.8-3.4-.1.8.6 1.6-.1 2.2-.6-.3-.4-1.9-.9-2.2.1.7.5 1.5 0 2.1-.8-.2-.3-1.3-.9-1.7-.3.2.4 1.6-.5 1.7-.2-1.1-.7-1.9-1.3-2.6-.1.9 1 2 .1 2.5-.7-1.5-1.1-3.4-3-3.8v1.5c.2.4-.1 1.3.5 1.4.1-.7-.1-1.7.6-2 .1.2 0 .6.1.8l.4-.1c.2.6.7 1.3.4 1.9-.9.1-.3-1-.8-1.3.1 1.1.5 2.7 1.3 3.8-.1.1-.1.5-.4.4-2.2-4-8.4-4.4-8.4-9.6-.6 0-.8-.5-.5-1-.2.2-.3.7-.8.6-.4-1 1-1.6 1.3-2.6.5-.5 1.4-.5 1.9-.9-.4-.6-1.1-1.1-2-1.1-3.9-.7-5.2 3.4-7 5.8-2.2 2.9-6.6 2-9.6 1.8-.3-.1.1-.3.1-.5 2.2 0 4.4-.1 6-1.3.3-.1.6-.6.2-.8-5.2 0-10.6-1.7-13-6.5-.4-1-1.4-1.4-1.6-2.5.4-.9-1.1-1.6-.8-2.5l.4.2c-.1-1-1-1.7-1-2.6l.2.1c2.5 3.4 4 7.4 7.5 9.7-1.1-.4-2.5-1.3-3.2-2l-.1.1c1.5 2.4 4.5 3.7 7.3 4.5 1.9.3 4 .1 5.7.9.7-.7 1.3-1.6 1.5-2.4-2.6.8-5.2-.4-7.1-2.1l.2-.2c2 1.4 4.7 2.2 7.2 1.6.9-.2 2.2-.3 2.5-1l-4.5.1c-3.4-.1-5.9-2.5-8.2-4.8l-.4-.9c-8-8.4-15.4-17.8-24.4-25.8l-.7-.2c0 5.5 4.2 9.8 8.1 13.3.4.2.2.8-.2.8-1.7-.9-3.3-2.2-4.5-3.7h-.4c-.3 1.1.8 1.8.9 2.8 1.3 2.8 4 4.6 6.5 6l.4-1.4c-.8-6.1-9.7-9.4-9.6-16h.4c.7 1.9 1.6 3.7 2.9 5.2 2.2 3.2 6.4 4.7 7.3 8.6.1 1.4.4 3.2-1 4 2.3 1.7 4.2 4.1 5.7 6.4l-.2-1c.8.5 1.1 1.3 1.5 2-.7.3-.7-.7-1.1-1.1.7 2.9 2.7 5.1 4.5 7.2-.1 1.1 1.3 1.4 2 2l-.2.1c-1.9-.5-3.4-2.3-4.7-3.7-1.4-1.4-1.6-3.5-2.8-4.8v.4c-.1.7-.3 1.6-.3 2.1l.1-.1c.2-.1.4.1.5.2.8 5.1 5.6 8.7 10.1 10.4v.4l-1.3.1c-3.8-1.1-7.2-4.7-9-8.1l-.2.2c.7.6-.3 1.3-.1 1.9 1-.8.7.7 1.4.8-.4.6-.4 1.3-1 1.8 1.2.4.4-1.4 1.3-1.5 0 .7-.4 1.9-.8 2.8l-.2-.3.1-.1-.4-.4c-1.1.7.5 1.1.5 1.9-.6 1-.2 2.2-1 3 0-.7.1-1.6.1-2.4l-.2-.1-.4.8c-.4.3-.6-.1-.8-.2-.7.1-.8-.6-1.4-.4l-6.8-4.1c-.4.6.2 1.3.7 1.7a3.4 3.4 0 0 1-1.5-.7c-1.1.4.4 1.5-1.2 1.5l-.1-.6h-.2c.1.1-.1.2-.1.4.8 1.2-1.4.7-.7 1.9-3.2-.8.6-3.5-1.1-5.1.8.1.5 1.5 1.4 1.2.2-.6-.5-1-.3-1.5.7.5.7 1.6 1.1 2.3l.2-.1c.3-.5-.4-.7-.4-1 .6-.7 0-1.9.8-2.4.4.3-.3.6.2.7.4-.7.7-2 1.3-2.3-.3 1.5-1.6 2.9-1.3 4.4.7-.1-.3-1.3.6-1.6.6-1.7 2-3.4 1.4-5.3-.2.3 0 .8-.5.9l-.5-.5c-.4.5-.4 1.5-.9 1.5.7-1.3 0-2.9 1.3-4.1.7 0-.4 1.2.3 1.8.4-.4.2-1.4.5-2 .4.6-.1 1.9.5 2.2 0-1.1.2-2.2.8-3l.1.1c-.5 1-.5 2.5 0 3.2-.2-.6 0-1.4.1-1.9.4-.6.9-1.6 1.7-1.7.7.4.3 1.7.3 2.3-.5-.4.2-1-.3-1.8h-.2c-.4.7-.5 1.1-.6 1.9s.5 1.7 1.3 2c1.1.3 2.5 0 3.2-1.1.5-.9.8-2.3.5-3-.5.5.2 1.8-.8 2-.4-1.3.6-2.4.5-3.7-2.8-4.4-8.4-4.9-11.1-9.6-.8-1.7-1.9-4-.7-5.8-1.4-2.2-3-4.4-3.4-7-.3-1 .7-2.9-.4-3.7-1.2 3.5-.1 8.2 2.9 10.8l-.2.3c-.2.4-.6.4-.9.1-.1.4.1.7.2 1.1.1 0 .6-.4.8 0-.6 1.5.5 2.5.8 3.8 1.1 2.9 3.8 4.2 6.1 6.2-.4 1-.3 2.6-1.2 3.7-.2.1-.7.4-.9.1.7-1.1 1.6-2.8.8-4-.3.5-.2 1.3-.5 1.8-.6.8-.8 2.2-1.9 2.2-.1-.4.8-.7.4-1.3-.8.8-1.6 1.4-2.7 1.9-1.8 2.3-5.2 3.4-5.7 6.6-.1 1.2.1 2.5 1 3.3.4.1 1.1.5 1.3 0-.7-.5-1.2-1.2-1.3-2.1-.1-1.9 1.2-3.1 2.4-4.2.5 0 .9-1.1 1.4-.3-.9.7-1.9 1.4-2.5 2.4-.4.9-.7 2.8.3 3.1-.3-3 2-5.4 4.4-6.9.4-.1 1-.7 1.3-.2-.2.2-.4.3-.7.3-1.8 1.1-3.4 2.7-4.3 4.6 0 .9-.9 2.8.7 2.5-.7.7-1.2 2.2-2.6 1.7-1-.2-1.7-1.3-2-2.2-.8-2.3.8-4.5 2.4-6 1.7-1.4 3.7-2.6 4.5-4.5.1.3.1.4.1.8 1.3-.7 2-2.4 1.8-3.7-.2-.6-.1-1.7-.8-1.7-.4 1.3-1.3 2.5-2.4 3.4-.7.3-1.6 1.3-2.2.7.4-.5 1-.4 1.5-.8 1.2-1 2.8-2.5 2.5-4.1-1 2.3-3.5 4.7-5.7 5.4-.9.4-1.4 1.3-1.3 2.3.3.4.6 1.1 1.2.9.3-.1.1-.7.1-.9.3.2.8.2 1.1 0 .2.1.3.4.5.7-.9.6-1.1 2.3-2.5 2-.9 0-1.7-.5-2.2-1.3-1.5-4.9 5.2-5 6.8-8.7 0-.9.9-1.9.3-2.8 0 1.8-1.3 3.2-2.3 4.6-.4.1-.7.9-1.1.4 1.1-1.3 2.3-2.5 2.3-4.3-.3.9-1 2.2-1.9 3-.2 0-.4.1-.5-.1 1.3-1.3 2.5-3.1 1.7-4.8.2-1.8.7-3.3-.1-5v.4c.6.3-.2 1.1 0 1.7 0 2-1.3 3.2-1.6 5.2l.9-.9c.3-.3-.3-1.3.5-1.1.3.9-.1 1.9-.8 2.6-1.2-.3-1.1 1.5-2.2 1.8.1 1.6-1.7 1.9-2.5 2.8-.5 1.7-2.1 3.8-.8 5.4l-.1-2.3c.2-.5.4-1.4 1.1-1.5.5.4-.4.7-.4 1.1-.3 1-.1 2.2.6 2.8.2.4-.3.6-.4.7-.5.4-1.1 0-1.6-.3l-.1.6c-1-.2-1-1.5-1.4-2.2-.1-1.2-.1-2.4.7-3.3l-.4.2c-1.2 1.9-1.2 4.7.1 6.6-.5.5-.7-.4-1.1-.7-1.4-1.9-.6-4.4.3-6.2h-.5c-1.3 1.4-1.2 3.8-.8 5.7.4 1.1 1.1 2 2.2 2.2l-2.2 3.3c-.8 1.9-.9 4.6.7 6.2-.4.3-1 .5-1.5.7-1.8-.6-1.6-2.9-1.9-4.2l.4-.2c.3-1.5.5-3.1 1.9-4l.2.1c-1.1 1.7-1.8 3.8-1.5 6.1.1.5.5 1.5 1.2 1.3-.4-1.1-.7-2.2-.8-3.4-.1-2.3 1.7-4 2.6-5.8-2.4-.7-2.5-4-2.7-5.5-.7 1.2.1 2.8.1 4h-.4c-.9-1.6-.9-3.8-.3-5.7-1.6 1.2-1 4.5-.4 6.3l-.3.2c-.9-1.3-.8-2.9-1.1-4.4-.9.9-.3 2.6-.2 3.7h-.2a2.61 2.61 0 0 1-.7-1.7c-.4-2.1 2.1-2.8 2.2-4.7-.6.6-1.4-.1-1.7.5l.8.2c-1.9 1.4-1.7 4.5-1.2 6.5h-.2c-1.2-1.6-1-4-.1-5.7h-.3c-1.1 1.6-.7 3.3-.7 5 .1.9 1 1.6 2 1.5.1.3-.3.3-.3.5-.9.4-1.5-.4-2.1-.8-.8-1.9-.3-4.3.3-6h-.2c-.1.2-.1.4-.4.5-.5 1.7-.8 3.7-.1 5.3-.9.3-.8-1-1.3-1.3-.4-.8.2-1.7-.2-2.4-.5.8-.4 2 .2 2.7-.1.3-.4.1-.7.2-1.5-1.2-.3-2.9 0-4.4-.1-.2-.1-.3-.5-.3-.2.1-.4.2-.4.4.1.1.3.2.3.4-.8.5-1 1.6-1.3 2.3-.7-.5.2-1.3.1-1.9h-.2c-.4.5-1.1 1.1-.9 1.8-1-.1 0-1.3-.2-1.8-1.1 0-.8 1.2-1.1 1.8l-.3-.1c-.2-.5.1-1.1.2-1.6-.9.2-1.3-1.2-2.1-.1-.9.7-.6 2.1-.6 3.2-.1.5.9 1 .1 1.2-.9-.6-.8-1.6-.8-2.6-.8.1-1.6-.5-1.3-1.4-.3.6-.1 1.5-1.1 1.5-.2.8.1 1.6.1 2.4-.1.3-.4.1-.5-.1-.9-1.4.4-3 .9-4.2 0-.3-.4-.3-.5-.5-.9 1.2-1.3 3.4-.8 4.8l-1.4 1.4c1.1.1 2.1-.1 2.8-.6-.1.7-1.1.5-1.1 1.1.8.1 1.7-.7 2.4 0-.5.4-.7.6-.8 1.1 1.8-.1 3.2-1.3 4.7-2.2l.1.2c-1.4 2.8-5.2 1.6-6.5 4.6-.5.7.5 1.9-.8 1.9v1.2c-1.5-.8 0-2 .1-3.2-1.1.5-.8 1.7-1.4 2.6l-.3-.2c0-1 .4-1.9.8-2.5-.4.5-1.4 1.1-1.4 1.9-.2.2-.4 0-.5-.1.3-1 1-1.9 1.7-2.6-.5.3-1 .5-1.4.9-.5.3-.1 1.4-.9 1.1.4-1.9 2.9-3.5 4-3.7-1.3.2-2.5 1-3.5 1.7-.6.2-.3 1.1-.9.9.3-1.4 2-2.6 3.4-3.1-1.4.1-2.5 1-3.7 1.6l-.2-.1 1.6-1.7c-1.7.3-3.4.4-4.8 1.7-.3-1 1.4-1.4 1.9-2-.9-.5-1.7.2-2.6.1.1.4-.1.7-.5.8-.7 1.4-1.5 3.3-.4 4.6v-.3c-.1-.4.1-1 .5-1.1l.2 1.4c-1 0-.5.9-.6 1.3-.5.1-.7-.4-1.1-.7-.8-1.6-.4-4 .8-5.4 2.2-3.5 6.4.9 9-2.5 0-.1-.1-.1-.1-.2 0 .1-.2.1-.4.2-.7-.6-.8-1.4-.7-2.3-.1-1.6 1.4-2.6 1.5-4.1 1.4-4.5-3.4-7.4-2.4-11.7.3 0 .3.1.3.3 0-.4.2-.8 0-1.1 0 .7-.7.9-1.1 1.3-1.2.6-2.2-.2-3.2-.7-1.1 1 .6 1 .5 2 .7-.7 1.1.5 1.3 1 .1-.1.3-.2.5-.2.1 1 1.3.8 1.3 1.7-.1.1-.2.3-.4.2 0-.1-.1-.1-.1-.2l-.6.4c-.9-.6-1.7-1.1-2.7-1.4-.5.6-.1 1.7.2 1.9 1.8.7 3.5 1.9 3.4 2.9.1.5-.3 1.7-1 1.6-1-.1-3.4-.6-4.7.4-.5.7-1.1 1.5-.5 2.3.6-.6.4-1.8 1.5-2.2.4-.1 1.2-.4 1.3.1-.5.3-1.3.8-1.5 1.4 0 .6-.5 1 0 1.6l.1-.1v-.9c.3-.8 1.1-1.4 1.8-1.5.5.5-.6.8-.6 1.3-.3.4-.4 1.2.1 1.5.1-.7 0-1.4.8-1.8.1 0 .4-.1.5.2s-.2.4-.3.6c-.1.5-.1 1.1.3 1.5.5-.3-.3-.9.4-1.2.1-.1.4-.1.5.1-.6.6.4 1.2.1 1.8-.7-.5-1.6.7-2.2-.4-1.5 1.2-2.8-1.1-4.5-.1-1 .7-2.1 1.5-2.4 2.7h.5c-.1.5-1.1.8-.7 1.4l.5-.2.1 1.3.8-.9c.3.1.1.5-.1.7-.2.4-.3 1 .1 1.4l.5-.4c.1.5.2 1.3.8.9v.9c-1.1-.4-2-1.5-3.1-1.1-.8.7-.5 1.7-.3 2.5-.1-.6.1-1.3.5-1.6.4.4-.1 1 .1 1.4-.1-.1-.1-.1-.1-.2-.4 1.9 1.7 1.5 2.3 2.7.1.5.2.9-.1 1.3-.9 0 0-1.1-.8-1.3-.8-.7-1.9-.9-2.8-.1a2.47 2.47 0 0 0-.5 2.2c.4.5.6 1.4 1.3 1.5 0-.4-.7-.8-.4-1.2.8-.1.6.8 1.2 1l-.1-1.3h.5c1.9 1.6.5 5 3.2 5.8-.1-1.8-.4-3.7-1.9-4.8.1-.1.2-.2.4-.1.7.5 1 1.1 1.1 1.9 1 1 .7 2.5 1.4 3.6.9.4 1.9 1.2 2.8.6l-1.7-.7c-1.1-.8-.5-1.9-.8-2.9.5.8.7 1.7 1.4 2.4.7.1.9.8 1.7.1-.4 0-.8 0-.9-.4.4-.3 1-.2 1.5-.1.1.2-.3.4-.1.3 1.2.1 1.3-2.2 2.5-1.1.2-.8.4-1.6.9-2.4l.2.1c-.3 1.3-.5 2.4-.7 3.8.4.1.2.5.1.8 0 .4-.5.7-.8.4v.5c.3 1 1.3 1.4 2.2 1.4-.1.3-.1.6-.4.8-.5.8-.3 2 .4 2.7-.3-.8.1-1.6.7-2.2l.2.2c-.1.8.4 1.4.8 2-.7.3-1.6 1.6-2.3.5-.6-.8-1-2.1-.5-3.2l-.8-.1c-1.1-.4-1.6-1.7-1.8-2.7-.3.2-.6.4-1 .5-1.7.8-3.1-.7-4.5-.5-1.9-.4-3.1-2.3-3.5-4.2-1-.3-1.9 0-2.8-1.2-1-1.5-.9-2.9-.4-4 .3-.7.9-.4.7-1.1-.8-1.1-1.2-2.7-.4-4 .2-1 1.8-1.2 1.3-2.5.3-1.9 1.6-4.2 3.8-4.8.6-.4.1-1.3 0-1.7 0-2.2 1-2.5 2-2.9 1.3-.2 2.7-.1 4.3.2.5-.1.6-.6.4-1.2-.4-1-3.4-1.7-3.8-2.6-.6-.7.1-4.3.1-6.7-.5-.2-1.2-.5-1.7-.2-1 .4-2.2.2-2.7-.6-2.5-3.8 4-6.7 5.6-10.2 2.1-3.2 5.6-5.9 7.5-9.3.6-1.9.6-3.8 1.8-5.5-3.4-3-8.5-7.2-12.1-10.8-3.6-3.7.2-5.2.2-5.2 2.7-1.1 4.9-2.1 7.3-3.1 4.2-1.4 8.2-3.1 12.5-4.1l1.5-2.4c2.4-2.6 6.1-2 9.1-3 2.9-1.5 6.5-1.6 9.7-2.4 1.4-.5 3-.2 3.7-1.9 6.1-1.2 12.3-1.9 18.1-3.9.9-1.3 2-3.1 3.9-3 5.9 1 12.6 1.1 18.5 1.7 2-.4 4.3-1.5 6.4-.4 3.1 1.3 5.7 4 6 7.5 1.7 3.5 5.1 6 9 6.3 2.4-.2 0-2.3.2-4.4.2-2.7 2.2-4.7 4.4-5.5 5.4-2.1 11.7-.8 16.6 1.1 11 5.1 16.1 17.1 16.1 28.7-.2 6.9-1.9 13.4-5.1 19.3-2.6 6.7-9.9 14.6-14.6 16.9-.9.6-2.2 1.2-3.5 1.8h29.1v34c0 4.6-1.7 8.9-4.9 12-2.9 3-6.7 4.7-10.8 5v.1h-1.9c-4.1-.2-7.9-2-10.8-5-3.1-3.2-4.9-7.5-4.9-12v-32.3c-1 .4-1.7.6-1.9.7-5.9 2.2-13 2.1-19.3 1.1-1 1.2-2.3 1.7-3.4 2.7-1.1 1.8.8 3.3 1.3 5 .3 1 .4 2.1-.2 2.8-.7 1.7.4 3.1 1.4 4.2 2.5 2.2 4.3 5.3 4.3 8.7 1 .2 2.1-.1 3.2 1 .9.9 1.1 1.3 1.6 2.1.5 1.4.8 2.6.1 4-.3.6.1.5.8 1.1 0 0 3.9 3.7 4.2 4.2.9 1.5 2.2 3.2 3.7 4.3.5.4 2.5 3.3 2.9 4.9.9 3.2.3 5 2.2 6.4 1.7 1.3 6.4 7.6 8.9 12 .6.8.5 2 1.3 2.6.9-.8 1.8-1.7 2.7-2.6 9.1-9.1 16.5-19.9 21.8-31.8 2.5-5.7 4.5-11.7 5.9-17.9l.3-1.8c5.5-25 1.3-52.2-11.5-74-.8-1.5-1.7-2.9-2.6-4.3-2-3.1-4.1-6-6.4-8.8l-.1-.1-.4-.5-.1-.1c-3.1-3.7-6.4-7.3-10-10.6zm-141 153.1a98.24 98.24 0 0 0 8.6 7.1c2.7 1.9 5.4 3.7 8.1 5.3 2.2 1.1 4.3 2.8 6.6 3.3-1.6-3.3-3.6-6.4-4.2-10-1.3-4.9-5.3-8.8-8.1-13-2.4-4.9-5.2-10-4.6-15.7l-.8-.1c-3.2.8-6.3 1.4-9.3 2.5-3.3 1.5-6.9 3.7-8.5 7.2.3 1 1.1 1.6 1.7 2.5.9 1.1 2.2 2.5 3.3 3.3l-2.3-4.5.1-.2c1.5 2.2 2.5 4.5 3.8 6.7 1.7 2 3.6 3.9 5.5 5.7zm102.8 22.2l.2-.1c2-2.8 1.8-6.7 3.1-9.6.7-4.2.1-8.8-.2-13-.8-1.3-.2-2.7-1.2-4-.2-.4-.4-1.1-.1-1.5.7-.3.8.7 1.4.9 4.2 7.1 4.4 16.2 4.4 24.2.2 0 .3-.1.5-.1l4.7-2.1c-.5-6.1-2.5-12-4.9-17.1.2-1.6-1.6-.8-2-2.1.2-.6.8.1 1.1-.1-.7-.3-1.4-.7-1.9-1.2l.4-.3c-.3-.4-1.1-.2-1.1-.8l1.3-.1c-.5-.5-1.4-.3-1.8-.8l1.2-.2-1.7-.3c-.5-.5.5-.5.4-.8l-2.6.9c1.6 8.7 2.6 19.7-1.1 28.2zm3-1l.3-.1c.5-.9.5-2.2 1.1-3.1.5.5.2 1.2.3 1.8 0-.1-.1-.2.1-.3.5-.4.9.3 1 .6.2-.1-.1-.5.2-.8.2.2.4.3.6.3 0-.6-.6-1.1-.9-1.5.1-.1.3-.3.5-.1 0-.2-.2-.4-.5-.7 0-.2-.2-.6.1-.8.5-.1.7.3 1 .5l-1.2-2.1c.1-.2.4-.4.5-.2 0-.4-1.1-.8-.4-1.3.7.1.8.8 1.3 1.1-.3-.9-.9-1.7-1.5-2.4 1.3-.3-.7-.9.4-1.4-.4-.3-.7-1-1.2-1.1-.4 1.8 0 4-1 5.4.3 2.2-.1 4.1-.8 6h.1zm10.8-4.6l.1-.1c.2-.2-.1-.9.5-1l.4.5.4-.2c.1-3.3-.9-6.3-1.6-9.2.2-.1.3.2.5.4 1.1 2.7 1.5 5.6 2 8.4h0c0-2.4-.3-5.2-1.1-7.6l.1-.2.4.3c.8 2.1 1 4.7 1.3 7l.4-.2v-.1c.1-2.1-.6-4-.4-5.9 1.2 1.6.7 3.6 1 5.5h.2l.2-.1c.4-1.5.2-3.6-.2-5.2l.2-.3c.8 1.4.8 3.2 1 4.9h0c.4-.2.8-.5 1.3-.7.2-.1.3-.2.5-.3-.5-1.3-.3-2.8-.5-4.2l.2-.1c.6 1.2.6 2.9.7 4.1l.9-.5c.4-2.1-.6-4.1-.6-6 1 1.6 1.1 3.6 1.3 5.6l.3-.2c.5-.6-.1-2-.1-2.8-.1-1.5-.9-2.8-.7-4.2 1 1.3 1.2 3.6 1.3 5 .4.2.1 1.2.5 1.3l.3-.2c0-2.4-.2-4.9-1.1-7.2.1 0 .1-.2.3-.1 1.2 1.9 1.3 4.1 1.6 6.4h.5l-.5-4.7c-.1-1.2-.8-2.5-.8-3.9.9.4.8 1.6 1.2 2.5.6 1.8.5 3.9 1.1 5.4h0c.3-2.8-.5-5.3-.7-8.1 1 .4.6 1.8 1.1 2.7.2 1 .2 2.4.8 3.3l.4-.5c.1-.5-.4-.7-.8-1-.2-.5.4-.2.5-.5-.2-2.5-.8-4.9-1.3-7.5.3-.1.4.3.6.4.6 2.2.8 4.4 1.5 6.6.1.2.3 0 .5 0 .1-.7-.3-1-.4-1.5.4-1.3-.2-2.7-.5-4l.1-.3c.6.5.8 1.4.9 2 1.8-.3 3.2-1.7 4.7-2.5l.4-.7-3.1 1.9c-.5.2-1.3.8-1.7.3 1.4-1 3.1-2 4.2-3.2-.9.4-1.9 1-2.8 1.4-.3.1-.5-.3-.4-.5.7-.4 1.5-.9 1.9-1.4-.9.3-1.6 1-2.5.9.3-1 1.9-1.1 2.2-2.1-.8-.2-1.3.8-2 .9-.6-1 1.6-1.1 1.5-2.2-.6-.2-.8.5-1.3.5-1.2-.6.7-.8.6-1.4-.4-.9-.7.5-1.2.4-.4-.1-.5-.5-.3-.8-.8-2.5-3.1-4.6-3.9-7.1 1.3 1.2 2.4 2.8 3.1 4.4l.5.1c-1.1-1.9-2.3-4.1-4.1-5.4-5.1 2.9-10.8 4.5-16.7 5.5-.5.6-1.4.8-2.3.8-.7.7-1.3 1.4-1.7 2.3 4.2 3.7 4.9 9.2 6.7 14 1.3 3.2 1.5 7 2.2 10.2h.1zm13.9-8.3l.7-.5v-.1c-.1-.9-1 .1-.7.6zm1.6-1.1l.2-.2v-.1l-.3.3zm5.2-4.1l2.1-1.8v-.2c-1.3 1.1-3 2-4.5 2.7 0 .2-.5.5-.2.7.9-.3 1.8-.8 2.6-1.3zm-52.8-99.9l-1.1 2.7c.1-1.2.8-3 1.4-4.4.2.4-.1 1.2-.3 1.7zm13.6-3.1c-.3.1-.4-.2-.4-.5l.3-.5c.3.4 0 .5.1.9zm6.4 4.2c-.7-.1-1.4-.7-1.8-1.3l.1-.2c.5.3 1.4 1 1.7 1.6zm9.9-4.9c-.2 1.1-.7 2.2-.4 3.4-.5.1-.4-1.1-.6-1.3.4-.4.2-1.7 1-2zm1 6.8l-1-2.1.3.1.8 2zm1.6-4.6c-.1.1-.2.1-.3.1l.2-.7c.1.1.1.4.1.6zm.5-2c.1.3-.1.5-.3.7h-.1c.1-.2 0-.7.4-.7zm-16.1 38.2c.5.4.7 1 .5 1.6-2.3-.8-4.6-2.3-7.3-2.4.7-.5 1.7-.1 2.5 0 1.5.2 2.7 1.3 4.1 1.5-1.9-1.7-4.3-2.4-6.6-2.8.7-.1 1.9-.1 2.8.3 1.5.4 2.7 1.3 4 1.9zm-4.3-7.3c-.4 0-1-.1-1.3-.5-.1-.4.7-.1 1 .1.1.1.3.2.3.4zm-9.1-8s-.9-1.4-2.2-2.2 4 6.1 7.8 7.7c0 0 1.3.7.2-.2-1.9-1.5-4.1-3.3-5.8-5.4zm5.2 26.5c-.6 1.7-1.7 3.6-3.6 4.2-.9.3-2.2 1.2-3 .1 1.6.4 3.1-.5 4.4-1.4 1-.9 1.4-2.1 2.2-3zm-4 3.1c.9-.5 1.8-1.4 2.4-2.1-.6.9-1.3 1.9-2.4 2.1zm7.5-7.6c-.1.6-1.2.3-1.7.6-1 .4-1.6 1.6-2.4 2 .3-1.1 1.3-2.3 2.5-2.8.5.1 1.1-.1 1.6.2zm-16-13.8c.6.1.3-.7.3-1l-1-1.5c.1 1.1 2.3 1 1.2 2.5l-.5.4c-1.5-1.5-2.6-3.5-4-5.3 1.3 1.6 2.5 3.2 4 4.9zm-4 5.3s-.6-.3-.5-.6c.3.1.4.4.5.6zm4.1 7.6c-1.5.1-2.8-1.8-3.9-2.7-1.8-2.2-3.4-4.4-4.3-7.1 1.9 3.3 4.5 7.6 8.1 9.8zm-8.6-10.2h-.2l.2-1.1c.1.3.1.8.1 1.1zm-2.6-.3v-1.2l.2.1-.2 1.1zm1.8-.1c-.3-.5 0-1.3 0-1.9.4.5 0 1.4 0 1.9zm-3.2-1.2c0-.5-.4-1.5 0-2.2.3.7.3 1.4 0 2.2zm2.3-2.7c0 .8.5 1.8.2 2.8-.5-.7-.4-1.9-.4-2.8h.1zm-.5 1.1h-.1l-.5-2.8c.4.9 1 1.7.6 2.8zm10.4 10.2c-1.1-1.1-2.5-2.1-3.2-3.6l4.1 3.8-.8-.2zm-.1 4c-2-.2-3.1-1.9-4.4-3.3-1.4-1.9-2.9-3.8-3.7-5.9 2.5 2.9 4.3 7.1 8.1 9.2zm-2.7-5.1l.1-.1-2.8-4.6c1.7 2.2 3.7 5.4 6.4 7.1-1.4.2-2.2-1.5-3.2-1.9l3 3.1c-2.6-1.1-3.9-3.5-5.7-5.7-.4-.9-1.3-1.6-1.3-2.7.9 1.7 2.4 3.4 3.6 4.8zm-20.1 6.7c-.3-.4.1-1.1.6-1.5l-.6 1.5zm-1 0c.1-1.1.7-1.9 1.3-2.7-.3 1-.8 2-1.3 2.7zm.6-3.4c-.8 1-1.2 2.4-1.5 3.7-.3-1.3.8-2.7 1.5-3.7zm-.3-.8c-.7.9-1.2 1.7-1.6 2.8-.2-1 .8-2.2 1.6-2.8zm10.8-1.1l-.3.3c.1-1.5.1-2.9.6-4.3.4 1.4-.3 2.5-.3 4zm-1.2.2c0-1.5.3-3.2.8-4.6l-.5 4.4-.3.2zm-.4-.3c-.2-.1-.2.2-.3 0-.2-1.1.4-2.7-.2-3.6l.5-.9c.8 1.4-.4 2.9 0 4.5zm.1-5c-.5-.3-.9.7-1.3.5l.7-1.3.6.8zm-1.9.4l-.4.4c0-.1-.2-.1-.1-.2.8-.6.4-1.6.8-2.3.3.7.1 1.4-.2 2.1zm-.9-.8c-.1.6-.5 1.3-1.1 1.4.4-1 1.1-2.2.7-3.4 1 .2.5 1.4.4 2zm2.5 20.1l-.2-.2h.2v.2zm-.5-3.2l-.3-.1h.1l.1.1zm-4.9-1.1c-.2.1-.7.1-.8-.3.2-.4.5-.1.6 0 0 .1.1.2.2.3zm8.2 4c-.9-.2-2-.7-2.5-1.2 1.1 0 1.7.8 2.5 1.2zm-.1-1.7c-.5.5-1.5-.3-2.1-.6.4-.2.9.2 1.3.1.1.4.5.4.9.5zm-13.7 20.5v.1l-.2-.1c.1 0 .2-.1.2.1zm1.6-.4l-.2-.3h.2v.3zm-1.1-.8c.1.1 0 .1-.1.2-.3 0-.6-.3-.4-.4s.3.1.5.2zm1.7-.6v.2l-.4-.2c.1 0 .3-.1.4.1zm-1.5-.5l.1-.1.1.1h-.1zm1.8-.8l.1-.1.1.1h-.1zm-1-.4l-.2-.1h.2v.1zm1.8-.6l-.2-.3h.2v.3zm-1.3-.8h-.4v-.1c.1-.1.2.1.4.1zm.5-1.1h-.4l.1-.3c.1.2.3.1.3.3zm.5-1.2l-.1.1-.2-.2c.1 0 .2 0 .3.1zm-5 0c-.2-.3-1-.3-1-.8l1 .8zm5.4-1.1l-.4-.1h.3l.1.1zm-3.1-.2v.1l-.3-.1c.1 0 .2 0 .3.1zm4.6-.7l.2.2-.2-.2zm-1.1-.5c.1.2-.2.2-.4 0h.4zm-3 .1h-.3v-.3c.1.2.2.2.3.3zm.5-1.4v.1l-.3-.2c.1 0 .3 0 .3.1zm1.9-.6l-.2-.1h.2v.1zm-1.3-.8v.1l-.4-.2c.1.1.3 0 .4.1zm3.7-1.2v.1l-.3-.2c.1 0 .2 0 .3.1zm1.7-.6c-.1.1 0 .1.1.1l-.1.1-.2-.2h.2zm-3 .1c-.2.1-.4-.1-.4-.4.2 0 .4 0 .4.4zm-3.2-.3l-.4-.1.1-.2c.1.1.3.2.2.4zm5-.1c-.1 0-.4 0-.4-.3.1 0 .3.2.4.3zm-3-.4v.1c-.3.1-.5-.1-.5-.3.2 0 .3.1.5.2zm1.3-.4l-.1-.2.3.1-.2.1zm-2.8-.5v.1h-.3v-.2c.1 0 .2 0 .3.1zm5.2-.1c.1.1-.3.1-.3.1l-.1-.4c.2-.1.5.1.5.3zm-3.3 0c-.1.1-.6-.1-.4-.3.1.1.3.1.4.3zm1.6-.7l-.4-.1h.3l.1.1zm.4-1.4v.1l-.3-.1c.1 0 .2-.1.3.1zm1.9-.4l-.1-.3.2.1-.2.2zm-2.8-1.7l-.4-.1c0-.2.4-.1.4.1zm-22.7 8.6a1.75 1.75 0 0 1-.7 1.4c.2-.3.2-1.1.7-1.4zm-2.7-1l-.1-.1c-.1.1-.1.4-.1.6.6-.8-.5-1.7.1-2.4.4.5.1 1.2 0 1.9zm-9.9-2.8h-.1v-.4c.1.1.2.2.1.4zm-4.7-1.6c0 .6-.8.4-1.1.5 0-.1-.1-.1-.3-.1.3-.4.8-.4 1.4-.4zm-2.7.3l-.5-.5.1-.1c.2.1.2.4.4.6zm2.8-.9c-.2.4-.8.5-1.3.3-.2-.4 1-.4 1.3-.3zm-2.5.2l-.1-.4h.1v.4zm4-.8c-.1.3-.3.5-.6.4-.1-.1.4-.4.6-.4zm2.6-.1c-.5 1.1-.3 2.7-.5 3.7-1.1-.7-.2-2.1-.1-3.2.3-.1.1-.6.5-.5zm-1.1 2.7c-.4.4 0 .7-.1 1.2h-.2c-.5-1.5 0-3 .6-4.3.1 1.1-.5 2.2-.2 3.1zm-2.1-2.8l.1-.3.1.1-.3.2zm6.9-1.7c-.3.1-.7.5-1.1.2l-.4-.8c.5.2.8.9 1.4.5zm-1.2.6c-.9.3-1.2-.7-1.3-1.4.1.3.7 1.2 1.3 1.4zm-5.5-.8v-.6l.3.6h-.3zm4.2 1.1c-.3.3-.6-.2-.8-.3-.1.4-.5.6-.9.7-.1.1.4-.8 0-1.1-.2-.3-.7-.1-.8-.5.8-.3 1 .5 1.5.9v-1.7c.1.7.4 1.5 1.1 2zm-3-.9c-.2.1-.3.1-.4-.1-.1-.4-.2-.8.1-1.1 0 .4.1.8.3 1.2zm-1.9 0c-.7.4-.6 1.3-.7 1.9-.8-.1-1.6-.3-2.5-.6v-.2c.6-.2 1.1.1 1.7-.2-1.1-.2-2.5-.5-2.7-1.8.7-.3 1.3 1 2.2 1 .6.2 1.3-.1 1.9 0zm-.7-1.1l-.1.1-.3-.7c.3.1.3.4.3.5zm-9.4-.3l-1.1-.2c.1-.5 1.1-.2 1.1.2zm13.4-.7v.3h-.1v-.4l.1.1zm3.2-.8c-.5 0-.2-.5-.1-.8.2 0 .4.5.1.8zm-8.8-1.5c.3.7-.8 1.5.2 1.9 0 .4-.4 0-.4-.1-.7-.5-.4-1.7.2-1.9zm8.5-.9c-.5.5-.5 1.6-.4 2.3-.4.1-.5-.4-.5-.9.2-.6.4-1.1.8-1.4zm4.5 3.9c-.4-.1-1.4-.1-1.6-.6.4.5-.4.5-.7.6-.6 0-.8-.7-1-1.1-.2-.8 0-1.7.4-2 0 .8-.4 1.7.3 2 .3-.4-.1-1.4.5-1.3.1.4-.2 1.3.3 1.7.2-.3-.1-1.1.5-1.3.2.4-.1 1.4.7 1.6 1-.9 1.3-2.7.9-4 .8 1.2.4 3.2-.3 4.4zm-14.1-4.4c-.8 1.1 0 2.5-.3 3.4-.2.4-.7.6-1.2.4-.2-.2-.1-.5-.1-.8.3-.2.4.5.7.3.4-1.1-.5-2.5.8-3.2zm9.3-.4c-.8.8-1.3 1.8-.9 2.8 0 .2.3.4.1.7-.9-1-.3-2.2.1-3.3.1-.1.4-.3.7-.2zm-15.3 1.3c-.4-.2-.3-.9-.2-1.3h.2v1.3zm26.5-3.7c-.6.3-1.1.6-1.6.8-.5.7-.3 1.8-.9 2.3-.5-.7-.1-1.6.1-2.4-1.1.5-.5 2.2-1 3.2-.4 1.8 2 3.1 0 4.6-.4.3-1 .5-1.1 0l.8-.9c.7-.9-.6-1.5-.1-2.4-1.2-.8-.2-2.3-1.3-3 .6 2-.1 4.1-1.1 5.7 1.3 1.1 2.6 2.7 3.4 4.1a3.05 3.05 0 0 0 2.3 0c.9-.4 1.7-1.3 2.1-2.2.5-.8.2-1.9-.1-2.7-1.1-.5-1-1.8-1.1-2.8 0 .1-.1.1-.1.1l-.2 1.6c-.8-1.7-.8-4.3 0-6zm-1.3 3.1c-.2.3-.3-.1-.3-.4-.2-.7.2-1.1.4-1.7l-.1 2zm-.1 4.5c0 .8-1 1.3-1.5 1.9-.3 0-.4.3-.7 0l1.7-1.9c-.4-1.2-1.2-2.5-.7-3.9.3 1.4.5 2.8 1.2 4zm.2-1.5c-.5-.6-.5-1.6-.4-2.3.4.6.4 1.5.4 2.3zm-4.3 1.6l.9-2-.3 1.3-.6.7zm3.8 2.1c-.2.1-.5.3-.8.2l1.7-1.7c.3.6-.5 1-.8 1.5zm.8 1.8c-.3.1-.6.1-.9.1.9-.4 1.9-1.3 2.3-2.1-.1.7-.7 1.6-1.4 2zm-1.3-.7c.7.1.7-.6 1.3-.7-.3.5-.8.7-1.3.7zm9.1 8.1c0 .1.1.2-.1.2-.1-.1-.5-.4-.2-.7.4-.2.2.3.3.4zm4.3-2.9h-.3l1.1-1.1c0 .4-.5.7-.8 1.1zm-1.8-4.6c-.1.1-.1.2-.3.1 0-.6.7-1.2.6-2 .7.4-.2 1.2-.3 1.8zm16 24.2c0 .3-.1.5-.3.7h-.2c-.1-.2 0-.8.4-.7zm.5-1.6c.2.2-.1.4-.2.6-.3-.2-.1-.6.2-.6zm.6-1.6c.1.1 0 .3-.1.4h-.1c-.1-.3 0-.4.2-.4zm.8-1.7c0 .1 0 .3-.1.3h-.2v-.3h.3zm-5.2 12.8c-.1-.1-.1 0-.1.1v-.4h.1v.3zm-.3-1.7c-.1 0-.1 0-.2.1-.2-.1 0-.5.2-.5v.5zm1.8-1.6c0 .1-.1.2-.2.3h-.2c-.1-.2.2-.3.4-.3zm-1-.3c.1.1-.1.2-.1.3-.3.1-.3-.1-.4-.2.1-.3.5-.5.5-.1zm.7-1.6c0 .1-.1.1-.1.2h-.3c-.1-.3.2-.4.4-.2zm1.3-1c-.1.7-.4 1.3-.8 1.8 0-.6.1-1.5.8-1.8zm-.1-1.8c0 .1-.1.2-.2.4h-.2c-.1-.3.2-.4.4-.4zm6.8-16c.2.2 0 .5-.2.7-.3-.1-.1-.6.2-.7zm-4 9.2c-.1.1-.3.1-.4.1l.3-.4c.1.1 0 .2.1.4zm1-.1c-.2.2-.1.7-.4.7l-.3-.3c0-.3.4-.7.7-.4zm.5-1.2c-.2.1-.3.3-.5 0l.4-.6c.2.1.2.5.1.6zm-1-.2c-.2.2-.4-.4-.1-.5h.1l-.1.5zm1.4-1.3c-.4-.2-.1-.7.1-1 .6.1.1.7-.1 1zm-.9-.5h-.1l.1-.5c.4 0 .1.4 0 .5zm1.9-2.1c0 .1.1.3-.1.4h-.1c-.1-.2 0-.5.2-.4zm.7-1.8c.1.2-.1.5-.2.6h-.2c-.2-.3.2-.4.4-.6zm1.6-5c-.1.2-.1.7-.4.7 0-.2 0-.8.4-.7zm1.1-4c0 .1-.1.5-.3.4 0-.1 0-.4.3-.4zm1.7 1.4h-.1l.4-1.9c.3.7-.5 1.2-.4 1.9zm-.1 3.8c-.2-.7.3-1.5.4-1.9l.1.1c.3-1.4.7-3.1 1.3-4.4-.4 2.2-1.5 4-1.8 6.2zm13.1-5.2c-.2 1.7 1.1 3.3 1.2 4.9.1.4.6.5.6.9-1.3-.8-2.2-2.6-2.3-4.3l.4-1.6.1.1zm-3.7 2.9l-.3.1c-.2-1.2-.9-2.5-.7-3.6 1.3.5 1 2.2 1 3.4zm0 16.3c-1.4 3.7-2.3 8.1-5.1 11.1 2.2-3.5 3.4-7.5 4.9-11.3l.1.1zm-6.1 10.9l-.4.4c2.6-4.9 4.6-10.4 6-16-.8 5.5-2.8 10.8-5.5 15.7zm-.7-1.4l-1.2 1.7c.7-1.3 1.2-2.8 2-4.1 1.7-4.5 2.9-9.1 4.5-13.5-1.1 5.6-3.1 10.8-5.3 15.9zm-1.8.1c2.2-4.5 3.7-9.7 5.3-14.2.4-1.6.5-3.6 1.2-5.2-.8 2.9-1.2 5.7-2 8.6-1.6 4.6-3.2 9.2-5.4 13.4 0 0-.1 0-.3.1l1.2-2.7zm-2 2.8h-.2c3.1-7.6 5.9-15.2 7.5-23.1h.2c-1.2 7.1-3.6 14.2-6.2 20.8l-1.3 2.3zm5.2-18.5c-1.6 6.5-4.1 12.9-6.8 18.8 2.5-7.5 5.5-15.1 7.4-22.9.2 1.4-.3 2.8-.6 4.2zm4.9 1.1v-.7l.1.1-.1.5zm1.1 15.2c.1.1-.1.3-.2.3h-.3c-.2-.2.2-.4.4-.4.1.1.1.2.1.2zm6.3-1.7l-.1-.3c.4-.9.9-1.9 1.6-2.7-.1 1-1 2.1-1.5 3zm-2 .5c.3-1.2 1-2.4 1.6-3.6-.4 1.2-.6 2.7-1.6 3.6zm.7-4.8c-.5 1.7-1.1 3.6-2.4 5.1h-.3c.8-1.6 1.7-3.6 2.6-5.1zm-4.2 5.3c.8-1.9 1.7-4.2 2.9-6-.8 2-1.5 4.2-2.9 6zm-1.4.1h-.2c.5-1.1 1.5-2.3 1.7-3.7.7-1.2 1.1-2.6 1.6-3.7a18.16 18.16 0 0 1-3.2 7.4zm-.7-1.1c-.1.7-.3.6-.7 2.1-.1.3-.3.2-.5.2.2-1.3.8-2.1 1.2-3.1 1.1-2.2 1.9-4.6 2.8-6.7-.5 2.5-1.7 5.1-2.8 7.5zm2-9c-1.2 4-2.8 7.8-4.7 11.6h-.4c1.9-3.7 3.7-7.7 4.9-11.8l.1.2zm-1.4-.2c-.1-1.2.7-2.4.9-3.6-.1 1.3-.4 2.5-.9 3.6zm-85.8 18.6c-1.5-2.1-3-4.6-3.9-7.1l.2-.4c.8 2.6 2.5 4.9 3.7 7.6zm0-4.9c-.5-1.4-1.1-3.1-1.7-4.2-.7-1.1 1.7 5.8 3.4 7.9-.2-1.3-1.1-2.4-1.7-3.7zm-2.1-1.5c.8 1.9 1.7 3.6 2.7 5.2h-.2c-1.5-2.3-3-4.6-3.2-7.3.5.5.4 1.4.8 2.1zm4.7 4.3h-.3c-1.6-2.4-2.7-5.1-3.2-7.8.7 2.6 2.1 5.2 3.5 7.8zm-.8-4.5c.5 1.5 1.1 3 1.9 4.4l-.1.1c-1.7-2.6-2.5-5.3-3.2-8.4.7 1.1.7 2.6 1.4 4zm2.8 4c-1.4-2.5-3.1-5.5-3-8.5.6 2.9 1.9 5.8 3 8.5zm1.3-.7h-.1c-.9-2.6-2.6-4.9-2.7-7.9.5 2.7 2 5.3 2.8 7.9zm1.4-1.1c-1.4-2.1-2.3-4.6-2.8-7.1.7 2.4 1.9 4.8 2.8 7.1zm1-1.7c.5.5.6 1.3.7 1.8-1.4-2.6-2.3-5.3-3.1-8.1.8 2 1.5 4.2 2.4 6.3zm-.8-6.4c.1 2.4 1.6 4.4 2.8 7.9h-.3c-1.3-3.2-2.3-5.4-2.7-7.9h.2zm3.9 7.7c-.4.1-.4-.7-.7-1-.7-2.4-1.7-4.6-1.9-7.1.7 2.7 1.4 5.4 2.5 8.1zm1.5.1c-1.4-.9-1.3-2.5-1.8-4l-.9-4.2.1-.3c.6 2.8 1.2 5.8 2.5 8.5zm29.5-61.9h-.1v-2c.3.5.1 1.4.1 2zm-4.1 1.3c-.4.1-.3-.7-.4-1l.4 1zm-.7.6c-.7 0-1.1-1.2-1.1-1.9v-.8c.2 1 .6 1.9 1.1 2.7zm-1.7 1.1c-1.3-.6-1.8-2.5-1.9-3.8.4 1.3.8 2.8 1.9 3.8zm-1.4-4.6v.3c-.3 0-.5-.3-.4-.5.1.1.3.1.4.1zm-4-1c-.3.3-.5-.1-.4-.4l.4.4zm15.4-12.3l.1 2.2-.3.1c-.2-.9.1-2.5-.6-3.4.7-.8.5.8.7 1.1zm-1.4 1.1l-.4-1.6.4.5v1.1zm.5-13.3c.1 1.6-.4 3.7-.3 5.5h-.3c-.6-2.1-.1-3.5.3-5.5h.3zm-19.3 21.1c-.6.2-.6-.9-1-1.3.7 0 .8.8 1 1.3zm.8-1.9c.1.4-.7.5-.3.9v.3c-.4-.1-.5-.8-.9-1.1h.8c.1-.4-.6-.8-.1-1.2.4.2.4.7.5 1zm.5-.9c-.7-.3-.7-1.2-.9-1.9l.2-.4c.1.8.6 1.5.7 2.3zm2.1 1.8c-.2-1.5.1-3.1 1.1-4.3l-1.1 4.3zm-1.6-2.8c-.6-.7-.7-1.9-.6-2.8l.6 2.8zm.2-4.2l.6 3.3h-.3c-.7-1.2-.5-2.6-.5-4h.3l-.2.7zm1.1 1.8l-.2.1c-.9-1.6-.6-3.6-.7-5.4.7 1.5.1 3.8.8 5.3zm-2.7-5.4c-.4-.2-.5-.8-.3-1.1.3.3.4.8.3 1.1zm3 .2c.3 1.1.4 2.6.4 3.9-.5-2-1.3-4.2-.7-6.2l.1-.1c.4.7 0 1.4.1 2.4zm-2.1-1.2c-.5-.1-.6-1-.3-1.4.5.3.2 1 .3 1.4zm3.1.9l.2 2.1h-.2c-.5-1.5-.5-3.7-.4-4.9.5.8.1 1.9.4 2.8zm-2.2-2c-.4.2-.3-.5-.4-.7l.1-.4c.3.4.4.7.3 1.1zm.9-.9c-.6-.1-.5-1.1-.5-1.6.7.1.1 1.1.5 1.6zm.7-2.5c0 .5.2.9.2 1.4h-.2l-.3-1.4h.3zm3.6-1.3v.2h-.4v-.3c.1 0 .3-.1.4.1zm-2.6-.1c-.2.7.1 1.8.1 2.3-.6-.5-.3-1.5-.6-2.1.3-.7 1.3-1.1 2-1.1l-1.5.9zm5.8.4c-1.4.4-2.9 0-4.3.4.3.8 1.6-.3 1.7.5-.7.2-1.9-.1-2 .6.5.3 1.1 0 1.6-.1.8 0 2.2-.3 2.5.5l-4 .1c-.4-.1-.8.6-1.3.1l-.1 3.1c.1.7.1 1.6.6 1.9-.1-1.2-.2-3.1-.1-4.5.8.4.1 1.4.4 2.2.1.5-.2 1.4.5 1.3l.1-2.5c-.5 2 1.7 1.9 2.5 3.2.1.3-.2 1 .4 1 0 .7.2 1.4-.2 1.7-.2-1 .1-2.7-1.1-2.6.5.9.8 2.2.1 3.1-1.5-.6-.6-2.8-.8-4-.8.8-.5 1.9-.7 3.1l-1.4 1c-.4.7 0 1.6.4 2.1 2.8 1.3 4.9-2.2 7.6-.8.3-.3.4-.8.4-1.1-2.4-.8-3-3.7-5.2-4.9 0-.3 0-.6.3-.7.4-.5 1.3-.2 1.7.3.5 1.9 1.7 3.9 3.6 5 .6.1-.2 1.3.7.9.4-1.3-.2-3-1.5-3.6-.7-2.3-1-5.9-3.9-6.4 1.6-.4 2.3 1.3 3.2 1.9 0-1.4-1.5-1.6-2-2.8zm-3.2 4.9c-.4-.4-.3-1.4-.4-2 .4.6.4 1.4.4 2zm.9-.9c-.2.1-.3-.1-.4-.2l.1-.4c.1.2.2.4.2.7zm4.2 2.6c.1.5.6 1 1.1 1.4-1.9-.5-1.3-2.7-1.8-4.3l-.8-1.2c1 1 1.7 2.5 1.5 4zm-2.4 2.9c-.3-.1-.3-.7 0-.8v.8zm1-.8c-.3.2-.6-.3-.4-.6h.4l.1.6zm.8 1.5c-.1-.1-.9.8-1.1.1.3-.2.8 0 1.1-.1zm-2 .5c-1.1.5-2.2 1-3.4.5-.4-.1-.4-.8-.4-1 .6-.7.8.5 1.4.6l2.3-.1zm89.4 57.4c-1.2 2.8-4.1 4.7-6.1 7.1-2 1.6-4.2 3.5-6.6 4.9l-.1-.1a120.23 120.23 0 0 0 12.8-11.9zm-3.8 2.8c-1.9 2.3-4.6 4.8-7.1 6.2.8-1.1 2-1.6 2.7-2.8l-.9.1c.7-1 1.9-2 3-3 1 1.1 1.7-1 2.4-1.3.4.1.1.6-.1.8zm-7.2-.5c-.8 2.8-2.2 5.3-4 7.6.5-1.4 1.6-2.7 2.1-4.2.8-1 1.1-2.5 1.9-3.4zm-.5-2.4c-.3 3.3-1.8 6.1-3.5 8.8-.3.4-.6.7-1 1.1 2.4-2.9 2.8-7 4.5-9.9zm-3.4 11.1c.5-1.1 1.3-2.1 2.1-3.2-.4 1.1-1.1 2.4-2.1 3.2zm-1.9-8.3c-.3 1.6-.9 3-1.6 4.5h-.3c.4-1.8 1.3-3.6 1-5.4.6-.2.7.6.9 1zm-67.2-2.1v.4h-.1v-.4h.1zm-13.6 16v.2l-.2-.2c.1 0 .1.1.2.1zm-3.3-.8v.3c-.3 0-.4-.4-.3-.7.2-.1.2.2.3.4zm-1.2.1c-.5.3-.5-.2-.6-.5l.3-.1.4.6zm-2.5-.1c-.1.2-.3-.3-.1-.5l.1.5zm5-.1l-.4-.4.3-.1c.2.1.1.3.1.5zm1.3-.3l-.1.1-.1-.5c.2.1.2.3.2.5zm1.4-.1l-.1-.6.2.5-.1.1zm10-3.2v.1l-.3-.3c.2 0 .2.1.3.2zm-14.6 2c-.5-.6-1.1-1.5-.9-2.5l.9 2.5zm1.4-.1c-.5 0-.4-1-.8-1.4l-.5-2.3c.7 1 .9 2.5 1.3 3.7zm1.3-.1c-.7-1.3-1.2-2.7-1.3-4.2.7 1.2.8 2.9 1.3 4.2zm16.2-4c-.5 0-.8-1-1.1-1.5.5.3.8 1 1.1 1.5zm-23.3-2.3c.3-.3.1.8.4 1 .4 2.8 1.5 5.5 2.5 8.1-1.7-2.6-2.5-5.8-2.9-9.2v.1zm.2 5.4c-.7-1.7-1.1-3.8-1.3-5.7.4 1.7 1 3.7 1.3 5.7zm2.8 1.8c-1.5-2.7-1.6-5.4-2-8.8.6 2.8 1.1 6 2 8.8zm.4-4c-.2.1-.5-.3-.4-.5l-.5-4.3.9 4.9zm.9-1.4c-.5-1.1-.7-2.6-.5-4 .3 1.4.4 2.8.5 4zm2.3-4.4c.3 2.6.7 6.1 1.8 8.6-.9-2.2-1.5-4.2-1.9-6.9l-.1-1.8.1.1zm-1 2.3l.2 1.9c-.4-.2-.5-1.2-.6-1.9l-.2-2.3c.8.5-.3 1.8.6 2.3zm21.4-.1c-.7-.6-1.3-1.4-1.6-2.5l1.6 2.5zm-16.7 8.1c-.6-1.1-1-2.5-1.3-3.9-.9-2.3-1.3-5.2-1.1-7.4.5 3.7 1.1 7.7 2.4 11.3zm2.2.9c-1-1.3-1.7-3.3-2.4-4.9-.7-2.5-1.4-5.1-1.1-7.7.2 4.6 2 8.6 3.5 12.7zm12.1-7h-.4c-1.1-2.1-2.4-4-3-6.2.7 2 2.3 4.1 3.4 6.2zm-14.4-6.7c.2 4.2 1.8 8.1 3.1 12-1.2-1.3-1.7-3.2-2.3-4.9-.4-2.3-.9-4.7-1-7.1h.1zm15.5 5.6c-1.6-2.1-3-3.9-3.7-6.4.9 2.3 2.5 4.4 3.7 6.4zm-9.6 5.5c-2.4-3.4-3.2-7.7-3.9-12h.2c1.1 3.9 2 8.2 3.7 12zm-2.1-12.6c.3 4 2.3 7.5 3.4 11.3.5.4.8 1 1 1.6-1-.4-1.3-1.6-1.9-2.5-1.1-3.4-2.8-6.5-2.7-10.4h.2zm-2.4 0c-.3 4.9 2.2 9.7 3.8 14.1-1.5-1.3-2-3.4-2.9-5.2-.8-2.8-1.4-6.2-1.2-9h.3zm3.4-.9c.6 3.9 1.9 7.5 3.2 11.1-1.9-3.2-2.8-7.3-3.4-11.1h.2zm1.1-.7c.7 4.8 2.8 9 4.5 13.2-2.1-4-4.4-8.4-4.6-13.2h.1zm5.4 11.4c-.7-.2-.6-1.1-1.1-1.6-1.3-3.5-3.3-7.2-3.3-10.9.8 4.2 2.6 8.4 4.5 12.5zm-.4-8.6l-.1.5c-.6-1.8-1.4-3.4-1.6-5.3.5 1.6.8 3.1 1.7 4.8zm-.1 4c.5.5.9 1.2 1 1.8h-.2c-1.7-3.3-3.2-6.8-3.4-10.7.8 2.9 1.5 6.1 2.7 8.9zm30.9 17.1c-.7.2-1.6.3-2.4.2.6-.3 1.6-.4 2.4-.2zm1.4-2.3l-9.7 1.5c-.4.5-.5 1-.6 1.6.1.3.6.1.8.1.4-.3.4-.9.4-1.3 2.7-.2 5.6-.6 8.2-.8-2.3.7-5.1.8-7.7 1.3-.2.1-.4.4-.2.5.8.1 1.7-.2 2.6-.1-1.1.6-2.9.6-4.4.9-.3-.6.5-1.3 0-1.9l-.2.1c-.1-.8.6-.4.9-.9 3.3-.6 6.7-1 10.1-1.4l-.3.3zm-15.9 5.2l-.4-4.7.4 1v3.7zm4.6-4.5c-.1 0-.2.1-.2.1v.3h.2c.1.8-.2 1.5-.4 2.2h-.1l.4-3.8c.3.2.1.8.2 1.2zm-5.8 1.6h-.1c-.4-1.1-.1-2.3-.8-3.2.6.9.8 2.1.9 3.2zm4.5 1.1l-.1.2-.1-.2c.4-1.6.2-3.6.5-5.1 0 1.6.1 3.4-.2 5.1zm-2.3-5.2c.2 3 .4 6.3-.1 9.3h-.1c.2-2.6.1-6.9 0-9.8l.2.4zm1.4-.3c0 2.5.1 4.5-.4 6.7l.1-7.1.3.4zm-10.9 0l-.1.1c-.5-.2-.5-1.1-.9-1.5.6.1.8.9 1 1.4zm1.5 1.2c-.5-1-1.3-2.3-1.8-3.4.6 1.1 1.7 2.2 1.8 3.4zm1.3.8h-.1c-.6-1.6-1.6-3-2-4.5.9 1.4 1.6 2.9 2.2 4.5zm-21-4.8v.1c-.1.3-.4-.1-.3-.2.1 0 .2-.1.3.1zm23.2 9.5c1.6 3.1 2.8 6.4 3.9 9.7l-.2.5c-1.1-.8-.5-2.3-1.1-3.4-.9-2.2-2.2-4.6-2.9-6.8h.4zm.8-1.3c.2.2.3.3.5.3.4-1.9-.9-3.6-1.3-5.4 1.6 2 1.1 4.7 2.7 6.6.2 1.6 1.1 3.1 1.6 4.6l.2.2c.6-1.4 1.1-2.9 1.7-4.2-.3 1.4-.8 3.4-1.5 5.1h-.4c-.8-2.2-1.3-4.8-3.1-6.4-.1-.1-.2.1-.4.2 1.7 2.9 2.7 6.1 3.6 9.3.8-2.8 1.1-5.5 2.8-8 1.3 0 2.3-.7 3.5-.8-.9-.3-1.8.3-2.8.2l1.2-.7 12.7-1.5c-3.1.8-7 1.3-10.6 1.7-.3.1-.1.3 0 .4 4.6-.6 8.9-1.3 13.3-1.5-1.9.4-4.1.6-6.1 1-1.1.3-2.5.2-3.7.8l.2.1c4.2-.5 8.3-1.3 12.6-1.4-1.5.6-3.3.2-4.7 1.1 1.7.2 3.2-.4 4.9-.1.4-.5 1.3-.1 1.9-.1-6.8.8-13.8 1.6-20.4 3-1.7 2.7-2.1 5.8-3.4 8.7-1.4-.3-.3-2-.2-3l1.1-3.3c.1 1-.5 2-.3 3l2-5.1-.1-.4c1-.9 2.7-.4 3.8-1.1-1.4-.4-2.6.6-4.1.5v-.3l6.8-1.5c-2.5.2-5.2.2-7.6 1-1.1 2.6-1.8 5.5-2.4 8.3-.1 0-.3.1-.4.1-1.1-3.5-2.1-7-4-10.2.1-2.8-1.3-5.2-2.4-7.6 1.4 1.9 2.3 4.4 2.7 6.8zm79.5-95.1c-.2.5-.9.7-1.3.6.3-.2.8-.8 1.3-.6zm-.1 3.3c-.2.3-.9.5-1.3.5l-.1-.1c.3-.2.8-.6 1.4-.3zm2.5-17.5c-.1.1-.3.1-.5.1l-.1-.4c.1.1.4 0 .6.3zm19.1 10.1c-1.1 1.7-1.8 3.7-2.9 5.3.4-1.6 1.4-3.1 2.2-4.6-.5-.9.1-2.2.8-2.9.5.8-.8 1.5 0 2.2zm-9.7-10.1c-.8.4.7 1.2-.4 1.4.2.6-.2 1.2-.5 1.6.1-.9.5-2.9.8-4.1.5.2.3.8.1 1.1zm-24.7-.1c-1.1.8-3.4.5-4.6.2a65.03 65.03 0 0 1 4.6-.2zm-.2-.9c-.9.7-2.2 0-3.3.2v-.3l3.3.1zm-.6-.9c-.3.3-.8.3-1.3.1.3-.3 1-.2 1.3-.1zm-7.3.3c-.3.5.3 1.8-.5 1.8-.2-.5-.1-1.5.5-1.8zm-.8-1.2c-.5.8-.5 2.2-1 3-.1-1.2.1-2.2.9-3.1l.1.1zm-32.7 6.1c-.1-1.1.5-2.9 1.2-4.1-.4 1.3-.9 2.7-1.2 4.1zm.3-4.1c0-.8.5-1.7.9-2.2l-.9 2.2zm2.8 15c-.1.3-.3.1-.5 0 .2-1.7.2-3.7 1.2-5.3-.4 1.6-.7 3.4-.7 5.3zm7.2-8.7c-.1 1.6-.8 2.9-1.4 4.4.1.3.2.4.2.7-.5.1-.4-.4-.6-.7.4-1.6 1.3-3 1.8-4.4zm3.1 2.8c-.1.2-.3.2-.6 0l-.2-.1c.2-.3.5 0 .8.1zm-1.7-10.7c.1-.2.1-.6.3-.7l-.2 2.7c.5-.2.3-1.3 1-1.6-.2 1.3-.8 2.6-.9 4-.5-.5.1-1.7-.2-2.4l-.1.1c-.5-.5.3-1.5-.3-1.9.1-.5 0-1.2.4-1.5 0 .4-.4.9 0 1.3zm-12-12.3c-.1-1.3.3-2.4.7-3.5l-.5 3.5h-.1zm.8 1.8c-.2-.1-.1-.9-.1-1.3l1.1-3.9c-.1 1.7-.8 3.5-1 5.2zm1 .7c-.2-1.5.3-3.4.9-4.9-.1 1.6-.6 3.3-.9 4.9zm1.9-3.7c-.1 1.1-.6 2.3-.5 3.7h-.3c-.3-1.5.5-2.4.8-3.7h.1zm8.8-6.4c-1.1-.1-2.5-.1-3.5-.4 1.3-.2 2.4.1 3.5.4zm21.1 2c-1.1-.1-.6-1.5-1.6-1.9 0-.3.3-.1.4-.2.7.7 1 1.3 1.1 2.1zm-2.4-.2v.2c-.4.3-.3-.4-.5-.7.4-.1.5.2.5.5zm1.1-.3v.5c-.7-.2-.6-1.1-1-1.5.7-.2.8.7 1 1.1zm19.8 18.9c-2 .3-4 .6-6 .8-.1-.1-.3-.1-.4-.3 2-.3 4.4-.4 6.4-1l.3.2-.4.4zm.9-1.8c-1.1.8-2.6.8-4 1.1-.7.1-1.8.2-2.5-.1l.2-.2c2 0 4.3-.4 6.2-.8zm.6-1.1c-1.9.9-4.5 1.2-6.7 1.1v-.1c2.3-.2 4.6-1.1 6.7-1zm-.5-.9c-2.1 0-3.7 1-5.7.7v-.2c2.2.1 4.2-.9 6.2-.9l-.5.4zm.9-1.6c-1.1.5-2.5.8-3.8 1 .2-.6 1.5-.2 1.9-1 .7.4 1.3-.3 2-.1zm.7-2.3c-.1.4-.7.3-1 .4l-.1-.1c.2-.3.7-.7 1.1-.4zm-7.2-.5c-.2 1 .4 2.4.1 3.6l-.2-.1-.8-4.3c.7-1.1.7.5.9.9zm-1.6-1.1c-.1 1.6.1 3.7-.1 5.2l-.4-.4v-4.9c.2-.2.4-.2.5.1zm3.1.8c0 1.2.7 2.5.1 3.5-.2-1.6-1-3.2-.7-4.7.5.1.4.8.6 1.2zm-5 3.6h-.3c0-1.3-.1-3.5.6-5l.2.1-.5 4.9zm-1.2-2.6c-.1.5.1 1.4-.5 1.6-.1-1.4.1-3 .8-4.3.6.6-.3 1.8-.3 2.7zm9-1.5c.1.7 1 1.6.4 2-.7-1-1.3-2.3-1.3-3.4.7 0 .8.9 1 1.4zm-11 1.9c.3-1.2.1-3 1.1-3.9 0 1.3-.6 2.8-1.1 3.9zm12.9-1.5c-1 0-1.3-1.3-1.8-2.1-.1-.3-.1-.8.4-.8l1.3 2.8zm-12.8-2.9c-.3 1.2-.7 2.5-1.4 3.4-.2-1.1.5-2.7 1.4-3.4zm-1.1-.4l-1.2 3.1h-.4c.4-1.1.4-2.6 1.4-3.4l.2.3zm14.5 2.1c-.7-.3-1.2-1.3-1.5-1.9l.1-.7c.9.5 1.1 1.7 1.4 2.5zm1.3-.9l-.3.1c-.5-.7-2-1.7-1.1-2.5.8.5.9 1.6 1.3 2.3zm-67.3-2.7h-.3c-.3-1.1-.1-2.6.6-3.3l-.3 3.3zm1.3-3.3c.1 1.4-.3 3.3 0 4.7-.5-.4-.6-1.2-.7-1.9 0-1-.1-2 .4-3l.2.1zm-4.2 1.6l-.1-.1c-.4-.7-.1-1.5.1-2.2h.2l-.2 2.4zm.7-2.4c.3-.3.4 0 .6.1l-.2 2.8c-.2 0-.3.3-.5 0s-.2-2.5.2-2.9zm1.7 0c-.4 1.1-.4 2.2-.3 3.4h-.4c-.3-1.1-.2-2.7.7-3.4zm3.4-.4c-.2 1-.6 2.3-.3 3.6-.1.1-.2.2-.4.1-.6-1.1-.2-3 .7-3.7zm1.4 0c-.3.4-.4.7-.3 1.3l-.1 1.9c-.8-.3-.4-1.7-.2-2.4.2-.3.1-1.3.7-.8zm1.9 2.6h-.4c-.1-1.1-.1-2.5.7-3l-.3 3zm-.7-3c-.2 1-.4 2-.4 3.3h-.4c-.1-1.1.1-2.3.6-3.3h.2zm1.7 2.7h-.3c.1-1.2.2-2.5.9-3.3-.3 1-.4 2.4-.6 3.3zm23.3 3.5c.5 1.1 1.8 1.1 2.7 1.7-.6.4-1.4-.1-2.2-.1.1.2 1.1 1.2.1 1.3-.6.5-1-.2-1.4-.5-.7.7 1.4 1.6-.1 1.2-.4-.4-.5-.8-.4-1.3l.4-.4c.3-.9-.7-2.3.4-2.8.2-.5-.4-1 .2-1.3.5.4.1 1.6.4 2.2zm9 1.1a4.61 4.61 0 0 1-2.6 1.5c-.5-.4-1.3-.2-1.7-.7 1.1-.1 2.4.3 3.4-.4.2-.3.6-.6 1-.4zm-.8 3.1c-.3.2-1.1.2-.9-.4l.1-.5c.1.5 1.1.2.8.9zm-1.3 1.2c-.4.1-.3-.6-.5-.8l.1-.9c.2.5.5 1.2.4 1.7zm-.5.3v.2c-.5 0-.6-.7-.8-1.1l.1-1c.5.3.2 1.3.7 1.8zm.4 3c-.1-.4-.5-1.2-.4-1.8.3.5.6 1.2.4 1.8zm1.1 2.1c-.5 1.4-2-.1-2.9.5.8-.6 1.9-.4 2.9-.5zm-18.8 114.5c-1.4 4.2-4.3 7.8-7.4 11.2l-.7.2c-3.2 3.4-7.3 7-11.2 9.7 3.4-3.4 8.1-6.4 11.4-10.4 3.6-2.5 5.8-7 7.9-10.8zm-3.6 1c-.4 2.2-1.6 4.2-3.2 6h-.7c-2.5 2.8-4.9 6-7.8 8.2 2.9-2.8 5.4-5.9 8.1-8.9l.4.3c1.3-1.6 2.3-3.7 3.3-5.6zm-20 12.3c-.9 1.8-1.8 3.6-3 5.3.7-1.7 1.9-3.8 3-5.3zm-1.8 1.5c-.5 1-1 2.2-1.8 2.9.4-1 1.1-2.2 1.8-2.9zm23.7-13.8c-1.4 2.4-2.5 5.1-4.6 7l-.1-.1c2.1-2.3 3.2-5.1 4.8-7.5l-.1.7zm-1.5 9c.2-.7 1.4-1.9 2.1-2.7 2.3-2.6 4.5-5.9 6.1-9-1.3 4.6-5.2 8-8.2 11.7zm4.9-3.7h-.2c2.1-2.6 3.9-5.2 5.3-8.1-.7 3-3 5.7-5.1 8.1zm-7.9 5.3l.1-.4c3.7-4.2 6.7-8.3 9.1-13.1-1.8 5-5.7 9.5-9.2 13.5zm11.5-8c.4-.9 1.6-2 2.2-3 1.1-1.7 2.2-3.6 3-5.4-.8 3-2.8 6.1-5.1 8.4zm5.5-5.7c.4-.9.9-1.9 1.6-2.9-.3 1-.8 2-1.6 2.9zm-10.3 23.3h-.2l.7-.8c.1.4-.5.5-.5.8zm-8.1-6.8c-1.3 1.7-2.8 3.2-4.5 4.3 1.3-1.3 2.9-3.2 4.5-4.3zm-8.1-5.5l.5-.8-.3.5-.3.2zm8.7-.9c-.9 1.7-2.3 3.2-3.7 4.5-1.9 1.9-4 4.1-6.3 5.5 3.3-3.2 7-6.1 9.7-10h.2zm-4.6-.3c-1.4 1.6-2.5 3.5-4.3 5v-.3c1.5-1.6 3.3-2.9 4.1-4.7h.2zm-3.9 2.7l2.5-3.2-1.3 1.9-1.3 1.3zm6.2-3.6c-2.2 2.5-3.9 5.6-6.6 7.5 2.2-2.4 4.3-5 6.6-7.5zm3.1-2.6l.9-2c-.1.6-.4 1.6-.9 2zm8.2 22.9l.4-.4-.2.4h-.2zm-29.4-10.5c0-.8.6-1.8 1.1-2.5 0 .9-.7 1.7-1.1 2.5zm4.1-1.6c-1 2.5-2.5 4.8-3.8 7 1-2.5 2.6-4.8 3.8-7zm3.2-1.3c-1.9 4-4 7.5-6.8 11.1-.5 0-.5 0-.6-.4l.1-.6c1.7-3.1 3.7-6.1 5.2-9.2-1.1 3.2-3 6-4.5 8.9h.3c2.5-3 4.3-6.7 6.3-9.9zm-6 11.4h-.1c3.2-3.5 5.7-7.9 8.4-11.9-1.9 4.2-4.9 8.4-8.2 11.9zm1.2.4l-.7.4v-.3c3.2-3.4 5.8-6.9 8.3-10.5-1.9 3.7-4.8 7-7.5 10.3zm7.3-7.5c-2.1 3.7-5.5 7-8.9 9.8l.1-.5c3.2-2.7 6.1-5.9 8.5-9.3h.2zm10.3-5.5c-4 4.5-8.6 8-13.4 11.4-1.1 1.1-2.2 2.9-3.8 3.5 1.9-1.5 3.4-3.7 5.2-5.1.9 0 1.2-.9 2-1.1 3.2-2.6 6.7-5.1 9.1-8.4.3-.2.7-.5.9-.2zm-5 6.5c-3.4 3.2-7.7 5.9-11.5 8.6l-.1-.1c3.6-3.1 7.8-5.5 11.5-8.6l.1.1zm2.3-61.3l.1.1.4-1.6c-1.6 5.1-2.7 10.8-5 15.7-2 5.8-4.2 11.4-6.6 17-.9 1.7-1.3 4-3.1 4.9.9-.1 1.9-.6 2.7-.3-.3.8-1.6.4-1.9.9.4.3.9-.1 1.3.2-.7.3-2.1.2-2.2.9 3.8-.5 7.7-1.3 11.6-1.7l.7-.5c-2.9.2-5.8 1.1-8.8 1 3.2-1.1 6.5-1.1 9.9-2 .5-.3 1.1.2 1.4-.4-3.6.4-7.3 1.3-11 1.6.1-.5.9-.4.9-1.1l.7.4c.5-1.3 1.7.7 2-1 .4-.1 1.1-.2 1.1.4.2-.3.4-.8 1.1-.7l.1.5c.5-.8 2.3-1.8 2-3.3.2-.2.6-.1.5-.5.4-2.1 1-4.2 2.2-6.1v-.6c1-1 .7-2.6 1.3-3.8.9-1 .8-2.8 1.1-4.1 1-2.4 1.7-5 2.2-7.5-1.1 2.3-1.3 5.6-2.9 7.9-1.1-.5.6-1.2-.1-1.8.8-3 1.9-6.1 2.5-9l.1.1.2-1-.7 2.6c-.7 1.1-.8 2.5-1.6 3.4-1.4-1 1.5-1 .1-2.2.3-1.3 1.1-2.8.9-3.9-.3.9-.3 1.9-.9 2.7-.4.1-.5-.2-.8-.4l.8-3.4c-.8 1.4-.5 3.6-2 4.9h-.1c-.3 0-.2-.3-.2-.4-.9 2.4-1.8 5.2-2.7 7.8.2 1.1-1.3 1.6-.7 2.5 0 .2-.3.2-.5.4-.2-.1-.4-.3-.4-.5 1.4-4.1 3-8.4 3.8-12.3-2.5 8-5.3 16.1-8.8 23.7-.1.1-.3.3-.4.1 2.1-5 4-10.3 5.7-15.4 1.7-4.6 3.1-9.3 4.1-14.1zm-86.8-16c1.6 6.2 2.8 12.2 5.1 18.1-3.4-.8-6.8-1.6-10-2.8-1-2.8-2.2-5.4-2.4-8.5l5.4-5.8s.8-1.2 1.6-1.4l.4.4zm7.8-11.5c-1.6 2.2-6.3 3.8-4.5 7.5.7 6.4 2.5 12.7 4.9 18.7.6 1.8 1 3.7 1.9 5.4 0 .2-.1.4-.4.3-4.2-8.4-6.1-17.8-7.4-27.2 1.6-2.2 3.3-3.5 5.1-5.5h.3v.9zm-.9-1.3c-2 1.8-3.7 4.2-5.8 5.6 2-2.2 3.8-4.3 6.1-6.2l-.4.7zm-5 9.6c1.1 7.7 4 15.2 6.3 22.7-3.2-7.5-5.3-15.4-6.9-23.7l.1-1.1c.7.4.1 1.4.5 2.2zm-2.2-.3c.1.6-.4.8-.8 1.2l-1.1 1.4c-2.1 1.9-4 3.8-5.7 5.9-2 1.7-.8 3-.8 4.5.7 2 1.5 4 1.7 6.2h-.4c-1.3-2.4-1.5-5.4-2.5-8.1-.2-2.6 2.7-4 4-5.9 1.2-1.1.4-.5.7-.7 1.8-1.3 2.9-3.5 5.1-4.6zm-1.8 0c-3 3.3-6.1 6.2-9 9.5l.1-.5c2.2-2 3.7-4.6 5.8-6.2 1.3-1.4 2.6-3 4.1-4.2.1.9-.9.6-1 1.4zm-6.4 18.5c-1.5-2.1-2.5-7.6-2.5-7.6s-.4-.5.1-.5l2.3 8.1zm27.5 10.7c.1.3.6.3.5.7l-.9-.2-25.4-7.8v-.2c8.7 2.2 17.1 5.2 25.8 7.5zm-21.5-5.1c6.9 2.5 14.6 4.2 21.3 6.6l-.1.1c.7.5 1.7.2 2.5.8-.1.1-.1.2-.1.3-9.7-2.9-19.5-5.6-29.2-8.9l.3-.4c1.8.3 3.4 1.6 5.2 1.5zm12-39.4c.3 2.6-.2 5.4 0 7.7l-4.5 4.9c1.2 9.7 3.9 18.5 8 26.9 2.3.9 4.8 1.5 7.1 2.5 1.4 2.8 3.8 5.3 5.1 8.2-1.3.7-2.4-.7-3.7-.8l-29.4-8.8c-1.5-.7-1.6-2.6-2.3-3.9-1.4-4.4-2.9-8.7-3.6-13.4 2.7-3.4 6-6.4 8.8-9.6 4.6-4.9 8.9-9.8 13.8-14.6.5-.1.7.4.7.7zm-9 16.8l-.3-.4c-1.2.7-2 1.9-3.1 2.8-1.6 2.5-4.5 4.1-5.8 6.8l2.4 8.5c3.7 1.7 8.1 2.1 11.9 3.7.4 0 .7-.3.8-.7-2.8-6.5-4.9-13.5-5.8-20.7zm7.8-15.9h-.2l-19.5 20.6-1.6 2c1.2 5.2 2.6 10.5 4.5 15.5 10.3 3.3 20.8 6.1 31.1 9.2-1.3-2-2.4-4.3-4.1-6.1-2.4-.8-4.8-1.4-7.1-2.5-4.1-8.5-6.4-17.8-7.7-27.4l4.1-4.2.6-1.1c-.3-2 .2-4-.1-6zm4.9-35.4c2.2 1.6 2.7 4.3 2.3 6.9-1.5 5.8-3.9 11.3-4.7 17.4-.1 3.1-1.8 6.4-4.6 7.4-1.7 1.3-4.5 1.6-6.5.9a41.26 41.26 0 0 1 .5-6.3c.8-1.2 1.6-.2 2.7-.8 2.9-2.3 2.1-6 3.4-9.1.7-3.5 3.4-10.1 2.7-10.5 0 0 0-1.1-4.7-2.9-3.3-1.3-7.3-3-12.1-4.7l-.2-.3 2.5-5.7c6.4 2.1 12.8 4.5 18.8 7.7zm-1.9 0c-5.5-2.1-10.6-4.8-16.2-6.4-1.3.7-2 4.2-2 4.2l8.7 3.3c1.6.6 3 1.3 4.6 2 1.2.6 3 1.3 3.4 3.1-.1 3.9-1.9 7.1-2.8 10.7-1.2 3-.7 6.4-2.8 9.1-.9 1.3-2.3.6-3.4 1-.3 1.8-.6 3.3-.3 5 1.1.1 2.1.2 3.2 0 2.6-.6 4.9-3.5 5.3-6 .9-7.3 3.9-13.8 5.4-20.7 0-2.1-1.2-4.2-3.1-5.2zm-1.3 1.6c1.6 1.3 2.5 3.4 1.9 5.2-.4.4-.1 1.1-.6 1.3 0 .8-.2 1.4-.5 2-.8 4.4-3.1 8.5-3.4 13.2.3.5-.2 1.4-.3 2-.3 1.1-.5 2.3-1.7 2.9 1.8-4.1 2.2-8.5 3.5-13 .7-4.3 4.9-9.4.7-13.5-4.5-2.3-9.7-3.6-14.3-5.8.1-.3-.4-.4-.6-.2l-.1-.4c5.1 2.1 10.3 3.7 15.3 6.1zm1.7-.6c1.3 1.2 1.9 2.7 2.1 4.3-.5 3.7-2.4 6.9-3.2 10.6-1.7 4.3-1.1 9.9-4.2 13.7-.2.1-.5.3-.7.3 3.4-4.7 2.4-11.4 5-16.4l-.1-.2c1-3.5 4.4-8.1.9-11.4-2.8-2.6-6.7-2.9-9.9-4.5l-6.7-2.8-.1-.4c5.7 2.2 11.5 4.1 16.9 7zm70.3-64.6c3.7 3.8 8.5 7.1 12.4 10.8l1.3-.3c4.1-2.6 8.2-5.3 12.5-7.8 2.8.5 5.4 1.4 8.1 2.4-3 2-6.4 3.9-9.3 5.8l-7 4.5c3.3 3.6 7.6 6.7 11.2 9.9 2 2 4.4 3.1 5.8 5.5-1 .1-2.2.1-3.2-.4-3.4-1.3-6.8-2.5-10.4-3.4l-.5-1.1-8.3-6.9c-3.5 1.7-6.8 4.3-10.2 6-4 .2-7.5 0-11.1.8-.4-.1-.4-.4-.4-.8 5.3-3.7 11.1-6.6 16.3-10.4l.1-.1c-4.5-4.8-10.4-8.7-15-13.5v-.3c2.6-.2 5.2-1 7.9-.8zm-39.8 25.4v.3c-5.2 2.7-10.3 6.5-15 10.2-.8-3.1-.5-6.5-1-9.7 1.9-1.9 4.5-3 6.6-4.8 3 1.4 6.6 2.2 9.3 4.1zm-17 25.7c-.4-3-1.1-6.3-.8-9.2.4 3 .7 6.2.8 9.2zm-.3-27.4l5-3.7s1.4-.8 1.1.1c-2.3 1.8-4.8 3.5-7 5.2.4 4.1.6 8.7 1.3 12.8-.1.3-.1.8-.6.6-.6-4.5-1.1-8.7-1.3-13.3l.3-1 1.1-.8zm4.1-3.8l-6.2 4.2s-.8.5-.4 1.4c0 0 .1-.8.7-1.2.7-.4 6.2-4.5 6.2-4.5s.3-.5-.4.1zm-5.2 19.9c-.5-.4-.4-1.6-.7-2.3l-.8-11.3c.9 4.6.7 9 1.4 13.5zm33.4-13.4c.9.1 1.5.8 2.3.9.1.3-.1.4-.2.5-9-3.7-18-7.2-26.8-11.4l.1-.4c8.2 3.6 16.6 6.7 24.6 10.3zm-.3 1.7c-8.4-3.2-16.7-6.8-24.8-10.5 8.3 3.5 16.8 6.6 24.8 10.5zm-9.5-1.2c-5.3 3.8-11.5 6.3-16.6 11.1l-4.6 4.1c-.4 1.7.8 3.8 0 5.1.8.4.5 1.3.5 2.3.1.2-.3.4-.5.5l-.2-.2c-.2-2.5-.8-4.9-.7-7.6 6.3-6.5 13.9-11.3 21.7-15.4l.3.2zm-1.9-.6c-6.3 4.3-13.3 7.8-18.8 13.8-.9.2-1.4 1.2-2.2 1.8 1.9-2.6 4.6-4.5 7-6.6 4.5-3.4 8.9-6.8 13.9-8.9zm19.4 1.1c.3.1.4.4.4.6-2.8 1.1-5.9 1.6-8.5 3.3l-7.3-2.8-.8.1c-7.4 3.8-14.6 8.8-21.1 14.4.7 2.4.7 5 .9 7.6-1.3 2-3.5 4.1-5 6.2l-.4-.4-2.6-21.4c0-.8 0-.8-.1-1.8l-.8-8.9c3.6-3.8 8.2-6.4 12.5-9.4 1.2-1 2.5.1 3.7.5l29.2 12.2zm-21.4-2.1c-3.6-2.1-7.5-3.1-11.2-4.8-2.7 1.5-5 3-7.3 5 0 3.9.8 7.8 1.1 11.3 0 .3.1.8.6.8 5.1-4.5 10.6-9.2 16.9-11.9v-.3zm17.7 2.1c-9.4-4-18.8-8.4-28.4-12.2-4.3 2.8-8.8 5.4-12.6 9 .2 8.2 1.9 15.7 2.3 23.6.5 2.2.6 4.8.9 6.9 1-1.6 3-3.1 4-5-.5-2-.6-4.6-.7-6.8 6.4-6.1 14-11.2 21.9-15.4 2.3.5 4.2 1.8 6.4 2.5l6.1-2.3.1-.3zm30-10.9c-3.2 2.2-6.8 4.6-10.3 6.7 3.3-2.3 6.6-5.1 10.3-6.7zm-9.1-14.2c3.2 3.5 7.3 6.8 11.2 9.8.2.3-.1.6-.4.8l-.5-.1c-4-3.8-8.2-7.1-12.2-11.1.4-1.3 1.4.5 1.9.6zm.2 2.4c3.2 2.9 6.2 6 9.4 8.6-3.7-2.4-7.1-6.2-10.5-9l.1-.2 1 .6zm-1.2-.8c-1-.5-2.2-1.2-2.6-2.3 1.3.2 1.7 1.6 2.6 2.3zm29 1c-4.6 3.7-10.2 6.2-15 9.5h-.2v-.3c5.3-2.6 10-6.7 15.2-9.2zm2.4.7c-5.3 3.3-10.5 6-15.5 9.7l.1.4c4.9 4.4 9.9 8.7 14.7 12.8-.6-.1-1.3-.6-2-.7l-13.6-12.1-.1-.4c5.1-3.9 10.7-7 16.1-10.2h.4v.6zm-5.3 21.2h-.1c-4-3.5-8.3-7.1-12-10.8 4.2 3.3 8.4 7 12.1 10.8zm-26.1-25.7c-1.8-.2-4.1-.2-5.8.3l.2.6c4.9 4 9.6 8.4 14.4 12.6-4.7 3.3-9.5 6.4-14.5 9.4l-.8.7c2.1-.1 4.4-.4 6.5-.4 3.8-2.6 7.9-5.1 11.8-7.5l.4.3c.1.5-.5.7-.8 1.1-3 1.7-6.1 3.7-9 5.8h.5c3.5-1.7 6.3-4.4 9.9-6.1 3.1 2.9 6.7 5.6 9.9 8.5 3.4.9 6.8 2.2 10.2 3.1-5.2-4.6-10.8-9.2-15.9-14.1 2.9-2.3 6.1-4 9.2-6.1 2.2-1.4 4.3-2.4 6.4-4-1.7-.8-3.7-1.4-5.7-1.6-4.6 2.8-9 5.9-13.8 8.4-4.1-3.4-8.8-7.2-12.9-10.9zm-24.2 198.8c-1.3-.9-1.5-2.8-2.6-4-2.6-4.1-5.9-8.1-8-12.6 3.3 5.5 7.3 10.9 10.6 16.6zm-11.9-16.9c.7 1.8 1.7 3.4 2.6 5.2-1.3-1.5-1.9-3.4-2.9-5.2h.3zm3.2 10.6c-1.3-1.3-2.3-3.3-3.2-5.2l3.2 5.2zm-3.6-11.1c-.5-.2-.5-1-.8-1.5.6.2.4 1.1.8 1.5zm1.3-.4v.3l-.5-.8c.2.1.4.3.5.5zm3.7 13.4l.2.3-.2-.3zm-.4-.6c-.4.1-.4-.7-.6-.8l.6.8zm15.6 6.5c.1.5.5.9.4 1.3-.8-.7-.8-2.2-1.4-3.1.6.5.6 1.1 1 1.8zm1.3.4h-.2l-.7-2.3c.4.7 1 1.5.9 2.3zm-2.2-2.4c-.7-.6-.8-1.7-1.3-2.5l-.9-1.8c.8 1.3 1.9 2.6 2.3 4.3zm-.5.5c-.4 0-.7.6-.3.8.1.3.3.5.4.9-.6-.1-.7-1.1-1-1.6.8-.4-.3-1.5-.6-2.2-.7-1.8-2.3-3.4-2.8-5.4 1.6 2.5 3 4.9 4.3 7.5zm-7.8-.2c-1.6-1.7-2.5-3.7-4.1-5.7l-3.4-5.2v-.3c2.5 3.7 5.2 7.4 7.5 11.2zm6-.6c-2-3.7-5-7.6-6.6-11.3 2 3.7 4.8 7.4 6.6 11.3zm.2 2l-.1.1c-.9-1.2-1.3-3-2.6-4-2.5-3.8-5.1-7.8-6.9-11.7 3.1 5.2 6.7 10.4 9.6 15.7zm-1.1-.2c-1.1-.7-1.1-2.3-2.1-3.3-2.7-4.1-5.8-7.9-8-12.1l-.8-1.6c3.2 5.7 8 11 10.8 16.9zm-1.8-1c-3.9-5.1-7.8-10.9-10.8-16.7l.1-.1c3 5.7 7.1 11.2 10.7 16.7zm-15.8-14c-.1.4.5.8.1 1-.1-.1-.2-.1-.3-.1.1-1.4-1.3-2-1.5-3.2l-2.2-6.3c1.1 2.8 1.9 6.1 3.9 8.6zm.1-1.6c-.1.2-.2.1-.4.1-.7-1.7-1.6-3.3-1.7-5.2.8 1.7 1.1 3.4 2.1 5zm.8 2.6c-.3-.5-.8-.9-.8-1.6.2.5.7 1 .8 1.6zm-.7-4.5c-.4-.4-.9-1.3-1-2.2l.2-.1c.2.8.5 1.6.7 2.3zm1.2 2.5c2.2 4.8 6.1 9.1 8.6 13.8-3.6-4.9-7.3-10.2-9.7-15.9.9.4.5 1.5 1.1 2.1zm69.2-12.8h-.2c-1.5 2-2.4 4.4-3.7 6.6-1.6 1.4-2.3 3.5-3.4 5.3-.1.7-1.1 1.6-1.5 1.9.1-.5.7-1.3.9-1.9-2.4 3.7-5.4 7.6-7.8 11.3 1.4-1.2 2.3-3 3.7-4.3-.2 1-1.1 2.1-1.8 3 2-1.7 3.4-4.7 5.1-6.4-.8 2.3-2.7 4.5-3.3 6.5 2.2-3.2 4.7-6.4 6.2-10 2-4 5.2-7.5 5.8-11.9zm-11.9 18.8c.5-1 1.2-1.9 1.8-2.9-.4 1.1-1.2 1.8-1.8 2.9zm2.1-3.3l.8-1.3c.1.4-.4 1-.8 1.3zm6.6-81.7c3.4 1.6 6.4 4.2 10.2 4.9v-.4c-2.6-.7-5.1-1.7-7.4-3.4-3.4-2.5-6.9-5.2-10-8.3-12.6-12.8-19.3-29.6-18-47.5 0-.5-.1-1.2.5-1.3-.2 3.5-.1 7.6.3 11.2 0 .2.2 1.9.2 1.9.1.8.4 1.8.4 1.8v-.7c-1.1-10.8.1-18 .1-18-.9-1.2.1-3.5.2-5.2-.3.7-.5 1.6-.9 2.2-.4 1-.1 2.2-.7 3.1-.9-1.2.1-3.1.5-4.3l-.1-.1c-1.5.7-.1-1.3-.5-1.7-3.4.9-7 1.3-10.3 2.1-.7.1-1.6.5-1.4 1.4-.9 1 .3 1.9.3 3.1.9 3.9.5 7.6-2.5 10.4-.4.4-1.1 1.1-1.6.5 1.5-.7 2.2-1.8 2.9-3.2l-.7-.1c.4-1.8 1.7-4.2 0-8-.4.4.9 4 .2 4.2l-.3-.2c-.2-2.5-1.1-3.7-.4-6.2h-.4c-.4.8.1 1.9-.1 2.7h-.1c.1.7.5 1.9 0 2.3-.7-1.3-1.1-3.3-.4-4.8h-.2c-.3.7-.3 1.9-.4 2.7-.1.7.3 1.7-.1 2.2l-.5-.4-.1-4.3c-1 1.1-.6 2.9-.7 4.5h-.3c-.7-1.3 0-2.9-.1-4.3h-.1c-.6.2-.5.9-.6 1.3-.2 1.1.1 2.2-.3 3.1-.8-.4-.5-1.6-.4-2.4-.3-.6.5-1.4 0-1.7-.6 1.1-.7 2.5-.5 3.7l-.4.4-.3-.1c-.4-1.4.4-2.8.4-4.1-1.2 1-.8 2.6-1.1 4.1-.7-.2-.5-1-.7-1.4.5-.6.5-1.8.4-2.3-.6.1-.7 1-.9 1.6 0 .8-.4 1.5-.8 1.9-.1-1.2.3-2 .7-3.1-.8-.2-1.1.5-1.8.4-1 .5-.4 2-.9 2.8-1-.4.1-1.7 0-2.4-1.4.4-.5 2.3-1.6 2.8-.5-.8.6-1.6.4-2.5h-.3c-.4 0-.4.4-.6.6-.4.8.1 1.6-.6 2.1-.8-.6.1-1.6.3-2.5-1.3.3-.6 2.1-1.5 2.7-.5-.7.4-1.5.3-2.3h-.3c-.8.6-.5 2.2-1.1 3-.6-.8.2-1.7.3-2.6h-.3c-.7.8-.6 2-1.1 2.8-.5-.8.2-1.6.3-2.4-1.2.3-.5 1.7-1.3 2.4-.5-.5.1-1.3.1-2h-.4l-.7 2.3c-1.2 0 .3-1.5-.1-2.1-1.1 1-2.1 2.2-2.9 3.4-7.7 1.3-20.4 6.6-20.8 7.4s-2.1 1.3 2 5.1 4.9 4.1 7.2 6.1c1.3.8 2.6 2.4 4.2 2.5.9-.9 2.2-2.2 2.8-3.1-.7-.4-1.1.8-1.8.9-.7-.8 1.1-.8.7-1.7-.9-.1-1 1.1-1.8 1.2-.7-.8.7-1.1.8-1.8-.7-.7-1.4.5-1.8 1-1.7-.4.9-1.3.2-2-.4-.3-.7.1-1 .3-.8 0-.4.8-1.2.9-.6-.8.9-1.3.8-2-.9-.4-1.3.5-1.8 1.1-.7-.4.1-1.2.4-1.8-.8-.4-.8.9-1.6.9-.8-.7.8-1.1.4-1.8-.8-.3-1.2.9-1.9 1-.8-.7.9-1 .5-1.6-.9-.5-.9.8-1.6.9-.8-.5.4-.9.5-1.5-.7-.5-1 .5-1.5.8-1-.6.8-.8.3-1.4-.7-.1-1.1.5-1.3.9-.6.3-.9.3-1.4-.1-.5-1.4-2.7-2.3-1.8-3.9 1.8-.3 4 .1 5.7 1 11.8 6 22.5 15.3 33 24.1l.2-.3c2.2.1 3.7-1.3 5.5-2 2 0 4.2-.9 5.9.5-.4.5-.7-.1-1.2.1-3.7-.7-5.8 2.4-9 2.8 9.4 8.9 17.7 17.4 25.1 27.7l1.4.8c1.4.1 2.3-.9 3.4-1.1.1-.5.1-.8 0-1.2-.2.7-1 1.1-1.5 1.4-.7.2-1.8.3-2.5-.1-7.2-9.7-15.2-17.7-24-26.8l.2-.2c8.1 7.2 15.6 16.2 22.4 23.9-.7-1.9-2.6-3.3-3.6-5.1-6-6.5-11.7-13.1-18.3-19.4.1-.1.2-.1.4-.1 8.4 7.8 16.4 16.4 23.2 25.6h.4c0-.5-.8-.7-.7-1.3-6.5-8.7-13.5-16.1-21.5-23.9l-.2-.6c3.6 2.8 6.6 6.4 10.1 9.5 3.8 4.4 8.2 9.2 11.4 14h.9c1-.7 1.3-1.9 1.6-3l.2.3c0 1-.2 2-.9 2.6-.2.4-1.3.6-.9 1.3 1.7-.1 1.9-1.9 2.3-3.3.4-.5-.3-1.1.2-1.6.6.2.3 1.1.6 1.5l.4-.3c.9 1.8.5 4 .1 5.4 1.2-.7 1-2.2 1-3.4-1.1-6.1-5.4-10.6-9.1-15.5-4.3-4.4-8.3-9.7-13.6-12.1-2.9-1.5-6.5-.4-8.9 1.3-1 .2-2.2 1.2-3 .1 2.7-.7 4.7-3.2 7.7-3.2-.3-.6-.8-1.1-1.2-1.7l.3-.2c.7.5 1.2 1.4 1.9 1.9l2.1.5c.7-.1 1.6.3 2.2.7.8.1 1.1 1.2 1.9 1.1 2.8 2 6.6 6.1 7.8 7.2 3.8 4.5 8.2 9.7 11.1 15 .7.8 1.4 2.2 2.5 2.3-.8-1.4-2.5-2.7-3-4.2l.3-.2 2.6 3.2h.5c.5-.9-.8-1.3-1.3-2s-1.5-1.3-1.3-2.2c.9 1 1.8 2.3 3.1 3.1l.1-.7a39.16 39.16 0 0 1-2.7-3.3l.2-.3c2 2.2 4.3 4.8 6.9 6.4l-.2.2c-1.4-.4-2.7-1.8-3.9-2.3v.6l3.5 2.7c-1.1.3-1.9-1.1-2.9-1.4-.6 1.5 1.7 1.9 2.4 2.9l-.2.2c-1-.3-1.7-1.4-2.7-1.4.7.8 2 1.2 2.6 2-.7.3-1.3-.6-1.9-.4.1 1.1 1.6.8 1.9 1.6l-1.4-.1c.4.5 1.2.3 1.4.8-.6.5-1.3-.3-1.9 0 .5.4 1.3.4 1.9.5.5.9-.9.1-1.1.6l1.5.4c-.2.1-.2.3-.3.4l.6.5c-.3.1-.5.3-.8.2-.4 1-.6-.4-1.1-.1-.1.4.2.3.1.7-.5.4-.9.3-1.4.2.3.4-.2.7-.3.9-.3 0-.3-.5-.7-.1-.1.1.1.4.2.7-.2.3-.5.2-.7.2 0 .3-.1.6.1.8 1.3.5.4-1.2 1.3-1.3.6-.5 1.3.1 2 .1.3-.5-.5-.2-.5-.7.5-.4.5-1.1 1.2-1.1 1-.1.7 1.1 1.3 1.5l.5-.9c2.5.1 5.2.5 7.3 2.2l-.2.2c-1.2-.7-2.5-.9-3.7-1.5-1-.1-2.1-.5-3-.2.3.4.7-.1 1.1 0 2.3.4 4.2 1.6 6.3 2.7 1.5-1.1.1 1.1 1.2 1.6.7-.5-.3-1.5.2-1.9.7.3.7 1.2.5 1.9-.8.6-.5 2.2-1.6 2.8.5.3.8-.5 1.1-.1-.5.6-.1 1.5.1 2.2l.1-2c.3-.2 0-1.1.6-1-.4 1.5-.2 3.1.5 4.5-.8-2 .2-4 0-6.1 0 .3-.4.3-.6.5.1-.8.3-2-.2-2.9-1.3-.2-.3-1.9-1.2-2.7-2.4-1.6-5.2-2.5-7.8-3.3 3.1-.3 5.8 1.6 8.2 3.2.8-.7 1 .7 1.2 1.2l-.1-1.6c-.5.3-.7-.5-1-.8-2.8-1.5-5.6-2.8-8.6-3.7l.1-.1c3.7.4 6.8 2.6 9.9 4.2l.2 1.1.2-2.3c-.5-.3-.6 0-.7.4-3-1.9-5.9-3.6-9.1-4.9l.2-.2c3.5.7 6.4 3.4 9.9 4l.1-.4c-2.6-1-5.3-2.3-7.5-4l.2-.2c2.6 1.4 5.2 2.9 8.1 3.9.2-.1.1-.4.1-.6-6.4-2.5-12.3-6.7-17.5-11.6l-2-1.9c-4.5-5.9-9.1-11.7-12-18.8-1.9-5.6-4.2-11.4-4.1-17.5 1.2 9.4 4.3 17.7 9.2 25.6 3.8 7.4 10 13.4 16.6 18.6zm-20-64.8c-.2-.4 1.8-.2 2.4-.5-.7-.3-1.6-.1-2.4-.2-1.7 2-2.6 4.4-3 7-1.3 11.7-.3 23.1 5 33.2.1-2.3.3-5.3 1.9-7l.2.2c-.9 2.2-1.7 4.4-1.3 6.9l-.5.4c.2.4.3 1.1.6 1.1.3-1.9.5-3.9 1.1-5.5.4-.7.1-2 1.1-1.9-.4 1.2-1.1 2.3-1.1 3.6-1.1 1.6-.2 3.3-.3 5 .4-2.2 1-5.3 2.2-7.6h.2c-.7 3-2.3 6-1.8 9.3h.2c.5-2.7 1.1-5.3 2.2-7.7l.2.1c-.2 1-.5 2-.9 3-.5 2-1.6 4.3-.6 6.4.4-2.9 1.1-5.8 2.2-8.4.1-.2.4-.2.5-.1-.9 2.8-2.2 5.5-2.2 8.5-.8.8.7 1.7 1 2.5.5-.7 1.3.3 1.7-.4-.6-.9-1.7-1.3-2-2.2.1-.9.1-1.9.6-2.6.2.8-.4 1.6.2 2.3l.5-.2c.5-1.9.8-4.2 2-5.8-.4 1.7-1.3 3.6-1.4 5.5.4.2.9.1 1.1-.3l1.1-4.1c-.1-.3.4-.6.6-.4-.5 1.6-1.2 2.9-1.1 4.6 2.6-.1 5.6-.2 8.1.7 2.3.7 4.6 1.9 7 2.3-.3-3.1-2-5.7-2.4-8.8.6-.8 2-1.3 2.3-2l-3.3-1.7c-.9-.1-1.1-1.5-2-1 .1 1.2-.6 2.4-.1 3.4.9-.6.1-2.4 1-2.9.1.5.1 1.5.1 2-.3 2 1.4 4.2.4 6.3-1.8 0-3.4.3-5 0-2.3-2.4-5.3-3.8-7.8-5.8-.6-1-1.2-2.1-.9-3.2 1 .5.6 1.9 1.4 2.6l2 1.4c3 1.1 5 5.7 8.8 4 0-.5-.3-.9-.3-1.4-.1-.6.1-1.7-.5-1.9-.8.6-1.7 1.1-2.2 1.7l-2.8-2.6c-1-1.5-2.9-2-3.4-3.7l.7-.2-.6-.4c0-.6.6-.3.8-.5-.3-.2-.7-.2-.9-.7.7-.3 1.7 0 2.1-.9l-.5-.6c.5-.4 1.1.1 1.6.2l-.5-.8c.4-.6.9.3 1.2 0 .2-.9.9-.1 1.5-.3.4-1.2 1.1.2 2-.3.5-.4 0-1.8.8-1.9.7 2 .4-1.1 1.3-.6v1.3c.4.1.4-.7.8-.3.1.1-.1.2-.1.3-.3.5 0 1.2.7 1.1.1.3-.1.5-.1.8 0 .4.1.7.6.9.3 0 .2-.4.4-.5.6.1 0 .7.1 1.1 0 .4.4.4.7.5l.4-.8c.6.3-.1 1.2.3 1.6.7.7.5-.7 1.1-.4l.1 1.1c.5.7.6-.5 1-.2l.2 1.1c.4.3.6-.2.9-.2.1.3-.1.8.4.9l.7-.4c-.1.7 1.1.9.2 1.5 0 .1.2.4.4.3.1 0 .1-.1.1-.3.1-.1 0-.8.5-.6 0 .4.2.9.7.7v-.1c-.2-.2-.2-.4.1-.5.8.4 1.7.4 2.6.7.5.3-.2.9.5 1 0-.3.3-.4.3-.7.6.3 0 1.4.8 1.6.3-1.1.1-2.5.9-3.4l.1.2c.2.1.4-.1.6-.2v2.9c.1-1 .3-2.1.9-3l.1.2c-.4 1.6-.6 3.9-.4 5.5 0-1.4 0-2.1.4-3.4.2-.7.1-1.5.8-2 .1.1 0 .3.1.5-.9.8-.1 3-.7 4.3.8 1.7 2.3 3.2 2 5.2l-.2.1c-.7-1-1.3-2.5-2.3-3.4.4 1.2 1.3 2.1 1.8 3.3.1 2.2 1.2 4.3 1.2 6.8l.5.1c-.9 2.3-.9 5-1.9 7.2l-.4-.8c.5 1-1.8 1.6-.3 2.3-.3.2-.6.3-1 .2-.4.2-.9.7-.7 1.1l1 .1c2.1.1.1-2.9 2.4-2.9.7-3.1 1.6-6.1 3-8.9 1-2.7-.5-5.1-.4-7.9.3-1.4 1.2-2.7 1.3-4.1-.4.2-.1.5-.2.8-1 1.1-1.1 2.7-2.1 3.6.4-2.5 2.3-4.7 2.5-7.5l-.5.4c-.5 1.8-1.3 3.4-1.9 5-.1.2-.5.4-.7.1l2.2-5.7.8-.8.1.1c0 .1.1.3-.1.3.1.3.1.1.4 0-.3-1.4 1.5-1.6 1.3-2.9-.1-.8-1.1-1.2-1.7-1.7-4.8-1.3-9.6-2.7-13.4-5.8 1.3-.2 2.2 1.4 3.5 1.6.3-.6.7-1.2 1.2-1.8 3.8-.7 7.3-.2 11.2-.7 1.6.2 3.4-.7 4.7-.4 1.7-2.4 1.8-5.6 2.7-8.4l-3.4.7c-1.5-.7-1.3-2.6-1.9-4 0-.3.3-.4.6-.4.6 1.1.5 2.6 1 3.7l4-.9c.4-1.6.9-3.4 1.1-4.9-.7.2-.6-.7-1-1-.2-.4-.5-.9 0-1.3 1.2 0 .5 1.4 1.3 1.9.7-.9-.8-1.5-.1-2.4.6-.4.6.7 1 .8.2-.4-.5-.7 0-1 .5-.5.7.4 1 .6l.3-.6c.5-.2.5.5.9.7.5-.1 1.4.3 1.6-.2l-1.1-1.3c-1.9 0-4-.5-5.7.5-1 .6-2.9 1-2.7 2.6-.3.7-1.1.8-1.7 1-2-1-3.9 1.1-5.9-.1-3.8-1-7.1-4.8-8.3-8.1.1.5.4 1.4.3 2.3-.4-.3-.4 0-.9 0-.5-.2-.1-1.1-.3-1.4-.9-.9-.7-2.3-1.8-3-.1 1 .7 1.3 1.1 1.9 0 .8.8 1.8-.1 2.2-.2-1.1-.7-1.9-1.3-2.8 0-1-.9-1.3-1.3-1.9.4-.2 1 0 1.3.2l-1-.9c.2-.4.7.1 1-.1l-1.4-1.1v.2c.1.3-.2.5-.4.5-.5-.7-1.5-.4-2.2-.5.6-.2.7 1 1.3.3.4.1.9 0 1.1.5-.2.4-.5.1-.7.1-.2 1.8 1.4.7 1.7 2.2-.7.6-.8-.6-1.4-.7-.3 1.3-1.3 2.5-1.9 3.7 1.2.8 2.3-.4 3.6 0 4.4 1.9 1.7 6.9 2.3 10.4 1.1 1.6 3.2 2.3 4.9 2.7 1.6 1.2 4 .9 5.2 2.7.1 1.1.9 2.7-.3 3.4 2.4.2 4.8-.3 7.2-.6l.7.3c-2.1.7-4.2.9-6.4.8-.7.4-1.8.2-2.5.1-1.1-.8-2-1.8-2.3-3.2-2.4-1.1-5.3-1-7.9-2-.6-.4-1.6-.1-2.1-1-1.1 1.6-1.9 3.6-2.1 5.6.7-.4.5-1.3.8-2.1.2-.5.5-1.3 1-1.3-.2 1.3-1.1 2.8-.8 3.8.6-1.3 1.1-2.9 2-4 0 1-.7 2.2-1.1 3.3-.3.6.1 1.5-.5 1.8l-2.5-1.5c-.1-3.7-2.1-7.8.3-11.2.6-1.3.4-3.7 2.5-3.7 1.4 2.5.5 5.7 1.2 8.5l.9.9c2.6.8 5.4 1.2 7.9 2.1 2.1 0 .9 2.6 2.7 2.9.3-.3.9-.5.8-1.1-.1-1.2-.2-2.5-1.5-2.9-3.1-.6-5.8-1.9-8.6-3.4-.7-2.9.4-6.1-.2-9.3-.9-1.6-3.3-1.4-4.9-1.2-.7.1-.9-.6-.9-1.1.4-1.6 2-2.7 1.6-4.6-.5-.9-1.7-.9-2.4-1.6l.3-.3c.1.1.4 0 .5.1-.1-.2 0-.3.2-.4-.5.1-1.1.1-1.3.6-2.1 1-1.9 3.2-1.9 5.3-.9 1.8-2.2-.3-3.3-.3-3.6-2.3-4.5 2.3-7 3.6-3.1 1.7-5.4-1-8-1.8-.7-.6-1.3-1.4-2.3-1.5-.5.5-.8.8-1.1 1.3.3.5.8.8 1.3 1.1 3.3 1.2 6.1 3.9 10 3.7l-.1-.6c.5.1 1.1.1 1.3-.3-1.2-1.3.8-.1 1.1-.8.1-.5-.5-.2-.5-.7l1.2-.4-.2-.3c.5-.5 1.1 0 1.6-.1v.4c-2.2 1.1-1.6 3.7-2.6 5.7-.7 1.6-2 3.4-1.3 5.4.1-.4.2-.8.5-1.1l.3.2-.6 1.9c.7 0 .3-1.3 1.1-1.5.5.3-.2 1-.2 1.5 0 .6-.8 1.1-.4 1.5.1-.3.1-.7.5-1l.3.2c-.1.8-.7 1.6-.4 2.5v-.2c.2-.1.1-.7.5-.4 0 .7-.1 1.7-.1 2.4l-.1-.1v.4c.3.1.1-.7.2-1.1.8-.9 1.7-1.4 2.9-1.5 1.1.2 2.5.4 3.5.1-1.4 1.5-4-.4-5.6 1.1-.8 1 .7 1.6.2 2.5-.6.1-.2-.8-.9-.8l.2 1.2c-1.6 2.1-4.2 3.1-6.5 4.1l-.2-.1c.1-.9 1.3-.8 1.8-1.4-2.9-1.3-1.8-4.7-2.8-7.1-.3.7-.4 1.6-1 1.9-.3-1.2 1-2.4.8-3.7-.8 1.1-.8 2.8-1.8 3.8l-.2-.1c.5-1.4.6-2.9 1.6-4l.1.1c.1-.5 0-1.3-.4-1.6-.4.5-.6 1.1-.8 1.8-.8 1.3-.8 3.2-1.9 4.1.3-2.5 1.4-4.6 2.5-7l-.3-.5-.2.2c-1.2 2.9-2.3 5.9-2.8 9.1-.1.5.6.9.1 1.3-1.9-1-.1-2.9-.4-4.4.4-2.4-.2-5.6 1.6-7.2.8.1 1.7-.3 2.3.4 1 3.5 2.1 7.3 2.5 11.1l.9.5c.7-1.1 1-2.6 1.3-3.8-1.2-3.4-1-7.3-2.9-10.4-1.2-1.7-3.7-.8-5.4-1.1l-1.9 3.1c.4 4.4-.8 9-.5 13.6.9-.5 1.6-1.4 2.7-1.7 1.1.3 1.3 1.6 1.4 2.6-1.3 1-2.8 1.6-3.9 3l-.8 4.5h-.1c-.2-1.7.2-3.7.7-5.2-.1-.1-.2-.2-.4-.2-.7.8-.3 2.1-1.1 2.7-.1-1.7 1.4-3.5.6-5.1-.3 1.3-.9 2.5-.9 3.8l-.3.2c-.3-1.7.4-3.4 1-5 .1-.8.4-2.2.1-2.8-.8 1.9-1.1 3.7-1.6 5.7h-.2c-.1-2 .7-3.8 1.3-5.7 2-2.8.8-7 1-10 .6-1.3 1.7-2.5 2.3-3.8 1.1-.9 2.6-.1 3.8-.4 4.6.8 3.7 6 4.9 9.2.4 1.1.2 2.7 1.6 3.1.4-.1.1-.6.2-.9-.3-2.9-2.5-6.4 0-9 .3-1.3 1.5-2.3 1-3.6l-.9.5c-2.2-.4-4.6-.3-6.3-1.7-1.9-.6-3.4-1.9-5.4-2.4-.6-.8-1.4-1.6-1.1-2.6l.5-.1c.2-1.2-1.5-.8-1.7-1.3-.1-.5 1.5-.2 1.5-.2l.8.2c2.4 1.8 5.1 2.9 7.7 4.2 2.9 1.3 4-1.5 5.8-3 1.2-2.1 3.7-1.1 5.5-.7.5.1.7.9 1.4.6.3-1.9.4-4 1.4-5.6.8-.1 1.6-.5 2-.9-4.6 1.4-9.7-.6-14.7-.4v.1c3.9.5 7.4 1 11.4 1l.3.2-.1.2c-4.1-.1-8.5-.4-12.4-.8l-.4.1c3.3.5 7 1 10.4 1 .4.1 1.1-.1 1.1.4-5 .4-10-.4-14.9-1.1.7.5 1.8.6 2.8.6 2.9.4 5.4 1 8.3.9-.3.9-1.3.2-2 .6.7.2 1.6-.2 2.2.3.4 0 1 0 .7-.6 1.1-.1 2.2-.8 3 .3l-.1.1c-.1 0-.2 0-.3-.1-.6-.3-1.5-.3-2 .1.3.1.7.4 1.1.4.1.3-.1.3-.3.4-2-.4-4.7.2-6.1-1.3-3.7-.1-7.2-1.2-11.1-.9l.1.2c3.4.1 6.8 1 10 1.1-.1 1.3 1.8.6 2.4 1.3-.1.2-.4.2-.6.2-1.8-1-4.4.4-5.9-1 .7-.2 2 .3 2.8-.1-2.3.1-4.6-.8-7-.7-1.4-.5-3.2.8-4.5-.2l-.2.7 2-.1c2 .2 4.2.3 6.2.6-.7.8-2.3 0-3.2.8.2-.7-1-.5-1.5-.5.5 1.4-1.1.5-2 .8 0 0-1.3.2-1.5-.3zm8.2 147c-1.9 2.7-4.1 4.9-6.3 7.3-2.5 2.4-5.3 5.1-8.3 6.6 5.2-4.2 10.2-8.8 14.6-13.8zm17.9-14.4c-.1 2.4-1.6 4.5-2.3 6.6-2.8 4.9-5.2 10.2-8.3 14.8l.3-1.1-1.3 1.4c3.6-7.1 8.7-14.1 11.3-21.8h.3zm-1.1 7c-.6 4.6-1.7 9.3-3.7 13.4 1-4.1 2.7-8.9 3.5-13.4h.3zm16.4 12.3c-.1.3-.3.1-.5 0-.2-3.7-1.6-6.9-2.5-10.3l.2-.3c1.4 3.3 2.2 6.9 2.8 10.6zm-6.2-13.8v.2h-.5l-.1-.5c.3-.1.4.2.6.4zm-.4-1.6v.3c-.4.3-.8-.2-1.1-.3v-.3c.5-.2.7.3 1.1.3zm22.8-1.8c-.1.4-.7.5-.9.4-.1-.4.4-.3.5-.5.1-.1.2.1.4.1zm-4.4 2.6c-.1.1-.1.1-.3.1 0-.3-.4-.7 0-1 .2.1.4.5.3.9zm-21.5.8c.1-.3-.2-.5-.4-.7l-.1.2.4.5zm.8 3.8c-.1-.4-.5-.9-.9-1.1l-.1.3c.4.2.6.7 1.1.8zm.4 2.1c-.2-.8-.9-1.1-1.3-1.7-.3.8.9 1.3 1.3 1.7zm-.1 1.4c-.3-.6-.8-1.2-1.2-1.4 0 .8 1.1.8 1.2 1.4zm-.1 1.1c.1-.2-.6-.8-.9-1.3-.4.7.6.8.9 1.3zm-3.7 11.8c-.4-.4.3-1.1.4-1.7.2.8-.4 1.1-.4 1.7zm-93-46.4c-.5 0-.9.3-1.3.5-.1 1.3-.3 3.2.1 4.3.6 4.7 2 9.3 4.7 13.6.6.8 1.3 2.3 2.4 2.1 1.4 1.2 2.1 2.8 3.2 4.3.4 1 1.3 2 1 3.1 1.3 2.9 1.9 5.6 3 8.5 2.3 2.9 3.6 8.3 8.1 8.5l-.1-.1c-4.2-5-7-10.9-9-16.7-1.3-4.8-5.2-8-7.8-12.1-1.2-1.4-1.1-3.9-3-4.5-.2-.4-.3-1.1.3-1.3-1-3.1-1.9-6.7-1.6-10zm9.2 27.1c-5.8-8-11.7-15.8-11.7-26.2l-1.1.3-.1 4.3c1.1 6.9 3.5 13.8 9 18.6-.5-1.1-1.7-2.3-1.9-3.3.7.8 1.3 1.7 2.1 2.5 3.3 3.4 2.3 8.4 4.6 12.2 1.5 2.5 2.3 6.7 5.8 7.1-3.1-4.8-4.5-10.2-6.6-15.5zm115.1-27.3h0c2.9 2.9 6.8 4.5 10.9 4.5 8.5 0 15.3-6.9 15.3-15.4v-31.2l-26.3 41.9zm-29.4 10.1c-1.9-1.4-5.8-1.1-7.4 1.2-.7 1.1-1 2.6-.7 3.9.7 1.6 2.1 2.8 4 3 2.2.3 4-1 5.2-2.6.6-1.1.8-2.4.6-3.5-.8-1.2-.1-.9-1.6-2zm-.7 1.1c.9.7 1.1 1.8 1.1 2.7 0 1.5-1.1 2.4-2.3 3-1.6.7-3.3 0-4.5-1.2-.6-.8-.4-2.3-.1-3.2.5-1.3 1.9-2 3.3-2.1 1-.2 1.7.2 2.5.8zm.2 1.3c-.7-1.5-3.2-2.3-4.2-.7-.4.7-.8 1.4-.7 2.2.1 0 .2-.1.2-.2.1-.4.5-.8.8-.4-.4.4-.4 1.3-.4 1.8-.1.3.4.7.6.5l-.1-.6c.6-1.7.3.9 1.2.9-.2-.5-.2-1.1.1-1.5 1-.6.1 1.6 1.5 1.3.2 0 .2-.3.4-.4-.5.1-1-.1-1.2-.6.5-.4 1.2.3 1.7.1.4-.6.3-1.6.1-2.3zm19.6-12.1c-1-.9-1.4-2.8-3-2.8-4.6 4.6-9 8.6-14.3 12.2v.2c1.3.6 2.7-.5 4-1 1.7-.4 2.8-1.7 4.5-1.9-.4.4-1.1.7-1.5 1.2 2.1-.5 4.1-2.5 6.4-2.9.1.8-1.1.9-1.3 1.6-3.6 1.9-7.1 3.7-11.1 4.8v.4c.7.2 1.5 0 2.1-.1-.3 0-.5-.1-.5-.4 2-.8 4.2-1 6.1-1.5v.1c-1.9.3-3.1 1.6-5 1.7 3.1-.4 6-1.1 8.6-2.5l.2.2c-.7.9-1.8 1.1-2.7 1.6 2.8-.6 5.3-1.8 7.8-3l.2.2c-.6.5-1.3.9-1.8 1.3 1.5-.6 3.9-1.1 4-3.3-.3-2.3-1.3-4.4-2.6-6.1zm-16-111.3c.1-.4-.1-1.5-.7-1.7-.5.6.3 1.2.7 1.7zm34.1 26.5c.1-1.5 1.7-3.2.4-4.5l-1.3 4.5c-.8 3-2.6 5.5-3.5 8.5-.1.3-.8.4-.6 1 .4.5.9 1.6 1.7 1.4.9-1.7 1.7-3.7 3-5.2.2.7-.4 1.3-.9 1.9-.4 1.4-1.2 2.7-1.8 4 0 .4.5.5.8.4 2.5-4 4.9-8.1 5.9-12.8.2-.9.8-2.9-.2-3.1-1.3 3.1-1.3 6.6-3.4 9.3-.2.1-.3-.1-.4-.2 1.2-2.8 2.4-5.7 2.8-8.9-.1-.3-.2-.8-.7-.8-.5 4.5-2.9 8.5-4.9 12.4-.7.4-.4 1.6-1.3 1.9l-.1-.1c1.5-3.3 3.4-6.5 4.6-9.9zm-.4-4.1c-.1-.2-.3-.2-.4-.3-.8 1.2-.7 2.8-1.1 4.1-1.2 1.2-1.1 3-2.2 4-.1-1.1 1-2.2.8-3.2-1 2.1-2.4 4.5-2.5 6.6.5-1.1.8-2.3 1.6-3.3l.1.2c-.4 1.4-1 3.1-1.9 4.1l.8.9c1.9-4.2 3.7-8.5 4.8-13.1zm-2-3.8c.5-.6.4-1.7.1-2.5-.3 1.8-.1 3.4-.8 5.1-.8-.2-.2-1.2-.4-1.4-.3.3-.3 1-.3 1.5-1.3 2.7-.7 6.4-1.6 8.8.7-1.1 1.2-2.2 1.6-3.4.5-.9 1.1-1.6.9-3 .3-1.6.7-3.4.5-5zm7.3 7.6c-.1-1.5.8-3 .5-4.5-.5.5.2 1.7-.6 2l-1.1 4.4c-.7 4.2-3.7 7.2-5.5 10.7-.6 2.3-.4 4.9-2.4 6.6.8.6-.5 1.5 0 2 1-1.6 1.6-3.3 2.3-5.1h.4c-.6 2-1 4-2.2 5.7-.4.8-1.6 1.9-.9 2.7 1.4-2.7 2.8-5.3 3.7-8.2 2.1-2.9 3.4-6.2 5.2-9.3-.4-1.7.6-2.9.9-4.4.7-.9.3-2.6 1.4-3.3.1 2.2-1.1 4.3-1.7 6.4l.4.6-4.6 8.7-1.1 1.1c-.3 3-2.1 5.6-3.4 8.3h.2c2.5-4.2 4.4-8.7 7-12.8l.2.1c-2.8 4.6-4.3 9.7-6.9 14.1 2.8-3.3 4.8-7.7 6.8-11.7l.3.2c-1.9 6-5.5 11.2-9.4 16.2l-1 .5c0 .2-.3.6 0 .7.6-.5.7-1.2 1.4-1.4 5-5.5 8.2-11.5 10.5-18.2l-.2-.1c-.3.6-.7 1.3-1.2 1.6 0-1 .8-1.9 1.1-2.9 2.1-2 1.8-5.1 2.1-7.5l-.5.7c-.3-1.4 1-3.1.3-4.9-.1.2-.2.2-.3.3-.7-1.1.4-2.5.1-3.4-.6.8-.4 2.2-.8 3.1-.8 6-4.3 10.8-7 15.9-.1.2-.3.3-.4.1 2.3-5 5.7-9.5 6.6-15zm-8.4-14.5l-3.3-4.5c-1.5-.5-3.7-.5-5.4 0-2.2 5.8-2.2 12.6-6 17.8-2.6-.1-5.1-.7-7.6-.6-1 .1-2.2.1-3 .6 2.4 1.9 5.6 1.9 8 3.9.7.5 1.8.5 2.4 1-.4.3.1.6-.1 1-1.8 5.1.3 9.8-2.1 14.7 0 2.2.4 4.4.1 6.6-.1 2.9.8 6.2-.5 8.8-1.4.1-2.1 1.5-3.4 1.8l-.1.3c1.7-.3 3.5-.4 5.2-1 .6-2.6.1-5.1 1.1-7.4-.4-.8 0-1.4.4-2-.4-.4-.2-.8.1-1.1-.8-.2-.2-.8-.5-1.3 1.1-.3-.4-1 .6-1.4-.1-1.1.3-2.1.7-3-.6-.5.8-.8.2-1.4 1-.4.7-1.6 1-2.2-.3.2-.6.2-.8-.1.3-.4.7-.5 1.1-.4v-.4l-.7.3c-.2 0-.4-.3-.3-.5.1-.6 1-.2 1.3-.3l.3-1.6c-.3-.1-.6.2-1 .2-.1-.1-.5-.2-.4-.4.3-.6 1-.4 1.5-.4v-.4c-.5.1-1.1.7-1.6.1.5-.7 2.7-.5 1.9-2.2-.3-.2-.6 0-.8.3-.4 0-.9 0-1.1-.3.5-.2.9-.3 1.3-.7-.4.2-.9.3-1.2 0 .4-.5 1.4-.6 2-.9-.7-.2-1.6.5-2.1-.3.9-.1 1.6-.4 2.4-.7.7-1 1.7-2.2 1.3-3.5.1-.8-1.1-1.4 0-1.8l-.5-.8c.3-.3.8 0 1.2 0 .2 0 .4-.2.3-.4l-.6.2c-.4 0-.8-.5-1-.9l.1-.2c.2.2.5.4.9.3v-.1c-.4-.2-.9-.5-1-.9.8-.2 1.4.4 2.3.1-.6-.2-1.7-.2-1.8-1 .6-.1 1.3.1 1.9.2s.7.7 1.1 0c-.8-.3-1.9-.4-2.5-1.1.5-.3.9-.3 1.3 0l-1-1.1c.7-.2 1.4.5 2.1.8l2.2-.2c-.3 3.7-.1 8-1.2 11.4l.1.4c.5.1 1-.5 1.5-.8 1-4.2 1.3-8.4 1.1-13.2.8-2.2-1.9-1.4-2.6-2.4l.4-.3c1.2-.6 1.8-1.7 2.4-2.7.8-1.3-1-1.9-1.6-2.7a3.6 3.6 0 0 0-2.3.2l-.9 4-.5.6c-.6-.4-1.6.3-2-.6.9-2.5 1.2-4.9 1.8-7.5-.1-1.5 1.6-1.4 2.5-1.3 1.2.5 2.2 2 2.9 3.2 1.7 1.7 3.8 3.5 4.7 5.7.9-2.3-1.5-3.5-2.4-5.3zm-27.7 101.5l1.9-1.6v-.3l-1.9 1.9zm-80.9-83.9l-.5-.2-.7 4.1c-.7-1.1 0-2.2-.2-3-.5.4-1.3 1.1-1.4 1.6l.8-.6c.8.4-.3.7-.2 1.1.8 2.1-2.2.9-2.8 2.1.8.3 1.7-.9 2.3-.1-.3.2-.5.4-.8.3-.8.1-1.6.7-2 1.2.3 0 .6-.2.9-.3s1.1-.3 1.2.1l-1.5.7c-.2.1-.8.3-.4.7.5 0 1.1-.5 1.5-.1-.4.5-1.3.6-2 .9-2 4.3-6.6 7.1-8.9 11.2-1.1 2.4-4.4 3.7-4.9 6.5.2-.6.3-1 .9-1.3.4.7-.7 2.1.4 2.7 3.3-2 4.1 2.8 6.9 2.8.5-.5.2-1.1.3-1.8-.1-.9-.9-.8-1.4-1.3.2-.3.6-.1 1-.2 1.3.5.9 1.9 1.3 2.8-.1-.4.2-1.4.6-1.6l.1.4v-.3c.2 0 .1-.7.5-.5l-.4 3.4c.2.9.4 2 .1 2.5.5.7.5 1.6 1.3 2.1l.3-.7h-.2c-1.3-1.4-1-4-.6-5.7.3 1.6-.3 3.7.8 4.9-.3-.7-.3-1.8-.4-2.9.1-.5-.2-1.4.5-1.5.1.7-.1 1.1-.1 2 .3 1 .1 2.6.9 2.9-.1-.9-.4-2.4.3-2.8-.3 2.9 1.8 4.8 2 7.4h.7c0-2.3-2.5-3.5-2.1-5.9.1-.4 0-1 .5-1 .1 1-.2 2.5.6 3.3.8.7.6 2.1 1.8 2.9-.6.6.1 1.6-.6 1.9-.3-.2-.3-.7-.8-.5-.1.3-.1.5-.3.8.7.4 1.2 0 1.8.4 1.7-3.1-2.3-5.2-1.6-8.4h.2c-.2 2.6 2.2 4 2.3 6.4h.6c-.1-1.7-1-3.3-1.8-4.5-.1-.4-.4-1.1-.1-1.5.5 2.1 2.3 3.8 2.5 6.1 1.9.1-.8-1.2.6-1.7.2.2.5.7.9.4.4-1.8-2.5-2.7-1.5-4.6.2.8.4 2.1 1.4 2.9.7.5.2 2.2 1.4 1.7a3.34 3.34 0 0 1-.1-1.7c.5-.2.7 1.1 1.4.4-.3-1.2.7-2 .5-3.2.5.8.2 1.9-.1 2.5-.1.4.5.7.8.4.2-.3-.1-.7-.1-1 .7-1.1.1-3.1.2-4.2.1 1.1.8 2.5.5 3.7-.5 1 .2 2.5-.3 3.7-.3.3-.6-.5-.9-.1.5 0 1.3.8 1.9.1 0-.4 0-.8-.4-1 .1-.1.3-.3.5-.4.1-.5-.2-.8-.4-1.1.7-.3.2-1.1.5-1.6h.1c.2.2.4.4.3.7 0 .3.4.6.6.4-.5-1.9.5-5.1-1.5-6.2l.8-.1c1.1 1.3.8 3.4 1.4 5.1.2.1.4 0 .6 0 .9-.5 2.5-.7 2.5-1.9-.9.1-1.9.9-2.8.5.1-1.1-.1-1.9-.1-2.9-.1-.4-.5-1.1-.3-1.5.7 1.2.8 2.5.9 3.7l.3-.1c.6-1.6.1-3.3-.1-4.9h.3c.2.5.5 1.1.4 1.6.2.7 0 2 .3 2.7.1.1.2.1.4.1.5-1.8-.2-3.8-.4-5.5 1 1.1.8 3 1.1 4.5h.2c.8-2.4.1-4.5-.6-6.6h.1c1.2 1.9 1.5 4.6.9 6.8 1.4.1.3-1.3 1-1.8.1-1.9-.2-4-.8-5.8-.8.2-1.1-.8-.9-1.4.3-.5-.1-1.7.8-1.4l.1 1.8h.1c.1-.4-.3-1.1.4-1.3.1.2.2.2.1.4.1.3.1.6.4.5 0-.3.1-.6-.1-.8-1.1.2-.9-1.1-1.8-1.3l-.9-5.5h-.1c-.5 1.1.5 2.2-.2 3.1-.8-2.7-.5-6.3-.2-9.3.7-1-.6-1.3-1.1-1.9-.4 1.1-.2 2.2-.5 3.4-.4.5.7 1.6-.3 1.9-.5-1.9-.2-3.8.3-5.7-.1-.2-.3-.2-.5-.4-.6.7-.5 1.9-.5 2.7-.1.8-.1 2-.2 2.7l-.4-.2c-.3-2 .2-3.8.3-5.8 0-.2-.3-.2-.4-.4-.3 1.1-.1 1.8-.5 2.8.2.7.2 1.3 0 2-.8-.5-.1-1.7-.4-2.2l.4-3.1c-.1-.3-.5-.6-.8-.4l-.2 4h-.3v-4.7h-.4c-.6 1.1-.1 2.7-.5 3.9-.1 0-.2 0-.3-.1-.1-1.3-.1-2.9.1-4.4 0-.2-.3-.2-.4-.3-.5.5-.4 1.7-.5 2.4-.3.4.3 1.3-.4 1.4-.3-1.3-.1-2.8.2-4.1l-.4-.6-.4.3c.1 1.1-.2 2.4-.4 3.5-.7-1-.1-2.9-.1-4.4h-.3l-.6 3.4h-.2c-.3-1.3.1-2.8.3-4zm114.7-25.3c-2.9-2.4-6-4.2-9.5-5.1-5-1.6-11.9-.8-14.4 2.6-.7 1.2-.9 2-.7 3.2.2 1.4 1.6 2.3 2.8 2.7.8-.4.5-1.3 1-1.9 2.3-2.3 5.8-2.3 8.9-2.1 2 .5 3.8 1.3 5.7 1.9 7.4 3.9 11.3 11.7 11.7 19.6l.6.6c-.1.2-.7.2-.5.6.1.2 0 .4.3.3a.22.22 0 0 1 .3.3c-.1.4-.5.1-.6.2-.2.5.4.6.6.8-.8.4-.5 1.9-.6 2.7.2 0 .4-.3.6.1.1.2-.1.2-.1.3-.8-.4-.6.6-.8 1 .2-.1.8-.3 1.1.2-.3.2-.6.4-.8.1-.3.7.5.4.4.9-.1.2-.4.3-.6.3-.4.6.5.6.6 1-.3.5-1.2.4-1.1 1.1l.8.2c.1.5-.6.5-.8.8l.7.9c-.1.4-.8.4-1.1.4v.3c.4 0 .8 0 .9.4-.3.3-.6.4-1 .5l.8.5c-.3.5-.8.8-1.3.8.2.5 1 .1 1 .8-.3.4-1 .1-1.3.2-.4.7.6.7.8 1.2-.4.6-.6 0-1.2.2-.4.7.4.8.6 1.2-.3.3-.7.2-1.1.1-.5.7.3.9.5 1.3-.2.4-.9.1-1.2.3-.1.4.4.4.7.7.1 1.1-1 .3-1.4.7-.1.5.4.5.7.8-.1 1-1.1.1-1.6.5-.3.3.1.5.4.8.6 1.1-.8.1-1.1.4-.4.5.4.7.4 1.2-.3.8-.8-.2-1.2.1-.1.6 1 1 .4 1.6-.5.2-.7-.3-1.1-.4-1.3.7.5 1.2.3 1.8-.5.6-.9-.2-1.3-.2-.1.1-.3.4-.4.6 0 .6.4.9.8 1.1 0 .1 0 .3-.2.4-.6.4-1.1-.4-1.4-.6-1.4 1.2 1.6 1.4.1 2.3.3.3.7 0 1-.1.3-.4-.1-.5-.2-.8.3-.3.9.1 1.3-.1 0-.3-1-1.2-.1-1.5l.5.4c.5.4.9 0 1.1-.4-1.6-1.2.9-.7 1-1.2l-.5-.8c.3-.5.6 0 1.1-.1.6-.3.6-.8.2-1.3.2-.2.5-.3.9-.1.8-.4.2-.8.1-1.3l1.3-.4c.3-.4 0-.8-.3-1 .4-.7 1-.1 1.4-.7.1-.3-.1-.6-.2-.9l.9-.5c.2-.3 0-.7-.2-1 .1-.5.6-.1.8-.5.1-.4-.3-.5-.1-.9 0-.2.2-.3.4-.3.8-.1.2-.8.1-1.2.2-.3.5-.3.7-.3.6-.5-.4-.3-.4-.7l.2-.2c1.6 0-.3-1.6 1.1-1.8-.8-.5.3-.9.3-1.3-.5-.4-.1-.9.4-1.1 0-.3-.1-.5-.3-.7.1-.4.8-.6.1-1.1 1.4-.1-.5-1.4.9-1.6-.8-.9.8-1.5 0-2.4 1-.7-.5-1.6.6-2.5-.1-1-.1-2.2 0-3.3-.3-8-3.1-16.2-9.7-21.7zm-8.5 32c-.4-.5-.9-1.3-1.7-1.2-3.4 2.3-5.3 5.8-7.4 8.8l.1-.4c1.4-1.4 2.5-3.5 4.1-5l.2.1-4.1 5.6c-.9 2.1-3.5 4-2.2 6.9 2.5-3.9 5.1-8.8 8.8-12.3l.1.1c-.7 1.1-1.5 2.2-2.5 2.9-1.6 3.1-4 5.8-5.4 8.9-1.8 2.4-2.2 5.8-2.5 8.6.5-.2.6-1.1 1.1-1.1-.1 1.4-1.7 2.1-1.4 3.6-.2.6-1.1 1.5-.3 1.9 1-.7 1.1-2 2-2.9l.2.1c-.8 1.9-2.1 3.7-2.3 5.7h1l-.2-.4c.9-2.2 1.9-4.4 3.2-6.4l.2.1c-.8 2-2 3.8-2.5 5.9 1.1-.4 2.2-.9 3.2-1.5 1.9-4 4-7.9 6.6-11.6l.1.2c-2.2 3.4-4 7.1-5.9 10.8.5 0 .8-.4 1.3-.6 1.5-3 2.9-6.1 4.9-8.8l.9-.5c1.1-1 .6-2.6.7-3.8-1.3-1.1-.1-2.7-.4-4.1-1 1.1-1.9 2.7-2.8 4.1-.2 0-.5.1-.5-.1.6-.6.8-1.6 1.3-2.2.8-.7 1.1-2.3 2.3-2.6.9-.8 1.8-1.8 2.3-2.9 2.1-2.8-1.7-4-2.3-6.1zm-18.2-8.2c-3.4-.7-5.7-3.2-9.3-3.2-.2.4-.5.7-.4 1.1 3.4 1.8 7.3 2.2 10.7 4.1.7.8.6 1.9.8 2.9.6 1.1.7 3.1.6 4.4h.4c1.6-1.6 1.1-4.1 1.9-6.2-.9-1.7-3.1-2.1-4.7-3.2zm-13.2 11.1c-.5-1.7-2.5-1.8-4-2.2-1 .4-2.1.6-2.8 1.4.1 3.1 1.7 5.9 2.4 9-.1.6-.8 1-1.3.8-5-2.3-11.1-4.2-16.8-2.9.7 1.3 2.1 2.2 3.4 3.1 1.3-.7 2.9-1.9 4.5-1 1.3.1.6 1.2 1.1 1.9 3.9-.4 7.5.8 10.9 2.2.6-.3 1-.8 1.3-1.4-.4-2.5-1.2-4.9-1.3-7.6.1-.8 1-1.2 1.6-1.8l-2.3-2.1c0-.3-.5-.9.1-1.1l1.1 1.3c.6.4 1.3 1.6 2.2 1.1-1.1-.2-1.3-1.3-2.1-1.9l.3-.2c.6.5 1.2 1.1 1.9 1.3zm-17.2 53c-.7.1-1.4.2-1.9.4-.4 1 .1 2.1.2 3.2.3.9 1.3 1.6 1.4 2.5.4.5 1.2.2 1.8.3.7-.1 1.6-.1 1.9-.6-2.3-1-3.2-3.7-3.4-5.8zm3.7-.2c-.3-.5-.1-1.4-.5-1.8-1 1-3 1.6-1.9 3.4.8 4 5.2 4.1 8.1 5.5 1.1.1 1.3 1.7 2 1.9.1-.2.2-.8-.1-1 .1-.1.3-.1.4-.1.4.4.1.8.1 1.3l.2-.3c.2-.4 0-.7-.2-1.1-.2-.3.1-.7.4-.7-.2-.6-.4-1-.9-1.4-3.2-.4-6.6-2.3-7.7-5.6zm8 2.6c-3-1.6-6.3-4.2-6.2-8-.2 1.1-.9 1.9-.9 3-.1 4.2 4.6 6 7.7 7.6 1.3.8.8 2.5.9 3.5.6-.8.1-1.7.1-2.5-.1-.7-.8-1.4-.6-1.9 1.2.3 1.4 1.6 1.7 2.6.1-2-1.3-3.1-2.6-4.3zm-27.3 4.5c-.2.2-.2.4-.5.3-.2-.5.4-.7.5-.3zm-.6 1.3c.1.3 0 .7-.4.7-.5-.6-.9.3-1.3.2 0-.1-.1-.7.4-.8.2 0 .3.3.5.4.1-.3.4-.5.8-.4zm-.3 2.2c-.1.2-.3.5-.5.5h-.4c-.2-.5.1-.8.4-1 .3-.1.4.4.4.5zm1 .1c0 .2 0 .4-.2.4s-.4 0-.4-.2c-.2-.5.7-.7.6-.2zm-2.5-.2c.2.3 0 .5-.3.5-.4 0-.3-.8.3-.5zm1 1.4c-.1.4-.4.4-.8.4-.1-.4.5-.8.8-.4zm.9.3l-.2-.3h.2v.3zm-2.2 0c.1.1-.1.3-.3.3h-.2c-.2-.2.4-.8.5-.3zm1.9 1.3c-.1 0-.2 0-.2.1-.2-.1-.2-.4 0-.5h.2v.4zm-1.1.3c-.3 0-.7.2-.7-.1-.2-.5.4-.5.8-.5l-.1.6zm-1.5-.1c0 .1.1.3-.1.4-.1 0-.3 0-.4-.1.1-.2.3-.3.4-.3zm2.2.7c.1.3-.2.4-.4.5-.1-.1.2-1.3.4-.5zm-1.1.1c.1.3-.1.8-.5.8h-.3c-.3-.5.5-.7.8-.8zm-1.4.5c-.2.4-.2.8-.7.7l.3-.7h.4zm.7 1.7c-.2.1-.4.4-.7.3.1-.4.1-1 .7-1.1.5.1.3.6.1.8zm2.6-.8c.1.2-.1.4-.2.4-.3.1-.3-.1-.4-.2.2-.1.4-.2.6-.2zm-4 .8c0 .2.1.6-.2.5h-.2c-.2.1 0-.8.5-.5zm3.4 1.2c-.1.1-.3.1-.4.1-.1-.1-.1-.3-.1-.4.4-.5 1.1-.2.5.4zm-2.6.2c-.2 0-.3.2-.5.1l.1-.6c.2.1.7.3.4.5zm-1.2-.1c0 .2.1.4-.1.5-.1.1-.4 0-.4-.2-.1-.4.4-.4.6-.4zm3.4 1.3c-.5 0-.7-.5-.4-.8.1-.1.3-.2.5-.1l-.1 1zm-1.3-.6c.3.2-.1.8-.5.7h-.3c-.1-.4.4-.7.8-.7zm-.1-.9l.1-.3.1.1-.3.2zm-3.3.1c-.3.7-.2 1.9-1.1 2.2.2-.7.2-2 1.1-2.2zm1.9 1.1c-.1.2.1.5-.2.7-.1 0-.3 0-.3-.2-.1-.2.3-.4.5-.4zm-1.2.7c-.2.1-.3.2-.5.2-.1-.3.1-.6.4-.7.2 0 .2.2.2.5zm3.7.4c-.3.2-.1.7-.7.5-.1-.3 0-.7.4-.8.2-.1.2.1.3.2zm-1.4.1c0 .3.1.8-.4.6-.3.1-.4-.1-.5-.3.2-.2.5-.4.9-.3zm-3.8.7c.1.8-1.5.7-.7 1.4-.1.2 0 .5-.4.5h-.2c.1-.8.5-1.8 1-2.3l.3.4zm1.9.1l-.1-.1.5-.4c.1.4-.1.4-.4.5zm-.8-.4c.2.3.1.7-.3.9-.4.1-.5-.3-.4-.5.1-.3.4-.3.7-.4zm3.7.8c0 .1-.1.4-.3.2h-.3c0-.2.4-.4.6-.2zm-2 .7c-.1 0-.1-.1-.2-.1-.1-.4.4-.4.7-.4l-.5.5zm-.8 0c-.1.2-.4.2-.5.2l.4-.4.1.1zm-1.4.2c-.1.2-.1.7-.5.5-.1-.2 0-.8.5-.5zm3.8.1c.1.2.1.6-.3.7l-.3-.3c0-.4.3-.2.5-.4zm-1.4.5c0 .3-.3.1-.4.2-.2-.1.3-.5.4-.2zm-4 1c-.2 0-.3.4-.6.3 0-.3-.1-.7.2-.8.2.1.7.2.4.5zm1.2-.2v.1h-.4v-.1h.4zm4 .1c-.1.3-.3.6-.6.8-.2-.1-.1-.3-.1-.5.1-.2.4-.4.7-.3zm-1.6.3c.1.5-.2.4-.5.5h-.2c-.1-.5.4-.4.7-.5zm-4.1 1.1c-.1.3-.5.2-.7.1l.4-.7c.3.1.4.5.4.6zm2.6-.6c.1.5-.5.3-.7.5 0-.3.4-.6.7-.5zm-1.4.2c0 .2-.1.4-.2.5h-.2c-.2-.1.1-.5.4-.5zm3.6.5c.3.4-.1.8-.4.8h-.3c-.1-.4.1-.9.7-.8zm-1.3.4c-.1.2-.1.8-.5.7h-.3c-.1-.5.5-.7.8-.7zm-1.5.4a.68.68 0 0 1-.7.7c-.2-.4.2-.7.7-.7zm-2.8.1c.2.3.1.7-.1.9h-.4c-.2-.3.1-.9.5-.9zm1.5.4c0 .3-.1.7-.5.7h-.2c-.3-.4.2-.6.3-.9.2-.1.5 0 .4.2zm3.1 1.3h-.3c-.1-.5.3-.8.6-.9.3.4-.1.8-.3.9zm-1.1-.1c-.1.2-.4.2-.7.4-.1-.3.1-.9.5-.9.3 0 .1.3.1.5zm-4.1.2c0 .4-.2.8-.6.6-.3-.3.1-.5.2-.7.1-.1.3.1.4.1zm2.5.2h-.4c-.1-.3.1-.4.4-.4v.4zm-1.3.2h-.4c-.1-.1.1-.5.4-.4v.4zm3.7.2c.1.4-.2.5-.5.7h-.4c.1-.4.4-.9.9-.7zm-1.9.9c-.1-.1-.3.1-.4-.1-.1-.3.4-.5.7-.5.2.2.1.8-.4.7zm-4.9-.4c.1.3-.2.6-.4.6l-.1-.2c.3-.2.1-.5.5-.4zm1.2.8c-.2.1-.5.3-.7.1-.1-.4.3-.6.4-.8.4-.1.4.5.3.6zm1.3-.3c-.2.2-.2.6-.5.5l.1-.6.4.1zm1.3-.1c0 .3-.1.3-.3.4h-.3c0-.3.3-.4.6-.4zm-4.6 1.9l-1.4 2.4c.1-1.1 1-2.4 1.5-3.5.4.3 0 .8-.1 1.1zm6.9-.5c-.2.2-.4.1-.7.1-.2-.4.2-.7.5-.8.3.1.2.4.1.7zm-1.6-.2c0 .2 0 .5-.2.5h-.4c-.1-.2.2-.7.6-.5zm-4 .1c.1.4.1.8-.3.9-.2.1-.3-.1-.4-.1 0-.3.3-.9.7-.8zm1.3.2c.1.4-.2.4-.4.5-.2-.2.1-.7.4-.5zm1.3.1c.1.2-.1.3-.3.4h-.2c-.2-.4.2-.8.5-.4zm2.5.5c0 .3-.1 1-.7.9h-.4c.1-.3.4-1.2 1.1-.9zm-1.6.4c.1.5-.2.8-.6.8-.1-.1-.6-.1-.3-.4.2-.3.5-.4.9-.5zm-4 .4c.1.6-1 1-1.1 1.6-.1-.4.3-1.9 1.1-1.6zm1.8.8c0-.4.1-.6.4-.8.1.2-.1.8-.4.8zm-.6-.3c-.2.2-.3.4-.6.3-.1-.4.1-.6.4-.8a.76.76 0 0 1 .2.4zm7.9 8.3c-1.7-.3-2.9.4-4.5.5 1.2-.3 3.2.3 4.5-.5zm-33.1-33.8l.7-1.2c-.4-.2-.8.1-1.1.3l.3.9zm10.5-5.1c.4-.8 1.4-1.6 1.3-2.8-.2 1-1 1.7-1.3 2.8zm-20.9-3c-.9.1-1.8 1.1-1.9 2-.5-.5.4-1 0-1.5-1.1.6-1.1 2.2-.9 3.3.3.8 1.4.8 1.1 1.6.9 1.7 3 .9 4.5.8-1 .9-2.8 1-4.1.7-.1.2.2.3.3.4.1.7.4 1.2.7 1.8l-.6.5c.8.3 1.9-.2 2.7-.2-1.4 1.6-3.5-.4-4.6 1.1.7 1.4 2.4.2 3.7.4l2.4-1.7c1.5-1.1.8-3.1 2-4.2l-1.5.7c-.3-.7.5-.8.8-1.3l-.1-.1-.8.7c-1.4.6-3.4 1.5-4.6.6.8-.5 1.6.1 2.4-.2 1.2-.4 2.3-1.5 3-2.7.2-.7.5-1.7.1-2.3l-.3 1.3c-.6-.4-1.2.9-2 1.1-.4.4-1.1.2-1.4-.2.1-.8-.1-1.7.5-2.3h-.1c-1 .3-2.1 1.4-2.1 2.5l-.1-.1c-.4-1 .4-2 1.1-2.6zm-1.8 6.5c0 .1 0 .1-.1.2l-.3-.3c.1.1.3 0 .4.1zm0 1.2v.3l-.6-.6c.4-.4.3.2.6.3zm-.1 1.1c-.1.1-.6-.1-.4-.4l.4.4zm3.3-5.2c-.8.2-1.4-.2-1.6-1l.1-.6c.1.8.8 1.5 1.6 1.6zm.6 3.8a2.47 2.47 0 0 1-2.2.5l-.2-.2c.8 0 1.6 0 2.4-.3zm15.7-7c.2-1 .3-2.3-.1-3.2-.1 2-.8 4.8-2.9 5.7.4-.7 1.1-1.6 1.6-2.5.2-.8.7-1.9.3-2.8-.2.5-.7 1.1-.6 1.8-1 2.9-4.2 5.1-7.1 5.4.9.9 2.6-.1 3.7-.3-.4.7-1.2.7-1.6 1.2 2.8-.5 5.2-2.9 6.9-5.3zm-2.2-1.6c-.6 2.4-2.9 4.9-5.4 5.4-.4-.1-.7.3-1.1-.1 2.2-.7 4.3-2.1 5.5-4.2l.5-1.9c.3-.1.5.4.4.8zm-1.4-.2c-.4 1.6-1.3 3.5-3.1 3.9-.3-.1-.5.3-.7 0 1.6-.6 3.1-2.3 3.5-3.9.1.1.1 0 .3 0zm-.8 5.4c.1-.4.8-.6 1.3-1.1l-1.3 1.1zm14.4-6.6l-.1-.3h.1v.3zm-13-9.1c-1.3.3-1.5 1.6-2.1 2.5-.8-.1-.5-1.4-1.1-2l-.8.6c.4 1.1 1 2.4.6 3.7.8 1.5.7 3.3 1.8 4.5.3.2.7.3.8-.1-1.4-.9-1.4-2.9-1.1-4.3-.3-1.9.7-3.5 1.9-4.9zm3.7.4c-.3 1.5-2 2.3-1.7 4.1.3 1-.1 2.3 1 2.8.1-.6-.3-1.3-.3-2.1s.4-1.8 1-2.2c-.5 1.4-.7 2.9.3 4.1.5-.4-.3-1 0-1.6.1-.4-.1-1.3.5-1.4-.3.9-.3 2.1.4 2.9.1 0 .3 0 .5-.2-.2-.6-.5-1.3.1-1.6l.1-.1c0 .7 0 1.3.5 1.9-.9.9-2.1.9-3.5.8-.8-.4-1.2-.8-1.3-1.6-.4-2.2.5-4.4 2.3-5.8zm8.8 1.6h-.3v-.5c.4 0 .1.3.3.5zm-.1 5.2c.1-.8.6-1.8.2-2.6.2 1.1.4 2-.2 2.6zm-.4.1c-.1 1.3-1 2.1-2.1 2.8-.5.3-1.2.3-1.8.2-.1-.1-.1-.3-.1-.5 1.1.3 2.1-.4 2.8-1.3.2-.4.4-.8.4-1.3l-.1-.1c-.6.7-1.1 2.1-2.3 1.8.7-.8 1.9-1.6 1.3-2.7.1-.3-.1-.5-.2-.6-.4.5.1 1.6-.8 1.8-.1-.8.3-1.6-.3-2.2.5.1 1.1-.4 1.6 0 .3.4.3.9.8 1.1.6-.6-1.3-1.7.3-1.5.6.7.5 1.6.6 2.4zm-5.1-.6c-.2.3-.4-.1-.6-.1-.1-.2-.3-.5 0-.7.4-.1.4.6.6.8zm-10-4.4c-.1-.1-.4-.6-.2-1.1l.2 1.1zm-31 1.7l.2-2.3c-.5.8-.5 1.6-.2 2.3zm48.7 2.1c.1-.4-.1-.9-.6-1.1l-.1.4c-.1.5.2 1.1.7.8v-.2zm-.5 1.5c-.1-.3 0-.8-.4-.8l-.1.5c-.1.3.3.5.4.4zm-38.9-66c-.4-.3-.8.3-.8.6h.2c.3 0 .5-.3.5-.6zm31.9 1.6c-.1.3-.5.2-.7 0v-.3c.1.2.5.1.7.3zm-7.1 1.5c0 1.6 1.3 2.6 1.9 4l-.3.1c-.8-1.3-1.7-2.5-1.9-4h.2zm8 3.4c1.3 1.3.5 2.8 0 4.2 1.7 2.2 3.4 3.5 5 5.7l-5.7-5.7c.1-1 1.3-1.5.6-2.6-.1-.7-1.6-.6-.6-1.3-1.3-.4-1.6-2.1-2-3.2.9 1.1 1.1 2.6 2.7 2.9zm-3.3 4.7c-.8-1.3-2.3-2.7-3.4-4h.1c2.9 2.8 5.9 5.5 8.5 8.8-1.7-1.5-3.5-3.4-5-4.9l-.1.1 4.3 5.2c-2.1-2-4.5-4.9-6.8-7l-4.6-4.3.1-.1 7 6.2zm2.9 5.6c-3.7-4.2-7.8-8.3-12.1-11.5 4.7 3 8.9 7.1 12.1 11.5zm17.7-4.2h-.4l-4.2-7.2c1.7 2.2 2.9 4.9 4.6 7.2zm-29.1-3.2l-4.2-3.2.1-.1 4.2 3.2-.1.1zm15.8 7.8h-.2c-2.3-2.7-5.1-5.6-7.4-8 2.9 2.3 5.4 5.2 7.6 8zm2.7-1.1l-.1.1-3.2-3.6c1.2.8 2.2 2.1 3.3 3.4zm-13.6-19.8h-.1c-1.9-1.3-3.3-3.1-4.8-4.7 1.7 1.3 3.3 3.1 4.9 4.7zm1.5-1.8c-1.1-.6-1.8-1.9-2.8-2.8.9.7 2.1 1.7 2.8 2.8zm-1 .8l-3.4-3.5 2.7 2.4.7 1.1zm-2 1.5l-5.1-4.8.1-.1c1.9 1.6 3.7 3.1 5.1 4.9zm10.5-3.2l-.5-1.6c.4.5.6 1 .5 1.6zm-3.7-.4c-.3 3.6-2.8 6.4-2.3 10 .5 1.5 1.7 2.8 2.4 4.2-.1.2-.6.2-.8-.1-2-2.9-4-6.6-2-10l.4-.1 1.1-3c.3 0 .5-.3.7-.6.3-.4-.5-.7 0-1 .4-.1.4.4.4.5zm-8.4 3.7c-.4 0-1.1-1.1-1.7-1.5-1.1-.8-2.2-1.6-2.8-2.5 1.5 1.3 3.2 2.4 4.5 4zm-2.2-.3c-1.2-.9-2.8-2.4-4-3.6 1.4 1.1 2.8 2.4 4 3.6zm7.2-2.9c-.2 0-.7-.3-.5-.7.3.1.5.5.5.7zm-8.9 2.5c-1.3-.5-2.4-2-3.6-3l.1-.1c1.1 1.1 2.3 2.1 3.4 3.1zm-4.5-1.3l-1.8-1.6 1.7 1.3.1.4zm2.5.7v.1c-1-.6-2-1.6-2.6-2.3.7.8 1.9 1.3 2.6 2.3zm18.7-.7c-.3 0-.8-.1-1-.5 0-.3.5-.3.8-.1 0 .2.3.4.2.6zm-.2 1.1c-.3.3-.9-.1-.9-.6.3.1.9.1.9.6zm-.4 1.1c-.3.3-.9-.1-.6-.4.2.1.7 0 .6.4zm-.8 1.2c-.1.1-.2.1-.3.1l-.5-.8c.2 0 .6.4.7.7zm-.3.7c-.4.4-.7-.1-1.1-.1l-.1-.4c.3.4 1.2-.1 1.1.5zm-7.5 2.2l-.1.8c-1.1-.8-2.4-1.6-3.7-2.2-.2-.2-.4-.8-.7-.4l-.6 1.2c-.3-.2 0-.8.1-1.1.1-.4.6-.7 1-.8 1.6.2 3.3 1.2 4 2.5zm-6.1.8l-3.4-1.1.4-.4c-1.1-.8-2.7-.3-3.7-1.1 2.1-.3 4.6-.1 6.1 1.5.1.4.8.6.6 1.1zm12.3-2.1h-.4v-.3c.3-.1.1.2.4.3zm-.3.9l-.1.1c-.4 0-1.1-.1-1-.7.4 0 .7.3 1 .5zm-25.9-5.9c-.4-.1-1.2-.4-1.2-.8.4.1 1 .4 1.2.8zm-.2 1l-2.5-1.3c.8-.2 1.4.7 2.3.9.1.1.3.2.2.4zm2.8 2.7l-7-3.7.1-.3c2.5.9 4.6 2.4 7 4zm5.8 5.2c-4.6-3-9.2-6.4-14.4-8.1l.1-.3c5.3 1.6 9.9 5.1 14.4 8.4zm1.3 2c-5.1-2.9-10.4-7.3-16.6-9l-.3-.5.2-.2c6 2 11.4 5.7 16.7 9.6zm13.5-20.3h-.3c0-.9.3-1.6.5-2.5-.1.5.1 1.8-.3 2.5zm-4.9 2.8c-.6.6-1.3.4-2.1.8-.9-1.1-1.3.9-2.2-.3l-.1.7c-.3-.2-.5-.4-.5-.7 1.5-.6 3.2.1 4.7-.6.1 0 .3.1.3.2zm-5.4 1.3l-.1.1-.4-.4c.1 0 .3.1.5.3zm30 15.4c.1.3.3.5.2.8l-.7-.2c-.9-1.5-1.1-3.4-2.2-4.8-1.1-3.4-2.4-6.9-2.4-10.5.4 2 .7 4 1.4 5.8.2-.1.2-.7 0-1l-.3-4.3h.2c0 1.1.2 2.1.4 3.2.7.2.2-.8.5-1 .5 2.2 1.1 5.3 1.3 6.6s1.6 5.3 1.6 5.3zm-8.5-2.8c-.8-1.4-1.6-2.9-1.9-4.4 1.5 3.3 4 6.5 5.6 9.8-.9-1.1-1.6-2.4-2.5-3.6l-1.1-1.8zm.7 1.8c.1.4.7.8.7 1.3-2-2.5-4-5.6-4.9-8.9.9 2 2.1 4.1 3.4 6.1l.9 1.6zm5.8 6.2l-.2.1c-1.9-3-4.3-5.8-5.6-9.2 1.9 2.7 3.5 6.1 5.8 9.1zm1.1-11.5c-.4-.2-.4-.9-.2-1.3.1.5.5 1 .2 1.3zm-16.2-6.4l-.6-.3c-.1.5.6 1 .6 1.6-1-.6-1.6-1.6-2.6-2.2-.8-1.3-2.9-1.1-3.2-2.5 2.2.6 4.6 1.4 5.8 3.5zm16.7 10.2c-.2-1.1-.6-2.2-.5-3.3h.1c.5 2.3 1 4.6 1.6 6.8-.4 0-.5-.4-.6-.9l-.7-2.6zm-29.5-14.2c-.1.1-.1.2-.3.1-.2-.4-.1-1.1.3-1.2.4.3.1.7 0 1.1zm-8.8 66h-.3c-.1-.5.1-1 .4-1.1l-.1 1.1zm.4.1c-.4 1.1.3 2.2 1 2.8-.4.1-1-.4-1.2-.9s-.4-1.7.2-1.9zm-7 2.7c-.6.2-.8-.7-1.1-1-.2-1 .4-2.1.2-2.8-.5 0-.6.8-.7 1.1 0 .8.4 1.6.3 2.3-.8-.4-.7-1.7-.5-2.5.3-.3.2-.8.5-1.1.7.6.8-.8 1.4-1.1-.4 1.4-1.1 3.7-.1 5.1zm-5.4-2v.2l-1.9.3c.2-.4 1.3-.9 1.9-.5zm6.7-2.5c-.5.9-.6 1.9-.5 3-.1.3.1.6.3.9-.2-1.4.9-2.7.2-3.8zm-1.9-13.1v-.2.2zm0 .6l.1-.2c-.1-.1-.2-.2-.2-.4v.6zm1.6 16.3c0 .1 0 .3.1.4.1-.1 0-.2-.1-.4zm36.1-.1v.3h-.1v-.3h.1zm-30.3-45.2c.1.2-.1.5.3.6-.2.5-1 .4-1.4.5.9-.1.1-1.4 1.1-1.1zm13.8 5c-.2 1.7-.4 3.3-.5 5.1-.4-1.9-.1-3.4.1-5.2l.4.1zm1 3.5c-.4 1.9-.5 4.5.1 6.5-.5.3.1.9-.1.9-.7-3.3-1.1-6.7-.4-10.3 1.3.4.3 1.9.5 2.9zm1.9-1.3c-1.3 1.8-.8 4.7-1.1 6.8-1.1-1.4-.3-3.2-.4-5l.4-2.3c.5-.1.7.4 1.1.6zm.4 4.9c-1-.1-.5-1.3-.8-2.2.4-.8.4-1.6.8-2.4l.6.4-.5 4.2zm1.7-3.1c.5 1.1-1.3 1.2-.4 2.2-1.1-.1-.1-1.7-.3-2.5.4-.1.5.2.7.4zm1.3 1.3c-.7 1-.6 2-.7 3.2h-.4c.1-1-.1-2.2.6-3v-.6c.3 0 .4.3.5.5zm1.3 1c-.1.3-.2.5-.5.8h-.3c-.2-.4 0-.8.1-1 .2-.1.5 0 .6.2zm-3.1 1.7c-.1.1-.2.1-.4.1.5-.4-.5-.8.1-1.3.7.1.1.7.3 1.1zm4.1-.5c-.1.4-.2 1-.8.9 0-.5 0-1.1.4-1.3.2.1.4.1.4.4zm-5.3.7c-.1.2-.4.2-.5.1-.2-.1-.4-.5 0-.6l.5.5zm3.7-.4c.2.3.1.6-.1.8-.1 0-.4-.1-.3-.3-.1-.3.3-.4.4-.4zm2 2.8c-.1-1.1-.1-1.7.4-2.6.4.9-.5 1.6-.4 2.6zm-4.6-.8l-.1.1c-.3-.1-.6-.8-.1-1 .4.1.1.6.2.9zm3.9-.8c-.1.2-.3.3-.5.4l-.1-.1.5-.4.1.1zm-5.4.3l-.1-.3h.1v.3zm3.9.2h-.4c-.1-.2.1-.4.4-.3v.3zm-1.4 0c-.1.2.1.3-.1.4h-.2v-.6c.2-.1.4.1.3.2zm-3.4.9v.3l-.4-.8c.4-.1.4.4.4.5zm1.2-.5v.5h-.1v-.5h.1zm4.9.3c-.2.1-.3.3-.4.1l.3-.4c.1.1.1.3.1.3zm-1.7 0h.2l.1.5-.4-.5zm-2 .8c-.1.1-.3.1-.4.1l-.1-.6c.4-.2.2.3.4.5zm4.7 8c-.5-2.5-1.1-5.5-1-8l-.5.4c-.1 2-.1 3.7.4 5.5h-.3c-.8-1.4-.6-3.1-.9-4.6-.4-.2-.5.3-.6.5.4 1.6.5 3.5 1.3 5l.7-.6c.9.1.5 1.4.9 1.8zm-5.9-7.3v.1l-.3-.2c.1 0 .2 0 .3.1zm5.9 2.1c-.3-.3-.1-1.5-.2-2.1.1.7.3 1.4.2 2.1zm-2.9 2.2c-.6-.9-.4-2.5-.9-3.1l.1 2.5c-.2.1-.2.3-.5.2-.5-.7-.1-1.8-.6-2.4l-.4.7c-.7.2-.1-.8-.8-.6-1.1 1.6.8 3 .8 4.6.4 1.3-.7 3 .2 3.7.8-2.2.1-4.9-.1-7 1.5 1.6.9 4.5.9 6.4.3.1.5-.1.6-.2v-4.3c0-.4.4-.4.7-.4zm-4-1.7c-.2-.2-.2.1-.4.2 1 2.9.7 6.6.7 9.7l.9-.5c-.1-.9.5-1.6-.2-2.3.4-2.5-.1-4.8-1-7zm7.6 3c.8-.2.2-1.1 0-1.5 0 2.6.4 4.8 0 7.3l.4.4c-.3.6-.9.9-.9 1.5l.6-.4c1-2.2 1.3-5.3-.1-7.3zm-3.1 1.6c.4-1-.1-1.9-.5-2.5l.3 2.5h.2zm1.4-.3c-.1-.2.1-.5-.1-.5l-.3.8.4-.3zm3.3.6l.2-.5-.4-.5.1 1.1zm-5 .8l.4-.4-.2-.1-.2.5zm1.7.1c.1-.3.1-.6-.1-.6-.4.1-.3.5-.3.8.1.1.2-.2.4-.2zm1.3 1.9c.1-.7 0-1.8-.2-2.2l-.2.7c.8.9-.7 1.6-.4 2.6.4-.2.8-.5.8-1.1zm-2.5-1.4c-.6.1-.8.7-1.1 1.1-.2.2-.7.1-.4.5h.2c.4-.5 1.6-.8 1.3-1.6zm.9 1.4c.4-.1.4-.7.3-1-.7.1-.7.8-.7 1.3.1 0 .3-.1.4-.3zm-2.9.4c.1-.3-.2-.4-.5-.4-.4.3-.3.9-.2 1.2.3-.2.7-.4.7-.8zm1.8 0c-.5 0-.9.4-1.3.7 0 .2-.5.5 0 .7.7-.1.7-.8 1.3-1.3zm6.1 3.1c-.5-.9.1-1.8-.2-2.7-.4 1.1-.1 2.2 0 3.3l.2-.6zm-4.9-2.6c-.6 0-1.4.8-1 1.6h.1c.8-.1.7-1.1.9-1.6zm-6 .4c-.3.1-.6.1-.8.4-.1.3-.2.8.1.9.6-.1.8-.8.7-1.3zm6.6 1.4c.4-.1.4-.8.3-1.1-.3.2-.7.8-.3 1.1zm-3.8-.8c-.1-.1-.3-.3-.4-.2-.2.2-.4.7-.1.9.2-.1.4-.4.5-.7zm1.4.2c-.3 0-.6.3-.9.5 0 .4-.4.8 0 1 .8-.1.9-.8.9-1.4zm-2.8.5c-.5.1-1.3.4-1 1.2h.1c.5-.3 1.3-.5.8-1.2zm4.1.3c-.5.2-1.4.6-1.1 1.4.6-.2 1.2-.8 1.1-1.4zm-5.8.3c-.3-.1-.5.2-.5.4 0 .3.2.3.4.3.3-.2.1-.5.1-.7zm2.7 1.2c0-.4.5-.9 0-1.2-.4.2-.6.6-.6 1.1 0 .3.4.1.6.1zm4.1-.3c-.1-1.3-1.3.8-1.4 1.1.5-.3 1.1-.5 1.4-1.1zm-8.1-.1h-.2l-.1.6c.2-.1.5-.2.3-.6zm2.7.3c-.3-.4-1 0-.9.4h.8c-.1-.2.1-.3.1-.4zm4.5 2.3c1-.5 2-1.7 2.1-2.5-1 .5-1.7 1.9-2.1 2.5zm-3.7-.8c.7-.2 1.7-.9 1.3-1.6-.6.1-.5 1.5-1.3.8-.6 0-.7.7-.8 1.1.3.2.5-.3.8-.3zm-4.6-1.3c-.1 0-.1-.2-.3-.2l-.1.5h.3c.1.1.1-.2.1-.4zm1.8.8l.4-.6-.2-.2-.1.8zm-19.9 1.5c-.1-.8-.4-1.8-1.2-1.9.1.8.7 1.6 1.2 1.9zm17.1-1.8c-.4-.2-.7-.1-.9.1-.1.2.1.3.2.5.3-.2.7-.2.7-.6zm2.1 0h-.3v.8c.5-.1.2-.4.3-.8zm-16.3 2.5l-1-2.1c-2.3-.1.8 1 .2 1.8 0 .5.6.5.8.4v-.1zm19.8-.4c1-.1 1.2-1.1 1.9-1.7-.8.3-1.9.9-1.9 1.7zm10.2.4c.3-.6.8-1.5.6-2.2-.3 1.9-2 3.2-3.3 4.4-1.2.4-2 1.4-3.2 1.7-.8.4-1 1.5-1.2 2.4.3.6.1 1.3.8 1.7.4.4 1.3.5 1.4.1-.8-.2-1.3-1-1.5-1.6-.3-.9.5-1.8 1.1-2.4 2-1 3.8-2.1 5.2-4.1zm-14.9-1.4v-.4c-.4-.1-.4.2-.4.4h.4zm3-.4c-.5 0-.6.4-.7.8h.2c.3-.1.6-.5.4-.8zm-3.9.5c-.1-.3-.3-.3-.4-.4-.3.1-.6.4-.5.8.4.3.7-.1.9-.4zm8.6-.1c-1.1.4-2.3 1.1-2.5 2.3 1.2-.1 1.7-1.6 2.5-2.3zm-10.2.1h-.2l-.1.7h.3c.1-.3.1-.4.1-.7zm3.6.3c-1.2-.3-1.7 1.1-2.5 1.4 0 .2.1.1.2.1.5-1.3 2.5.4 2.3-1.5zm-17.7.5c-.2-.2-.4-.6-.8-.5-.1.4.3.9.8.7v-.2zm20.4.4c.1-.3.5-.7.1-1-.7-.1-1.1 1-.9 1.3l.8-.3zm-8.7-.1c0-.3.1-.5-.3-.5-.3.1-.5.4-.2.7.2.2.4 0 .5-.1zm-1.3.4v-.6h-.5l.1.6h.4zm8.4-.6c-.5 0-1.4.5-1.2 1.3h.4c.7 0 .8-.8.8-1.3zm-4.9.4h-.4v.8h.4v-.8zm9.6 1.6c.1-.7.7-1.1 1.1-1.6l-1.6.9c-.6.4-.3 1.6-1.2 1.7-.4-.3 0-.7 0-1-.7.1-.2.8-.4 1.3 1 .3 1.2-1.1 2-1.3zm-2.9-.1a1.3 1.3 0 0 0 .5-1.3l-.5.5c-.1.2-.4.7 0 .8zm-20.1-.8c-.3-.1-.3-.5-.6-.4v.5c.1.3.7.2.6-.1zm1.3.4c-1.1-1.7-.4.8-1 1.3 0-.5-.6-.7-.9-.7 0 .2-.1.4.1.5.8 0 1.1.8 1.8.8-.1-.3.1-1.1-.4-1.4l.4-.5zm15.2-.4c-.1-.1-.3-.1-.4-.1-.1.2-.7.1-.5.5.4.3.8-.1.9-.4zm-8.8.7c0-.3-.2-.4-.5-.5-.3.1-.2.5-.1.8.2-.1.6.1.6-.3zm1.1-.2c-.1-.2-.2-.4-.4-.3l-.1.7h.3c.2.1.3-.2.3-.4zm1.1-.3h-.2v.5h.2v-.5zm9.5.1c-.7-.2-1.2.4-1.3 1.1.1.2.4.1.6.1.5-.1.6-.7.7-1.2zm-4.6.2c-.6-.2-.9.4-.9.8h.2c.5-.1.6-.4.7-.8zm19.4 2.7c.5-.7 1.1-1.9.5-2.7-.1.9-.4 1.9-.5 2.7zm-35.4-2.5h-.1l-.2 4.3h.2c.4-.4-.4-1.1.4-1.3-.7-1 .4-1.9-.2-3zm18.8.9c-.1-.2.1-.7-.1-.7-.4.1-1.2.4-.9 1.1.4.2.8-.1 1-.4zm-4.4-.6c-.3 0-.8 0-.7.4-.1.3.3.2.4.2.3.1.4-.3.3-.6zm-1.2.1c-.7.4-1.6 0-2.2.4 0 .9 1.1.2 1.6.4.5 0 .8-.4.7-.7zm-6.9.7a.63.63 0 0 0-.9-.4l-.1.4a.55.55 0 0 0 .5.3c.2 0 .6 0 .4-.3zm3.9-.3c-.9.2-1.4-.2-2.3.3-.1 1.3 1.2.1 1.8.5.5.1.5-.6.5-.8zm-2.8.4c.1-.5-.8-.3-.7.1 0 .2.2.2.4.2.2.1.3-.2.3-.4zm14-.1c-.1-.4-.6-.1-.4.3h.3c.1-.1.2-.1.1-.3zm-4.5-.1c-.5-.1-1.1.3-1 .8h.4c.5.2.7-.4.6-.8zm-1.7 1c.1-.2.2-.7-.1-.7-.5.1-.5.6-.4.9.2 0 .4.1.5-.2zm-1.3-.4c-.5-.4-.8.4-.7.7h.4c.3-.1.4-.4.3-.7zm-1.4.4l-.1-.4c-.8 0-1.6.3-1.9.7.5.1 1-.1 1.6.2.2-.1.6-.2.4-.5zm-11 .2c0-.2-.1-.5-.5-.4l.1.5c.1 0 .3.1.4-.1zm4.5.3v-.5l-.5-.1-.1.4.7.1zm12.3-.6c-.4-.1-.9.2-.7.6h.2c.4.1.5-.2.5-.6zm-15.9.7c.1-.3-.1-.4-.4-.4l-.1.5c.1 0 .4.1.4-.1zm4.8-.3c-.2-.4-.8-.1-.7.4h.3c.2.1.6 0 .4-.4zm2.1.7c.4-.2.4-1.3-.1-.6.1.2-.2.6.1.6zm-.8-.6c-.1-.3-.5-.1-.7-.1-.1.4.1.6.4.5.1 0 .2-.2.2-.4zm-5.2.7v-.5c-.3-.1-.7.2-.5.5h.5zm1.1.1c-.1-.1-.1-.6-.4-.4l-.1.8h.3c.1-.1.1-.2.3-.4zm17.1.9l.5-1.3c-.4.3-.7.7-.5 1.3zm-20.5-.6v-.4h-.2v.4c0-.1.1-.1.2-.1zm4.5-.4c-.7-.3-.8.7-.4.8.4 0 .6-.5.4-.8zm6.6.1c-.3-.3-.9-.1-.9.2.4-.1.7.1.9-.2zm1.3-.1c-.2 0-.7 0-.6.4h.3c.1-.1.4-.1.3-.4zm-6.6.4c.1-.3-.3-.3-.5-.3-.3.1-.3.4-.3.7.1 0 .3-.1.4.1.1-.1.4-.3.4-.5zm-4.9.4v-.6h-.3c-.1.2-.1.5.1.7 0-.1.1-.2.2-.1zm7.1-.4c-.5.5-.8-.4-1.3-.1-.2.2-.4.5-.2.8.7 0 1 0 1.7-.1 0-.2.1-.5-.1-.5zm1.4-.1c-.5-.1-.6.2-.5.7.3-.2.7-.2.5-.7zm-7.5 1.2c.1-.3.2-.8-.1-.8l-.5.8a.45.45 0 0 0 .5 0zm1 0c.1-.1 0-.3-.1-.4l-.2.7c.2.1.2-.1.3-.2zm1.1 0c-.4-.5-.6.2-.5.5h.2c.1-.1.4-.3.4-.5zm1.3.1c-.4-.5-.7.2-.7.6h.3c.1-.1.2-.4.4-.6zm1.2.4c0-.1.1-.4-.1-.5l-.6.5.1.2c.2-.1.5.1.6-.2zm-5.9-.3c-.1 0-.1 0-.1-.1-.2.1-.3.5 0 .4.1-.1.2-.1.1-.3zm7 0c-.4 0-.5.3-.5.6h.3c.2-.2.4-.5.2-.6zm2.2 1.2c.3.1.6-.5.5-1-.2.3-.8.6-.5 1zm-8.3-.9c-.2 0-.7.1-.5.4.1.2.1.2.3.2.3-.1.2-.3.2-.6zm.2 1.6l-.6-.1c-.1.4.6.3.6.1zm24.4-26.7v.4h-.1v-.4h.1zm-8.8 23.5v-.4c-.1.1-.2.3 0 .4zm24.4 10l-5.2-4 .1 1c1.4 1.2 3.4 2.6 5 3.4v-.3zm-.5 2.4c-1.6-1.3-3.7-2.4-5.3-4l-.4.9c1.5 1.6 3.5 2.5 5.4 3.6.3 0 .1-.3.3-.4zm.3-1.2c-1.7-1.3-3.4-2.7-5.2-3.8l-.1.4c1 1.6 2.6 2.1 4 3.1.5.2 1 .8 1.4.3zm.4 2c-.1-.1.1-.5-.1-.5l-.4.4.4.2.1-.1zm-.5.7c-2.2-1.1-4.2-2.5-6.1-4l-.3.5c1.8 1.8 4 3.2 6.4 4.1v-.6zm.9-2.2c-.1 0-.2-.1-.2-.1 0 .2-.1.5.2.3v-.1zm.5 1.9c-.1-.2.1-.5-.1-.5-.2.1-.4.4-.1.7.1.1.2-.1.3-.2zm1.1.1c-.1-.1-.1-.4-.4-.3-.1.2-.4.6-.1.8.4.2.3-.4.4-.5zm-.4 1.5c.1-.2-.1-.4-.3-.4l-.3.4c.3.2.3.2.5 0zm.9.7v-.7c-.3-.1-.5.1-.5.4.1.3.2.3.5.3zm-.3-9.3v-.5h-.1c.1.2-.3.5.1.5zm-2.2 1.2c-.7 0-1.2.4-2 .3v.2l.6.1c.5-.1 1.2 0 1.3-.6zm-.3 1.1c.3-.1 1.1-.2 1-.7l-1 .7zm1.6-.1c-.3.1-.6.3-.5.5h.2c.3 0 .5-.4.3-.5zm0 1.3l.4-.5-.1-.1c-.1.1-.6.3-.4.5zm-2.2 5.1c-1.9-1.3-4.3-2.5-6.3-4.2l-.1.5c1.9 1.5 4.1 2.9 6.4 3.7zm2.5-4c-.1 0-.1 0-.1-.1v.3l.1-.2zm-.4 1.3v-.5c-.3-.1-.5.3-.3.5l.3.1zm.9 0c-.1.1-.2 0-.2-.1l-.2.4h.4v-.3zm-1.6 2.2c-.2-.2-.5.1-.4.3h.2c.1-.1.2-.1.2-.3zm16.4-11.3l-1.3-1.7c-.8.1-1.5.4-2.3.1.2 1.1 1.1 2 1.9 2.9 3.7 4.4 10.2 1.5 15 1.8 1.3.1 2.5 1.4 3 2.6.6-.1.7-.7.8-1.2.1-1.7-1.7-2.4-2.8-3.1-4.7-1-10.2 2-14.1-1.5zm-6.4 14.8c-.5-.2-1.1.3-1.4.6 0 .3-.4.7 0 .8l1.4-1.3zm55.8 35.8c-.1-.6-.6-1-1-1.4.1.5.7 1.3 1 1.4zm2.2 4.6h.1v-.2l-.1.2zm3.4 5.8c-.1-.1-.2-.2-.2-.3.1.2-.1.5.2.3zm-6.4-9.8c.1-.2-.2-.1-.3-.2v.3c.1 0 .2.1.3-.1zm.6 1.2c.1-.2-.1-.5-.3-.5s-.2.5 0 .7l.3-.1zm-1.2 14.6c.2-.2.1-.8-.3-.8-.4.2-.4.8-.1 1 .1-.1.2-.1.3-.2zm1.3-.7c.1-.2.2-.7-.1-.8-.2.2-.3.7 0 .8 0-.1.1-.1.1-.1zm0-2l-.4-.4c-.4.3 0 1.4.4.4zm4.8-2.8l-.1-.4c-1.3.6-2.8 1.6-4.2 2.3a1.39 1.39 0 0 0 .2 1.1c1.3-1.1 3.1-1.6 4-3zm-.8-.8c.4-.2.7-.9.1-1.1l-5 2.9c.1.3-.1.6.2.7 1.6-.7 3.2-1.6 4.7-2.5zm1.2-1.3c-.1-.6-.2-1.1-.6-1.6.4.7.1 1.1.6 1.6zm-28.1-10.5c-.4.2-.8-.3-.9.1.3 0 .7.1.9-.1zm26.5-117.6c-.4-.5-1.1-1.4-1.7-1.6.8.3.8 1.7 1.7 1.6zm4.8 16.6l-.2 1.1.2-1.1zm-7.1 1.1l.5-.5c-.2.2-.7.1-.6.5l.1.1zm13.3-1.9c-.1-.3-.1-.7-.3-.9-.1.3 0 1 .3.9zm-5.8-.4c.1-.2.1-.8-.2-.9 0 .4-.4.9 0 1.2.1-.1.2-.1.2-.3zm2.7 0c.1-.4.4-1.2-.2-1.5-.2.5-.4 1.2.2 1.5zm1.8-.1c.1-.6-.1-1.2-.6-1.5-.3.6-.2 1.2.4 1.6l.2-.1zm3-.5c.1-.5.1-.9-.1-1.3-.4.4 0 1.1.1 1.3zm-1.3-.6c.1-.6 0-1.1-.2-1.5l-.5 1.1c.3.1.4.5.7.5zm-5.8-.5c.1-.3.2-.9-.1-1.1-.3.4-.3.8 0 1.1.1 0 .1-.1.1-.1zm1.1 1.1c-.5-1 1.2-1.5 0-2.2-.4.8-1 1.9-.2 2.7l.2-.5zm3.3-1.5c-.1-.4 0-.8-.4-1.1l-.1.3c.2.2.1.9.5.7zm-1.5 0c.2-.5.2-1.3-.4-1.5-.4.5-.4 1.4.1 1.6l.2-.1zm-2.5-1.5c-.1-.2-.3-.4-.5-.4-.1.4.1 1 .5.7v-.3zm5.6-.1l.1-.4-.1-.4v.8zm-2.8-.8c.1-.3-.1-.6-.5-.6 0 .3-.1.9.5.9v-.3zm1.5.9c.2-.5.1-1.2-.4-1.6l-.1.1c-.1.7.1 1.3.5 1.6zm-3.1.1c.1-.7.5-1.5-.4-1.9.4.7-.5 1.8.4 1.9zm.5-2.8c-.3-1.3-.5.1-.6.6.1 0 .4-.1.5.1l.1-.7zm3 .3c.1-.4-.1-.9-.6-1.1-.5.5.3 1 .6 1.2v-.1zm-1.5-.4c.1-.3-.1-.5-.3-.6-.4.4-.3 1.1.1 1.1l.1-.5zm.4-1.5c.2-.5-.3-.8-.5-1.1l-.1.5c0 .4.2.8.6.7zm-4-.6l-.1-.6c-.1.1-.2.5.1.6zm2.2-.1c.1-.3-.1-.5-.4-.6l.2 1.1.2-.5zm0-1.9v-.4l-.2-.2.2.5zm-1.1.5c-.1-.4-.1-1.2-.7-1.3.2.7 0 1.4.5 1.8-.1-.2.1-.3.2-.5zm-1.3-.7c-.1-.8-.2-1.5-.8-2-.1.8.2 1.6.8 2zm-4.2 1.3c-1.5-1.2-2-4-4.3-3.7-1.3 2.2-1.2 5.1-2.2 7.5l.2.4c.2-.1.5-.1.7-.4l.9-3.3c.5-1.1 1.8-1.3 3-1.3 1.1.8 2.5 2 2.7 3.2-1.2 1-.7 2.8-2 3.5l1.3.6c.4-.6-.1-1.9.7-2.3.8 1.7-1 3.7-.2 5.2.1-.1.1-.2.2-.2l.5-3.7c-.6-.8.2-1.4.4-2.1 1.2.6-.1 1.8.4 2.8 0-.1-.1-.4.1-.5l.1.1c.2-1.1-.5-2.2.6-2.7l-3-3.2zm4.7-3.4v-.1l-.2-.3.2.4zm-2.2 0c-.1-2.2-3.1-1.5-3.4-3.6.1.4.7.7.3 1.2.9.8 1.3 2.1 2.4 2.6-.1-.2-.3-.8.2-.9.4.3.5.9.5.8zm-36.3 1.3c.2-.1.4-.5.1-.6l-.4.7.2-.1zm-2.3 6.1l.2-.2v-.6l-.2.8zm1.7-5.4l-.1.5.1-.5zm.9 5.1c.2-.5.8-1.1.1-1.6-.8 1.7-1.9 3.6-1.9 5.4l1.8-3.7zm0-3.2c-.7.9-1.3 2.2-1.8 3.3-.2.6-.7 1.4-.4 1.9.7-1.8 1.8-3.3 2.1-5.3zm-1.5-.5h-.1v.3h.1v-.3zm.3-.8h-.1v.4h.1v-.4zm.6 1c-.1-.7 1.2-.7.6-1.4-1 1.3-1.5 2.9-2.1 4.4.7-.7.8-2.1 1.5-2.9zm-7.6 28.6c.2-1.1.3-2.5-.4-3.6-.3 1.1-.3 2.6.4 3.6zm-4.9-4.6l.1.4-.1-.4zm7-3.9c0-.1.1-.4-.1-.4-.2.1 0 .4.1.4zm-2.1-1.4v-.4a.2.2 0 0 0 0 .4zm-.7-2.4c-.1-.2.1-.5-.1-.7-.2.2-.1.6.1.7zm13.4 9.2c-.6-.1-.5-.6-.9-.9-.8-.3-.7.8-1 1 .4.1.4.4.7.5l.2-.6c.3-.2.6.3 1 .1zm-2.1-2.2c-.1.1-.2 0-.2-.1v.3l.2-.2zm-3.6-.7c-.2-.2-.2-.4-.5-.3l.1.4c.1 0 .3.1.4-.1zm-2.4-1.5c-.1-.1-.3-.2-.5-.2 0 .2.3.5.5.4v-.1zm-1.2-.7c-.1-.1-.3-.2-.5-.2-.4.4.3.6.5.5v-.3zm-8.2-.2c-.5-1.5-.6.7-.6 1 .2.6-.3 1.7.4 2 .1-1.1-.2-2.3.2-3.1zm3.1 4l.5-4.5-.5-.5c-.7 1.5-.7 3.7-.4 5.3l.4-.3zm2.7-5.3c.1-.2-.1-.4-.4-.5l.1.8h.3v-.3zm-4.6-.6c-1.1 1.6-.7 5.4-.4 6.8.1-2.4.2-4.5.4-6.8zm1.2.1l-.1-.2c-.7 1.9-.9 4.9-.5 6.9l.5-.2c-.5-2.2 0-4.5.2-6.5zm1.5-.7c0-.2 0-.4-.2-.6l.1.6h.1zm1-.7c.1-.1-.1-.5-.4-.4-.1.4.1.8.4.8v-.4zm-1.9-.8v-.7c-.3 0-.3.7 0 .7zm-14.3-11.2h.1l.1-1.4c-.3.3-.4 1.2-.2 1.4zm.5-2h-.1v.5h.1v-.5zm-.3 10.5c-.1-2.9-2.2.2-3.2 0-.2.8.2 1.6.4 2.3 1-.7 2.5-1 2.8-2.3zm9.2-2.1c-.4-.7 1.4-1 .3-1.5-.1.5-.5 1.1-.3 1.5zm-.2-1.9c.1-.4-.3-.1-.4-.3-.2.9-.7 2-.6 3h.2c.2-.9.5-1.8.8-2.7zm-.6-.3l-.7-.4c-.4 1.1-1.2 2.5-.7 3.6.4-1.1.4-2.4 1.3-3.2zm-2.8 50.7c.6-.8-.8-.6-.7-1.1-.3.5.4.2.4.6l-.3.2.6.2zm24.2-5.2c-.4 0-.7.1-.8.5l.5.1c.2 0 .5-.4.4-.6zm-2.5-.6l-.1-.2-.5.7c.2-.2.7-.1.7-.5zm2-.3c-.1-.3 0-.5-.2-.5-.5 0-.6.6-.6.9.4.1.5-.3.8-.4zm-4.2-.4c.1-1-.7.1-1.1.1l.1.4c.5.2.5-.3.9-.4zm1.6-.6c-.2-.2-.5.1-.4.3h.2c.1 0 .2-.1.1-.3zm1.8-.1c.2-.1.4-.4.1-.6-.4 0-.9.3-.9.8.3 0 .5 0 .8-.2zm-4.4-.9c-.6-.1-1.1.5-1.2 1h.3c.5-.1 1.1-.4.9-1zm2.2-.5c-.5.2-1.2.2-1.3.9.3.3.6-.1.9 0 .3-.2.7-.5.5-.9zm-5.1.2c-.2-.2-.8-.1-1 .2l.1.1c.3.3.8-.1.9-.3zm6.1.3l.9-.9c-.5-.1-.7.3-.9.4-.1.1-.5.5 0 .5zm-4.2-.9c-.4-.1-.9.1-1 .6l.1.1c.4-.1.9-.2.9-.7zm6.9-.5c-.5 0-1.1.3-1.1.8l.3.1c.4-.1.9-.4.8-.9zm-4.9 0c-.4 0-.9.1-.8.6h.3c.3 0 .7-.3.5-.6zm-4.8-.2c-.4 0-1 .2-1.1.7h.5c.3-.1.6-.3.5-.7zm2.1-.4c-.7-.3-1 .4-1.2.7h.5c.4.1.7-.3.7-.7zm4.6.8c.3-.2 1-.5.6-.9-.2.6-1.2.1-1.3.9.3.2.4-.2.8 0zm-9.8-1.1c-.2-.1-.4-.1-.5 0l.1.2c.2.1.4-.1.4-.2zm7.2-.1c-.6-.3-1 .3-1.3.8h.3c.4-.1.9-.4 1-.8zm-4.9-.4c-.7 0-1.1.3-1.4.9h.5c.5-.1.8-.4.9-.9zm7.5-.1a1.91 1.91 0 0 0-1.3.2c0 .2-.4.4-.1.7.5-.1 1.2-.3 1.5-.9zm-5.5-.3c-.5-.1-1 .4-1.1.8.1.1.3 0 .4 0 .2-.3 1-.4.7-.9zm-5.4-.2c-.2.1-.7 0-.7.4.1.2.3.2.4.2.3-.1.1-.4.2-.6zm7.3.4c.3-.3.6-1.1-.3-.7-.2.1-.7.5-.5.8.3-.1.7.1.8-.2zm-5.1-.2c0-.3.7-.4.3-.9-.4.4-1.3.4-1.2 1.1.3.1.6-.1.9-.2zm7.5-1.1c-.7-.2-1 .6-1.4 1.1.1.1.2.1.4.1.5-.2 1.1-.6 1-1.1zm-5-.2c-.3 0-.4.2-.6.1-.3.2-.9.5-.7.9h.4c.4-.1.9-.4.9-1zm-5.4-.1c-.5.1-1.1 0-1.4.5.2.3.3.5.7.5.4-.1.7-.6.7-1zm6.7.5c.2-.2 1.1-.3.7-.8l-.5.2c-.2.2-.6.3-.4.7h.2zm-4.2-1.1c-.7-.1-1.6.4-1.5 1l.7-.1c.5 0 .8-.6.8-.9zm7.5-.3c-.3-.3-.5.3-.9.1-.4.1-.8.5-.7.9h.2c.6.1 1.1-.5 1.4-1zm-11.2-.1c-.5-.2-1.1.2-1.2.6 0 .3.3.3.5.3.3-.2 1-.5.7-.9zm6.1 0c-.5-.1-1.1.3-1.3.8l.4.1c.4-.1.8-.5.9-.9zm2.2-.4c-.1-.1-.1-.2-.2-.1-.4.1-1.3.4-1 .9l.2.1c.5-.1.8-.4 1.1-.9zm-5.7-.1c-.6-.1-1.2.1-1.3.7.1.1.4.1.5.1.3-.1.9-.3.8-.8zm7.7-.4c-.5 0-1.2.4-1.4.9l.4.1c.4-.1 1.1-.4 1-1zm-11.3 0c-.3.1-.8.1-.7.6.4 0 .6-.4.7-.6zm6.1.2c0-.1.4-.5 0-.5-.6.1-1.4.4-1.6 1 .5-.1 1.1 0 1.6-.4zm2.1-.9c-.4 0-1 .3-1 .8l.4.1c.4-.1.8-.6.7-.9zm-5.6-.1c-.7.2-1.4.3-1.6 1h.8c.4-.1 1-.6.8-1zm-14.6 14.4c-.3-.1-.4.2-.7.1.2 0 .5.1.7-.1zm.2-1.1c.8-.7 1.5-1.9 1.3-2.9l-.4.8c-.4.7-1.1 1.1-1.4 1.7-.2.4.3.3.5.4zm1.1.5c1.4-1.2 1.1-3.1 1.1-4.8l-.2.1c.5 1.8-.4 3.9-1.9 5.2l1-.5zm4.7-5.6c-.1-.1-.2-.1-.3-.1l.2.1.1-.1zm-.3 1.1c-.1 0-.1-.1-.1-.1v.4h.1v-.2zm-.9-.4c.1-.7-.8-1-1.1-1.3v.3c.2.4.5 1.2 1.1 1.1zm8.6 9.2c0-.1-.1-.1-.3-.1l.2.1.1-.1zm-7.2-5.7v-.2h-.1l.1.2zm6.2 5.8v-.1h-.2c0 .2-.1.3.2.1zm-8.7-1.7h.1v-.3l-.1.3zm-2.1-.2c.1-.1-.3-.1-.3-.3v.3h.3zm5.1-5.9c.2-.2 0-.5-.2-.5s-.4.4-.1.5h.4zm-2.1-.4v-.1l-.2-.3.2.4zm1.8-2.7c.1-.2.1-.7-.2-.8l-.3.6c0 .2.3.3.5.2zm15.5 14.3v.2-.2zm6 10.4v-.5h-.2l.2.5zm-5.2-2.5h-.1v.3h.1v-.3zm3.8.1c-.2-.2-.4-.5-.7-.5.1.5.1 1.2.5 1.5.1-.3-.1-.8.1-1zm-5.8 2.6c-.2-1.2.7-2.7-.4-3.4-.4 1.1-.1 2.4.4 3.4zm4.3-2.7c-.3-.5.2-1.9-.7-2.4.2.8.2 1.7.7 2.4zm-5.6.5c0-1.6.8-2.8 0-4.2-.4 1.3-.4 2.9 0 4.2zm-3.2-3.4l.2-1.1h-.1c-.1.3-.5.8-.1 1.1zm1.6 3.4c-.5-1.6.3-3.3 0-4.9-.8 1.5-.5 3.4-.2 5.1l.2-.2zm1.3-5.4c-1.2 1.8-.8 4.3-.4 6.4h.3c-.5-2-.5-4.2.1-6.4zm4.3 1.7c-.2-.9.4-1.2.1-2.1l-.1 2.1zm-.9 0l.2-2.5h-.2v2.5zm-13.2-2.6c-1.4.2-1.8 2-2.8 2.9l-.1.8c1.2-.8 2-2.5 2.9-3.6zm14.6-3.2c0-2.1-2.1-.5-2.7-2-.1.7.8 1.2.7 1.9-.1-.3.1-.4.2-.7l.5.5c.1-.2.3-.4.5-.5.6.2.4.8.7 1.2v-.5zm-16.8-2.1l.2.3v-.4l-.2.1zm2.2-.1c-.2-.4-.8 0-.5.2h.5v-.2zm-5-.1v-.3h-.2l.2.3zm5.9-.1c0-.6.2-1.5-.5-1.8-.6.5.1 1.4.5 1.8zm-4.7-1.8c-.2-.2 0-.7-.5-.7.3.5-.6.9-.3 1.4h.1c.4 0 .5-.4.6-.8zm35.1-16c.4-1.1.1-2.3-.2-3.4-2.1 4.2-5 8-6.6 12.4 0 .8-.9 1.6-.6 2.3.9.3.9-.8 1.3-1.1.1.2.1.5.1.8l1.5.1c.5-.1 1.2-.5 1.2-1.1l.3.6c.4 0 .7-.1.9-.4.4-1.4 1.1-2.8 1.6-4.2-.9 0-1.6.5-2.5.4-.8.3-.8-.7-1.3-1.1.2-.6.8-.7 1.3-.9 1-1.5 1.5-3.2 2.8-4.5h.3zm1.4 5.9c-.4 0-.8-.1-1.2.1-.6 1.3-1.9 2.6-1.5 4.2.9-.1 1.8-.2 2.6-.6.2-.8.8-1.7.6-2.5h-.4c-.5.8-.8 2-1.5 2.5 0-1.3.6-2.5 1.4-3.6zm13.3-6.8c.3-.1.5-.5.5-.8-.4.1-1 .1-.8.8h.2zm-2 3.2c1.1-1 .9-3 .9-4.3-1.5 2-2.5 4.3-3.5 6.6l.2.1c.3 0 .6-.3.9-.6.1-1.3 1-2.4 1.8-3.4.2.9-1.1 1.9-.9 2.5.3-.2.6-.6.6-1zm6.5-.8c-.9.1-1.5-.6-1.9-1.1-.1.5.1 1.1.6 1.5.5.1 1.4-.3 1.3-.4zm-1.9 1.1c-.4-.4-.4-1.1-1-1.2l-.1.5c.4.3.6 1 1.1.7zm-.7 1.1c-.1-.4-.7-1.1-1.3-1.3-.3.3-.2.5-.2.8.5.1 1 1 1.6.4zm-1.3.8c-.5-.3-1-.5-1.3-.8-.9.7 1 1.1 0 1.7-.5.1-.8-.2-1.1-.4-.1-.1-.5.1-.4.4.1.4.4.4.8.4.5-.5 1.6-.5 1.9-1.3zm-3.4 1.8c0-.2-.2-.7-.5-.5l-.1.8.5.1.1-.4zm-1.7 1.3c.6-.1.3-1.1 0-1.1-.1.4-.4.9 0 1.1zm-.7.7c-.2-.2 0-.9-.5-1.1l-.2 1.3c.2.1.4-.2.7-.2zm-.7-1.6h.3zm-1.7-3.4c-.2-.4.2-.9.5-1.1.1.3-.4.9-.5 1.1zm-1.7 3.9c.1-.9.5-1.9 1-2.8 0 .9-.6 2-1 2.8zm-7.2-.6c-.1.5-.3 1.1-.7 1.4-.1-.3.3-1.2.7-1.4zm-2.9 3.4c.4-1 .6-2.3 1.5-3.1l-1.3 3.2-.2-.1zm.1-2.4l-1.3 2.2c.1-.7.4-2 1.1-2.7.3 0 .2.4.1.5zm3.1-7.4c-.2 1.4-1.6 2.7-2.1 3.8-.3.1-.3-.1-.4-.3 1.1-1.1 1.2-2.7 2.5-3.5zm1.3-2c-.3.6-.7 1.1-1.2 1.7-.2-.6.5-1.9 1.2-1.7zm12.7-11.7l-4 5.9c-.3 0-.2-.3-.1-.4 1.9-2.8 3.7-5.8 6-8.5-.3 1.2-1.6 1.8-1.9 3zm2.8-1.3c-2.9 4.4-6 8.8-8.6 13.4l-.1-.1c2.4-4.6 5.1-9.6 8.7-13.8v.5zm-1.4 6.9c-1.7 3.1-3.7 6.5-5.6 9.1 1.6-3 3.3-6.3 5.4-9.3 0 .1.2 0 .2.1zm-2.2.5c.1.5-.4 1.2-.9 1.5.3-.5.4-1.1.9-1.5zm-4.7 2.6c-1.1 1.6-1.7 3.3-2.7 4.7.5-2.2 2.4-4.9 3.8-7.2.1 1-.9 1.7-1.1 2.5zm3.7-.9c-1.4 2.3-2.2 4.9-4 7 1.1-2.3 2.2-5 4-7zm-6.8 3.9l.9-1.8-.4 1.3-.5.5zm1.6 2.4c-.1-.8 1-.8.9-1.5-.2.4-.4 1.1-.9 1.5zm-.6-14.8l-.3-.1h.3v.1zm.1 16.5c.1.3-.4.5-.5.8-.1-.1.1-.8.5-.8zm3.6-12.5c-1.1 1.7-1.6 3.7-3.1 5.2.9-1.8 1.8-3.8 3.1-5.2zm5.4-7.5c-1.6 2.4-3.5 4.9-5.2 7 1.4-2.5 3.1-4.8 5.2-7.2l.1.1zm-1.6-2.1c-2.4 3.2-4.9 6.4-7 9.8 1.8-3.6 4.2-7 7-9.8zm7.1 19.4c-.3-.3-.7-.7-1.1-.7l-.2.7c-.1 1.1 1.1.8 1.4 1.4 1.1-.5-1.1-1-.1-1.4zm-3.1-8.6c-1.3-.5.1-1.5 0-2.4-1.3.5-.3 1.9-.3 2.8.2.1.2-.3.3-.4zm-23-.6c-.5 0-.2-.5-.5-.7l.1-.7c.4.2.4.9.4 1.5zm-.8-1.6c0 .8.4 1.7.3 2.3l-.5-2.3h.2zm4.5-10.4c.4-.3.4-1.1.4-1.5-.7.3-.2 1.1-.4 1.5zm-34.2 16l.4.5-.4-.5zm-5.4-7.5l.1.4-.1-.4zm31.7-3.1l.1.4-.1-.4zm7.8-4.9l-.2 1 .2-1zm1.4 24.6c1-.8 1.7-2 1.7-3.2l-1.7 2.4c-.1.2-.4.7 0 .8zm-4.8 2.3l-.1.4.1-.4zm-2 4.6c-.4.2-1-.1-1.4.3-.3.3.2.4.5.4.5.1 1-.2.9-.7zm-1.6-1c-.4.1-1.1.1-1.1.6l.2.2c.1-.1.3-.1.4-.1.1-.3.6-.4.5-.8zm2-.4c-.5-.1-1 .1-1.1.7l.2.2c.4 0 .7-.4.9-.8zm-2.8-.9c-.5-.1-1.1.5-.8.9.4-.1.8-.4.8-.9zm2.1-.5c-.7-.1-1.2.5-1.1 1h.3c.5-.1.9-.4.8-1zm1.6.4c-.1-.3.4-.8-.1-.8-.3.3-.8.5-.7 1 .2 0 .6.3.8-.1zm-4-1.3c-.6 0-1 .3-1.1.8h.3c.5.1.6-.5.8-.8zm1.8-.4c-.1-.2-.3 0-.4-.1-.1.3-.7.4-.5.7.3-.1.8-.1.9-.7zm-.3-1.5c-.4-.2-.7.4-1 .4-.1.1-.4.6-.1.6.4-.1 1.3-.5 1.1-1zm.2-5.5c-1.3 1.1-1.9 2.8-2.7 3.8.9-1.3 2-2.3 2.7-3.8zm-8.5-.3c-.7-.2-1.2.4-1.3.9h.5c.3-.3.7-.4.7-.9zm-5.4-.1c0-.1-.2-.1-.2-.2-.6 0-1.4.7-1.4 1l.1.1c.5 0 1.2-.4 1.5-.9zm-5.7-.2c-.7 0-.5.9-1.2.9-.3-.1-.2-.5-.6-.5-.2.1-.4.3-.3.5.4.3.7.4 1.1.3.5-.1 1.1-.7 1-1.1zm2.1-.4c-.6-.1-1.1.4-1.1.9h.4c.2-.1.9-.4.7-.9zm5.4 1.1c.4-.4 1.1-.8 1-1.3l-1 .1c-.5.2-1.1.8-1.1 1.3l1.1-.1zm-8.1-1.6c-.5.1-1.2.1-1.2.7.4-.1 1.2-.1 1.2-.7zm10.9-.1c-.6-.1-1.2.6-1.3 1.2h.2c.6 0 1-.7 1.1-1.2zm-5.5 0c-.2-.1-.4.1-.6.1-.4.1-1.2.5-1.1.9l1.1-.1c.2-.3.7-.4.6-.8zm-3.4-.4c-.4-.2-.9.3-.9.6h.4c.4.1.5-.5.5-.6zm5.8-.1c-.7-.1-1.6.4-1.6 1h.3c.5 0 1.3-.4 1.3-1zm-3.6-.4c-.4.1-1.1 0-1.1.6 0 .1.1 0 .2 0 .4 0 .8-.3.9-.7zm-5.5.1c-.5-.1-1.3.1-1.3.8h.2c.4 0 1.1-.3 1.1-.8zm11.7-.1c-.6-.1-1.8.1-1.9.9.7-.2 1.7.1 1.9-.9zm1.4-.3c-.4 0-.7.3-1 .5.1.2.2.1.4.1.3-.1.8-.3.6-.7zm-5.1-.4c-.7.1-1.5.2-1.6.9h.8c.4-.1 1-.5.8-.9zm12.1 3.8c.5-1.3 2.5-2.3 2.1-3.9-2.2 2.7-4.1 5.8-5.2 8.4l3.1-4.5zm-17.4-3.9c-.7.1-1.6.2-1.7 1h.4c.5-.1 1.2-.4 1.3-1zm7.8-.4c-.4-.2-.9.1-1.3.2 0 .2-.6.4-.3.7.7 0 1.3-.2 1.6-.9zm-11.5-.1c-.9.1-1.3 1.3-2.2.7v.1c.2.3.6 1 1.1.8-.4-1.1 1.4-.6 1.1-1.7zm6-.1c-.6 0-1.3.3-1.4.9h.5c.3-.3.9-.4.9-.9zm-5.3 5.3l-5.4-5.7c1.6 1.6 3.2 4.5 5.4 5.7zm7.4-5.8c-.7-.1-1.2.4-1.3 1l.6-.1c.3-.3.7-.5.7-.9zm-5.5 0c-.5.1-1.1.1-1.5.6l.1.3c.5-.2 1.3-.2 1.3-.9zm-5.1 0c-.3-.1-.6.1-.6.3l.2.1c.1-.1.4-.3.4-.4zm2.1-.4c-.7-.2-1.4.4-1.2.8.5-.1 1-.3 1.2-.8zm11.1-.1c-.6-.1-1.1.2-1.6.5 0 .2-.7.5-.2.6.7-.1 1.8-.2 1.8-1.1zm-5.5 0c-.6.2-1.5 0-1.7.8h.6c.4-.1 1.1-.4 1.1-.8zm7.3.1c-.5-.4-1-.2-1.2.4l.1.1c.4.1.9-.1 1.1-.4zm-11-.4c-.6-.1-1.1.4-1.1.8h.2c.4-.1.9-.3.9-.8zm6-.1c-.2 0-.6-.1-.8.1-.3.1-.8.4-.6.7.5-.2 1.4-.2 1.4-.8zm24.5-.2c-2.8 3.5-5.5 7.7-7.5 11.8-.5.3-1.4.4-1.1 1.1.3.1.6-.1.9-.1 1.2-1.6 2.4-3.3 3-5.2 1.3-2.6 3.7-4.8 4.7-7.6zm-4.9 1.1l.7-1.2c-.2.5-.7.5-.7 1.2zm-28.6-1c.4-.6-.5-.3-.7.1.1.3.5 0 .7-.1zm12-.3c-.6-.4-1.7-.3-2.2.4.7.4 1.4-.4 2.2-.4zm-6.4-.2c-.7.2-1.8 0-1.9.9.8.2 1.5-.4 1.9-.9zm9.3 2.4c1-.6 1.4-1.7 1.7-2.6l-1.2.8c-.1 1.2-1.6.9-1.7 1.9l1.3-.1zm10.1-1.3l.3-1.4c-2.4 2.4-4 5.4-5.7 8.2-.2.9-1.5 1-1.2 1.8.3-.1.8.1.9-.4 1.6-2.8 3.7-5.5 5.7-8.2zm-22.8-1.4c-.4-.1-1 .2-1.1.6h.4c.3 0 .8-.1.7-.6zm-4.9-.1c-.3-.1-.7.1-.7.5.1.1.1.2.2.2.4 0 .5-.3.5-.6zm12.7-.1c-.7-.4-1.1-.1-1.3.4.5 0 1.1 0 1.3-.4zm-1.6-.2c-.8.3-1.8.2-2.2 1.1l1.3-.1c.5-.1.8-.6.9-1zm-4.1 0c-.6-.3-1.1.3-1.3.6h.2c.5 0 1-.2 1.1-.6zm-4.8-.3c-.9 0-1.9 1-1.8 1.8h.3c.1-1 1.4-.8 1.5-1.8zm7.9-.1c-.6-.1-1.7-.4-2.1.3.5.5 1.3-.3 2.1-.3zm-10.8-.1c-.4-.3-1 0-.8.5.5.3.5-.3.8-.5zm5-.3c-.6.1-1.6.3-1.4.9h.2c.6.2 1-.6 1.2-.9zm30.3 2.6c.2-1.1 2.4-1.6 1.2-2.7-2.4 3.1-5 6.6-6.5 10.3-1.4-.4-.5 1.3-1.3 1.6-.4.6-1.2 1-1 1.6.7 0 1-.7 1.5-1.1 1.5-3.3 4-6.5 6.1-9.8zm-29.3-2.7c-.2.1-.8.1-.5.6h.3c.5.1.2-.5.2-.6zm-4.3-.1c-.4.2-1.3 0-1 .6h.3c.3-.1.9-.1.7-.6zm26.7-.7h-.3c-2.4 3.2-4.6 6.4-6.7 9.8-.4.2-.8.4-.5.8.4 0 .7 0 1-.2l4.8-7.5c.3-1.2 2.2-1.6 1.7-3zm-29.4 0h-.5v.6h.2c.3-.1.4-.3.4-.6zm1.8.2c.1-.4-.4-.5-.7-.5-.2.1-.4.4-.4.7a1.39 1.39 0 0 0 1.1-.2zm5.3-.5l-.1-.4c-1 .1-2.5-1.1-3.2.4.9.4 1.7-.8 2.5 0-.1.3-.5.1-.8.1-.6.3-1.9 0-1.8.8l2.8-.4c.2-.2.7-.2.6-.6zm-6.4-.5c-.3-.5-1.1-.3-1.1.2l.4.2c.2-.2.8 0 .7-.5zm35.3 2.4c.2-.9 2.5-1.7 1.3-2.8-2 2.5-4.1 5.3-5.6 8.2-.2.4-.4 1.1-.2 1.3 1.4-2.3 2.8-4.6 4.5-6.7zm-6.9-2.7l-.2-.5c-1.1.7-1.7 2-2.5 3 .7.8-.7.5-.8 1.1-1.2 1.9-2.6 3.7-3.3 5.7-.2.7-1.5.4-1.2 1.3.3-.1.7 0 .9-.3a144.77 144.77 0 0 1 7.1-10.3zm-.7-1.3c.2-.2.1-.6-.3-.7-2.8 3.2-5 6.6-6.8 10.4-.5.2-1.1.6-1.1 1.1.4-.1 1 0 1.3-.5 1.9-3.6 4.5-7 6.9-10.4zm5.6 4.4l3.2-4.4v-.8c-1.1 1.6-2.6 3.3-3.2 5.2zm-13.7-5.4c-.3-.1-.6.1-.5.4.5.2.3-.3.5-.4zm-20 6.4c-1.8-2-3.1-4.6-4.9-6.7.8 2.6 3.2 5 4.9 6.7zm26.8-8.2c-1.9 2-3.2 4.2-4.9 6.5-.7 1-1.7 2.2-1.6 3.4.9.9-.7 1.6-1.1 2.4.4.2.9.1 1.3-.2 2-3.9 4.8-7.5 7.4-10.9l-.3-.6c-2.3 2-3.4 5-5.3 7.4-.2.7-.7 1.4-1.3 1.8l-.2-.2c1.3-2.7 3.3-5.3 4.9-7.8.2-.8 1.3-1.1 1.2-1.9zm-5.9 7c1.9-2.5 3.3-5.2 5.2-7.7l-4.6 5.9c-.2.1-.4 0-.4-.1.3-1.7 2.1-2.8 2.4-4.1-1.1 1.2-1.8 2.7-2.8 4-.1.5.4.5.5.9-.5.2-.5 1.1-.4 1.1zm-.4-7.3c.2-.1.4-.4.4-.6l-.5.6h.1zm17.7-1a20.67 20.67 0 0 0-3.1 4.6c1.1-1.5 2.4-2.9 3.1-4.6zm-14.3 1.7l1.4-2.2c-.3.6-1.5 1.5-1.4 2.2zm1-3.1h-.2c-1.4 2-3.7 4.1-4.4 6.3 1.1-1.5 2-3.4 3.4-4.8.4-.6.9-.8 1.1-1.5zm2.9.1v-.2l-.2-.2.2.4zm8.9-2.9c-1.4-.6-.3-2.2-.7-3.2l-.8 1.9c-.6 2.7-3.2 5.4-1 8.1.2-.1.2-.4.4-.5l-.5-.1c.8-1.9 2-3.7 3.6-5.2-.5 1.8-2.5 3.3-2.8 4.9 1.1-1.1 1.8-2.8 3-3.9l.3.3c-1.4 1.9-3.2 4.2-3.8 6 1.3-1.6 2.5-3.6 4-4.9.1-.3.4-.8 0-1.1.5-.9.3-1.8.1-2.9-1.9 1.1-2.1 3.7-4 4.9.2-1.6 1.9-2.8 2.4-4.3zm4-15.2c-1.6.2-2.8.5-4.3.7l1.8-.1c.8-.1 2.1.2 2.5-.6zm-10.7.9c-.8-.2-1.7.1-2.1.1l.3.1c.4-.1 1.4.2 1.8-.2zm19.7 1.3h-.4c-.5 3.6-.8 7.3-1.2 11 .8-3.4 1.6-7.3 1.6-11zm-1.2 3.1c-.9-.6.3-1.4-.4-2 0 3-.6 6-.9 9 .3-2 1-4.4.8-6.5.1-.1.1-.4.5-.4zm-1.5 2.1c0-.6.3-1.5.1-2.1-.6.5-.1 1.6-.1 2.1zm-.5 4.2c-.2-1 .7-2.1.2-2.8-.1 1-.7 2.2-.2 2.8zm-.8-1c-.1-.5-.8-.3-.8.2.3-.2.7.2.8-.2zm1.3 3.3l.1-.6-.1-.5v1zm-.8.3l-.1-.1-.2 1.4.6-.3c.1-.4-.2-.4-.4-.5-.1-.2 0-.5.1-.6zm-.8 2.2c.4-.2-.2-.2-.2-.2v.4l.2-.2zm-53-42.6l.3-.2c-.2.1-.6-.2-.7.1.1.1.3 0 .4.1zm-5.4 6.9c.4-1 1.1-2 .5-3-.6.8-.6 1.9-.7 3h.1zm8.8-9c-.5-.2-1.1-.2-1.4.1.5.7.9-.2 1.4-.1zm-37.1 118.9c-.5-.7-1.1-1.6-1.9-1.9.4.8 1.3 1.3 1.9 1.9z"/><path d="M291.1 1381.3v32.8c0 3.3 1.1 6.5 3.1 9.1l.3.4 26.6-42.4h-29.9z"/></g></g><defs /></svg>