<svg xmlns="http://www.w3.org/2000/svg" width="1308.858" height="204.094" viewBox="0 0 47329.8 7380.3"  shape-rendering="geometricPrecision" image-rendering="optimizeQuality" fill-rule="evenodd" xmlns:v="https://vecta.io/nano"><path d="M63811.699-50915.102h218674.906v218674.906H63811.699z" fill="#ccc"/><path d="M31993.5 41h-1230.6v7298.2h1230.6V5586.8l855.1 1752.4h1386.2l-1904.9-4002.9L34273.7 40.9h-1394.2l-885.9 1529.3V40.9zM45183 2824.5V1518.2h875.1v1306.3H45183zM3377.3 1518.2V41H40.9v7298.2h3336.4V5862H1271.6V4301.7h1148.9V2824.5H1271.6V1518.2h2105.7zm13433.1 0V41H13474v7298.2h3336.4V5862h-2105.7V4301.7h1148.9V2824.5h-1148.9V1518.2h2105.7zM19025 41h-1230.6v7298.2h3336.4V5862h-2105.7V40.9zm6426 1477.2V41h-3336.4v7298.2H25451V5862h-2105.7V4301.7h1148.9V2824.5h-1148.9V1518.2H25451zM27604.3 41H26435v7298.2h1230.6V4332.1l936.4 3007.1h1169.3V41h-1230.6v3007.1L27604.3 41zm8938.1 2783.5V1518.2h875.1v1306.3h-875.1zm875.1 4514.7h1230.6V953.8l-690.6-912.9h-1955.2l-690.6 912.9v6385.4h1230.6V4301.7h875.1v3037.5zM40813.5 41h-1181.4v7298.2h1230.6V4555.7h875.1v2783.5h1230.6V41h-1181.3l-487.3 2022.9L40813.5 41zm5784.7 4260.7l690.6-912.9v-2435l-690.6-912.9h-2645.8v7298.2H45183V4301.6h1415.1zM5594.2 41H4363.6v7298.2h1230.6V5586.8l855.1 1752.4h1386.2L5930.6 3336.3 7874.4 40.9H6480.2l-885.9 1529.3V40.9zm4556.4 0H8920v7298.2h1230.6V5586.8l855.1 1752.4h1386.2L10487 3336.3 12430.8 40.9h-1394.2l-885.9 1529.3V40.9z" fill="#fff"/><path d="M32032.8 1417.7L32854.1 0h1489.7l-1969.2 3338.4L34298 7380.2h-1476.7l-788.5-1615.9v1615.9h-1312.6V-.1h1312.6v1417.7zm13191.3 1365.8h793.1V1559.2h-793.1v1224.3zM1312.7 1559.2v1224.3h1148.9v1559.2H1312.7V5821h2105.7v1559.2H0V-.1h3418.4v1559.2H1312.7zM3145.1 273.4v1012.5H1039.4v1771h1148.9v1012.5H1039.4v2025h2105.7v1012.5H273.4V273.3h2871.7zm11600.7 1285.8v1224.3h1148.9v1559.2h-1148.9V5821h2105.7v1559.2h-3418.4V-.1h3418.4v1559.2h-2105.7zm1832.4-1285.8v1012.5h-2105.7v1771h1148.9v1012.5h-1148.9v2025h2105.7v1012.5h-2871.7V273.3h2871.7zm2488 5547.7h2105.7v1559.2h-3418.4V0h1312.6v5821.1zm-273.3-5547.7v5821.1h2105.7V7107h-2871.7V273.4h765.9zm4593.7 1285.8v1224.3h1148.9v1559.2h-1148.9V5821h2105.7v1559.2h-3418.4V-.1h3418.4v1559.2h-2105.7zM25219 273.4v1012.5h-2105.7v1771h1148.9v1012.5h-1148.9v2025H25219v1012.5h-2871.7V273.3H25219zm3281 2505.2V.1h1312.6v7380.3h-1240.5l-865.3-2778.5v2778.5h-1312.6V.1h1240.5l865.3 2778.5zM27433.6 273.4l1339.8 4302.3V273.4h765.9V7107h-765.9l-1339.8-4302.3V7107h-765.9V273.4h765.9zm9150 2510.2h793.1V1559.3h-793.1v1224.3zm793.1 1559.2h-793.1v3037.5H35271V940.2L35982.2.1h1996l711.2 940.1v6440.1h-1312.7V4342.8zM35544.3 7107V1032l573.8-758.5h1724l573.8 758.5v6075h-766V4069.5h-1339.8V7107h-765.9zm765.9-4050H37650V1286h-1339.8v1771zM41300 1888.8L41755 .2h1254.6v7380.3h-1312.7V4597h-793.1v2783.5h-1312.6V.2h1254.7l454.1 1888.6zm-669.5-1615.3l669.2 2783.5 670.5-2783.5h766v6833.6h-766V2642.4l-383 1681.2h-573.8l-383-1620.7v4404.2h-765.9V273.5h765.9zm4593.7 4069.4v3037.5h-1312.6V.1h2707.2l711.2 940.1v2462.5l-711.2 940.1h-1394.5zm1258.6-4069.4l573.8 758.5v2279l-573.8 758.5h-1531.9V7107H44185V273.4h2297.8zM44950.9 3057h1339.8V1286h-1339.8v1771zM5633.6 1417.8L6454.9.1h1489.7L5975.4 3338.5l1923.4 4041.8H6422.1l-788.5-1615.9v1615.9H4321V0h1312.6v1417.7zM5360.3 273.4v2161.5L6612.5 273.4H7466L5666.1 3324.7 7466 7106.9h-873.1L5360.3 4580.8v2526.1h-765.9V273.3h765.9zM10190 1417.8L11011.3.1H12501l-1969.2 3338.4 1923.4 4041.8h-1476.7L10190 5764.4v1615.9H8877.4V0H10190v1417.7zM9916.7 273.4v2161.5l1252.2-2161.5h853.5l-1799.9 3051.3 1799.9 3782.2h-873.1L9916.7 4580.8v2526.1h-765.9V273.3h765.9zm21843 0v2161.5l1252.2-2161.5h853.5l-1799.9 3051.3 1799.9 3782.2h-873.1l-1232.6-2526.1v2526.1h-765.9V273.3h765.9z" fill="#332b24"/><defs /></svg>