<svg xmlns="http://www.w3.org/2000/svg" width="94.53" height="204.094" viewBox="0 0 190.5 411.4"  shape-rendering="geometricPrecision" image-rendering="optimizeQuality" fill-rule="evenodd" xmlns:v="https://vecta.io/nano"><path d="M6411.2-10480.6h12189v18283.4h-12189z" fill="#d9dada"/><path d="M119.7 141.1h68.6V53.2L149.8 2.3h-109L2.3 53.2v304.9l38.5 51h109l38.5-51v-87.8h-68.6v56.5H70.9V84.6h48.8z" fill="#fff"/><path d="M117.4 86.9H73.2v237.6h44.2v-56.4h73.2v90.8L151 411.4H39.7L.1 358.9V52.4L39.7 0H151l39.6 52.4v90.9h-73.2V86.9zm25.9-71.7l32 42.3v70.6h-42.7V71.7H57.9v268h74.7v-56.4h42.7v70.5l-32 42.4H47.2l-32-42.4V57.6l32-42.3h96.1z" fill="#332b24"/><defs /></svg>