<svg xmlns="http://www.w3.org/2000/svg" width="680.485" height="204.094" viewBox="0 0 13454.9 4035.4"  shape-rendering="geometricPrecision" image-rendering="optimizeQuality" fill-rule="evenodd" xmlns:v="https://vecta.io/nano"><path d="M30236.699-12936h119569.203v119569.203H30236.699z" fill="#ccc"/><path d="M12759.6 3205.3h-478.5V830.1h478.5v2375.2zM695.4 22.4H22.5V4013h1824.3v-807.7H695.4V22.4zm2362.3 1522V830.1h478.5v714.3h-478.5zM3536.2 4013h672.9V521.5L3831.5 22.4H2762.4l-377.6 499.1V4013h672.9V2352.1h478.5V4013zM5420 3205.3v-853.2h478.5v853.2H5420zm0-1660.9V830.1h478.5v714.3H5420zm1151.4 169.7V521.6L6193.8 22.5H4747.1v3990.6h1446.8l377.5-500.2V2182.5l-177.2-234.2 177.2-234.2zM7622.1 22.4H6938l608 2068.9v1907.6h672.9V2092L8849.4 22.5h-684.3l-279.2 912.6L7622 22.5zm2296.8 1522V830.1h478.5v714.3h-478.5zm478.5 2468.6h672.9V521.5l-377.6-499.1H9623.6L9246 521.5V4013h672.9V2352.1h478.5V4013zM13055 22.4h-1446.7V4013h1446.8l377.5-500.2V521.5L13055 22.4z" fill="#fff"/><path d="M12737.1 3182.9V852.6h-433.6v2330.3h433.6zm-12019.4 0h1151.4v852.6H0V.1h717.7V3183zM568.2 149.5v3182.9h1151.4V3886H149.4V149.5h418.8zM3080 1522h433.6V852.5H3080V1522zm433.6 852.6H3080v1660.9h-717.7V514.1L2751.2.1h1091.4l388.9 514v3521.4h-717.7V2374.6zM2511.7 3886V564.2l313.7-414.7h942.7l313.8 414.7V3886h-418.8V2225.1h-732.6V3886h-418.8zm418.8-2214.5h732.6V703.1h-732.6v968.4zm2511.8 1511.4h433.6v-808.3h-433.6v808.3zm0-1660.9h433.6V852.5h-433.6V1522zm979.9 426.3l171.5 226.6v1345.4l-388.8 515.1H4724.6V0h1480.2l388.9 514v1207.6l-171.5 226.7zM6130.4 149.5l313.8 414.7v1107.3l-209.4 276.8 209.4 276.8v1245.2L6130.4 3886H4874V149.5h1256.4zm-837.6 1522h732.6V703.1h-732.6v968.4zm0 1660.9h732.6V2225.1h-732.6v1107.3zm2593.4-2476L8148.2 0h731.2L8241 2095.3v1926h-717.7V2094.5L6907.7 0h730.9l247.6 856.4zm-360-706.9l355.9 1231 376.6-1231h418.8L8091.4 2073v1798.8h-418.8V2073L7107.3 149.5h418.8zM9941.1 1522h433.6V852.5h-433.6V1522zm433.6 852.6h-433.6v1660.9h-717.7V514.1L9612.3.1h1091.4l388.9 514v3521.4h-717.7V2374.6zM9372.8 3886V564.2l313.7-414.7h942.7l313.8 414.7V3886h-418.8V2225.1h-732.6V3886h-418.8zm418.8-2214.5h732.6V703.1h-732.6v968.4zM13065.9 0l388.9 514v3006.3l-388.8 515.1h-1480.3V0h1480.2zm-74.3 149.5l313.8 414.7v2906.1l-313.8 415.7h-1256.4V149.5h1256.4zm-105.1 3182.9V703.1h-732.6v2629.3h732.6z" fill="#332b24"/><defs /></svg>