<svg xmlns="http://www.w3.org/2000/svg" width="96.094" height="204.094" viewBox="0 0 278.7 592"  shape-rendering="geometricPrecision" image-rendering="optimizeQuality" fill-rule="evenodd" xmlns:v="https://vecta.io/nano"><path d="M3941.4-15083.2h17541.801v26312.699H3941.4z" fill="#d9dada"/><path d="M172.5 226.6h-70.2V121.8h70.2v104.8zm98.7 45.3V76.6L215.8 3.4H3.6v585.5h98.7V345.2h27.4l46 243.7h99.4l-48.7-257.6 44.8-59.2z" fill="#fff"/><path d="M168.9 223.3v-98.2h-63.6v98.2h63.6zm60.7 108.6L278.7 592H172.6l-46-243.7h-21.3V592H0V0h217.2l57.1 75.4v197.5l-44.6 59zm-23.4-310l46 60.8v182.8l-46 60.8 46 243.7h-61.4l-46-243.7H83.4V570H22V21.8h184.3zm-15.4 223.3V103.1H83.3v142.1h107.5z" fill="#332b24"/><defs /></svg>