<svg xmlns="http://www.w3.org/2000/svg" width="791.902" height="282.565" viewBox="0 0 15347.8 5476.4"  shape-rendering="geometricPrecision" image-rendering="optimizeQuality" fill-rule="evenodd" xmlns:v="https://vecta.io/nano"><path d="M46160.102-2526.8h117201.602v117201.602H46160.102z" fill="#ccc"/><path d="M15325.9 2235.3v-692.5h-1788.2v791.7h1030l-1030 2427.3v692.5h1788.2v-791.7h-1028.7l1028.7-2427.4zM326.5 861.1l230.4 352.6L1501 597 1132.4 32.7 326.6 861.1zm355.1 2173.6v-700.1h469v700.1h-469zm469 2419.7h659.6V2032.1l-370.1-489.3H392.2L22.1 2032.1v3422.3h659.6v-1628h469v1628zm1846.5-3911.6h-659.6v3911.6h1788.2v-791.7H2997.1V1542.8zm1946.5 0h-664.2l603 3911.6h626.3l600.8-3911.6h-663.9l-252.4 1803.7-249.5-1803.7zm2272.2 1491.9v-700.1h469v700.1h-469zm469 2419.7h659.6V2032.1l-370.1-489.3H6926.4l-370.1 489.3v3422.3h659.6v-1628h469v1628zm2320.1-2419.7h-469v-700.1h469v700.1zm659.6 302.5V2032.1l-370.1-489.3h-1418v3911.6H9536v-1628h182.8l307.5 1628h664L10365.1 3733l299.5-395.8zm2345.8-1002.6v-791.7h-1788.2v3911.6h1788.2v-791.7h-1128.6v-836.3h615.8v-791.7h-615.8v-700.1h1128.6z" fill="#fff"/><path d="M15201.3 1667.4v542.7l-1092.2 2577.2h1092.2V5330h-1539.1v-542.7l1093.6-2577.2h-1093.6v-542.7h1539.1zM298.4 860.7L1135.6 0l395.7 605.7-980.9 640.8-252-385.7zm186.8 18.1l107.7 164.9 735.6-480.5L1113 233.4 485.2 878.8zm218.3 2134h425.1v-656.2H703.5v656.2zm425.1 835.7H703.5v1628H0V2024.8l381.2-503.9H1451l381.2 503.9v3451.7h-703.5v-1628zM146.5 5330V2074L454 1667.5h924l307.5 406.5v3256H1275V3702H556.9v1628H146.4zM557 3159.3h718.1v-949.2H557v949.2zm2462 1481.5h1128.6v835.7H2315.5V1521H3019v3119.9zm-146.5-2973.4v3119.9h1128.6V5330H2462V1667.5h410.5zm2320.7 1519.7l233.2-1666.2h708.7l-607.5 3955.5h-664l-609.8-3955.5h709l230.5 1666.2zm-358.1-1519.7l357.3 2582.8 361.5-2582.8h410.5l-562.5 3662.5h-412.6l-564.6-3662.5h410.5zm2402.7 1345.4h425.1v-656.2h-425.1v656.2zm425.1 835.7h-425.1v1628h-703.5V2024.8l381.2-503.9h1069.8l381.2 503.9v3451.7H7663v-1628zM6680.8 5330V2074l307.5-406.5h924l307.5 406.5v3256h-410.5V3702h-718.1v1628h-410.5zm410.5-2170.7h718.1v-949.2h-718.1v949.2zm2889.4-146.5v-656.2h-425.1v656.2h425.1zm405.5 725.8l328.3 1737.9h-708.7l-307.5-1628h-142.6v1628h-703.5V1521h1450.9l381.2 503.9v1319.8l-298 394zm-156-2071.1l307.5 406.5v1221.5l-307.5 406.5 307.5 1628h-410.5l-307.5-1628h-410.5v1628h-410.5V1667.5h1231.6zm-103 1491.9v-949.2h-718.1v949.2h718.1zm1776.5-802.7v656.2h615.8v835.7h-615.8v792.3h1128.6v835.7h-1832.1V1521.1h1832.1v835.7h-1128.6zm982.1-689.2v542.7h-1128.6v949.2h615.8v542.7h-615.8v1085.3h1128.6v542.7h-1539.1V1667.6h1539.1zm1444.6 2973.4h1017.5v835.7h-1832.1v-719l1018.8-2400.9h-1018.8V1521h1832.1v718.9l-1017.5 2400.9z" fill="#332b24"/><defs /></svg>