<svg xmlns="http://www.w3.org/2000/svg" width="835.578" height="204.094" viewBox="0 0 17332.2 4233.5"  shape-rendering="geometricPrecision" image-rendering="optimizeQuality" fill-rule="evenodd" xmlns:v="https://vecta.io/nano"><path d="M47820.602-51178.199h125436.5v125436.5h-125436.5z" fill="#ccc"/><path d="M16572.8 1620.2h-502V870.9h502v749.3zM729.5 2781.8H23.6v903.4l396 524.7h1121.7l396-524.7V23.5h-705.9v3339.1h-502v-580.8zm1763.1 730.4v697.7h697.7v-697.7h-697.7zm3598-2641.3V23.6H4176.8v847.3h603.6V4210h705.9V870.9h604.3zM7361 23.6h-705.9V4210H7361V23.6zm1242.1 0h-677.7V4210h705.9V2613.3h502V4210h705.9V23.6h-677.6L8882.1 1184l-279-1160.4zm2506.5 3339.1v-895h502v895h-502zm0-1742.4V871h502v749.3h-502zm1207.9 178V547.2l-396.1-523.6h-1517.7V4210h1517.8l396-524.7V2289.6l-185.8-245.7 185.8-245.7zm2478.2-927.4V23.6h-1913.8V4210h1913.8v-847.3h-1207.9v-895h659.1v-847.3h-659.1V871.1h1207.9zm2483.1 1073V547.1l-396.1-523.6H15365v4186.4h705.9V2467.5h195.6l329.2 1742.4h710.6l-348-1842.4 320.5-423.7z" fill="#fff"/><path d="M16546.8 1596.7V894.4h-454.9v702.3h454.9zM752.9 3339.1h454.9V0h753v3693.1L1553 4233.5H407.9L.1 3693.1v-934.8h753v580.8zm-156.8-424v580.8h768.5V156.8H1804v3483.8l-329.2 436.1H485.9l-329.2-436.1v-725.5h439.4zm2029.7 730.4v431.2H3057v-431.2h-431.2zM2469 3488.7h744.8v744.8H2469v-744.8zM5509.7 894.4v3339.1h-753V894.4h-603.6V0h1960.8v894.4h-604.3zM4310 156.8h1647.2v580.8h-604.3v3339.1h-439.4V737.6h-603.6V156.8zM7384.4 0v4233.5h-753V0h753zm-156.8 156.8v3919.9h-439.4V156.8h439.4zM8882 1083.4L9143 0h719.7v4233.5h-753V2636.8h-454.9v1596.7h-753V0h719.7L8882 1083.4zm-384-926.6l383.9 1596.7 384.6-1596.7h439.4v3919.9h-439.4V1515.6L9046.8 2480h-329.2l-219.7-929.7v2526.4h-439.4V156.8h439.4zm2635 3182.3h454.9v-848H11133v848zm0-1742.4h454.9V894.4H11133v702.3zm1028 447.2l179.9 237.8v1411.5l-407.8 540.4h-1553V.1H11933l408 539.3v1266.8l-179.9 237.8zm-306.1-1887.1l329.2 435.1v1161.6l-219.7 290.4 219.7 290.4v1306.3l-329.2 436.1h-1318.1V156.8h1318.1zm-878.7 1596.7h768.5V737.6h-768.5v1015.9zm0 1742.4h768.5V2334.3h-768.5v1161.6zm2635-2601.5v702.3h659.1v894.4h-659.1v848h1207.9v894.4h-1960.8V0h1960.8v894.4h-1207.9zm1051.1-737.6v580.8h-1207.9v1015.9h659.1v580.8h-659.1v1161.6h1207.9v580.8h-1647.2V156.8h1647.2zm2318.5 2216.7l351.4 1860h-758.5l-329.2-1742.4h-152.6v1742.4h-753V0h1552.9l408 539.3v1412.5l-319 421.6zm-167-2216.7l329.2 435.1v1307.3l-329.2 435.1 329.2 1742.4h-439.4l-329.2-1742.4H15935v1742.4h-439.4V156.8h1318.1zm-110.2 1596.7V737.6h-768.5v1015.9h768.5z" fill="#332b24"/><defs /></svg>