<svg xmlns="http://www.w3.org/2000/svg" width="94.53" height="204.094" viewBox="0 0 248.4 536.4"  shape-rendering="geometricPrecision" image-rendering="optimizeQuality" fill-rule="evenodd" xmlns:v="https://vecta.io/nano"><path d="M4559.3-13665.3H20452v23839.1H4559.3z" fill="#d9dada"/><path d="M92.4 426V110.3H156V426H92.4zM195.2 2.9H53.1L2.9 69.2v397.6l50.2 66.5h142.1l50.2-66.5V69.2L195.2 2.9z" fill="#fff"/><path d="M95.4 423.1H153V113.4H95.4v309.7zM196.7 0l51.7 68.3v399.6l-51.7 68.5H51.6L-.1 467.9V68.3L51.6 0h145.1zm-9.9 19.9L228.5 75v386.3l-41.7 55.3H61.5l-41.7-55.3V75l41.7-55.1h125.3zM75.5 443h97.4V93.5H75.5V443z" fill="#332b24"/><defs /></svg>