<svg xmlns="http://www.w3.org/2000/svg" width="514.197" height="204.094" viewBox="0 0 9128.2 3623.1"  shape-rendering="geometricPrecision" image-rendering="optimizeQuality" fill-rule="evenodd" xmlns:v="https://vecta.io/nano"><path d="M14346.7-13189.3h107352.797V94163.497H14346.7z" fill="#ccc"/><path d="M8503.9 2877.8h-429.6V745.3h429.6v2132.5zm-7879.7 0v-766h429.6v766H624.2zm0-1491.2V745.3h429.6v641.3H624.2zm1033.7 152.3V468.2L1318.9 20H20v3582.9h1298.9l338.9-449.1V1959.3l-159.1-210.2 159.1-210.3zM2745.1 20.1H2141V3603h1637.9v-725.2H2745.2V20.1zm2121 0H4262V3603h604.1V20.1zm1057.1 0h-574V3603h604.1V2126.7L6413 3603h574V20.1h-604.1v1476.3L5923.2 20.1zm2845.8 0H7470.1V3603H8769l338.9-449.1V468.2L8768.9 20z" fill="#fff"/><path d="M8483.8 2857.7V765.4h-389.3v2092.3h389.3zm-7839.4 0h389.3v-725.8H644.4v725.8zm0-1491.2h389.3V765.4H644.4v601.1zm879.8 382.7l153.9 203.5v1208L1329 3623.2H-.1V.1h1329L1678 461.6v1084.2l-153.9 203.5zm-261.9-1615L1544 506.6v994.1l-188 248.5 188 248.5v1118l-281.7 373.2H134.2V134.1h1128.1zm-752 1366.5H1168V631.3H510.3v869.4zm0 1491.2H1168v-994.1H510.3v994.1zm2255.1-134.2h1033.7v765.4H2120.9V0h644.4v2857.7zM2631.2 134.2v2857.7h1033.7V3489H2255.1V134.2h376zM4886.3 0v3623.1h-644.4V0h644.4zm-134.2 134.2V3489h-376V134.2h376zm1610.7 1229.9V.1h644.4v3623.1h-609l-424.8-1364v1364H5329V.1h609l424.8 1364zM5839.3 134.2L6497 2246.3V134.2h376V3489h-376l-657.7-2112.1V3489h-376V134.2h376zM8779.1 0l349.1 461.5v2699.2l-349.1 462.5H7450V.1h1329zm-66.7 134.2l281.7 372.4v2609.2L8712.4 3489H7584.3V134.2h1128.1zm-94.3 2857.7V631.3h-657.7v2360.6h657.7z" fill="#332b24"/><defs /></svg>