<svg xmlns="http://www.w3.org/2000/svg" width="695.497" height="282.565" viewBox="0 0 11703.8 4755"  shape-rendering="geometricPrecision" image-rendering="optimizeQuality" fill-rule="evenodd" xmlns:v="https://vecta.io/nano"><path d="M41126.102-25604.6h101762.703V76158.104H41126.102z" fill="#ccc"/><path d="M11684.7 2027v-687.4h-1552.6v3396.3h1552.6v-687.4h-979.9v-726.1h534.7V2635h-534.7v-607.9h979.9zM10396.4 747.6l200 306.2 819.7-535.5L11096 28.4l-699.7 719.3zM1571.6 2027v-687.4H19V2027h489.7v2708.9h572.7V2027h490.3zm1441.8 607.9h-407.2V2027h407.2v607.9zm572.7 262.6V1764.4l-321.4-424.8H2033.5v3396.3h572.7V3322.4h158.7l267 1413.5h576.5L3326 3241.2l260-343.7zM4643 2634.9V2027h407.2v607.9H4643zm407.2 2101h572.7V1764.4l-321.4-424.8h-909.9l-321.4 424.8v2971.5h572.7V3322.4h407.2v1413.5zm1603.3-687.4V2027h407.2v2021.5h-407.2zM7312 1339.6h-909.9l-321.4 424.8v2545.8l321.3 425.7h910l321.3-425.7V1764.4l-321.4-424.8zm1763.1 1295.3h-407.2V2027h407.2v607.9zm572.7 262.6V1764.4l-321.4-424.8H8095.2v3396.3h572.7V3322.4h158.7l267 1413.5h576.5l-282.4-1494.7 260-343.7z" fill="#fff"/><path d="M10372.1 747.3L11099 0l343.5 525.9-851.7 556.4-218.8-334.9zM1100.5 2046.1V4755H489.6V2046.1H-.1v-725.6h1590.8v725.6h-490.3zm-973.3-598.4h1336.4v471.2H973.3v2708.9H616.9V1918.9H127.2v-471.2zm2865.2 1168.1V2046h-369.1v569.8h369.1zm352.1 630.2l285.1 1509h-615.4l-267-1413.5h-123.8V4755h-610.8V1320.5h1259.8l331 437.5v1145.9L3344.6 3246zM3209 1447.7l267 353v1060.6l-267 353 267 1413.5h-356.4l-267-1413.5h-356.4v1413.5h-356.4V1447.7h1069.3zM3119.6 2743v-824.2h-623.5V2743h623.5zm1542.5-127.2h369.1V2046h-369.1v569.8zm369.1 725.6h-369.1v1413.5h-610.8v-2997l331-437.5h928.8l331 437.5v2997h-610.9V3341.4zm-852.7 1286.3V1800.6l267-353h802.3l267 353v2827.1h-356.4V3214.2h-623.5v1413.5h-356.4zM4534.9 2743h623.5v-824.2h-623.5V2743zm2137.7 1286.3h369.1V2046h-369.1v1983.3zm649-2708.9l331 437.5v2558.6l-330.9 438.4h-929l-330.9-438.4V1757.9l331-437.5h928.8zm-63.3 127.2l267 353v2473.3l-267 353.8H6456l-267-353.8V1800.6l267-353h802.3zm-712.9 2708.9h623.5V1918.8h-623.5v2237.7zm2508.8-1540.8v-569.8h-369.1v569.8h369.1zm352.1 630.2l285.1 1509H9076l-267-1413.5h-123.8v1413.5h-610.8V1320.4h1259.8l331 437.5v1145.9l-258.8 342.1zm-135.5-1798.3l267 353v1060.6l-267 353 267 1413.5h-356.4l-267-1413.5H8558v1413.5h-356.4V1447.6h1069.3zm-89.4 1295.3v-824.2h-623.5v824.2h623.5zm1542.5-697v569.8h534.7v725.6h-534.7v688h979.9v725.6H10113V1320.4h1590.8V2046h-979.9zm852.7-598.4v471.2h-979.9v824.2h534.7v471.2h-534.7v942.4h979.9v471.2h-1336.4V1447.6h1336.4zm-1042.3-684.7l93.5 143.2 638.7-417.2-187.1-286.4-545.1 560.4z" fill="#332b24"/><defs /></svg>