<svg xmlns="http://www.w3.org/2000/svg" width="514.197" height="282.565" viewBox="0 0 8738.5 4802"  shape-rendering="geometricPrecision" image-rendering="optimizeQuality" fill-rule="evenodd" xmlns:v="https://vecta.io/nano"><path d="M16638.5-32616.5h102769.398V70152.898H16638.5z" fill="#ccc"/><path d="M7418.2 755.1l202 309.2L8448 523.5 8124.8 28.7l-706.6 726.4zm-5831 1292v-694.2H19.2v694.2h494.5v2735.7h578.4V2047.1h495.1zM2628 2661v-613.9h411.3V2661H2628zm411.3 2121.8h578.4V1781.9l-324.6-429h-918.9l-324.5 429v3000.9h578.4V3355.3h411.3v1427.5zm2030.4-694.2h-411.3V2047.1h411.3v2041.5zm253.8-2735.7H4080.1v3429.9h1243.5l324.5-429.9v-2571l-324.6-429zm1365.3 0h-578.4v3429.9h578.4V1352.9zm1452 1170.1h578.4v-741.1l-324.6-429h-918.9l-324.5 429v2571l324.5 429.9h919l324.5-429.9v-740.2h-578.4v475.8h-411.3V2047h411.3v475.8z" fill="#fff"/><path d="M7393.7 754.7L8127.8 0l346.9 531.1-860.1 561.9-221-338.2zM1111.4 2066.4v2735.7H494.5V2066.4H0v-732.8h1606.5v732.8h-495.1zm-982.9-604.3h1349.6v475.8H983v2735.7H623V1937.9H128.5v-475.8zm2518.8 1179.7H3020v-575.4h-372.7v575.4zm372.7 732.8h-372.7v1427.5h-616.9V1775.5l334.2-441.8h938l334.2 441.8v3026.6h-616.9V3374.6zm-861.1 1299.1V1818.6l269.7-356.5h810.2l269.7 356.5v2855.1h-360V3246.2h-629.6v1427.5h-360zm360-1903.4h629.6V1938h-629.6v832.3zm2531.6 1299.1V2066.5h-372.7v2002.9h372.7zm282.7-2735.7l334.2 441.8v2583.9l-334.1 442.7H4060.9V1333.6h1272.3zm-63.9 128.5l269.7 356.5v2497.8l-269.7 357.3H4189.4V1462.3h1079.9zM5179 4197.9V1938.1h-629.6v2259.8H5179zm1529.2-2864.2v3468.5h-616.9V1333.7h616.9zm-128.5 128.5v3211.5h-360V1462.2h360zm1542 604.3H7749v2002.9h372.7v-475.8h616.9v765.9l-334.2 442.7h-938.2l-334.1-442.7V1775.6l334.2-441.8h938l334.2 441.8v766.8h-616.9v-475.8zm218.8-604.3l269.7 356.5v595.2h-360v-475.8h-629.6v2259.8h629.6v-475.8h360v594.4l-269.7 357.3h-810.2l-269.7-357.3V1818.7l269.7-356.5h810.2zm-782.9-691.5l94.5 144.6 645-421.3-188.9-289.2-550.5 566z" fill="#332b24"/><defs /></svg>