<svg xmlns="http://www.w3.org/2000/svg" width="94.53" height="204.094" viewBox="0 0 183.1 395.4"  shape-rendering="geometricPrecision" image-rendering="optimizeQuality" fill-rule="evenodd" xmlns:v="https://vecta.io/nano"><path d="M6647.9-10073.6h11715.6v17573.4H6647.9z" fill="#d9dada"/><path d="M68.1 151.3v-70H115v70H68.1zM115 393.2h65.9V51.1l-37-48.9H39.2l-37 48.9v342.1h65.9V230.5H115v162.7z" fill="#fff"/><path d="M70.3 149.1h42.5V83.5H70.3v65.6zm42.5 83.5H70.3v162.7H0v-345L38.1-.1H145l38.1 50.4v345h-70.3V232.6zM14.6 380.7V55.2l30.7-40.6h92.4l30.7 40.6v325.5h-41V218H55.6v162.7h-41zm41-217h71.8V68.8H55.6v94.9z" fill="#332b24"/><defs /></svg>