<svg xmlns="http://www.w3.org/2000/svg" width="1053.339" height="204.094" viewBox="0 0 28958 5610.9"  shape-rendering="geometricPrecision" image-rendering="optimizeQuality" fill-rule="evenodd" xmlns:v="https://vecta.io/nano"><path d="M56222.301-64510h166248.406v166248.406H56222.301z" fill="#ccc"/><path d="M27326 4456.7V1154.3h665.3v3302.4H27326zM2567.7 1154.3V31.3H31.2v1123h799.9v4425.5h935.6V1154.3h800.9zm1683.7 993.1v-993.1h665.3v993.1h-665.3zm665.3 3432.3h935.6V725.2l-525-694H3840.9l-525 694v4854.5h935.6V3270.4h665.3v2309.3zm3284.6-3848.8h935.6V725.2l-525-694H7125.5l-525 694v4159.1l524.9 695.4h1486.7l524.9-695.4V2147.4H7619.1v1123h582.3v1186.3h-665.3V1154.3h665.3V1731zM10820.6 31.2H9885v5548.5h2536.5v-1123h-1600.9V31.2zm3284.5 0h-935.6v5548.5h935.6V31.2zm1683.7 2116.2v-993.1h665.3v993.1h-665.3zm665.3 3432.3h935.6V725.2l-525-694h-1486.4l-525 694v4854.5h935.6V3270.4h665.3v2309.3zm4220.2-4425.5V31.2h-2536.5v5548.5h935.6V3270.4h873.5v-1123h-873.5v-993.1h1600.9zM22358 31.2h-935.6v5548.5h935.6V31.2zM24706.9 1924h935.6V725.2l-525-694h-1486.4l-525 694v4159.1l524.9 695.4h1486.7l524.9-695.4V3686.9H24707v769.8h-665.3V1154.3h665.3v769.8zM28402 31.2h-1486.4l-525 694v4159.1l524.9 695.4h1486.7l524.9-695.4V725.2l-525-694z" fill="#fff"/><path d="M27357.1 4425.5h602.9V1185.4h-602.9v3240.1zM1797.9 1185.4v4425.5H800V1185.4H.1V0h2598.8v1185.4H1798zM207.8 207.8H2391v769.8h-800.9v4425.5h-582.3V977.6H207.9V207.8zm4074.7 1908.4h602.9v-930.8h-602.9v930.8zm602.9 1185.4h-602.9v2309.3h-997.9V714.8L3825.3.1h1517.4l540.7 714.7v4896.1h-997.9V3301.6zM3492.3 5403.1V784.5l436.2-576.7h1310.7l436.2 576.7v4618.6h-582.3V3093.8H4074.5v2309.3h-582.3zM4074.6 2324h1018.6V977.6H4074.6V2324zm4095.3-1138.6H7567v3240.1h602.9V3301.6h-582.3V2116.2h1580.3v2778.5l-540.5 716.2H7109.7l-540.5-716.2v-4180L7109.9 0h1517.4L9168 714.7V1762h-997.9v-576.7zm353.9-977.6L8960 784.5v769.8h-582.3V977.6H7359.1v3655.7h1018.6V3093.8h-582.3V2324H8960v2501.1l-436.2 578H7213.1l-436.2-578V784.5l436.2-576.7h1310.7zm2327.7 4217.7h1600.9v1185.4H9853.6V0h997.9v4425.5zm-207.8-4217.7v4425.5h1600.9v769.8h-2183.2V207.9h582.3zM14136.1 0v5610.9h-997.9V0h997.9zm-207.8 207.8V5403H13346V207.8h582.3zm1891.5 1908.4h602.9v-930.8h-602.9v930.8zm602.9 1185.4h-602.9v2309.3h-997.9V714.8L15362.6.1H16880l540.7 714.7v4896.1h-997.9V3301.6zm-1393.1 2101.5V784.5l436.2-576.7h1310.7l436.2 576.7v4618.6h-582.3V3093.8h-1018.6v2309.3h-582.3zm582.3-3079.1h1018.6V977.6h-1018.6V2324zm3492.4-1138.6v930.8h873.5v1185.4h-873.5v2309.3h-997.9V0h2598.8v1185.4h-1600.9zm1393.1-977.6v769.8h-1600.9V2324h873.5v769.8h-873.5v2309.3h-582.3V207.9h2183.2zM22388.9 0v5610.9H21391V0h997.9zm-207.8 207.8V5403h-582.3V207.8h582.3zm2494.4 977.6h-602.9v3240.1h602.9v-769.8h997.9v1239l-540.6 716.2h-1517.7l-540.5-716.2v-4180L23615.3 0h1517.4l540.7 714.7v1240.4h-997.9v-769.8zm353.9-977.6l436.3 576.7v962.9h-582.3V977.6h-1018.6v3655.7h1018.6v-769.8h582.3V4825l-436.3 578h-1310.7l-436.2-578V784.4l436.2-576.7h1310.7zM28417.3 0l540.7 714.7v4180l-540.5 716.2h-1517.7l-540.5-716.2v-4180L26900 0h1517.4zm-103.4 207.8l436.2 576.7v4040.6l-436.2 578h-1310.7l-436.2-578V784.5l436.2-576.7h1310.7zm-1164.6 4425.5h1018.6V977.6h-1018.6v3655.7z" fill="#332b24"/><defs /></svg>