<svg xmlns="http://www.w3.org/2000/svg" width="578.91" height="204.094" viewBox="0 0 10443.2 3681.7"  shape-rendering="geometricPrecision" image-rendering="optimizeQuality" fill-rule="evenodd" xmlns:v="https://vecta.io/nano"><path d="M22039.4-4313.5h109088.797v109088.797H22039.4z" fill="#ccc"/><path d="M9808.8 1135.8h613.9V475.9l-344.5-455.4h-975.4l-344.5 455.4v1214.7l344.5 455.4h706v778.4h-436.5V2546h-613.9v659l344.4 456.3h975.5l344.4-456.3V1865.4l-344.4-456.3h-706V757.4h436.5v378.4zM635.2 20.5H21.3v3640.8h613.9v-874.2l426.6 874.2h691.5L803 1664.4 1772.7 20.5h-695.5l-442 762.9V20.5zm2271.3 0h-613.9V3205l344.4 456.3h975.5l344.4-456.3V20.5H3343v2903.9h-436.5V20.5zm2591.8 2903.9h-436.5v-2167h436.5v2167zM5767.7 20.5H4447.8v3640.8h1320l344.4-456.3V475.9L5767.7 20.5zm1449.3 0h-613.9V3205l344.4 456.3H7923l344.4-456.3V20.5h-613.9v2903.9H7217V20.5z" fill="#fff"/><path d="M9788.4 777.8h-395.6v610.8h695.8l354.7 469.9v1353.3l-354.7 469.9h-995.9L8738 3211.8v-686.3h654.8v378.4h395.6v-737.5h-695.7l-354.8-469V469L9092.7 0h995.7l354.8 469v687.2h-654.8V777.8zM654.9 707.2L1064.6 0h743.1L825.3 1665.4l959.5 2016.3h-736.7l-393.3-806.1v806.1H0V0h654.8v707.2zM518.5 136.3v1078.3l624.7-1078.3H1569L671.1 1658.5 1569 3545.3h-435.6L518.5 2285.1v1260.2H136.4v-3409h382.1zM2927 2903.8h395.6V-.1h654.8v3211.8l-354.7 469.9h-995.9l-354.7-469.9V-.1h654.8v2903.9zM2408.5 136.3h382.1v2903.9H3459V136.3h382.1v3029.8l-286.3 379.3h-860.1l-286.2-379.3V136.3zm3069.4 2767.5V777.7h-395.6v2126.1h395.6zM5777.9-.1l354.8 469v2742.8L5778 3681.6H4427.4V-.1h1350.5zm-67.8 136.4l286.3 378.4v2651.4l-286.3 379.3H4563.8v-3409h1146.3zm-95.9 2903.9V641.4h-668.4v2398.8h668.4zm1623.3-136.4h395.6V-.1h654.8v3211.8l-354.7 469.9h-995.9l-354.7-469.9V-.1h654.8v2903.9zM6719 136.3h382.1v2903.9h668.4V136.3h382.1v3029.8l-286.3 379.3h-860.1L6719 3166.1V136.3zm3301.6 0l286.3 378.4v505.1h-382.1V641.4h-668.4v883.5h764.2l286.3 379.3v1261.9l-286.3 379.3h-860.1l-286.2-379.3v-504.2h382.1v378.4h668.4V2030.1h-764.2l-286.2-378.4V514.8l286.2-378.4h860.1z" fill="#332b24"/><defs /></svg>