<svg xmlns="http://www.w3.org/2000/svg" width="692.735" height="265.285" viewBox="0 0 12895.2 4938.3"  shape-rendering="geometricPrecision" image-rendering="optimizeQuality" fill-rule="evenodd" xmlns:v="https://vecta.io/nano"><path d="M35357.398-18819.301H147926.5V93749.801H35357.398z" fill="#ccc"/><path d="M906.6 20v626.2h626.2V20H906.6zM229 20v626.2h626.2V20H229zm4448.1 0v626.2h626.2V20h-626.2zM655.6 1161.3H22.1v3286.1l355.4 470.9h1006.6l355.4-470.9V1161.3H1106v2996.6H655.5V1161.3zm2192.5 0h-601.9v3757h633.5v-1548l482.1 1548h601.9v-3757h-633.5v1548l-482.1-1548zm2255.7 0h-633.5v3286.1l355.4 470.9h1006.6l355.4-470.9V1161.3h-633.5v2996.6h-450.5V1161.3zm2235.5 0h-638l579.2 3757H7882l577-3757h-637.7l-242.5 1732.4-239.7-1732.4zm2196.6 1432.9v-672.5h450.5v672.5h-450.5zm450.5 2324.1h633.5V1631.2l-355.5-469.9H9257.9l-355.5 469.9v3287.1h633.5V3354.6h450.5v1563.7zm2228.4-2324.1h-450.5v-672.5h450.5v672.5zm633.5 290.5V1631.2l-355.5-469.9h-1362v3757h633.5V3354.6h175.6l295.4 1563.7h637.7l-312.3-1653.4 287.6-380.2zM5354.8 20v626.2H5981V20h-626.2z" fill="#fff"/><path d="M12190.4 2572v-630.3h-408.3V2572h408.3zM884.4 0h668.4v668.4H884.4V0zM206.8 0h668.4v668.4H206.8V0zm818.3 140.7v386.9h387V140.7h-387zm-677.6 0v386.9h387V140.7h-387zm328.1 3994.9h408.3V1139h675.7v3314.3l-366 484.9H365.9l-366-484.9V1139h675.7v2996.6zm-535-2855.8h394.3v2996.6h689.7V1279.8h394.3v3126.4l-295.4 391.4H436l-295.4-391.4V1279.8zm3167.3 1289.6V1139.1h675.7v3799.2H3345L2899.6 3508v1430.3h-675.7V1139.1h638.6l445.4 1430.3zm-549-1289.6l689.7 2214.7V1279.8h394.3v3517.8h-394.3l-689.7-2214.7v2214.7h-394.3V1279.8h394.3zM5332.4 0h668.4v668.4h-668.4V0zm-677.6 0h668.4v668.4h-668.4V0zm818.3 140.7v386.9h387V140.7h-387zm-677.6 0v386.9h387V140.7h-387zm328.1 3994.9h408.3V1139h675.7v3314.3l-366 484.9H4813.9l-366-484.9V1139h675.7v2996.6zm-535-2855.8h394.3v2996.6h689.7V1279.8h394.3v3126.4l-295.4 391.4H4884l-295.4-391.4V1279.8zm2989.2 1459.7l224-1600.4h680.7L7899 4938.3h-637.7l-585.7-3799.2h681L7578 2739.5zm-344-1459.7L7577 3760.5l347.2-2480.7h394.3l-540.3 3517.8h-396.3l-542.3-3517.8h394.3zM9555.7 2572H9964v-630.3h-408.3V2572zm408.3 802.6h-408.3v1563.7H8880V1623.1l366.1-483.9h1027.5l366.1 483.9v3315.2H9964V3374.6zm-943.3 1422.9V1670.2l295.4-390.5h887.5l295.4 390.5v3127.3h-394.3V3233.8H9415v1563.7h-394.3zM9415 2712.6h689.7v-911.7H9415v911.7zm3164.7 556.4l315.3 1669.2h-680.7l-295.4-1563.7h-137v1563.7h-675.7V1139h1393.6l366.1 483.9v1267.6l-286.3 378.4zm-149.8-1989.3l295.4 390.5v1173.2l-295.4 390.5 295.4 1563.7H12331l-295.4-1563.7h-394.3v1563.7H11247V1279.8h1182.9zm-98.9 1432.9v-911.7h-689.7v911.7h689.7z" fill="#332b24"/><defs /></svg>