<svg xmlns="http://www.w3.org/2000/svg" width="94.53" height="204.094" viewBox="0 0 255.2 550.9"  shape-rendering="geometricPrecision" image-rendering="optimizeQuality" fill-rule="evenodd" xmlns:v="https://vecta.io/nano"><path d="M4344.4-14034.9H20667v24484H4344.4z" fill="#d9dada"/><path d="M94.9 210.8v-97.5h65.3v97.5H94.9zm105.6 110.3L252 253V71.2L200.5 3.1H3v544.8h91.9V321.2h105.6z" fill="#fff"/><path d="M98 207.8h59.2v-91.4H98v91.4zm0 116.4v226.7H0V0h202.1l53.1 70.2V254l-53.1 70.2H98zm93.9-303.8L234.7 77v170.1l-42.8 56.6H77.6v226.7H20.4V20.3h171.5zM77.6 228.2h100V96h-100v132.2z" fill="#332b24"/><defs /></svg>