<svg xmlns="http://www.w3.org/2000/svg" width="697.754" height="204.094" viewBox="0 0 12087.1 3535.5"  shape-rendering="geometricPrecision" image-rendering="optimizeQuality" fill-rule="evenodd" xmlns:v="https://vecta.io/nano"><path d="M39928.301-21761.5h104755.5V82994h-104755.5z" fill="#ccc"/><path d="M11058.7 19.6h-589.5v3496.2h589.5V2060.7h419.2v1455.1h589.5V19.6h-589.5V1353h-419.2V19.6zM1030.4 1353H611.2V727.2h419.2V1353zm589.5 270.3V456.8L1289.1 19.5H21.7v3496.2h589.5V2060.6h163.4l274.9 1455.1H1643l-290.7-1538.6 267.7-353.8zm2170.9-896.1V19.6H2192.5v3496.2h1598.3v-707.6H2782.1v-747.5h550.4v-707.6h-550.4V727.3h1008.7zM4820.4 19.6h-560.1v3496.2h589.5V2075.3l448.6 1440.5h560.1V19.6H5269v1440.5L4820.4 19.6zm2518.2 1071h589.5V456.9L7597.3 19.6h-936.6l-330.8 437.3v1166.5l330.8 437.3h677.9v747.5h-419.2v-363.4h-589.5v632.8l330.7 438.2h936.8l330.7-438.2V1791.2L7597.4 1353h-678V727.2h419.2v363.4zm2069.6 121.7h589.5V456.9L9666.9 19.6h-936.6l-330.8 437.3v2620.7l330.7 438.2H9667l330.8-438.2v-754.5h-589.5v485h-419.2V727.2h419.2v485z" fill="#fff"/><path d="M11078.4 1333.4h379.9V0h628.8v3535.5h-628.8V2080.4h-379.9v1455.1h-628.8V0h628.8v1333.4zm-10069.6 0V746.9H628.9v586.5h379.9zm362.4 648.7l293.4 1553.3h-633.4L756.3 2080.3H628.8v1455.1H0V-.1h1296.9l340.7 450.4V1630l-266.4 352.1zM1231.8 130.9l274.9 363.4V1586l-274.9 363.4 274.9 1455.1h-366.9L864.9 1949.4H498v1455.1H131.1V130.9h1100.8zm-92 1333.4V615.9H498v848.4h641.8zm1662.1-717.5v586.5h550.4v746.9h-550.4v708.2h1008.7v746.9H2173V-.2h1637.6v746.9H2801.9zm877.8-616v485H2671v848.4h550.4v485H2671v970.1h1008.7v485H2304V130.7h1375.7zm1569.8 1200.1V-.1h628.8v3535.5h-594.2l-414.5-1331v1331h-628.8V-.1H4835l414.5 1331zM4738.6 130.8l641.8 2061v-2061h366.9v3273.6h-366.9l-641.8-2061v2061h-366.9V130.8h366.9zm2580.5 616h-379.9v586.5h668.1l340.6 451.3v1299.5l-340.6 451.3H6651l-340.6-451.3v-659h628.8v363.4h379.9v-708.2h-668l-340.7-450.4V450.2L6651.1-.2h956.2L7948 450.2v659.9h-628.8V746.7zm223-616L7817 494.2v485h-366.9V615.8h-641.8v848.4h733.9l274.9 364.2v1211.8l-274.9 364.2h-825.9l-274.9-364.2V2556h366.9v363.4h641.8v-970.1h-733.9l-274.9-363.4V494.2l274.9-363.4h825.9zm1846.6 616h-379.9v2041.6h379.9v-485h628.8v780.7l-340.6 451.3h-956.3L8380 3084.1V450.2L8720.7-.2h956.2l340.7 450.4v781.6h-628.8v-485zm223-616l274.9 363.4v606.7h-366.9v-485h-641.8v2303.5h641.8v-485h366.9v605.9l-274.9 364.2h-825.9l-274.9-364.2v-2546l274.9-363.4h825.9zm1335.8 0v1333.4h641.8V130.8h366.9v3273.6h-366.9V1949.3h-641.8v1455.1h-366.9V130.8h366.9z" fill="#332b24"/><defs /></svg>