<svg xmlns="http://www.w3.org/2000/svg" width="94.53" height="204.094" viewBox="0 0 186.8 403.2"  shape-rendering="geometricPrecision" image-rendering="optimizeQuality" fill-rule="evenodd" xmlns:v="https://vecta.io/nano"><path d="M6531.9-10273.1h11947.6v17921.4H6531.9z" fill="#d9dada"/><path d="M69.5 320.3V235h47.8v85.3H69.5zm0-166V82.9h47.8v71.4H69.5zm115 17V52.1L146.8 2.2H2.2v398.7h144.6l37.7-50V218l-17.7-23.4 17.7-23.4z" fill="#fff"/><path d="M71.7 318H115v-80.8H71.7V318zm0-166H115V85.1H71.7V152zm97.9 42.6l17.1 22.6v134.4l-38.8 51.5H0V-.1h147.9l38.9 51.4V172l-17.1 22.6zM140.4 14.9l31.4 41.4v110.6l-20.9 27.7 20.9 27.7v124.4l-31.4 41.5H14.9V14.8h125.5zM56.7 167h73.2V70.2H56.7V167zm0 166h73.2V222.4H56.7V333z" fill="#332b24"/><defs /></svg>