<svg xmlns="http://www.w3.org/2000/svg" width="697.482" height="204.094" viewBox="0 0 14152.9 4141.3"  shape-rendering="geometricPrecision" image-rendering="optimizeQuality" fill-rule="evenodd" xmlns:v="https://vecta.io/nano"><path d="M30916.199-10111.2h122707.102v122707.102H30916.199z" fill="#ccc"/><path d="M12862.4 23h-702l624 2123.1v1957.6h690.6v-1957l647.1-2123.8h-702.3l-286.5 936.5-270.8-936.5zM713.6 1584.9v-733h491v733h-491zm491 2533.4h690.6V535.2L1507.7 23H410.6L23.1 535.2v3583.1h690.6V2413.8h491v1704.5zM3103.4 23h-656.1v4095.3h690.6V2430.9l525.5 1687.4h656.1V23h-690.6v1687.4L3103.4 23zm3640.3 828.9V23H4871.5v828.9h590.4v3266.4h690.6V851.9h591.2zm1242.7 2437.5V851.9h491v2437.5h-491zM8780.5 23H7683.4l-387.5 512.2V3605l387.4 513.3h1097.3L9168 3605V535.2L8780.5 23zm1595.8 0h-656.1v4095.3h690.6V2430.9l525.5 1687.4h656.1V23h-690.6v1687.4L10376.3 23z" fill="#fff"/><path d="M13133.6 878.9L13402.5 0h750.4l-655.1 2150.2v1976.6h-736.6V2149.5L12129.5 0h750.1l254.1 878.9zM736.6 1562h445V875h-445v687zm445 874.9h-445v1704.5H0V527.6L399.1.1h1120l399.1 527.5v3613.8h-736.6V2436.9zM153.4 3988V579.1l322-425.6h967.4l322 425.6V3988H1335V2283.5H583.2V3988H153.4zm429.8-2272.6H1335V721.6H583.2v993.8zm3022.7-156.2V.1h736.6v4141.3h-696.1l-485.5-1559.1v1559.1h-736.6V.1h696.1l485.5 1559.1zM3007.5 153.4l751.8 2414.2V153.4h429.8V3988h-429.8l-751.8-2414.2V3988h-429.8V153.4h429.8zm3168.1 721.5v3266.4H5439V874.9h-590.4V0h1918.2v874.9h-591.2zM5002 153.4h1611.4v568.2h-591.2V3988h-429.8V721.6H5002V153.4zm3007.5 3113h445V874.9h-445v2391.5zM8792 0l399.1 527.5v3085.2l-399 528.6H7671.9l-399-528.6V527.5L7672 0h1120zm-76.3 153.4l322 425.6v2982.3l-322 426.6h-967.4l-322-426.6V579l322-425.6h967.4zm-859.6 3266.4h751.8V721.5h-751.8v2698.3zm3022.7-1860.7V0h736.6v4141.3h-696.1l-485.5-1559.1v1559.1h-736.6V0h696.1l485.5 1559.1zm-598.4-1405.8l751.8 2414.2V153.3h429.8v3834.6h-429.8l-751.8-2414.2v2414.2h-429.8V153.3h429.8zm2483.8 0l365.3 1263.3L13516 153.3h429.8l-601.4 1974v1846h-429.8v-1846l-580.2-1974h429.8z" fill="#332b24"/><defs /></svg>