<svg xmlns="http://www.w3.org/2000/svg" width="1295.785" height="204.094" viewBox="0 0 46684 7353"  shape-rendering="geometricPrecision" image-rendering="optimizeQuality" fill-rule="evenodd" xmlns:v="https://vecta.io/nano"><path d="M62485.699-59392.199h217867.703v217867.703H62485.699z" fill="#ccc"/><path d="M44545.2 40.9h-1226.1v7271.3h1226.1V4285.9h871.8v3026.3h1226.1V40.9H45417v2773.3h-871.8V40.9zM2138.7 2268.4h1226.1V950.5L2676.8 41h-1948l-688 909.5v5450.4l687.9 911.4H2677l687.9-911.4V2814.2H1375.7v1471.7h763.1v1554.6h-871.9V1512.7h871.9v755.7zm4312.8 545.8h-871.9V1512.7h871.9v1301.5zm1226.1 562.2v-2426l-688-909.5h-2636v7271.3h1226.1V4285.9h339.8l571.7 3026.3h1234.3l-604.5-3200 556.7-735.8zm2262.7-562.2V1512.7h871.8v1301.5h-871.8zm871.8 4498.1h1226.1V950.5l-688-909.5h-1948l-688 909.5v6361.8h1226.1V4286h871.8v3026.3zM14266.8 41h-1234.7l1121 7271.3h1164.2L16434.1 41h-1234.2l-469.3 3353-463.8-3353zM20752 1512.7V41h-3324v7271.3h3324V5840.6h-2097.9V4286h1144.7V2814.3h-1144.7V1512.8H20752zM22897.3 41h-1165v7271.3h1226.1v-2996l933 2996h1165V41h-1226.1v2996l-933-2996zm4365.5 5799.6V4286h871.8v1554.6h-871.8zm0-3026.3V1512.8h871.8v1301.5h-871.8zm2097.9 309.2V950.6l-688-909.5h-2636v7271.3h2636.2l687.9-911.4V3976.9l-322.8-426.7 322.8-426.7zm4304.4-1610.7V41.1h-3324v7271.3h3324V5840.7h-2097.9V4286.1h1144.7V2814.4h-1144.7V1512.9h2097.9zm3086.7 1301.5h-871.9V1512.8h871.9v1301.5zm1226.1 562.2v-2426l-688-909.5h-2636v7271.3H35880V4286h339.8l571.7 3026.3h1234.3l-604.5-3200 556.7-735.8zm3134.5-855h1226.1v-1571L41650.4 41h-1948l-688 909.5v5450.4l687.9 911.4h1948.3l687.9-911.4V4831.8h-1226.1v1008.8h-871.8V1512.8h871.8v1008.8z" fill="#fff"/><path d="M44586.1 2773.3h790.1V0H46684v7353h-1307.8V4326.7h-790.1V7353h-1307.8V0h1307.8v2773.3zM2097.9 1553.5h-790.2v4246.1h790.2V4326.7h-763.1V2773.3h2070.9v3641.2L2697.3 7353h-1989L-.1 6414.5V936.7L708.5.1h1988.6l708.6 936.6v1372.5H2097.9v-755.7zm463.8-1281.1l571.7 755.7v1008.8h-763.1v-755.7H1035.5V6072h1334.8V4054.5h-763.1V3045.7h1526.2v3277.6l-571.7 757.4H844l-571.7-757.4V1028.1L844 272.4h1717.7zm3844.8 2500.9V1553.5h-790.2v1219.8h790.2zm753.8 1349.1L7770.6 7353H6453.2l-571.7-3026.3h-265.1V7353H4308.6V0h2697.2l708.6 936.6V3390l-554 732.3zm-290-3850.1L7442 1028v2270.6l-571.7 755.7L7442 7080.6h-763.1l-571.7-3026.3h-763.1v3026.3H4581V272.3h2289.4zm-191.4 2773.3V1281.1H5344.1v1764.5h1334.8zm3302.4-272.3h790.1V1553.5h-790.1v1219.8zm790.1 1553.4h-790.1V7353H8673.5V936.6L9382.1 0h1988.6l708.6 936.6V7353h-1307.8V4326.7zm-1825.6 2754V1028.1l571.7-755.7h1717.7l571.7 755.7v6052.6h-763.1V4054.4H9709v3026.3h-763.1zm763.1-4035.1h1334.8V1281.1H9708.9v1764.5zm5022.1 51.8L15164.5 0h1317.4l-1129.4 7353h-1234.3L12984.6 0h1317.9l428.5 3097.4zm-665.7-2825.1l664.1 4801.1 672-4801.1h763.1l-1045.7 6808.3h-767L13302.2 272.3h763.1zm4629.8 1281.1v1219.8h1144.7v1553.4h-1144.7v1472.9H20793v1553.4h-3405.7V-.1H20793v1553.4h-2097.9zm1825.6-1281.1v1008.8h-2097.9v1764.5h1144.7v1008.8h-1144.7v2017.5h2097.9v1008.8h-2861.1V272.4h2861.1zm3268.9 2495.9V-.1h1307.8v7353h-1235.9l-862.1-2768.3v2768.3h-1307.8V-.1h1235.9l862.1 2768.3zM22727.1 272.3l1334.8 4286.4V272.3h763.1v6808.3h-763.1l-1334.8-4286.4v4286.4H21964V272.3h763.1zm4576.7 5527.2h790.1V4326.6h-790.1v1472.9zm0-3026.3h790.1V1553.4h-790.1v1219.8zm1785.5 776.7l312.4 413v2451.5l-708.4 938.5h-2697.4V-.1h2697.2l708.6 936.6v2200.4l-312.4 413zm-531.6-3277.6l571.7 755.7v2017.5l-381.6 504.4 381.6 504.4v2268.9l-571.7 757.4h-2289.4V272.3h2289.4zm-1526.2 2773.3h1334.8V1281.1h-1334.8v1764.5zm0 3026.3h1334.8V4054.4h-1334.8v2017.5zm4576.7-4518.5v1219.8h1144.7v1553.4h-1144.7v1472.9h2097.9v1553.4h-3405.7V-.1h3405.7v1553.4h-2097.9zm1825.6-1281.1v1008.8h-2097.9v1764.5h1144.7v1008.8h-1144.7v2017.5h2097.9v1008.8h-2861.1V272.4h2861.1zm3273.1 2500.9V1553.4h-790.2v1219.8h790.2zm753.8 1349.1l610.3 3230.6h-1317.4l-571.7-3026.3h-265.1v3026.3H34609V-.1h2697.2l708.6 936.6v2453.4l-554 732.3zm-290-3850.1l571.7 755.7v2270.6l-571.7 755.7 571.7 3026.3h-763.1l-571.7-3026.3h-763.1v3026.3h-763.1V272.2h2289.4zm-191.4 2773.3V1281h-1334.8v1764.5h1334.8zm4092.5-1492.1h-790.1v4246.1h790.1V4790.7h1307.8v1623.7l-708.4 938.5h-1989l-708.4-938.5V936.6L39682.4 0H41671l708.6 936.6v1625.6h-1307.8V1553.4zm463.8-1281.1l571.7 755.7v1261.8h-763.1V1281h-1334.8v4790.8h1334.8V5063h763.1v1260.1l-571.7 757.4h-1717.7l-571.7-757.4V1027.9l571.7-755.7h1717.7zm2778.2 0v2773.3h1334.8V272.3h763.1v6808.3h-763.1V4054.3h-1334.8v3026.3h-763.1V272.3h763.1z" fill="#332b24"/><defs /></svg>