<svg xmlns="http://www.w3.org/2000/svg" viewBox="0 0 88.7 297.6"  xmlns:v="https://vecta.io/nano"><g fill-rule="evenodd"><path d="M71.5 233.4h17.2v64.2H0v-64.2h17.2V85.5H0V57L37 0h34.5z" fill="#332b24"/><path d="M65.9 5.6V239h17.2v53H5.6v-53h17.2V79.8H5.6V58.6l34.5-53z" fill="#ba122b"/></g><path d="M44.4 244.9c5.6 0 10.7 2.3 14.4 6s6 8.8 6 14.4-2.3 10.7-6 14.4-8.8 6-14.4 6-10.7-2.3-14.4-6-6-8.8-6-14.4 2.3-10.7 6-14.4c3.6-3.8 8.7-6 14.4-6zm0-.9c5.9 0 11.2 2.4 15 6.2s6.2 9.2 6.2 15c0 5.9-2.4 11.2-6.2 15s-9.2 6.2-15 6.2-11.2-2.4-15-6.2-6.2-9.2-6.2-15c0-5.9 2.4-11.2 6.2-15s9.1-6.2 15-6.2zm14.8 6.5c-3.8-3.8-9-6.1-14.8-6.1s-11 2.3-14.8 6.1-6.1 9-6.1 14.8 2.3 11 6.1 14.8 9 6.1 14.8 6.1 11-2.3 14.8-6.1 6.1-9 6.1-14.8-2.4-11-6.1-14.8zm-1.2 0c-3.6-3.3-8.4-5.3-13.6-5.3-.5 0-1 0-1.5.1l-2.2.3h-.1c-4 .8-7.6 2.7-10.4 5.5-1.5 1.5-2.8 3.3-3.8 5.3-2.2 4.4-2.7 9.5-1.3 14.3 0 .1 0 .2.1.3a17.53 17.53 0 0 0 3.2 6.4l.1-.1c.9-1.4 2.6-1.6 3.6-1.9.1 0 .3-.1.6-.1 1.2-.2 2.4-.5 3.4-1.3.2-.4.7-.6 1-1 0 .1-.1.2-.2.3h.1c.1 0 .3-.1.3-.2l-.1-.1c.2-.2.2-.5.3-.7h0c0 .2-.1.5-.2.7h0c.2-.1.1-.3.3-.4 0 .2-.2.4-.2.6h.1c.1 0 .2 0 .2-.2.2-.5.7-.3 1.1-.3.6-.4 1-1 1-1.7.2.2 0 .4 0 .6 0 .1-.2.2-.2.3.2-.1.3-.4.3-.6.1-.1 0-.3 0-.4.1 0 .1.1.1.1.3-.1 0 .3.3.3 0 .4-.3.7-.5 1-.1.1-.3.3-.4.2-.2.2-.6.2-.5.6 0 .1.1.2.1.3-.1-.1-.2-.3-.2-.5-.1.1-.1.2-.1.3s.1.3.1.4c-.2-.1-.2-.4-.2-.6 0-.1.1-.2.2-.3h-.2c-.2.4-.1.9 0 1.2a1.93 1.93 0 0 1-.3-1v.1c-.1.5.1.9.3 1.2h-.1c-.3-.3-.3-.8-.4-1.2-.1.5.2 1 .3 1.4h-.1c.1.4.7.7.9 1.1-.1.1.1.3.1.5v1c0-.2.1-.4.1-.5h.1c-.1.5.1.9 0 1.4.1.3.3.5.3.8h-.1l-.4-1-.1-.1c-.2-.5-.1-1.1-.1-1.6l-.3-.5c-.8-.6-1.5-1.4-1.5-2.4-.3-.2-.5.2-.8.2-.4-.2-.4.4-.6.5-.7.5-1.4.8-2.2 1-.3.2-.8-.1-.8.4-.1 1.7.7 3 1.8 4.3.4.5.4 1.3.8 1.8-.1-.5-.4-.9-.5-1.3h0c.2.4.4.9.6 1.4-.1.2.1.3.2.4 0-.1-.2-.3-.1-.4.1.1.2.2.2.3h.1c.3.7.8 1.4 1.3 1.9 0-.1-.1-.1-.1-.2.2.2.3.4.5.6v.1c-.1 0-.1-.3-.3-.2-.4-.4-.7-.9-1-1.3.1.3.3.4.4.7.2.3.5.7.9.8 1 .3 1.9.7 3 .8v-.2c0 .5.5.3.8.4 1-.6 2.1-1.4 3-2.1v.1c-.8.9-1.8 1.4-2.7 2.1.5.1.9-.3 1.3-.6.5-.3 1-.7 1.5-1.2 1.5-1.3 2.7-2.8 4-4.2.3-.2.3-.6.6-.7 0 0 .1 0 .1.1-1.3 1.6-2.7 3.1-4.1 4.5-.9.7-1.6 1.5-2.6 2.1v.1c.3 0 .5.1.8 0 .7-.6 1.5-1.1 2.2-1.8.1 0 .1-.2.2-.1-.7.8-1.5 1.3-2.2 1.9.2 0 .3-.2.5-.3.4-.3.8-.7 1.2-1v.1c-.4.5-.9.9-1.4 1.2.4-.1.6-.4 1-.7h.1c-.2.3-.5.5-.7.7.3 0 .6 0 .9-.1l1.3-1.3c-.3.5-.8.9-1.2 1.3h.1l.8-.8c.1-.1.2-.1.2-.2l.8-.9h.1c-.5.7-1 1.2-1.5 1.8h.1c.5-.4.8-.8 1.2-1.3 0 0 .1 0 .1.1-.3.4-.6.8-.9 1.1v.1c.2-.1.4-.3.6-.5.1.1-.1.3-.2.4h.2c.1-.2.2-.4.4-.5a.76.76 0 0 0-.2.4c.2-.2.5-.6.7-.9h0c-.1.3-.4.5-.5.8h.1c.4-.5.8-1 1.1-1.5h0c-.2.5-.6.9-.9 1.4v.1h.2c.4-.5.7-1.1 1.1-1.6h0l-.9 1.5h.1l.6-.9s.1-.2.1-.1c-.1.3-.3.6-.5.9.2 0 .4-.1.6-.1.5-.8.9-1.5 1.2-2.4h0c-.1.7-.5 1.3-.8 1.9 0 .2-.2.3-.2.5h0c.5-.7.8-1.5 1.1-2.3v.1c-.1.8-.5 1.5-.9 2.2h0c.2-.2.4-.6.5-.9s.1-.6.3-.8h0c-.1.6-.3 1.1-.6 1.5h.1c.3-.2.3-.6.4-.9s.1-.6.3-.9c0 .6-.3 1.1-.4 1.7h.1 0 .1c.3-.6.5-1.2.5-1.9 0-1.2 0-2.4-.3-3.6-.3 0-.5-.1-.7-.3s-.4-.4-.4-.7.1-.7.4-.9c.8-.4 1-1.3 1.3-2 .1-.2.1-.5.3-.6h.1c-.1.8-.6 1.6-1 2.2.2-.1.4 0 .7.1.1 0 .2.2.3.1.3-.2.7-.5 1-.7.6-.6 1.3-1 1.6-1.8 0-.4-.4-.7-.7-1-.2-.1-.2.2-.4.3-.2.2-.5.2-.7.2-.1 0-.2-.2-.3-.1-.2.4-.6.8-1.1.9-.3 0-.6.1-.8-.2.2-.2.5.1.7 0 .4-.1.6-.5.9-.8 0-.3.1-.6.4-.9.2-.1.3-.3.6-.2.2.1.2.2.2.4-.1.1-.1.4-.3.4-.1 0 0-.1-.1-.2-.1 0-.1-.1-.2 0l.1.1c.1.1 0 .2 0 .2h0c-.1 0-.1-.2-.2-.2v.2c.1.1.1.3.3.3s.4 0 .6-.2c.2-.3.2-.6.2-1 0-.2-.1-.4-.3-.4-.7-.2-.7.6-1.1 1s-.9.9-1.6.7c-.2-.1-.3-.3-.3-.4-.7-.3-1.2.5-1.7.8-.1.2-.2.5-.1.8.1 0 .2-.2.3-.3.3-.5.9-.5 1.2-.9.1-.1 0-.2.1-.3.1 0 .1 0 .1.1.1.2 0 .4-.2.5.2.2-.3.2-.1.4 0 0-.1 0-.1.1.1.2-.2.1-.1.3-.1 0-.2.3-.3.2-.2.1-.3 0-.4-.1 0 .1-.1.3 0 .4s.1.3.3.3.5-.1.6-.2.1-.2.2-.3c.1.1.1.2 0 .3.2 0 .1-.2.3-.2 0 .1-.1.2-.1.3-.3.2-.6.6-1.1.4a3.04 3.04 0 0 1-.5-.7c-.2-.1-.5-.2-.6-.5-.2-.2-.1-.6 0-.8-.3 0-.6 0-.9-.1-.7-.3-.8-1-.8-1.6.1-.1-.3-.2 0-.2.3.5.1 1 .5 1.4.2 0 .4.3.6.1.1 0 .2.1.3.2l.1-.1c.1.1.3.1.4.1.3.1 0 .2 0 .4s-.1.5.1.6c0-.4.3-.8.7-.9-.3 0-.6-.1-.7-.3h0c.6.3 1.2-.1 1.7-.1l-.7-.2c-.2.1-.5.2-.8.2-.1 0-.3-.1-.2-.2-.2-.2-.4-.4-.4-.7v-.4c-.2 0-.5-.3-.6 0l.1.1c0 .2.1.5-.1.7h0c.1-.3-.2-.6-.1-.8-.2-.1-.5-.1-.7-.1-.1 0-.2.1-.2.2h-.1c0-.1.2-.2.2-.3-.3 0-.3.3-.3.4-.1-.1-.3-.1-.3-.2-.1-.2.1-.3.2-.4.4-.3.8.1 1.3.2 0-.1 0-.2.1-.3.2-.1.2.2.3.3.2.1.4.2.5.2-.1-.1-.3 0-.5-.2 0 0-.1-.1 0-.1.2.2.5.1.7.1.5-.2.9-.7 1.1-1.2.1.1.1.4.2.3.1 0 .1.1.1.1-.1 1.2 1.5 1.2 1.6 2.3v-.3c0-.1-.2-.2-.1-.3.3.1.2.6.3.8.1-.1 0-.3.1-.4 0-.1-.1-.3-.1-.4.3.2.3.6.3.9.1-.2.1-.5.1-.7s-.2-.3-.1-.5c.2.1.3.4.4.7v-.5c0-.1-.2-.2-.1-.3.1 0 .3.1.3.2 0-.1-.1-.1-.1-.2v-.1c.1-.1.2 0 .2.1.1-.2 0-.5-.1-.7 0 .2.1.3 0 .4-.1-.1-.1-.4-.2-.4 0 .1.1.3 0 .4-.2 0-.1-.2-.2-.3-.1 0 .1.3-.1.3a.55.55 0 0 0-.3-.5c0 .2.2.4 0 .5-.1-.3-.2-.7-.6-.7v.3c0 .1 0 .2.1.3 0-.1 0-.3.1-.4v.2h.1c0 .1.1.2.1.4-.2 0-.1-.2-.1-.3 0 .2.1.5.2.7 0 0 0 .1-.1.1-.4-.8-1.6-.8-1.6-1.8-.1 0-.1-.1-.1-.2 0 0-.1.1-.2.1-.1-.2.2-.3.2-.5.1-.1.3-.1.4-.2-.1-.1-.2-.2-.4-.2-.8-.1-1 .6-1.4 1.1-.4.6-1.3.4-1.9.3-.1 0 0-.1 0-.1.4 0 .8 0 1.2-.3.1 0 .1-.1 0-.2-1 0-2.1-.3-2.5-1.3-.1-.2-.3-.3-.3-.5.1-.2-.2-.3-.2-.5h.1c0-.2-.2-.3-.2-.5h0c.5.7.8 1.4 1.4 1.9-.2-.1-.5-.2-.6-.4h0c.3.5.9.7 1.4.9.4.1.8 0 1.1.2.1-.1.3-.3.3-.5-.5.1-1-.1-1.4-.4h0c.4.3.9.4 1.4.3.2 0 .4-.1.5-.2h-.9c-.7 0-1.1-.5-1.6-.9l-.1-.2c-1.5-1.6-3-3.4-4.7-5h-.1c0 1.1.8 1.9 1.6 2.6.1 0 0 .1 0 .2-.3-.2-.6-.4-.9-.7h-.1c-.1.2.2.3.2.5.2.5.8.9 1.3 1.2l.1-.3c-.1-1.2-1.9-1.8-1.8-3.1h.1c.1.4.3.7.6 1 .4.6 1.2.9 1.4 1.7 0 .3.1.6-.2.8.4.3.8.8 1.1 1.2v-.2a1.38 1.38 0 0 1 .3.4c-.1.1-.1-.1-.2-.2.1.6.5 1 .9 1.4 0 .2.3.3.4.4h0c-.4-.1-.6-.4-.9-.7s-.3-.7-.5-.9v.1c0 .1-.1.3 0 .4h.1c.2 1 1.1 1.7 1.9 2v.1h-.2c-.7-.2-1.4-.9-1.7-1.6h0c.1.1 0 .3 0 .4.2-.2.1.1.3.2-.1.1-.1.2-.2.3.2.1.1-.3.3-.3 0 .1-.1.4-.1.5v-.1l-.1-.1c-.2.1.1.2.1.4-.1.2 0 .4-.2.6v-.5l-.1.2c-.1.1-.1 0-.1 0-.1 0-.1-.1-.3-.1l-1.3-.8c-.1.1 0 .2.1.3-.1 0-.2 0-.3-.1-.2.1.1.3-.2.3v-.1.1c.2.2-.3.1-.1.4-.6-.2.1-.7-.2-1 .2 0 .1.3.3.2 0-.1-.1-.2-.1-.3.1.1.1.3.2.4h0c.1-.1-.1-.1-.1-.2.1-.1 0-.4.2-.5.1.1-.1.1 0 .1.1-.1.1-.4.3-.4-.1.3-.3.6-.2.9.1 0-.1-.3.1-.3.1-.3.4-.7.3-1 0 .1 0 .2-.1.2l-.1-.1c-.1.1-.1.3-.2.3.1-.3 0-.6.2-.8.1 0-.1.2.1.3.1-.1 0-.3.1-.4.1.1 0 .4.1.4 0-.2 0-.4.2-.6h0c-.1.2-.1.5 0 .6v-.4c.1-.1.2-.3.3-.3.1.1.1.3.1.4-.1-.1 0-.2-.1-.3h0c-.1.1-.1.2-.1.4a.76.76 0 0 0 .2.4c.2.1.5 0 .6-.2s.1-.4.1-.6c-.1.1 0 .3-.1.4-.1-.2.1-.5.1-.7-.5-.9-1.6-.9-2.1-1.8-.1-.3-.4-.8-.1-1.1-.3-.4-.6-.8-.6-1.4-.1-.2.1-.6-.1-.7-.2.7 0 1.6.6 2.1v.1c0 .1-.1.1-.2 0v.2s.1-.1.2 0c-.1.3.1.5.1.7.2.6.7.8 1.2 1.2-.1.2-.1.5-.2.7 0 0-.1.1-.2 0 .1-.2.3-.5.2-.8-.1.1 0 .2-.1.3s-.1.4-.4.4c0-.1.1-.1.1-.2-.2.2-.3.3-.5.4-.3.5-1 .7-1.1 1.3 0 .2 0 .5.2.6.1 0 .2.1.2 0-.1-.1-.2-.2-.2-.4 0-.4.2-.6.5-.8.1 0 .2-.2.3-.1-.2.1-.4.3-.5.5s-.1.5.1.6c-.1-.6.4-1 .9-1.3.1 0 .2-.1.3 0l-.1.1c-.3.2-.7.5-.8.9 0 .2-.2.5.1.5-.1.1-.2.4-.5.3-.2 0-.3-.2-.4-.4-.2-.4.1-.9.5-1.2.3-.3.7-.5.9-.9v.1c.3-.1.4-.5.3-.7 0-.1 0-.3-.2-.3-.1.2-.2.5-.5.6-.1.1-.3.3-.4.1.1-.1.2-.1.3-.2.2-.2.5-.5.5-.8-.2.4-.7.9-1.1 1-.2.1-.3.2-.3.4.1.1.1.2.2.2s0-.1 0-.2h.2l.1.1c-.2.1-.2.4-.5.4-.2 0-.3-.1-.4-.3-.3-.9 1-1 1.3-1.7 0-.2.2-.4.1-.5 0 .3-.2.6-.4.9-.1 0-.1.2-.2.1.2-.2.4-.5.4-.8-.1.2-.2.4-.4.6h-.1c.2-.2.5-.6.3-.9 0-.3.1-.6 0-1v.1c.1.1 0 .2 0 .3 0 .4-.3.6-.3 1l.2-.2c.1-.1-.1-.2.1-.2.1.2 0 .4-.1.5-.2-.1-.2.3-.4.4 0 .3-.3.4-.5.5-.1.3-.4.7-.1 1v-.4c0-.1.1-.3.2-.3.1.1-.1.1-.1.2-.1.2 0 .4.1.5 0 .1-.1.1-.1.1-.1.1-.2 0-.3-.1v.1c-.2 0-.2-.3-.3-.4 0-.2 0-.5.1-.6h-.1c-.2.4-.2.9 0 1.3-.1.1-.1-.1-.2-.1-.3-.4-.1-.8.1-1.2h-.1c-.3.3-.2.7-.2 1.1.1.2.2.4.4.4l-.4.6c-.1.4-.2.9.1 1.2-.1.1-.2.1-.3.1-.3-.1-.3-.6-.4-.8h.1c.1-.3.1-.6.4-.8h0c-.2.3-.3.7-.3 1.2 0 .1.1.3.2.3-.1-.2-.1-.4-.2-.7 0-.5.3-.8.5-1.1-.5-.1-.5-.8-.5-1.1-.1.2 0 .5 0 .8h-.1c-.2-.3-.2-.7-.1-1.1-.3.2-.2.9-.1 1.2h-.1c-.2-.2-.2-.6-.2-.9-.2.2-.1.5 0 .7h0c-.1-.1-.1-.2-.1-.3-.1-.4.4-.5.4-.9-.1.1-.3 0-.3.1h.1c-.4.3-.3.9-.2 1.3h0c-.2-.3-.2-.8 0-1.1H38c-.2.3-.1.6-.1 1 0 .2.2.3.4.3l-.1.1c-.2.1-.3-.1-.4-.2-.2-.4-.1-.8.1-1.2h0s0 .1-.1.1c-.1.3-.1.7 0 1-.2 0-.2-.2-.3-.3-.1-.2 0-.3 0-.5-.1.1-.1.4 0 .5 0 .1-.1 0-.1 0-.3-.2 0-.6 0-.9 0 0 0-.1-.1-.1 0 0-.1 0-.1.1 0 0 .1 0 .1.1-.2.1-.2.3-.2.4-.1-.1 0-.3 0-.4h0c-.1.1-.2.2-.2.3-.2 0 0-.3 0-.3-.2 0-.1.2-.2.3h-.1v-.3c-.2 0-.2-.2-.4 0-.2.1-.1.4-.1.6 0 .1.2.2 0 .2-.2-.1-.2-.3-.2-.5-.1 0-.3-.1-.2-.3-.1.1 0 .3-.2.3v.5c0 .1-.1 0-.1 0-.2-.3.1-.6.2-.8 0-.1-.1-.1-.1-.1-.2.2-.2.6-.1.9l-.3.3c.2 0 .4 0 .5-.1 0 .1-.2.1-.2.2.2 0 .3-.1.5 0l-.2.2c.3 0 .6-.2.9-.4h0c-.3.5-1 .3-1.3.9-.1.1.1.4-.2.4v.2c-.3-.1 0-.4 0-.6-.2.1-.2.3-.3.5h-.1c0-.2.1-.4.2-.5-.1.1-.3.2-.3.4h-.1c.1-.2.2-.4.3-.5-.1.1-.2.1-.3.2s0 .3-.2.2c.1-.4.6-.7.8-.7-.3 0-.5.2-.7.3-.1 0-.1.2-.2.2.1-.3.4-.5.7-.6-.3 0-.5.2-.7.3h0l.3-.3c-.3.1-.7.1-.9.3-.1-.2.3-.3.4-.4-.2-.1-.3 0-.5 0 0 .1 0 .1-.1.2-.1.3-.3.6-.1.9h0c0-.1 0-.2.1-.2v.3c-.2 0-.1.2-.1.3-.1 0-.1-.1-.2-.1-.2-.3-.1-.8.1-1.1.4-.7 1.2.2 1.7-.5h-.1c-.1-.1-.2-.3-.1-.5 0-.3.3-.5.3-.8.3-.9-.7-1.4-.5-2.3.1 0 .1 0 .1.1v-.2c0 .1-.1.2-.2.3-.2.1-.4 0-.6-.1-.2.2.1.2.1.4.1-.1.2.1.2.2h.1c0 .2.3.1.2.3 0 0 0 .1-.1 0l-.1.1c-.2-.1-.3-.2-.5-.3-.1.1 0 .3 0 .4.3.1.7.4.7.6 0 .1-.1.3-.2.3-.2 0-.7-.1-.9.1-.1.1-.2.3-.1.4.1-.1.1-.3.3-.4.1 0 .2-.1.3 0-.1.1-.3.1-.3.3 0 .1-.1.2 0 .3v-.2c.1-.1.2-.3.3-.3.1.1-.1.1-.1.3-.1.1-.1.2 0 .3 0-.1 0-.3.1-.3h.1c0 .1 0 .1-.1.1 0 .1 0 .2.1.3.1-.1-.1-.2.1-.2h.1c-.1.1.1.2 0 .3-.1-.1-.3.1-.4-.1-.3.2-.5-.2-.9 0-.2.1-.4.3-.5.5h.1c0 .1-.2.1-.1.3h.1v.2l.1-.2c.1 0 0 .1 0 .1 0 .1-.1.2 0 .3l.1-.1c0 .1 0 .3.2.2v.2c-.2-.1-.4-.3-.6-.2-.1.1-.1.3-.1.5 0-.1 0-.2.1-.3.1.1 0 .2 0 .3-.1.4.3.3.4.5v.3c-.2 0 0-.2-.2-.3-.1-.1-.4-.2-.5 0-.1.1-.1.3-.1.4.1.1.1.3.3.3 0-.1-.1-.2-.1-.2.1 0 .1.2.2.2v-.2h.1c.4.3.1 1 .6 1.1 0-.3-.1-.7-.4-.9h.1c.1.1.2.2.2.4.2.2.1.5.3.7.2.1.4.2.5.1l-.3-.1c-.2-.2-.1-.4-.2-.6.1.1.1.3.3.5.1 0 .2.2.3 0-.1 0-.2 0-.2-.1.1-.1.2 0 .3 0 0 0-.1.1 0 .1.2 0 .3-.4.5-.2 0-.1.1-.3.2-.5h0c-.1.3-.1.5-.1.7.1 0 0 .1 0 .1 0 .1-.1.1-.1.1v.1c.1.2.3.3.4.3 0 .1 0 .1-.1.2-.1.2 0 .4.1.5-.1-.2 0-.3.1-.4h0c0 .2.1.3.2.4-.1 0-.3.3-.4.1s-.2-.4-.1-.6h-.1a.55.55 0 0 1-.3-.5c-.1 0-.1.1-.2.1-.3.2-.6-.1-.9-.1-.4-.1-.6-.4-.7-.8-.2-.1-.4 0-.5-.2-.2-.3-.2-.6-.1-.8.1-.1.2-.1.1-.2-.2-.2-.2-.5-.1-.8 0-.2.3-.2.3-.5.1-.4.3-.8.7-.9.1-.1 0-.3 0-.3 0-.4.2-.5.4-.6h.8c.1 0 .1-.1.1-.2-.1-.2-.7-.3-.7-.5-.1-.1 0-.8 0-1.3-.1 0-.2-.1-.3 0-.2.1-.4 0-.5-.1-.5-.7.8-1.3 1.1-2 .4-.6 1.1-1.1 1.4-1.8.1-.4.1-.7.3-1.1-.7-.6-1.6-1.4-2.3-2.1s0-1 0-1c.5-.2.9-.4 1.4-.6.8-.3 1.6-.6 2.4-.8l.3-.5c.5-.5 1.2-.4 1.8-.6.6-.3 1.3-.3 1.9-.5.3-.1.6 0 .7-.4 1.2-.2 2.4-.4 3.5-.8.2-.2.4-.6.8-.6 1.1.2 2.4.2 3.6.3.4-.1.8-.3 1.2-.1.6.3 1.1.8 1.2 1.4.3.7 1 1.2 1.7 1.2.5 0 0-.4 0-.8 0-.5.4-.9.9-1.1 1-.4 2.3-.2 3.2.2 2.1 1 3.1 3.3 3.1 5.6 0 1.3-.4 2.6-1 3.7-.5 1.3-1.9 2.8-2.8 3.3-.2.1-.4.2-.7.4h5.6v6.6c0 .9-.3 1.7-.9 2.3s-1.3.9-2.1 1h0-.4c-.8 0-1.5-.4-2.1-1s-.9-1.4-.9-2.3v-6.2c-.2.1-.3.1-.4.1-1.1.4-2.5.4-3.7.2-.2.2-.4.3-.7.5-.2.3.2.6.3 1 0 .2.1.4 0 .5-.1.3.1.6.3.8.5.4.8 1 .8 1.7.2 0 .4 0 .6.2s.2.2.3.4a1.1 1.1 0 0 1 0 .8c-.1.1 0 .1.1.2l.8.8c.2.3.4.6.7.8.1.1.5.6.6.9.2.6 0 1 .4 1.2.3.2 1.2 1.5 1.7 2.3.1.1.1.4.2.5l.5-.5c1.8-1.8 3.2-3.8 4.2-6.2.5-1.1.9-2.3 1.1-3.5l.1-.3c1.1-4.8.2-10.1-2.2-14.3-.2-.3-.3-.6-.5-.8-.4-.6-.8-1.2-1.2-1.7h0l-.1-.1c0-.9-.6-1.5-1.3-2.2h0zm-27.2 29.6c.5.5 1.1.9 1.7 1.4.5.4 1 .7 1.6 1 .4.2.8.5 1.3.6-.3-.6-.7-1.2-.8-1.9-.2-1-1-1.7-1.6-2.5-.5-1-1-1.9-.9-3H32c-.6.1-1.2.3-1.8.5-.6.3-1.3.7-1.6 1.4.1.2.2.3.3.5.2.2.4.5.6.6l-.5-.9c.3.4.5.9.7 1.3.3.3.7.6 1.1 1h0zm19.8 4.3h0c.4-.5.4-1.3.6-1.9.1-.8 0-1.7 0-2.5-.2-.2 0-.5-.2-.8 0-.1-.1-.2 0-.3.1 0 .1.1.3.2.8 1.4.8 3.1.8 4.7h.1c.3-.1.6-.3.9-.4-.1-1.2-.5-2.3-1-3.3 0-.3-.3-.2-.4-.4 0-.1.2 0 .2 0-.1-.1-.3-.1-.4-.2l.1-.1c-.1-.1-.2 0-.2-.2h.2c-.1-.1-.3-.1-.3-.2h.2l-.3-.1c-.1-.1.1-.1.1-.2l-.5.2c.3 1.7.5 3.9-.2 5.5h0zm.6-.2h0c.2-.2.2-.4.3-.6.1.1 0 .2.1.3v-.1c.1-.1.2.1.2.1v-.1l.1.1c0-.1-.1-.2-.2-.3 0 0 .1-.1.1 0 0 0 0-.1-.1-.1v-.1c.1 0 .1.1.2.1l-.2-.4s.1-.1.1 0c0-.1-.2-.2-.1-.2s.2.2.2.2c0-.2-.2-.3-.3-.5.2-.1-.1-.2.1-.3-.1-.1-.1-.2-.2-.2-.1.3 0 .8-.2 1.1.1.3 0 .6-.1 1h0zm2.1-.9h0c.1-.1 0-.2.1-.2l.1.1h.1c0-.6-.2-1.2-.3-1.8 0 0 .1 0 .1.1.2.5.3 1.1.4 1.6h0c0-.5-.1-1-.2-1.5h0l.1.1c.2.4.2.9.3 1.4h.1c0-.4-.1-.8-.1-1.1.2.3.1.7.2 1.1h0c.1-.3 0-.7 0-1v-.1c.1.3.2.6.2 1h0c.1 0 .2-.1.2-.1s.1 0 .1-.1c-.1-.3-.1-.5-.1-.8h0c.1.2.1.6.1.8l.2-.1c.1-.4-.1-.8-.1-1.2.2.3.2.7.3 1.1h.1c.1-.1 0-.4 0-.5 0-.3-.2-.5-.1-.8.2.2.2.7.2 1 .1 0 0 .2.1.3h.1c0-.5 0-.9-.2-1.4h.1c.2.4.3.8.3 1.2h.1l-.1-.9c0-.2-.2-.5-.2-.7.2.1.2.3.2.5.1.3.1.7.2 1.1h0c.1-.5-.1-1-.1-1.6.2.1.1.3.2.5 0 .2 0 .5.1.6l.1-.1c0-.1-.1-.1-.2-.2 0-.1.1 0 .1-.1 0-.5-.2-1-.2-1.4.1 0 .1.1.1.1.1.4.2.8.3 1.3h.1c0-.1-.1-.2-.1-.3.1-.3 0-.5-.1-.8h0c.1.1.1.3.2.4.3-.1.6-.3.9-.5l.1-.1-.6.4c-.1 0-.2.2-.3.1.3-.2.6-.4.8-.6-.2.1-.4.2-.5.3-.1 0-.1-.1-.1-.1.1-.1.3-.2.4-.3-.2.1-.3.2-.5.2.1-.2.4-.2.4-.4-.1 0-.2.2-.4.2-.1-.2.3-.2.3-.4-.1 0-.2.1-.2.1-.2-.1.1-.1.1-.3-.1-.2-.1.1-.2.1s-.1-.1-.1-.1c-.2-.5-.6-.9-.8-1.4.3.2.5.5.6.8h.1a4.44 4.44 0 0 0-.8-1.1c-1 .6-2.1.9-3.2 1.1a.76.76 0 0 1-.4.2c-.1.1-.3.3-.3.4.8.7.9 1.8 1.3 2.7.1-.2.1.6.3 1.2h0zm2.7-1.6l.1-.1c0-.2-.2 0-.1.1h0zm.3-.2h0 0zm1-.8c.1-.1.3-.2.4-.4h0c-.3.2-.6.4-.9.5 0 0-.1.1 0 .1s.3-.1.5-.2h0zm-10.2-19.3l-.2.5a1.9 1.9 0 0 1 .3-.9c0 .1-.1.3-.1.4h0zm2.6-.6c-.1 0-.1-.1 0 0v-.2.2zm1.2.8c-.1 0-.3-.1-.3-.3h0c.1.1.3.2.3.3h0zm1.9-1c0 .2-.1.4-.1.6-.1 0-.1-.2-.1-.3.1.1.1-.2.2-.3h0zm.2 1.4l-.2-.4h.1l.1.4zm.3-.9v-.1.1zm.1-.4c0 .1 0 .1-.1.1h0c.1 0 0-.1.1-.1zm-3.1 7.4c.1.1.1.2.1.3-.4-.2-.9-.4-1.4-.5.1-.1.3 0 .5 0 .3 0 .5.3.8.3-.4-.3-.8-.5-1.3-.5.1 0 .4 0 .5.1.3 0 .6.1.8.3h0zm-.8-1.5c-.1 0-.2 0-.2-.1-.1 0 .1 0 .2.1-.1 0 0 0 0 0h0zm-1.8-1.5s-.2-.3-.4-.4c-.2-.2.8 1.2 1.5 1.5 0 0 .2.1 0 0-.3-.3-.8-.7-1.1-1.1h0zm1 5.1c-.1.3-.3.7-.7.8-.2 0-.4.2-.6 0 .3.1.6-.1.9-.3.2-.1.3-.3.4-.5zm-.7.6c.2-.1.3-.3.5-.4-.2.2-.3.4-.5.4zm1.4-1.5c0 .1-.2.1-.3.1-.2.1-.3.3-.5.4.1-.2.3-.4.5-.5h.3zm-3.1-2.6c.1 0 .1-.1.1-.2l-.2-.3c0 .2.4.2.2.5h-.1c-.3-.2-.5-.6-.8-.9.3.2.6.6.8.9h0zm-.8 1l-.1-.1c.1 0 .1.1.1.1zm.8 1.5c-.3 0-.5-.3-.7-.5-.3-.4-.7-.9-.8-1.4.3.6.8 1.4 1.5 1.9h0zm-1.6-2h0v-.2.2zm-.5-.1v-.2.2zm.3 0c-.1-.1 0-.2 0-.4.1.1 0 .3 0 .4zm-.6-.2c0-.1-.1-.3 0-.4.1.1.1.2 0 .4zm.4-.5c0 .2.1.4 0 .5v-.5zm-.1.2h0l-.1-.5c.1.1.2.3.1.5zm2.1 1.9c-.2-.2-.5-.4-.6-.7l.8.7h-.2zm-.1.8c-.4 0-.6-.4-.9-.6-.3-.4-.6-.7-.7-1.1.6.5.9 1.3 1.6 1.7zm-.5-1h0l-.5-.9c.3.4.7 1 1.2 1.4-.3 0-.4-.3-.7-.5l.7.7c-.5-.2-.7-.7-1.1-1.1-.1-.2-.3-.3-.3-.5.2.3.5.7.7.9h0zm-3.9 1.3c-.1-.1 0-.2.1-.3l-.1.3zm-.2 0c0-.2.1-.4.2-.5 0 .2-.1.4-.2.5zm.1-.6c-.1.2-.2.5-.3.7 0-.3.2-.5.3-.7zm0-.2c-.1.2-.2.3-.3.5-.1-.1.1-.4.3-.5zm2.1-.2h0c0-.2 0-.5.1-.8 0 .3-.1.5-.1.8zm-.3 0c0-.3.1-.6.1-.9l-.1.9zm0 0c-.1-.1-.1 0 0 0-.1-.2 0-.5-.1-.7l.1-.2c.1.3-.1.6 0 .9h0zm0-1c-.1 0-.2.1-.3.1l.1-.3.2.2zm-.4.1h0c-.1 0-.1.1-.1 0 .1-.1.1-.3.1-.4.1.1.1.2 0 .4h0zm-.2-.2c0 .1-.1.2-.2.3.1-.2.2-.4.1-.7.3.1.2.3.1.4h0zm.5 3.9h0zm-.1-.6h0zm-.9-.2h-.2c.1-.1.1-.1.2 0-.1-.1 0 0 0 0h0zm1.6.7c-.2 0-.4-.1-.5-.2.2 0 .3.1.5.2zm-.1-.3c-.1.1-.3-.1-.4-.1h.2c.1.1.2.1.2.1zm-2.6 4h0c0-.1 0-.1 0 0h0zm.3-.1h0zm-.2-.2c0 .1 0 .1 0 0-.1.1-.1 0 0 0h0zm.3-.1h0zm-.3-.1h0zm.4-.1h0zm-.2-.1h0zm.3-.1h0zm-.2-.2h0zm.1-.2h0c-.1 0 0 0 0 0zm.1-.2h0zm-1 0c0-.1-.2-.1-.2-.2l.2.2zm1.1-.2h0zm-.6-.1h0c-.1 0 0 0 0 0zm.9-.1h0zm-.2-.1c0 .1-.1.1 0 0h0zm-.6 0h0c-.1 0 0 0 0 0zm.1-.2h0c-.1-.1 0-.1 0 0zm.3-.2h0zm-.2-.1h0c-.1 0 0 0 0 0zm.7-.2h0zm.3-.1h0zm-.5 0c-.1 0-.1-.1 0 0-.1-.1 0-.1 0 0zm-.7-.1h0zm1 0s-.1 0 0 0c0-.1 0 0 0 0zm-.6-.1h0c0 .1-.1 0 0 0zm.3-.1h0zm-.6-.1h0zm1 0h0c0-.1 0 0 0 0zm-.6 0c-.1 0-.1 0 0 0-.1 0-.1 0 0 0zm.3-.1h0zm.1-.3h0c-.1 0 0 0 0 0zm.3-.1h0zm-.5-.3h0c-.1-.1 0-.1 0 0zm-4.4 1.6c0 .1-.1.2-.1.3 0-.1 0-.2.1-.3zm-.5-.2h0v.1c.1-.2-.1-.3 0-.5.1.2 0 .3 0 .4h0zm-1.9-.5h0c0-.1 0 0 0 0zm-.9-.3c0 .1-.1.1-.2.1 0-.1.1-.1.2-.1h0zm-.5 0h0l-.1-.1c0 .1 0 .1.1.1zm.5-.1c0 .1-.2.1-.2.1-.1-.2.2-.2.2-.1zm-.5 0h0zm.8-.1c0 .1-.1.1-.1.1 0-.1.1-.1.1-.1zm.5-.1c-.1.2-.1.5-.1.7-.2-.1 0-.4 0-.6.1 0 0-.1.1-.1h0zm-.2.5c-.1.1 0 .1 0 .2h0c-.1-.3 0-.6.1-.8 0 .3-.1.5-.1.6h0zm-.4-.5h0zm1.3-.3s-.1.1-.2 0l-.1-.1c.1 0 .2.1.3.1h0zm-.2.1c-.2.1-.2-.1-.2-.3 0 .1.1.3.2.3zm-1.1-.2v-.1.1zm.8.2c-.1.1-.1 0-.2-.1 0 .1-.1.1-.2.1 0 0 .1-.2 0-.2 0-.1-.1 0-.2-.1.1-.1.2.1.3.2v-.3c.2.2.2.3.3.4h0zm-.5-.1c-.1 0-.1 0 0 0-.1-.1-.1-.2-.1-.2s0 .1.1.2zm-.4 0c-.1.1-.1.2-.1.4-.1 0-.3-.1-.5-.1h.3c-.2 0-.5-.1-.5-.3.1-.1.3.2.4.2.1-.2.3-.3.4-.2h0zm-.1-.3h0l-.1-.1.1.1zm-1.9 0h-.2c.1-.2.3-.1.2 0zm2.6-.1h0zm.7-.2c-.1 0 0-.1 0-.1v.1zm-1.8-.3c.1.1-.2.3 0 .4 0 .1-.1 0-.1 0 0-.1 0-.3.1-.4zm1.7-.2c-.1.1-.1.3-.1.4-.1 0-.1-.1-.1-.2.1 0 .1-.1.2-.2h0zm.9.8c-.1 0-.3 0-.3-.1.1.1-.1.1-.1.1-.1 0-.2-.1-.2-.2s0-.3.1-.4c0 .1-.1.3.1.4 0-.1 0-.3.1-.3 0 .1 0 .3.1.3 0-.1 0-.2.1-.2 0 .1 0 .3.1.3.2-.2.3-.5.2-.8a2.39 2.39 0 0 1-.2.9h0zm-2.8-.9c-.1.2 0 .5 0 .6s-.1.1-.2.1v-.2c.1 0 .1.1.1.1.1-.2-.1-.4.1-.6h0zm1.8 0c-.2.1-.2.3-.2.5 0 0 .1.1 0 .1-.2-.2-.1-.4 0-.6.1 0 .2-.1.2 0h0zm-2.9.2c-.1 0-.1-.2 0-.2h0v.2zm5.1-.7c-.1.1-.2.1-.3.2s0 .3-.2.4c-.1-.1 0-.3 0-.5-.2.1-.1.4-.2.6-.1.4.4.6 0 .9-.1.1-.2.1-.2 0l.1-.2c.1-.2-.1-.3 0-.5-.2-.1 0-.5-.2-.6a1.39 1.39 0 0 1-.2 1.1c.3.2.5.5.7.8.1.1.3.1.4 0 .2-.1.3-.3.4-.4s0-.4 0-.5c-.2-.1-.2-.3-.2-.5v.3c-.3-.3-.3-.8-.1-1.1h0zm-.3.6s0-.1 0 0c-.1-.2 0-.3 0-.4v.4zm0 .8c0 .2-.2.2-.3.4-.1 0-.1.1-.1 0l.4-.4c-.2-.2-.3-.5-.2-.8 0 .3.1.6.2.8zm.1-.3c-.1-.1-.1-.3-.1-.5.1.2.1.4.1.5zm-.9.3l.2-.4-.2.4zm.8.5s-.1.1-.2 0l.3-.3c.1.1-.1.2-.1.3zm.1.3h-.2c.2-.1.4-.2.4-.4.1.2 0 .3-.2.4h0zm-.2-.1c.1 0 .1-.1.3-.1-.1 0-.2.1-.3.1zm1.7 1.5c0 .1 0 .1 0 0 0 .1-.1 0 0 0 0-.1 0 0 0 0h0zm.9-.5h0l.1-.2s-.1.1-.1.2h0zm-.4-.9c-.1-.1.1-.2.1-.3.1 0-.1.2-.1.3h0zm3.1 4.7c0 .1 0 .1-.1.1h0c0-.1 0-.2.1-.1zm.1-.3v.1c-.1-.1 0-.1 0-.1zm.1-.3h0zm.2-.4c0 .1 0 .1 0 0h0zm-1 2.5h0zm-.1-.3c-.1 0 0-.1 0 0h0zm.4-.3s-.1 0 0 0h0c-.1 0-.1 0 0 0h0zm-.2-.1s0 .1 0 0c-.1.1-.1 0-.1 0s.1-.1.1 0zm.1-.3h0c-.1 0 0 0 0 0h0zm.3-.2c0 .1-.1.3-.1.3-.1-.1 0-.2.1-.3zm-.1-.3h0c-.1 0 0 0 0 0zm1.4-3.1v.1c-.1 0-.1-.1 0-.1zm-.8 1.8s-.1 0 0 0h0c0-.1 0-.1 0 0zm.2-.1s0 .1-.1.1l-.1-.1c0 .1.1 0 .2 0h0zm.1-.2c-.1 0-.1 0 0 0v-.1.1zm-.2-.1s-.1-.1 0-.1h0v.1zm.2-.2c-.1 0 0-.1 0-.2.2 0 .1.1 0 .2zm-.1-.1h0v-.1.1zm.3-.4h0zm.2-.4v.1c-.2 0-.1 0 0-.1zm.3-.9s0 .1-.1.1c0 0 0-.2.1-.1zm.2-.8s0 .1 0 0c-.1 0-.1 0 0 0zm.3.3h0l.1-.4c0 .1-.1.2-.1.4zm0 .7c0-.1.1-.3.1-.4h0c.1-.3.1-.6.3-.9-.2.5-.4.9-.4 1.3h0zm2.5-1c0 .3.2.6.2 1 0 .1.1.1.1.2-.2-.2-.4-.5-.4-.8l.1-.4zm-.7.6h0c-.1-.2-.2-.5-.2-.7.2.1.2.4.2.7h0zm0 3.1c-.3.7-.4 1.6-1 2.2.4-.7.7-1.5 1-2.2h0zm-1.2 2.1h0c.4-.9.8-1.9 1.1-3-.2 1-.6 2.1-1.1 3h0zm-.1-.3l-.2.3c.1-.2.2-.5.4-.8l.9-2.6c-.3 1.1-.7 2.1-1.1 3.1h0zm-.4 0c.4-.9.7-1.9 1-2.7.1-.3.1-.7.2-1-.2.6-.2 1.1-.4 1.7-.3.9-.6 1.8-1.1 2.6l.3-.6zm-.4.6c.5-1.5 1.1-2.9 1.4-4.5h0c-.2 1.4-.7 2.7-1.2 4l-.2.5zm1-3.6c-.3 1.3-.8 2.5-1.3 3.6.5-1.5 1.1-2.9 1.4-4.4.1.3 0 .6-.1.8zm1 .2v-.1.1zm.2 3l-.1.1c0-.1 0-.2.1-.1 0-.1 0 0 0 0zm1.2-.4h0l.3-.6c0 .3-.2.5-.3.6zm-.4.1c.1-.2.2-.5.3-.7 0 .3-.1.6-.3.7zm.2-.9c-.1.3-.2.7-.5 1h0a4.67 4.67 0 0 1 .5-1h0zm-.8 1c.2-.4.3-.8.6-1.2-.2.5-.4.9-.6 1.2zm-.3 0h0c.1-.2.2-.4.3-.7.1-.2.2-.5.3-.7-.1.5-.3 1-.6 1.4zm-.1-.2c0 .1-.1.1-.1.4h-.1c0-.3.1-.4.2-.6.2-.4.4-.9.5-1.3a5.27 5.27 0 0 1-.5 1.5h0zm.4-1.7c-.2.8-.5 1.5-.9 2.2h-.1c.3-.7.7-1.5 1-2.2h0zm-.3 0c0-.2.1-.5.2-.7-.1.2-.1.4-.2.7zm-16.6 3.5c-.3-.4-.6-.9-.8-1.4v-.1c.3.6.6 1 .8 1.5zm0-.9c-.1-.3-.2-.6-.3-.8s.3 1.1.7 1.5c-.1-.3-.3-.5-.4-.7h0zm-.4-.3c.1.4.3.7.5 1h0c-.3-.5-.6-.9-.6-1.4.1.1.1.3.1.4zm.9.8h0a3.4 3.4 0 0 1-.7-1.5c.2.5.5 1 .7 1.5zm-.1-.8c.1.3.2.6.4.8h0c-.3-.5-.5-1-.6-1.6 0 .2 0 .5.2.8h0zm.5.7c-.3-.5-.6-1.1-.6-1.6.2.5.4 1.1.6 1.6zm.3-.1h0c-.2-.5-.5-1-.5-1.5 0 .5.3 1 .5 1.5zm.2-.2c-.3-.4-.5-.9-.5-1.4.1.5.4.9.5 1.4zm.2-.3c.1.1.1.2.1.3-.3-.5-.5-1-.6-1.6.2.4.3.8.5 1.3h0zm-.1-1.3c0 .5.3.8.5 1.5h-.1c-.2-.6-.4-1-.4-1.5h0zm.7 1.5c-.1 0-.1-.1-.1-.2-.1-.5-.3-.9-.4-1.4.2.6.3 1.1.5 1.6h0zm.3 0c-.3-.2-.3-.5-.3-.8l-.2-.8v-.1c.1.6.3 1.2.5 1.7h0zm5.7-11.9h0v-.4.4zm-.8.2c-.1 0-.1-.1-.1-.2l.1.2zm-.1.1c-.1 0-.2-.2-.2-.4v-.1c0 .2.1.4.2.5h0zm-.3.2c-.2-.1-.4-.5-.4-.7.1.2.1.5.4.7zm-.3-.9h0c-.1.1-.1 0 0 0-.1 0 0 0 0 0zm-.8-.2c0 .1-.1 0 0 0h0zm3-2.3v.4h-.1c0-.2 0-.5-.1-.7.2-.1.2.2.2.3h0zm-.3.2l-.1-.3.1.1v.2zm.1-2.6c0 .3-.1.7 0 1.1h-.1c-.1-.4 0-.7.1-1.1h0zm-3.7 4.1c-.1 0-.1-.2-.2-.2.1 0 .2.1.2.2zm.1-.4c0 .1-.1.1-.1.2v.1c-.1 0-.1-.1-.2-.2l.3-.1c-.1-.1-.2-.1-.1-.2.1.1.1.2.1.2zm.1-.2c-.1-.1-.1-.2-.2-.4v-.1c.1.3.2.4.2.5zm.4.4c0-.3 0-.6.2-.8l-.2.8zm-.3-.6c-.1-.1-.1-.4-.1-.5l.1.5zm.1-.8l.1.6h-.1c-.1-.2-.1-.5-.1-.8h.1v.2zm.2.4h0c-.2-.3-.1-.7-.2-1 .1.2.1.7.2 1h0zm-.5-1.1c-.1 0-.1-.1-.1-.2 0 .1.1.2.1.2zm.5.1c.1.2.1.5.1.7-.1-.4-.3-.8-.1-1.2h0c.1.1 0 .3 0 .5h0zm-.4-.3c-.1 0-.1-.2-.1-.3.2.1.1.3.1.3zm.6.2v.4c-.1-.3-.1-.7-.1-1 .2.2.1.4.1.6h0zm-.4-.4c-.1 0-.1-.1-.1-.1v-.1c.1.1.1.1.1.2zm.2-.1c-.1 0-.1-.2-.1-.3.1 0 0 .2.1.3zm.1-.5v.3-.3zm.7-.3h0zm-.5 0v.4c-.1-.1-.1-.3-.1-.4.1-.1.2-.2.4-.2l-.3.2zm1.1.1c-.3.1-.6 0-.8.1.1.2.3 0 .3.1-.1 0-.4 0-.4.1.1.1.2 0 .3 0 .2 0 .4-.1.5.1H36c-.1 0-.2.1-.2 0v.6c0 .1 0 .3.1.4v-.9c.2.1 0 .3.1.4 0 .1 0 .3.1.2v-.5c-.1.4.3.4.5.6 0 .1 0 .2.1.2v.3c0-.2 0-.5-.2-.5.1.2.1.4 0 .6-.3-.1-.1-.5-.2-.8-.1.2-.1.4-.1.6l-.3.2c-.1.1 0 .3.1.4.5.3.9-.4 1.5-.2.1-.1.1-.1.1-.2-.5-.2-.6-.7-1-1 0-.1 0-.1.1-.1.1-.1.2 0 .3.1.1.4.3.8.7 1 .1 0 0 .3.1.2.1-.3 0-.6-.3-.7-.1-.5-.2-1.1-.8-1.2.3-.1.4.3.6.4 0-.3-.3-.3-.4-.5h0zm-.6.9c-.1-.1-.1-.3-.1-.4.1.1.1.3.1.4zm.2-.2c-.1.1-.1 0 0 0v-.1.1zm.8.5c0 .1.1.2.2.3-.4-.1-.2-.5-.3-.8l-.1-.2c.1.2.2.4.2.7h0zm-.5.6c-.1 0-.1-.1 0-.1v.1zm.2-.1c-.1 0-.1-.1-.1-.1h.1v.1zm.2.2s-.2.2-.2 0c0 0 .1.1.2 0zm-.4.1c-.2.1-.4.2-.6.1-.1 0-.1-.1-.1-.2.1-.1.2.1.3.1h.4zm17.3 11.1c-.2.5-.8.9-1.2 1.4-.4.3-.8.7-1.3 1h0c.9-.8 1.7-1.5 2.5-2.4h0zm-.8.6c-.4.4-.9.9-1.4 1.2.2-.2.4-.3.5-.5h-.2c.1-.2.4-.4.6-.6.2.2.3-.2.5-.3.1.1 0 .1 0 .2h0zm-1.4-.1c-.2.5-.4 1-.8 1.5.1-.3.3-.5.4-.8.2-.3.3-.5.4-.7zm-.1-.5c-.1.6-.3 1.2-.7 1.7l-.2.2c.5-.5.6-1.3.9-1.9zm-.6 2.2c.1-.2.2-.4.4-.6-.1.2-.2.4-.4.6zm-.4-1.6l-.3.9h-.1c.1-.3.2-.7.2-1.1.1-.1.2.1.2.2h0zm-13-.5h0zm-2.6 3.1h0zm-.6-.1h0c-.1 0-.1 0 0 0-.1-.1-.1-.1 0 0zm-.3 0c-.1 0-.1 0-.1-.1h0l.1.1zm-.5 0s0-.1 0 0h0zm1 0h0c0-.1 0-.1 0 0h0zm.3-.1h0c0-.1 0 0 0 0h0zm.2 0v-.1.1zm1.9-.6h0c0-.1 0 0 0 0h0zm-2.8.3c-.1-.1-.2-.3-.2-.5l.2.5zm.3 0c-.1 0-.1-.2-.1-.3l-.1-.5c.1.3.1.6.2.8zm.2 0c-.1-.2-.2-.5-.2-.8.1.2.2.6.2.8zm3.2-.8c-.1 0-.1-.2-.2-.3.1.1.1.2.2.3zm-4.5-.4c.1-.1 0 .1.1.2a9.83 9.83 0 0 0 .5 1.6c-.4-.6-.5-1.2-.6-1.8h0zm0 1c-.1-.3-.2-.7-.2-1.1.1.4.2.8.2 1.1zm.6.4c-.3-.5-.3-1-.4-1.7.1.5.2 1.1.4 1.7zm.1-.8l-.1-.1-.1-.8.2.9zm.1-.3c-.1-.2-.1-.5-.1-.8.1.3.1.6.1.8zm.5-.8c.1.5.1 1.2.3 1.7-.2-.4-.3-.8-.4-1.3l.1-.4zm-.2.4v.4c-.1-.1-.1-.2 0-.4l-.1-.5c.1.2-.1.4.1.5h0zm4.1 0c-.1-.1-.3-.3-.3-.5l.3.5zm-3.2 1.6c-.1-.2-.2-.5-.3-.8-.2-.4-.2-1-.2-1.4.1.7.2 1.5.5 2.2h0zm.4.2c-.2-.2-.3-.6-.5-1-.1-.5-.3-1-.2-1.5.1.9.4 1.7.7 2.5h0zm2.4-1.4h0c-.3-.4-.5-.8-.7-1.2.1.4.4.8.7 1.2zm-2.8-1.3c0 .8.3 1.6.6 2.3-.2-.2-.3-.6-.4-.9-.1-.5-.2-.9-.2-1.4h0zm3 1.1c-.3-.4-.6-.7-.7-1.2.1.4.5.8.7 1.2zm-1.9 1c-.5-.6-.6-1.5-.8-2.3h0c.3.8.5 1.6.8 2.3zm-.4-2.4c0 .8.4 1.5.7 2.2.1.1.2.2.2.3-.2-.1-.3-.3-.4-.5-.2-.6-.6-1.2-.5-2h0zm-.4 0c-.1 1 .4 1.9.7 2.7-.3-.3-.4-.7-.6-1-.1-.5-.2-1.2-.1-1.7h0zm.6-.2c.1.7.4 1.4.6 2.1-.3-.5-.5-1.3-.6-2.1h0zm.2-.1c.1.9.5 1.7.9 2.6-.4-.8-.9-1.7-.9-2.6h0zm1.1 2.2c-.1 0-.1-.2-.2-.3-.3-.7-.6-1.4-.6-2.1 0 .8.4 1.6.8 2.4h0zm-.1-1.6v.1c-.1-.3-.3-.6-.3-1 .1.2.1.5.3.9zm0 .7c.1.1.2.2.2.3h0c-.3-.6-.6-1.3-.7-2.1.1.7.2 1.3.5 1.8h0zm5.9 3.3c-.1 0-.3.1-.5 0h.5zm.3-.4l-1.9.3c-.1.1-.1.2-.1.3s.1 0 .2 0c.1-.1.1-.2.1-.2.5 0 1.1-.1 1.6-.2-.4.1-1 .2-1.5.2 0 0-.1.1 0 .1h.5c-.2.1-.6.1-.9.2-.1-.1.1-.2 0-.4h0c0-.2.1-.1.2-.2.5 0 1.2-.1 1.8-.1h0zm-3.1 1l-.1-.9.1.2v.7zm.9-.9h0c0 .2 0 .4-.1.5h0l.1-.7c.1 0 0 .1 0 .2h0zm-1.1.3h0c-.1-.2-.1-.4-.2-.6.2.2.2.4.2.6zm.9.3h0v-1 1zm-.5-1c0 .6.1 1.2 0 1.8h0v-1.8zm.3-.1c0 .5 0 .9-.1 1.3l.1-1.3zm-2.1 0h0c-.1 0-.1-.2-.2-.3.1.1.2.2.2.3zm.3.2c-.1-.2-.3-.4-.3-.7.1.3.3.5.3.7zm.2.2h0c-.1-.3-.3-.6-.4-.9.2.3.3.6.4.9h0zm-4-.9h0c0 .1-.1 0 0 0-.1 0 0-.1 0 0zm4.5 1.8c.3.6.5 1.2.7 1.9v.1c-.2-.1-.1-.5-.2-.7-.2-.4-.5-.9-.5-1.3h0zm.1-.3l.1.1c.1-.4-.2-.7-.2-1.1.3.4.2.9.5 1.3 0 .3.2.6.3.9h0c.1-.3.2-.6.3-.8-.1.3-.2.7-.3 1h0c-.1-.4-.2-.9-.6-1.2h-.1c.3.6.5 1.2.7 1.8.2-.5.2-1.1.5-1.5.2 0 .4-.1.7-.2-.2-.1-.3.1-.5 0l.2-.1 2.5-.3c-.6.1-1.3.3-2.1.3-.1 0 0 .1 0 .1l2.6-.3c-.4.1-.8.1-1.2.2-.2.1-.5 0-.7.1h0l2.4-.3c-.3.1-.6 0-.9.2.3 0 .6-.1.9 0 .1-.1.3 0 .4 0-1.3.1-2.7.3-3.9.6-.3.5-.4 1.1-.7 1.7-.3-.1-.1-.4 0-.6l.2-.6c0 .2-.1.4-.1.6l.4-1v-.1c.2-.2.5-.1.7-.2-.3-.1-.5.1-.8.1v-.1c.4-.1.9-.2 1.3-.3-.5 0-1 0-1.5.2-.2.5-.3 1.1-.5 1.6h-.1c-.2-.7-.4-1.4-.8-2 0-.5-.3-1-.5-1.5.6.5.7 1 .8 1.4h0zm15.4-18.3c0 .1-.2.1-.3.1.1 0 .2-.2.3-.1zm-.1.6c0 .1-.2.1-.2.1h0c0-.1.1-.1.2-.1h0zm.5-3.4c0 .1 0 0 0 0l-.1-.1c0 .1.1.1.1.1zm3.7 2c-.2.3-.3.7-.6 1 .1-.3.3-.6.4-.9-.1-.2 0-.4.1-.6.2.2 0 .4.1.5h0zm-1.9-2c-.2.1.1.2-.1.3 0 .1 0 .2-.1.3 0-.2.1-.6.2-.8.1.1.1.2 0 .2h0zm-4.7 0c-.2.1-.6.1-.9 0h.9zm-.1-.2c-.2.1-.4 0-.6 0v-.1l.6.1zm-.1-.1c-.1.1-.2.1-.3 0 .1-.1.2-.1.3 0zm-1.4 0c-.1.1.1.3-.1.3 0 0 0-.2.1-.3zm-.1-.2c-.1.1-.1.4-.2.6 0-.3 0-.5.2-.6h0zm-6.4 1.2c0-.2.1-.6.2-.8 0 .2-.1.5-.2.8zm.1-.8a.76.76 0 0 1 .2-.4l-.2.4zm.5 2.9c0-.3 0-.7.1-1 0 .3-.1.6-.1 1h0zm1.4-1.7c0 .3-.1.6-.3.9v.1c-.1 0-.1-.1-.1-.1.1-.4.3-.6.4-.9h0zm.6.5h-.1c0-.1.1 0 .1 0zm-.3-2s0-.1.1-.1v.5c.1 0 .1-.2.2-.3 0 .2-.1.5-.2.8-.1-.1 0-.3 0-.5h0c-.2-.1-.1-.3-.1-.4-.1-.1-.1-.2 0-.2 0 0-.1.1 0 .2h0zm-2.3-2.4c0-.2.1-.5.1-.7l-.1.7zm.1.3v-.3l.2-.7c0 .3-.1.7-.2 1h0zm.2.2c0-.3.1-.7.2-1 0 .3-.1.6-.2 1zm.4-.8c0 .2-.1.4-.1.7h-.1c0-.2.1-.4.2-.7h0zm1.7-1.2c-.2 0-.5 0-.7-.1.3 0 .5 0 .7.1zm4.1.4c-.2 0-.1-.3-.3-.4 0-.1.1 0 .1 0 .1.1.1.2.2.4zm-.5 0h0c-.1 0-.1-.1 0 0 0-.2 0-.1 0 0zm.2-.1h0c-.1.1-.1-.1-.2-.2.2 0 .2.1.2.2zm3.9 3.6c-.4.1-.8.1-1.2.1 0 0-.1 0-.1-.1.4-.1.9-.1 1.2-.2l.1.2zm.1-.3c-.2.1-.5.1-.8.2H54c.5-.1.9-.1 1.3-.2zm.1-.2c-.4.2-.9.2-1.3.2h0c.5-.1.9-.2 1.3-.2zm-.1-.2c-.4 0-.7.2-1.1.1h0c.5 0 .8-.2 1.1-.1h0zm.2-.3c-.2.1-.5.2-.7.2 0-.1.3 0 .4-.2.1.1.2-.1.3 0zm.2-.5c0 .1-.1.1-.2.1h0s.1-.1.2-.1zm-1.4-.1c0 .2.1.5 0 .7h0l-.2-.8c.1-.2.1.1.2.1zm-.3-.2v1l-.1-.1.1-.9c-.1 0 0 0 0 0h0zm.6.2c0 .2.1.5 0 .7 0-.3-.2-.6-.1-.9 0 0 0 .1.1.2zm-1 .7h0c-.1-.2-.1-.7.1-1h0l-.1 1zm-.2-.5c0 .1 0 .3-.1.3 0-.3 0-.6.2-.8 0 .1-.1.3-.1.5zm1.7-.3c0 .1.2.3.1.4-.1-.2-.2-.4-.3-.7.1 0 .2.2.2.3h0zm-2.1.3c.1-.2 0-.6.2-.7 0 .3-.1.5-.2.7zm2.5-.2c-.2 0-.3-.3-.3-.4s0-.2.1-.1l.2.5zm-2.5-.6c-.1.2-.1.5-.3.7 0-.3.1-.6.3-.7zm-.2-.1l-.2.6h-.1c.1-.2.1-.5.3-.6h0zm2.8.4c-.1-.1-.2-.2-.3-.4v-.1c.2.1.3.4.3.5h0zm.2-.1h0c-.1-.1-.4-.3-.3-.4.2 0 .3.2.3.4zm-13-.6h0c-.1-.2-.1-.5.1-.6l-.1.6zm.3-.6c0 .3-.1.6 0 .9-.1-.1-.1-.2-.1-.4 0-.1-.1-.3.1-.5h0zm-.8.3c-.1-.2 0-.3 0-.4v.4zm.1-.5c.1-.1.1 0 .1 0v.5h-.1c-.1 0-.1-.4 0-.5h0zm.3 0c-.1.2-.1.4-.1.7h-.1c0-.2.1-.5.2-.7zm.7 0c0 .2-.1.4-.1.7h-.1c-.1-.2 0-.6.2-.7h0zm.3 0c-.1.1-.1.1-.1.3v.4c-.1-.1-.1-.3 0-.5 0-.1 0-.3.1-.2h0zm.3.5h0c-.1-.2-.1-.5.1-.6l-.1.6zm-.1-.6c0 .2-.1.4-.1.6h-.1c0-.2.1-.4.2-.6h0zm.3.5h0c0-.2 0-.5.1-.6 0 .2 0 .4-.1.6zm4.5.7c.1.2.3.2.5.3-.1.1-.3 0-.4 0 0 0 .2.2 0 .3-.1.1-.2 0-.3-.1-.1.1.3.3 0 .2-.1-.1-.1-.2-.1-.3l.1-.1c.1-.2-.1-.5.1-.5 0-.1-.1-.2 0-.2.2 0 .1.3.1.4zm1.8.2c-.1.1-.3.3-.5.3-.1-.1-.2 0-.3-.1.2 0 .5.1.7-.1-.1-.1 0-.1.1-.1h0zm-.2.6c-.1 0-.2 0-.2-.1v-.1c.1.1.3.1.2.2h0zm-.2.2c-.1 0 0-.1-.1-.2v-.2c0 .2.1.3.1.4zm-.1.1h0c-.1 0-.1-.1-.2-.2v-.2c.1.1 0 .3.2.4zm0 .6c0-.1-.1-.2-.1-.3.1 0 .2.2.1.3zm.2.4c-.1.3-.4 0-.6.1.2-.1.4-.1.6-.1zm-3.6 22.1c-.3.8-.8 1.5-1.4 2.2h-.1a10.04 10.04 0 0 1-2.2 1.9c.7-.7 1.6-1.2 2.2-2 .7-.5 1.1-1.4 1.5-2.1h0zm-.7.2c-.1.4-.3.8-.6 1.2h-.1c-.5.5-1 1.2-1.5 1.6.6-.5 1-1.1 1.6-1.7l.1.1c.1-.5.3-.9.5-1.2h0zm-3.9 2.4c-.2.3-.3.7-.6 1 .2-.3.4-.8.6-1zm-.3.2l-.3.6c0-.2.2-.4.3-.6zm4.6-2.6c-.3.5-.5 1-.9 1.3h0c.4-.4.6-1 .9-1.5v.2zm-.3 1.7c0-.1.3-.4.4-.5.4-.5.9-1.1 1.2-1.7-.3.8-1 1.5-1.6 2.2h0zm.9-.7h0c.4-.5.7-1 1-1.6-.1.6-.6 1.1-1 1.6zm-1.5 1h0c.7-.9 1.3-1.7 1.8-2.6-.4 1-1.1 1.8-1.8 2.6zm2.2-1.5c.1-.2.3-.4.4-.6.2-.3.4-.7.6-1-.1.5-.5 1.1-1 1.6h0zm1.1-1.1l.3-.6c0 .2-.1.4-.3.6zm-2 4.5h0l.1-.2c0 .1-.1.1-.1.2zm-1.5-1.4a2.36 2.36 0 0 1-.9.8c.2-.2.6-.5.9-.8zm-1.6-1l.1-.1-.1.1zm1.7-.2c-.2.3-.4.6-.7.9-.4.4-.8.8-1.2 1.1.6-.7 1.3-1.3 1.9-2h0zm-.9-.1c-.3.3-.5.7-.8 1v-.1c.2-.3.6-.5.8-.9h0zm-.8.6l.5-.6-.2.4-.3.2zm1.2-.7c-.4.5-.8 1.1-1.3 1.4.5-.4.9-1 1.3-1.4zm.6-.5l.2-.4a.76.76 0 0 1-.2.4zm1.6 4.4h0zm-5.7-2.1c0-.2.1-.3.2-.5.1.2-.1.4-.2.5zm.8-.3c-.2.5-.5.9-.7 1.4.2-.5.5-.9.7-1.4zm.6-.2c-.4.8-.8 1.5-1.3 2.2-.1 0-.1 0-.1-.1v-.1c.3-.6.7-1.2 1-1.8-.2.6-.6 1.2-.9 1.7h.1c.5-.6.9-1.3 1.2-1.9h0zm-1.1 2.2h0c.6-.7 1.1-1.5 1.6-2.3-.4.8-1 1.6-1.6 2.3zm.2.1l-.1.1v-.1c.6-.6 1.1-1.3 1.6-2-.4.7-1 1.3-1.5 2zm1.4-1.5c-.4.7-1.1 1.3-1.7 1.9v-.1c.6-.5 1.2-1.1 1.7-1.8h0zm2-1c-.8.9-1.7 1.5-2.6 2.2-.2.2-.4.6-.7.7.4-.3.7-.7 1-1 .2 0 .2-.2.4-.2.6-.5 1.3-1 1.8-1.6 0-.1.1-.2.1-.1h0zm-1 1.2c-.7.6-1.5 1.1-2.2 1.7h0c.7-.6 1.5-1.1 2.2-1.7h0zm.5-11.8h0l.1-.3c-.3 1-.5 2.1-1 3-.4 1.1-.8 2.2-1.3 3.3-.2.3-.3.8-.6 1 .2 0 .4-.1.5-.1-.1.1-.3.1-.4.2.1.1.2 0 .2 0-.1.1-.4 0-.4.2l2.2-.3.1-.1c-.6 0-1.1.2-1.7.2.6-.2 1.3-.2 1.9-.4.1-.1.2 0 .3-.1-.7.1-1.4.3-2.1.3 0-.1.2-.1.2-.2l.1.1c.1-.3.3.1.4-.2.1 0 .2 0 .2.1 0-.1.1-.2.2-.1v.1c.1-.2.4-.3.4-.6 0 0 .1 0 .1-.1.1-.4.2-.8.4-1.2v-.2c.2-.2.1-.5.2-.7.2-.2.1-.5.2-.8.2-.5.3-1 .4-1.4-.2.4-.3 1.1-.6 1.5-.2-.1.1-.2 0-.3.2-.6.4-1.2.5-1.7h0v-.2l-.1.5c-.1.2-.2.5-.3.7-.3-.2.3-.2 0-.4.1-.2.2-.5.2-.7-.1.2-.1.4-.2.5-.1 0-.1 0-.1-.1l.2-.7c-.2.3-.1.7-.4.9h0c-.1 0 0-.1 0-.1-.2.5-.3 1-.5 1.5 0 .2-.2.3-.1.5 0 0-.1 0-.1.1l-.1-.1c.3-.8.6-1.6.7-2.4-.5 1.5-1 3.1-1.7 4.6 0 0-.1.1-.1 0 .4-1 .8-2 1.1-3 .5-1 .8-1.9 1-2.8h0zm-16.8-3.1c.3 1.2.5 2.4 1 3.5-.7-.1-1.3-.3-1.9-.5-.2-.5-.4-1-.5-1.6l1-1.1c0-.1.2-.3.4-.3h0zm1.5-2.2c-.3.4-1.2.7-.9 1.4.1 1.2.5 2.5 1 3.6.1.3.2.7.4 1 0 0 0 .1-.1.1-.8-1.6-1.2-3.4-1.4-5.3.3-.4.6-.7 1-1.1h.1v.3zm-.2-.3c-.4.3-.7.8-1.1 1.1.4-.4.7-.8 1.2-1.2l-.1.1zm-.9 1.9c.2 1.5.8 2.9 1.2 4.4-.6-1.4-1-3-1.3-4.6v-.2c.1 0 0 .2.1.4h0zm-.4-.1c0 .1-.1.2-.2.2 0 0-.1.1-.2.3-.4.4-.8.7-1.1 1.1-.4.3-.2.6-.1.9.1.4.3.8.3 1.2h-.1c-.2-.5-.3-1.1-.5-1.6 0-.5.5-.8.8-1.1l.1-.1c.3-.3.5-.7 1-.9h0zm-.4 0c-.6.6-1.2 1.2-1.7 1.8v-.1c.4-.4.7-.9 1.1-1.2.3-.3.5-.6.8-.8 0 .2-.2.2-.2.3zm-1.2 3.6c-.3-.4-.5-1.5-.5-1.5s-.1-.1 0-.1c.2.5.3 1.1.5 1.6zm5.3 2.1c0 .1.1.1.1.1l-.1-.1-5-1.4c1.7.3 3.3.9 5 1.4h0zm-4.2-1c1.3.5 2.8.8 4.1 1.3h0c.1.1.3 0 .5.1v.1l-5.6-1.7.1-.1c.3 0 .6.3.9.3h0zm2.4-7.6c.1.5 0 1 0 1.5l-.9 1c.2 1.9.7 3.6 1.6 5.2.5.2.9.3 1.4.5.3.5.7 1 1 1.6-.2.1-.5-.1-.7-.1-1.9-.6-3.8-1.1-5.7-1.7-.3-.1-.3-.5-.4-.7-.3-.9-.6-1.7-.7-2.6.5-.6 1.2-1.2 1.7-1.9.9-.9 1.7-1.9 2.7-2.8-.1-.2-.1-.1 0 0h0zm-1.8 3.2h0c-.3.1-.4.3-.7.5-.3.5-.9.8-1.1 1.3l.5 1.6c.7.3 1.6.4 2.3.7.1 0 .1-.1.1-.1-.5-1.3-.9-2.6-1.1-4h0zm1.5-3.1h0l-3.8 4-.3.4c.2 1 .5 2 .9 3l6 1.8c-.3-.4-.5-.8-.8-1.2-.5-.2-.9-.3-1.4-.5-.8-1.6-1.2-3.4-1.5-5.3l.8-.8.1-.2c0-.4.1-.8 0-1.2h0zm1-6.8c.4.3.5.8.4 1.3-.3 1.1-.8 2.2-.9 3.4 0 .6-.3 1.2-.9 1.4a1.91 1.91 0 0 1-1.3.2c0-.4 0-.9.1-1.2.1-.2.3 0 .5-.1.6-.5.4-1.1.7-1.8.1-.7.7-1.9.5-2 0 0 0-.2-.9-.6-.6-.3-1.4-.6-2.3-.9v-.1l.5-1.1a27.49 27.49 0 0 1 3.6 1.5h0zm-.4 0c-1.1-.4-2.1-.9-3.1-1.2-.3.1-.4.8-.4.8.6.2 1.1.4 1.7.6.3.1.6.2.9.4.2.1.6.3.6.6 0 .8-.4 1.4-.5 2.1-.2.6-.1 1.2-.5 1.8-.2.3-.4.1-.7.2-.1.3-.1.6-.1 1h.6c.5-.1.9-.7 1-1.2.2-1.4.7-2.7 1.1-4 0-.5-.2-.9-.6-1.1h0zm-.3.3c.3.2.5.7.4 1-.1.1 0 .2-.1.3 0 .1 0 .3-.1.4-.2.8-.6 1.6-.7 2.6 0 .1 0 .3-.1.4-.1.2-.1.4-.3.6.3-.8.4-1.6.7-2.5.2-1 1-1.9.2-2.8-.9-.4-1.9-.6-2.8-1.1 0-.1-.1-.1-.1 0v-.1l2.9 1.2zm.4-.1c.2.2.4.5.4.8-.1.7-.5 1.3-.6 2-.3.8-.2 1.9-.8 2.6 0 0-.1.1-.1 0 .7-.9.5-2.2 1-3.2h0c.2-.7.9-1.6.2-2.2-.5-.5-1.3-.6-1.9-.9l-1.3-.5v-.1c.9.6 2 .9 3.1 1.5h0zm13.5-12.5c.7.7 1.6 1.4 2.4 2.1l.2-.1 2.4-1.5a9.83 9.83 0 0 1 1.6.5c-.6.4-1.2.7-1.8 1.1l-1.4.9c.6.7 1.5 1.3 2.2 1.9.4.4.9.6 1.1 1.1-.2 0-.4 0-.6-.1-.7-.2-1.3-.5-2-.7l-.1-.2-1.6-1.3c-.7.3-1.3.8-2 1.1-.8 0-1.4 0-2.1.2-.1 0-.1-.1-.1-.2 1-.7 2.1-1.3 3.1-2h0c-.9-.9-2-1.7-2.9-2.6v-.1c.6 0 1.1-.1 1.6-.1h0zm-7.6 4.9h0c-1 .6-2 1.3-2.9 2-.1-.6-.1-1.3-.2-1.9.4-.4.9-.6 1.3-.9.5.3 1.2.5 1.8.8zm-3.3 5c-.1-.6-.2-1.2-.2-1.8.1.6.2 1.2.2 1.8zm-.1-5.3l1-.7s.3-.2.2 0l-1.3 1c.1.8.1 1.7.2 2.5 0 .1 0 .1-.1.1-.1-.9-.2-1.7-.2-2.6l.1-.2.1-.1zm.8-.7l-1.2.8s-.1.1-.1.3c0 0 0-.1.1-.2.2-.2 1.3-1 1.2-.9.1-.1.1-.2 0 0h0zm-1 3.8c-.1-.1-.1-.3-.1-.4l-.1-2.2c.1.9.1 1.7.2 2.6h0zm6.5-2.6c.2 0 .3.1.4.2v.1c-1.7-.7-3.5-1.4-5.2-2.2v-.1c1.6.7 3.2 1.3 4.8 2zm-.1.3c-1.6-.6-3.2-1.3-4.8-2 1.6.7 3.3 1.3 4.8 2zm-1.8-.2c-1 .7-2.2 1.2-3.2 2.1l-.9.8c-.1.3.1.7 0 1 .1.1.1.2.1.4 0 0 0 .1-.1.1h0c0-.5-.1-1-.1-1.5 1.1-1.2 2.6-2.1 4.2-2.9h0zm-.4-.1c-1.2.8-2.6 1.5-3.6 2.7-.2 0-.3.2-.4.3.4-.5.9-.9 1.4-1.3.8-.6 1.6-1.3 2.6-1.7h0zm3.7.2c.1 0 .1.1.1.1-.5.2-1.1.3-1.6.6l-1.4-.5h-.1c-1.4.7-2.8 1.7-4.1 2.8.1.5.1 1 .2 1.5-.2.4-.7.8-1 1.2l-.1-.1c-.2-1.4-.3-2.7-.5-4.1v-.3l-.1-1.7c.7-.7 1.6-1.2 2.4-1.8.2-.2.5 0 .7.1 1.8.6 3.7 1.4 5.5 2.2h0zm-4.1-.4c-.7-.4-1.5-.6-2.2-.9-.5.3-1 .6-1.4 1 0 .8.1 1.5.2 2.2 0 .1 0 .2.1.1 1-.9 2.1-1.8 3.3-2.4h0zm3.4.4l-5.5-2.4c-.8.5-1.7 1-2.4 1.7 0 1.6.4 3 .4 4.6.1.4.1.9.2 1.3.2-.3.6-.6.8-1-.1-.4-.1-.9-.1-1.3 1.2-1.2 2.7-2.2 4.2-3 .4.1.8.3 1.2.5l1.2-.4zm5.8-2.1c-.6.4-1.3.9-2 1.3.7-.5 1.3-1 2-1.3zm-1.7-2.7c.6.7 1.4 1.3 2.2 1.9 0 .1 0 .1-.1.1h-.1l-2.4-2.1c.1-.3.3 0 .4.1h0zm0 .4c.6.6 1.2 1.2 1.8 1.7-.7-.5-1.4-1.2-2-1.7h.2zm-.2-.1c-.2-.1-.4-.2-.5-.5.2.1.3.3.5.5zm5.6.2c-.9.7-2 1.2-2.9 1.8h0v-.1c1-.5 1.9-1.3 2.9-1.7zm.5.1c-1 .6-2 1.2-3 1.9v.1c.9.9 1.9 1.7 2.8 2.5-.1 0-.2-.1-.4-.1l-2.6-2.3v-.1c1-.8 2.1-1.4 3.1-2h.1zm-1.1 4.1h0c-.8-.7-1.6-1.4-2.3-2.1.8.6 1.6 1.3 2.3 2.1zm-5-5c-.3 0-.8 0-1.1.1v.1c.9.8 1.8 1.6 2.8 2.4-.9.6-1.8 1.2-2.8 1.8l-.1.1c.4 0 .9-.1 1.3-.1a17.61 17.61 0 0 1 2.3-1.4h.1c0 .1-.1.1-.1.2-.6.3-1.2.7-1.7 1.1h.1c.7-.3 1.2-.8 1.9-1.2.6.6 1.3 1.1 1.9 1.6l2 .6c-1-.9-2.1-1.8-3.1-2.7.6-.5 1.2-.8 1.8-1.2.4-.3.8-.5 1.2-.8-.3-.2-.7-.3-1.1-.3-.9.5-1.7 1.1-2.7 1.6-1-.4-1.9-1.2-2.7-1.9h0zm-4.7 38.4c-.3-.2-.3-.5-.5-.8-.5-.8-1.1-1.6-1.5-2.4.6 1.1 1.4 2.1 2 3.2h0zm-2.3-3.2a4.67 4.67 0 0 0 .5 1 4.67 4.67 0 0 1-.5-1h0zm.6 2c-.2-.2-.5-.6-.6-1l.6 1zm-.7-2.1c-.1 0-.1-.2-.1-.3.1 0 .1.2.1.3zm.3-.1h0l-.1-.1c0 0 .1.1.1.1zm.7 2.6h0zm-.1-.1c-.1 0-.1-.1-.1-.2l.1.2zm3 1.2c0 .1.1.2.1.2-.1-.1-.1-.4-.3-.6.1.2.1.3.2.4h0zm.3.1h0l-.2-.4c.1.1.2.2.2.4h0zm-.5-.5c-.1-.1-.2-.3-.3-.5l-.2-.3c.3.3.5.5.5.8h0zm-.1.1c-.1 0-.1.1-.1.2s.1.1.1.2c-.1 0-.1-.2-.2-.3.2-.1-.1-.3-.1-.4-.1-.3-.4-.6-.5-1 .3.4.6.8.8 1.3h0zm-1.5 0c-.3-.3-.5-.7-.8-1.1l-.7-1v-.1c.6.8 1.1 1.5 1.5 2.2h0zm1.2-.1c-.4-.7-1-1.5-1.3-2.2.4.7 1 1.4 1.3 2.2zm0 .4h0c-.2-.2-.3-.6-.5-.8-.5-.7-1-1.5-1.3-2.3.6 1.1 1.3 2.1 1.8 3.1h0zm-.2-.1c-.2-.1-.2-.5-.4-.6-.5-.8-1.1-1.5-1.5-2.3l-.1-.3c.6 1.1 1.5 2.1 2 3.2h0zm-.3-.1c-.8-1-1.5-2.1-2.1-3.2h0c.6 1 1.4 2.1 2.1 3.2zm-3.1-2.7c0 .1.1.1 0 .2h-.1c0-.3-.2-.4-.3-.6l-.4-1.2c.3.4.5 1.1.8 1.6zm.1-.4c-.1.1-.1 0 0 0-.2-.3-.4-.6-.4-1 .1.4.2.7.4 1zm.1.5c-.1-.1-.2-.2-.1-.3 0 .1.1.2.1.3zm-.1-.8c-.1-.1-.2-.2-.2-.4h0c.1.1.1.2.2.4h0zm.2.5c.4.9 1.2 1.8 1.7 2.7-.7-1-1.4-2-1.9-3.1.2 0 .1.2.2.4h0zm13.4-2.5h0c-.3.4-.5.9-.7 1.3-.3.3-.4.7-.7 1 0 .1-.2.3-.3.4a.76.76 0 0 1 .2-.4c-.5.7-1 1.5-1.5 2.2.3-.2.5-.6.7-.8 0 .2-.2.4-.3.6.4-.3.6-.9 1-1.2-.2.4-.5.9-.6 1.3.4-.6.9-1.2 1.2-1.9.2-1 .9-1.7 1-2.5h0zm-2.3 3.6l.3-.6c0 .3-.2.4-.3.6zm.4-.6l.1-.2s0 .1-.1.2zm1.3-15.8c.6.3 1.2.8 2 1v-.1c-.5-.1-1-.3-1.4-.7-.7-.5-1.3-1-1.9-1.6-2.4-2.5-3.7-5.7-3.5-9.2 0-.1 0-.2.1-.2 0 .7 0 1.5.1 2.2v.4c0 .1.1.3.1.3v-.1c-.2-2.1 0-3.5 0-3.5-.2-.2 0-.7 0-1-.1.1-.1.3-.2.4-.1.2 0 .4-.1.6-.2-.2 0-.6.1-.8h0c-.3.1 0-.2-.1-.3-.6.2-1.3.2-2 .4-.1 0-.3.1-.3.3-.2.2.1.4.1.6.2.7.1 1.5-.5 2-.1.1-.2.2-.3.1.3-.1.4-.3.6-.6H42c.1-.3.3-.8 0-1.5-.1.1.2.8 0 .8h-.1c0-.5-.2-.7-.1-1.2h-.1c-.1.2 0 .4 0 .5h0c0 .1.1.4 0 .4-.1-.3-.2-.6-.1-.9h0c-.1.1-.1.4-.1.5s.1.3 0 .4l-.1-.1v-.8c-.2.2-.1.6-.1.9h-.1c-.1-.3 0-.6 0-.8h0c-.1 0-.1.2-.1.3 0 .2 0 .4-.1.6-.2-.1-.1-.3-.1-.5-.1-.1.1-.3 0-.3-.1.2-.1.5-.1.7l-.1.1h-.1c-.1-.3.1-.5.1-.8-.2.2-.1.5-.2.8-.1 0-.1-.2-.1-.3.1-.1.1-.3.1-.5-.1 0-.1.2-.2.3 0 .1-.1.3-.1.4 0-.2.1-.4.1-.6-.1 0-.2.1-.3.1-.2.1-.1.4-.2.5-.2-.1 0-.3 0-.5-.3.1-.1.4-.3.5-.1-.2.1-.3.1-.5h0c-.1 0-.1.1-.1.1-.1.1 0 .3-.1.4-.1-.1 0-.3.1-.5-.3.1-.1.4-.3.5-.1-.1.1-.3.1-.4H39c-.1.1-.1.4-.2.6-.1-.2 0-.3.1-.5h-.1c-.1.2-.1.4-.2.5-.1-.1 0-.3.1-.5-.2 0-.1.3-.3.5-.1-.1 0-.3 0-.4h-.1l-.1.4c-.2 0 .1-.3 0-.4-.2.2-.4.4-.6.7-1.5.3-3.9 1.3-4 1.4-.1.2-.4.2.4 1 .8.7 1 .8 1.4 1.2.2.2.5.5.8.5.2-.2.4-.4.5-.6-.1-.1-.2.1-.3.2-.1-.1.2-.2.1-.3-.2 0-.2.2-.3.2-.1-.2.1-.2.2-.3-.1-.1-.3.1-.3.2-.3-.1.2-.2 0-.4-.1-.1-.1 0-.2.1-.2 0-.1.2-.2.2-.1-.2.2-.2.2-.4-.2-.1-.3.1-.3.2-.1-.1 0-.2.1-.3-.1-.1-.2.2-.3.2-.1-.1.1-.2.1-.3-.2-.1-.2.2-.4.2-.1-.1.2-.2.1-.3-.2-.1-.2.2-.3.2-.1-.1.1-.2.1-.3-.1-.1-.2.1-.3.1-.2-.1.1-.1.1-.3-.1 0-.2.1-.3.2s-.2.1-.3 0c-.1-.3-.5-.5-.3-.8.3-.1.8 0 1.1.2 2.3 1.2 4.3 2.9 6.4 4.7v-.1c.4 0 .7-.3 1.1-.4.4 0 .8-.2 1.1.1-.1.1-.1 0-.2 0-.7-.1-1.1.5-1.7.5 1.8 1.7 3.4 3.4 4.8 5.3l.3.2c.3 0 .4-.2.7-.2v-.2c0 .1-.2.2-.3.3-.1 0-.3.1-.5 0-1.4-1.9-2.9-3.4-4.6-5.2h0c1.6 1.4 3 3.1 4.3 4.6-.1-.4-.5-.6-.7-1-1.1-1.3-2.3-2.5-3.5-3.7h.1c1.6 1.5 3.2 3.2 4.5 4.9h.1c0-.1-.2-.1-.1-.2-1.3-1.7-2.6-3.1-4.1-4.6v-.1c.7.5 1.3 1.2 2 1.8.7.8 1.6 1.8 2.2 2.7h.2c.2-.1.2-.4.3-.6v.1c0 .2 0 .4-.2.5 0 .1-.2.1-.2.2.3 0 .4-.4.4-.6.1-.1-.1-.2 0-.3.1 0 .1.2.1.3l.1-.1c.2.3.1.8 0 1 .2-.1.2-.4.2-.7-.2-1.2-1-2-1.8-3-.8-.8-1.6-1.9-2.6-2.3-.6-.3-1.3-.1-1.7.2-.2 0-.4.2-.6 0 .5-.1.9-.6 1.5-.6 0-.1-.2-.2-.2-.3h0c.1.1.2.3.4.4l.4.1c.1 0 .3.1.4.1.2 0 .2.2.4.2.5.4 1.3 1.2 1.5 1.4.7.9 1.6 1.9 2.1 2.9.1.2.3.4.5.5-.1-.3-.5-.5-.6-.8h.1l.5.6h.1c.1-.2-.2-.3-.2-.4-.1-.1-.3-.3-.2-.4.2.2.3.5.6.6v-.1c-.2-.2-.4-.4-.5-.6h0c.4.4.8.9 1.3 1.2h0c-.3-.1-.5-.3-.7-.5v.1l.7.5c-.2.1-.4-.2-.6-.3-.1.3.3.4.5.6h0c-.2-.1-.3-.3-.5-.3.1.2.4.2.5.4-.1.1-.2-.1-.4-.1 0 .2.3.2.4.3h-.3c.1.1.2 0 .3.2-.1.1-.3-.1-.4 0 .1.1.2.1.4.1.1.2-.2 0-.2.1l.3.1v.1l.1.1c-.1 0-.1.1-.2 0-.1.2-.1-.1-.2 0v.1c-.1.1-.2.1-.3 0 .1.1 0 .1-.1.2-.1 0-.1-.1-.1 0v.1c0 .1-.1 0-.1 0v.2c.2.1.1-.2.3-.3.1-.1.2 0 .4 0 .1-.1-.1 0-.1-.1.1-.1.1-.2.2-.2.2 0 .1.2.2.3l.1-.2c.5 0 1 .1 1.4.4h0c-.2-.1-.5-.2-.7-.3-.2 0-.4-.1-.6 0 .1.1.1 0 .2 0 .5.1.8.3 1.2.5.3-.2 0 .2.2.3.1-.1-.1-.3 0-.4.1.1.1.2.1.4-.1.1-.1.4-.3.5.1.1.2-.1.2 0-.1.1 0 .3 0 .4v-.4c.1 0 0-.2.1-.2-.1.3 0 .6.1.9-.2-.4 0-.8 0-1.2l-.1.1c0-.2.1-.4 0-.6-.3 0-.1-.4-.2-.5-.5-.3-1-.5-1.5-.6.6-.1 1.1.3 1.6.6.2-.1.2.1.2.2v-.3c-.1.1-.1-.1-.2-.2-.5-.3-1.1-.5-1.7-.7h0c.7.1 1.3.5 1.9.8v.2-.4c-.1-.1-.1 0-.1.1-.6-.4-1.1-.7-1.8-.9h0c.7.1 1.2.7 1.9.8v-.1c-.5-.2-1-.4-1.5-.8h0c.5.3 1 .6 1.6.7v-.1c-1.2-.5-2.4-1.3-3.4-2.2l-.4-.4c-.9-1.1-1.8-2.3-2.3-3.6-.4-1.1-.8-2.2-.8-3.4a10.79 10.79 0 0 0 1.8 4.9c.5 1.2 1.7 2.4 3 3.4h0zm-3.9-12.5c0-.1.3 0 .5-.1-.1-.1-.3 0-.5 0a3.79 3.79 0 0 0-.6 1.3c-.2 2.3-.1 4.5 1 6.4 0-.4.1-1 .4-1.3h0a3.08 3.08 0 0 0-.3 1.3l-.1.1c0 .1 0 .2.1.2.1-.4.1-.7.2-1.1.1-.1 0-.4.2-.4-.1.2-.2.4-.2.7-.2.3 0 .6-.1 1 .1-.4.2-1 .4-1.5h0c-.1.6-.4 1.2-.3 1.8h0c.1-.5.2-1 .4-1.5h0c0 .2-.1.4-.2.6-.1.4-.3.8-.1 1.2.1-.6.2-1.1.4-1.6h.1c-.2.5-.4 1.1-.4 1.6-.2.2.1.3.2.5.1-.1.3.1.3-.1-.1-.2-.3-.2-.4-.4 0-.2 0-.4.1-.5 0 .2-.1.3 0 .4h.1c.1-.4.1-.8.4-1.1-.1.3-.2.7-.3 1.1.1 0 .2 0 .2-.1l.2-.8c0-.1.1-.1.1-.1-.1.3-.2.6-.2.9.5 0 1.1 0 1.6.1s.9.4 1.3.4c-.1-.6-.4-1.1-.5-1.7.1-.2.4-.2.5-.4l-.6-.3c-.2 0-.2-.3-.4-.2 0 .2-.1.5 0 .7.2-.1 0-.5.2-.6v.4c-.1.4.3.8.1 1.2-.3 0-.7.1-1 0-.4-.5-1-.7-1.5-1.1-.1-.2-.2-.4-.2-.6.2.1.1.4.3.5l.4.3c.6.2 1 1.1 1.7.8 0-.1-.1-.2-.1-.3s0-.3-.1-.4c-.1.1-.3.2-.4.3l-.5-.5c-.2-.3-.6-.4-.7-.7h.1l-.1-.1c0-.1.1-.1.2-.1-.1 0-.1 0-.2-.1.1-.1.3 0 .4-.2l-.1-.1c.1-.1.2 0 .3 0l-.1-.1c.1-.1.2 0 .2 0 0-.2.2 0 .3-.1.1-.2.2 0 .4-.1.1-.1 0-.3.1-.4.1.4.1-.2.3-.1v.3c.1 0 .1-.1.2-.1v.1c-.1.1 0 .2.1.2v.1c0 .1 0 .1.1.2.1 0 0-.1.1-.1s0 .1 0 .2.1.1.1.1l.1-.2c.1.1 0 .2.1.3s.1-.1.2-.1v.2c.1.1.1-.1.2 0v.2h.2c0 .1 0 .2.1.2l.1-.1c0 .1.2.2 0 .3 0 0 0 .1.1.1v-.1s0-.2.1-.1c0 .1 0 .2.1.1h0v-.1a.9.9 0 0 0 .5.1c.1.1 0 .2.1.2l.1-.1c.1.1 0 .3.1.3.1-.2 0-.5.2-.7h.1v.6c0-.2.1-.4.2-.6h0c-.1.3-.1.8-.1 1.1 0-.3 0-.4.1-.7 0-.1 0-.3.1-.4v.1c-.2.1 0 .6-.1.8.2.3.4.6.4 1h0c-.1-.2-.2-.5-.4-.7.1.2.3.4.3.6 0 .4.2.8.2 1.3h.1c-.2.4-.2 1-.4 1.4l-.1-.1c.1.2-.3.3-.1.4 0 0-.1.1-.2 0-.1 0-.2.1-.1.2h.2c.4 0 0-.6.5-.6.1-.6.3-1.2.6-1.7.2-.5-.1-1-.1-1.5.1-.3.2-.5.2-.8-.1 0 0 .1 0 .2-.2.2-.2.5-.4.7.1-.5.4-.9.5-1.4l-.1.1c-.1.3-.2.7-.4 1 0 0-.1.1-.1 0l.4-1.1.2-.2v.1h.1c-.1-.3.3-.3.2-.6 0-.2-.2-.2-.3-.3-.9-.2-1.9-.5-2.6-1.1.2 0 .4.3.7.3.1-.1.1-.2.2-.3.7-.1 1.4 0 2.2-.1.3 0 .6-.1.9-.1.3-.5.3-1.1.5-1.6l-.6.1c-.3-.1-.2-.5-.4-.8 0-.1.1-.1.1-.1.1.2.1.5.2.7l.8-.2c.1-.3.2-.7.2-1-.1 0-.1-.1-.2-.2 0-.1-.1-.2 0-.2.2 0 .1.3.2.4.1-.2-.1-.3 0-.5.1-.1.1.1.2.1 0-.1-.1-.1 0-.2s.1.1.2.1l.1-.1c.1 0 .1.1.2.1h.3l-.2-.3c-.4 0-.8-.1-1.1.1-.2.1-.6.2-.5.5 0 .1-.2.2-.3.2-.4-.2-.8.2-1.1 0a2.55 2.55 0 0 1-1.6-1.6c0 .1.1.3.1.4-.1-.1-.1 0-.2 0s0-.2-.1-.3c-.2-.2-.1-.4-.3-.6 0 .2.1.2.2.4 0 .2.2.3 0 .4a.55.55 0 0 0-.3-.5c0-.2-.2-.2-.3-.4h.3l-.2-.2c0-.1.1 0 .2 0l-.3-.2c0 .1 0 .1-.1.1-.1-.1-.3-.1-.4-.1.1 0 .1.2.2.1.1 0 .2 0 .2.1s-.1 0-.1 0c0 .3.3.1.3.4-.1.1-.1-.1-.3-.1-.1.3-.3.5-.4.7.2.2.5-.1.7 0 .9.4.3 1.3.5 2 .2.3.6.4 1 .5.3.2.8.2 1 .5 0 .2.2.5-.1.7.5 0 .9-.1 1.4-.1l.1.1c-.4.1-.8.2-1.2.1-.1.1-.3 0-.5 0-.2-.2-.4-.3-.4-.6-.5-.2-1-.2-1.5-.4-.1-.1-.3 0-.4-.2-.2.3-.4.7-.4 1.1.1-.1.1-.3.2-.4 0-.1.1-.2.2-.3 0 .2-.2.5-.1.7.1-.2.2-.6.4-.8 0 .2-.1.4-.2.6 0 .1 0 .3-.1.3l-.5-.3c0-.7-.4-1.5.1-2.2.1-.3.1-.7.5-.7.3.5.1 1.1.2 1.6l.2.2c.5.2 1 .2 1.5.4.4 0 .2.5.5.6.1-.1.2-.1.2-.2 0-.2 0-.5-.3-.6-.6-.1-1.1-.4-1.7-.7-.1-.6.1-1.2 0-1.8-.2-.3-.6-.3-1-.2-.1 0-.2-.1-.2-.2.1-.3.4-.5.3-.9-.1-.2-.3-.2-.5-.3l.1-.1h.1v-.1c-.1 0-.2 0-.2.1-.4.2-.4.6-.4 1-.2.3-.4-.1-.6-.1-.7-.4-.9.4-1.4.7-.6.3-1-.2-1.5-.3-.1-.1-.2-.3-.4-.3-.1.1-.2.2-.2.3.1.1.2.1.2.2.6.2 1.2.8 1.9.7v-.1c.1 0 .2 0 .3-.1-.2-.2.2 0 .2-.2 0-.1-.1 0-.1-.1l.2-.1v-.1c.1-.1.2 0 .3 0v.1c-.4.2-.3.7-.5 1.1-.1.3-.4.7-.2 1 0-.1 0-.2.1-.2h.1l-.1.4c.1 0 .1-.2.2-.3.1.1 0 .2 0 .3s-.2.2-.1.3c0-.1 0-.1.1-.2h.1c0 .2-.1.3-.1.5h0s0-.1.1-.1v.6c.1 0 0-.1 0-.2.2-.2.3-.3.6-.3.2 0 .5.1.7 0-.3.3-.8-.1-1.1.2-.2.2.1.3 0 .5-.1 0 0-.2-.2-.2v.2c-.3.4-.8.6-1.3.8h0c0-.2.2-.2.3-.3-.6-.2-.3-.9-.5-1.4-.1.1-.1.3-.2.4-.1-.2.2-.5.2-.7-.2.2-.2.5-.3.7h0c.1-.3.1-.6.3-.8h0c0-.1 0-.2-.1-.3-.1.1-.1.2-.1.3-.2.2-.1.6-.4.8.1-.5.3-.9.5-1.4l-.1-.1c-.2.6-.4 1.1-.5 1.8 0 .1.1.2 0 .3-.4-.2 0-.6-.1-.9.1-.5 0-1.1.3-1.4.1 0 .3-.1.4.1.2.7.4 1.4.5 2.1l.2.1c.1-.2.2-.5.3-.7-.2-.6-.2-1.4-.6-2-.2-.3-.7-.2-1-.2l-.4.6c.1.8-.1 1.7-.1 2.6.2-.1.3-.3.5-.3a.55.55 0 0 1 .3.5c-.2.2-.5.3-.8.6l-.2.9c0-.3 0-.7.1-1h-.1c-.1.2-.1.4-.2.5 0-.3.3-.7.1-1-.1.2-.2.5-.2.7H45c-.1-.3.1-.7.2-1 0-.2.1-.4 0-.5-.2.4-.2.7-.3 1.1h0c0-.4.1-.7.3-1.1.4-.5.1-1.3.2-1.9.1-.3.3-.5.4-.7.2-.2.5 0 .7-.1.9.1.7 1.2 1 1.8.1.2 0 .5.3.6.1 0 0-.1 0-.2-.1-.6-.5-1.2 0-1.7.1-.2.3-.5.2-.7l-.2.1c-.4-.1-.9-.1-1.2-.3-.4-.1-.7-.4-1-.5-.1-.2-.3-.3-.2-.5h.1c0-.2-.3-.2-.3-.2 0-.1.3 0 .3 0h.2c.5.3 1 .6 1.5.8.6.2.8-.3 1.1-.6.2-.4.7-.2 1.1-.1.1 0 .1.2.3.1.1-.4.1-.8.3-1.1a.76.76 0 0 0 .4-.2c-.9.3-1.9-.1-2.8-.1h0c.7.1 1.4.2 2.2.2h.1c-.8 0-1.6-.1-2.4-.2h-.1c.6.1 1.3.2 2 .2.1 0 .2 0 .2.1-1 .1-1.9-.1-2.9-.2.1.1.3.1.5.1.6.1 1 .2 1.6.2-.1.2-.2 0-.4.1.1 0 .3 0 .4.1.1 0 .2 0 .1-.1.2 0 .4-.1.6.1h0-.1c-.1-.1-.3 0-.4 0 .1 0 .1.1.2.1l-.1.1c-.4-.1-.9 0-1.2-.3-.7 0-1.4-.2-2.1-.2h0c.6 0 1.3.2 1.9.2 0 .3.3.1.5.3h-.1c-.3-.2-.8.1-1.1-.2.1 0 .4.1.5 0-.5 0-.9-.2-1.3-.1-.3-.1-.6.2-.9 0v.1h.4c.4 0 .8.1 1.2.1-.1.2-.4 0-.6.1 0-.1-.2-.1-.3-.1.1.3-.2.1-.4.1.1 1.5-.1 1.6-.2 1.5h0zm1.6 28.4c-.4.5-.8 1-1.2 1.4-.5.5-1 1-1.6 1.3 1-.9 2-1.8 2.8-2.7zm3.5-2.8c0 .5-.3.9-.5 1.3-.5 1-1 2-1.6 2.9l.1-.2-.2.3c.6-1.5 1.6-2.8 2.2-4.3h0zm-.3 1.3c-.1.9-.3 1.8-.7 2.6.2-.8.5-1.7.7-2.6h0zm3.2 2.4c0 .1-.1 0 0 0-.1-.7-.4-1.3-.6-2v-.1a8.3 8.3 0 0 1 .6 2.1h0zm-1.2-2.7h0-.1v-.1l.1.1zm-.1-.3h0c-.1.1-.1 0-.2 0h0c.1-.1.1 0 .2 0zm4.4-.3c0 .1-.1.1-.2.1 0-.1.1-.1.2-.1 0-.1 0 0 0 0zm-.8.5s-.1 0 0 0c-.1 0-.1-.1-.1-.2.1 0 .1.1.1.2zm-4.2.1c0-.1 0-.1-.1-.1l.1.1zm.2.8c0-.1-.1-.2-.2-.2v.1c0 0 .1.1.2.1zm0 .4c0-.1-.2-.2-.3-.3 0 .1.3.2.3.3zm0 .3c-.1-.1-.1-.2-.2-.3 0 .1.2.1.2.3zm0 .2s-.1-.2-.2-.2c-.1.1.1.1.2.2zm-.7 2.3c-.1-.1.1-.2.1-.3 0 .1-.1.1-.1.3zm-18-9c-.1 0-.2.1-.2.1 0 .2-.1.6 0 .8a6.22 6.22 0 0 0 .9 2.6c.1.1.3.4.5.4.3.2.4.5.6.8.1.2.3.4.2.6a27.68 27.68 0 0 0 .6 1.6c.4.6.7 1.6 1.6 1.6h0c-.8-1-1.4-2.1-1.7-3.2-.2-.9-1-1.5-1.5-2.3-.2-.3-.2-.8-.6-.9 0-.1-.1-.2.1-.3-.4-.5-.5-1.2-.5-1.8h0zm1.8 5.2c-1.1-1.5-2.3-3-2.3-5.1l-.2.1v.8c.2 1.3.7 2.7 1.7 3.6-.1-.2-.3-.4-.4-.6.1.1.3.3.4.5.6.7.4 1.6.9 2.4.3.5.4 1.3 1.1 1.4-.5-1-.8-2-1.2-3.1zm22.2-5.2h0c.6.6 1.3.9 2.1.9a3.01 3.01 0 0 0 3-3v-6l-5.1 8.1zm-5.6 1.9a1.08 1.08 0 0 0-1.4.2c-.1.2-.2.5-.1.8s.4.5.8.6.8-.2 1-.5c.1-.2.2-.5.1-.7l-.4-.4zm-.2.2c.2.1.2.3.2.5 0 .3-.2.5-.5.6s-.6 0-.9-.2c-.1-.2-.1-.4 0-.6.1-.3.4-.4.6-.4.3-.1.5 0 .6.1h0zm.1.3c-.1-.3-.6-.5-.8-.1-.1.1-.2.3-.1.4 0-.1.1-.1.2-.1-.1.1-.1.2-.1.3s.1.1.1.1v-.1c.1-.3.1.2.2.2v-.3c.2-.1 0 .3.3.2 0 0 0-.1.1-.1-.1 0-.2 0-.2-.1.1-.1.2.1.3 0v-.4zm3.8-2.4c-.2-.2-.3-.5-.6-.5-.9.9-1.7 1.7-2.8 2.4h0c.2.1.5-.1.8-.2s.5-.3.9-.4c-.1.1-.2.1-.3.2.4-.1.8-.5 1.2-.6 0 .2-.2.2-.3.3-.7.4-1.4.7-2.1.9v.1h.4s-.1 0-.1-.1l1.2-.3c-.4.1-.6.3-1 .3.6-.1 1.2-.2 1.7-.5h0c-.1.2-.3.2-.5.3.5-.1 1-.3 1.5-.6h0c-.1.1-.2.2-.3.2.3-.1.7-.2.8-.6-.1-.2-.3-.6-.5-.9h0zM52 253.8c0-.1 0-.3-.1-.3-.2.1 0 .2.1.3zm6.5 5.1c0-.3.3-.6.1-.9l-.2.9c-.1.6-.5 1.1-.7 1.6 0 .1-.1.1-.1.2.1.1.2.3.3.3.2-.3.3-.7.6-1a.76.76 0 0 1-.2.4c-.1.3-.2.5-.3.8 0 .1.1.1.1.1.5-.8 1-1.6 1.1-2.5 0-.2.2-.6 0-.6-.2.6-.3 1.3-.7 1.8h-.1c.2-.5.5-1.1.5-1.7 0-.1 0-.2-.1-.1-.1.9-.6 1.6-1 2.4-.1.1-.1.3-.2.4h0c.4-.8.7-1.4.9-2.1h0zm0-.8s-.1 0 0 0c-.2.2-.2.5-.3.7-.2.2-.2.6-.4.8 0-.2.2-.4.1-.6-.2.4-.5.9-.5 1.3.1-.2.1-.4.3-.6h0c-.1.3-.2.6-.4.8l.2.2c.4-.9.8-1.7 1-2.6h0zm-.4-.7c.1-.1.1-.3 0-.5-.1.3 0 .7-.1 1-.2 0 0-.2-.1-.3-.1.1-.1.2-.1.3-.3.5-.1 1.2-.3 1.7.1-.2.2-.4.3-.7.1-.2.2-.3.2-.6 0-.2.1-.6.1-.9h0zm1.4 1.5c0-.3.2-.6.1-.9-.1.1 0 .3-.1.4l-.2.8c-.1.8-.7 1.4-1.1 2.1-.1.4-.1 1-.5 1.3.1.1-.1.3 0 .4.2-.3.3-.6.4-1h.1c-.1.4-.2.8-.4 1.1-.1.2-.3.4-.2.5.3-.5.5-1 .7-1.6.4-.6.7-1.2 1-1.8-.1-.3.1-.6.2-.8s.1-.5.3-.6c0 .4-.2.8-.3 1.2l.1.1c-.3.5-.6 1.1-.9 1.7l-.2.2c-.1.6-.4 1.1-.6 1.6h0c.5-.8.9-1.7 1.4-2.5h0c-.5.9-.8 1.9-1.3 2.7.5-.6.9-1.5 1.3-2.3h0c-.4 1.2-1.1 2.2-1.8 3.1l-.2.1s-.1.1 0 .1c.1-.1.1-.2.3-.3 1-1.1 1.6-2.2 2-3.5h0c-.1.1-.1.2-.2.3 0-.2.2-.4.2-.6.4-.4.3-1 .4-1.5l-.1.1c-.1-.3.2-.6.1-.9l-.1.1c-.1-.2.1-.5 0-.6-.1.2-.1.4-.2.6-.1 1.2-.8 2.1-1.4 3.1 0 0-.1.1-.1 0 .5-.8 1.1-1.7 1.3-2.7h0zm-1.6-2.8l-.6-.9c-.3-.1-.7-.1-1 0-.4 1.1-.4 2.4-1.2 3.4-.5 0-1-.1-1.5-.1-.2 0-.4 0-.6.1.5.4 1.1.4 1.5.7.1.1.3.1.5.2-.1.1 0 .1 0 .2-.3 1 .1 1.9-.4 2.8 0 .4.1.8 0 1.3 0 .6.2 1.2-.1 1.7-.3 0-.4.3-.7.3v.1c.3-.1.7-.1 1-.2.1-.5 0-1 .2-1.4-.1-.2 0-.3.1-.4-.1-.1 0-.2 0-.2-.1 0 0-.1-.1-.2.2-.1-.1-.2.1-.3 0-.2.1-.4.1-.6-.1-.1.2-.2 0-.3.2-.1.1-.3.2-.4h-.1c.1-.1.1-.1.2-.1v-.1h-.1s-.1 0-.1-.1.2 0 .3-.1l.1-.3h-.2s-.1 0-.1-.1c.1-.1.2-.1.3-.1v-.1c-.1 0-.2.1-.3 0 .1-.1.5-.1.4-.4h-.2c-.1 0-.2 0-.2-.1.1 0 .2-.1.3-.1h-.2c.1-.1.3-.1.4-.2-.1 0-.3.1-.4-.1.2 0 .3-.1.5-.1.1-.2.3-.4.2-.7 0-.1-.2-.3 0-.3l-.1-.1c.1-.1.2 0 .2 0s.1 0 .1-.1h-.1c-.1 0-.2-.1-.2-.2h0s.1.1.2.1h0c-.1 0-.2-.1-.2-.2.1 0 .3.1.4 0-.1 0-.3 0-.3-.2h.4c.1 0 .1.1.2 0-.2-.1-.4-.1-.5-.2.1-.1.2-.1.3 0l-.2-.2c.1 0 .3.1.4.1h.4c-.1.7 0 1.5-.2 2.2v.1c.1 0 .2-.1.3-.1.2-.8.3-1.6.2-2.6.1-.4-.4-.3-.5-.5l.1-.1c.2-.1.3-.3.5-.5.1-.3-.2-.4-.3-.5h-.5l-.2.8-.1.1c-.1-.1-.3.1-.4-.1.2-.5.2-.9.3-1.4 0-.3.3-.3.5-.2s.4.4.6.6c.3.3.7.7.9 1.1.1-.1-.3-.4-.5-.7h0zm-5.4 19.6l.4-.3v-.1l-.4.4zm-15.6-16.2h-.1l-.1.8c-.1-.2 0-.4 0-.6l-.3.3.2-.1c.1.1-.1.1 0 .2.2.4-.4.2-.5.4.1 0 .3-.2.5 0 0 0-.1.1-.2.1a.76.76 0 0 0-.4.2c.1 0 .1 0 .2-.1.1 0 .2-.1.2 0l-.3.1s-.2.1-.1.1.2-.1.3 0c-.1.1-.3.1-.4.2-.4.8-1.3 1.4-1.7 2.2-.2.5-.9.7-.9 1.3 0-.1.1-.2.2-.3.1.1-.1.4.1.5.6-.4.8.5 1.3.5.1-.1 0-.2.1-.3 0-.2-.2-.2-.3-.2 0-.1.1 0 .2 0 .2.1.2.4.3.5 0-.1 0-.3.1-.3v.1c0-.1 0-.2.1-.2l-.1.6c0 .2.1.4 0 .5.1.1.1.3.2.4l.1-.1c-.3-.3-.2-.8-.1-1.1.1.3-.1.7.2 1-.1-.1-.1-.3-.1-.6 0-.1 0-.3.1-.3v.4c.1.2 0 .5.2.6 0-.2-.1-.5.1-.5-.1.6.3.9.4 1.4h.1c0-.5-.5-.7-.4-1.1 0-.1 0-.2.1-.2 0 .2 0 .5.1.6.2.1.1.4.3.6-.1.1 0 .3-.1.4 0 0 0-.1-.1-.1v.2c.1.1.2 0 .4.1.3-.6-.5-1-.3-1.6h0c0 .5.4.8.5 1.2h.1c0-.3-.2-.6-.3-.9 0-.1-.1-.2 0-.3.1.4.4.7.5 1.2.4 0-.2-.2.1-.3 0 0 .1.1.2.1.1-.3-.5-.5-.3-.9 0 .2.1.4.3.6.1.1 0 .4.3.3v-.3c.1 0 .1.2.3.1 0-.2.1-.4.1-.6.1.1 0 .4 0 .5s.1.1.2.1v-.2c.1-.2 0-.6 0-.8 0 .2.2.5.1.7s0 .5 0 .7c-.1.1-.1-.1-.2 0 .1 0 .2.1.4 0 0-.1 0-.1-.1-.2l.1-.1c0-.1 0-.1-.1-.2.1-.1 0-.2.1-.3h0l.1.1c0 .1.1.1.1.1-.1-.4.1-1-.3-1.2h.2c.2.3.1.7.3 1h.1c.2-.1.5-.1.5-.4-.2 0-.4.2-.5.1v-.6c0-.1-.1-.2 0-.3.1.2.2.5.2.7h.1c.1-.3 0-.6 0-1h.1c0 .1.1.2.1.3s0 .4.1.5h.1c.1-.4 0-.7-.1-1.1.2.2.1.6.2.9h0c.2-.5 0-.9-.1-1.3h0c.2.4.3.9.2 1.3.3 0 .1-.2.2-.3 0-.4 0-.8-.2-1.1-.1 0-.2-.1-.2-.3.1-.1 0-.3.2-.3v.3c0-.1-.1-.2.1-.2v.1c0 .1 0 .1.1.1v-.2c-.2 0-.2-.2-.3-.2l-.2-1.1c-.1.2.1.4 0 .6-.1-.5-.1-1.2 0-1.8.1-.2-.1-.2-.2-.4-.1.2 0 .4-.1.6-.1.1.1.3-.1.4-.1-.4 0-.7 0-1.1 0 0-.1 0-.1-.1-.1.1-.1.4-.1.5v.5h-.1c-.1-.4 0-.7.1-1.1 0 0-.1 0-.1-.1-.1.2 0 .3-.1.5v.4c-.1-.1 0-.3-.1-.4l.1-.6c0-.1-.1-.1-.2-.1v.8h-.1v-1h-.1c-.1.2 0 .5-.1.8h-.1v-.9s-.1 0-.1-.1c-.1.1-.1.3-.1.5-.1.1.1.3-.1.3-.1-.2 0-.5 0-.8l-.1-.1-.1.1c0 .2 0 .5-.1.7-.1-.2 0-.6 0-.9H37l-.1.7c-.1-.3 0-.6 0-.8h0zm22.2-4.9c-.6-.5-1.2-.8-1.8-1-1-.3-2.3-.1-2.8.5-.1.2-.2.4-.1.6 0 .3.3.4.5.5.2-.1.1-.3.2-.4.4-.4 1.1-.4 1.7-.4.4.1.7.2 1.1.4 1.4.8 2.2 2.3 2.3 3.8l.1.1s-.1 0-.1.1c0 0 0 .1.1.1 0 0 .1 0 .1.1s-.1 0-.1 0c0 .1.1.1.1.2-.2.1-.1.4-.1.5 0 0 .1-.1.1 0-.1-.1-.1.1-.1.2 0 0 .2-.1.2 0-.1 0-.1.1-.2 0-.1.1.1.1.1.2l-.1.1c-.1.1.1.1.1.2-.1.1-.2.1-.2.2h.1c0 .1-.1.1-.2.1l.1.2c0 .1-.2.1-.2.1v.1c.1 0 .2 0 .2.1-.1.1-.1.1-.2.1l.2.1c-.1.1-.2.1-.2.1 0 .1.2 0 .2.2-.1.1-.2 0-.3 0-.1.1.1.1.1.2-.1.1-.1 0-.2 0-.1.1.1.1.1.2-.1.1-.1 0-.2 0-.1.1.1.2.1.3s-.2 0-.2.1.1.1.1.1c0 .2-.2.1-.3.1 0 .1.1.1.1.2 0 .2-.2 0-.3.1s0 .1.1.2c.1.2-.2 0-.2.1-.1.1.1.1.1.2-.1.1-.2 0-.2 0 0 .1.2.2.1.3-.1 0-.1-.1-.2-.1-.2.1.1.2.1.3-.1.1-.2 0-.2 0l-.1.1c0 .1.1.2.2.2v.1c-.1.1-.2-.1-.3-.1-.3.2.3.3 0 .4.1.1.1 0 .2 0 .1-.1 0-.1 0-.2.1-.1.2 0 .3 0 0-.1-.2-.2 0-.3l.1.1c.1.1.2 0 .2-.1-.3-.2.2-.1.2-.2H59c.1-.1.1 0 .2 0 .1-.1.1-.2 0-.2 0 0 .1-.1.2 0 .2-.1 0-.2 0-.3l.3-.1c0-.1 0-.1-.1-.2.1-.1.2 0 .3-.1v-.2l.2-.1v-.2c0-.1.1 0 .2-.1 0-.1-.1-.1 0-.2 0 0 0-.1.1-.1s0-.1 0-.2.1-.1.1-.1c.1-.1-.1 0-.1-.1h0c.3 0-.1-.3.2-.3-.1-.1.1-.2.1-.3-.1-.1 0-.2.1-.2 0-.1 0-.1-.1-.1 0-.1.2-.1 0-.2.3 0-.1-.3.2-.3-.1-.2.2-.3 0-.5.2-.1-.1-.3.1-.5v-.6c-.1-1.6-.7-3.2-1.9-4.2h0zm-1.7 6.2c-.1-.1-.2-.2-.3-.2-.6.4-1 1.1-1.4 1.7v-.1c.3-.3.5-.7.8-1h0l-.8 1.1c-.2.4-.7.8-.4 1.3.5-.8 1-1.7 1.7-2.4h0c-.1.2-.3.4-.5.6-.3.6-.8 1.1-1.1 1.7-.3.5-.4 1.1-.5 1.7.1 0 .1-.2.2-.2 0 .3-.3.4-.3.7 0 .1-.2.3-.1.4.2-.1.2-.4.4-.6h0c-.2.4-.4.7-.4 1.1h.2v-.1c.2-.4.4-.9.6-1.2h0c-.2.4-.4.7-.5 1.1l.6-.3c.4-.8.8-1.5 1.3-2.2h0c-.4.7-.8 1.4-1.1 2.1.1 0 .2-.1.2-.1.3-.6.6-1.2.9-1.7l.2-.1c.2-.2.1-.5.1-.7-.3-.2 0-.5-.1-.8-.2.2-.4.5-.5.8h-.1c.1-.1.2-.3.3-.4.2-.1.2-.4.4-.5a3.17 3.17 0 0 0 .5-.6c.6-.5-.2-.7-.3-1.1h0zm-3.5-1.6c-.6-.1-1.1-.6-1.8-.6 0 .1-.1.1-.1.2.7.3 1.4.4 2.1.8.1.2.1.4.1.6.1.2.1.6.1.8h.1c.3-.3.2-.8.4-1.2-.2-.3-.6-.4-.9-.6h0zm-2.5 2.1c-.1-.3-.5-.3-.8-.4-.2.1-.4.1-.5.3 0 .6.3 1.1.5 1.7 0 .1-.2.2-.3.2-1-.4-2.1-.8-3.3-.6.1.3.4.4.7.6.3-.1.6-.4.9-.2.2 0 .1.2.2.4.7-.1 1.5.2 2.1.4.1-.1.2-.2.2-.3-.1-.5-.2-1-.2-1.5 0-.2.2-.2.3-.3l-.4-.4c0-.1-.1-.2 0-.2l.2.3c.1.1.3.3.4.2-.2 0-.3-.3-.4-.4h.1c0 .1.1.2.3.2h0zM48 271.6c-.1 0-.3 0-.4.1-.1.2 0 .4 0 .6.1.2.2.3.3.5.1.1.2 0 .3.1.1 0 .3 0 .4-.1-.4-.3-.5-.8-.6-1.2h0zm.7-.1c-.1-.1 0-.3-.1-.3-.2.2-.6.3-.4.7.2.8 1 .8 1.6 1.1.2 0 .2.3.4.4v-.2h.1c.1.1 0 .1 0 .2h0v-.2c0-.1 0-.1.1-.1 0-.1-.1-.2-.2-.3-.6-.2-1.2-.6-1.5-1.3h0zm1.6.5c-.6-.3-1.2-.8-1.2-1.5 0 .2-.2.4-.2.6 0 .8.9 1.2 1.5 1.5.2.1.2.5.2.7.1-.2 0-.3 0-.5 0-.1-.1-.3-.1-.4a.55.55 0 0 1 .3.5c0-.4-.3-.6-.5-.9h0zm-5.3.9s0 .1-.1.1c0-.1.1-.2.1-.1zm-.1.3c0 .1 0 .1-.1.1-.1-.1-.2.1-.3 0 0 0 0-.1.1-.2l.1.1h.2zm-.1.4l-.1.1h-.1c0-.1 0-.1.1-.2.1 0 .1.1.1.1h0zm.2 0c0 .1 0 .1 0 0-.1.1-.1.1-.1 0 0 0 .1-.1.1 0h0zm-.4 0s0 .1-.1.1-.1-.1.1-.1zm.1.3c0 .1-.1.1-.1.1 0-.1.1-.2.1-.1zm.2 0h0zm-.4 0s-.1.1 0 0l-.1.1c-.1-.1 0-.2.1-.1zm.3.3s0-.1 0 0h0zm-.2 0h-.1c0-.1.1-.1.2-.1l-.1.1zm-.3 0s.1.1 0 0c0 .1 0 .1 0 0zm.5.2c0 .1 0 .1-.1.1 0-.1 0-.3.1-.1zm-.2 0c0 .1 0 .2-.1.1h-.1c-.1-.1.1-.1.2-.1zm-.3.1c0 .1 0 .1-.1.1l.1-.1zm.1.3l-.1.1c0-.1 0-.2.1-.2s.1.1 0 .1zm.5-.1h0c-.1.1-.1.1-.1 0h.1zm-.7.1v.1c-.2 0-.1-.1 0-.1zm.6.3c-.1 0-.1-.1 0 0 0-.2.1-.2 0 0zm-.5 0h-.1.1c0-.1.1 0 0 0zm-.2 0v.1H44c0-.1 0-.1.1-.1h0zm.7.2c-.1 0-.1-.1-.1-.2h.1v.2zm-.3-.1c.1 0 0 .1-.1.1h-.1s.1-.1.2-.1zm0-.2h0zm-.6.1c-.1.1 0 .4-.2.4 0-.1 0-.4.2-.4zm.3.2v.1c0 0-.1 0 0-.1-.1 0 0 0 0 0h0zm-.2.1h-.1s0-.1.1 0c0-.1 0 0 0 0h0zm.7.1s0 .1-.1.1c0-.1 0-.2.1-.1 0-.1 0-.1 0 0h0zm-.3 0c0 .1 0 .2-.1.1-.1 0-.1 0-.1-.1h.2zm-.7.1c0 .1-.3.1-.1.3 0 0 0 .1-.1.1h0c0-.1 0-.3.2-.4h0zm.3.1h0zm-.1-.1c0 .1 0 .1-.1.2-.1 0-.1-.1-.1-.1.1-.1.1-.1.2-.1h0zm.7.1c0 .1 0 .1 0 0h-.1.1zm-.4.2c-.1-.1 0-.1.1-.1l-.1.1zm-.1 0H44h.1zm-.3 0s0 .1-.1.1c0 0 0-.1.1-.1zm.7 0v.1l-.1-.1s.1.1.1 0zm-.3.1c0 .1 0 .1 0 0-.1.1 0 0 0 0zm-.7.2l-.1.1v-.2l.1.1zm.2 0h0zm.8 0c0 .1-.1.1-.1.1v-.1h.1zm-.3 0c0 .1 0 .1-.1.1h0c-.1-.1 0 0 .1-.1zm-.8.3c0 .1-.1 0-.1 0l.1-.1v.1zm.5-.2c0 .1-.1.1-.1.1-.1 0 0-.1.1-.1zm-.3.1s0 .1 0 0h0c-.1.1 0 0 0 0h0zm.7.1c.1.1 0 .2-.1.2h-.1c.1-.1.1-.2.2-.2h0zm-.2.1s0 .2-.1.1h-.1c0-.1.1-.1.2-.1h0zm-.3 0c0 .1-.1.1-.1.1-.1 0 0-.1.1-.1zm-.6.1v.2h-.1c0-.1 0-.2.1-.2h0zm.3 0c0 .1 0 .1-.1.1h0c-.1 0 0-.1.1-.1zm.6.3h0c-.1-.1 0-.1.1-.2 0 .1 0 .2-.1.2zm-.2 0s-.1 0-.1.1c0-.1 0-.2.1-.2 0 0 0 0 0 .1zm-.8 0c0 .1 0 .2-.1.1 0 0 0-.1.1-.1zm.5 0h0c-.1 0 0 0 0 0h0zm-.2.1h0c-.1 0-.1-.1 0 0h0zm.7 0c0 .1 0 .1-.1.1h-.1c0 0 .1-.1.2-.1zm-.4.2c-.1-.1 0-.1.1-.1 0 0 0 .1-.1.1h0zm-.9-.1c0 .1 0 .1-.1.1h0c0-.1 0-.1.1-.1h0zm.2.1s-.1.1-.1 0 .1-.1.1-.1v.1zm.3 0c-.1 0-.1.1 0 0h0zm.2 0l-.1.1c0-.1.1-.1.1-.1zm-.9.3l-.3.5c0-.2.2-.5.3-.7.1.1 0 .2 0 .2h0zm1.3-.1h-.1c0-.1 0-.1.1-.1s.1.1 0 .1zm-.3 0s0 .1 0 0l-.1.1.1-.1zm-.7 0c0 .1 0 .2-.1.2h-.1c0-.1.1-.2.2-.2zm.2.1c0 .1 0 .1-.1.1 0-.1.1-.2.1-.1zm.3 0s-.1 0 0 0l-.1.1c-.1-.1 0-.2.1-.1h0zm.5.1c0 .1 0 .2-.1.2h-.1c0-.1 0-.3.2-.2zm-.4.1c0 .1 0 .2-.1.2 0 0-.1 0-.1-.1.1-.1.2-.1.2-.1zm-.7 0c0 .1-.2.2-.2.3-.1-.1 0-.3.2-.3zm.3.2c0-.1 0-.1.1-.1 0 0 0 .1-.1.1zm-.1-.1l-.1.1c-.1-.1 0-.1.1-.1h0zm1.5 1.6c-.3 0-.6.1-.9.1.3 0 .7.1.9-.1zm-6.4-6.5l.1-.2c-.1 0-.2 0-.2.1l.1.1zm2-1c.1-.2.3-.3.2-.5.1.2-.1.3-.2.5zm-4-.6c-.2 0-.3.2-.4.4-.1-.1.1-.2 0-.3-.2.1-.2.4-.2.6.1.1.3.2.2.3.2.3.6.2.9.2-.2.2-.5.2-.8.1 0 0 0 .1.1.1 0 .1.1.2.1.3l-.1.1c.2.1.4 0 .5 0-.3.3-.7-.1-.9.2.1.3.5 0 .7.1l.5-.3c.3-.2.2-.6.4-.8l-.3.1c-.1-.1.1-.2.1-.3h0l-.2.1c-.3.1-.7.3-.9.1.1-.1.3 0 .5 0 .2-.1.4-.3.6-.5 0-.1.1-.3 0-.5l-.1.2c-.1-.1-.2.2-.4.2-.1.1-.2 0-.3 0 0-.1 0-.3.1-.5h0c-.2.1-.4.3-.4.5h0c0 0 .2-.2.3-.4h0zm-.3 1.3h0c-.1 0-.1 0 0 0zm0 .2h0l-.1-.1c0 0 0 .1.1.1zm-.1.2c0 .1-.1 0 0 0zm.7-1c-.2 0-.3 0-.3-.2v-.1c0 .2.1.3.3.3zm.1.8c-.1.1-.3.1-.4.1h0c.1-.1.3-.1.4-.1zm3-1.4c0-.2.1-.4 0-.6 0 .4-.2.9-.6 1.1.1-.1.2-.3.3-.5 0-.2.1-.4.1-.5 0 .1-.1.2-.1.3-.2.6-.8 1-1.4 1 .2.2.5 0 .7-.1-.1.1-.2.1-.3.2.5.1 1-.4 1.3-.9h0zm-.4-.3c-.1.5-.6 1-1 1.1-.1 0-.1.1-.2 0 .4-.1.8-.4 1.1-.8l.1-.4v.1zm-.3 0c-.1.3-.2.7-.6.8-.1 0-.1.1-.1 0 .3-.2.6-.5.7-.8h0zm-.1 1c0-.1.2-.1.2-.2l-.2.2zm2.8-1.2h0zm-2.5-1.8c-.2.1-.3.3-.4.5-.2 0-.1-.3-.2-.4l-.2.1c.1.2.2.5.1.7.1.3.1.6.3.9.1 0 .1.1.2 0-.3-.2-.3-.6-.2-.8-.1-.4.1-.7.4-1h0zm.7.1c-.1.3-.4.4-.3.8.1.2 0 .4.2.5 0-.1-.1-.3-.1-.4a.76.76 0 0 1 .2-.4c-.1.3-.1.6.1.8.1-.1-.1-.2 0-.3 0-.1 0-.2.1-.3a.47.47 0 0 0 .1.6h.1c0-.1-.1-.2 0-.3h0c0 .1 0 .3.1.4-.2.2-.4.2-.7.1-.1-.1-.2-.2-.2-.3-.1-.5 0-1 .4-1.2h0zm1.7.3h0c0-.1-.1-.1 0 0zm0 1c0-.1.1-.3 0-.5 0 .2.1.3 0 .5zm-.1 0c0 .2-.2.4-.4.5-.1 0-.2.1-.3 0v-.1c.2.1.4-.1.5-.2 0-.1.1-.1.1-.2h0c-.1.1-.2.4-.4.3.1-.1.4-.3.3-.5v-.1c-.1.1 0 .3-.2.3 0-.1.1-.3-.1-.4.1 0 .2-.1.3 0s.1.2.2.2c.1-.1-.2-.3.1-.3-.1.2-.1.3-.1.5h0zm-1-.1h-.1s-.1-.1 0-.1c.1-.1.1 0 .1.1zm-1.9-.9s-.1-.1 0-.2v.2zm-6 .3v-.4c-.1.2-.1.3 0 .4zm9.4.5c0-.1 0-.2-.1-.2v.1c-.1 0 0 .1.1.1h0zm-.1.2c0-.1 0-.1-.1-.2l.1.2c-.1 0 0 .1 0 0h0zm-7.5-12.7c-.1-.1-.2.1-.1.1h0s.1 0 .1-.1zm6.2.3c0 .1-.1 0-.1 0v-.1c0 .1 0 .1.1.1zm-1.4.3c0 .3.3.5.4.8h-.1c-.2-.2-.3-.5-.3-.8h0zm1.5.7c.3.2.1.5 0 .8.3.4.7.7 1 1.1l-1.1-1.1c0-.2.2-.3.1-.5 0-.1-.3-.1-.1-.3-.3-.1-.3-.4-.4-.6.2.2.2.5.5.6h0zm-.6.9c-.1-.2-.5-.5-.7-.8h0c.6.5 1.1 1.1 1.6 1.7-.2-.3-.6-.6-.9-.9h0l.8 1c-.4-.4-.9-.9-1.3-1.4l-.9-.8 1.4 1.2zm.5 1.1c-.7-.8-1.5-1.6-2.3-2.2.9.5 1.7 1.3 2.3 2.2zm3.5-.8h0L43 259c.3.4.6.9.9 1.4h0zm-5.6-.7l-.8-.6.8.6zm3 1.6h0c-.5-.5-1-1.1-1.5-1.5.6.4 1.1.9 1.5 1.5h0zm.5-.2h0l-.6-.7c.2.1.4.4.6.7h0zm-2.6-3.9h0c-.4-.2-.7-.6-.9-.9l.9.9zm.3-.3c-.2-.1-.3-.4-.5-.5.1.1.4.3.5.5zm-.2.1l-.7-.7.7.7zm-.4.3l-1-.9c.4.3.7.6 1 .9h0zm2-.6l-.1-.3c.1.1.2.2.1.3zm-.7-.1c-.1.7-.5 1.2-.4 1.9.1.3.3.5.5.8h-.1c-.4-.6-.8-1.3-.4-1.9h.1l.2-.6c0 0 0 0 .1-.2 0 0-.2 0-.1-.1.1 0 .1.1.1.1h0zm-1.6.8c-.1 0-.2-.2-.3-.3-.2-.1-.4-.3-.5-.5.2.2.6.4.8.8h0zm-.4-.1c-.2-.2-.5-.5-.8-.7.3.2.6.5.8.7zm1.4-.6l-.1-.1c0 0 .1.1.1.1zm-1.8.5c-.3-.1-.5-.4-.7-.6h0c.3.2.5.4.7.6h0zm-.8-.2l-.3-.3.3.3zm.4.1h0c-.2-.1-.4-.3-.5-.4.2.1.4.2.5.4zm3.7-.1c-.1 0-.1 0-.2-.1 0-.1.1-.1.1 0 0 0 .1 0 .1.1h0zm-.1.2c-.1.1-.2 0-.2-.1.1 0 .2 0 .2.1zm-.1.2c-.1.1-.2 0-.1-.1.1 0 .2 0 .1.1zm-.1.2l-.1-.1c0 0 .1.1.1.1zm-.1.1c-.1.1-.1 0-.2 0v-.1c.1.1.3 0 .2.1zm-1.4.5v.2c-.2-.2-.5-.3-.7-.4 0 0-.1-.2-.1-.1l-.1.2c-.1 0 0-.1 0-.2s.1-.1.2-.2c.2 0 .6.2.7.5h0zm-1.2.1l-.7-.2.1-.1c-.2-.1-.5-.1-.7-.2.4-.1.9 0 1.2.3 0 .1.1.1.1.2h0zm2.4-.4h0c0-.1 0 0 0 0zm0 .2h0c-.1 0-.2 0-.2-.1 0 0 .1 0 .2.1h0zm-5-1.2c-.1 0-.2-.1-.2-.2 0 .1.1.2.2.2zm-.1.2l-.5-.3c.2 0 .3.2.5.3zm.5.5c-.5-.2-.9-.5-1.4-.7v-.1c.6.3 1 .5 1.4.8zm1.2 1.1c-.9-.6-1.8-1.2-2.8-1.6v-.1c1 .3 1.9 1 2.8 1.7h0zm.2.3c-1-.6-2-1.4-3.2-1.7l-.1-.1c1.3.4 2.3 1.1 3.3 1.8zm2.6-3.9h0c-.1-.2 0-.3 0-.5.1.1.1.4 0 .5zm-.9.6c-.1.1-.3.1-.4.2-.2-.2-.3.2-.4-.1v.1l-.1-.1c.2-.2.5 0 .9-.1-.1-.1 0-.1 0 0zm-1.1.2h0zm5.8 3v.2h-.1c-.2-.3-.2-.7-.4-.9-.2-.6-.5-1.3-.5-2 .1.4.1.8.3 1.1v-.2l-.1-.8c0 .2 0 .4.1.6.1 0 0-.1.1-.2.1.4.2 1 .2 1.3.2.1.4.9.4.9zm-1.6-.6c-.1-.3-.3-.6-.4-.9.3.6.8 1.3 1.1 1.9-.2-.2-.3-.5-.5-.7l-.2-.3zm.1.4c0 .1.1.1.1.2-.4-.5-.8-1.1-1-1.7.2.4.4.8.7 1.2l.2.3zm1.1 1.2h0c-.4-.6-.9-1.1-1.1-1.8.4.6.7 1.2 1.1 1.8h0zm.3-2.2c-.1 0-.1-.2 0-.3-.1.1 0 .2 0 .3zm-3.2-1.3l-.1-.1c0 .1.1.2.1.3-.2-.1-.3-.3-.5-.4-.2-.2-.6-.2-.6-.5.4.2.9.3 1.1.7h0zm3.2 2c0-.2-.1-.4-.1-.6h0c.1.5.2.9.3 1.3-.1 0-.1-.1-.1-.2l-.1-.5zm-5.7-2.7c-.1 0-.1-.2 0-.2s.1.1 0 .2zm-1.7 12.7h0c-.1-.1 0-.2 0-.2v.2zm.1 0c-.1.2 0 .4.2.5-.1 0-.2-.1-.2-.2-.1 0-.1-.2 0-.3h0zm-1.3.5c-.1 0-.1-.1-.2-.2 0-.2.1-.4 0-.5-.1 0-.1.1-.1.2 0 .2.1.3.1.5-.1-.1-.1-.3-.1-.5 0-.1 0-.2.1-.2.1.1.2-.1.3-.2-.2.2-.3.7-.1.9h0zm-1.1-.3h0l-.4.1c.1-.1.3-.2.4-.1zm1.3-.5c-.1.2-.1.4-.1.6 0 .1 0 .1.1.2-.1-.4.1-.6 0-.8h0zm-.4-2.6zm0 .1h0v-.1.1zm.4 3.2s0 .1 0 0c0 .1 0 0 0 0zm6.9 0h0zm-5.8-8.7s0 .1.1.1c0 .1-.2.1-.3.1.1 0 0-.3.2-.2zm2.7.9c0 .3-.1.6-.1 1-.1-.4-.1-.6.1-1h0zm.1.7c-.1.4-.1.9 0 1.3-.1.1 0 .2 0 .2-.1-.6-.2-1.3-.1-2 .3 0 .1.3.1.5zm.4-.2c-.2.3-.2.9-.2 1.3-.2-.3-.1-.6-.1-1l.1-.4c.1-.1.1 0 .2.1h0zm.1.9c-.2 0-.1-.3-.2-.4.1-.1.1-.3.1-.5l.1.1v.8zm.3-.6c.1.2-.2.2-.1.4-.2 0 0-.3-.1-.5.1 0 .2.1.2.1h0zm.2.3c-.1.2-.1.4-.1.6h-.1c0-.2 0-.4.2-.6h0c0-.1 0-.1 0 0h0zm.3.2c0 .1 0 .1-.1.1h-.1v-.2c.1 0 .2 0 .2.1zm-.6.3s-.2-.1-.1-.2c.2 0 .1.1.1.2h0zm.8-.1c0 .1 0 .2-.1.2-.1-.2-.1-.3.1-.2 0-.1 0-.1 0 0h0zm-1 .1s-.1 0 0 0c-.1 0-.2-.1-.1-.1l.1.1zm.7-.1v.1c-.1.1-.1.1 0-.1-.1.1 0 0 0 0zm.4.6c0-.2 0-.3.1-.5 0 .1-.1.3-.1.5zm-.9-.2h0c-.1 0-.1-.1 0-.2v.2zm.7-.1l-.1.1.1-.1zm-1 0h0zm.8.1h0c-.1-.1-.1-.1 0 0h0zm-.3 0h0c0-.1 0-.1 0 0zm-.7.1h0l-.1-.1c.1 0 .1.1.1.1zm.3 0h0zm.9 0s-.1.1 0 0h0zm-.3 0h0zm-.4.2s-.1 0 0 0l-.1-.1c.1-.1 0 0 .1.1zm.9 1.5c-.1-.5-.2-1.1-.2-1.5l-.1.1c0 .4 0 .7.1 1.1h-.1c-.2-.3-.1-.6-.2-.9-.1 0-.1.1-.1.1.1.3.1.7.3 1l.1-.1c.2-.1.1.1.2.2h0zm-1.1-1.4h0c-.1 0-.1 0 0 0zm1.1.4c-.1-.1 0-.3 0-.4v.4zm-.6.5c-.1-.2-.1-.5-.2-.6v.5s0 .1-.1 0 0-.3-.1-.5l-.1.1c-.1 0 0-.1-.2-.1-.2.3.2.6.1.9.1.3-.1.6 0 .7.2-.4 0-1 0-1.4.3.3.2.9.2 1.2h.1v-.8h.3zm-.7-.4c-.1 0-.1 0 0 0 .1.6.1 1.3.1 1.9l.2-.1c0-.2.1-.3 0-.4-.1-.5-.1-.9-.3-1.4h0zm1.4.6c.1 0 0-.2 0-.3 0 .5.1.9 0 1.4l.1.1c-.1.1-.2.2-.2.3l.1-.1c.2-.4.3-1 0-1.4h0zm-.6.3c.1-.2 0-.4-.1-.5.1.2.1.4.1.5h0zm.3 0c0-.1 0-.1 0 0h0zm.6.1v-.1l-.1-.1.1.2zm-.9.1h0v-.1.1zm.3 0v-.1c-.1.1-.1.1 0 .1-.1.1 0 0 0 0zm.2.4v-.4c.1.3-.1.4-.1.6.1 0 .1-.1.1-.2zm-.4-.3c-.1 0-.2.1-.2.2 0 0-.1 0-.1.1h0c.1 0 .3-.1.3-.3h0zm.1.3c.1 0 .1-.1.1-.2-.1 0-.1.2-.1.2 0 .1 0 0 0 0zm-.5.1c0-.1-.1-.1 0 0-.2 0-.1.1-.1.2 0-.1.1-.1.1-.2zm.3 0c-.1 0-.2.1-.2.1s-.1.1 0 .1.1-.1.2-.2zm1.2.6c-.1-.2 0-.3 0-.5-.1.2 0 .4 0 .6v-.1zm-1-.5c-.1 0-.3.1-.2.3h0c.2-.1.2-.2.2-.3zm-1.1 0c-.1 0-.1 0-.2.1v.2c.2 0 .2-.2.2-.3zm1.3.3c.1 0 .1-.1.1-.2-.1 0-.2.2-.1.2zm-.8-.1c0-.1 0-.1 0 0-.1 0-.1.1-.1.1.1 0 .1-.1.1-.1h0zm.3 0c-.1 0-.1.1-.2.1 0 .1-.1.2 0 .2.2 0 .2-.2.2-.3zm-.5.1c-.1 0-.2.1-.2.2h0c.1 0 .2-.1.2-.2h0zm.8.1c-.1 0-.3.1-.2.3.1-.1.2-.2.2-.3zm-1.2 0s-.1 0 0 0c-.1.1-.1.1 0 .1s0-.1 0-.1zm.5.2c0-.1.1-.2 0-.2s-.1.1-.1.2.1 0 .1 0zm.8 0c0-.2-.2.2-.3.2.2-.1.3-.1.3-.2zm-1.5 0h0l-.1.1c.1 0 .1-.1.1-.1zm.5 0c-.1-.1-.2 0-.2.1l.2-.1c0 .1 0 0 0 0zm.9.5c.2-.1.4-.3.4-.5-.2.1-.4.3-.4.5zm-.7-.2c.1 0 .3-.2.3-.3-.1 0-.1.3-.3.1-.1 0-.1.1-.2.2.1.1.1 0 .2 0zm-.9-.2s-.1-.1 0 0h0c0 .1 0 0 0 0h0zm.3.1l.1-.1-.1.1zm-3.8.3a.76.76 0 0 0-.2-.4c0 .2.1.3.2.4zm3.3-.3h-.2v.1c.1-.1.2-.1.2-.1zm.4 0h0l-.1.1c.1 0 .1-.1.1-.1zm-3.2.4l-.2-.4c-.4 0 .2.2 0 .3.1.2.2.2.2.1h0zm3.8 0c.2 0 .2-.2.4-.3-.1 0-.4.1-.4.3zm2 .1c.1-.1.2-.3.1-.4-.1.4-.4.6-.6.9-.2.1-.4.3-.6.3-.2.1-.2.3-.2.5.1.1 0 .2.2.3.1.1.2.1.3 0-.1 0-.2-.2-.3-.3-.1-.2.1-.3.2-.5.3-.2.6-.5.9-.8h0zm-2.9-.3h0c0-.1 0-.1 0 0h0zm.6-.1c-.1 0-.1.1-.1.2h0c.1-.1.2-.1.1-.2zm-.7.1s-.1 0 0 0c-.1-.1-.2 0-.2.1.1 0 .1 0 .2-.1h0zm1.6 0c-.2.1-.5.2-.5.4.3 0 .4-.3.5-.4zm-1.9 0h0l-.1.1h.1v-.1zm.7.1c-.2-.1-.3.2-.5.3.1-.3.5 0 .5-.3zm-3.5.1l-.1-.1c0 .1.1.1.1.1h0zm4 .1c0-.1.1-.1 0-.2-.1 0-.2.2-.2.2h.2zm-1.7-.1c0-.1 0-.1-.1-.1s-.1.1 0 .1c0 .1.1.1.1 0zm-.2.1v-.1h-.1l.1.1zm1.6-.1c-.1 0-.3.1-.2.2h0c.2 0 .2-.1.2-.2zm-.9.1h0l-.1.2h.1v-.2zm1.8.3c0-.1.1-.2.2-.3l-.3.2c-.1.1 0 .3-.2.3-.1-.1 0-.1 0-.2-.1 0 0 .2-.1.3.2 0 .2-.3.4-.3zm-.6 0c.1-.1.1-.2.1-.2l-.1.1c0-.1 0 0 0 .1zm-3.8-.2l-.1-.1v.1c0 .1.1.1.1 0zm.2.1c-.2-.3-.1.2-.2.2 0-.1-.1-.1-.2-.1v.1c.2 0 .2.1.3.1 0-.1 0-.2-.1-.3h.2zm2.9-.1c-.1 0-.2 0-.2.1.1 0 .2 0 .2-.1zm-1.7.1s0-.1 0 0c-.2-.1-.1 0-.1 0 .1.1.1.1.1 0h0zm.3 0c-.1-.1-.1-.1 0 0l-.1.1.1-.1c-.1.1 0 0 0 0h0zm.2-.1h0zm1.8 0c-.1 0-.2.1-.2.2h.1c.1.1.1-.1.1-.2h0zm-.9.1c-.1 0-.2.1-.2.2h0c.2-.1.2-.1.2-.2zm3.8.5c.1-.1.2-.4.1-.5-.1.2-.1.4-.1.5zm-6.9-.5h0l-.1.8c.1-.1-.1-.2.1-.3-.1-.1.1-.3 0-.5zm3.6.2v-.1c-.1 0-.2.1-.2.2.1 0 .2-.1.2-.1h0zm-.8-.1c-.1 0-.2 0-.1.1h.1v-.1zm-.2 0c-.1.1-.3 0-.4.1 0 .2.2 0 .3.1 0-.1.1-.1.1-.2h0zm-1.4.1c0-.1-.1-.1-.2-.1v.1c.1.1.1.1.2 0 0 .1.1.1 0 0h0zm.8 0c-.2 0-.3 0-.4.1 0 .2.2 0 .3.1.1 0 .1-.2.1-.2h0zm-.5 0c0-.1-.2-.1-.1 0-.1.1 0 .1.1 0-.1.1 0 .1 0 0zm2.7 0c-.1-.1-.2 0 0 0h0c-.1.1 0 .1 0 0h0zm-.9 0c-.1 0-.2.1-.2.2h.1c.1 0 .1-.1.1-.2zm-.3.2v-.1c-.1 0-.1.1-.1.2 0-.1 0 0 .1-.1zm-.3-.1c-.1-.1-.1.1-.1.1h.1c0 .1 0 0 0-.1zm-.3.1h0c-.2-.1-.3 0-.4.1h.3c.1 0 .2 0 .1-.1h0zm-2.1 0s0-.1 0 0h0c0 .1 0 .1 0 0zm.9.1h0l-.1-.1v.1h.1zm2.4-.1c-.1 0-.2 0-.1.1h0c.1 0 .1 0 .1-.1zm-3.1.1s0-.1 0 0h0c-.1 0 0 0 0 0h0zm.9 0c0-.1-.2 0-.1.1l.1-.1zm.4.1c.1 0 .1-.3 0-.1v.1zm-.1-.1c0-.1-.1 0-.1 0s0 .1.1 0zm-1 .1v-.1c-.1 0-.1 0 0 .1h0zm.2 0s0-.1 0 0l-.1.1.1-.1c0 .1 0 0 0 0h0zm3.3.2l.1-.2c-.1 0-.1.1-.1.2zm-3.9-.1h0c-.1 0-.1 0 0 0zm.8-.1c-.1-.1-.2.1-.1.2.1 0 .2-.1.1-.2zm1.3 0c-.1-.1-.2 0-.2 0 .1.1.2.1.2 0zm.2 0s-.1 0-.1.1l.1-.1c0 .1.1 0 0 0h0zm-1.2.1c0-.1-.1-.1 0 0-.1 0-.1 0-.1.1h.1c-.1 0 0-.1 0-.1zm-1 .1v-.1h-.1c.1 0 0 0 .1.1 0 0 0-.1 0 0zm1.4-.1c-.1.1-.2-.1-.3 0 0 0-.1.1 0 .1h.3v-.1zm.3-.1c-.1 0-.1 0-.1.1 0 0 .1 0 .1-.1zm-1.5.3v-.2l-.1.2h.1zm.2 0s0-.1 0 0h0zm.2 0c-.1-.1-.1 0-.1.1l.1-.1c0 .1 0 0 0 0zm.3 0c-.1-.1-.1 0-.1.1h.1c-.1 0-.1-.1 0-.1zm.2.1v-.1l-.1.1h.1zm-1.1-.1c-.1 0-.1 0 0 0-.1 0-.1.1 0 0-.1.1 0 .1 0 0zm1.3 0c-.1 0-.1 0-.1.1h0c.1 0 .1 0 .1-.1zm.4.3c.1 0 .1-.1.1-.2 0 0-.1.1-.1.2zm-1.6-.2s-.1 0-.1.1h.1v-.1zm.1.3h-.1c-.1 0 .1 0 .1 0zm4.7-5.2h0zm-1.7 4.6h0c-.1-.1-.1 0 0 0zm4.7 1.9c-.3-.2-.7-.5-1-.8v.2c.3.2.7.5 1 .6h0zm-.1.5c-.3-.2-.7-.5-1-.8l-.1.2c.3.3.7.4 1.1.6 0 .1 0 0 0 0h0zm.1-.3c-.3-.2-.7-.5-1-.7v.1c.2.3.5.4.8.6 0 0 .1.1.2 0h0zm0 .4v-.1l-.1.1h.1zm-.1.2c-.4-.2-.8-.5-1.2-.8l-.1.1c.3.3.8.6 1.2.8l.1-.1zm.2-.5s0 .1 0 0h0zm.1.4c0-.1 0-.1 0 0-.1-.1-.1 0 0 0h0zm.2 0s0-.1 0 0c-.1 0-.2.1-.1.1s.1-.1.1-.1zm-.1.3c.1-.1 0-.1 0 0h-.1.1zm.2.1v-.1c0 0-.1 0 0 .1-.1 0 0 0 0 0zm0-1.8v-.1c0 .1-.1.1 0 .1zm-.5.2c-.1 0-.2.1-.4.1h.1c.2 0 .3.1.3-.1h0zm0 .3c.1 0 .2 0 .2-.1l-.2.1zm.3-.1c-.1.1-.1.1 0 0h0c0 .1 0 .1 0 0h0zm0 .3h0l.1-.1c-.1 0-.2.1-.1.1h0zm-.4 1c-.4-.3-.8-.5-1.2-.8v.1c.3.2.7.5 1.2.7zm.5-.8c-.1 0-.1 0 0 0h0zm-.1.3v-.1c-.1-.1-.1 0 0 .1h0zm.2 0c-.1 0-.1 0 0 0h0zm-.3.4c-.1-.1-.1 0 0 0h0c-.1 0 0 0 0 0zm3.1-2.2l-.3-.3c-.1 0-.3.1-.4 0 0 .2.2.4.4.6.7.8 2 .3 2.9.3.3 0 .5.3.6.5.1 0 .1-.1.1-.2 0-.3-.3-.5-.5-.6-1-.2-2 .4-2.8-.3h0zm-1.2 2.9c-.1 0-.2.1-.3.1 0 .1-.1.1 0 .1l.3-.2zm10.8 6.9c0-.1-.1-.2-.2-.3 0 .1.1.3.2.3zm.4.9h0zm.6 1.1zm-1.2-1.9h0zm.1.2s0-.1-.1-.1c0 0 0 .1.1.1h0zm-.2 2.8v-.1c-.1 0-.1.1 0 .1 0 .1 0 .1 0 0zm.3-.1v-.1c-.1 0-.1.1 0 .1-.1 0-.1 0 0 0zm0-.4h0c-.2 0-.1.2 0 0zm.9-.5h0c-.3 0-.5.2-.8.4v.2c.3-.2.6-.4.8-.6h0zm-.2-.2c.1 0 .1-.2 0-.2l-1 .6v.1c.4-.1.7-.3 1-.5h0zm.2-.2c0-.1 0-.2-.1-.3.1.1.1.2.1.3zm-5.4-2.1c-.1 0-.1-.1-.2 0 .1.1.2.1.2 0zm5.1-22.7c-.1-.1-.2-.3-.3-.3.1.1.1.4.3.3zm1 3.2v.2-.2zm-1.4.3l.1-.1s-.1 0-.1.1h0zm2.6-.4c0-.1 0-.1-.1-.2 0 .1 0 .2.1.2zm-1.2-.1v-.2c0 .1-.1.2 0 .2 0 .1 0 0 0 0zm.6 0c0-.1.1-.2 0-.3-.1.1-.2.3 0 .3zm.3 0c0-.1 0-.2-.1-.3-.1.1 0 .2.1.3h0zm.6-.1v-.3c-.1.1 0 .2 0 .3zm-.3-.1v-.3l-.1.2.1.1zm-1.1-.1v-.2c-.1.1-.1.1 0 .2h0zm.2.2c-.1-.2.2-.3 0-.4-.1.1-.2.3 0 .4h0zm.7-.3c0-.1 0-.2-.1-.2v.1c0 0 0 .1.1.1zm-.3 0c0-.1 0-.2-.1-.3-.1.1-.1.3.1.3h0zm-.5-.3l-.1-.1c-.1.1 0 .2.1.1h0zm1.1 0h0v-.2.2zm-.6-.1s0-.1-.1-.1c0 0 0 .1.1.1h0zm.3.1c0-.1 0-.2-.1-.3h0c0 .2 0 .3.1.3zm-.6.1c0-.1.1-.3-.1-.4.1.1-.1.3.1.4zm.1-.6c0-.2-.1 0-.1.1h.1v-.1zm.6.1c0-.1 0-.2-.1-.2s0 .2.1.2h0zm-.3-.1c0-.1 0-.1-.1-.1 0 0 0 .2.1.1h0zm.1-.3c0-.1-.1-.2-.1-.2v.1c-.1 0 0 .1.1.1zm-.8-.1v-.1c0 0-.1.1 0 .1zm.4 0c0-.1 0-.1-.1-.1l.1.1zm0-.4h0v-.1.1zm-.2.1c0-.1 0-.2-.1-.2 0 .1 0 .3.1.3v-.1zm-.2-.1c0-.1 0-.3-.1-.4-.1.1 0 .3.1.4zm-.8.2c-.3-.2-.4-.8-.8-.7-.2.4-.2 1-.4 1.4v.1s.1 0 .1-.1l.2-.6c.1-.2.3-.2.6-.2.2.1.5.4.5.6-.2.2-.1.5-.4.7l.2.1c.1-.1 0-.4.1-.5.2.3-.2.7 0 1l.1-.7c-.1-.1 0-.3.1-.4.2.1 0 .3.1.5v-.1c0-.2-.1-.4.1-.5l-.5-.6zm.9-.6h0zm-.4 0c0-.4-.6-.3-.7-.7 0 .1.1.1.1.2.2.2.2.4.5.5 0 0-.1-.2 0-.2 0 .1.1.2.1.2zm-7.1.2s.1-.1 0-.1v.1zm-.4 1.2h0v-.2.2zm.3-1h0zm.2 1c0-.1.1-.2 0-.3-.2.3-.4.7-.4 1l.4-.7zm0-.7l-.3.6c0 .1-.1.3-.1.4.1-.3.3-.6.4-1zm-.3-.1h0zm.1-.1h0zm.1.2c0-.1.2-.1.1-.3-.2.2-.3.6-.4.8.1-.1.1-.4.3-.5h0zm-1.5 5.5c0-.2.1-.5-.1-.7 0 .2 0 .5.1.7zm-1-.9h0zm1.4-.7c0-.1 0-.1 0 0-.1-.1 0 0 0 0zm-.4-.3h0c-.1-.1-.1 0 0 0zm-.1-.5v-.1c-.1 0-.1.1 0 .1zm2.5 1.8c-.1 0-.1-.1-.2-.2-.2-.1-.1.1-.2.2.1 0 .1.1.1.1v-.1c.2-.1.3 0 .3 0h0zm-.4-.4h0zm-.7-.1c0-.1 0-.1 0 0h0zm-.4-.3c0-.1-.1-.1 0 0-.1 0 0 0 0 0h0zm-.2-.2c-.1 0-.1 0 0 0-.2.1-.1.1 0 0h0zm-1.6 0c-.1-.3-.1.1-.1.2s-.1.3.1.4c0-.2-.1-.5 0-.6h0zm.6.8l.1-.9-.1-.1c-.1.3-.1.7 0 1h0zm.5-1.1s0-.1-.1-.1l.1.1zm-.9-.1c-.2.3-.1 1-.1 1.3.1-.4.1-.8.1-1.3zm.2 0h0c-.2.3-.2.9-.1 1.3h.1c-.1-.4 0-.9 0-1.3h0zm.3-.1v-.1.1zm.2-.1s0-.1 0 0c-.1 0 0 .1 0 0h0zm-.3-.2v-.1c-.1 0-.1.1 0 .1zm-2.8-2.2h0v-.3c0 .1-.1.3 0 .3h0zm.1-.3h0zm-.1 2c0-.6-.4 0-.6 0 0 .1 0 .3.1.4.2-.1.5-.2.5-.4zm1.8-.4c-.1-.1.3-.2.1-.3-.1.1-.1.2-.1.3zm0-.4c0-.1-.1 0 0 0-.1.1-.2.3-.2.5h0c0-.1.1-.3.2-.5zm-.2 0l-.1-.1c-.1.2-.2.5-.1.7.1-.2.1-.5.2-.6zm-.5 9.7c.1-.1-.2-.1-.1-.2-.1.1 0 .1.1.2h-.1.1zm4.7-1c-.1 0-.1 0-.2.1h.1c.1 0 .1 0 .1-.1zm-.5-.1h0l-.1.1s.1 0 .1-.1zm.4-.1c-.1-.1-.2 0-.2.1.1.1.1 0 .2-.1h0zm-.8 0c0-.2-.1 0-.2 0v.1c.1 0 .1-.1.2-.1zm.3-.1c0-.1-.1 0 0 0h0zm.4-.1s.1-.1 0-.1-.2.1-.2.2c.1 0 .1 0 .2-.1zm-.9-.1c-.1 0-.2.1-.2.2h.1c0-.1.1-.1.1-.2zm.5-.1c-.1 0-.2 0-.3.2.1.1.1 0 .2 0 0-.1.1-.2.1-.2zm-1 0h-.2c.1.1.2 0 .2 0h0zm1.2.1l.2-.2c-.1 0-.1 0-.2.1-.1 0-.1.1 0 .1zm-.9-.2c-.1 0-.2 0-.2.1h0c.1 0 .2 0 .2-.1h0zm1.4-.1c-.1 0-.2.1-.2.2h.1s.1-.1.1-.2h0zm-1 0c-.1 0-.2 0-.2.1h.1c.1 0 .2 0 .1-.1zm-.9-.1c-.1 0-.2 0-.2.1h.1c0 .1.1 0 .1-.1zm.4 0c-.1-.1-.2.1-.2.1h.1l.1-.1zm.9.1c.1 0 .2-.1.1-.2 0 .1-.2 0-.3.2.1.1.1 0 .2 0zm-1.9-.2h-.1.1c0 .1 0 0 0 0h0zm1.4 0c-.1 0-.2.1-.3.2h.1c.1-.1.2-.1.2-.2zm-.9-.1c-.1 0-.2.1-.3.2h.1c.1 0 .1-.1.2-.2zm1.4 0h-.3s-.1.1 0 .1.2 0 .3-.1zm-1.1-.1c-.1 0-.2.1-.2.2h.1c0-.1.2-.1.1-.2h0zm-1 0s-.1 0-.1.1h.1v-.1zm1.4.1c.1-.1.1-.2-.1-.1 0 0-.1.1-.1.2.1-.1.2-.1.2-.1zm-1-.1c0-.1.1-.1.1-.2-.1.1-.3.1-.2.2 0 .1.1 0 .1 0zm1.5-.2c-.1 0-.2.1-.3.2h.1c.1 0 .2-.1.2-.2h0zm-1 0h-.1c-.1 0-.2.1-.1.2h.1c0 0 .1-.1.1-.2h0zm-1 0c-.1 0-.2 0-.3.1 0 .1.1.1.1.1l.2-.2zm1.3.1s.2-.1.1-.2h-.1c0 .1-.1.1 0 .2h0zm-.9-.2c-.1 0-.3.1-.3.2h.1c.2-.1.2-.2.2-.2zm1.5-.1c-.1-.1-.1.1-.2 0-.1 0-.1.1-.1.2h0c.1 0 .2-.1.3-.2zm-2.2 0c-.1 0-.2 0-.2.1s.1.1.1.1c0-.1.2-.1.1-.2zm1.2 0c-.1 0-.2.1-.3.2h.1c.1-.1.2-.1.2-.2h0zm.4-.1c-.1 0-.3.1-.2.2h0c.1-.1.2-.1.2-.2zm-1.1 0c-.1 0-.2 0-.3.1h.1c.1 0 .2 0 .2-.1zm1.5-.1c-.1 0-.2.1-.3.2h.1c.1-.1.2-.1.2-.2h0zm-2.2 0c-.1 0-.2 0-.1.1.1 0 .1-.1.1-.1zm1.2 0s.1-.1 0-.1-.3.1-.3.2c.1 0 .2 0 .3-.1h0zm.4-.1c-.1 0-.2.1-.2.2h.1c0-.1.1-.2.1-.2zm-1.1-.1c-.1 0-.3.1-.3.2h.1c.1 0 .2-.1.2-.2zm-2.8 2.8h-.1.1zm0-.2c.1-.1.3-.4.2-.6l-.1.2-.3.3c.1.1.2.1.2.1h0zm.3.1c.3-.2.2-.6.2-.9h0c.1.3-.1.8-.4 1l.2-.1zm.9-1.1s-.1 0 0 0h0zm-.1.2h0zm-.2-.1c0-.1-.1-.2-.2-.3v.1c.1.1.1.3.2.2zm1.7 1.8h0zm-1.4-1.1h0zm1.2 1.1h0s0 .1 0 0zm-1.7-.3h0zm-.4 0c0-.1 0 0 0 0h0zm1-1.2v-.1c-.1 0-.1.1 0 .1h0zm-.4 0h0zm.4-.6v-.2l-.1.1c0 .1 0 .2.1.1h0zm2.9 2.8h0zm1.2 2h0zm-1-.5h0zm.7 0l-.1-.1c0 .1 0 .2.1.3v-.2zm-1.1.5c0-.2.1-.5-.1-.7 0 .3 0 .6.1.7zm.8-.5c0-.1 0-.4-.1-.5.1.2.1.4.1.5zm-1 .1c0-.3.2-.5 0-.8-.1.3-.1.6 0 .8zm-.6-.6v-.2c-.1 0-.1.1 0 .2h0zm.3.6c-.1-.3.1-.6 0-1-.2.4-.1.7 0 1h0zm.2-1c-.2.3-.2.8-.1 1.2h.1c-.1-.4-.1-.8 0-1.2zm.8.3c0-.2.1-.2 0-.4v.4zm-.1 0v-.5.5zm-2.6-.5c-.3 0-.3.4-.5.6v.1c.2-.1.3-.5.5-.7zm2.8-.6c0-.4-.4-.1-.5-.4 0 .1.1.2.1.4v-.1l.1.1.1-.1c.1 0 .1.1.1.2l.1-.1zm-3.2-.4h0zm.4 0c0-.1-.1 0 0 0h0zm-1 0h0zm1.2-.1c0-.1 0-.3-.1-.3-.1.1 0 .3.1.3zm-.9-.3s0-.1-.1-.1c.1.1-.1.2-.1.3h0l.2-.2zm6.7-3.1c.1-.2 0-.4 0-.7-.4.8-1 1.5-1.3 2.4 0 .2-.2.3-.1.5.2.1.2-.2.3-.2v.1h.3c.1 0 .2-.1.2-.2l.1.1c.1 0 .1 0 .2-.1.1-.3.2-.5.3-.8-.2 0-.3.1-.5.1-.2.1-.1-.1-.3-.2 0-.1.2-.1.2-.2.3-.2.3-.5.6-.8h0zm.3 1.1h-.2c-.1.2-.4.5-.3.8.2 0 .3 0 .5-.1 0-.2.1-.3.1-.5h-.1c-.1.2-.1.4-.3.5.1-.2.2-.5.3-.7h0zm2.6-1.3c.1 0 .1-.1.1-.2-.1.1-.2.1-.1.2h0zm-.4.6c.2-.2.2-.6.2-.8-.3.4-.5.8-.7 1.3h0c.1 0 .1-.1.2-.1 0-.3.2-.5.3-.6 0 .2-.2.4-.2.5.1-.1.2-.2.2-.3h0zm1.3-.1c-.2 0-.3-.1-.4-.2 0 .1 0 .2.1.3.1 0 .3-.1.3-.1h0zm-.4.2c-.1-.1-.1-.2-.2-.2v.1c0 0 .1.2.2.1zm-.2.2c0-.1-.1-.2-.3-.2-.1.1 0 .1 0 .2.1 0 .2.1.3 0zm-.2.2c-.1-.1-.2-.1-.2-.2-.2.1.2.2 0 .3-.1 0-.1 0-.2-.1 0 0-.1 0-.1.1s.1.1.2.1c0-.1.2-.1.3-.2zm-.7.3s0-.1 0 0l-.1.1.1-.1zm-.3.3c.1 0 .1-.2 0-.2 0 0-.1.1 0 .2zm-.1.1s0-.2-.1-.2v.2c0 .1 0 0 .1 0zm-.1-.3h0zm-.4-.6c0-.1 0-.2.1-.2s0 .1-.1.2zm-.3.7c0-.2.1-.4.2-.5 0 .1-.1.4-.2.5zm-1.4-.1c0 .1-.1.2-.1.3-.1-.1 0-.3.1-.3zm-.6.6c.1-.2.1-.4.3-.6l-.3.6zm.1-.4l-.2.4c0-.1.1-.4.2-.5v.1zm.6-1.5c0 .3-.3.5-.4.7-.1 0-.1 0-.1-.1.2-.1.2-.4.5-.6h0zm.2-.3c-.1.1-.1.2-.2.3 0-.1.1-.4.2-.3zm2.5-2.3l-.8 1.1c-.1 0 0-.1 0-.1.4-.5.7-1.1 1.2-1.6-.1.3-.4.4-.4.6zm.5-.2c-.6.9-1.2 1.7-1.7 2.6h0c.5-1 1-1.9 1.7-2.6h0zm-.3 1.3c-.3.6-.7 1.3-1.1 1.8.4-.6.7-1.3 1.1-1.8h0zm-.4.1c0 .1-.1.2-.2.3.1-.1.1-.2.2-.3zm-.9.5c-.2.3-.3.6-.5.9.1-.4.5-1 .7-1.4.1.2-.1.3-.2.5zm.7-.2c-.3.4-.4.9-.8 1.4.3-.5.5-1 .8-1.4zm-1.3.8l.2-.4-.2.4zm.3.4c0-.2.2-.2.2-.3-.1.1-.1.3-.2.3zm-.1-2.8h0zm0 3.2c0 .1-.1.1-.1.1s0-.1.1-.1zm.7-2.4c-.2.3-.3.7-.6 1 .2-.4.4-.8.6-1zm1-1.5c-.3.5-.7.9-1 1.4.3-.5.6-1 1-1.4h0zm-.3-.4c-.5.6-1 1.2-1.3 1.9.3-.7.8-1.3 1.3-1.9zm1.4 3.8c-.1-.1-.1-.1-.2-.1v.1c0 .2.2.2.3.3.1-.2-.3-.3-.1-.3zm-.6-1.7c-.2-.1 0-.3 0-.5-.2.1-.1.4 0 .5 0 .1 0 0 0 0h0zm-4.4-.1c-.1 0 0-.1-.1-.1v-.1c.1-.1.1.1.1.2zm-.2-.3c0 .2.1.3.1.4l-.1-.4zm.9-2c.1-.1.1-.2.1-.3-.2 0-.1.2-.1.3zm-6.6 3.1l.1.1-.1-.1zm-1.1-1.5h0zm6.2-.6h0zm1.5-.9v.2-.2zm.2 4.7c.2-.1.3-.4.3-.6l-.3.5v.1zm-.9.5h0zm-.4.8c-.1 0-.2 0-.3.1s0 .1.1.1.2-.1.2-.2zm-.3-.2c-.1 0-.2 0-.2.1h.1s.1 0 .1-.1zm.4 0c-.1 0-.2 0-.2.1h0c.1 0 .1 0 .2-.1zm-.6-.2c-.1 0-.2.1-.1.2 0 0 .1-.1.1-.2zm.4-.1c-.1 0-.2.1-.2.2h.1c.1 0 .2-.1.1-.2zm.3.1c0-.1.1-.1 0-.2-.1 0-.1.1-.1.2 0 0 .1.1.1 0h0zm-.7-.3c-.1 0-.2.1-.2.2h.1c0 0 0-.1.1-.2zm.3 0c0-.1 0 0 0 0-.1 0-.2.1-.2.1.1 0 .2 0 .2-.1zm0-.3c-.1 0-.1.1-.2.1 0 0-.1.1 0 .1 0 0 .2-.1.2-.2zm0-1.1a3.04 3.04 0 0 0-.5.7c.2-.2.4-.4.5-.7zm-1.6 0c-.1 0-.2.1-.2.2h.1c0-.1.1-.2.1-.2h0zm-1.1-.1c-.2 0-.3.1-.3.2h0c.1 0 .3-.1.3-.2zm-1.1 0c-.1 0-.1.2-.2.2s0-.1-.1-.1c0 0-.1 0-.1.1.1.1.1.1.2.1.1-.1.3-.2.2-.3zm.4-.1c-.1 0-.2.1-.2.2h.1s.2-.1.1-.2h0zm1.1.2c.1-.1.2-.1.2-.2h-.2c-.1 0-.2.2-.2.2h.2zm-1.6-.3c-.1 0-.2 0-.2.1.1 0 .2 0 .2-.1zm2.1 0c-.1 0-.2.1-.2.2h0c.1 0 .2-.1.2-.2zm-1 0h-.1c-.1 0-.2.1-.2.2h.2c0-.1.1-.1.1-.2h0zm-.7-.1c-.1 0-.2.1-.2.1h.1c.1 0 .1-.1.1-.1h0zm1.1 0c-.1 0-.3.1-.3.2h.1c.1 0 .2-.1.2-.2zm-.7-.1c-.1 0-.2 0-.2.1.1 0 .2 0 .2-.1zm-1 0c-.1 0-.3 0-.2.2h0c.1 0 .2-.1.2-.2zm2.2 0c-.1 0-.3 0-.4.2.2-.1.4 0 .4-.2zm.3-.1c-.1 0-.1.1-.2.1h.1c0 .1.1 0 .1-.1zm-1 0c-.1 0-.3 0-.3.2h.2c0-.1.2-.1.1-.2h0zm2.4.7c.1-.2.5-.4.4-.8-.4.5-.8 1.1-1 1.6l.6-.8zm-3.4-.7c-.1 0-.3 0-.3.2h.1c0-.1.2-.1.2-.2h0zm1.5-.1h-.3l-.1.1c.2.1.3 0 .4-.1zm-2.2 0c-.2 0-.2.3-.4.1h0c0 .1.1.2.2.2-.1-.2.2-.1.2-.3h0zm1.1 0c-.1 0-.3 0-.3.2h.1c.1-.1.2-.1.2-.2zm-1 1l-1-1.1c.3.3.6.9 1 1.1zm1.4-1.1c-.1 0-.2.1-.3.2h.1c.2-.1.2-.2.2-.2zm-1 0c-.1 0-.2 0-.3.1v.1c.1-.1.3-.1.3-.2zm-1 0c-.1 0-.1 0-.1.1l.1-.1c-.1 0 0 0 0 0h0zm.4-.1c-.1 0-.3.1-.2.2l.2-.2zm2.1 0c-.1 0-.2 0-.3.1 0 0-.1.1 0 .1.1-.1.3-.1.3-.2h0zm-1 0c-.1 0-.3 0-.3.2h.1c0-.1.2-.1.2-.2h0zm1.4 0c-.1-.1-.2 0-.2.1h0s.1 0 .2-.1zm-2.1-.1c-.1 0-.2.1-.2.2h0c0-.1.2-.1.2-.2zm1.1 0h-.2c-.1 0-.1.1-.1.1.1 0 .3 0 .3-.1zm4.7-.1c-.5.7-1.1 1.5-1.4 2.3-.1.1-.3.1-.2.2h.2c.2-.3.5-.6.6-1 .2-.5.7-.9.8-1.5h0zm-.9.3l.1-.2s-.1 0-.1.2zm-5.5-.2c.1-.1-.1 0-.1 0h.1zm2.3-.1c-.1-.1-.3-.1-.4.1.1.1.3-.1.4-.1zm-1.2 0c-.1 0-.3 0-.4.2.2 0 .3-.1.4-.2zm1.8.4a.55.55 0 0 0 .3-.5l-.2.2c0 .2-.3.2-.3.4l.2-.1zm1.9-.2l.1-.3c-.5.5-.8 1.1-1.1 1.6 0 .2-.3.2-.2.3.1 0 .1 0 .2-.1.2-.5.6-1 1-1.5h0zm-4.4-.3c-.1 0-.2 0-.2.1h.1c0 0 .1 0 .1-.1zm-.9 0c-.1 0-.1 0-.1.1.1 0 .1 0 .1-.1zm2.4 0c-.1-.1-.2 0-.2.1.1 0 .2 0 .2-.1zm-.3-.1c-.1.1-.3 0-.4.2h.2c.1 0 .2-.1.2-.2h0zm-.8 0c-.1-.1-.2 0-.3.1h0c.2.1.3 0 .3-.1h0zm-.9 0c-.2 0-.4.2-.3.3h.1c-.1-.2.2-.1.2-.3zm1.5 0c-.1 0-.3-.1-.4.1.1 0 .3-.1.4-.1zm-2.1-.1c-.1 0-.2 0-.1.1s.1 0 .1-.1zm1 0c-.1 0-.3 0-.3.2h0c.2 0 .3-.1.3-.2zm5.9.5c0-.2.5-.3.2-.5-.5.6-1 1.3-1.3 2-.3-.1-.1.2-.2.3s-.2.2-.2.3c.1 0 .2-.1.3-.2.3-.7.8-1.3 1.2-1.9h0zm-5.7-.5s-.1 0-.1.1h.1c.1 0 0-.1 0-.1zm-.8 0c-.1 0-.2 0-.2.1h.1c0-.1.1-.1.1-.1zm5.1-.2h0c-.5.6-.9 1.2-1.3 1.9-.1 0-.1.1-.1.2h.2l.9-1.4c.1-.3.4-.4.3-.7h0zm-5.6 0h-.1v.1c.1 0 .1 0 .1-.1zm.3.1c0-.1-.1-.1-.1-.1l-.1.1h.2zm1-.1h0c-.2-.1-.5-.3-.6 0 .2.1.3-.2.5 0 0 .1-.1 0-.1 0-.1.1-.4 0-.3.2l.5-.1c0-.1.1-.1 0-.1h0zm-1.2-.1c0-.1-.2-.1-.2 0h.1c0 0 .1.1.1 0zm6.8.4c0-.2.5-.3.3-.5-.4.5-.8 1-1.1 1.6 0 .1-.1.2 0 .2a9.13 9.13 0 0 1 .8-1.3h0zm-1.3-.5h0c-.2 0-.4.3-.5.5.1.1-.1.1-.2.2-.2.4-.5.7-.6 1.1 0 .1-.3.1-.2.2.1 0 .1 0 .2-.1.3-.6.8-1.2 1.3-1.9h0zm-.1-.2v-.1c-.5.6-1 1.3-1.3 2-.1 0-.2.1-.2.2.1 0 .2 0 .2-.1.3-.7.8-1.4 1.3-2h0zm1 .8l.6-.9v-.2c-.1.4-.4.7-.6 1.1h0zm-2.6-1s-.1 0-.1.1c.1 0 0-.1.1-.1zm-3.9 1.2c-.3-.4-.6-.9-.9-1.3.1.5.6 1 .9 1.3zm5.2-1.6c-.4.4-.6.8-1 1.3-.1.2-.3.4-.3.7.2.2-.1.3-.2.5h.2c.4-.7.9-1.4 1.4-2.1l-.1-.1c-.5.4-.7 1-1 1.4 0 .1-.1.3-.3.3h0c.2-.5.6-1 .9-1.5.2-.3.4-.3.4-.5h0zm-1.1 1.4c.4-.5.6-1 1-1.5l-.9 1.1h-.1c.1-.3.4-.5.5-.8-.2.2-.3.5-.5.8 0 .1.1.1.1.2-.2 0-.2.2-.1.2h0zm-.1-1.4l.1-.1-.1.1zm3.4-.2c-.2.2-.5.6-.6.9.2-.3.5-.6.6-.9zm-2.7.3l.3-.4c-.1.1-.4.3-.3.4zm.2-.6h0c-.3.4-.8.8-.9 1.2.2-.3.4-.7.7-.9 0-.1.1-.2.2-.3zm.5 0h0zm1.7-.5c-.3-.1-.1-.4-.1-.6l-.1.4c-.1.5-.6 1-.2 1.6 0 0 0-.1.1-.1h-.1c.2-.4.4-.7.7-1-.1.3-.5.6-.5 1 .2-.2.3-.5.6-.8l.1.1c-.3.4-.6.8-.7 1.2.2-.3.5-.7.8-1 0-.1.1-.2 0-.2.1-.2.1-.3 0-.6-.4.2-.4.7-.8 1-.2-.5.1-.7.2-1h0zm.8-3c-.3 0-.5.1-.8.1h.3c.2 0 .4.1.5-.1h0zm-2 .2h-.4c.1 0 .3.1.4 0zm3.8.3h0c-.2.7-.2 1.4-.3 2.1.1-.7.3-1.4.3-2.1zm-.3.6c-.2-.1.1-.3-.1-.4 0 .6-.1 1.2-.2 1.7.1-.4.3-.8.3-1.3h0zm-.3.4c0-.1.1-.3 0-.4-.1.1 0 .3 0 .4zm-.1.8c0-.2.1-.4 0-.5.1.1-.1.3 0 .5zm-.1-.2c0-.1-.2 0-.2 0 .1 0 .2.1.2 0zm.3.6v-.2.2zm-.2.1h0l-.1.3.1-.1c0-.1 0-.1-.1-.1l.1-.1zm-.2.4c.1-.1 0-.1 0 0h0zm-10.2-8.2h0c0-.1-.1-.1 0 0 0 0 0-.1 0 0h0zm-1 1.3c.1-.2.2-.4.1-.6-.1.2-.1.4-.1.6h0zm1.7-1.7h-.3c.1.1.2 0 .3 0zm-7.2 22.9c-.1-.1-.2-.3-.4-.4.1.2.3.3.4.4z" fill="#332b24"/><defs /></svg>