<svg xmlns="http://www.w3.org/2000/svg" width="94.53" height="225.071" viewBox="0 0 262.3 624.4"  shape-rendering="geometricPrecision" image-rendering="optimizeQuality" fill-rule="evenodd" xmlns:v="https://vecta.io/nano"><path d="M4117.5-14425.2H20894v25164.699H4117.5z" fill="#d9dada"/><path d="M97.6 449.7V116.4h67.1v333.3H97.6zm161.5 43.2V73.2l-53-70h-150l-53 70v419.7l53 70.2h64.6v58.2h94.4v-70l44-58.3z" fill="#fff"/><path d="M100.7 446.6h60.8v-327h-60.8v327zm117.5 105.7v72.1H117.5v-58.2h-63L0 493.9V72.1L54.6 0h153.1l54.6 72.1v421.8l-44 58.3zM79.7 467.6h102.8V98.7H79.7v368.9zM197.2 21l44 58.2v407.7l-44 58.3v58.2h-58.8v-58.2H64.9l-44-58.3V79.2l44-58.2h132.3z" fill="#332b24"/><defs /></svg>