<svg xmlns="http://www.w3.org/2000/svg" width="691.99" height="204.094" viewBox="0 0 13870.7 4091"  shape-rendering="geometricPrecision" image-rendering="optimizeQuality" fill-rule="evenodd" xmlns:v="https://vecta.io/nano"><path d="M30936.1-57962.301h121214.602V63252.301H30936.1z" fill="#ccc"/><path d="M13136.8 1565.7h-485.1V841.6h485.1v724.1zM1872.1 841.6V22.8H22.7v818.8h583.2v3226.7h682.2V841.6h584zm1227.6 724.1V841.6h485.1v724.1h-485.1zm485.1 2502.6H4267V528.8l-382.8-506H2800.4l-382.8 506v3539.5h682.2V2384.6h485.1v1683.7zM5370 37.1h-693.5l616.4 2097.3v1933.8h682.2V2135L6614.3 37h-693.7l-283.1 925.1L5370 37zm2487.5-14.4h-682.2v4045.5h1849.4v-818.8H7857.5V22.7zm2394.8 3226.7V841.5h485.1v2407.9h-485.1zm784.4-3226.7H9952.9l-382.8 506v3032.4l382.7 507.1h1084l382.7-507.1V528.7l-382.8-506zM13819 1878.5V528.8l-382.8-506h-1466.6v4045.5h682.2V2384.6h189l318.1 1683.7h686.7l-336.3-1780.4 309.7-409.4z" fill="#fff"/><path d="M13111.7 1542.9V864.2h-439.6v678.7h439.6zM1310.8 864.2v3226.7H583.2V864.2H0V-.1h1894.8v864.3h-584zM151.5 151.4h1591.8v561.2h-584v3226.7H734.7V712.6H151.5V151.4zm2970.9 1391.4H3562V864.1h-439.6v678.7zm439.6 864.3h-439.6v1683.7h-727.6V520.9L2789-.2h1106.4l394.2 521.1v3569.9H3562V2407.1zM2546.3 3939.3V571.8l318.1-420.5h955.7l318.1 420.5v3367.5h-424.6V2255.6H2971v1683.7h-424.6zm424.6-2245h742.6V712.6h-742.6v981.7zm2667-811.9l265.6-868.2h741.2l-647.2 2124.1v1952.5h-727.6V2137.5L4645.8 14.2h741l251 868.2zM5273 165.7l360.8 1248 381.8-1248h424.6l-594.1 1950v1823.6h-424.6V2115.7l-573.1-1950H5273zm2607.2 3060.8h1167.2v864.3H7152.6V-.2h727.6v3226.7zM7728.7 151.3V3378h1167.2v561.2H7304.1V151.3h424.6zM10275 3226.5h439.6V864.1H10275v2362.4zM11048-.2l394.2 521.1v3047.7l-394.1 522.2H9941.5l-394.1-522.2V520.9L9941.6-.2H11048zm-75.4 151.5l318.1 420.5v2946.1l-318.1 421.4h-955.7l-318.1-421.4V571.8l318.1-420.5h955.7zM10123.4 3378h742.6V712.6h-742.6V3378zm3407.7-1084.6l339.5 1797.4h-733l-318.1-1683.7H12672v1683.7h-727.6V-.2H13445l394.2 521.1v1365l-308.2 407.5zm-161.4-2142.1l318.1 420.5v1263.3l-318.1 420.5 318.1 1683.7h-424.6l-318.1-1683.7h-424.6v1683.7h-424.6V151.4h1273.7zm-106.5 1542.9V712.5h-742.7v981.7h742.7z" fill="#332b24"/><defs /></svg>