<svg xmlns="http://www.w3.org/2000/svg" width="193.64" height="211.476" viewBox="0 0 1553.2 1696.3"  shape-rendering="geometricPrecision" image-rendering="optimizeQuality" fill-rule="evenodd" xmlns:v="https://vecta.io/nano"><path d="M-49870-53416.602h48506.602v72759.898H-49870z" fill="#d9dada"/><path d="M55.8 718.6v269.8h269.8V718.6z" fill="#fff"/><path d="M336.7 1190.6l336.7 346.1-104.3 159.7-232.4-151.8-232.4 151.8L0 1536.7l336.7-346.1zM77.3 1544.2l44.6 68.2 214.8-140.3 214.8 140.3 44.6-68.2L339 1279.9l-1.8-2.8-.5.5-.5-.5-1.8 2.8-257.1 264.3zm7.6-1188L431.4 0l163.7 250.7-406 265.2L84.8 356.2zm77.3 7.5l44.6 68.2L511.2 233 422 96.5 162.2 363.6zm176.5 346.8h288v288h-288v-288zm-292 0h288v288h-288v-288zm352.6 60.6v166.7H566V771.1H399.3zm-292 0v166.7H274V771.1H107.3zM1241.4 36.9h311.9L1064.2 1674H753.6L1241.5 36.9zM1019 1613.4H834.9L1286.6 97.6h185.3L1019 1613.4z" fill="#332b24"/><defs /></svg>