<svg xmlns="http://www.w3.org/2000/svg" width="693.585" height="204.094" viewBox="0 0 13432.7 3952.7"  shape-rendering="geometricPrecision" image-rendering="optimizeQuality" fill-rule="evenodd" xmlns:v="https://vecta.io/nano"><path d="M33195.5-40178.199h117117.398V76939.199H33195.5z" fill="#ccc"/><path d="M12723.6 1512.8h-468.7V813.2h468.7v699.6zM681 22H21.9v3908.8H681V2304h468.7v1626.8h659.1V22h-659.1v1490.8H681V22zm2313.9 1490.8V813.2h468.7v699.6h-468.7zm468.7 2418h659.1V510.9L3752.8 22H2705.6l-369.9 488.9v3419.9h659.1V2304h468.7v1626.8zM5308.8 22h-659.1v3908.8h1786.9v-791.1H5308.8V22.1zm2313.9 0h-659.1v3908.8h1786.9v-791.1H7622.7V22.1zm3441.6 791.1V22H9277.4v3908.8h1786.9v-791.1H9936.5V2304h615.3v-791.1h-615.3V813.3h1127.8zM13382.7 1815V510.9L13012.8 22h-1417v3908.8h659.1V2304h182.7l307.3 1626.8h663.5l-325-1720.2 299.2-395.6z" fill="#fff"/><path d="M12699.4 1490.8V835.1h-424.8v655.7h424.8zm-11996.4 0h424.7V0h703v3952.7h-703V2325.9H703v1626.8H0V0h703v1490.8zM556.6 146.4v1490.8h717.5V146.4h410.2v3659.9h-410.2V2179.5H556.6v1626.8H146.4V146.4h410.2zm2460.3 1344.4h424.7V835.1h-424.7v655.7zm424.7 835.1h-424.7v1626.8h-703V503.5L2694.8 0h1069l380.9 503.5v3449.2h-703V2325.9zm-981.4 1480.4V552.6l307.3-406.2h923.4l307.3 406.2v3253.7H3588V2179.5h-717.5v1626.8h-410.2zm410.2-2169.1h717.5V688.7h-717.5v948.5zm4774.1 1480.4h1127.8v835.1H6941.5V0h703v3117.6zM7498.1 146.4V3264h1127.8v542.3h-1538V146.4h410.2zM5330.6 3117.6h1127.8v835.1H4627.6V0h703v3117.6zM5184.2 146.4V3264H6312v542.3H4774V146.4h410.2zm4774.1 688.7v655.7h615.3v835.1h-615.3v791.8h1127.8v835.1H9255.3V.1h1830.8v835.1H9958.3zm981.4-688.7v542.3H9811.9v948.5h615.3v542.3h-615.3v1084.6h1127.8v542.3h-1538V146.5h1538zM13104.4 2216l328.1 1736.7h-708.2L12417 2325.9h-142.5v1626.8h-703V0h1449.9l380.9 503.5v1318.9l-297.8 393.7zm-155.9-2069.6l307.3 406.2v1220.6l-307.3 406.2 307.3 1626.8h-410.2l-307.3-1626.8h-410.2v1626.8h-410.2V146.3h1230.7zm-102.9 1490.8V688.7h-717.5v948.5h717.5z" fill="#332b24"/><defs /></svg>