<svg xmlns="http://www.w3.org/2000/svg" width="94.53" height="204.094" viewBox="0 0 277.7 599.6"  shape-rendering="geometricPrecision" image-rendering="optimizeQuality" fill-rule="evenodd" xmlns:v="https://vecta.io/nano"><path d="M3622.8-15275.7h17765.699v26648.6H3622.8z" fill="#d9dada"/><path d="M174.4 185h100V77.5L218.3 3.3H59.4L3.3 77.5v197.8l56.1 74.2h115v126.7h-71.1v-61.6H3.3v107.3l56.1 74.4h158.9l56.1-74.4V303.8l-56.1-74.3h-115V123.3h71.1z" fill="#fff"/><path d="M171.1 126.7h-64.4v99.5H220l57.8 76.5v220.4L220 599.6H57.8L0 523.1V411.3h106.6v61.6H171V352.8H57.7L-.1 276.4V76.3L57.7-.1h162.2l57.8 76.4v111.9H171.1v-61.6zm37.8-104.5l46.6 61.6v82.3h-62.2v-61.6H84.5v143.9H209l46.6 61.8v205.5L209 577.5H68.9l-46.6-61.8v-82.1h62.2v61.6h108.8V330.7H68.8l-46.6-61.6V83.9l46.6-61.6h140.1z" fill="#332b24"/><defs /></svg>