<svg xmlns="http://www.w3.org/2000/svg" width="937.338" height="204.094" viewBox="0 0 22652.2 4932.2"  shape-rendering="geometricPrecision" image-rendering="optimizeQuality" fill-rule="evenodd" xmlns:v="https://vecta.io/nano"><path d="M50929.898-66618.297h146140.906V79522.609H50929.898z" fill="#ccc"/><path d="M21176.5 27.4h-781.4v4877.4h822.4V2895.2l625.8 2009.6h781.4V27.4h-822.4V2037L21176.5 27.4zM851 27.4H28.6v4877.4H851V3733.7l571.4 1171.1h926.4l-1273-2675.1 1299-2202.3H1443l-592.1 1022V27.4zm3042.7 0h-822.4v4877.4H5301v-987.2H3893.7V27.4zM6781 1887.6v-873h584.8v873H6781zm584.8 3017.2h822.4V637.4L7726.7 27.3H6420l-461.5 610.1v4267.4h822.4v-2030h584.8v2030zm2302.5-3017.2v-873h584.8v873h-584.8zm584.8 3017.2h822.4V637.4L10614 27.3H9307.3l-461.5 610.1v4267.4h822.4v-2030h584.8v2030zm2887.3-3383.3h822.4V637.4l-461.5-610.1h-1306.7l-461.5 610.1v1627.3l461.5 610.1h945.7v1042.8h-584.8v-506.9h-822.4v882.8l461.4 611.3h1306.9l461.4-611.3V2499l-461.4-611.3h-945.8v-873h584.8v506.9zm2887.3 0h822.4V637.4l-461.5-610.1h-1306.7l-461.5 610.1v1627.3l461.5 610.1h945.7v1042.8h-584.8v-506.9h-822.4v882.8l461.4 611.3h1306.9l461.4-611.3V2499l-461.4-611.3h-945.8v-873h584.8v506.9zm3709.7-506.9V27.4h-2229.7v4877.4h2229.7v-987.2h-1407.3V2874.8h767.8v-987.2h-767.8v-873h1407.3z" fill="#fff"/><path d="M21774.9 1856.9V0h877.2v4932.2h-829l-578.3-1856.9v1856.9h-877.2V0h829l578.3 1856.9zM877.2 947.5L1426.1 0h995.5l-1316 2231.1L2391 4932.3h-986.9L877.2 3852.4v1079.9H0V.1h877.2v947.5zM694.5 182.7v1444.5l836.8-1444.5h570.4L898.9 2221.9l1202.8 2527.7h-583.5L694.5 3061.4v1688.2H182.6V182.7h511.9zm3226.6 3707.6h1407.3v1042H3043.9V.1h877.2v3890.2zM3738.4 182.7v3890.2h1407.3v676.7H3226.6V182.7h511.9zm3070 1677.6h530v-818.2h-530v818.2zm530 1042h-530v2030h-877.2v-4304L6406.5 0h1333.9l475.3 628.3v4304h-877.2v-2030zM6113.8 4749.6v-4060l383.5-506.9h1152.2L8033 689.6v4060h-511.9v-2030h-895.4v2030h-511.9zM6625.7 2043h895.4V859.4h-895.4V2043zm3070-182.7h530v-818.2h-530v818.2zm530 1042h-530v2030h-877.2v-4304L9293.8 0h1333.9l475.3 628.3v4304h-877.2v-2030zM9001.1 4749.6v-4060l383.5-506.9h1152.2l383.5 506.9v4060h-511.9v-2030H9513v2030h-511.9zM9513 2043h895.4V859.4H9513V2043zm3600-1000.9h-530v818.2h932.1l475.2 629.5v1812.9l-475.2 629.5h-1334.2l-475.2-629.6v-919.4h877.2v506.9h530v-988h-932l-475.3-628.3V628.1L12180.9-.2h1333.9l475.3 628.3v920.7h-877.2v-506.9zm311.1-859.3l383.5 506.9v676.7h-511.9V859.5h-895.4v1183.6h1023.8l383.5 508.1v1690.5l-383.5 508.1h-1152.2l-383.5-508.1v-675.5h511.9v506.9h895.4V2719.8h-1023.8l-383.5-506.9V689.8l383.5-506.9h1152.2zm2576.2 859.3h-530v818.2h932.1l475.2 629.5v1812.9l-475.2 629.5h-1334.2l-475.2-629.6v-919.4h877.2v506.9h530v-988h-932l-475.3-628.3V628.1L15068.2-.2h1333.9l475.3 628.3v920.7h-877.2v-506.9zm311.1-859.3l383.5 506.9v676.7H16183V859.5h-895.4v1183.6h1023.8l383.5 508.1v1690.5l-383.5 508.1h-1152.2l-383.5-508.1v-675.5h511.9v506.9h895.4V2719.8h-1023.8l-383.5-506.9V689.8l383.5-506.9h1152.2zm2046.2 859.3v818.2h767.8v1042h-767.8v988h1407.3v1042h-2284.5V.1h2284.5v1042h-1407.3zm1224.6-859.3v676.7h-1407.3v1183.6h767.8v676.7h-767.8v1353.3h1407.3v676.7h-1919.1V182.9h1919.1zm1480 0l895.4 2875.2V182.8h511.9v4566.9h-511.9l-895.4-2875.2v2875.2h-511.9V182.8h511.9z" fill="#332b24"/><defs /></svg>