<svg xmlns="http://www.w3.org/2000/svg" width="761.306" height="204.094" viewBox="0 0 11939.7 3200.8"  shape-rendering="geometricPrecision" image-rendering="optimizeQuality" fill-rule="evenodd" xmlns:v="https://vecta.io/nano"><path d="M53293.898-44551.602h94839.703v94839.703H53293.898z" fill="#ccc"/><path d="M11365.5 1225H10986V658.4h379.5V1225zM552.2 17.8H18.5v3165.3h533.7v-760l370.8 760h601.2L698.1 1447l843-1429.2H936.4L552.2 681V17.8zm1974.6 0h-533.7v3165.3h1447v-640.7h-913.3V17.8zM4400.5 1225V658.4H4780V1225h-379.5zM4780 3183h533.7V413.6L5014.2 17.7h-848l-299.5 395.9V3183h533.7V1865.6h379.5V3183zM6274.2 17.7h-533.7V3183h533.7V17.7zm960.5 2524.6v-676.7h379.5v676.7h-379.5zm0-1317.4V658.3h379.5v566.6h-379.5zm913.3 134.6V413.6L7848.5 17.7H6701V3183h1147.5l299.4-396.7V1731.1l-140.5-185.7 140.5-185.7zm1873.7-701.2V17.6h-1447v3165.3h1447v-640.7h-913.3v-676.7h498.3v-640.7h-498.3V658.2h913.3zm1877.4 811.3V413.5l-299.5-395.9h-1147.5v3165.3h533.7V1865.5h147.9l248.9 1317.4h537.3l-263.1-1393 242.3-320.3z" fill="#fff"/><path d="M11345.9 1207.2v-531h-344v531h344zM569.3 614.8L925.5-.1h646.1l-854 1447.9 834.2 1752.9H911.3l-342-700.8v700.8H0V-.1h569.3v614.9zM450.8 118.5v937.4l543.1-937.4h370.2L583.5 1441.9l780.6 1640.4H985.4L450.8 1986.7v1095.6H118.6V118.6h332.2zm2093.9 2406.1H3458v676.2H1975.5V0h569.3v2524.6zM2426.2 118.5v2524.6h913.3v439.1H2094.1V118.5h332.2zm1992.3 1088.7h344v-531h-344v531zm344 676.2h-344v1317.4h-569.3V407.7L4157.6 0h865.7l308.4 407.7v2793.1h-569.3V1883.4zm-794.7 1198.8V447.4l248.9-329h747.7l248.9 329v2634.8h-332.2V1764.8H4300v1317.4h-332.2zM4300 1325.7h581.1V557.6H4300v768.1zM6292.3-.1v3200.8H5723V-.1h569.3zm-118.5 118.5v2963.7h-332.2V118.4h332.2zm1079 2406.1h344v-641.2h-344v641.2zm0-1317.4h344v-531h-344v531zm777.3 338.1l136 179.8v1067.2l-308.4 408.6H6683.5V0h1174.1L8166 407.7v957.8l-136 179.8zM7798.7 118.4l248.9 329v878.3l-166.1 219.6 166.1 219.6v987.7l-248.9 329.7h-996.6V118.6h996.6zm-664.4 1207.2h581.1V557.5h-581.1v768.1zm0 1317.4h581.1v-878.3h-581.1V2643zM9126.6 676.1v531h498.3v676.2h-498.3v641.2h913.3v676.2H8557.4V-.1h1482.5v676.2h-913.3zm794.7-557.7v439.1H9008v768.1h498.3v439.1H9008V2643h913.3v439.1H8675.9V118.4h1245.4zm1753 1676l265.7 1406.3h-573.5l-248.9-1317.4h-115.4v1317.4h-569.3V-.1H11607l308.4 407.7v1068l-241.2 318.8zm-126.2-1676l248.9 329v988.4l-248.9 329 248.9 1317.4h-332.2l-248.9-1317.4h-332.2v1317.4h-332.2V118.5h996.6zm-83.3 1207.2V557.5h-581.1v768.1h581.1z" fill="#332b24"/><defs /></svg>