<svg xmlns="http://www.w3.org/2000/svg" width="638.479" height="204.094" viewBox="0 0 12720.4 4066.1"  shape-rendering="geometricPrecision" image-rendering="optimizeQuality" fill-rule="evenodd" xmlns:v="https://vecta.io/nano"><path d="M24225.1-45033.699h120478.898V75445.199H24225.1z" fill="#ccc"/><path d="M12697.8 22.6h-678v4021h678V22.6zm-11997.2 0h-678v4021h678V22.6zm1702.3 3207.1h-482.1V836.4h482.1v2393.3zM2700.4 22.6H1242.7v4021h1457.8l380.4-504v-3014L2700.4 22.7zm2087.4 1533.6h-482.1V836.5h482.1v719.7zm678 310.9V525.6L5085.3 22.7H3627.6v4021h678V2370.2h187.9l316.1 1673.5h682.6l-334.3-1769.6 307.8-406.9zM6717.1 22.6h-678v4021h678V22.6zm1702.3 1231.8h678V525.6L8716.9 22.7H7639.7l-380.5 502.9v1341.5l380.5 502.9h779.7v859.7h-482.1v-417.9h-678v727.8l380.4 504h1077.4l380.4-504V2060.2l-380.4-504h-779.8V836.5h482.1v417.9zm2380.3 0h678V525.6l-380.5-502.9H10020l-380.5 502.9v1341.5L10020 2370h779.7v859.7h-482.1v-417.9h-678v727.8l380.4 504h1077.4l380.4-504V2060.2l-380.4-504h-779.8V836.5h482.1v417.9z" fill="#fff"/><path d="M12720.4 0v4066.1h-723.2V0h723.2zM723.2 0v4066.1H0V0h723.2zM572.6 150.6v3764.9h-422V150.6h422zm1807.7 3056.5V859h-436.9v2348.1h436.9zM2711.7 0l391.8 518v3029.2l-391.7 519H1220.2V.1h1491.5zm-74.9 150.6l316.1 417.9v2928.2l-316.1 418.9h-1266V150.7h1266zm-105.9 3207.1V708.4h-738.1v2649.3h738.1zm2232-1824.1V859.1H4326v674.5h436.9zm416.8 746.1l337.5 1786.5h-728.5l-316.1-1673.5H4326v1673.5h-723.2V.1h1491.5l391.8 518v1356.7l-306.4 405zm-160.4-2129l316.1 417.9v1255.6l-316.1 417.9 316.1 1673.5h-422l-316.1-1673.5h-422v1673.5h-422V150.7h1266zm-105.9 1533.6V708.6h-738.1v975.7h738.1zM6739.6.1v4066.1h-723.2V.1h723.2zM6589 150.7v3764.9h-422V150.7h422zm1807.7 708.4h-436.9v674.5h768.4l391.7 519v1494.6l-391.7 519H7628.3l-391.7-519v-757.9h723.2v417.9h436.9v-814.5h-768.3l-391.8-518V518L7628.4 0h1099.7l391.8 518v759h-723.2V859.1zm256.5-708.4l316.1 417.9v557.8h-422V708.5h-738.1v975.7h844l316.1 418.9v1393.6l-316.1 418.9h-949.9l-316.1-418.9v-556.9h422v417.9h738.1V2242h-844l-316.1-417.9V568.5l316.1-417.9h949.9zM10777 859.1h-436.9v674.5h768.4l391.7 519v1494.6l-391.7 519h-1099.9l-391.7-519v-757.9h723.2v417.9h436.9v-814.5h-768.3l-391.8-518V518l391.8-518h1099.7l391.8 518v759H10777V859.1zm256.5-708.4l316.1 417.9v557.8h-422V708.5h-738.1v975.7h844l316.1 418.9v1393.6l-316.1 418.9h-949.9l-316.1-418.9v-556.9h422v417.9h738.1V2242h-844l-316.1-417.9V568.5l316.1-417.9h949.9zm1536.3 0v3764.9h-422V150.7h422z" fill="#332b24"/><defs /></svg>