<svg xmlns="http://www.w3.org/2000/svg" width="806.752" height="204.094" viewBox="0 0 16280.1 4118.6"  shape-rendering="geometricPrecision" image-rendering="optimizeQuality" fill-rule="evenodd" xmlns:v="https://vecta.io/nano"><path d="M45708.801-37291.398h122032.602V84741.203H45708.801z" fill="#ccc"/><path d="M15570.5 1270.5h686.8V532.3l-385.4-509.4h-1091.1l-385.4 509.4v1358.8l385.4 509.4h789.7v870.8h-488.3V2848h-686.8v737.2l385.3 510.5H15872l385.3-510.5V2086.7l-385.3-510.5h-789.8v-729h488.3v423.3zm-14372.5 0h686.8V532.3L1499.4 22.9H408.3L22.9 532.3v1358.8l385.4 509.4H1198v870.8H709.7V2848H22.9v737.2l385.3 510.5h1091.3l385.3-510.5V2086.7l-385.3-510.5H709.7v-729H1198v423.3zm2411 141.7h686.8v-880L3910.4 22.8H2819.3l-385.4 509.4v3052.9l385.3 510.5h1091.3l385.3-510.5v-878.9H3609v565h-488.3V847.1H3609v565zM5531.6 22.8h-686.8v4072.8h686.8V2400.5h488.3v1695.1h686.8V22.8h-686.8v1553.4h-488.3V22.8zm2411 0h-686.8v3562.3l385.3 510.5h1091.3l385.3-510.5V22.8h-686.8v3248.5h-488.3V22.8zm2411 0h-686.8v3562.3l385.3 510.5h1091.3l385.3-510.5V22.8h-686.8v3248.5h-488.3V22.8zm2904.1 1553.4h-488.3v-729h488.3v729zm686.8 314.9V532.3l-385.4-509.4h-1476.5v4072.8h686.8V2400.6h190.3l320.2 1695.1h691.4l-338.6-1792.4 311.8-412.2z" fill="#fff"/><path d="M1175.1 870.1H732.5v683.2h778.3l396.8 525.7v1513.8l-396.8 525.7H396.7L-.1 3592.8v-767.7h732.5v423.3H1175v-825H396.8L-.1 1898.8V524.6L396.8 0h1113.9l396.9 524.6v768.8h-732.5V870.1zm14372.5 0H15105v683.2h778.3l396.8 525.7v1513.8l-396.8 525.7h-1114.1l-396.8-525.7v-767.7h732.5v423.3h442.6v-825h-778.2l-396.9-524.6V524.6L14769.3 0h1113.9l396.9 524.6v768.8h-732.5V870.1zm259.8-717.6l320.2 423.3v565h-427.4V717.5h-747.7v988.3h854.9l320.2 424.3v1411.6l-320.2 424.3h-962.1l-320.2-424.3v-564.1h427.4v423.3h747.7V2270.8h-854.9l-320.2-423.3V575.7l320.2-423.3h962.1zm-2575 1400.8V870.1h-442.6v683.2h442.6zm422.2 755.7l341.8 1809.5h-737.9l-320.2-1695.1h-148.5v1695.1h-732.5V-.1H13568l396.9 524.6v1374.2l-310.3 410.2zm-162.4-2156.5l320.2 423.3v1271.8l-320.2 423.3 320.2 1695.1H13385l-320.2-1695.1h-427.4V3966H12210V152.5h1282.3zM13385 1705.9V717.6h-747.7v988.3h747.7zm-3008.5 1542.6h442.6V0h732.5v3592.9l-396.8 525.7h-1114.1l-396.8-525.7V0h732.5v3248.5zm-580-3095.9h427.4v3248.5h747.7V152.6h427.4v3389.2l-320.2 424.3h-962.1l-320.2-424.3V152.6zm-1831 3095.9h442.6V0h732.5v3592.9l-396.8 525.7H7629.7l-396.8-525.7V0h732.5v3248.5zm-580-3095.9h427.4v3248.5h747.7V152.6H8988v3389.2l-320.2 424.3h-962.1l-320.2-424.3V152.6zm-1831 1400.8h442.6V0h732.5v4118.6h-732.5V2423.5h-442.6v1695.1H4822V0h732.5v1553.4zM5402 152.6V1706h747.7V152.6h427.4v3813.5h-427.4V2271H5402v1695.1h-427.4V152.6H5402zM3586.1 870.2h-442.6v2378.4h442.6v-565h732.5v909.5l-396.8 525.7H2807.7l-396.8-525.7V524.8L2807.8.2h1113.9l396.9 524.6v910.5h-732.5v-565zm259.8-717.6l320.2 423.3v706.8h-427.4v-565H2991v2683.4h747.7v-565h427.4v705.8l-320.2 424.3h-962.1l-320.2-424.3V576l320.2-423.3h962.1zm-2411 0l320.2 423.3v565h-427.4V717.6H580v988.3h854.9l320.2 424.3v1411.6l-320.2 424.3H472.8l-320.2-424.3v-564.1H580V3401h747.7V2270.9H472.8l-320.2-423.3V575.8l320.2-423.3h962.1z" fill="#332b24"/><defs /></svg>