<svg xmlns="http://www.w3.org/2000/svg" viewBox="0 0 430000 310000"  shape-rendering="geometricPrecision" image-rendering="optimizeQuality" fill-rule="evenodd" xmlns:v="https://vecta.io/nano"><path d="M292631.6 244713c0-5116.3-1996.5-9928.3-5612-13548.2-3630.3-3619-8435.7-5617.8-13545.7-5617.8h-63683l60801.2-79358c13013.8-16790.7 16794.4-31368 16794.4-44568.5 0-18120-7067.6-35120.5-19854.8-47905-12799.2-12805.6-29791.3-19854-47902.5-19854-18091.6 0-35083.6 7048.3-47874.5 19854-12791.2 12784.4-19854.5 29785-19854.5 47905 0 5103.7 1994.2 9903 5611.7 13531 3632.5 3615 8427.2 5613.8 13537.3 5613.8 10576 0 19166.2-8585.5 19166.2-19144.8 0-16245.2 13215.5-29445.7 29413.8-29445.7 7872 0 15263.5 3059.8 20830.3 8624.3 5543 5556.5 8614 12947 8614 20821.4 0 5613.7-817 11712.8-10031.4 22876.5l-83584.3 109129.4c-2024.4 3122.8-3557.5 7394-3557.5 11086.7 0 5125.3 1994.2 9936.7 5611.7 13556.4 3632.5 3620 8427.2 5592.2 13537.3 5592.2H273474c10571.7 0 19157.7-8577.3 19157.7-19148.6z" fill="#2b2a29" fill-rule="nonzero"/></svg>