<svg xmlns="http://www.w3.org/2000/svg" viewBox="0 0 430000 310000"  shape-rendering="geometricPrecision" image-rendering="optimizeQuality" fill-rule="evenodd" xmlns:v="https://vecta.io/nano"><path d="M283798 194059c0-18619.5-7187-36207.3-20140.6-49447.2-1055-1009.6-2107.7-1792.7-3746.7-2396l-3896-1438.5 3684.5-1887.2c1645.5-863.8 2689.3-1912.5 3958.3-3436 8060-10938 12356.3-23887 12356.3-37461.2 0-16835.2-6566.3-32700-18492.6-44601.2C245620 41483 229763 34920 212920 34920c-25958.4 0-49670.2 16317.7-58949.6 40664.2-32.3 55.6-1519.6 5332.8-1519.6 7420.4 0 5069.7 1975.3 9825.2 5554.7 13388.2 3577.4 3594.5 8327.6 5558.4 13388 5558.4 7978.8 0 15076-5328 17879-12642.8 3761.2-9851.5 13135-16507.8 23647.6-16507.8 6750.2 0 13069 2625 17818.7 7377.5 4767 4770 7390.6 11092 7390.6 17815 0 13899.3-11468.6 25205-25209.3 25205-5045.4 0-9799.8 1976.8-13390 5537.4-3558.5 3577.8-5522.6 8344.3-5522.6 13395 0 5066.3 1964 9820.5 5522.6 13393.4 3590.2 3586.5 8224.5 5554.6 13390 5554.6 17988 0 32993.2 14806.8 32993.2 32980.7 0 8811.5-3425.7 17087.8-9658.4 23318.8-6239 6229.8-14500.3 9661.8-23334.8 9661.8-11507.2 0-21324-5528.7-27828.6-15139.8-4686-6967.2-9816.5-9705.4-16513.7-9705.4-5034.7 0-9799.8 1976.6-13390 5546-3562.8 3594.3-5535 8331.7-5535 13385.4 0 3988.6 1236.4 7793.2 3607 11109.3 13120.6 20467.7 35439.2 32685 59660.3 32685 39089.2 0 70878-31794.7 70878-70861z" fill="#2b2a29" fill-rule="nonzero"/></svg>