<svg xmlns="http://www.w3.org/2000/svg" viewBox="0 0 430000 310000"  shape-rendering="geometricPrecision" image-rendering="optimizeQuality" fill-rule="evenodd" xmlns:v="https://vecta.io/nano"><path d="M271942.7 148372.8c0-5052-1971.8-9800.6-5563-13385.4-3561.8-3564-8312.4-5532.4-13390.5-5532.4-5041.7 0-9783.7 1968.4-13379.5 5532.4-3565.7 3584.8-5533.5 8333.5-5533.5 13385.4v35597.4h-54602.4l59734-121527.6c1991.6-4648 2100.4-9792.2 214-14500.4-1876-4697.2-5465-8403.8-10109-10397.5-4648-2019-9781.5-2088-14485.4-209.2-4706 1890.5-8382.5 5462.6-10432 10194l-72005.3 146464.3c-5647.2 12047 1007.5 27845.5 16748.3 27845.5h84938v25202.4c0 5064.5 1967.8 9813.2 5533.5 13411.4 3595.8 3558.8 8337.8 5527 13379.5 5527 10455.4 0 18953.6-8491.8 18953.6-18938.3v-98669z" fill="#2b2a29" fill-rule="nonzero"/></svg>