<svg xmlns="http://www.w3.org/2000/svg" viewBox="0 0 430000 310000"  shape-rendering="geometricPrecision" image-rendering="optimizeQuality" fill-rule="evenodd" xmlns:v="https://vecta.io/nano"><path d="M292383.7 187523.8c0-19142.5-7448.7-37152.4-20982-50669.3-13535.8-13533.4-31525.2-21004.4-50683-21004.4h-22869.3V80665.7h64898.3c10557.7 0 19155.6-8591.5 19155.6-19159.8 0-5128.8-1998.4-9922.8-5617.8-13552.6-3606.3-3615.4-8430.3-5625-13537.8-5625H178705c-5107.5 0-9916.8 2009.5-13535.8 5625-3621.6 3629.8-5624 8423.8-5624 13552.6v73505.3c0 5111 2002.5 9913.8 5624 13546 3619 3610.7 8428.3 5604.3 13535.8 5604.3h42013.8c18417.8 0 33364.6 14979.2 33364.6 33362.3v13139.5c0 8919.5-3456 17281.8-9766.5 23602.3-6295 6278-14682.8 9759.8-23598 9759.8-11304 0-21752.2-5677-28011-15274.3-3387.6-5968.7-9781.4-9679-16633.8-9679-5126.7 0-9920.8 1998.4-13544.7 5617.8-3631.7 3606.7-5613 8417.8-5613 13529.6 0 3653.5 979.7 7187.4 2841 10154.7 13190.3 21269.8 35986.5 33954.2 60961.3 33954.2 39546 0 71665-32145 71665-71665v-13139.5z" fill="#2b2a29" fill-rule="nonzero"/></svg>